<?xml version="1.0" standalone="no"?>
<!DOCTYPE svg PUBLIC "-//W3C//DTD SVG 1.1//EN" "http://www.w3.org/Graphics/SVG/1.1/DTD/svg11.dtd" >
<svg xmlns="http://www.w3.org/2000/svg" xmlns:xlink="http://www.w3.org/1999/xlink" version="1.1">
<metadata>
Created by FontForge 20170731 at Tue Apr 17 04:24:24 2018
 By Aleksey,,,
Copyright (c) 2018 by Benjamin Critton &#38; Colophon Foundry. All rights reserved.
</metadata>
<defs>
<font id="MabryPro-Regular" horiz-adv-x="0" >
  <font-face 
    font-family="Mabry Pro"
    font-weight="400"
    font-stretch="normal"
    units-per-em="1000"
    panose-1="2 13 5 3 4 0 2 4 3 3"
    ascent="792"
    descent="-208"
    x-height="474"
    cap-height="700"
    bbox="-801 -258 1727 1056"
    underline-thickness="62"
    underline-position="-346"
    unicode-range="U+000D-1F610"
  />
<missing-glyph horiz-adv-x="590" 
d="M45 0v700h500v-700h-500zM295 416l135 219h-270zM110 585v-470l144 235zM480 115v470l-145 -235zM160 65h270l-135 219z" />
    <glyph glyph-name="f_f" unicode="ff" horiz-adv-x="630" 
d="M117 0v401h-106v73h106v72q0 75 44.5 119.5t121.5 44.5q41 0 74 -14.5t49 -39.5q35 54 115 54q76 0 116.5 -38t40.5 -102q0 -16 -1 -22h-81q1 5 1 18q0 34 -20.5 52.5t-55.5 18.5q-75 0 -75 -93v-70h134v-73h-134v-401h-86v401h-156v-401h-87zM204 474h156v84
q0 79 -76 79q-38 0 -59 -24.5t-21 -69.5v-69z" />
    <glyph glyph-name="fi" unicode="fi" horiz-adv-x="507" 
d="M446 474v-474h-87v401h-156v-401h-86v401h-106v73h106v72q0 75 42.5 119.5t118.5 44.5t116.5 -38t40.5 -102q0 -16 -1 -22h-81l1 18q0 34 -20.5 52.5t-55.5 18.5q-75 0 -75 -93v-70h243z" />
    <glyph glyph-name="fl" unicode="fl" horiz-adv-x="513" 
d="M117 0v401h-106v73h106v79q0 73 42.5 115t122.5 42q79 0 121.5 -42t42.5 -115v-553h-86v550q0 42 -20 64.5t-58 22.5q-78 0 -78 -87v-76h101v-73h-101v-401h-87z" />
    <glyph glyph-name="f_f_i" unicode="ffi" horiz-adv-x="751" 
d="M117 0v401h-106v73h106v72q0 75 44.5 119.5t121.5 44.5q89 0 123 -54q38 54 115 54q76 0 116.5 -38t40.5 -102q0 -16 -1 -22h-81l1 18q0 34 -20.5 52.5t-55.5 18.5q-75 0 -75 -93v-70h243v-474h-87v401h-156v-401h-86v401h-156v-401h-87zM204 474h156v84q0 79 -76 79
q-38 0 -59 -24.5t-21 -69.5v-69z" />
    <glyph glyph-name="f_f_l" unicode="ffl" horiz-adv-x="756" 
d="M117 0v401h-106v73h106v72q0 75 44.5 119.5t121.5 44.5q86 0 122 -54q35 54 119 54q80 0 122.5 -42t42.5 -115v-553h-87v550q0 87 -78 87q-38 0 -58 -22.5t-20 -64.5v-76h102v-73h-102v-401h-86v401h-156v-401h-87zM204 474h156v84q0 79 -76 79q-38 0 -59 -24.5
t-21 -69.5v-69z" />
    <glyph glyph-name=".notdef" horiz-adv-x="590" 
d="M45 0v700h500v-700h-500zM295 416l135 219h-270zM110 585v-470l144 235zM480 115v470l-145 -235zM160 65h270l-135 219z" />
    <glyph glyph-name=".null" 
 />
    <glyph glyph-name="nonmarkingreturn" horiz-adv-x="333" 
 />
    <glyph glyph-name="CR" unicode="&#xd;" horiz-adv-x="245" 
 />
    <glyph glyph-name="space" unicode=" " horiz-adv-x="245" 
 />
    <glyph glyph-name="exclam" unicode="!" horiz-adv-x="236" 
d="M75 175v525h86v-525h-86zM66 0v105h104v-105h-104z" />
    <glyph glyph-name="quotedbl" unicode="&#x22;" horiz-adv-x="352" 
d="M76 465l-22 128v107h92v-107l-22 -128h-48zM228 465l-22 128v107h92v-107l-22 -128h-48z" />
    <glyph glyph-name="numbersign" unicode="#" horiz-adv-x="785" 
d="M204 208h-151v78h167l25 127h-162v78h178l42 209h82l-42 -209h145l42 209h82l-42 -209h162v-78h-178l-25 -127h173v-78h-189l-41 -208h-82l41 208h-145l-41 -208h-82zM302 286h145l25 127h-145z" />
    <glyph glyph-name="dollar" unicode="$" horiz-adv-x="623" 
d="M368 -8v-90h-83v91q-91 12 -159 65.5t-97 147.5l82 45q43 -150 174 -173v244q-200 47 -200 202q0 70 55.5 122.5t144.5 61.5v90h83v-92q71 -11 122 -53t75 -109l-81 -44q-28 97 -116 120v-228q113 -22 166.5 -69.5t53.5 -125.5q0 -85 -61 -140q-59 -54 -159 -65zM285 410
v214q-51 -5 -81 -32t-30 -67q0 -43 27.5 -70t83.5 -45zM499 189q0 45 -30 72t-101 44v-229q62 7 96.5 37.5t34.5 75.5z" />
    <glyph glyph-name="percent" unicode="%" horiz-adv-x="840" 
d="M38 533q0 77 49 127t127 50t127.5 -50.5t49.5 -126.5t-49.5 -126.5t-127.5 -50.5t-127 50t-49 127zM316 533q0 48 -28 78t-74 30q-45 0 -73 -30t-28 -78t28 -78t73 -30q46 0 74 30t28 78zM192 84l-51 52l499 478l51 -52zM449 167q0 76 49.5 126.5t127.5 50.5t127 -50
t49 -127t-49 -127t-127 -50t-127.5 50.5t-49.5 126.5zM727 167q0 48 -28 78t-73 30q-46 0 -74 -30t-28 -78t28 -78t74 -30q45 0 73 30t28 78z" />
    <glyph glyph-name="ampersand" unicode="&#x26;" horiz-adv-x="799" 
d="M705 107l59 -54q-42 -63 -122 -63q-39 0 -70 15t-64 49q-83 -64 -212 -64q-110 0 -176.5 59.5t-66.5 156.5q0 141 153 203q-50 65 -50 134q0 74 51 120.5t130 46.5q80 0 125.5 -44.5t45.5 -110.5q0 -132 -166 -180l171 -198q61 88 67 238l84 -7q-14 -186 -96 -294
q40 -43 79 -43q35 0 58 36zM240 544q0 -30 11 -53.5t39 -55.5q75 20 103.5 46t28.5 70q0 36 -24 59.5t-63 23.5q-42 0 -68.5 -25.5t-26.5 -64.5zM308 74q84 0 145 42l-197 233q-60 -24 -87.5 -58t-27.5 -85q0 -60 44.5 -96t122.5 -36z" />
    <glyph glyph-name="quotesingle" unicode="'" horiz-adv-x="200" 
d="M76 465l-22 128v107h92v-107l-22 -128h-48z" />
    <glyph glyph-name="parenleft" unicode="(" horiz-adv-x="417" 
d="M45 350q0 172 82.5 296t233.5 198l34 -69q-271 -133 -271 -425t271 -425l-34 -69q-151 74 -233.5 198t-82.5 296z" />
    <glyph glyph-name="parenright" unicode=")" horiz-adv-x="417" 
d="M294 350q0 292 -271 425l34 69q151 -74 233.5 -198t82.5 -296t-82.5 -296t-233.5 -198l-34 69q271 133 271 425z" />
    <glyph glyph-name="asterisk" unicode="*" horiz-adv-x="446" 
d="M183 723h80v-71l-31 -96l86 61l67 22l24 -76l-67 -22h-104l83 -60l41 -57l-65 -46l-41 57l-33 100l-33 -100l-41 -57l-66 46l42 57l83 60h-105l-66 22l24 76l67 -22l86 -61l-31 96v71z" />
    <glyph glyph-name="plus" unicode="+" horiz-adv-x="568" 
d="M64 338h182v183h76v-183h183v-76h-183v-182h-76v182h-182v76z" />
    <glyph glyph-name="comma" unicode="," horiz-adv-x="236" 
d="M33 -103l9 48q18 -9 39 -9q39 0 39 33q0 31 -36 31h-18v105h104v-131q0 -86 -88 -86q-26 0 -49 9z" />
    <glyph glyph-name="hyphen" unicode="-" horiz-adv-x="361" 
d="M49 292h263v-78h-263v78z" />
    <glyph glyph-name="period" unicode="." horiz-adv-x="236" 
d="M66 105h104v-105h-104v105z" />
    <glyph glyph-name="slash" unicode="/" horiz-adv-x="510" 
d="M388 829l73 -27l-339 -931l-73 27z" />
    <glyph glyph-name="zero" unicode="0" horiz-adv-x="642" 
d="M41 350q0 164 76 262t204 98t204.5 -98t76.5 -262t-76.5 -262t-204.5 -98t-204 98t-76 262zM515 350q0 124 -51 203q-49 79 -143 79q-92 0 -143 -79t-51 -203t51 -203t143 -79q94 0 143 79q51 79 51 203z" />
    <glyph glyph-name="one" unicode="1" horiz-adv-x="374" 
d="M211 0v563q-21 -48 -71 -80t-101 -36l-17 89q78 8 129.5 50.5t69.5 113.5h77v-700h-87z" />
    <glyph glyph-name="two" unicode="2" horiz-adv-x="581" 
d="M249 281q80 41 111 62q85 56 85 143q0 66 -43.5 106t-117.5 40q-67 0 -111.5 -41.5t-44.5 -99.5q0 -61 39 -109l-74 -48q-53 70 -53 151q0 95 69 160t179 65q113 0 178.5 -61t65.5 -159q0 -84 -41.5 -139.5t-129.5 -99.5q-54 -28 -104 -57q-83 -47 -94 -113h370v-81h-478
q0 101 49 167t145 114z" />
    <glyph glyph-name="three" unicode="3" horiz-adv-x="571" 
d="M22 192l83 37q9 -72 56 -115t119 -43q68 0 115 43t47 112q0 73 -43.5 115.5t-115.5 42.5q-62 0 -100 -35l-50 62l236 208h-317v81h449v-66l-219 -189q15 3 37 3q85 0 147 -59.5t62 -156.5q0 -107 -70.5 -174.5t-177.5 -67.5q-101 0 -170 55.5t-88 146.5z" />
    <glyph glyph-name="four" unicode="4" horiz-adv-x="575" 
d="M351 0v179h-315v91q91 89 119.5 167t30.5 218v45h87v-45q0 -126 -32 -222q-31 -95 -113 -176h223v227h87v-227h119v-78h-119v-179h-87z" />
    <glyph glyph-name="five" unicode="5" horiz-adv-x="596" 
d="M523 700v-81h-358q0 -100 -25 -225q70 80 184 80q100 0 165.5 -62t65.5 -167q0 -113 -70 -184t-187 -71q-98 0 -169 53q-69 53 -83 153l84 24q24 -149 168 -149q79 0 124.5 45.5t45.5 118.5t-43 117t-121 44q-51 0 -95.5 -26.5t-62.5 -66.5l-92 21q30 196 30 376h439z
" />
    <glyph glyph-name="six" unicode="6" horiz-adv-x="591" 
d="M41 345q0 160 71 262.5t202 102.5q98 0 157.5 -50t71.5 -136l-82 -25q-19 133 -152 133q-79 0 -130.5 -72t-51.5 -209v-14q25 50 78.5 81.5t113.5 31.5q99 0 162 -64.5t63 -157.5q0 -105 -66 -171.5t-168 -66.5q-130 0 -199.5 97.5t-69.5 257.5zM458 220q0 68 -43.5 110
t-112.5 42q-62 0 -106 -42.5t-44 -106.5q0 -68 43.5 -110t112.5 -42q66 0 108 41.5t42 107.5z" />
    <glyph glyph-name="seven" unicode="7" horiz-adv-x="524" 
d="M34 700h456v-71q-230 -158 -230 -466q0 -76 12 -163h-95q-9 69 -9 142q0 300 202 477h-336v81z" />
    <glyph glyph-name="eight" unicode="8" horiz-adv-x="582" 
d="M42 200q0 66 36.5 117t100.5 72q-98 45 -98 143q0 75 58.5 126.5t151.5 51.5t151.5 -51.5t58.5 -126.5q0 -98 -98 -143q64 -21 100.5 -72t36.5 -117q0 -89 -66.5 -149.5t-182.5 -60.5t-182.5 60.5t-66.5 149.5zM417 528q0 46 -35 75t-91 29t-91 -29t-35 -75
q0 -49 34.5 -78t91.5 -29t91.5 29t34.5 78zM454 210q0 61 -45 99.5t-118 38.5t-118 -38.5t-45 -99.5q0 -63 44 -101t119 -38t119 38t44 101z" />
    <glyph glyph-name="nine" unicode="9" horiz-adv-x="596" 
d="M42 197l85 25q7 -74 49.5 -112.5t114.5 -38.5q85 0 134 72t50 204l-1 36q-24 -61 -74 -97t-116 -36q-103 0 -167 64.5t-64 159.5q0 104 66.5 170t166.5 66q140 0 204 -100q65 -100 65 -258q0 -101 -26 -180t-88.5 -130.5t-154.5 -51.5q-102 0 -167.5 59t-76.5 148z
M443 480q0 66 -43 109q-42 43 -109 43t-109 -44t-42 -111q0 -68 42 -108.5t109 -40.5t109.5 42t42.5 110z" />
    <glyph glyph-name="colon" unicode=":" horiz-adv-x="236" 
d="M66 341v105h104v-105h-104zM66 0v105h104v-105h-104z" />
    <glyph glyph-name="semicolon" unicode=";" horiz-adv-x="236" 
d="M66 341v105h104v-105h-104zM33 -103l9 48q18 -9 39 -9q39 0 39 33q0 31 -36 31h-18v105h104v-131q0 -86 -88 -86q-26 0 -49 9z" />
    <glyph glyph-name="less" unicode="&#x3c;" horiz-adv-x="560" 
d="M496 74l-431 187v78l431 188v-90l-329 -137l329 -137v-89z" />
    <glyph glyph-name="equal" unicode="=" horiz-adv-x="569" 
d="M64 418h442v-76h-442v76zM64 258h442v-76h-442v76z" />
    <glyph glyph-name="greater" unicode="&#x3e;" horiz-adv-x="560" 
d="M65 74v89l329 137l-329 137v90l431 -188v-78z" />
    <glyph glyph-name="question" unicode="?" horiz-adv-x="474" 
d="M78 321q0 127 168 156q108 19 108 85q0 33 -29.5 54t-79.5 21q-54 0 -91 -30.5t-51 -87.5l-71 38q21 72 78 112.5t136 40.5q87 0 139.5 -39.5t52.5 -101.5q0 -63 -41 -101.5t-133 -58.5q-102 -21 -102 -87q0 -32 21.5 -51t57.5 -19q74 0 106 89l69 -39
q-47 -122 -174 -122q-73 0 -118.5 39t-45.5 102zM191 0v105h105v-105h-105z" />
    <glyph glyph-name="at" unicode="@" horiz-adv-x="846" 
d="M657 92q35 0 54 40.5t19 115.5q0 142 -78.5 219.5t-225.5 77.5q-122 2 -215.5 -88.5t-90.5 -219.5q0 -143 85 -225.5t211 -82.5q93 0 175 54l32 -61q-90 -60 -209 -60q-73 -1 -139.5 24t-118.5 71t-82 118.5t-29 161.5q-2 156 110.5 266.5t271.5 108.5q169 0 271.5 -94.5
t102.5 -251.5q0 -116 -39.5 -178.5t-103.5 -62.5q-84 0 -102 82q-49 -82 -151 -82q-84 0 -137.5 59.5t-53.5 150.5t56.5 152.5t137.5 61.5q42 0 78 -19t53 -49v56h72v-291q0 -54 46 -54zM416 382q-56 0 -92 -40.5t-36 -106.5t35 -104.5t91 -38.5q55 0 91.5 39t36.5 104
q0 66 -37.5 106.5t-88.5 40.5z" />
    <glyph glyph-name="A" unicode="A" horiz-adv-x="739" 
d="M13 0l293 700h128l293 -700h-102l-72 178h-366l-73 -178h-101zM220 262h299l-149 365z" />
    <glyph glyph-name="B" unicode="B" horiz-adv-x="688" 
d="M76 0v700h317q98 0 160 -52t62 -130q0 -51 -28.5 -93t-76.5 -64q130 -43 130 -172q0 -81 -65 -135t-161 -54h-338zM168 401h229q59 0 93 28.5t34 79.5q0 48 -36 76t-91 28h-229v-212zM168 87h243q58 0 95.5 31.5t37.5 82.5t-37 84.5t-96 33.5h-243v-232z" />
    <glyph glyph-name="C" unicode="C" horiz-adv-x="777" 
d="M141 350q0 -128 70.5 -202t183.5 -74q116 0 180 61t87 163l81 -33q-28 -124 -119 -199.5t-229 -75.5q-156 -1 -254 102t-96 258q-2 151 100.5 257t249.5 103q129 0 205 -66q78 -66 105 -167l-84 -38q-18 86 -77 136.5t-149 50.5q-109 0 -181.5 -76t-72.5 -200z" />
    <glyph glyph-name="D" unicode="D" horiz-adv-x="726" 
d="M76 0v700h260q163 0 254.5 -97t91.5 -256q0 -154 -92.5 -250.5t-253.5 -96.5h-260zM168 616v-532h168q119 0 186.5 73t67.5 190q0 125 -66.5 197t-187.5 72h-168z" />
    <glyph glyph-name="E" unicode="E" horiz-adv-x="633" 
d="M76 700h493v-87h-401v-207h371v-87h-371v-232h411v-87h-503v700z" />
    <glyph glyph-name="F" unicode="F" horiz-adv-x="616" 
d="M76 700h489v-87h-397v-228h367v-87h-367v-298h-92v700z" />
    <glyph glyph-name="G" unicode="G" horiz-adv-x="788" 
d="M388 -10q-147 -2 -246 101.5t-97 258.5q-2 151 100 257t248 103q133 0 218.5 -64t113.5 -177l-90 -30q-45 184 -241 184q-106 0 -179.5 -76.5t-73.5 -196.5q0 -121 71 -197t187 -76q92 0 151 62t69 137h-317v86h429v-362h-79v157q-84 -167 -264 -167z" />
    <glyph glyph-name="H" unicode="H" horiz-adv-x="737" 
d="M569 303h-401v-303h-92v700h92v-313h401v313h92v-700h-92v303z" />
    <glyph glyph-name="I" unicode="I" horiz-adv-x="243" 
d="M76 0v700h92v-700h-92z" />
    <glyph glyph-name="J" unicode="J" horiz-adv-x="598" 
d="M437 700h92v-466q0 -105 -59 -174.5t-177 -69.5q-112 0 -177.5 64.5t-65.5 167.5q0 69 28 121l87 -33q-23 -41 -23 -93q0 -62 41.5 -101t109.5 -39q144 0 144 174v449z" />
    <glyph glyph-name="K" unicode="K" horiz-adv-x="672" 
d="M378 426l270 -426h-110l-223 358l-147 -156v-202h-92v700h92v-374l348 374h119z" />
    <glyph glyph-name="L" unicode="L" horiz-adv-x="638" 
d="M76 700h92v-613h428v-87h-520v700z" />
    <glyph glyph-name="M" unicode="M" horiz-adv-x="942" 
d="M867 0h-92v651l-234 -651h-140l-233 651v-651h-92v700h170l225 -631l225 631h171v-700z" />
    <glyph glyph-name="N" unicode="N" horiz-adv-x="766" 
d="M168 636v-636h-92v700h158l364 -636v636h92v-700h-159z" />
    <glyph glyph-name="O" unicode="O" horiz-adv-x="812" 
d="M406 710q151 3 257.5 -104.5t104.5 -255.5q2 -149 -104.5 -256t-257.5 -104q-151 -3 -257 104t-104 256q-2 148 104 255.5t257 104.5zM406 77q113 0 189 76t76 197t-75 197t-190 76t-190 -76t-75 -198q0 -121 75.5 -196.5t189.5 -75.5z" />
    <glyph glyph-name="P" unicode="P" horiz-adv-x="658" 
d="M168 288v-288h-92v700h309q105 0 166 -58.5t61 -147.5q0 -86 -62 -146t-165 -60h-217zM168 375h209q63 0 100.5 31.5t37.5 87.5t-37.5 87.5t-100.5 31.5h-209v-238z" />
    <glyph glyph-name="Q" unicode="Q" horiz-adv-x="812" 
d="M526 9q-58 -19 -120 -19q-151 -3 -257 104t-104 256q-2 148 104 255.5t257 104.5q151 3 257.5 -104.5t104.5 -255.5q0 -95 -43.5 -175t-121.5 -129q28 -71 105 -71q42 0 74 24l29 -77q-49 -32 -112 -32q-62 0 -107.5 30.5t-65.5 88.5zM257 178q0 65 45 106.5t115 41.5
q157 0 171 -172v-8q83 77 83 204q0 121 -75 197t-190 76t-190 -76t-75 -198q0 -81 35 -144t98 -96q-17 31 -17 69zM512 96q-1 3 -1 15q-4 140 -101 140q-37 0 -60.5 -23t-23.5 -59q0 -42 23.5 -67t64.5 -25q53 0 98 19z" />
    <glyph glyph-name="R" unicode="R" horiz-adv-x="672" 
d="M625 0h-113q-23 45 -24 160q-1 73 -34.5 104.5t-102.5 31.5h-183v-296h-92v700h320q102 0 162.5 -54.5t60.5 -135.5q0 -132 -140 -180q107 -41 111 -171q2 -65 8.5 -94t26.5 -51v-14zM168 383h220q63 0 98.5 30.5t35.5 84.5q0 55 -35.5 85t-98.5 30h-220v-230z" />
    <glyph glyph-name="S" unicode="S" horiz-adv-x="629" 
d="M308 623q-60 0 -98 -27t-38 -71q0 -50 46 -80t137 -48q125 -24 182 -71.5t57 -128.5q0 -90 -74.5 -148.5t-189.5 -58.5q-99 0 -182 50t-119 164l85 53q21 -87 77 -133.5t140 -46.5q76 0 122 32t46 85q0 48 -40 76.5t-136 43.5q-243 42 -243 209q0 79 66 133t170 54
q88 0 154.5 -44t94.5 -122l-86 -49q-35 128 -171 128z" />
    <glyph glyph-name="T" unicode="T" horiz-adv-x="672" 
d="M641 700v-87h-259v-613h-92v613h-259v87h610z" />
    <glyph glyph-name="U" unicode="U" horiz-adv-x="715" 
d="M69 700h92v-411q0 -101 52.5 -156.5t143.5 -55.5q93 0 145 55.5t52 156.5v411h92v-420q0 -128 -78.5 -209t-210.5 -81t-210 80.5t-78 209.5v420z" />
    <glyph glyph-name="V" unicode="V" horiz-adv-x="728" 
d="M364 71l253 629h100l-289 -700h-128l-289 700h101z" />
    <glyph glyph-name="W" unicode="W" horiz-adv-x="988" 
d="M182 0l-169 700h97l149 -639l155 639h160l155 -639l149 639h97l-169 -700h-154l-158 641l-159 -641h-153z" />
    <glyph glyph-name="X" unicode="X" horiz-adv-x="674" 
d="M18 0l265 380l-225 320h112l167 -252l171 252h108l-225 -320l265 -380h-109l-210 308l-210 -308h-109z" />
    <glyph glyph-name="Y" unicode="Y" horiz-adv-x="672" 
d="M124 700l212 -331l218 331h105l-277 -412v-288h-92v288l-276 412h110z" />
    <glyph glyph-name="Z" unicode="Z" horiz-adv-x="702" 
d="M52 87l472 526h-467v87h586v-87l-473 -526h478v-87h-596v87z" />
    <glyph glyph-name="bracketleft" unicode="[" horiz-adv-x="306" 
d="M76 818h185v-70h-107v-832h107v-70h-185v972z" />
    <glyph glyph-name="backslash" unicode="\" horiz-adv-x="510" 
d="M461 -102l-73 -27l-339 931l73 27z" />
    <glyph glyph-name="bracketright" unicode="]" horiz-adv-x="306" 
d="M45 -154v70h107v832h-107v70h185v-972h-185z" />
    <glyph glyph-name="asciicircum" unicode="^" horiz-adv-x="552" 
d="M310 710l189 -212v-14h-99l-117 152h-14l-116 -152h-99v14l189 212h67z" />
    <glyph glyph-name="underscore" unicode="_" horiz-adv-x="574" 
d="M41 -25h493v-78h-493v78z" />
    <glyph glyph-name="grave" unicode="`" horiz-adv-x="324" 
d="M181 555l-121 119v14h117l87 -133h-83z" />
    <glyph glyph-name="a" unicode="a" horiz-adv-x="515" 
d="M45 135q0 71 48 109t128 38q53 0 101 -15l43 -12v49q0 51 -32.5 79t-86.5 28q-51 0 -84 -26t-42 -72l-78 22q14 69 68 109t136 40q96 0 149 -49.5t53 -137.5v-297h-83v75q-18 -39 -62 -62t-101 -23q-66 0 -112 39q-45 41 -45 106zM365 177v10l-44 13q-50 15 -88 15
q-46 0 -72.5 -19.5t-26.5 -55.5q0 -34 25.5 -54t71.5 -20q60 0 97 30t37 81z" />
    <glyph glyph-name="b" unicode="b" horiz-adv-x="573" 
d="M67 700h86v-315q24 45 69.5 72t98.5 27q94 0 154 -70t60 -180q0 -109 -62.5 -176.5t-161.5 -67.5q-51 0 -94 23.5t-68 64.5v-78h-82v700zM299 67q63 0 106.5 45.5t43.5 122.5t-43.5 124t-106.5 47q-60 0 -105 -47.5t-45 -123.5t44.5 -122t105.5 -46z" />
    <glyph glyph-name="c" unicode="c" horiz-adv-x="550" 
d="M285 66q127 0 157 142l77 -29q-20 -90 -81.5 -139.5t-150.5 -49.5q-112 0 -180.5 69t-68.5 181q0 105 70 174.5t168 69.5q86 0 144.5 -45t75.5 -126l-79 -24q-11 57 -48 88t-94 31q-60 0 -106.5 -45.5t-46.5 -122.5t48.5 -125.5t114.5 -48.5z" />
    <glyph glyph-name="d" unicode="d" horiz-adv-x="573" 
d="M38 234q0 110 61.5 180t158.5 70q54 0 96 -25.5t66 -70.5v312h87v-700h-83v85q-24 -44 -67.5 -69.5t-96.5 -25.5q-98 0 -160 67.5t-62 176.5zM424 235q0 75 -45.5 123t-104.5 48q-61 0 -105.5 -47.5t-44.5 -123.5q0 -77 44 -122.5t106 -45.5q59 0 104.5 46t45.5 122z" />
    <glyph glyph-name="e" unicode="e" horiz-adv-x="522" 
d="M414 172l75 -29q-51 -153 -212 -153q-106 0 -172.5 68.5t-66.5 181.5q0 104 63 174t163 70q95 0 153 -55q58 -54 58 -147q0 -31 -6 -58h-343q1 -75 43.5 -116.5t107.5 -41.5q107 0 137 106zM126 286h263l1 14q0 50 -36 79t-91 29t-92.5 -33t-44.5 -89z" />
    <glyph glyph-name="f" unicode="f" horiz-adv-x="387" 
d="M117 0v401h-106v73h106v72q0 75 42.5 119.5t118.5 44.5t116.5 -38t40.5 -102q0 -16 -1 -22h-81l1 18q0 34 -20.5 52.5t-55.5 18.5q-75 0 -75 -93v-70h134v-73h-134v-401h-86z" />
    <glyph glyph-name="g" unicode="g" horiz-adv-x="576" 
d="M65 -62l78 33q28 -103 140 -103q68 0 103.5 43.5t35.5 124.5v53q-22 -41 -64.5 -65t-100.5 -24q-92 0 -155.5 65.5t-63.5 169.5q0 109 64.5 179t159.5 70q108 0 160 -81v71h87v-432q0 -111 -59 -181q-58 -69 -167 -69q-171 0 -218 146zM426 241q0 72 -42.5 119.5
t-107.5 47.5q-67 0 -109.5 -47t-42.5 -127q0 -72 42.5 -115t109.5 -43q65 0 107.5 46.5t42.5 118.5z" />
    <glyph glyph-name="h" unicode="h" horiz-adv-x="555" 
d="M153 0h-86v700h86v-326q20 51 64.5 80.5t102.5 29.5q78 0 123.5 -48t45.5 -129v-307h-87v287q0 60 -29.5 91.5t-83.5 31.5q-58 0 -97 -46.5t-39 -118.5v-245z" />
    <glyph glyph-name="i" unicode="i" horiz-adv-x="220" 
d="M67 474h86v-474h-86v474zM62 562v101h96v-101h-96z" />
    <glyph glyph-name="j" unicode="j" horiz-adv-x="220" 
d="M67 -198v672h86v-672h-86zM62 562v101h96v-101h-96z" />
    <glyph glyph-name="k" unicode="k" horiz-adv-x="505" 
d="M286 282l195 -282h-105l-150 218l-73 -77v-141h-86v700h86v-448l203 222h110z" />
    <glyph glyph-name="l" unicode="l" horiz-adv-x="220" 
d="M67 0v700h86v-700h-86z" />
    <glyph glyph-name="m" unicode="m" horiz-adv-x="752" 
d="M67 474h86v-67q38 77 128 77q44 0 76.5 -24.5t44.5 -69.5q18 44 55.5 69t83.5 25q67 0 105.5 -40.5t38.5 -114.5v-329h-86v311q0 44 -24 69.5t-63 25.5q-41 0 -67 -29t-26 -82v-295h-87v307q0 48 -23.5 73.5t-63.5 25.5q-41 0 -66.5 -30t-25.5 -86v-290h-86v474z" />
    <glyph glyph-name="n" unicode="n" horiz-adv-x="543" 
d="M153 0h-86v474h86v-77q52 87 156 87q77 0 122 -47t45 -129v-308h-87v282q0 62 -28 94t-80 32q-55 0 -91.5 -40.5t-36.5 -107.5v-260z" />
    <glyph glyph-name="o" unicode="o" horiz-adv-x="556" 
d="M38 237q0 106 67 176.5t173 70.5q107 0 174 -70.5t67 -176.5t-67.5 -176.5t-173.5 -70.5t-173 70.5t-67 176.5zM430 237q0 75 -43 121q-42 48 -109 48q-66 0 -109 -47.5t-43 -121.5t43 -121.5t109 -47.5q67 0 109.5 47t42.5 122z" />
    <glyph glyph-name="p" unicode="p" horiz-adv-x="573" 
d="M67 474h82v-89q24 43 70.5 71t99.5 28q96 0 156 -68.5t60 -178.5t-62.5 -178.5t-159.5 -68.5q-51 0 -93.5 22t-66.5 62v-272h-86v672zM299 67q62 0 106 45t44 124q0 78 -44 124t-106 46q-59 0 -104.5 -47.5t-45.5 -122.5t45.5 -122t104.5 -47z" />
    <glyph glyph-name="q" unicode="q" horiz-adv-x="573" 
d="M420 -198v283q-54 -95 -164 -95q-96 0 -157 69.5t-61 177.5q0 110 62.5 178.5t160.5 68.5q56 0 99 -26.5t64 -71.5v88h83v-672h-87zM424 236q0 77 -44.5 123.5t-105.5 46.5q-62 0 -106 -46t-44 -124q0 -79 44 -124t106 -45q60 0 105 46t45 123z" />
    <glyph glyph-name="r" unicode="r" horiz-adv-x="440" 
d="M67 474h86v-69q33 79 121 79q57 0 93.5 -37t36.5 -92q0 -29 -6 -53h-84q3 21 3 35q0 33 -20.5 52t-55.5 19q-40 0 -64 -29t-24 -77v-302h-86v474z" />
    <glyph glyph-name="s" unicode="s" horiz-adv-x="472" 
d="M33 124l71 37q20 -50 53.5 -72.5t87.5 -22.5q47 0 74.5 19t27.5 50q0 35 -27.5 54.5t-97.5 28.5q-163 24 -163 136q0 57 48 93q49 37 123 37q126 0 171 -105l-67 -37q-24 72 -104 72q-40 0 -66 -17t-26 -44q0 -30 28.5 -46t98.5 -26q166 -22 166 -141q0 -65 -54.5 -107.5
t-135.5 -42.5q-79 0 -133 36t-75 98z" />
    <glyph glyph-name="t" unicode="t" horiz-adv-x="448" 
d="M117 141v260h-94v73h94v147h87v-147h170v-73h-170v-264q0 -33 18 -52t47 -19q60 0 71 74l80 -18q-10 -64 -48.5 -98t-99.5 -34q-75 0 -115 39.5t-40 111.5z" />
    <glyph glyph-name="u" unicode="u" horiz-adv-x="545" 
d="M392 474h87v-474h-87v80q-52 -90 -155 -90q-79 0 -124.5 46.5t-45.5 133.5v304h86v-284q0 -124 107 -124q57 0 94.5 43t37.5 113v252z" />
    <glyph glyph-name="v" unicode="v" horiz-adv-x="521" 
d="M110 474l151 -390l150 390h92l-190 -474h-105l-189 474h91z" />
    <glyph glyph-name="w" unicode="w" horiz-adv-x="741" 
d="M102 474l111 -390l107 390h101l107 -390l111 390h85l-141 -474h-107l-105 364l-105 -364h-108l-141 474h85z" />
    <glyph glyph-name="x" unicode="x" horiz-adv-x="468" 
d="M434 474l-152 -223l173 -251h-99l-122 183l-122 -183h-99l174 250l-154 224h101l100 -154l99 154h101z" />
    <glyph glyph-name="y" unicode="y" horiz-adv-x="481" 
d="M376 474h92l-304 -672h-92l117 259l-181 413h94l133 -312z" />
    <glyph glyph-name="z" unicode="z" horiz-adv-x="495" 
d="M448 0h-406v73l293 323h-288v78h396v-73l-293 -323h298v-78z" />
    <glyph glyph-name="braceleft" unicode="{" horiz-adv-x="318" 
d="M89 -23v272q0 47 -45 47h-10v72h10q45 0 45 47v272q0 69 31.5 100t98.5 31h54v-71h-54q-52 0 -52 -55v-268q0 -41 -16 -62t-53 -30q37 -9 53 -29.5t16 -61.5v-269q0 -55 52 -55h54v-71h-54q-67 0 -98.5 31t-31.5 100z" />
    <glyph glyph-name="bar" unicode="|" horiz-adv-x="230" 
d="M76 830h79v-980h-79v980z" />
    <glyph glyph-name="braceright" unicode="}" horiz-adv-x="318" 
d="M45 -154v71h54q52 0 52 55v269q0 41 16 61.5t53 29.5q-37 9 -53 30t-16 62v268q0 55 -52 55h-54v71h55q67 0 98.5 -31t31.5 -100v-272q0 -47 44 -47h11v-72h-11q-44 0 -44 -47v-272q0 -69 -31.5 -100t-98.5 -31h-55z" />
    <glyph glyph-name="asciitilde" unicode="~" horiz-adv-x="532" 
d="M76 229l-1 17q0 52 34 83.5t84 31.5q51 0 92 -41q31 -27 52 -27q19 0 32.5 13t13.5 33q0 9 -4 20l77 -10q2 -12 2 -17q0 -51 -34 -83.5t-85 -32.5q-31 0 -49 9t-43 32q-28 28 -52 28q-19 0 -32.5 -13t-13.5 -34q0 -11 3 -20z" />
    <glyph glyph-name="uni00A0" unicode="&#xa0;" horiz-adv-x="245" 
 />
    <glyph glyph-name="exclamdown" unicode="&#xa1;" horiz-adv-x="236" 
d="M66 502h104v-105h-104v105zM75 327h86v-525h-86v525z" />
    <glyph glyph-name="cent" unicode="&#xa2;" horiz-adv-x="550" 
d="M315 -9v-89h-81v92q-90 16 -143 81.5t-53 164.5q0 93 55.5 159t140.5 81v92h81v-91q72 -9 119 -52.5t62 -115.5l-79 -24q-19 95 -102 115v-336q101 14 127 140l77 -29q-19 -83 -72 -131.5t-132 -56.5zM234 74v328q-50 -15 -81 -57t-31 -105q0 -61 31 -104.5t81 -61.5z
" />
    <glyph glyph-name="sterling" unicode="&#xa3;" horiz-adv-x="630" 
d="M524 141l77 -41q-47 -110 -164 -110q-83 0 -146 66q-40 -66 -121 -66q-59 0 -92.5 32t-33.5 84q0 50 34.5 82.5t88.5 32.5q46 0 83 -23q-4 44 -36 90h-132v78h75q-48 70 -48 143q0 90 64.5 145.5t159.5 55.5q92 0 150.5 -49.5t70.5 -134.5l-89 -27q-8 61 -42 94t-90 33
q-59 0 -95.5 -33t-36.5 -94q0 -34 12 -62t41 -71h171v-78h-124q23 -54 23 -105q0 -28 -4 -47q34 -34 57.5 -48t54.5 -14q66 0 92 67zM241 110q-33 33 -68 33q-24 0 -38.5 -12.5t-14.5 -31.5t14 -31t38 -12q49 0 69 54z" />
    <glyph glyph-name="currency" unicode="&#xa4;" horiz-adv-x="598" 
d="M483 221l71 -71l-55 -55l-71 71q-58 -40 -129 -40t-129 40l-71 -71l-55 55l71 71q-40 58 -40 129q0 70 40 128l-71 72l55 55l71 -71q58 40 129 40t129 -40l71 71l55 -55l-71 -71q40 -58 40 -129t-40 -129zM299 205q61 0 103 42t42 103t-42 103t-103 42t-103 -42t-42 -103
t42 -103t103 -42z" />
    <glyph glyph-name="yen" unicode="&#xa5;" horiz-adv-x="672" 
d="M659 700l-227 -336h121v-79h-172v-53h172v-78h-172v-154h-89v154h-172v78h172v53h-172v79h121l-227 336h104l218 -332l218 332h105z" />
    <glyph glyph-name="brokenbar" unicode="&#xa6;" horiz-adv-x="230" 
d="M76 400v430h79v-430h-79zM155 300v-450h-79v450h79z" />
    <glyph glyph-name="section" unicode="&#xa7;" horiz-adv-x="531" 
d="M475 63q0 -74 -58.5 -120.5t-151.5 -46.5q-175 0 -211 136l75 37q28 -95 136 -95q55 0 90.5 23t35.5 62q0 85 -171 105q-191 24 -191 151q0 71 74 116q-52 40 -52 112q0 74 58.5 120.5t150.5 46.5q176 0 212 -136l-76 -37q-28 95 -136 95q-55 0 -90.5 -23t-35.5 -62
q0 -85 172 -105q190 -24 190 -151q0 -73 -74 -115q53 -42 53 -113zM266 233q54 -7 94 -23q50 29 50 74q0 38 -33.5 58t-116.5 32q-48 7 -94 22q-52 -28 -52 -74q0 -38 34 -58t118 -31z" />
    <glyph glyph-name="dieresis" unicode="&#xa8;" horiz-adv-x="344" 
d="M40 567v99h97v-99h-97zM207 567v99h97v-99h-97z" />
    <glyph glyph-name="copyright" unicode="&#xa9;" horiz-adv-x="536" 
d="M44 486q0 93 65 158.5t159 65.5t159 -65.5t65 -158.5t-65 -158.5t-159 -65.5t-159 65.5t-65 158.5zM447 486q0 75 -51.5 127.5t-127.5 52.5t-127.5 -52.5t-51.5 -127.5t51.5 -127.5t127.5 -52.5t127.5 52.5t51.5 127.5zM140 487q0 56 37 92q37 37 90 37q47 0 77.5 -23.5
t39.5 -67.5l-43 -13q-4 28 -24.5 45t-49.5 17q-34 0 -56 -23t-22 -64q0 -39 23 -63t58 -24q70 0 83 73l43 -16q-13 -49 -46 -75t-80 -26q-57 0 -93.5 36t-36.5 95z" />
    <glyph glyph-name="ordfeminine" unicode="&#xaa;" horiz-adv-x="465" 
d="M39 394q0 63 44 98t115 35q46 0 91 -14l37 -10v43q0 45 -28.5 70.5t-76.5 25.5q-44 0 -73.5 -23.5t-37.5 -63.5l-72 20q13 62 61.5 98.5t121.5 36.5q88 0 136 -45t48 -125v-269h-77v67q-18 -36 -57 -56t-90 -20q-61 0 -101.5 36.5t-40.5 95.5zM326 431v9l-37 12
q-40 13 -79 13q-87 0 -87 -68q0 -30 22.5 -47.5t63.5 -17.5q52 0 84.5 27t32.5 72z" />
    <glyph glyph-name="guillemotleft" unicode="&#xab;" horiz-adv-x="500" 
d="M253 90l-202 198v24l202 198h14v-96l-124 -107v-14l124 -107v-96h-14zM430 90l-202 198v24l202 198h14v-96l-124 -107v-14l124 -107v-96h-14z" />
    <glyph glyph-name="logicalnot" unicode="&#xac;" horiz-adv-x="565" 
d="M428 220v125h-364v74h437v-199h-73z" />
    <glyph glyph-name="uni00AD" unicode="&#xad;" horiz-adv-x="361" 
d="M49 292h263v-78h-263v78z" />
    <glyph glyph-name="registered" unicode="&#xae;" horiz-adv-x="536" 
d="M44 486q0 93 65 158.5t159 65.5t159 -65.5t65 -158.5t-65 -158.5t-159 -65.5t-159 65.5t-65 158.5zM447 486q0 75 -51.5 127.5t-127.5 52.5t-127.5 -52.5t-51.5 -127.5t51.5 -127.5t127.5 -52.5t127.5 52.5t51.5 127.5zM177 361v251h113q36 0 58 -18.5t22 -46.5
q0 -51 -49 -68q42 -13 42 -61q0 -38 13 -51v-6h-52q-10 19 -10 57q0 26 -11 37t-36 11h-45v-105h-45zM222 506h62q39 0 39 33q0 34 -39 34h-62v-67z" />
    <glyph glyph-name="overscore" unicode="&#xaf;" horiz-adv-x="382" 
d="M64 650h254v-69h-254v69z" />
    <glyph glyph-name="degree" unicode="&#xb0;" horiz-adv-x="411" 
d="M42 547q0 67 48 115t115 48t115 -48t48 -115t-48 -115t-115 -48t-115 48t-48 115zM299 547q0 40 -26.5 67.5t-67.5 27.5t-67.5 -27.5t-26.5 -67.5t26.5 -67.5t67.5 -27.5t67.5 27.5t26.5 67.5z" />
    <glyph glyph-name="plusminus" unicode="&#xb1;" horiz-adv-x="573" 
d="M251 127v160h-183v76h183v160h75v-160h183v-76h-183v-160h-75zM64 0v76h442v-76h-442z" />
    <glyph glyph-name="uni00B2" unicode="&#xb2;" horiz-adv-x="295" 
d="M26 598q0 47 33.5 76.5t85.5 29.5q57 0 88.5 -28t31.5 -77q-1 -33 -14 -56.5t-27 -34.5t-49 -33q-31 -20 -44 -31.5t-19 -27.5h154v-56h-236q0 53 23 86.5t72 61.5q45 24 61.5 42.5t16.5 45.5q0 24 -15.5 38t-44.5 14q-25 0 -41 -14t-16 -35q0 -23 14 -37l-48 -32
q-26 29 -26 68z" />
    <glyph glyph-name="uni00B3" unicode="&#xb3;" horiz-adv-x="309" 
d="M27 455l57 27q4 -31 22.5 -49t48.5 -18q26 0 43.5 16.5t17.5 42.5q0 27 -16 43.5t-42 16.5q-24 0 -40 -13l-35 43l95 79h-133v57h216v-49l-83 -71h7q36 0 64.5 -29t28.5 -76q0 -53 -34.5 -86t-88.5 -33q-53 0 -86 26.5t-42 72.5z" />
    <glyph glyph-name="acute" unicode="&#xb4;" horiz-adv-x="324" 
d="M60 555l87 133h117v-14l-121 -119h-83z" />
    <glyph glyph-name="uni00B5" unicode="&#xb5;" horiz-adv-x="545" 
d="M67 -198v672h86v-284q0 -124 113 -124q54 0 90 42.5t36 113.5v252h87v-474h-87v80q-45 -90 -142 -90q-65 0 -97 41v-229h-86z" />
    <glyph glyph-name="paragraph" unicode="&#xb6;" horiz-adv-x="535" 
d="M230 0v354h-20q-80 0 -129 48q-49 49 -49 125t49 124q49 49 129 49h290v-59h-44v-641h-67v641h-91v-641h-68zM210 413h20v228h-20q-47 0 -78.5 -30.5t-31.5 -83.5t31.5 -83.5t78.5 -30.5z" />
    <glyph glyph-name="middot" unicode="&#xb7;" horiz-adv-x="236" 
d="M66 403h104v-105h-104v105z" />
    <glyph glyph-name="cedilla" unicode="&#xb8;" horiz-adv-x="284" 
d="M102 -53q21 23 50 23q34 0 55.5 -21t21.5 -56q0 -38 -23.5 -59.5t-60.5 -21.5q-35 0 -59 17.5t-30 49.5l47 12q2 -15 13 -24.5t27 -9.5q18 0 29 10t11 26t-11 26.5t-29 10.5q-26 0 -38 -21l-47 9q10 35 21 98h51q-16 -48 -28 -69z" />
    <glyph glyph-name="uni00B9" unicode="&#xb9;" horiz-adv-x="211" 
d="M108 360v254q-23 -48 -83 -53l-9 65q82 6 97 74h56v-340h-61z" />
    <glyph glyph-name="ordmasculine" unicode="&#xba;" horiz-adv-x="500" 
d="M250 710q97 0 156.5 -62.5t59.5 -161.5t-59.5 -161.5t-156.5 -62.5t-156.5 62.5t-59.5 161.5t59.5 161.5t156.5 62.5zM250 334q60 0 98 42t38 110t-38 110t-98 42t-97.5 -42t-37.5 -110t37.5 -110t97.5 -42z" />
    <glyph glyph-name="guillemotright" unicode="&#xbb;" horiz-adv-x="500" 
d="M56 90v96l124 107v14l-124 107v96h14l202 -198v-24l-202 -198h-14zM233 90v96l124 107v14l-124 107v96h14l202 -198v-24l-202 -198h-14z" />
    <glyph glyph-name="onequarter" unicode="&#xbc;" horiz-adv-x="653" 
d="M108 360v254q-23 -48 -83 -53l-9 65q82 6 97 74h56v-340h-61zM503 592l44 -43l-486 -464l-45 43zM538 0v75h-160v64q38 37 54 77t16 102v22h61v-22q0 -118 -65 -186h94v103h61v-103h42v-57h-42v-75h-61z" />
    <glyph glyph-name="onehalf" unicode="&#xbd;" horiz-adv-x="648" 
d="M108 360v254q-23 -48 -83 -53l-9 65q82 6 97 74h56v-340h-61zM503 592l44 -43l-486 -464l-45 43zM379 238q0 47 33.5 76.5t85.5 29.5q57 0 88.5 -28t31.5 -77q-1 -33 -14 -56.5t-27 -34.5t-49 -33q-31 -20 -44 -31.5t-19 -27.5h154v-56h-236q0 53 23 86.5t72 61.5
q45 24 61.5 42.5t16.5 45.5q0 24 -15.5 38t-44.5 14q-25 0 -41 -14t-16 -35q0 -23 14 -37l-48 -32q-26 29 -26 68z" />
    <glyph glyph-name="threequarters" unicode="&#xbe;" horiz-adv-x="751" 
d="M27 455l57 27q4 -31 22.5 -49t48.5 -18q26 0 43.5 16.5t17.5 42.5q0 27 -16 43.5t-42 16.5q-24 0 -40 -13l-35 43l95 79h-133v57h216v-49l-83 -71h7q36 0 64.5 -29t28.5 -76q0 -53 -34.5 -86t-88.5 -33q-53 0 -86 26.5t-42 72.5zM601 592l44 -43l-486 -464l-45 43zM636 0
v75h-160v64q38 37 54 77t16 102v22h61v-22q0 -118 -65 -186h94v103h61v-103h42v-57h-42v-75h-61z" />
    <glyph glyph-name="questiondown" unicode="&#xbf;" horiz-adv-x="474" 
d="M283 502v-105h-105v105h105zM396 181q0 -127 -168 -156q-108 -19 -108 -85q0 -33 29.5 -54t79.5 -21q54 0 91 30.5t51 87.5l71 -38q-21 -72 -78 -112.5t-136 -40.5q-87 0 -139.5 39.5t-52.5 101.5q0 63 41 101.5t133 58.5q102 21 102 87q0 32 -21.5 51t-57.5 19
q-74 0 -106 -89l-69 39q47 122 174 122q73 0 118.5 -39t45.5 -102z" />
    <glyph glyph-name="Agrave" unicode="&#xc0;" horiz-adv-x="739" 
d="M13 0l293 700h128l293 -700h-102l-72 178h-366l-73 -178h-101zM220 262h299l-149 365zM329 781l-121 119v14h117l87 -133h-83z" />
    <glyph glyph-name="Aacute" unicode="&#xc1;" horiz-adv-x="739" 
d="M13 0l293 700h128l293 -700h-102l-72 178h-366l-73 -178h-101zM220 262h299l-149 365zM329 781l87 133h117v-14l-121 -119h-83z" />
    <glyph glyph-name="Acircumflex" unicode="&#xc2;" horiz-adv-x="739" 
d="M13 0l293 700h128l293 -700h-102l-72 178h-366l-73 -178h-101zM220 262h299l-149 365zM218 781v14l121 106h62l121 -106v-14h-95l-57 69l-57 -69h-95z" />
    <glyph glyph-name="Atilde" unicode="&#xc3;" horiz-adv-x="739" 
d="M13 0l293 700h128l293 -700h-102l-72 178h-366l-73 -178h-101zM220 262h299l-149 365zM355 815q-22 21 -43 21q-15 0 -24.5 -9.5t-9.5 -24.5q0 -8 3 -16l-63 8q-2 8 -2 16q0 39 26.5 64t65.5 25q41 0 77 -31q22 -21 43 -21q15 0 24.5 9.5t9.5 24.5q0 9 -3 16l64 -8
q2 -8 2 -16q0 -39 -27 -64t-66 -25q-41 0 -77 31z" />
    <glyph glyph-name="Adieresis" unicode="&#xc4;" horiz-adv-x="739" 
d="M13 0l293 700h128l293 -700h-102l-72 178h-366l-73 -178h-101zM220 262h299l-149 365zM238 793v99h97v-99h-97zM405 793v99h97v-99h-97z" />
    <glyph glyph-name="Aring" unicode="&#xc5;" horiz-adv-x="739" 
d="M13 0l293 700h128l293 -700h-102l-72 178h-366l-73 -178h-101zM220 262h299l-149 365zM282 853q0 37 25.5 63t62.5 26t63 -26t26 -63t-26 -62.5t-63 -25.5t-62.5 25.5t-25.5 62.5zM409 853q0 16 -11.5 27.5t-27.5 11.5t-27.5 -11.5t-11.5 -27.5t11.5 -27.5t27.5 -11.5
t27.5 11.5t11.5 27.5z" />
    <glyph glyph-name="AE" unicode="&#xc6;" horiz-adv-x="947" 
d="M524 87h369v-87h-461v178h-225l-92 -178h-102l363 700h507v-87h-359v-207h329v-87h-329v-232zM432 262v352l-182 -352h182z" />
    <glyph glyph-name="Ccedilla" unicode="&#xc7;" horiz-adv-x="777" 
d="M141 350q0 -128 70.5 -202t183.5 -74q116 0 180 61t87 163l81 -33q-28 -124 -119 -199.5t-229 -75.5q-156 -1 -254 102t-96 258q-2 151 100.5 257t249.5 103q129 0 205 -66q78 -66 105 -167l-84 -38q-18 86 -77 136.5t-149 50.5q-109 0 -181.5 -76t-72.5 -200zM364 -53
q21 23 50 23q34 0 55.5 -21t21.5 -56q0 -38 -23.5 -59.5t-60.5 -21.5q-35 0 -59 17.5t-30 49.5l47 12q2 -15 13 -24.5t27 -9.5q18 0 29 10t11 26t-11 26.5t-29 10.5q-26 0 -38 -21l-47 9q10 35 21 98h51q-16 -48 -28 -69z" />
    <glyph glyph-name="Egrave" unicode="&#xc8;" horiz-adv-x="633" 
d="M76 700h493v-87h-401v-207h371v-87h-371v-232h411v-87h-503v700zM281 781l-121 119v14h117l87 -133h-83z" />
    <glyph glyph-name="Eacute" unicode="&#xc9;" horiz-adv-x="633" 
d="M76 700h493v-87h-401v-207h371v-87h-371v-232h411v-87h-503v700zM281 781l87 133h117v-14l-121 -119h-83z" />
    <glyph glyph-name="Ecircumflex" unicode="&#xca;" horiz-adv-x="633" 
d="M76 700h493v-87h-401v-207h371v-87h-371v-232h411v-87h-503v700zM170 781v14l121 106h62l121 -106v-14h-95l-57 69l-57 -69h-95z" />
    <glyph glyph-name="Edieresis" unicode="&#xcb;" horiz-adv-x="633" 
d="M76 700h493v-87h-401v-207h371v-87h-371v-232h411v-87h-503v700zM189 793v99h97v-99h-97zM356 793v99h97v-99h-97z" />
    <glyph glyph-name="Igrave" unicode="&#xcc;" horiz-adv-x="243" 
d="M76 0v700h92v-700h-92zM81 781l-121 119v14h117l87 -133h-83z" />
    <glyph glyph-name="Iacute" unicode="&#xcd;" horiz-adv-x="243" 
d="M76 0v700h92v-700h-92zM81 781l87 133h117v-14l-121 -119h-83z" />
    <glyph glyph-name="Icircumflex" unicode="&#xce;" horiz-adv-x="243" 
d="M76 0v700h92v-700h-92zM-30 781v14l121 106h62l121 -106v-14h-95l-57 69l-57 -69h-95z" />
    <glyph glyph-name="Idieresis" unicode="&#xcf;" horiz-adv-x="243" 
d="M76 0v700h92v-700h-92zM-11 793v99h97v-99h-97zM156 793v99h97v-99h-97z" />
    <glyph glyph-name="Eth" unicode="&#xd0;" horiz-adv-x="726" 
d="M76 0v700h260q163 0 254.5 -97t91.5 -256q0 -154 -92.5 -250.5t-253.5 -96.5h-260zM168 616v-532h168q119 0 186.5 73t67.5 190q0 125 -66.5 197t-187.5 72h-168zM-5 387h376v-75h-376v75z" />
    <glyph glyph-name="Ntilde" unicode="&#xd1;" horiz-adv-x="766" 
d="M168 636v-636h-92v700h158l364 -636v636h92v-700h-159zM368 815q-22 21 -43 21q-15 0 -24.5 -9.5t-9.5 -24.5q0 -8 3 -16l-63 8q-2 8 -2 16q0 39 26.5 64t65.5 25q41 0 77 -31q22 -21 43 -21q15 0 24.5 9.5t9.5 24.5q0 9 -3 16l64 -8q2 -8 2 -16q0 -39 -27 -64t-66 -25
q-41 0 -77 31z" />
    <glyph glyph-name="Ograve" unicode="&#xd2;" horiz-adv-x="812" 
d="M406 710q151 3 257.5 -104.5t104.5 -255.5q2 -149 -104.5 -256t-257.5 -104q-151 -3 -257 104t-104 256q-2 148 104 255.5t257 104.5zM406 77q113 0 189 76t76 197t-75 197t-190 76t-190 -76t-75 -198q0 -121 75.5 -196.5t189.5 -75.5zM365 781l-121 119v14h117l87 -133
h-83z" />
    <glyph glyph-name="Oacute" unicode="&#xd3;" horiz-adv-x="812" 
d="M406 710q151 3 257.5 -104.5t104.5 -255.5q2 -149 -104.5 -256t-257.5 -104q-151 -3 -257 104t-104 256q-2 148 104 255.5t257 104.5zM406 77q113 0 189 76t76 197t-75 197t-190 76t-190 -76t-75 -198q0 -121 75.5 -196.5t189.5 -75.5zM365 781l87 133h117v-14l-121 -119
h-83z" />
    <glyph glyph-name="Ocircumflex" unicode="&#xd4;" horiz-adv-x="812" 
d="M406 710q151 3 257.5 -104.5t104.5 -255.5q2 -149 -104.5 -256t-257.5 -104q-151 -3 -257 104t-104 256q-2 148 104 255.5t257 104.5zM406 77q113 0 189 76t76 197t-75 197t-190 76t-190 -76t-75 -198q0 -121 75.5 -196.5t189.5 -75.5zM254 781v14l121 106h62l121 -106
v-14h-95l-57 69l-57 -69h-95z" />
    <glyph glyph-name="Otilde" unicode="&#xd5;" horiz-adv-x="812" 
d="M406 710q151 3 257.5 -104.5t104.5 -255.5q2 -149 -104.5 -256t-257.5 -104q-151 -3 -257 104t-104 256q-2 148 104 255.5t257 104.5zM406 77q113 0 189 76t76 197t-75 197t-190 76t-190 -76t-75 -198q0 -121 75.5 -196.5t189.5 -75.5zM391 815q-22 21 -43 21
q-15 0 -24.5 -9.5t-9.5 -24.5q0 -8 3 -16l-63 8q-2 8 -2 16q0 39 26.5 64t65.5 25q41 0 77 -31q22 -21 43 -21q15 0 24.5 9.5t9.5 24.5q0 9 -3 16l64 -8q2 -8 2 -16q0 -39 -27 -64t-66 -25q-41 0 -77 31z" />
    <glyph glyph-name="Odieresis" unicode="&#xd6;" horiz-adv-x="812" 
d="M406 710q151 3 257.5 -104.5t104.5 -255.5q2 -149 -104.5 -256t-257.5 -104q-151 -3 -257 104t-104 256q-2 148 104 255.5t257 104.5zM406 77q113 0 189 76t76 197t-75 197t-190 76t-190 -76t-75 -198q0 -121 75.5 -196.5t189.5 -75.5zM274 793v99h97v-99h-97zM441 793
v99h97v-99h-97z" />
    <glyph glyph-name="multiply" unicode="&#xd7;" horiz-adv-x="493" 
d="M117 117l-53 54l129 129l-129 129l53 54l130 -129l129 129l53 -54l-129 -129l129 -129l-53 -54l-129 129z" />
    <glyph glyph-name="Oslash" unicode="&#xd8;" horiz-adv-x="812" 
d="M406 710q151 3 257.5 -104.5t104.5 -255.5q2 -149 -104.5 -256t-257.5 -104q-151 -3 -257 104t-104 256q-2 148 104 255.5t257 104.5zM406 77q113 0 189 76t76 197t-75 197t-190 76t-190 -76t-75 -198q0 -121 75.5 -196.5t189.5 -75.5zM181 -27l-64 47l514 707l64 -47z
" />
    <glyph glyph-name="Ugrave" unicode="&#xd9;" horiz-adv-x="715" 
d="M69 700h92v-411q0 -101 52.5 -156.5t143.5 -55.5q93 0 145 55.5t52 156.5v411h92v-420q0 -128 -78.5 -209t-210.5 -81t-210 80.5t-78 209.5v420zM316 781l-121 119v14h117l87 -133h-83z" />
    <glyph glyph-name="Uacute" unicode="&#xda;" horiz-adv-x="715" 
d="M69 700h92v-411q0 -101 52.5 -156.5t143.5 -55.5q93 0 145 55.5t52 156.5v411h92v-420q0 -128 -78.5 -209t-210.5 -81t-210 80.5t-78 209.5v420zM316 781l87 133h117v-14l-121 -119h-83z" />
    <glyph glyph-name="Ucircumflex" unicode="&#xdb;" horiz-adv-x="715" 
d="M69 700h92v-411q0 -101 52.5 -156.5t143.5 -55.5q93 0 145 55.5t52 156.5v411h92v-420q0 -128 -78.5 -209t-210.5 -81t-210 80.5t-78 209.5v420zM205 781v14l121 106h62l121 -106v-14h-95l-57 69l-57 -69h-95z" />
    <glyph glyph-name="Udieresis" unicode="&#xdc;" horiz-adv-x="715" 
d="M69 700h92v-411q0 -101 52.5 -156.5t143.5 -55.5q93 0 145 55.5t52 156.5v411h92v-420q0 -128 -78.5 -209t-210.5 -81t-210 80.5t-78 209.5v420zM224 793v99h97v-99h-97zM391 793v99h97v-99h-97z" />
    <glyph glyph-name="Yacute" unicode="&#xdd;" horiz-adv-x="672" 
d="M124 700l212 -331l218 331h105l-277 -412v-288h-92v288l-276 412h110zM295 781l87 133h117v-14l-121 -119h-83z" />
    <glyph glyph-name="Thorn" unicode="&#xde;" horiz-adv-x="658" 
d="M168 147v-147h-92v700h92v-141h217q105 0 166 -58.5t61 -147.5q0 -87 -62 -146.5t-165 -59.5h-217zM168 233h209q63 0 100.5 32t37.5 88t-37.5 87.5t-100.5 31.5h-209v-239z" />
    <glyph glyph-name="germandbls" unicode="&#xdf;" horiz-adv-x="590" 
d="M338 69q52 0 84 37t32 105q0 74 -55 116.5t-135 42.5v76q53 3 87.5 31t34.5 75q0 39 -24.5 60.5t-66.5 21.5q-45 0 -70.5 -29t-25.5 -82v-523h-86v370h-86v76h86v82q0 83 50 132.5t132 49.5q79 0 126 -41t47 -108q0 -95 -97 -141q77 -16 123 -70.5t46 -136.5
q0 -98 -57 -160.5t-143 -62.5q-57 0 -106 25l15 82q41 -28 89 -28z" />
    <glyph glyph-name="agrave" unicode="&#xe0;" horiz-adv-x="515" 
d="M45 135q0 71 48 109t128 38q53 0 101 -15l43 -12v49q0 51 -32.5 79t-86.5 28q-51 0 -84 -26t-42 -72l-78 22q14 69 68 109t136 40q96 0 149 -49.5t53 -137.5v-297h-83v75q-18 -39 -62 -62t-101 -23q-66 0 -112 39q-45 41 -45 106zM365 177v10l-44 13q-50 15 -88 15
q-46 0 -72.5 -19.5t-26.5 -55.5q0 -34 25.5 -54t71.5 -20q60 0 97 30t37 81zM204 555l-121 119v14h117l87 -133h-83z" />
    <glyph glyph-name="aacute" unicode="&#xe1;" horiz-adv-x="515" 
d="M45 135q0 71 48 109t128 38q53 0 101 -15l43 -12v49q0 51 -32.5 79t-86.5 28q-51 0 -84 -26t-42 -72l-78 22q14 69 68 109t136 40q96 0 149 -49.5t53 -137.5v-297h-83v75q-18 -39 -62 -62t-101 -23q-66 0 -112 39q-45 41 -45 106zM365 177v10l-44 13q-50 15 -88 15
q-46 0 -72.5 -19.5t-26.5 -55.5q0 -34 25.5 -54t71.5 -20q60 0 97 30t37 81zM205 555l87 133h117v-14l-121 -119h-83z" />
    <glyph glyph-name="acircumflex" unicode="&#xe2;" horiz-adv-x="515" 
d="M45 135q0 71 48 109t128 38q53 0 101 -15l43 -12v49q0 51 -32.5 79t-86.5 28q-51 0 -84 -26t-42 -72l-78 22q14 69 68 109t136 40q96 0 149 -49.5t53 -137.5v-297h-83v75q-18 -39 -62 -62t-101 -23q-66 0 -112 39q-45 41 -45 106zM365 177v10l-44 13q-50 15 -88 15
q-46 0 -72.5 -19.5t-26.5 -55.5q0 -34 25.5 -54t71.5 -20q60 0 97 30t37 81zM94 555v14l121 106h62l121 -106v-14h-95l-57 69l-57 -69h-95z" />
    <glyph glyph-name="atilde" unicode="&#xe3;" horiz-adv-x="515" 
d="M45 135q0 71 48 109t128 38q53 0 101 -15l43 -12v49q0 51 -32.5 79t-86.5 28q-51 0 -84 -26t-42 -72l-78 22q14 69 68 109t136 40q96 0 149 -49.5t53 -137.5v-297h-83v75q-18 -39 -62 -62t-101 -23q-66 0 -112 39q-45 41 -45 106zM365 177v10l-44 13q-50 15 -88 15
q-46 0 -72.5 -19.5t-26.5 -55.5q0 -34 25.5 -54t71.5 -20q60 0 97 30t37 81zM231 589q-22 21 -43 21q-15 0 -24.5 -9.5t-9.5 -24.5q0 -8 3 -16l-63 8q-2 8 -2 16q0 39 26.5 64t65.5 25q41 0 77 -31q22 -21 43 -21q15 0 24.5 9.5t9.5 24.5q0 9 -3 16l64 -8q2 -8 2 -16
q0 -39 -27 -64t-66 -25q-41 0 -77 31z" />
    <glyph glyph-name="adieresis" unicode="&#xe4;" horiz-adv-x="515" 
d="M45 135q0 71 48 109t128 38q53 0 101 -15l43 -12v49q0 51 -32.5 79t-86.5 28q-51 0 -84 -26t-42 -72l-78 22q14 69 68 109t136 40q96 0 149 -49.5t53 -137.5v-297h-83v75q-18 -39 -62 -62t-101 -23q-66 0 -112 39q-45 41 -45 106zM365 177v10l-44 13q-50 15 -88 15
q-46 0 -72.5 -19.5t-26.5 -55.5q0 -34 25.5 -54t71.5 -20q60 0 97 30t37 81zM113 567v99h97v-99h-97zM280 567v99h97v-99h-97z" />
    <glyph glyph-name="aring" unicode="&#xe5;" horiz-adv-x="515" 
d="M45 135q0 71 48 109t128 38q53 0 101 -15l43 -12v49q0 51 -32.5 79t-86.5 28q-51 0 -84 -26t-42 -72l-78 22q14 69 68 109t136 40q96 0 149 -49.5t53 -137.5v-297h-83v75q-18 -39 -62 -62t-101 -23q-66 0 -112 39q-45 41 -45 106zM365 177v10l-44 13q-50 15 -88 15
q-46 0 -72.5 -19.5t-26.5 -55.5q0 -34 25.5 -54t71.5 -20q60 0 97 30t37 81zM158 627q0 37 25.5 63t62.5 26t63 -26t26 -63t-26 -62.5t-63 -25.5t-62.5 25.5t-25.5 62.5zM285 627q0 16 -11.5 27.5t-27.5 11.5t-27.5 -11.5t-11.5 -27.5t11.5 -27.5t27.5 -11.5t27.5 11.5
t11.5 27.5z" />
    <glyph glyph-name="ae" unicode="&#xe6;" horiz-adv-x="844" 
d="M45 138q0 71 47 109.5t129 38.5h140v18q0 51 -32 79t-87 28q-50 0 -83 -24.5t-42 -68.5l-75 21q16 70 68 107.5t132 37.5q125 0 174 -84q28 39 73 61.5t98 22.5q94 0 152 -55q59 -54 59 -147q0 -22 -6 -58h-343q1 -75 43 -117t108 -42q107 0 137 107l74 -29
q-51 -153 -211 -153q-67 0 -118.5 30t-76.5 83q-60 -113 -198 -113q-72 0 -117 42t-45 106zM448 286h263q1 3 1 14q0 50 -36 79t-91 29t-92.5 -33t-44.5 -89zM361 187v33h-123q-49 0 -77.5 -21t-28.5 -59q0 -36 24.5 -55t69.5 -19q61 0 98 32.5t37 88.5z" />
    <glyph glyph-name="ccedilla" unicode="&#xe7;" horiz-adv-x="550" 
d="M285 66q127 0 157 142l77 -29q-20 -90 -81.5 -139.5t-150.5 -49.5q-112 0 -180.5 69t-68.5 181q0 105 70 174.5t168 69.5q86 0 144.5 -45t75.5 -126l-79 -24q-11 57 -48 88t-94 31q-60 0 -106.5 -45.5t-46.5 -122.5t48.5 -125.5t114.5 -48.5zM256 -53q21 23 50 23
q34 0 55.5 -21t21.5 -56q0 -38 -23.5 -59.5t-60.5 -21.5q-35 0 -59 17.5t-30 49.5l47 12q2 -15 13 -24.5t27 -9.5q18 0 29 10t11 26t-11 26.5t-29 10.5q-26 0 -38 -21l-47 9q10 35 21 98h51q-16 -48 -28 -69z" />
    <glyph glyph-name="egrave" unicode="&#xe8;" horiz-adv-x="522" 
d="M414 172l75 -29q-51 -153 -212 -153q-106 0 -172.5 68.5t-66.5 181.5q0 104 63 174t163 70q95 0 153 -55q58 -54 58 -147q0 -31 -6 -58h-343q1 -75 43.5 -116.5t107.5 -41.5q107 0 137 106zM126 286h263l1 14q0 50 -36 79t-91 29t-92.5 -33t-44.5 -89zM222 555l-121 119
v14h117l87 -133h-83z" />
    <glyph glyph-name="eacute" unicode="&#xe9;" horiz-adv-x="522" 
d="M414 172l75 -29q-51 -153 -212 -153q-106 0 -172.5 68.5t-66.5 181.5q0 104 63 174t163 70q95 0 153 -55q58 -54 58 -147q0 -31 -6 -58h-343q1 -75 43.5 -116.5t107.5 -41.5q107 0 137 106zM126 286h263l1 14q0 50 -36 79t-91 29t-92.5 -33t-44.5 -89zM223 555l87 133
h117v-14l-121 -119h-83z" />
    <glyph glyph-name="ecircumflex" unicode="&#xea;" horiz-adv-x="522" 
d="M414 172l75 -29q-51 -153 -212 -153q-106 0 -172.5 68.5t-66.5 181.5q0 104 63 174t163 70q95 0 153 -55q58 -54 58 -147q0 -31 -6 -58h-343q1 -75 43.5 -116.5t107.5 -41.5q107 0 137 106zM126 286h263l1 14q0 50 -36 79t-91 29t-92.5 -33t-44.5 -89zM112 555v14
l121 106h62l121 -106v-14h-95l-57 69l-57 -69h-95z" />
    <glyph glyph-name="edieresis" unicode="&#xeb;" horiz-adv-x="522" 
d="M414 172l75 -29q-51 -153 -212 -153q-106 0 -172.5 68.5t-66.5 181.5q0 104 63 174t163 70q95 0 153 -55q58 -54 58 -147q0 -31 -6 -58h-343q1 -75 43.5 -116.5t107.5 -41.5q107 0 137 106zM126 286h263l1 14q0 50 -36 79t-91 29t-92.5 -33t-44.5 -89zM131 567v99h97v-99
h-97zM298 567v99h97v-99h-97z" />
    <glyph glyph-name="igrave" unicode="&#xec;" horiz-adv-x="220" 
d="M67 474h86v-474h-86v474zM68 555l-121 119v14h117l87 -133h-83z" />
    <glyph glyph-name="iacute" unicode="&#xed;" horiz-adv-x="220" 
d="M67 474h86v-474h-86v474zM69 555l87 133h117v-14l-121 -119h-83z" />
    <glyph glyph-name="icircumflex" unicode="&#xee;" horiz-adv-x="220" 
d="M67 474h86v-474h-86v474zM-42 555v14l121 106h62l121 -106v-14h-95l-57 69l-57 -69h-95z" />
    <glyph glyph-name="idieresis" unicode="&#xef;" horiz-adv-x="220" 
d="M67 474h86v-474h-86v474zM-23 567v99h97v-99h-97zM144 567v99h97v-99h-97z" />
    <glyph glyph-name="eth" unicode="&#xf0;" horiz-adv-x="552" 
d="M38 235q0 107 65 178t169 71q86 0 136 -66q-26 80 -90 146l-37 -43l-54 45l38 44q-21 17 -54 38l52 62q18 -12 55 -40l35 40l54 -45l-37 -42q144 -146 144 -369q0 -118 -65.5 -191t-172.5 -73q-106 0 -172 69.5t-66 175.5zM426 235q0 75 -42 123t-108 48t-108 -48
t-42 -123t41.5 -121t108.5 -46t108.5 46t41.5 121z" />
    <glyph glyph-name="ntilde" unicode="&#xf1;" horiz-adv-x="543" 
d="M153 0h-86v474h86v-77q52 87 156 87q77 0 122 -47t45 -129v-308h-87v282q0 62 -28 94t-80 32q-55 0 -91.5 -40.5t-36.5 -107.5v-260zM267 589q-22 21 -43 21q-15 0 -24.5 -9.5t-9.5 -24.5q0 -8 3 -16l-63 8q-2 8 -2 16q0 39 26.5 64t65.5 25q41 0 77 -31q22 -21 43 -21
q15 0 24.5 9.5t9.5 24.5q0 9 -3 16l64 -8q2 -8 2 -16q0 -39 -27 -64t-66 -25q-41 0 -77 31z" />
    <glyph glyph-name="ograve" unicode="&#xf2;" horiz-adv-x="556" 
d="M38 237q0 106 67 176.5t173 70.5q107 0 174 -70.5t67 -176.5t-67.5 -176.5t-173.5 -70.5t-173 70.5t-67 176.5zM430 237q0 75 -43 121q-42 48 -109 48q-66 0 -109 -47.5t-43 -121.5t43 -121.5t109 -47.5q67 0 109.5 47t42.5 122zM236 555l-121 119v14h117l87 -133h-83z
" />
    <glyph glyph-name="oacute" unicode="&#xf3;" horiz-adv-x="556" 
d="M38 237q0 106 67 176.5t173 70.5q107 0 174 -70.5t67 -176.5t-67.5 -176.5t-173.5 -70.5t-173 70.5t-67 176.5zM430 237q0 75 -43 121q-42 48 -109 48q-66 0 -109 -47.5t-43 -121.5t43 -121.5t109 -47.5q67 0 109.5 47t42.5 122zM237 555l87 133h117v-14l-121 -119h-83z
" />
    <glyph glyph-name="ocircumflex" unicode="&#xf4;" horiz-adv-x="556" 
d="M38 237q0 106 67 176.5t173 70.5q107 0 174 -70.5t67 -176.5t-67.5 -176.5t-173.5 -70.5t-173 70.5t-67 176.5zM430 237q0 75 -43 121q-42 48 -109 48q-66 0 -109 -47.5t-43 -121.5t43 -121.5t109 -47.5q67 0 109.5 47t42.5 122zM126 555v14l121 106h62l121 -106v-14h-95
l-57 69l-57 -69h-95z" />
    <glyph glyph-name="otilde" unicode="&#xf5;" horiz-adv-x="556" 
d="M38 237q0 106 67 176.5t173 70.5q107 0 174 -70.5t67 -176.5t-67.5 -176.5t-173.5 -70.5t-173 70.5t-67 176.5zM430 237q0 75 -43 121q-42 48 -109 48q-66 0 -109 -47.5t-43 -121.5t43 -121.5t109 -47.5q67 0 109.5 47t42.5 122zM263 589q-22 21 -43 21q-15 0 -24.5 -9.5
t-9.5 -24.5q0 -8 3 -16l-63 8q-2 8 -2 16q0 39 26.5 64t65.5 25q41 0 77 -31q22 -21 43 -21q15 0 24.5 9.5t9.5 24.5q0 9 -3 16l64 -8q2 -8 2 -16q0 -39 -27 -64t-66 -25q-41 0 -77 31z" />
    <glyph glyph-name="odieresis" unicode="&#xf6;" horiz-adv-x="556" 
d="M38 237q0 106 67 176.5t173 70.5q107 0 174 -70.5t67 -176.5t-67.5 -176.5t-173.5 -70.5t-173 70.5t-67 176.5zM430 237q0 75 -43 121q-42 48 -109 48q-66 0 -109 -47.5t-43 -121.5t43 -121.5t109 -47.5q67 0 109.5 47t42.5 122zM145 567v99h97v-99h-97zM312 567v99h97
v-99h-97z" />
    <glyph glyph-name="divide" unicode="&#xf7;" horiz-adv-x="569" 
d="M238 409v94h93v-94h-93zM64 262v76h442v-76h-442zM238 97v94h93v-94h-93z" />
    <glyph glyph-name="oslash" unicode="&#xf8;" horiz-adv-x="556" 
d="M519 237q0 -106 -67.5 -176.5t-173.5 -70.5q-30 0 -47 4l-18 -49l-74 27l18 48q-56 31 -87.5 88.5t-31.5 128.5q0 106 67 176.5t173 70.5q31 0 48 -4l18 49l73 -27l-18 -48q56 -31 88 -88t32 -129zM186 99l112 306q-4 1 -20 1q-66 0 -109 -47.5t-43 -121.5q0 -88 60 -138
zM430 237q0 88 -60 138l-112 -306q5 -1 20 -1q67 0 109.5 47t42.5 122z" />
    <glyph glyph-name="ugrave" unicode="&#xf9;" horiz-adv-x="545" 
d="M392 474h87v-474h-87v80q-52 -90 -155 -90q-79 0 -124.5 46.5t-45.5 133.5v304h86v-284q0 -124 107 -124q57 0 94.5 43t37.5 113v252zM231 555l-121 119v14h117l87 -133h-83z" />
    <glyph glyph-name="uacute" unicode="&#xfa;" horiz-adv-x="545" 
d="M392 474h87v-474h-87v80q-52 -90 -155 -90q-79 0 -124.5 46.5t-45.5 133.5v304h86v-284q0 -124 107 -124q57 0 94.5 43t37.5 113v252zM232 555l87 133h117v-14l-121 -119h-83z" />
    <glyph glyph-name="ucircumflex" unicode="&#xfb;" horiz-adv-x="545" 
d="M392 474h87v-474h-87v80q-52 -90 -155 -90q-79 0 -124.5 46.5t-45.5 133.5v304h86v-284q0 -124 107 -124q57 0 94.5 43t37.5 113v252zM121 555v14l121 106h62l121 -106v-14h-95l-57 69l-57 -69h-95z" />
    <glyph glyph-name="udieresis" unicode="&#xfc;" horiz-adv-x="545" 
d="M392 474h87v-474h-87v80q-52 -90 -155 -90q-79 0 -124.5 46.5t-45.5 133.5v304h86v-284q0 -124 107 -124q57 0 94.5 43t37.5 113v252zM140 567v99h97v-99h-97zM307 567v99h97v-99h-97z" />
    <glyph glyph-name="yacute" unicode="&#xfd;" horiz-adv-x="481" 
d="M376 474h92l-304 -672h-92l117 259l-181 413h94l133 -312zM194 555l87 133h117v-14l-121 -119h-83z" />
    <glyph glyph-name="thorn" unicode="&#xfe;" horiz-adv-x="573" 
d="M67 700h86v-310q24 41 69 67.5t97 26.5q96 0 156 -68.5t60 -178.5t-62.5 -178.5t-159.5 -68.5q-51 0 -94 22.5t-66 61.5v-272h-86v898zM299 67q62 0 106 45t44 124q0 78 -44 124t-106 46q-59 0 -104.5 -47.5t-45.5 -122.5t45.5 -122t104.5 -47z" />
    <glyph glyph-name="ydieresis" unicode="&#xff;" horiz-adv-x="481" 
d="M376 474h92l-304 -672h-92l117 259l-181 413h94l133 -312zM102 567v99h97v-99h-97zM269 567v99h97v-99h-97z" />
    <glyph glyph-name="Amacron" unicode="&#x100;" horiz-adv-x="739" 
d="M13 0l293 700h128l293 -700h-102l-72 178h-366l-73 -178h-101zM220 262h299l-149 365zM243 876h254v-69h-254v69z" />
    <glyph glyph-name="amacron" unicode="&#x101;" horiz-adv-x="515" 
d="M45 135q0 71 48 109t128 38q53 0 101 -15l43 -12v49q0 51 -32.5 79t-86.5 28q-51 0 -84 -26t-42 -72l-78 22q14 69 68 109t136 40q96 0 149 -49.5t53 -137.5v-297h-83v75q-18 -39 -62 -62t-101 -23q-66 0 -112 39q-45 41 -45 106zM365 177v10l-44 13q-50 15 -88 15
q-46 0 -72.5 -19.5t-26.5 -55.5q0 -34 25.5 -54t71.5 -20q60 0 97 30t37 81zM118 650h254v-69h-254v69z" />
    <glyph glyph-name="Abreve" unicode="&#x102;" horiz-adv-x="739" 
d="M13 0l293 700h128l293 -700h-102l-72 178h-366l-73 -178h-101zM220 262h299l-149 365zM492 889q0 -52 -34 -80.5t-88 -28.5t-88 28.5t-34 80.5q0 11 1 14h68l-1 -11q0 -22 15 -36t39 -14t39 14t15 36l-1 11h68q1 -3 1 -14z" />
    <glyph glyph-name="abreve" unicode="&#x103;" horiz-adv-x="515" 
d="M45 135q0 71 48 109t128 38q53 0 101 -15l43 -12v49q0 51 -32.5 79t-86.5 28q-51 0 -84 -26t-42 -72l-78 22q14 69 68 109t136 40q96 0 149 -49.5t53 -137.5v-297h-83v75q-18 -39 -62 -62t-101 -23q-66 0 -112 39q-45 41 -45 106zM365 177v10l-44 13q-50 15 -88 15
q-46 0 -72.5 -19.5t-26.5 -55.5q0 -34 25.5 -54t71.5 -20q60 0 97 30t37 81zM368 663q0 -52 -34 -80.5t-88 -28.5t-88 28.5t-34 80.5q0 11 1 14h68l-1 -11q0 -22 15 -36t39 -14t39 14t15 36l-1 11h68q1 -3 1 -14z" />
    <glyph glyph-name="Aogonek" unicode="&#x104;" horiz-adv-x="739" 
d="M13 0l293 700h128l293 -700h-102l-72 178h-366l-73 -178h-101zM220 262h299l-149 365zM688 -188q-39 0 -63.5 23.5t-24.5 59.5q0 64 68 105h59q-61 -38 -61 -79q0 -17 11.5 -27.5t29.5 -10.5q17 0 34 11l27 -61q-39 -21 -80 -21z" />
    <glyph glyph-name="aogonek" unicode="&#x105;" horiz-adv-x="515" 
d="M45 135q0 71 48 109t128 38q53 0 101 -15l43 -12v49q0 51 -32.5 79t-86.5 28q-51 0 -84 -26t-42 -72l-78 22q14 69 68 109t136 40q96 0 149 -49.5t53 -137.5v-297h-83v75q-18 -39 -62 -62t-101 -23q-66 0 -112 39q-45 41 -45 106zM365 177v10l-44 13q-50 15 -88 15
q-46 0 -72.5 -19.5t-26.5 -55.5q0 -34 25.5 -54t71.5 -20q60 0 97 30t37 81zM409 -188q-39 0 -63.5 23.5t-24.5 59.5q0 64 68 105h59q-61 -38 -61 -79q0 -17 11.5 -27.5t29.5 -10.5q17 0 34 11l27 -61q-39 -21 -80 -21z" />
    <glyph glyph-name="Cacute" unicode="&#x106;" horiz-adv-x="777" 
d="M141 350q0 -128 70.5 -202t183.5 -74q116 0 180 61t87 163l81 -33q-28 -124 -119 -199.5t-229 -75.5q-156 -1 -254 102t-96 258q-2 151 100.5 257t249.5 103q129 0 205 -66q78 -66 105 -167l-84 -38q-18 86 -77 136.5t-149 50.5q-109 0 -181.5 -76t-72.5 -200zM349 781
l87 133h117v-14l-121 -119h-83z" />
    <glyph glyph-name="cacute" unicode="&#x107;" horiz-adv-x="550" 
d="M285 66q127 0 157 142l77 -29q-20 -90 -81.5 -139.5t-150.5 -49.5q-112 0 -180.5 69t-68.5 181q0 105 70 174.5t168 69.5q86 0 144.5 -45t75.5 -126l-79 -24q-11 57 -48 88t-94 31q-60 0 -106.5 -45.5t-46.5 -122.5t48.5 -125.5t114.5 -48.5zM235 555l87 133h117v-14
l-121 -119h-83z" />
    <glyph glyph-name="Ccircumflex" unicode="&#x108;" horiz-adv-x="777" 
d="M141 350q0 -128 70.5 -202t183.5 -74q116 0 180 61t87 163l81 -33q-28 -124 -119 -199.5t-229 -75.5q-156 -1 -254 102t-96 258q-2 151 100.5 257t249.5 103q129 0 205 -66q78 -66 105 -167l-84 -38q-18 86 -77 136.5t-149 50.5q-109 0 -181.5 -76t-72.5 -200zM238 781
v14l121 106h62l121 -106v-14h-95l-57 69l-57 -69h-95z" />
    <glyph glyph-name="ccircumflex" unicode="&#x109;" horiz-adv-x="550" 
d="M285 66q127 0 157 142l77 -29q-20 -90 -81.5 -139.5t-150.5 -49.5q-112 0 -180.5 69t-68.5 181q0 105 70 174.5t168 69.5q86 0 144.5 -45t75.5 -126l-79 -24q-11 57 -48 88t-94 31q-60 0 -106.5 -45.5t-46.5 -122.5t48.5 -125.5t114.5 -48.5zM124 555v14l121 106h62
l121 -106v-14h-95l-57 69l-57 -69h-95z" />
    <glyph glyph-name="Cdotaccent" unicode="&#x10a;" horiz-adv-x="777" 
d="M141 350q0 -128 70.5 -202t183.5 -74q116 0 180 61t87 163l81 -33q-28 -124 -119 -199.5t-229 -75.5q-156 -1 -254 102t-96 258q-2 151 100.5 257t249.5 103q129 0 205 -66q78 -66 105 -167l-84 -38q-18 86 -77 136.5t-149 50.5q-109 0 -181.5 -76t-72.5 -200zM342 893
h96v-100h-96v100z" />
    <glyph glyph-name="cdotaccent" unicode="&#x10b;" horiz-adv-x="550" 
d="M285 66q127 0 157 142l77 -29q-20 -90 -81.5 -139.5t-150.5 -49.5q-112 0 -180.5 69t-68.5 181q0 105 70 174.5t168 69.5q86 0 144.5 -45t75.5 -126l-79 -24q-11 57 -48 88t-94 31q-60 0 -106.5 -45.5t-46.5 -122.5t48.5 -125.5t114.5 -48.5zM228 562v101h96v-101h-96z
" />
    <glyph glyph-name="Ccaron" unicode="&#x10c;" horiz-adv-x="777" 
d="M141 350q0 -128 70.5 -202t183.5 -74q116 0 180 61t87 163l81 -33q-28 -124 -119 -199.5t-229 -75.5q-156 -1 -254 102t-96 258q-2 151 100.5 257t249.5 103q129 0 205 -66q78 -66 105 -167l-84 -38q-18 86 -77 136.5t-149 50.5q-109 0 -181.5 -76t-72.5 -200zM359 781
l-121 106v14h95l57 -69l57 69h95v-14l-121 -106h-62z" />
    <glyph glyph-name="ccaron" unicode="&#x10d;" horiz-adv-x="550" 
d="M285 66q127 0 157 142l77 -29q-20 -90 -81.5 -139.5t-150.5 -49.5q-112 0 -180.5 69t-68.5 181q0 105 70 174.5t168 69.5q86 0 144.5 -45t75.5 -126l-79 -24q-11 57 -48 88t-94 31q-60 0 -106.5 -45.5t-46.5 -122.5t48.5 -125.5t114.5 -48.5zM247 555l-121 106v14h95
l57 -69l57 69h95v-14l-121 -106h-62z" />
    <glyph glyph-name="Dcaron" unicode="&#x10e;" horiz-adv-x="726" 
d="M76 0v700h260q163 0 254.5 -97t91.5 -256q0 -154 -92.5 -250.5t-253.5 -96.5h-260zM168 616v-532h168q119 0 186.5 73t67.5 190q0 125 -66.5 197t-187.5 72h-168zM256 781l-121 106v14h95l57 -69l57 69h95v-14l-121 -106h-62z" />
    <glyph glyph-name="dcaron" unicode="&#x10f;" horiz-adv-x="671" 
d="M38 234q0 110 61.5 180t158.5 70q54 0 96 -25.5t66 -70.5v312h87v-700h-83v85q-24 -44 -67.5 -69.5t-96.5 -25.5q-98 0 -160 67.5t-62 176.5zM424 235q0 75 -45.5 123t-104.5 48q-61 0 -105.5 -47.5t-44.5 -123.5q0 -77 44 -122.5t106 -45.5q59 0 104.5 46t45.5 122z
M555 491v52h25q39 0 39 30t-34 30h-18v97h104v-122q0 -43 -25 -65t-68 -22h-23z" />
    <glyph glyph-name="Dcroat" unicode="&#x110;" horiz-adv-x="726" 
d="M76 0v700h260q163 0 254.5 -97t91.5 -256q0 -154 -92.5 -250.5t-253.5 -96.5h-260zM168 616v-532h168q119 0 186.5 73t67.5 190q0 125 -66.5 197t-187.5 72h-168zM-5 387h376v-75h-376v75z" />
    <glyph glyph-name="dslash" unicode="&#x111;" horiz-adv-x="573" 
d="M38 234q0 110 61.5 180t158.5 70q54 0 96 -25.5t66 -70.5v312h87v-700h-83v85q-24 -44 -67.5 -69.5t-96.5 -25.5q-98 0 -160 67.5t-62 176.5zM424 235q0 75 -45.5 123t-104.5 48q-61 0 -105.5 -47.5t-44.5 -123.5q0 -77 44 -122.5t106 -45.5q59 0 104.5 46t45.5 122z
M269 631h305v-70h-305v70z" />
    <glyph glyph-name="Emacron" unicode="&#x112;" horiz-adv-x="633" 
d="M76 700h493v-87h-401v-207h371v-87h-371v-232h411v-87h-503v700zM195 876h254v-69h-254v69z" />
    <glyph glyph-name="emacron" unicode="&#x113;" horiz-adv-x="522" 
d="M414 172l75 -29q-51 -153 -212 -153q-106 0 -172.5 68.5t-66.5 181.5q0 104 63 174t163 70q95 0 153 -55q58 -54 58 -147q0 -31 -6 -58h-343q1 -75 43.5 -116.5t107.5 -41.5q107 0 137 106zM126 286h263l1 14q0 50 -36 79t-91 29t-92.5 -33t-44.5 -89zM136 650h254v-69
h-254v69z" />
    <glyph glyph-name="Ebreve" unicode="&#x114;" horiz-adv-x="633" 
d="M76 700h493v-87h-401v-207h371v-87h-371v-232h411v-87h-503v700zM444 889q0 -52 -34 -80.5t-88 -28.5t-88 28.5t-34 80.5q0 11 1 14h68l-1 -11q0 -22 15 -36t39 -14t39 14t15 36l-1 11h68q1 -3 1 -14z" />
    <glyph glyph-name="ebreve" unicode="&#x115;" horiz-adv-x="522" 
d="M414 172l75 -29q-51 -153 -212 -153q-106 0 -172.5 68.5t-66.5 181.5q0 104 63 174t163 70q95 0 153 -55q58 -54 58 -147q0 -31 -6 -58h-343q1 -75 43.5 -116.5t107.5 -41.5q107 0 137 106zM126 286h263l1 14q0 50 -36 79t-91 29t-92.5 -33t-44.5 -89zM386 663
q0 -52 -34 -80.5t-88 -28.5t-88 28.5t-34 80.5q0 11 1 14h68l-1 -11q0 -22 15 -36t39 -14t39 14t15 36l-1 11h68q1 -3 1 -14z" />
    <glyph glyph-name="Edotaccent" unicode="&#x116;" horiz-adv-x="633" 
d="M76 700h493v-87h-401v-207h371v-87h-371v-232h411v-87h-503v700zM274 893h96v-100h-96v100z" />
    <glyph glyph-name="edotaccent" unicode="&#x117;" horiz-adv-x="522" 
d="M414 172l75 -29q-51 -153 -212 -153q-106 0 -172.5 68.5t-66.5 181.5q0 104 63 174t163 70q95 0 153 -55q58 -54 58 -147q0 -31 -6 -58h-343q1 -75 43.5 -116.5t107.5 -41.5q107 0 137 106zM126 286h263l1 14q0 50 -36 79t-91 29t-92.5 -33t-44.5 -89zM216 562v101h96
v-101h-96z" />
    <glyph glyph-name="Eogonek" unicode="&#x118;" horiz-adv-x="633" 
d="M76 700h493v-87h-401v-207h371v-87h-371v-232h411v-87h-503v700zM540 -188q-39 0 -63.5 23.5t-24.5 59.5q0 64 68 105h59q-61 -38 -61 -79q0 -17 11.5 -27.5t29.5 -10.5q17 0 34 11l27 -61q-39 -21 -80 -21z" />
    <glyph glyph-name="eogonek" unicode="&#x119;" horiz-adv-x="522" 
d="M414 172l75 -29q-51 -153 -212 -153q-106 0 -172.5 68.5t-66.5 181.5q0 104 63 174t163 70q95 0 153 -55q58 -54 58 -147q0 -31 -6 -58h-343q1 -75 43.5 -116.5t107.5 -41.5q107 0 137 106zM126 286h263l1 14q0 50 -36 79t-91 29t-92.5 -33t-44.5 -89zM297 -188
q-39 0 -63.5 23.5t-24.5 59.5q0 64 68 105h59q-61 -38 -61 -79q0 -17 11.5 -27.5t29.5 -10.5q17 0 34 11l27 -61q-39 -21 -80 -21z" />
    <glyph glyph-name="Ecaron" unicode="&#x11a;" horiz-adv-x="633" 
d="M76 700h493v-87h-401v-207h371v-87h-371v-232h411v-87h-503v700zM291 781l-121 106v14h95l57 -69l57 69h95v-14l-121 -106h-62z" />
    <glyph glyph-name="ecaron" unicode="&#x11b;" horiz-adv-x="522" 
d="M414 172l75 -29q-51 -153 -212 -153q-106 0 -172.5 68.5t-66.5 181.5q0 104 63 174t163 70q95 0 153 -55q58 -54 58 -147q0 -31 -6 -58h-343q1 -75 43.5 -116.5t107.5 -41.5q107 0 137 106zM126 286h263l1 14q0 50 -36 79t-91 29t-92.5 -33t-44.5 -89zM235 555l-121 106
v14h95l57 -69l57 69h95v-14l-121 -106h-62z" />
    <glyph glyph-name="Gcircumflex" unicode="&#x11c;" horiz-adv-x="788" 
d="M388 -10q-147 -2 -246 101.5t-97 258.5q-2 151 100 257t248 103q133 0 218.5 -64t113.5 -177l-90 -30q-45 184 -241 184q-106 0 -179.5 -76.5t-73.5 -196.5q0 -121 71 -197t187 -76q92 0 151 62t69 137h-317v86h429v-362h-79v157q-84 -167 -264 -167zM240 781v14l121 106
h62l121 -106v-14h-95l-57 69l-57 -69h-95z" />
    <glyph glyph-name="gcircumflex" unicode="&#x11d;" horiz-adv-x="576" 
d="M65 -62l78 33q28 -103 140 -103q68 0 103.5 43.5t35.5 124.5v53q-22 -41 -64.5 -65t-100.5 -24q-92 0 -155.5 65.5t-63.5 169.5q0 109 64.5 179t159.5 70q108 0 160 -81v71h87v-432q0 -111 -59 -181q-58 -69 -167 -69q-171 0 -218 146zM426 241q0 72 -42.5 119.5
t-107.5 47.5q-67 0 -109.5 -47t-42.5 -127q0 -72 42.5 -115t109.5 -43q65 0 107.5 46.5t42.5 118.5zM134 555v14l121 106h62l121 -106v-14h-95l-57 69l-57 -69h-95z" />
    <glyph glyph-name="Gbreve" unicode="&#x11e;" horiz-adv-x="788" 
d="M388 -10q-147 -2 -246 101.5t-97 258.5q-2 151 100 257t248 103q133 0 218.5 -64t113.5 -177l-90 -30q-45 184 -241 184q-106 0 -179.5 -76.5t-73.5 -196.5q0 -121 71 -197t187 -76q92 0 151 62t69 137h-317v86h429v-362h-79v157q-84 -167 -264 -167zM514 889
q0 -52 -34 -80.5t-88 -28.5t-88 28.5t-34 80.5q0 11 1 14h68l-1 -11q0 -22 15 -36t39 -14t39 14t15 36l-1 11h68q1 -3 1 -14z" />
    <glyph glyph-name="gbreve" unicode="&#x11f;" horiz-adv-x="576" 
d="M65 -62l78 33q28 -103 140 -103q68 0 103.5 43.5t35.5 124.5v53q-22 -41 -64.5 -65t-100.5 -24q-92 0 -155.5 65.5t-63.5 169.5q0 109 64.5 179t159.5 70q108 0 160 -81v71h87v-432q0 -111 -59 -181q-58 -69 -167 -69q-171 0 -218 146zM426 241q0 72 -42.5 119.5
t-107.5 47.5q-67 0 -109.5 -47t-42.5 -127q0 -72 42.5 -115t109.5 -43q65 0 107.5 46.5t42.5 118.5zM408 663q0 -52 -34 -80.5t-88 -28.5t-88 28.5t-34 80.5q0 11 1 14h68l-1 -11q0 -22 15 -36t39 -14t39 14t15 36l-1 11h68q1 -3 1 -14z" />
    <glyph glyph-name="Gdotaccent" unicode="&#x120;" horiz-adv-x="788" 
d="M388 -10q-147 -2 -246 101.5t-97 258.5q-2 151 100 257t248 103q133 0 218.5 -64t113.5 -177l-90 -30q-45 184 -241 184q-106 0 -179.5 -76.5t-73.5 -196.5q0 -121 71 -197t187 -76q92 0 151 62t69 137h-317v86h429v-362h-79v157q-84 -167 -264 -167zM344 893h96v-100
h-96v100z" />
    <glyph glyph-name="gdotaccent" unicode="&#x121;" horiz-adv-x="576" 
d="M65 -62l78 33q28 -103 140 -103q68 0 103.5 43.5t35.5 124.5v53q-22 -41 -64.5 -65t-100.5 -24q-92 0 -155.5 65.5t-63.5 169.5q0 109 64.5 179t159.5 70q108 0 160 -81v71h87v-432q0 -111 -59 -181q-58 -69 -167 -69q-171 0 -218 146zM426 241q0 72 -42.5 119.5
t-107.5 47.5q-67 0 -109.5 -47t-42.5 -127q0 -72 42.5 -115t109.5 -43q65 0 107.5 46.5t42.5 118.5zM238 562v101h96v-101h-96z" />
    <glyph glyph-name="Gcommaaccent" unicode="&#x122;" horiz-adv-x="788" 
d="M388 -10q-147 -2 -246 101.5t-97 258.5q-2 151 100 257t248 103q133 0 218.5 -64t113.5 -177l-90 -30q-45 184 -241 184q-106 0 -179.5 -76.5t-73.5 -196.5q0 -121 71 -197t187 -76q92 0 151 62t69 137h-317v86h429v-362h-79v157q-84 -167 -264 -167zM314 -248l10 47
q21 -8 40 -8q35 0 35 32q0 30 -37 30h-18v95h104v-121q0 -84 -84 -84q-24 0 -50 9z" />
    <glyph glyph-name="gcommaaccent" unicode="&#x123;" horiz-adv-x="576" 
d="M65 -62l78 33q28 -103 140 -103q68 0 103.5 43.5t35.5 124.5v53q-22 -41 -64.5 -65t-100.5 -24q-92 0 -155.5 65.5t-63.5 169.5q0 109 64.5 179t159.5 70q108 0 160 -81v71h87v-432q0 -111 -59 -181q-58 -69 -167 -69q-171 0 -218 146zM426 241q0 72 -42.5 119.5
t-107.5 47.5q-67 0 -109.5 -47t-42.5 -127q0 -72 42.5 -115t109.5 -43q65 0 107.5 46.5t42.5 118.5zM323 542h-105v133q0 84 94 84h32v-52h-35q-39 0 -39 -30t35 -30h18v-105z" />
    <glyph glyph-name="Hcircumflex" unicode="&#x124;" horiz-adv-x="737" 
d="M569 303h-401v-303h-92v700h92v-313h401v313h92v-700h-92v303zM216 781v14l121 106h62l121 -106v-14h-95l-57 69l-57 -69h-95z" />
    <glyph glyph-name="hcircumflex" unicode="&#x125;" horiz-adv-x="555" 
d="M153 0h-86v700h86v-326q20 51 64.5 80.5t102.5 29.5q78 0 123.5 -48t45.5 -129v-307h-87v287q0 60 -29.5 91.5t-83.5 31.5q-58 0 -97 -46.5t-39 -118.5v-245zM-42 781v14l121 106h62l121 -106v-14h-95l-57 69l-57 -69h-95z" />
    <glyph glyph-name="Hbar" unicode="&#x126;" horiz-adv-x="737" 
d="M569 303h-401v-303h-92v700h92v-313h401v313h92v-700h-92v303zM-2 508v78h741v-78h-741z" />
    <glyph glyph-name="hbar" unicode="&#x127;" horiz-adv-x="555" 
d="M153 0h-86v700h86v-326q20 51 64.5 80.5t102.5 29.5q78 0 123.5 -48t45.5 -129v-307h-87v287q0 60 -29.5 91.5t-83.5 31.5q-58 0 -97 -46.5t-39 -118.5v-245zM0 631h305v-70h-305v70z" />
    <glyph glyph-name="Itilde" unicode="&#x128;" horiz-adv-x="243" 
d="M76 0v700h92v-700h-92zM107 815q-22 21 -43 21q-15 0 -24.5 -9.5t-9.5 -24.5q0 -8 3 -16l-63 8q-2 8 -2 16q0 39 26.5 64t65.5 25q41 0 77 -31q22 -21 43 -21q15 0 24.5 9.5t9.5 24.5q0 9 -3 16l64 -8q2 -8 2 -16q0 -39 -27 -64t-66 -25q-41 0 -77 31z" />
    <glyph glyph-name="itilde" unicode="&#x129;" horiz-adv-x="220" 
d="M67 474h86v-474h-86v474zM95 589q-22 21 -43 21q-15 0 -24.5 -9.5t-9.5 -24.5q0 -8 3 -16l-63 8q-2 8 -2 16q0 39 26.5 64t65.5 25q41 0 77 -31q22 -21 43 -21q15 0 24.5 9.5t9.5 24.5q0 9 -3 16l64 -8q2 -8 2 -16q0 -39 -27 -64t-66 -25q-41 0 -77 31z" />
    <glyph glyph-name="Imacron" unicode="&#x12a;" horiz-adv-x="243" 
d="M76 0v700h92v-700h-92zM-5 876h254v-69h-254v69z" />
    <glyph glyph-name="imacron" unicode="&#x12b;" horiz-adv-x="220" 
d="M67 474h86v-474h-86v474zM-18 650h254v-69h-254v69z" />
    <glyph glyph-name="Ibreve" unicode="&#x12c;" horiz-adv-x="243" 
d="M76 0v700h92v-700h-92zM244 889q0 -52 -34 -80.5t-88 -28.5t-88 28.5t-34 80.5q0 11 1 14h68l-1 -11q0 -22 15 -36t39 -14t39 14t15 36l-1 11h68q1 -3 1 -14z" />
    <glyph glyph-name="ibreve" unicode="&#x12d;" horiz-adv-x="220" 
d="M67 474h86v-474h-86v474zM232 663q0 -52 -34 -80.5t-88 -28.5t-88 28.5t-34 80.5q0 11 1 14h68l-1 -11q0 -22 15 -36t39 -14t39 14t15 36l-1 11h68q1 -3 1 -14z" />
    <glyph glyph-name="Iogonek" unicode="&#x12e;" horiz-adv-x="243" 
d="M76 0v700h92v-700h-92zM129 -188q-39 0 -63.5 23.5t-24.5 59.5q0 64 68 105h59q-61 -38 -61 -79q0 -17 11.5 -27.5t29.5 -10.5q17 0 34 11l27 -61q-39 -21 -80 -21z" />
    <glyph glyph-name="iogonek" unicode="&#x12f;" horiz-adv-x="220" 
d="M67 474h86v-474h-86v474zM62 562v101h96v-101h-96zM114 -188q-39 0 -63.5 23.5t-24.5 59.5q0 64 68 105h59q-61 -38 -61 -79q0 -17 11.5 -27.5t29.5 -10.5q17 0 34 11l27 -61q-39 -21 -80 -21z" />
    <glyph glyph-name="Idot" unicode="&#x130;" horiz-adv-x="243" 
d="M76 0v700h92v-700h-92zM74 893h96v-100h-96v100z" />
    <glyph glyph-name="dotlessi" unicode="&#x131;" horiz-adv-x="220" 
d="M67 474h86v-474h-86v474z" />
    <glyph glyph-name="IJ" unicode="&#x132;" horiz-adv-x="841" 
d="M76 0v700h92v-700h-92zM680 700h92v-466q0 -105 -59 -174.5t-177 -69.5q-112 0 -177.5 64.5t-65.5 167.5q0 69 28 121l87 -33q-23 -41 -23 -93q0 -62 41.5 -101t109.5 -39q144 0 144 174v449z" />
    <glyph glyph-name="ij" unicode="&#x133;" horiz-adv-x="440" 
d="M67 474h86v-474h-86v474zM62 562v101h96v-101h-96zM287 -198v672h86v-672h-86zM282 562v101h96v-101h-96z" />
    <glyph glyph-name="Jcircumflex" unicode="&#x134;" horiz-adv-x="598" 
d="M437 700h92v-466q0 -105 -59 -174.5t-177 -69.5q-112 0 -177.5 64.5t-65.5 167.5q0 69 28 121l87 -33q-23 -41 -23 -93q0 -62 41.5 -101t109.5 -39q144 0 144 174v449zM331 781v14l121 106h62l121 -106v-14h-95l-57 69l-57 -69h-95z" />
    <glyph glyph-name="jcircumflex" unicode="&#x135;" horiz-adv-x="220" 
d="M67 -198v672h86v-672h-86zM-42 555v14l121 106h62l121 -106v-14h-95l-57 69l-57 -69h-95z" />
    <glyph glyph-name="Kcommaaccent" unicode="&#x136;" horiz-adv-x="672" 
d="M378 426l270 -426h-110l-223 358l-147 -156v-202h-92v700h92v-374l348 374h119zM271 -248l10 47q21 -8 40 -8q35 0 35 32q0 30 -37 30h-18v95h104v-121q0 -84 -84 -84q-25 0 -50 9z" />
    <glyph glyph-name="kcommaaccent" unicode="&#x137;" horiz-adv-x="505" 
d="M286 282l195 -282h-105l-150 218l-73 -77v-141h-86v700h86v-448l203 222h110zM175 -248l10 47q21 -8 40 -8q35 0 35 32q0 30 -37 30h-18v95h104v-121q0 -84 -84 -84q-25 0 -50 9z" />
    <glyph glyph-name="kgreenlandic" unicode="&#x138;" horiz-adv-x="467" 
d="M67 0v474h86v-191l171 191h111l-210 -224l219 -250h-110l-181 212v-212h-86z" />
    <glyph glyph-name="Lacute" unicode="&#x139;" horiz-adv-x="638" 
d="M76 700h92v-613h428v-87h-520v700zM81 781l87 133h117v-14l-121 -119h-83z" />
    <glyph glyph-name="lacute" unicode="&#x13a;" horiz-adv-x="220" 
d="M67 0v700h86v-700h-86zM69 781l87 133h117v-14l-121 -119h-83z" />
    <glyph glyph-name="Lcommaaccent" unicode="&#x13b;" horiz-adv-x="638" 
d="M76 700h92v-613h428v-87h-520v700zM244 -248l10 47q21 -8 40 -8q35 0 35 32q0 30 -37 30h-18v95h104v-121q0 -84 -84 -84q-24 0 -50 9z" />
    <glyph glyph-name="lcommaaccent" unicode="&#x13c;" horiz-adv-x="220" 
d="M67 0v700h86v-700h-86zM28 -248l10 47q21 -8 40 -8q35 0 35 32q0 30 -37 30h-18v95h104v-121q0 -84 -84 -84q-24 0 -50 9z" />
    <glyph glyph-name="Lcaron" unicode="&#x13d;" horiz-adv-x="638" 
d="M76 700h92v-613h428v-87h-520v700zM480 491v52h25q39 0 39 30t-34 30h-18v97h104v-122q0 -43 -25 -65t-68 -22h-23z" />
    <glyph glyph-name="lcaron" unicode="&#x13e;" horiz-adv-x="318" 
d="M67 0v700h86v-700h-86zM202 491v52h25q39 0 39 30t-34 30h-18v97h104v-122q0 -43 -25 -65t-68 -22h-23z" />
    <glyph glyph-name="Ldot" unicode="&#x13f;" horiz-adv-x="600" 
d="M76 700h92v-613h428v-87h-520v700zM386 403h104v-105h-104v105z" />
    <glyph glyph-name="ldot" unicode="&#x140;" horiz-adv-x="400" 
d="M67 0v700h86v-700h-86zM258 403h104v-105h-104v105z" />
    <glyph glyph-name="Lslash" unicode="&#x141;" horiz-adv-x="638" 
d="M76 700h92v-613h428v-87h-520v700zM18 255l-34 67l291 152l35 -68z" />
    <glyph glyph-name="lslash" unicode="&#x142;" horiz-adv-x="220" 
d="M67 0v700h86v-700h-86zM4 260l-35 67l248 128l34 -67z" />
    <glyph glyph-name="Nacute" unicode="&#x143;" horiz-adv-x="766" 
d="M168 636v-636h-92v700h158l364 -636v636h92v-700h-159zM342 781l87 133h117v-14l-121 -119h-83z" />
    <glyph glyph-name="nacute" unicode="&#x144;" horiz-adv-x="543" 
d="M153 0h-86v474h86v-77q52 87 156 87q77 0 122 -47t45 -129v-308h-87v282q0 62 -28 94t-80 32q-55 0 -91.5 -40.5t-36.5 -107.5v-260zM241 555l87 133h117v-14l-121 -119h-83z" />
    <glyph glyph-name="Ncommaaccent" unicode="&#x145;" horiz-adv-x="766" 
d="M168 636v-636h-92v700h158l364 -636v636h92v-700h-159zM301 -248l10 47q21 -8 40 -8q35 0 35 32q0 30 -37 30h-18v95h104v-121q0 -84 -84 -84q-25 0 -50 9z" />
    <glyph glyph-name="ncommaaccent" unicode="&#x146;" horiz-adv-x="543" 
d="M153 0h-86v474h86v-77q52 87 156 87q77 0 122 -47t45 -129v-308h-87v282q0 62 -28 94t-80 32q-55 0 -91.5 -40.5t-36.5 -107.5v-260zM188 -248l10 47q21 -8 40 -8q35 0 35 32q0 30 -37 30h-18v95h104v-121q0 -84 -84 -84q-24 0 -50 9z" />
    <glyph glyph-name="Ncaron" unicode="&#x147;" horiz-adv-x="766" 
d="M168 636v-636h-92v700h158l364 -636v636h92v-700h-159zM352 781l-121 106v14h95l57 -69l57 69h95v-14l-121 -106h-62z" />
    <glyph glyph-name="ncaron" unicode="&#x148;" horiz-adv-x="543" 
d="M153 0h-86v474h86v-77q52 87 156 87q77 0 122 -47t45 -129v-308h-87v282q0 62 -28 94t-80 32q-55 0 -91.5 -40.5t-36.5 -107.5v-260zM253 555l-121 106v14h95l57 -69l57 69h95v-14l-121 -106h-62z" />
    <glyph glyph-name="Eng" unicode="&#x14a;" horiz-adv-x="766" 
d="M317 -72l83 34q23 -86 107 -86q91 0 91 104v20h-67l-363 636v-636h-92v700h158l364 -636v636h92v-704q0 -97 -46.5 -150.5t-133.5 -53.5q-74 0 -125 36t-68 100z" />
    <glyph glyph-name="eng" unicode="&#x14b;" horiz-adv-x="543" 
d="M218 -110l78 29q8 -49 48 -49q45 0 45 57v355q0 62 -28.5 94t-80.5 32q-54 0 -90.5 -40.5t-36.5 -106.5v-261h-86v474h86v-77q52 87 156 87q77 0 122 -47t45 -129v-374q0 -68 -33 -105t-99 -37q-48 0 -82.5 26.5t-43.5 71.5z" />
    <glyph glyph-name="Omacron" unicode="&#x14c;" horiz-adv-x="812" 
d="M406 710q151 3 257.5 -104.5t104.5 -255.5q2 -149 -104.5 -256t-257.5 -104q-151 -3 -257 104t-104 256q-2 148 104 255.5t257 104.5zM406 77q113 0 189 76t76 197t-75 197t-190 76t-190 -76t-75 -198q0 -121 75.5 -196.5t189.5 -75.5zM279 876h254v-69h-254v69z" />
    <glyph glyph-name="omacron" unicode="&#x14d;" horiz-adv-x="556" 
d="M38 237q0 106 67 176.5t173 70.5q107 0 174 -70.5t67 -176.5t-67.5 -176.5t-173.5 -70.5t-173 70.5t-67 176.5zM430 237q0 75 -43 121q-42 48 -109 48q-66 0 -109 -47.5t-43 -121.5t43 -121.5t109 -47.5q67 0 109.5 47t42.5 122zM150 650h254v-69h-254v69z" />
    <glyph glyph-name="Obreve" unicode="&#x14e;" horiz-adv-x="812" 
d="M406 710q151 3 257.5 -104.5t104.5 -255.5q2 -149 -104.5 -256t-257.5 -104q-151 -3 -257 104t-104 256q-2 148 104 255.5t257 104.5zM406 77q113 0 189 76t76 197t-75 197t-190 76t-190 -76t-75 -198q0 -121 75.5 -196.5t189.5 -75.5zM528 889q0 -52 -34 -80.5
t-88 -28.5t-88 28.5t-34 80.5q0 11 1 14h68l-1 -11q0 -22 15 -36t39 -14t39 14t15 36l-1 11h68q1 -3 1 -14z" />
    <glyph glyph-name="obreve" unicode="&#x14f;" horiz-adv-x="556" 
d="M38 237q0 106 67 176.5t173 70.5q107 0 174 -70.5t67 -176.5t-67.5 -176.5t-173.5 -70.5t-173 70.5t-67 176.5zM430 237q0 75 -43 121q-42 48 -109 48q-66 0 -109 -47.5t-43 -121.5t43 -121.5t109 -47.5q67 0 109.5 47t42.5 122zM400 663q0 -52 -34 -80.5t-88 -28.5
t-88 28.5t-34 80.5q0 11 1 14h68l-1 -11q0 -22 15 -36t39 -14t39 14t15 36l-1 11h68q1 -3 1 -14z" />
    <glyph glyph-name="Ohungarumlaut" unicode="&#x150;" horiz-adv-x="812" 
d="M406 710q151 3 257.5 -104.5t104.5 -255.5q2 -149 -104.5 -256t-257.5 -104q-151 -3 -257 104t-104 256q-2 148 104 255.5t257 104.5zM406 77q113 0 189 76t76 197t-75 197t-190 76t-190 -76t-75 -198q0 -121 75.5 -196.5t189.5 -75.5zM275 781l87 133h117v-14l-121 -119
h-83zM454 781l87 133h117v-14l-121 -119h-83z" />
    <glyph glyph-name="ohungarumlaut" unicode="&#x151;" horiz-adv-x="556" 
d="M38 237q0 106 67 176.5t173 70.5q107 0 174 -70.5t67 -176.5t-67.5 -176.5t-173.5 -70.5t-173 70.5t-67 176.5zM430 237q0 75 -43 121q-42 48 -109 48q-66 0 -109 -47.5t-43 -121.5t43 -121.5t109 -47.5q67 0 109.5 47t42.5 122zM147 555l87 133h117v-14l-121 -119h-83z
M326 555l87 133h117v-14l-121 -119h-83z" />
    <glyph glyph-name="OE" unicode="&#x152;" horiz-adv-x="1230" 
d="M45 350q-2 148 104 255.5t257 104.5q83 0 152.5 -33.5t114.5 -94.5v118h493v-87h-401v-207h371v-87h-371v-232h411v-87h-503v119q-99 -129 -267 -129q-151 -3 -257 104t-104 256zM671 350q0 121 -75 197t-190 76t-190 -76t-75 -198q0 -121 75.5 -196.5t189.5 -75.5
q115 0 190 76t75 197z" />
    <glyph glyph-name="oe" unicode="&#x153;" horiz-adv-x="914" 
d="M38 236q0 107 67 177.5t173 70.5q129 0 195 -105q65 105 184 105q95 0 153 -55q58 -54 58 -147q0 -22 -6 -58h-343q1 -75 43.5 -117t107.5 -42q107 0 137 107l74 -29q-51 -153 -211 -153q-133 0 -195 103q-65 -103 -197 -103q-106 0 -173 69.5t-67 176.5zM519 286h262
q1 3 1 14q0 50 -35.5 79t-90.5 29t-92.5 -33t-44.5 -89zM430 236q0 76 -43 122q-42 48 -109 48q-66 0 -109 -48t-43 -122q0 -75 43 -121.5t109 -46.5q67 0 109.5 46.5t42.5 121.5z" />
    <glyph glyph-name="Racute" unicode="&#x154;" horiz-adv-x="672" 
d="M625 0h-113q-23 45 -24 160q-1 73 -34.5 104.5t-102.5 31.5h-183v-296h-92v700h320q102 0 162.5 -54.5t60.5 -135.5q0 -132 -140 -180q107 -41 111 -171q2 -65 8.5 -94t26.5 -51v-14zM168 383h220q63 0 98.5 30.5t35.5 84.5q0 55 -35.5 85t-98.5 30h-220v-230zM259 781
l87 133h117v-14l-121 -119h-83z" />
    <glyph glyph-name="racute" unicode="&#x155;" horiz-adv-x="440" 
d="M67 474h86v-69q33 79 121 79q57 0 93.5 -37t36.5 -92q0 -29 -6 -53h-84q3 21 3 35q0 33 -20.5 52t-55.5 19q-40 0 -64 -29t-24 -77v-302h-86v474zM214 555l87 133h117v-14l-121 -119h-83z" />
    <glyph glyph-name="Rcommaaccent" unicode="&#x156;" horiz-adv-x="672" 
d="M625 0h-113q-23 45 -24 160q-1 73 -34.5 104.5t-102.5 31.5h-183v-296h-92v700h320q102 0 162.5 -54.5t60.5 -135.5q0 -132 -140 -180q107 -41 111 -171q2 -65 8.5 -94t26.5 -51v-14zM168 383h220q63 0 98.5 30.5t35.5 84.5q0 55 -35.5 85t-98.5 30h-220v-230zM258 -248
l10 47q21 -8 40 -8q35 0 35 32q0 30 -37 30h-18v95h104v-121q0 -84 -84 -84q-24 0 -50 9z" />
    <glyph glyph-name="rcommaaccent" unicode="&#x157;" horiz-adv-x="440" 
d="M67 474h86v-69q33 79 121 79q57 0 93.5 -37t36.5 -92q0 -29 -6 -53h-84q3 21 3 35q0 33 -20.5 52t-55.5 19q-40 0 -64 -29t-24 -77v-302h-86v474zM28 -248l10 47q21 -8 40 -8q35 0 35 32q0 30 -37 30h-18v95h104v-121q0 -84 -84 -84q-24 0 -50 9z" />
    <glyph glyph-name="Rcaron" unicode="&#x158;" horiz-adv-x="672" 
d="M625 0h-113q-23 45 -24 160q-1 73 -34.5 104.5t-102.5 31.5h-183v-296h-92v700h320q102 0 162.5 -54.5t60.5 -135.5q0 -132 -140 -180q107 -41 111 -171q2 -65 8.5 -94t26.5 -51v-14zM168 383h220q63 0 98.5 30.5t35.5 84.5q0 55 -35.5 85t-98.5 30h-220v-230zM269 781
l-121 106v14h95l57 -69l57 69h95v-14l-121 -106h-62z" />
    <glyph glyph-name="rcaron" unicode="&#x159;" horiz-adv-x="440" 
d="M67 474h86v-69q33 79 121 79q57 0 93.5 -37t36.5 -92q0 -29 -6 -53h-84q3 21 3 35q0 33 -20.5 52t-55.5 19q-40 0 -64 -29t-24 -77v-302h-86v474zM226 555l-121 106v14h95l57 -69l57 69h95v-14l-121 -106h-62z" />
    <glyph glyph-name="Sacute" unicode="&#x15a;" horiz-adv-x="629" 
d="M308 623q-60 0 -98 -27t-38 -71q0 -50 46 -80t137 -48q125 -24 182 -71.5t57 -128.5q0 -90 -74.5 -148.5t-189.5 -58.5q-99 0 -182 50t-119 164l85 53q21 -87 77 -133.5t140 -46.5q76 0 122 32t46 85q0 48 -40 76.5t-136 43.5q-243 42 -243 209q0 79 66 133t170 54
q88 0 154.5 -44t94.5 -122l-86 -49q-35 128 -171 128zM275 781l87 133h117v-14l-121 -119h-83z" />
    <glyph glyph-name="sacute" unicode="&#x15b;" horiz-adv-x="472" 
d="M33 124l71 37q20 -50 53.5 -72.5t87.5 -22.5q47 0 74.5 19t27.5 50q0 35 -27.5 54.5t-97.5 28.5q-163 24 -163 136q0 57 48 93q49 37 123 37q126 0 171 -105l-67 -37q-24 72 -104 72q-40 0 -66 -17t-26 -44q0 -30 28.5 -46t98.5 -26q166 -22 166 -141q0 -65 -54.5 -107.5
t-135.5 -42.5q-79 0 -133 36t-75 98zM190 555l87 133h117v-14l-121 -119h-83z" />
    <glyph glyph-name="Scircumflex" unicode="&#x15c;" horiz-adv-x="629" 
d="M308 623q-60 0 -98 -27t-38 -71q0 -50 46 -80t137 -48q125 -24 182 -71.5t57 -128.5q0 -90 -74.5 -148.5t-189.5 -58.5q-99 0 -182 50t-119 164l85 53q21 -87 77 -133.5t140 -46.5q76 0 122 32t46 85q0 48 -40 76.5t-136 43.5q-243 42 -243 209q0 79 66 133t170 54
q88 0 154.5 -44t94.5 -122l-86 -49q-35 128 -171 128zM164 781v14l121 106h62l121 -106v-14h-95l-57 69l-57 -69h-95z" />
    <glyph glyph-name="scircumflex" unicode="&#x15d;" horiz-adv-x="472" 
d="M33 124l71 37q20 -50 53.5 -72.5t87.5 -22.5q47 0 74.5 19t27.5 50q0 35 -27.5 54.5t-97.5 28.5q-163 24 -163 136q0 57 48 93q49 37 123 37q126 0 171 -105l-67 -37q-24 72 -104 72q-40 0 -66 -17t-26 -44q0 -30 28.5 -46t98.5 -26q166 -22 166 -141q0 -65 -54.5 -107.5
t-135.5 -42.5q-79 0 -133 36t-75 98zM79 555v14l121 106h62l121 -106v-14h-95l-57 69l-57 -69h-95z" />
    <glyph glyph-name="Scedilla" unicode="&#x15e;" horiz-adv-x="629" 
d="M308 623q-60 0 -98 -27t-38 -71q0 -50 46 -80t137 -48q125 -24 182 -71.5t57 -128.5q0 -90 -74.5 -148.5t-189.5 -58.5q-99 0 -182 50t-119 164l85 53q21 -87 77 -133.5t140 -46.5q76 0 122 32t46 85q0 48 -40 76.5t-136 43.5q-243 42 -243 209q0 79 66 133t170 54
q88 0 154.5 -44t94.5 -122l-86 -49q-35 128 -171 128zM330 -53q21 23 50 23q34 0 55.5 -21t21.5 -56q0 -38 -23.5 -59.5t-60.5 -21.5q-35 0 -59 17.5t-30 49.5l47 12q2 -15 13 -24.5t27 -9.5q18 0 29 10t11 26t-11 26.5t-29 10.5q-26 0 -38 -21l-47 9q10 35 21 98h51
q-16 -48 -28 -69z" />
    <glyph glyph-name="scedilla" unicode="&#x15f;" horiz-adv-x="472" 
d="M33 124l71 37q20 -50 53.5 -72.5t87.5 -22.5q47 0 74.5 19t27.5 50q0 35 -27.5 54.5t-97.5 28.5q-163 24 -163 136q0 57 48 93q49 37 123 37q126 0 171 -105l-67 -37q-24 72 -104 72q-40 0 -66 -17t-26 -44q0 -30 28.5 -46t98.5 -26q166 -22 166 -141q0 -65 -54.5 -107.5
t-135.5 -42.5q-79 0 -133 36t-75 98zM212 -53q21 23 50 23q34 0 55.5 -21t21.5 -56q0 -38 -23.5 -59.5t-60.5 -21.5q-35 0 -59 17.5t-30 49.5l47 12q2 -15 13 -24.5t27 -9.5q18 0 29 10t11 26t-11 26.5t-29 10.5q-26 0 -38 -21l-47 9q10 35 21 98h51q-16 -48 -28 -69z" />
    <glyph glyph-name="Scaron" unicode="&#x160;" horiz-adv-x="629" 
d="M308 623q-60 0 -98 -27t-38 -71q0 -50 46 -80t137 -48q125 -24 182 -71.5t57 -128.5q0 -90 -74.5 -148.5t-189.5 -58.5q-99 0 -182 50t-119 164l85 53q21 -87 77 -133.5t140 -46.5q76 0 122 32t46 85q0 48 -40 76.5t-136 43.5q-243 42 -243 209q0 79 66 133t170 54
q88 0 154.5 -44t94.5 -122l-86 -49q-35 128 -171 128zM285 781l-121 106v14h95l57 -69l57 69h95v-14l-121 -106h-62z" />
    <glyph glyph-name="scaron" unicode="&#x161;" horiz-adv-x="472" 
d="M33 124l71 37q20 -50 53.5 -72.5t87.5 -22.5q47 0 74.5 19t27.5 50q0 35 -27.5 54.5t-97.5 28.5q-163 24 -163 136q0 57 48 93q49 37 123 37q126 0 171 -105l-67 -37q-24 72 -104 72q-40 0 -66 -17t-26 -44q0 -30 28.5 -46t98.5 -26q166 -22 166 -141q0 -65 -54.5 -107.5
t-135.5 -42.5q-79 0 -133 36t-75 98zM202 555l-121 106v14h95l57 -69l57 69h95v-14l-121 -106h-62z" />
    <glyph glyph-name="uni0162" unicode="&#x162;" horiz-adv-x="672" 
d="M641 700v-87h-259v-613h-92v613h-259v87h610zM337 -53q21 23 50 23q34 0 55.5 -21t21.5 -56q0 -38 -23.5 -59.5t-60.5 -21.5q-35 0 -59 17.5t-30 49.5l47 12q2 -15 13 -24.5t27 -9.5q18 0 29 10t11 26t-11 26.5t-29 10.5q-26 0 -38 -21l-47 9q10 35 21 98h51
q-16 -48 -28 -69z" />
    <glyph glyph-name="uni0163" unicode="&#x163;" horiz-adv-x="448" 
d="M117 141v260h-94v73h94v147h87v-147h170v-73h-170v-264q0 -33 18 -52t47 -19q60 0 71 74l80 -18q-10 -64 -48.5 -98t-99.5 -34q-75 0 -115 39.5t-40 111.5zM237 -53q21 23 50 23q34 0 55.5 -21t21.5 -56q0 -38 -23.5 -59.5t-60.5 -21.5q-35 0 -59 17.5t-30 49.5l47 12
q2 -15 13 -24.5t27 -9.5q18 0 29 10t11 26t-11 26.5t-29 10.5q-26 0 -38 -21l-47 9q10 35 21 98h51q-16 -48 -28 -69z" />
    <glyph glyph-name="Tcaron" unicode="&#x164;" horiz-adv-x="672" 
d="M641 700v-87h-259v-613h-92v613h-259v87h610zM305 781l-121 106v14h95l57 -69l57 69h95v-14l-121 -106h-62z" />
    <glyph glyph-name="tcaron" unicode="&#x165;" horiz-adv-x="448" 
d="M117 141v260h-94v73h94v147h87v-147h170v-73h-170v-264q0 -33 18 -52t47 -19q60 0 71 74l80 -18q-10 -64 -48.5 -98t-99.5 -34q-75 0 -115 39.5t-40 111.5zM256 525v52h25q39 0 39 30t-34 30h-18v97h104v-122q0 -43 -25 -65t-68 -22h-23z" />
    <glyph glyph-name="Tbar" unicode="&#x166;" horiz-adv-x="672" 
d="M641 700v-87h-259v-613h-92v613h-259v87h610zM148 387h376v-75h-376v75z" />
    <glyph glyph-name="tbar" unicode="&#x167;" horiz-adv-x="448" 
d="M117 141v260h-94v73h94v147h87v-147h170v-73h-170v-264q0 -33 18 -52t47 -19q60 0 71 74l80 -18q-10 -64 -48.5 -98t-99.5 -34q-75 0 -115 39.5t-40 111.5zM39 303h305v-70h-305v70z" />
    <glyph glyph-name="Utilde" unicode="&#x168;" horiz-adv-x="715" 
d="M69 700h92v-411q0 -101 52.5 -156.5t143.5 -55.5q93 0 145 55.5t52 156.5v411h92v-420q0 -128 -78.5 -209t-210.5 -81t-210 80.5t-78 209.5v420zM342 815q-22 21 -43 21q-15 0 -24.5 -9.5t-9.5 -24.5q0 -8 3 -16l-63 8q-2 8 -2 16q0 39 26.5 64t65.5 25q41 0 77 -31
q22 -21 43 -21q15 0 24.5 9.5t9.5 24.5q0 9 -3 16l64 -8q2 -8 2 -16q0 -39 -27 -64t-66 -25q-41 0 -77 31z" />
    <glyph glyph-name="utilde" unicode="&#x169;" horiz-adv-x="545" 
d="M392 474h87v-474h-87v80q-52 -90 -155 -90q-79 0 -124.5 46.5t-45.5 133.5v304h86v-284q0 -124 107 -124q57 0 94.5 43t37.5 113v252zM258 589q-22 21 -43 21q-15 0 -24.5 -9.5t-9.5 -24.5q0 -8 3 -16l-63 8q-2 8 -2 16q0 39 26.5 64t65.5 25q41 0 77 -31q22 -21 43 -21
q15 0 24.5 9.5t9.5 24.5q0 9 -3 16l64 -8q2 -8 2 -16q0 -39 -27 -64t-66 -25q-41 0 -77 31z" />
    <glyph glyph-name="Umacron" unicode="&#x16a;" horiz-adv-x="715" 
d="M69 700h92v-411q0 -101 52.5 -156.5t143.5 -55.5q93 0 145 55.5t52 156.5v411h92v-420q0 -128 -78.5 -209t-210.5 -81t-210 80.5t-78 209.5v420zM230 876h254v-69h-254v69z" />
    <glyph glyph-name="umacron" unicode="&#x16b;" horiz-adv-x="545" 
d="M392 474h87v-474h-87v80q-52 -90 -155 -90q-79 0 -124.5 46.5t-45.5 133.5v304h86v-284q0 -124 107 -124q57 0 94.5 43t37.5 113v252zM145 650h254v-69h-254v69z" />
    <glyph glyph-name="Ubreve" unicode="&#x16c;" horiz-adv-x="715" 
d="M69 700h92v-411q0 -101 52.5 -156.5t143.5 -55.5q93 0 145 55.5t52 156.5v411h92v-420q0 -128 -78.5 -209t-210.5 -81t-210 80.5t-78 209.5v420zM479 889q0 -52 -34 -80.5t-88 -28.5t-88 28.5t-34 80.5q0 11 1 14h68l-1 -11q0 -22 15 -36t39 -14t39 14t15 36l-1 11h68
q1 -3 1 -14z" />
    <glyph glyph-name="ubreve" unicode="&#x16d;" horiz-adv-x="545" 
d="M392 474h87v-474h-87v80q-52 -90 -155 -90q-79 0 -124.5 46.5t-45.5 133.5v304h86v-284q0 -124 107 -124q57 0 94.5 43t37.5 113v252zM395 663q0 -52 -34 -80.5t-88 -28.5t-88 28.5t-34 80.5q0 11 1 14h68l-1 -11q0 -22 15 -36t39 -14t39 14t15 36l-1 11h68q1 -3 1 -14z
" />
    <glyph glyph-name="Uring" unicode="&#x16e;" horiz-adv-x="715" 
d="M69 700h92v-411q0 -101 52.5 -156.5t143.5 -55.5q93 0 145 55.5t52 156.5v411h92v-420q0 -128 -78.5 -209t-210.5 -81t-210 80.5t-78 209.5v420zM269 853q0 37 25.5 63t62.5 26t63 -26t26 -63t-26 -62.5t-63 -25.5t-62.5 25.5t-25.5 62.5zM396 853q0 16 -11.5 27.5
t-27.5 11.5t-27.5 -11.5t-11.5 -27.5t11.5 -27.5t27.5 -11.5t27.5 11.5t11.5 27.5z" />
    <glyph glyph-name="uring" unicode="&#x16f;" horiz-adv-x="545" 
d="M392 474h87v-474h-87v80q-52 -90 -155 -90q-79 0 -124.5 46.5t-45.5 133.5v304h86v-284q0 -124 107 -124q57 0 94.5 43t37.5 113v252zM185 627q0 37 25.5 63t62.5 26t63 -26t26 -63t-26 -62.5t-63 -25.5t-62.5 25.5t-25.5 62.5zM312 627q0 16 -11.5 27.5t-27.5 11.5
t-27.5 -11.5t-11.5 -27.5t11.5 -27.5t27.5 -11.5t27.5 11.5t11.5 27.5z" />
    <glyph glyph-name="Uhungarumlaut" unicode="&#x170;" horiz-adv-x="715" 
d="M69 700h92v-411q0 -101 52.5 -156.5t143.5 -55.5q93 0 145 55.5t52 156.5v411h92v-420q0 -128 -78.5 -209t-210.5 -81t-210 80.5t-78 209.5v420zM226 781l87 133h117v-14l-121 -119h-83zM405 781l87 133h117v-14l-121 -119h-83z" />
    <glyph glyph-name="uhungarumlaut" unicode="&#x171;" horiz-adv-x="545" 
d="M392 474h87v-474h-87v80q-52 -90 -155 -90q-79 0 -124.5 46.5t-45.5 133.5v304h86v-284q0 -124 107 -124q57 0 94.5 43t37.5 113v252zM142 555l87 133h117v-14l-121 -119h-83zM321 555l87 133h117v-14l-121 -119h-83z" />
    <glyph glyph-name="Uogonek" unicode="&#x172;" horiz-adv-x="715" 
d="M69 700h92v-411q0 -101 52.5 -156.5t143.5 -55.5q93 0 145 55.5t52 156.5v411h92v-420q0 -128 -78.5 -209t-210.5 -81t-210 80.5t-78 209.5v420zM378 -188q-39 0 -63.5 23.5t-24.5 59.5q0 64 68 105h59q-61 -38 -61 -79q0 -17 11.5 -27.5t29.5 -10.5q17 0 34 11l27 -61
q-39 -21 -80 -21z" />
    <glyph glyph-name="uogonek" unicode="&#x173;" horiz-adv-x="545" 
d="M392 474h87v-474h-87v80q-52 -90 -155 -90q-79 0 -124.5 46.5t-45.5 133.5v304h86v-284q0 -124 107 -124q57 0 94.5 43t37.5 113v252zM440 -188q-39 0 -63.5 23.5t-24.5 59.5q0 64 68 105h59q-61 -38 -61 -79q0 -17 11.5 -27.5t29.5 -10.5q17 0 34 11l27 -61
q-39 -21 -80 -21z" />
    <glyph glyph-name="Wcircumflex" unicode="&#x174;" horiz-adv-x="988" 
d="M182 0l-169 700h97l149 -639l155 639h160l155 -639l149 639h97l-169 -700h-154l-158 641l-159 -641h-153zM342 781v14l121 106h62l121 -106v-14h-95l-57 69l-57 -69h-95z" />
    <glyph glyph-name="wcircumflex" unicode="&#x175;" horiz-adv-x="741" 
d="M102 474l111 -390l107 390h101l107 -390l111 390h85l-141 -474h-107l-105 364l-105 -364h-108l-141 474h85zM219 555v14l121 106h62l121 -106v-14h-95l-57 69l-57 -69h-95z" />
    <glyph glyph-name="Ycircumflex" unicode="&#x176;" horiz-adv-x="672" 
d="M124 700l212 -331l218 331h105l-277 -412v-288h-92v288l-276 412h110zM184 781v14l121 106h62l121 -106v-14h-95l-57 69l-57 -69h-95z" />
    <glyph glyph-name="ycircumflex" unicode="&#x177;" horiz-adv-x="481" 
d="M376 474h92l-304 -672h-92l117 259l-181 413h94l133 -312zM83 555v14l121 106h62l121 -106v-14h-95l-57 69l-57 -69h-95z" />
    <glyph glyph-name="Ydieresis" unicode="&#x178;" horiz-adv-x="672" 
d="M124 700l212 -331l218 331h105l-277 -412v-288h-92v288l-276 412h110zM203 793v99h97v-99h-97zM370 793v99h97v-99h-97z" />
    <glyph glyph-name="Zacute" unicode="&#x179;" horiz-adv-x="702" 
d="M52 87l472 526h-467v87h586v-87l-473 -526h478v-87h-596v87zM306 781l87 133h117v-14l-121 -119h-83z" />
    <glyph glyph-name="zacute" unicode="&#x17a;" horiz-adv-x="495" 
d="M448 0h-406v73l293 323h-288v78h396v-73l-293 -323h298v-78zM203 555l87 133h117v-14l-121 -119h-83z" />
    <glyph glyph-name="Zdotaccent" unicode="&#x17b;" horiz-adv-x="702" 
d="M52 87l472 526h-467v87h586v-87l-473 -526h478v-87h-596v87zM299 893h96v-100h-96v100z" />
    <glyph glyph-name="zdotaccent" unicode="&#x17c;" horiz-adv-x="495" 
d="M448 0h-406v73l293 323h-288v78h396v-73l-293 -323h298v-78zM196 562v101h96v-101h-96z" />
    <glyph glyph-name="Zcaron" unicode="&#x17d;" horiz-adv-x="702" 
d="M52 87l472 526h-467v87h586v-87l-473 -526h478v-87h-596v87zM316 781l-121 106v14h95l57 -69l57 69h95v-14l-121 -106h-62z" />
    <glyph glyph-name="zcaron" unicode="&#x17e;" horiz-adv-x="495" 
d="M448 0h-406v73l293 323h-288v78h396v-73l-293 -323h298v-78zM215 555l-121 106v14h95l57 -69l57 69h95v-14l-121 -106h-62z" />
    <glyph glyph-name="florin" unicode="&#x192;" horiz-adv-x="477" 
d="M37 69l69 45q13 -46 52 -46q49 0 49 61v269h-118v76h118v72q0 75 42.5 119.5t118.5 44.5t116.5 -38t40.5 -102q0 -16 -1 -22h-81l1 18q0 34 -20.5 52.5t-55.5 18.5q-75 0 -75 -93v-70h134v-76h-134v-273q0 -62 -34 -98.5t-93 -36.5q-97 0 -129 79z" />
    <glyph glyph-name="uni01B5" unicode="&#x1b5;" horiz-adv-x="600" 
d="M170 87h478v-87h-596v87l201 224h-164v78h234l201 224h-467v87h586v-87l-201 -224h158v-78h-229z" />
    <glyph glyph-name="uni01B6" unicode="&#x1b6;" horiz-adv-x="495" 
d="M42 0v73l119 132h-70v70h135l109 121h-288v78h396v-73l-114 -126h66v-70h-130l-115 -127h298v-78h-406z" />
    <glyph glyph-name="Aringacute" unicode="&#x1fa;" horiz-adv-x="739" 
d="M13 0l293 700h128l293 -700h-102l-72 178h-366l-73 -178h-101zM220 262h299l-149 365zM282 853q0 37 25.5 63t62.5 26t63 -26t26 -63t-26 -62.5t-63 -25.5t-62.5 25.5t-25.5 62.5zM409 853q0 16 -11.5 27.5t-27.5 11.5t-27.5 -11.5t-11.5 -27.5t11.5 -27.5t27.5 -11.5
t27.5 11.5t11.5 27.5zM328 923l87 133h117v-14l-121 -119h-83z" />
    <glyph glyph-name="aringacute" unicode="&#x1fb;" horiz-adv-x="515" 
d="M45 135q0 71 48 109t128 38q53 0 101 -15l43 -12v49q0 51 -32.5 79t-86.5 28q-51 0 -84 -26t-42 -72l-78 22q14 69 68 109t136 40q96 0 149 -49.5t53 -137.5v-297h-83v75q-18 -39 -62 -62t-101 -23q-66 0 -112 39q-45 41 -45 106zM365 177v10l-44 13q-50 15 -88 15
q-46 0 -72.5 -19.5t-26.5 -55.5q0 -34 25.5 -54t71.5 -20q60 0 97 30t37 81zM158 627q0 37 25.5 63t62.5 26t63 -26t26 -63t-26 -62.5t-63 -25.5t-62.5 25.5t-25.5 62.5zM285 627q0 16 -11.5 27.5t-27.5 11.5t-27.5 -11.5t-11.5 -27.5t11.5 -27.5t27.5 -11.5t27.5 11.5
t11.5 27.5zM205 691l87 133h117v-14l-121 -119h-83z" />
    <glyph glyph-name="AEacute" unicode="&#x1fc;" horiz-adv-x="947" 
d="M524 87h369v-87h-461v178h-225l-92 -178h-102l363 700h507v-87h-359v-207h329v-87h-329v-232zM432 262v352l-182 -352h182zM585 781l87 133h117v-14l-121 -119h-83z" />
    <glyph glyph-name="aeacute" unicode="&#x1fd;" horiz-adv-x="844" 
d="M45 138q0 71 47 109.5t129 38.5h140v18q0 51 -32 79t-87 28q-50 0 -83 -24.5t-42 -68.5l-75 21q16 70 68 107.5t132 37.5q125 0 174 -84q28 39 73 61.5t98 22.5q94 0 152 -55q59 -54 59 -147q0 -22 -6 -58h-343q1 -75 43 -117t108 -42q107 0 137 107l74 -29
q-51 -153 -211 -153q-67 0 -118.5 30t-76.5 83q-60 -113 -198 -113q-72 0 -117 42t-45 106zM448 286h263q1 3 1 14q0 50 -36 79t-91 29t-92.5 -33t-44.5 -89zM361 187v33h-123q-49 0 -77.5 -21t-28.5 -59q0 -36 24.5 -55t69.5 -19q61 0 98 32.5t37 88.5zM376 555l87 133h117
v-14l-121 -119h-83z" />
    <glyph glyph-name="Scommaaccent" unicode="&#x218;" horiz-adv-x="629" 
d="M308 623q-60 0 -98 -27t-38 -71q0 -50 46 -80t137 -48q125 -24 182 -71.5t57 -128.5q0 -90 -74.5 -148.5t-189.5 -58.5q-99 0 -182 50t-119 164l85 53q21 -87 77 -133.5t140 -46.5q76 0 122 32t46 85q0 48 -40 76.5t-136 43.5q-243 42 -243 209q0 79 66 133t170 54
q88 0 154.5 -44t94.5 -122l-86 -49q-35 128 -171 128zM247 -248l10 47q21 -8 40 -8q35 0 35 32q0 30 -37 30h-18v95h104v-121q0 -84 -84 -84q-25 0 -50 9z" />
    <glyph glyph-name="scommaaccent" unicode="&#x219;" horiz-adv-x="472" 
d="M33 124l71 37q20 -50 53.5 -72.5t87.5 -22.5q47 0 74.5 19t27.5 50q0 35 -27.5 54.5t-97.5 28.5q-163 24 -163 136q0 57 48 93q49 37 123 37q126 0 171 -105l-67 -37q-24 72 -104 72q-40 0 -66 -17t-26 -44q0 -30 28.5 -46t98.5 -26q166 -22 166 -141q0 -65 -54.5 -107.5
t-135.5 -42.5q-79 0 -133 36t-75 98zM159 -248l10 47q21 -8 40 -8q35 0 35 32q0 30 -37 30h-18v95h104v-121q0 -84 -84 -84q-25 0 -50 9z" />
    <glyph glyph-name="uni021A" unicode="&#x21a;" horiz-adv-x="672" 
d="M641 700v-87h-259v-613h-92v613h-259v87h610zM254 -248l10 47q21 -8 40 -8q35 0 35 32q0 30 -37 30h-18v95h104v-121q0 -84 -84 -84q-24 0 -50 9z" />
    <glyph glyph-name="uni021B" unicode="&#x21b;" horiz-adv-x="448" 
d="M117 141v260h-94v73h94v147h87v-147h170v-73h-170v-264q0 -33 18 -52t47 -19q60 0 71 74l80 -18q-10 -64 -48.5 -98t-99.5 -34q-75 0 -115 39.5t-40 111.5zM187 -248l10 47q21 -8 40 -8q35 0 35 32q0 30 -37 30h-18v95h104v-121q0 -84 -84 -84q-25 0 -50 9z" />
    <glyph glyph-name="uni0237" unicode="&#x237;" horiz-adv-x="220" 
d="M67 -198v672h86v-672h-86z" />
    <glyph glyph-name="circumflex" unicode="&#x2c6;" horiz-adv-x="420" 
d="M58 555v14l121 106h62l121 -106v-14h-95l-57 69l-57 -69h-95z" />
    <glyph glyph-name="caron" unicode="&#x2c7;" horiz-adv-x="416" 
d="M179 555l-121 106v14h95l57 -69l57 69h95v-14l-121 -106h-62z" />
    <glyph glyph-name="uni02C9" unicode="&#x2c9;" horiz-adv-x="382" 
d="M64 650h254v-69h-254v69z" />
    <glyph glyph-name="breve" unicode="&#x2d8;" horiz-adv-x="358" 
d="M301 663q0 -52 -34 -80.5t-88 -28.5t-88 28.5t-34 80.5q0 11 1 14h68l-1 -11q0 -22 15 -36t39 -14t39 14t15 36l-1 11h68q1 -3 1 -14z" />
    <glyph glyph-name="dotaccent" unicode="&#x2d9;" horiz-adv-x="202" 
d="M53 562v101h96v-101h-96z" />
    <glyph glyph-name="ring" unicode="&#x2da;" horiz-adv-x="292" 
d="M146 710q35 0 59 -24t24 -59q0 -34 -24.5 -58t-58.5 -24t-58 24t-24 58t24 58.5t58 24.5zM146 593q15 0 25 10t10 24q0 15 -10 25t-25 10q-14 0 -24 -10t-10 -25q0 -14 10 -24t24 -10z" />
    <glyph glyph-name="ogonek" unicode="&#x2db;" horiz-adv-x="317" 
d="M160 -170q-39 0 -63.5 23t-24.5 57q0 61 68 105h57q-58 -37 -58 -76q0 -18 11 -28t29 -10q16 0 33 11l28 -61q-38 -21 -80 -21z" />
    <glyph glyph-name="tilde" unicode="&#x2dc;" horiz-adv-x="419" 
d="M193 590q-22 21 -40 21q-15 0 -25.5 -10.5t-10.5 -27.5q0 -4 2 -14l-62 8q0 4 -0.5 7.5t-0.5 5.5l-1 2q0 39 28 65t66 26q41 0 74 -31q22 -22 44 -22q15 0 24.5 9.5t9.5 26.5l-2 16l64 -9q1 -3 1 -15q0 -39 -27 -64.5t-66 -25.5q-46 0 -78 32z" />
    <glyph glyph-name="hungarumlaut" unicode="&#x2dd;" horiz-adv-x="479" 
d="M48 555l87 133h117v-14l-121 -119h-83zM227 555l87 133h117v-14l-121 -119h-83z" />
    <glyph glyph-name="gravecomb" unicode="&#x300;" 
d="M-143 555l-121 119v14h117l87 -133h-83z" />
    <glyph glyph-name="acutecomb" unicode="&#x301;" 
d="M-264 555l87 133h117v-14l-121 -119h-83z" />
    <glyph glyph-name="uni0302" unicode="&#x302;" 
d="M-362 555v14l121 106h62l121 -106v-14h-95l-57 69l-57 -69h-95z" />
    <glyph glyph-name="tildecomb" unicode="&#x303;" 
d="M-226 589q-22 21 -43 21q-15 0 -24.5 -9.5t-9.5 -24.5q0 -8 3 -16l-63 8q-2 8 -2 16q0 39 26.5 64t65.5 25q41 0 77 -31q22 -21 43 -21q15 0 24.5 9.5t9.5 24.5q0 9 -3 16l64 -8q2 -8 2 -16q0 -39 -27 -64t-66 -25q-41 0 -77 31z" />
    <glyph glyph-name="uni0304" unicode="&#x304;" 
d="M-317 650h254v-69h-254v69z" />
    <glyph glyph-name="uni0306" unicode="&#x306;" 
d="M-57 663q0 -52 -34 -80.5t-88 -28.5t-88 28.5t-34 80.5q0 11 1 14h68l-1 -11q0 -22 15 -36t39 -14t39 14t15 36l-1 11h68q1 -3 1 -14z" />
    <glyph glyph-name="uni0307" unicode="&#x307;" 
d="M-149 562v101h96v-101h-96z" />
    <glyph glyph-name="uni0308" unicode="&#x308;" 
d="M-304 567v99h97v-99h-97zM-137 567v99h97v-99h-97z" />
    <glyph glyph-name="uni030A" unicode="&#x30a;" 
d="M-231 627q0 37 25.5 63t62.5 26t63 -26t26 -63t-26 -62.5t-63 -25.5t-62.5 25.5t-25.5 62.5zM-104 627q0 16 -11.5 27.5t-27.5 11.5t-27.5 -11.5t-11.5 -27.5t11.5 -27.5t27.5 -11.5t27.5 11.5t11.5 27.5z" />
    <glyph glyph-name="uni030B" unicode="&#x30b;" 
d="M-432 555l87 133h117v-14l-121 -119h-83zM-253 555l87 133h117v-14l-121 -119h-83z" />
    <glyph glyph-name="uni030C" unicode="&#x30c;" 
d="M-237 555l-121 106v14h95l57 -69l57 69h95v-14l-121 -106h-62z" />
    <glyph glyph-name="uni0312" unicode="&#x312;" 
d="M-79 542h-105v133q0 84 94 84h32v-52h-35q-39 0 -39 -30t35 -30h18v-105z" />
    <glyph glyph-name="uni0326" unicode="&#x326;" 
d="M-194 -248l10 47q21 -8 40 -8q35 0 35 32q0 30 -37 30h-18v95h104v-121q0 -84 -84 -84q-24 0 -50 9z" />
    <glyph glyph-name="uni0327" unicode="&#x327;" 
d="M-182 -53q21 23 50 23q34 0 55.5 -21t21.5 -56q0 -38 -23.5 -59.5t-60.5 -21.5q-35 0 -59 17.5t-30 49.5l47 12q2 -15 13 -24.5t27 -9.5q18 0 29 10t11 26t-11 26.5t-29 10.5q-26 0 -38 -21l-47 9q10 35 21 98h51q-16 -48 -28 -69z" />
    <glyph glyph-name="uni0328" unicode="&#x328;" 
d="M-157 -173q-39 0 -63.5 23.5t-24.5 59.5q0 64 68 105h59q-61 -38 -61 -79q0 -17 11.5 -27.5t29.5 -10.5q17 0 34 11l27 -61q-39 -21 -80 -21z" />
    <glyph glyph-name="uni0335" unicode="&#x335;" 
d="M-355 371h305v-70h-305v70z" />
    <glyph glyph-name="uni0336" unicode="&#x336;" 
d="M-801 311v78h741v-78h-741z" />
    <glyph glyph-name="uni0337" unicode="&#x337;" 
d="M-324 262l-35 67l248 128l34 -67z" />
    <glyph glyph-name="uni0338" unicode="&#x338;" 
d="M-378 -55l-74 27l205 557l73 -27z" />
    <glyph glyph-name="uni037E" unicode="&#x37e;" horiz-adv-x="236" 
d="M66 341v105h104v-105h-104zM33 -103l9 48q18 -9 39 -9q39 0 39 33q0 31 -36 31h-18v105h104v-131q0 -86 -88 -86q-26 0 -49 9z" />
    <glyph glyph-name="tonos" unicode="&#x384;" horiz-adv-x="296" 
d="M73 555l37 133h113v-14l-71 -119h-79z" />
    <glyph glyph-name="dieresistonos" unicode="&#x385;" horiz-adv-x="408" 
d="M147 550l17 133h105v-14l-51 -119h-71zM33 567v99h98v-99h-98zM285 567v99h97v-99h-97z" />
    <glyph glyph-name="Alphatonos" unicode="&#x386;" horiz-adv-x="739" 
d="M13 0l293 700h128l293 -700h-102l-72 178h-366l-73 -178h-101zM220 262h299l-149 365zM44 567l37 133h113v-14l-71 -119h-79z" />
    <glyph glyph-name="anoteleia" unicode="&#x387;" horiz-adv-x="236" 
d="M66 403h104v-105h-104v105z" />
    <glyph glyph-name="Epsilontonos" unicode="&#x388;" horiz-adv-x="633" 
d="M76 700h493v-87h-401v-207h371v-87h-371v-232h411v-87h-503v700zM-135 567l37 133h113v-14l-71 -119h-79z" />
    <glyph glyph-name="Etatonos" unicode="&#x389;" horiz-adv-x="737" 
d="M569 303h-401v-303h-92v700h92v-313h401v313h92v-700h-92v303zM-135 567l37 133h113v-14l-71 -119h-79z" />
    <glyph glyph-name="Iotatonos" unicode="&#x38a;" horiz-adv-x="243" 
d="M76 0v700h92v-700h-92zM-135 567l37 133h113v-14l-71 -119h-79z" />
    <glyph glyph-name="Omicrontonos" unicode="&#x38c;" horiz-adv-x="812" 
d="M406 710q151 3 257.5 -104.5t104.5 -255.5q2 -149 -104.5 -256t-257.5 -104q-151 -3 -257 104t-104 256q-2 148 104 255.5t257 104.5zM406 77q113 0 189 76t76 197t-75 197t-190 76t-190 -76t-75 -198q0 -121 75.5 -196.5t189.5 -75.5zM-44 567l37 133h113v-14l-71 -119
h-79z" />
    <glyph glyph-name="Upsilontonos" unicode="&#x38e;" horiz-adv-x="672" 
d="M124 700l212 -331l218 331h105l-277 -412v-288h-92v288l-276 412h110zM-166 567l37 133h113v-14l-71 -119h-79z" />
    <glyph glyph-name="Omegatonos" unicode="&#x38f;" horiz-adv-x="777" 
d="M732 378q0 -94 -47 -171q-46 -75 -115 -123h136v-84h-272v79q81 42 142 118t61 174q0 109 -71 180.5t-178 71.5t-178 -71.5t-71 -180.5q0 -98 61 -174q60 -75 143 -118v-79h-272v84h135q-69 48 -115 123q-46 76 -46 171q-2 140 97.5 237t245.5 95q148 2 247 -94.5
t97 -237.5zM-56 567l37 133h113v-14l-71 -119h-79z" />
    <glyph glyph-name="iotadieresistonos" unicode="&#x390;" horiz-adv-x="328" 
d="M67 136v338h86v-345q0 -30 14.5 -45.5t39.5 -15.5q39 0 49 39l68 -43q-30 -74 -117 -74q-69 0 -104.5 38t-35.5 108zM49 550l17 133h105v-14l-51 -119h-71zM-65 567v99h98v-99h-98zM187 567v99h97v-99h-97z" />
    <glyph glyph-name="Alpha" unicode="&#x391;" horiz-adv-x="739" 
d="M13 0l293 700h128l293 -700h-102l-72 178h-366l-73 -178h-101zM220 262h299l-149 365z" />
    <glyph glyph-name="Beta" unicode="&#x392;" horiz-adv-x="688" 
d="M76 0v700h317q98 0 160 -52t62 -130q0 -51 -28.5 -93t-76.5 -64q130 -43 130 -172q0 -81 -65 -135t-161 -54h-338zM168 401h229q59 0 93 28.5t34 79.5q0 48 -36 76t-91 28h-229v-212zM168 87h243q58 0 95.5 31.5t37.5 82.5t-37 84.5t-96 33.5h-243v-232z" />
    <glyph glyph-name="Gamma" unicode="&#x393;" horiz-adv-x="613" 
d="M583 613h-415v-613h-92v700h507v-87z" />
    <glyph glyph-name="uni0394" unicode="&#x394;" horiz-adv-x="739" 
d="M13 0l293 700h128l293 -700h-714zM149 84h442l-221 544z" />
    <glyph glyph-name="Epsilon" unicode="&#x395;" horiz-adv-x="633" 
d="M76 700h493v-87h-401v-207h371v-87h-371v-232h411v-87h-503v700z" />
    <glyph glyph-name="Zeta" unicode="&#x396;" horiz-adv-x="702" 
d="M52 87l472 526h-467v87h586v-87l-473 -526h478v-87h-596v87z" />
    <glyph glyph-name="Eta" unicode="&#x397;" horiz-adv-x="737" 
d="M569 303h-401v-303h-92v700h92v-313h401v313h92v-700h-92v303z" />
    <glyph glyph-name="Theta" unicode="&#x398;" horiz-adv-x="812" 
d="M406 710q151 3 257.5 -104.5t104.5 -255.5q2 -149 -104.5 -256t-257.5 -104q-151 -3 -257 104t-104 256q-2 148 104 255.5t257 104.5zM406 77q113 0 189 76t76 197t-75 197t-190 76t-190 -76t-75 -198q0 -121 75.5 -196.5t189.5 -75.5zM279 312v76h254v-76h-254z" />
    <glyph glyph-name="Iota" unicode="&#x399;" horiz-adv-x="243" 
d="M76 0v700h92v-700h-92z" />
    <glyph glyph-name="Kappa" unicode="&#x39a;" horiz-adv-x="672" 
d="M378 426l270 -426h-110l-223 358l-147 -156v-202h-92v700h92v-374l348 374h119z" />
    <glyph glyph-name="Lambda" unicode="&#x39b;" horiz-adv-x="739" 
d="M13 0l293 700h128l293 -700h-102l-255 628l-256 -628h-101z" />
    <glyph glyph-name="Mu" unicode="&#x39c;" horiz-adv-x="942" 
d="M867 0h-92v651l-234 -651h-140l-233 651v-651h-92v700h170l225 -631l225 631h171v-700z" />
    <glyph glyph-name="Nu" unicode="&#x39d;" horiz-adv-x="766" 
d="M168 636v-636h-92v700h158l364 -636v636h92v-700h-159z" />
    <glyph glyph-name="Xi" unicode="&#x39e;" horiz-adv-x="676" 
d="M617 613h-557v87h557v-87zM497 313h-317v84h317v-84zM55 87h567v-87h-567v87z" />
    <glyph glyph-name="Omicron" unicode="&#x39f;" horiz-adv-x="812" 
d="M406 710q151 3 257.5 -104.5t104.5 -255.5q2 -149 -104.5 -256t-257.5 -104q-151 -3 -257 104t-104 256q-2 148 104 255.5t257 104.5zM406 77q113 0 189 76t76 197t-75 197t-190 76t-190 -76t-75 -198q0 -121 75.5 -196.5t189.5 -75.5z" />
    <glyph glyph-name="Pi" unicode="&#x3a0;" horiz-adv-x="737" 
d="M569 616h-401v-616h-92v700h585v-700h-92v616z" />
    <glyph glyph-name="Rho" unicode="&#x3a1;" horiz-adv-x="658" 
d="M168 288v-288h-92v700h309q105 0 166 -58.5t61 -147.5q0 -86 -62 -146t-165 -60h-217zM168 375h209q63 0 100.5 31.5t37.5 87.5t-37.5 87.5t-100.5 31.5h-209v-238z" />
    <glyph glyph-name="Sigma" unicode="&#x3a3;" horiz-adv-x="652" 
d="M415 391v-82l-253 -222h436v-87h-546v105l283 245l-283 245v105h526v-87h-416z" />
    <glyph glyph-name="Tau" unicode="&#x3a4;" horiz-adv-x="672" 
d="M641 700v-87h-259v-613h-92v613h-259v87h610z" />
    <glyph glyph-name="Upsilon" unicode="&#x3a5;" horiz-adv-x="672" 
d="M124 700l212 -331l218 331h105l-277 -412v-288h-92v288l-276 412h110z" />
    <glyph glyph-name="Phi" unicode="&#x3a6;" horiz-adv-x="817" 
d="M362 0v80h-55q-114 0 -188 77t-74 193q0 113 74.5 191.5t187.5 78.5h55v80h92v-80h55q113 0 188 -78.5t75 -191.5q0 -116 -74 -193t-189 -77h-55v-80h-92zM316 167h46v366h-46q-78 0 -128.5 -52t-50.5 -131q0 -78 50.5 -130.5t128.5 -52.5zM454 167h47q78 0 128.5 52.5
t50.5 130.5q0 79 -50.5 131t-128.5 52h-47v-366z" />
    <glyph glyph-name="Chi" unicode="&#x3a7;" horiz-adv-x="674" 
d="M18 0l265 380l-225 320h112l167 -252l171 252h108l-225 -320l265 -380h-109l-210 308l-210 -308h-109z" />
    <glyph glyph-name="Psi" unicode="&#x3a8;" horiz-adv-x="803" 
d="M642 700h92v-170q0 -150 -75.5 -239.5t-211.5 -103.5v-187h-92v187q-136 14 -211 104t-75 239v170h92v-174q0 -110 50.5 -175.5t143.5 -78.5v428h92v-428q94 13 144.5 78.5t50.5 175.5v174z" />
    <glyph glyph-name="uni03A9" unicode="&#x3a9;" horiz-adv-x="777" 
d="M732 378q0 -94 -47 -171q-46 -75 -115 -123h136v-84h-272v79q81 42 142 118t61 174q0 109 -71 180.5t-178 71.5t-178 -71.5t-71 -180.5q0 -98 61 -174q60 -75 143 -118v-79h-272v84h135q-69 48 -115 123q-46 76 -46 171q-2 140 97.5 237t245.5 95q148 2 247 -94.5
t97 -237.5z" />
    <glyph glyph-name="Iotadieresis" unicode="&#x3aa;" horiz-adv-x="243" 
d="M76 0v700h92v-700h-92zM-10 793v99h97v-99h-97zM157 793v99h97v-99h-97z" />
    <glyph glyph-name="Upsilondieresis" unicode="&#x3ab;" horiz-adv-x="672" 
d="M124 700l212 -331l218 331h105l-277 -412v-288h-92v288l-276 412h110zM199 793v99h97v-99h-97zM366 793v99h97v-99h-97z" />
    <glyph glyph-name="alphatonos" unicode="&#x3ac;" horiz-adv-x="619" 
d="M38 236q0 112 58.5 180t144.5 68q105 0 145 -84v74h86v-360q0 -44 37 -44q27 0 38 35l68 -36q-11 -36 -40.5 -57.5t-68.5 -21.5q-45 0 -75 25.5t-36 69.5q-39 -95 -152 -95q-86 0 -145.5 67.5t-59.5 178.5zM387 239q0 79 -37 123t-95 44q-57 0 -94 -45t-37 -124
q0 -80 36.5 -124.5t94.5 -44.5t95 45t37 126zM263 555l37 133h113v-14l-71 -119h-79z" />
    <glyph glyph-name="epsilontonos" unicode="&#x3ad;" horiz-adv-x="452" 
d="M40 133q0 87 93 108q-37 10 -59.5 39t-22.5 70q0 61 46.5 97.5t120.5 36.5q130 0 176 -124l-74 -37q-24 86 -102 86q-38 0 -60.5 -16.5t-22.5 -47.5t21.5 -49t54.5 -18h33v-76h-43q-36 0 -56.5 -16t-20.5 -45q0 -35 26.5 -54t71.5 -19q52 0 82.5 28.5t39.5 79.5l75 -34
q-12 -67 -63.5 -109.5t-126.5 -42.5q-79 0 -134 40t-55 103zM183 555l37 133h113v-14l-71 -119h-79z" />
    <glyph glyph-name="etatonos" unicode="&#x3ae;" horiz-adv-x="543" 
d="M389 -198v480q0 61 -29 93.5t-81 32.5q-55 0 -90.5 -39.5t-35.5 -105.5v-263h-86v474h86v-75q56 85 156 85q77 0 122 -47t45 -129v-506h-87zM243 555l37 133h113v-14l-71 -119h-79z" />
    <glyph glyph-name="iotatonos" unicode="&#x3af;" horiz-adv-x="328" 
d="M67 136v338h86v-345q0 -30 14.5 -45.5t39.5 -15.5q39 0 49 39l68 -43q-30 -74 -117 -74q-69 0 -104.5 38t-35.5 108zM71 555l37 133h113v-14l-71 -119h-79z" />
    <glyph glyph-name="upsilondieresistonos" unicode="&#x3b0;" horiz-adv-x="538" 
d="M67 196v278h86v-281q0 -61 30 -93t86 -32q55 0 85.5 32.5t30.5 92.5v281h86v-278q0 -95 -54.5 -150.5t-147.5 -55.5t-147.5 55.5t-54.5 150.5zM208 550l17 133h105v-14l-51 -119h-71zM94 567v99h98v-99h-98zM346 567v99h97v-99h-97z" />
    <glyph glyph-name="alpha" unicode="&#x3b1;" horiz-adv-x="619" 
d="M38 236q0 112 58.5 180t144.5 68q105 0 145 -84v74h86v-360q0 -44 37 -44q27 0 38 35l68 -36q-11 -36 -40.5 -57.5t-68.5 -21.5q-45 0 -75 25.5t-36 69.5q-39 -95 -152 -95q-86 0 -145.5 67.5t-59.5 178.5zM387 239q0 79 -37 123t-95 44q-57 0 -94 -45t-37 -124
q0 -80 36.5 -124.5t94.5 -44.5t95 45t37 126z" />
    <glyph glyph-name="beta" unicode="&#x3b2;" horiz-adv-x="546" 
d="M67 -198v721q0 86 50 136.5t132 50.5q79 0 125.5 -43t46.5 -113q0 -52 -25.5 -90.5t-65.5 -54.5q75 -13 120.5 -65t45.5 -136q0 -98 -56 -158t-144 -60q-44 0 -83 17t-60 47v-252h-86zM410 208q0 73 -52.5 115t-125.5 42h-20v75h20q48 1 77.5 29.5t29.5 76.5
q0 39 -25 63.5t-64 24.5q-45 0 -71 -29t-26 -83v-311q0 -64 37.5 -103t96.5 -39q56 0 89.5 36t33.5 103z" />
    <glyph glyph-name="gamma" unicode="&#x3b3;" horiz-adv-x="529" 
d="M222 -198v269l-203 403h92l154 -322l153 322h93l-203 -403v-269h-86z" />
    <glyph glyph-name="delta" unicode="&#x3b4;" horiz-adv-x="552" 
d="M38 233q0 85 39 137q39 54 92 72q-48 9 -77.5 42t-29.5 80q0 65 59 105.5t145 40.5q120 0 200 -74l-45 -66q-65 62 -152 62q-53 0 -86 -21t-33 -56q0 -77 126 -77q111 0 174.5 -68.5t63.5 -170.5q0 -109 -66 -179t-172 -70q-105 0 -171.5 69.5t-66.5 173.5zM426 237
q0 74 -42 119.5t-108 45.5t-108 -45.5t-42 -119.5q0 -75 42 -122t108 -47t108 47t42 122z" />
    <glyph glyph-name="epsilon" unicode="&#x3b5;" horiz-adv-x="452" 
d="M40 133q0 87 93 108q-37 10 -59.5 39t-22.5 70q0 61 46.5 97.5t120.5 36.5q130 0 176 -124l-74 -37q-24 86 -102 86q-38 0 -60.5 -16.5t-22.5 -47.5t21.5 -49t54.5 -18h33v-76h-43q-36 0 -56.5 -16t-20.5 -45q0 -35 26.5 -54t71.5 -19q52 0 82.5 28.5t39.5 79.5l75 -34
q-12 -67 -63.5 -109.5t-126.5 -42.5q-79 0 -134 40t-55 103z" />
    <glyph glyph-name="zeta" unicode="&#x3b6;" horiz-adv-x="494" 
d="M426 -208l-64 44q40 34 40 78q0 35 -25 55.5t-75 20.5q-113 0 -188.5 72t-75.5 197q-1 70 25.5 132t71 106t95.5 75t107 50h-286v78h424v-78q-180 -65 -266.5 -150.5t-86.5 -207.5q0 -98 53.5 -148t145.5 -50q77 0 121 -38.5t44 -107.5q0 -75 -60 -128z" />
    <glyph glyph-name="eta" unicode="&#x3b7;" horiz-adv-x="543" 
d="M389 -198v480q0 61 -29 93.5t-81 32.5q-55 0 -90.5 -39.5t-35.5 -105.5v-263h-86v474h86v-75q56 85 156 85q77 0 122 -47t45 -129v-506h-87z" />
    <glyph glyph-name="theta" unicode="&#x3b8;" horiz-adv-x="559" 
d="M38 350q0 167 64 263.5t177 96.5q114 0 178 -96t64 -264q0 -170 -63 -265t-179 -95q-115 0 -178 95t-63 265zM127 388h305q-4 114 -43.5 179t-109.5 65t-109 -65t-43 -179zM432 312h-305q8 -244 152 -244q73 0 111 63.5t42 180.5z" />
    <glyph glyph-name="iota" unicode="&#x3b9;" horiz-adv-x="328" 
d="M67 136v338h86v-345q0 -30 14.5 -45.5t39.5 -15.5q39 0 49 39l68 -43q-30 -74 -117 -74q-69 0 -104.5 38t-35.5 108z" />
    <glyph glyph-name="kappa" unicode="&#x3ba;" horiz-adv-x="467" 
d="M67 0v474h86v-191l171 191h111l-210 -224l219 -250h-110l-181 212v-212h-86z" />
    <glyph glyph-name="lambda" unicode="&#x3bb;" horiz-adv-x="500" 
d="M487 0h-92l-142 379l-146 -379h-92l197 489l-30 80q-21 54 -62 54t-57 -40l-61 42q16 36 48 55.5t74 19.5q51 0 84 -25t53 -79z" />
    <glyph glyph-name="uni03BC" unicode="&#x3bc;" horiz-adv-x="545" 
d="M67 -198v672h86v-284q0 -124 113 -124q54 0 90 42.5t36 113.5v252h87v-474h-87v80q-45 -90 -142 -90q-65 0 -97 41v-229h-86z" />
    <glyph glyph-name="nu" unicode="&#x3bd;" horiz-adv-x="521" 
d="M110 474l151 -390l150 390h92l-190 -474h-105l-189 474h91z" />
    <glyph glyph-name="xi" unicode="&#x3be;" horiz-adv-x="487" 
d="M419 -208l-66 46q38 31 38 72q0 80 -106 80q-114 0 -179.5 53t-65.5 146q0 67 34.5 114t94.5 68q-44 17 -74.5 58.5t-30.5 96.5q0 81 59 132.5t144 51.5q89 0 144 -44t68 -127l-81 -22q-13 117 -129 117q-54 0 -87.5 -30.5t-33.5 -79.5q0 -55 36.5 -87t101.5 -32h80v-76
h-88q-71 0 -112.5 -37t-41.5 -96q0 -68 41.5 -99t130.5 -31q87 0 133 -39t46 -116q0 -66 -56 -119z" />
    <glyph glyph-name="omicron" unicode="&#x3bf;" horiz-adv-x="556" 
d="M38 237q0 106 67 176.5t173 70.5q107 0 174 -70.5t67 -176.5t-67.5 -176.5t-173.5 -70.5t-173 70.5t-67 176.5zM430 237q0 75 -43 121q-42 48 -109 48q-66 0 -109 -47.5t-43 -121.5t43 -121.5t109 -47.5q67 0 109.5 47t42.5 122z" />
    <glyph glyph-name="pi" unicode="&#x3c0;" horiz-adv-x="622" 
d="M345 129v272h-130v-401h-87v401h-114v73h544v-73h-126v-278q0 -27 13 -41t35 -14q32 0 48 39l66 -41q-12 -35 -43 -55.5t-71 -20.5q-67 0 -101 37t-34 102z" />
    <glyph glyph-name="rho" unicode="&#x3c1;" horiz-adv-x="569" 
d="M67 -198v412q0 132 65.5 201t170.5 69q104 0 166 -68t62 -178q0 -109 -62 -178.5t-157 -69.5q-113 0 -161 78v-266h-84zM445 237q0 79 -41.5 124t-106.5 45q-62 0 -105 -44.5t-43 -124.5t43 -125t105 -45q63 0 105.5 45t42.5 125z" />
    <glyph glyph-name="uni03C2" unicode="&#x3c2;" horiz-adv-x="504" 
d="M431 -208l-65 47q40 33 40 75q0 35 -28.5 55.5t-88.5 20.5q-109 0 -180 69.5t-71 180.5q0 105 69.5 174.5t168.5 69.5q86 0 144.5 -45t75.5 -126l-79 -24q-11 57 -48 88t-94 31q-60 0 -106.5 -45.5t-46.5 -122.5q0 -79 49 -126.5t129 -47.5q90 0 139.5 -39.5t49.5 -111.5
q0 -71 -58 -123z" />
    <glyph glyph-name="sigma" unicode="&#x3c3;" horiz-adv-x="556" 
d="M38 232q0 106 69.5 174t188.5 68h228v-76h-102q44 -24 68 -69.5t24 -103.5q0 -101 -66 -168t-172 -67q-105 0 -171.5 69.5t-66.5 172.5zM426 232q0 73 -41.5 118.5t-107.5 45.5t-108.5 -46t-42.5 -118q0 -73 41.5 -118.5t108.5 -45.5t108.5 45.5t41.5 118.5z" />
    <glyph glyph-name="tau" unicode="&#x3c4;" horiz-adv-x="433" 
d="M148 136v262h-125v76h348v-76h-136v-269q0 -61 54 -61q37 0 49 39l67 -43q-30 -74 -116 -74q-69 0 -105 38t-36 108z" />
    <glyph glyph-name="upsilon" unicode="&#x3c5;" horiz-adv-x="538" 
d="M67 196v278h86v-281q0 -61 30 -93t86 -32q55 0 85.5 32.5t30.5 92.5v281h86v-278q0 -95 -54.5 -150.5t-147.5 -55.5t-147.5 55.5t-54.5 150.5z" />
    <glyph glyph-name="phi" unicode="&#x3c6;" horiz-adv-x="698" 
d="M660 237q0 -103 -66.5 -170t-165.5 -67h-36v-198h-86v198h-36q-99 0 -165.5 67t-66.5 170t66.5 170t165.5 67h36v226h86v-226h36q99 0 165.5 -67t66.5 -170zM281 78h25v318h-25q-73 0 -116 -43.5t-43 -115.5t43 -115.5t116 -43.5zM576 237q0 72 -43 115.5t-117 43.5h-24
v-318h24q74 0 117 43.5t43 115.5z" />
    <glyph glyph-name="chi" unicode="&#x3c7;" horiz-adv-x="470" 
d="M13 -198l173 350l-156 322h100l105 -233l104 233h101l-156 -321l173 -351h-99l-123 263l-123 -263h-99z" />
    <glyph glyph-name="psi" unicode="&#x3c8;" horiz-adv-x="627" 
d="M270 78v622h87v-622q117 5 117 144v252h87v-249q0 -105 -52.5 -162.5t-151.5 -62.5v-198h-87v198q-99 5 -151 62.5t-52 162.5v249h86v-252q0 -139 117 -144z" />
    <glyph glyph-name="omega" unicode="&#x3c9;" horiz-adv-x="744" 
d="M329 198v171h86v-171q0 -62 26 -96t72 -34q52 0 79.5 44.5t27.5 128.5q0 131 -76 233h93q69 -94 69 -228q0 -119 -48.5 -187.5t-140.5 -68.5q-53 0 -91 28t-54 79q-17 -51 -55 -79t-90 -28q-92 0 -140.5 68.5t-48.5 187.5q0 129 70 228h92q-76 -102 -76 -233
q0 -84 27.5 -128.5t79.5 -44.5q46 0 72 34t26 96z" />
    <glyph glyph-name="iotadieresis" unicode="&#x3ca;" horiz-adv-x="328" 
d="M67 136v338h86v-345q0 -30 14.5 -45.5t39.5 -15.5q39 0 49 39l68 -43q-30 -74 -117 -74q-69 0 -104.5 38t-35.5 108zM-23 567v99h97v-99h-97zM144 567v99h97v-99h-97z" />
    <glyph glyph-name="upsilondieresis" unicode="&#x3cb;" horiz-adv-x="538" 
d="M67 196v278h86v-281q0 -61 30 -93t86 -32q55 0 85.5 32.5t30.5 92.5v281h86v-278q0 -95 -54.5 -150.5t-147.5 -55.5t-147.5 55.5t-54.5 150.5zM136 567v99h97v-99h-97zM303 567v99h97v-99h-97z" />
    <glyph glyph-name="omicrontonos" unicode="&#x3cc;" horiz-adv-x="556" 
d="M38 237q0 106 67 176.5t173 70.5q107 0 174 -70.5t67 -176.5t-67.5 -176.5t-173.5 -70.5t-173 70.5t-67 176.5zM430 237q0 75 -43 121q-42 48 -109 48q-66 0 -109 -47.5t-43 -121.5t43 -121.5t109 -47.5q67 0 109.5 47t42.5 122zM239 555l37 133h113v-14l-71 -119h-79z
" />
    <glyph glyph-name="upsilontonos" unicode="&#x3cd;" horiz-adv-x="538" 
d="M67 196v278h86v-281q0 -61 30 -93t86 -32q55 0 85.5 32.5t30.5 92.5v281h86v-278q0 -95 -54.5 -150.5t-147.5 -55.5t-147.5 55.5t-54.5 150.5zM230 555l37 133h113v-14l-71 -119h-79z" />
    <glyph glyph-name="omegatonos" unicode="&#x3ce;" horiz-adv-x="744" 
d="M329 198v171h86v-171q0 -62 26 -96t72 -34q52 0 79.5 44.5t27.5 128.5q0 131 -76 233h93q69 -94 69 -228q0 -119 -48.5 -187.5t-140.5 -68.5q-53 0 -91 28t-54 79q-17 -51 -55 -79t-90 -28q-92 0 -140.5 68.5t-48.5 187.5q0 129 70 228h92q-76 -102 -76 -233
q0 -84 27.5 -128.5t79.5 -44.5q46 0 72 34t26 96zM342 555l37 133h113v-14l-71 -119h-79z" />
    <glyph glyph-name="uni0400" unicode="&#x400;" horiz-adv-x="633" 
d="M76 700h493v-87h-401v-207h371v-87h-371v-232h411v-87h-503v700zM265 781l-121 119v14h117l87 -133h-83z" />
    <glyph glyph-name="uni0401" unicode="&#x401;" horiz-adv-x="633" 
d="M76 700h493v-87h-401v-207h371v-87h-371v-232h411v-87h-503v700zM174 793v99h97v-99h-97zM341 793v99h97v-99h-97z" />
    <glyph glyph-name="uni0402" unicode="&#x402;" horiz-adv-x="841" 
d="M621 -110v13q79 140 79 286q0 210 -157 210q-68 0 -114.5 -52.5t-46.5 -131.5v-215h-92v616h-259v84h610v-84h-259v-238q56 106 189 106q108 0 164.5 -77t56.5 -212q0 -148 -77 -305h-94z" />
    <glyph glyph-name="uni0403" unicode="&#x403;" horiz-adv-x="613" 
d="M583 613h-415v-613h-92v700h507v-87zM282 781l87 133h117v-14l-121 -119h-83z" />
    <glyph glyph-name="uni0404" unicode="&#x404;" horiz-adv-x="777" 
d="M662 298l81 -33q-28 -124 -119 -199.5t-229 -75.5q-156 -1 -254 102t-96 258q-2 151 100.5 257t249.5 103q129 0 205 -66q78 -66 105 -167l-84 -38q-18 86 -77 136.5t-149 50.5q-99 0 -168.5 -62t-82.5 -168h306v-87h-307q11 -110 79 -172.5t173 -62.5q116 0 180 61
t87 163z" />
    <glyph glyph-name="uni0405" unicode="&#x405;" horiz-adv-x="629" 
d="M308 623q-60 0 -98 -27t-38 -71q0 -50 46 -80t137 -48q125 -24 182 -71.5t57 -128.5q0 -90 -74.5 -148.5t-189.5 -58.5q-99 0 -182 50t-119 164l85 53q21 -87 77 -133.5t140 -46.5q76 0 122 32t46 85q0 48 -40 76.5t-136 43.5q-243 42 -243 209q0 79 66 133t170 54
q88 0 154.5 -44t94.5 -122l-86 -49q-35 128 -171 128z" />
    <glyph glyph-name="uni0406" unicode="&#x406;" horiz-adv-x="243" 
d="M76 0v700h92v-700h-92z" />
    <glyph glyph-name="uni0407" unicode="&#x407;" horiz-adv-x="243" 
d="M76 0v700h92v-700h-92zM-10 793v99h97v-99h-97zM157 793v99h97v-99h-97z" />
    <glyph glyph-name="uni0408" unicode="&#x408;" horiz-adv-x="598" 
d="M437 700h92v-466q0 -105 -59 -174.5t-177 -69.5q-112 0 -177.5 64.5t-65.5 167.5q0 69 28 121l87 -33q-23 -41 -23 -93q0 -62 41.5 -101t109.5 -39q144 0 144 174v449z" />
    <glyph glyph-name="uni0409" unicode="&#x409;" horiz-adv-x="1012" 
d="M29 0v12q32 59 45 134q15 76 15 199v355h455v-293h197q101 0 162 -58t61 -145q0 -89 -61 -146.5t-162 -57.5h-289v616h-271v-261q0 -241 -55 -355h-97zM544 87h191q60 0 96.5 31.5t36.5 85.5t-36.5 85.5t-96.5 31.5h-191v-234z" />
    <glyph glyph-name="uni040A" unicode="&#x40a;" horiz-adv-x="989" 
d="M76 0v700h92v-293h278v293h92v-293h180q101 0 162 -58t61 -145q0 -89 -61 -146.5t-162 -57.5h-272v321h-278v-321h-92zM538 87h174q60 0 96.5 31.5t36.5 85.5t-36.5 85.5t-96.5 31.5h-174v-234z" />
    <glyph glyph-name="uni040B" unicode="&#x40b;" horiz-adv-x="800" 
d="M290 0v613h-259v87h610v-87h-259v-227q22 46 67 72t103 26q81 0 128.5 -47.5t47.5 -129.5v-307h-92v282q0 60 -30 91.5t-85 31.5q-59 0 -99 -45t-40 -116v-244h-92z" />
    <glyph glyph-name="uni040C" unicode="&#x40c;" horiz-adv-x="623" 
d="M76 0v700h92v-304l301 304h120l-336 -335l353 -365h-125l-313 324v-324h-92zM277 781l87 133h117v-14l-121 -119h-83z" />
    <glyph glyph-name="uni040D" unicode="&#x40d;" horiz-adv-x="766" 
d="M598 636l-363 -636h-159v700h92v-636l364 636h158v-700h-92v636zM330 781l-121 119v14h117l87 -133h-83z" />
    <glyph glyph-name="uni040E" unicode="&#x40e;" horiz-adv-x="690" 
d="M119 0l173 265l-276 435h110l219 -351l220 351h109l-444 -700h-111zM468 889q0 -52 -34 -80.5t-88 -28.5t-88 28.5t-34 80.5q0 11 1 14h68l-1 -11q0 -22 15 -36t39 -14t39 14t15 36l-1 11h68q1 -3 1 -14z" />
    <glyph glyph-name="uni040F" unicode="&#x40f;" horiz-adv-x="665" 
d="M289 -110v110h-213v700h92v-616h330v616h92v-700h-214v-110h-87z" />
    <glyph glyph-name="uni0410" unicode="&#x410;" horiz-adv-x="739" 
d="M13 0l293 700h128l293 -700h-102l-72 178h-366l-73 -178h-101zM220 262h299l-149 365z" />
    <glyph glyph-name="uni0411" unicode="&#x411;" horiz-adv-x="690" 
d="M76 0v700h484v-87h-392v-210h249q99 0 162.5 -55t63.5 -146t-63.5 -146.5t-162.5 -55.5h-341zM168 87h245q59 0 96.5 31.5t37.5 83.5q0 51 -37 82.5t-97 31.5h-245v-229z" />
    <glyph glyph-name="uni0412" unicode="&#x412;" horiz-adv-x="688" 
d="M76 0v700h317q98 0 160 -52t62 -130q0 -51 -28.5 -93t-76.5 -64q130 -43 130 -172q0 -81 -65 -135t-161 -54h-338zM168 401h229q59 0 93 28.5t34 79.5q0 48 -36 76t-91 28h-229v-212zM168 87h243q58 0 95.5 31.5t37.5 82.5t-37 84.5t-96 33.5h-243v-232z" />
    <glyph glyph-name="uni0413" unicode="&#x413;" horiz-adv-x="613" 
d="M583 613h-415v-613h-92v700h507v-87z" />
    <glyph glyph-name="uni0414" unicode="&#x414;" horiz-adv-x="695" 
d="M29 -110v194h61q40 57 60 111t24 112q6 58 6 155v238h412v-616h74v-194h-86v110h-465v-110h-86zM196 84h304v532h-231v-158q0 -133 -15 -217t-58 -157z" />
    <glyph glyph-name="uni0415" unicode="&#x415;" horiz-adv-x="633" 
d="M76 700h493v-87h-401v-207h371v-87h-371v-232h411v-87h-503v700z" />
    <glyph glyph-name="uni0416" unicode="&#x416;" horiz-adv-x="1003" 
d="M633 365l353 -365h-125l-313 324v-324h-92v324l-314 -324h-125l353 365l-336 335h120l302 -304v304h92v-304l301 304h120z" />
    <glyph glyph-name="uni0417" unicode="&#x417;" horiz-adv-x="582" 
d="M43 197l85 35q10 -73 52 -114t114 -41q67 0 106.5 29.5t39.5 85.5t-35 87t-94 31h-36v86h33q58 0 90 28.5t32 82.5q0 56 -36 86t-102 30q-57 0 -95 -32.5t-51 -92.5l-83 37q16 75 79 125q62 50 153 50q105 0 166 -52.5t61 -145.5q0 -59 -29.5 -99t-81.5 -58
q54 -12 87.5 -54.5t33.5 -104.5q0 -98 -67 -152t-174 -54q-103 0 -167.5 56.5t-80.5 150.5z" />
    <glyph glyph-name="uni0418" unicode="&#x418;" horiz-adv-x="766" 
d="M598 636l-363 -636h-159v700h92v-636l364 636h158v-700h-92v636z" />
    <glyph glyph-name="uni0419" unicode="&#x419;" horiz-adv-x="766" 
d="M598 636l-363 -636h-159v700h92v-636l364 636h158v-700h-92v636zM493 889q0 -52 -34 -80.5t-88 -28.5t-88 28.5t-34 80.5q0 11 1 14h68l-1 -11q0 -22 15 -36t39 -14t39 14t15 36l-1 11h68q1 -3 1 -14z" />
    <glyph glyph-name="uni041A" unicode="&#x41a;" horiz-adv-x="623" 
d="M76 0v700h92v-304l301 304h120l-336 -335l353 -365h-125l-313 324v-324h-92z" />
    <glyph glyph-name="uni041B" unicode="&#x41b;" horiz-adv-x="695" 
d="M29 0v12q32 59 45 134q15 76 15 199v355h530v-700h-92v616h-346v-261q0 -241 -55 -355h-97z" />
    <glyph glyph-name="uni041C" unicode="&#x41c;" horiz-adv-x="942" 
d="M867 0h-92v651l-234 -651h-140l-233 651v-651h-92v700h170l225 -631l225 631h171v-700z" />
    <glyph glyph-name="uni041D" unicode="&#x41d;" horiz-adv-x="737" 
d="M569 303h-401v-303h-92v700h92v-313h401v313h92v-700h-92v303z" />
    <glyph glyph-name="uni041E" unicode="&#x41e;" horiz-adv-x="812" 
d="M406 710q151 3 257.5 -104.5t104.5 -255.5q2 -149 -104.5 -256t-257.5 -104q-151 -3 -257 104t-104 256q-2 148 104 255.5t257 104.5zM406 77q113 0 189 76t76 197t-75 197t-190 76t-190 -76t-75 -198q0 -121 75.5 -196.5t189.5 -75.5z" />
    <glyph glyph-name="uni041F" unicode="&#x41f;" horiz-adv-x="737" 
d="M569 616h-401v-616h-92v700h585v-700h-92v616z" />
    <glyph glyph-name="uni0420" unicode="&#x420;" horiz-adv-x="658" 
d="M168 288v-288h-92v700h309q105 0 166 -58.5t61 -147.5q0 -86 -62 -146t-165 -60h-217zM168 375h209q63 0 100.5 31.5t37.5 87.5t-37.5 87.5t-100.5 31.5h-209v-238z" />
    <glyph glyph-name="uni0421" unicode="&#x421;" horiz-adv-x="777" 
d="M141 350q0 -128 70.5 -202t183.5 -74q116 0 180 61t87 163l81 -33q-28 -124 -119 -199.5t-229 -75.5q-156 -1 -254 102t-96 258q-2 151 100.5 257t249.5 103q129 0 205 -66q78 -66 105 -167l-84 -38q-18 86 -77 136.5t-149 50.5q-109 0 -181.5 -76t-72.5 -200z" />
    <glyph glyph-name="uni0422" unicode="&#x422;" horiz-adv-x="672" 
d="M641 700v-87h-259v-613h-92v613h-259v87h610z" />
    <glyph glyph-name="uni0423" unicode="&#x423;" horiz-adv-x="690" 
d="M119 0l173 265l-276 435h110l219 -351l220 351h109l-444 -700h-111z" />
    <glyph glyph-name="uni0424" unicode="&#x424;" horiz-adv-x="819" 
d="M456 0h-92v80h-54q-114 -2 -190.5 77.5t-74.5 192.5q0 112 76 191t189 79h54v80h92v-80h53q113 0 189 -79t76 -191q2 -113 -74.5 -192.5t-190.5 -77.5h-53v-80zM321 167h43v366h-43q-84 0 -134 -50.5t-50 -132.5t50 -132.5t134 -50.5zM498 533h-42v-366h42q84 0 134 50.5
t50 132.5t-50 132.5t-134 50.5z" />
    <glyph glyph-name="uni0425" unicode="&#x425;" horiz-adv-x="674" 
d="M18 0l265 380l-225 320h112l167 -252l171 252h108l-225 -320l265 -380h-109l-210 308l-210 -308h-109z" />
    <glyph glyph-name="uni0426" unicode="&#x426;" horiz-adv-x="692" 
d="M577 -110v110h-501v700h92v-616h323v616h92v-616h81v-194h-87z" />
    <glyph glyph-name="uni0427" unicode="&#x427;" horiz-adv-x="680" 
d="M513 0v241q-73 -83 -205 -83q-110 0 -174.5 69t-64.5 181v292h92v-278q0 -86 44 -131.5t124 -45.5q101 0 184 101v354h92v-700h-92z" />
    <glyph glyph-name="uni0428" unicode="&#x428;" horiz-adv-x="922" 
d="M755 700h92v-700h-771v700h92v-616h247v616h92v-616h248v616z" />
    <glyph glyph-name="uni0429" unicode="&#x429;" horiz-adv-x="956" 
d="M841 -110v110h-765v700h92v-616h247v616h92v-616h248v616h92v-616h80v-194h-86z" />
    <glyph glyph-name="uni042A" unicode="&#x42a;" horiz-adv-x="787" 
d="M740 202q0 -91 -63.5 -146.5t-162.5 -55.5h-339v613h-144v87h236v-297h247q99 0 162.5 -55t63.5 -146zM643 202q0 52 -36.5 83t-96.5 31h-243v-229h243q59 0 96 31.5t37 83.5z" />
    <glyph glyph-name="uni042B" unicode="&#x42b;" horiz-adv-x="931" 
d="M76 0v700h92v-297h246q99 0 162.5 -54.5t63.5 -146.5t-63.5 -147t-162.5 -55h-338zM168 87h243q59 0 96 31.5t37 83.5t-36.5 83t-96.5 31h-243v-229zM764 0v700h92v-700h-92z" />
    <glyph glyph-name="uni042C" unicode="&#x42c;" horiz-adv-x="688" 
d="M76 0v700h92v-297h246q99 0 162.5 -54.5t63.5 -146.5t-63.5 -147t-162.5 -55h-338zM168 87h243q59 0 96 31.5t37 83.5t-36.5 83t-96.5 31h-243v-229z" />
    <glyph glyph-name="uni042D" unicode="&#x42d;" horiz-adv-x="777" 
d="M34 265l81 33q23 -105 89.5 -164.5t178.5 -59.5q103 0 174 62q70 61 81 173h-316v87h316q-13 105 -84.5 167.5t-170.5 62.5q-90 0 -149.5 -50.5t-77.5 -136.5l-84 38q29 102 106 167q80 66 208 66q150 2 249.5 -102t97.5 -258q0 -159 -95 -259.5t-256 -100.5
q-141 0 -230 76q-90 76 -118 199z" />
    <glyph glyph-name="uni042E" unicode="&#x42e;" horiz-adv-x="1092" 
d="M1048 350q2 -149 -104.5 -256t-257.5 -104q-139 -2 -241 89t-117 224h-160v-303h-92v700h92v-313h159q10 135 114 230t245 93q151 3 257.5 -104.5t104.5 -255.5zM951 350q0 121 -75 197t-190 76t-190 -76t-75 -198q0 -121 75.5 -196.5t189.5 -75.5q113 0 189 76t76 197z
" />
    <glyph glyph-name="uni042F" unicode="&#x42f;" horiz-adv-x="672" 
d="M47 0v14l237 282h-5q-103 0 -164.5 58t-61.5 150q0 84 61 140t162 56h320v-700h-92v296h-98l-248 -296h-111zM284 383h220v230h-220q-63 0 -98.5 -30t-35.5 -85q0 -54 35.5 -84.5t98.5 -30.5z" />
    <glyph glyph-name="uni0430" unicode="&#x430;" horiz-adv-x="515" 
d="M45 135q0 71 48 109t128 38q53 0 101 -15l43 -12v49q0 51 -32.5 79t-86.5 28q-51 0 -84 -26t-42 -72l-78 22q14 69 68 109t136 40q96 0 149 -49.5t53 -137.5v-297h-83v75q-18 -39 -62 -62t-101 -23q-66 0 -112 39q-45 41 -45 106zM365 177v10l-44 13q-50 15 -88 15
q-46 0 -72.5 -19.5t-26.5 -55.5q0 -34 25.5 -54t71.5 -20q60 0 97 30t37 81z" />
    <glyph glyph-name="uni0431" unicode="&#x431;" horiz-adv-x="559" 
d="M38 290q0 142 69 224q71 84 185 116q89 26 115.5 44.5t24.5 60.5h79l1 -16q0 -61 -44.5 -97.5t-134.5 -58.5q-93 -24 -142 -69.5t-64 -119.5q24 52 70.5 81t107.5 29q101 0 159 -71.5t58 -177.5q0 -104 -67 -174.5t-170 -70.5q-127 0 -187 85t-60 215zM433 235
q0 77 -43 123q-43 48 -109 48q-67 0 -110 -48t-43 -123q0 -74 43.5 -120.5t109.5 -46.5q67 0 109.5 46t42.5 121z" />
    <glyph glyph-name="uni0432" unicode="&#x432;" horiz-adv-x="528" 
d="M67 0v474h244q71 0 113 -34t42 -92q0 -36 -21.5 -65.5t-56.5 -40.5q43 -9 68 -37t25 -73q0 -57 -44 -95q-43 -37 -111 -37h-259zM153 278h157q33 0 51 15.5t18 43.5t-18 43.5t-51 15.5h-157v-118zM153 78h167q34 0 54 17t20 46t-19.5 45.5t-54.5 16.5h-167v-125z" />
    <glyph glyph-name="uni0433" unicode="&#x433;" horiz-adv-x="405" 
d="M67 0v474h318v-81h-232v-393h-86z" />
    <glyph glyph-name="uni0434" unicode="&#x434;" horiz-adv-x="566" 
d="M33 -110v188h45q33 65 44 121q11 60 11 143v132h344v-396h56v-188h-81v110h-338v-110h-81zM169 78h224v318h-176v-54q0 -84 -12 -144q-11 -58 -36 -120z" />
    <glyph glyph-name="uni0435" unicode="&#x435;" horiz-adv-x="522" 
d="M414 172l75 -29q-51 -153 -212 -153q-106 0 -172.5 68.5t-66.5 181.5q0 104 63 174t163 70q95 0 153 -55q58 -54 58 -147q0 -31 -6 -58h-343q1 -75 43.5 -116.5t107.5 -41.5q107 0 137 106zM126 286h263l1 14q0 50 -36 79t-91 29t-92.5 -33t-44.5 -89z" />
    <glyph glyph-name="uni0436" unicode="&#x436;" horiz-adv-x="711" 
d="M23 0l219 250l-210 224h109l171 -191v191h87v-191l171 191h108l-209 -224l218 -250h-107l-181 212v-212h-87v212l-181 -212h-108z" />
    <glyph glyph-name="uni0437" unicode="&#x437;" horiz-adv-x="452" 
d="M33 142l75 34q9 -51 39.5 -79.5t82.5 -28.5q45 0 71.5 19t26.5 54q0 29 -20.5 45t-56.5 16h-43v76h33q33 0 54.5 18t21.5 49t-22.5 47.5t-60.5 16.5q-78 0 -102 -86l-74 37q46 124 176 124q74 0 120.5 -36.5t46.5 -97.5q0 -41 -22.5 -70t-59.5 -39q93 -21 93 -108
q0 -63 -55 -103t-134 -40q-75 0 -126.5 42.5t-63.5 109.5z" />
    <glyph glyph-name="uni0438" unicode="&#x438;" horiz-adv-x="576" 
d="M67 0v474h86v-390l224 390h133v-474h-87v390l-224 -390h-132z" />
    <glyph glyph-name="uni0439" unicode="&#x439;" horiz-adv-x="576" 
d="M67 0v474h86v-390l224 390h133v-474h-87v390l-224 -390h-132zM410 663q0 -52 -34 -80.5t-88 -28.5t-88 28.5t-34 80.5q0 11 1 14h68l-1 -11q0 -22 15 -36t39 -14t39 14t15 36l-1 11h68q1 -3 1 -14z" />
    <glyph glyph-name="uni043A" unicode="&#x43a;" horiz-adv-x="467" 
d="M67 0v474h86v-191l171 191h111l-210 -224l219 -250h-110l-181 212v-212h-86z" />
    <glyph glyph-name="uni043B" unicode="&#x43b;" horiz-adv-x="522" 
d="M26 0v14q30 56 45 126q16 68 16 190v144h368v-474h-87v396h-194v-50q0 -137 -18 -215q-16 -77 -44 -131h-86z" />
    <glyph glyph-name="uni043C" unicode="&#x43c;" horiz-adv-x="702" 
d="M635 474v-474h-87v398l-137 -398h-121l-137 398v-398h-86v474h146l138 -401l138 401h146z" />
    <glyph glyph-name="uni043D" unicode="&#x43d;" horiz-adv-x="546" 
d="M153 474v-192h240v192h87v-474h-87v204h-240v-204h-86v474h86z" />
    <glyph glyph-name="uni043E" unicode="&#x43e;" horiz-adv-x="556" 
d="M38 237q0 106 67 176.5t173 70.5q107 0 174 -70.5t67 -176.5t-67.5 -176.5t-173.5 -70.5t-173 70.5t-67 176.5zM430 237q0 75 -43 121q-42 48 -109 48q-66 0 -109 -47.5t-43 -121.5t43 -121.5t109 -47.5q67 0 109.5 47t42.5 122z" />
    <glyph glyph-name="uni043F" unicode="&#x43f;" horiz-adv-x="541" 
d="M67 0v474h407v-474h-86v396h-235v-396h-86z" />
    <glyph glyph-name="uni0440" unicode="&#x440;" horiz-adv-x="573" 
d="M67 474h82v-89q24 43 70.5 71t99.5 28q96 0 156 -68.5t60 -178.5t-62.5 -178.5t-159.5 -68.5q-51 0 -93.5 22t-66.5 62v-272h-86v672zM299 67q62 0 106 45t44 124q0 78 -44 124t-106 46q-59 0 -104.5 -47.5t-45.5 -122.5t45.5 -122t104.5 -47z" />
    <glyph glyph-name="uni0441" unicode="&#x441;" horiz-adv-x="550" 
d="M285 66q127 0 157 142l77 -29q-20 -90 -81.5 -139.5t-150.5 -49.5q-112 0 -180.5 69t-68.5 181q0 105 70 174.5t168 69.5q86 0 144.5 -45t75.5 -126l-79 -24q-11 57 -48 88t-94 31q-60 0 -106.5 -45.5t-46.5 -122.5t48.5 -125.5t114.5 -48.5z" />
    <glyph glyph-name="uni0442" unicode="&#x442;" horiz-adv-x="415" 
d="M164 0v396h-149v78h385v-78h-149v-396h-87z" />
    <glyph glyph-name="uni0443" unicode="&#x443;" horiz-adv-x="481" 
d="M376 474h92l-304 -672h-92l117 259l-181 413h94l133 -312z" />
    <glyph glyph-name="uni0444" unicode="&#x444;" horiz-adv-x="893" 
d="M403 -198v265q-55 -77 -152 -77q-92 0 -152.5 69.5t-60.5 176.5q0 111 59.5 179.5t151.5 68.5q107 0 154 -85v301h87v-301q21 40 61.5 62.5t92.5 22.5q92 0 151.5 -68.5t59.5 -179.5q0 -107 -61 -176.5t-153 -69.5q-96 0 -151 77v-265h-87zM408 236q0 76 -41.5 122.5
t-100.5 46.5q-64 0 -103 -46t-39 -123q0 -78 39 -123.5t103 -45.5q59 0 100.5 46t41.5 123zM768 236q0 77 -39 123t-103 46q-59 0 -100 -46t-41 -123t41 -123t100 -46q64 0 103 45.5t39 123.5z" />
    <glyph glyph-name="uni0445" unicode="&#x445;" horiz-adv-x="468" 
d="M434 474l-152 -223l173 -251h-99l-122 183l-122 -183h-99l174 250l-154 224h101l100 -154l99 154h101z" />
    <glyph glyph-name="uni0446" unicode="&#x446;" horiz-adv-x="570" 
d="M456 -110v110h-389v474h86v-396h231v396h87v-396h66v-188h-81z" />
    <glyph glyph-name="uni0447" unicode="&#x447;" horiz-adv-x="547" 
d="M394 258v216h86v-474h-86v187q-54 -76 -164 -76q-77 0 -120 46t-43 124v193h86v-177q0 -54 27 -83t78 -29q78 0 136 73z" />
    <glyph glyph-name="uni0448" unicode="&#x448;" horiz-adv-x="780" 
d="M67 0v474h86v-396h194v396h86v-396h194v396h86v-474h-646z" />
    <glyph glyph-name="uni0449" unicode="&#x449;" horiz-adv-x="812" 
d="M698 -110v110h-631v474h86v-396h194v396h86v-396h194v396h86v-396h66v-188h-81z" />
    <glyph glyph-name="uni044A" unicode="&#x44a;" horiz-adv-x="576" 
d="M144 0v396h-125v78h212v-171h140q72 0 115 -42t43 -107t-43.5 -109.5t-114.5 -44.5h-227zM231 78h137q34 0 55.5 20.5t21.5 52.5q0 33 -21 53t-56 20h-137v-146z" />
    <glyph glyph-name="uni044B" unicode="&#x44b;" horiz-adv-x="719" 
d="M67 0v474h86v-171h141q72 0 115 -42t43 -107t-44 -109.5t-114 -44.5h-227zM153 78h137q35 0 56.5 20.5t21.5 52.5q0 33 -21.5 53t-56.5 20h-137v-146zM566 474h86v-474h-86v474z" />
    <glyph glyph-name="uni044C" unicode="&#x44c;" horiz-adv-x="499" 
d="M67 0v474h86v-171h141q72 0 115 -42t43 -107t-44 -109.5t-114 -44.5h-227zM153 78h137q35 0 56.5 20.5t21.5 52.5q0 33 -21.5 53t-56.5 20h-137v-146z" />
    <glyph glyph-name="uni044D" unicode="&#x44d;" horiz-adv-x="550" 
d="M513 240q0 -112 -68.5 -181t-181.5 -69q-90 0 -151 49.5t-80 139.5l77 29q27 -142 157 -142q60 0 104 36.5t56 99.5h-174v76h174q-10 63 -55 97q-43 33 -96 33q-57 0 -93.5 -31t-48.5 -88l-78 24q19 82 77 126.5t146 44.5q100 0 167.5 -68.5t67.5 -175.5z" />
    <glyph glyph-name="uni044E" unicode="&#x44e;" horiz-adv-x="753" 
d="M715 236q0 -107 -67 -176.5t-173 -69.5q-98 0 -164 60t-75 154h-83v-204h-86v474h86v-192h85q14 90 78 145q64 57 159 57q106 0 173 -70.5t67 -177.5zM627 236q0 74 -43 122t-109 48q-67 0 -110 -48t-43 -122q0 -75 43 -121.5t110 -46.5q66 0 109 46.5t43 121.5z" />
    <glyph glyph-name="uni044F" unicode="&#x44f;" horiz-adv-x="496" 
d="M33 10l147 180q-62 0 -102 40q-41 41 -41 102q0 63 41.5 102.5t113.5 39.5h237v-474h-86v190h-60l-157 -190h-93v10zM343 265v131h-145q-36 0 -55.5 -18t-19.5 -49q0 -30 19.5 -47t55.5 -17h145z" />
    <glyph glyph-name="uni0450" unicode="&#x450;" horiz-adv-x="522" 
d="M414 172l75 -29q-51 -153 -212 -153q-106 0 -172.5 68.5t-66.5 181.5q0 104 63 174t163 70q95 0 153 -55q58 -54 58 -147q0 -31 -6 -58h-343q1 -75 43.5 -116.5t107.5 -41.5q107 0 137 106zM126 286h263l1 14q0 50 -36 79t-91 29t-92.5 -33t-44.5 -89zM222 555l-121 119
v14h117l87 -133h-83z" />
    <glyph glyph-name="uni0451" unicode="&#x451;" horiz-adv-x="522" 
d="M414 172l75 -29q-51 -153 -212 -153q-106 0 -172.5 68.5t-66.5 181.5q0 104 63 174t163 70q95 0 153 -55q58 -54 58 -147q0 -31 -6 -58h-343q1 -75 43.5 -116.5t107.5 -41.5q107 0 137 106zM126 286h263l1 14q0 50 -36 79t-91 29t-92.5 -33t-44.5 -89zM131 567v99h97v-99
h-97zM298 567v99h97v-99h-97z" />
    <glyph glyph-name="uni0452" unicode="&#x452;" horiz-adv-x="555" 
d="M489 307v-383q0 -63 -34 -97.5t-93 -34.5q-51 0 -87 26.5t-43 71.5l81 25q7 -44 49 -44q40 0 40 48v368q0 60 -29.5 91.5t-83.5 31.5q-58 0 -97 -46.5t-39 -118.5v-245h-86v561h-67v70h67v69h86v-69h152v-70h-152v-187q20 51 64.5 80.5t102.5 29.5q78 0 123.5 -48
t45.5 -129z" />
    <glyph glyph-name="uni0453" unicode="&#x453;" horiz-adv-x="405" 
d="M67 0v474h318v-81h-232v-393h-86zM185 555l87 133h117v-14l-121 -119h-83z" />
    <glyph glyph-name="uni0454" unicode="&#x454;" horiz-adv-x="551" 
d="M37 240q0 107 67.5 175.5t167.5 68.5q88 0 146 -44.5t77 -126.5l-78 -24q-12 57 -48.5 88t-93.5 31q-53 0 -96 -33q-45 -34 -55 -97h174v-76h-174q12 -63 56 -99.5t104 -36.5q130 0 157 142l77 -29q-19 -90 -80 -139.5t-151 -49.5q-113 0 -181.5 69t-68.5 181z" />
    <glyph glyph-name="uni0455" unicode="&#x455;" horiz-adv-x="472" 
d="M33 124l71 37q20 -50 53.5 -72.5t87.5 -22.5q47 0 74.5 19t27.5 50q0 35 -27.5 54.5t-97.5 28.5q-163 24 -163 136q0 57 48 93q49 37 123 37q126 0 171 -105l-67 -37q-24 72 -104 72q-40 0 -66 -17t-26 -44q0 -30 28.5 -46t98.5 -26q166 -22 166 -141q0 -65 -54.5 -107.5
t-135.5 -42.5q-79 0 -133 36t-75 98z" />
    <glyph glyph-name="uni0456" unicode="&#x456;" horiz-adv-x="220" 
d="M67 474h86v-474h-86v474zM62 562v101h96v-101h-96z" />
    <glyph glyph-name="uni0457" unicode="&#x457;" horiz-adv-x="220" 
d="M67 474h86v-474h-86v474zM-23 567v99h97v-99h-97zM144 567v99h97v-99h-97z" />
    <glyph glyph-name="uni0458" unicode="&#x458;" horiz-adv-x="220" 
d="M67 -198v672h86v-672h-86zM62 562v101h96v-101h-96z" />
    <glyph glyph-name="uni0459" unicode="&#x459;" horiz-adv-x="779" 
d="M26 0v14q30 56 45 126q16 68 16 190v144h347v-171h141q71 0 114 -42t43 -107t-43 -109.5t-114 -44.5h-228v396h-173v-50q0 -137 -18 -215q-16 -77 -44 -131h-86zM434 78h137q34 0 56 20.5t22 52.5q0 33 -21.5 53t-56.5 20h-137v-146z" />
    <glyph glyph-name="uni045A" unicode="&#x45a;" horiz-adv-x="806" 
d="M67 0v474h86v-192h225v192h86v-192h140q72 0 114 -38.5t42 -102.5q0 -65 -41.5 -103t-114.5 -38h-226v204h-225v-204h-86zM464 78h137q36 0 55.5 16.5t19.5 46.5t-19.5 46.5t-55.5 16.5h-137v-126z" />
    <glyph glyph-name="uni045B" unicode="&#x45b;" horiz-adv-x="555" 
d="M153 0h-86v700h86v-326q20 51 64.5 80.5t102.5 29.5q78 0 123.5 -48t45.5 -129v-307h-87v287q0 60 -29.5 91.5t-83.5 31.5q-58 0 -97 -46.5t-39 -118.5v-245zM0 631h305v-70h-305v70z" />
    <glyph glyph-name="uni045C" unicode="&#x45c;" horiz-adv-x="467" 
d="M67 0v474h86v-191l171 191h111l-210 -224l219 -250h-110l-181 212v-212h-86zM192 555l87 133h117v-14l-121 -119h-83z" />
    <glyph glyph-name="uni045D" unicode="&#x45d;" horiz-adv-x="576" 
d="M67 0v474h86v-390l224 390h133v-474h-87v390l-224 -390h-132zM246 555l-121 119v14h117l87 -133h-83z" />
    <glyph glyph-name="uni045E" unicode="&#x45e;" horiz-adv-x="481" 
d="M376 474h92l-304 -672h-92l117 259l-181 413h94l133 -312zM357 663q0 -52 -34 -80.5t-88 -28.5t-88 28.5t-34 80.5q0 11 1 14h68l-1 -11q0 -22 15 -36t39 -14t39 14t15 36l-1 11h68q1 -3 1 -14z" />
    <glyph glyph-name="uni045F" unicode="&#x45f;" horiz-adv-x="540" 
d="M230 -110v110h-163v474h86v-396h234v396h87v-474h-163v-110h-81z" />
    <glyph glyph-name="uni0462" unicode="&#x462;" horiz-adv-x="757" 
d="M709 202q0 -92 -63.5 -147t-162.5 -55h-338v528h-142v75h142v97h92v-97h142v-75h-142v-125h246q99 0 162.5 -54.5t63.5 -146.5zM613 202q0 52 -36.5 83t-96.5 31h-243v-229h243q59 0 96 31.5t37 83.5z" />
    <glyph glyph-name="uni0463" unicode="&#x463;" horiz-adv-x="479" 
d="M432 189q0 -89 -57.5 -139t-152.5 -50h-155v526h-123v78h123v96h86v-96h160v-78h-160v-147h69q95 0 152.5 -50.5t57.5 -139.5zM340 189q0 53 -31.5 82t-90.5 29h-65v-222h65q59 0 90.5 29.5t31.5 81.5z" />
    <glyph glyph-name="uni0472" unicode="&#x472;" horiz-adv-x="812" 
d="M768 350q2 -149 -104.5 -256t-257.5 -104q-151 -3 -257 104t-104 256q-2 148 104 255.5t257 104.5q151 3 257.5 -104.5t104.5 -255.5zM143 390q55 45 132 45q42 0 73.5 -11.5t74.5 -37.5q65 -40 111 -40q83 0 132 60q-17 99 -89 158q-71 59 -171 59q-105 0 -177.5 -64
t-85.5 -169zM669 309q-56 -44 -131 -44q-43 0 -74 11t-75 38q-65 40 -110 40q-83 0 -133 -62q16 -98 88.5 -156.5t171.5 -58.5q103 0 176.5 63.5t86.5 168.5z" />
    <glyph glyph-name="uni0473" unicode="&#x473;" horiz-adv-x="556" 
d="M519 235q0 -106 -67.5 -175.5t-173.5 -69.5t-173 69.5t-67 175.5t67.5 177.5t172.5 71.5q107 0 174 -71t67 -178zM130 275q30 18 72 18q36 0 87 -24q48 -20 70 -20q41 0 67 26q-11 60 -51 95.5t-97 35.5t-97 -35.5t-51 -95.5zM427 200q-30 -18 -72 -18q-37 0 -87 24
q-43 21 -71 21q-43 0 -68 -28q11 -60 51 -95.5t98 -35.5t98.5 36t50.5 96z" />
    <glyph glyph-name="uni0474" unicode="&#x474;" horiz-adv-x="808" 
d="M300 0l-289 700h101l252 -629l223 555q38 94 123 94q80 0 106 -79l-74 -37q-7 28 -31 28t-38 -32l-245 -600h-128z" />
    <glyph glyph-name="uni0475" unicode="&#x475;" horiz-adv-x="556" 
d="M206 0l-187 474h91l149 -390l123 326q33 85 108 85q58 0 87 -54l-59 -53q-7 19 -27 19q-21 0 -29 -24l-151 -383h-105z" />
    <glyph glyph-name="uni0490" unicode="&#x490;" horiz-adv-x="613" 
d="M496 870h87v-257h-415v-613h-92v700h420v170z" />
    <glyph glyph-name="uni0491" unicode="&#x491;" horiz-adv-x="405" 
d="M299 585h86v-192h-232v-393h-86v474h232v111z" />
    <glyph glyph-name="uni0492" unicode="&#x492;" horiz-adv-x="655" 
d="M604 613h-415v-216h257v-78h-257v-319h-92v319h-79v78h79v303h507v-87z" />
    <glyph glyph-name="uni0493" unicode="&#x493;" horiz-adv-x="418" 
d="M401 393h-231v-123h119v-68h-119v-202h-87v202h-65v68h65v204h318v-81z" />
    <glyph glyph-name="uni0496" unicode="&#x496;" horiz-adv-x="1003" 
d="M633 365l353 -365h-125l-313 324v-324h-92v324l-314 -324h-125l353 365l-336 335h120l302 -304v304h92v-304l301 304h120zM905 -110v194h87v-194h-87z" />
    <glyph glyph-name="uni0497" unicode="&#x497;" horiz-adv-x="711" 
d="M23 0l219 250l-210 224h109l171 -191v191h87v-191l171 191h108l-209 -224l218 -250h-107l-181 212v-212h-87v212l-181 -212h-108zM624 -110v183h77v-183h-77z" />
    <glyph glyph-name="uni0498" unicode="&#x498;" horiz-adv-x="582" 
d="M43 197l85 35q10 -73 52 -114t114 -41q67 0 106.5 29.5t39.5 85.5t-35 87t-94 31h-36v86h33q58 0 90 28.5t32 82.5q0 56 -36 86t-102 30q-57 0 -95 -32.5t-51 -92.5l-83 37q16 75 79 125q62 50 153 50q105 0 166 -52.5t61 -145.5q0 -59 -29.5 -99t-81.5 -58
q54 -12 87.5 -54.5t33.5 -104.5q0 -98 -67 -152t-174 -54q-103 0 -167.5 56.5t-80.5 150.5zM266 -53q21 23 50 23q34 0 55.5 -21t21.5 -56q0 -38 -23.5 -59.5t-60.5 -21.5q-35 0 -59 17.5t-30 49.5l47 12q2 -15 13 -24.5t27 -9.5q18 0 29 10t11 26t-11 26.5t-29 10.5
q-26 0 -38 -21l-47 9q10 35 21 98h51q-16 -48 -28 -69z" />
    <glyph glyph-name="uni0499" unicode="&#x499;" horiz-adv-x="452" 
d="M33 142l75 34q9 -51 39.5 -79.5t82.5 -28.5q45 0 71.5 19t26.5 54q0 29 -20.5 45t-56.5 16h-43v76h33q33 0 54.5 18t21.5 49t-22.5 47.5t-60.5 16.5q-78 0 -102 -86l-74 37q46 124 176 124q74 0 120.5 -36.5t46.5 -97.5q0 -41 -22.5 -70t-59.5 -39q93 -21 93 -108
q0 -63 -55 -103t-134 -40q-75 0 -126.5 42.5t-63.5 109.5zM200 -53q21 23 50 23q34 0 55.5 -21t21.5 -56q0 -38 -23.5 -59.5t-60.5 -21.5q-35 0 -59 17.5t-30 49.5l47 12q2 -15 13 -24.5t27 -9.5q18 0 29 10t11 26t-11 26.5t-29 10.5q-26 0 -38 -21l-47 9q10 35 21 98h51
q-16 -48 -28 -69z" />
    <glyph glyph-name="uni049A" unicode="&#x49a;" horiz-adv-x="623" 
d="M76 0v700h92v-304l301 304h120l-336 -335l353 -365h-125l-313 324v-324h-92zM525 -110v194h87v-194h-87z" />
    <glyph glyph-name="uni049B" unicode="&#x49b;" horiz-adv-x="467" 
d="M67 0v474h86v-191l171 191h111l-210 -224l219 -250h-110l-181 212v-212h-86zM380 -110v183h77v-183h-77z" />
    <glyph glyph-name="uni04A0" unicode="&#x4a0;" horiz-adv-x="783" 
d="M412 365l353 -365h-125l-313 324v-324h-92v622h-204v78h296v-304l301 304h120z" />
    <glyph glyph-name="uni04A1" unicode="&#x4a1;" horiz-adv-x="534" 
d="M292 250l219 -250h-110l-181 212v-212h-86v404h-119v70h205v-191l171 191h111z" />
    <glyph glyph-name="uni04A2" unicode="&#x4a2;" horiz-adv-x="737" 
d="M569 303h-401v-303h-92v700h92v-313h401v313h92v-700h-92v303zM649 -110v194h87v-194h-87z" />
    <glyph glyph-name="uni04A3" unicode="&#x4a3;" horiz-adv-x="546" 
d="M153 474v-192h240v192h87v-474h-87v204h-240v-204h-86v474h86zM480 -110v183h77v-183h-77z" />
    <glyph glyph-name="uni04AA" unicode="&#x4aa;" horiz-adv-x="777" 
d="M141 350q0 -128 70.5 -202t183.5 -74q116 0 180 61t87 163l81 -33q-28 -124 -119 -199.5t-229 -75.5q-156 -1 -254 102t-96 258q-2 151 100.5 257t249.5 103q129 0 205 -66q78 -66 105 -167l-84 -38q-18 86 -77 136.5t-149 50.5q-109 0 -181.5 -76t-72.5 -200zM364 -53
q21 23 50 23q34 0 55.5 -21t21.5 -56q0 -38 -23.5 -59.5t-60.5 -21.5q-35 0 -59 17.5t-30 49.5l47 12q2 -15 13 -24.5t27 -9.5q18 0 29 10t11 26t-11 26.5t-29 10.5q-26 0 -38 -21l-47 9q10 35 21 98h51q-16 -48 -28 -69z" />
    <glyph glyph-name="uni04AB" unicode="&#x4ab;" horiz-adv-x="550" 
d="M285 66q127 0 157 142l77 -29q-20 -90 -81.5 -139.5t-150.5 -49.5q-112 0 -180.5 69t-68.5 181q0 105 70 174.5t168 69.5q86 0 144.5 -45t75.5 -126l-79 -24q-11 57 -48 88t-94 31q-60 0 -106.5 -45.5t-46.5 -122.5t48.5 -125.5t114.5 -48.5zM256 -53q21 23 50 23
q34 0 55.5 -21t21.5 -56q0 -38 -23.5 -59.5t-60.5 -21.5q-35 0 -59 17.5t-30 49.5l47 12q2 -15 13 -24.5t27 -9.5q18 0 29 10t11 26t-11 26.5t-29 10.5q-26 0 -38 -21l-47 9q10 35 21 98h51q-16 -48 -28 -69z" />
    <glyph glyph-name="uni04AE" unicode="&#x4ae;" horiz-adv-x="672" 
d="M124 700l212 -331l218 331h105l-277 -412v-288h-92v288l-276 412h110z" />
    <glyph glyph-name="uni04AF" unicode="&#x4af;" horiz-adv-x="517" 
d="M216 -198v198l-197 474h91l149 -377l148 377h91l-196 -474v-198h-86z" />
    <glyph glyph-name="uni04B0" unicode="&#x4b0;" horiz-adv-x="672" 
d="M659 700l-230 -342h122v-70h-169v-288h-92v288h-168v70h121l-229 342h110l212 -331l218 331h105z" />
    <glyph glyph-name="uni04B1" unicode="&#x4b1;" horiz-adv-x="517" 
d="M498 474l-182 -441h86v-66h-100v-165h-86v165h-100v66h86l-183 441h91l149 -377l148 377h91z" />
    <glyph glyph-name="uni04B2" unicode="&#x4b2;" horiz-adv-x="674" 
d="M18 0l265 380l-225 320h112l167 -252l171 252h108l-225 -320l265 -380h-109l-210 308l-210 -308h-109zM590 -110v194h87v-194h-87z" />
    <glyph glyph-name="uni04B3" unicode="&#x4b3;" horiz-adv-x="468" 
d="M434 474l-152 -223l173 -251h-99l-122 183l-122 -183h-99l174 250l-154 224h101l100 -154l99 154h101zM389 -110v183h77v-183h-77z" />
    <glyph glyph-name="uni04B6" unicode="&#x4b6;" horiz-adv-x="680" 
d="M513 0v241q-73 -83 -205 -83q-110 0 -174.5 69t-64.5 181v292h92v-278q0 -86 44 -131.5t124 -45.5q101 0 184 101v354h92v-700h-92zM605 -110v194h87v-194h-87z" />
    <glyph glyph-name="uni04B7" unicode="&#x4b7;" horiz-adv-x="569" 
d="M394 258v216h86v-474h-86v187q-54 -76 -164 -76q-77 0 -120 46t-43 124v193h86v-177q0 -54 27 -83t78 -29q78 0 136 73zM480 -110v183h77v-183h-77z" />
    <glyph glyph-name="uni04BA" unicode="&#x4ba;" horiz-adv-x="680" 
d="M76 0v700h92v-241q73 83 204 83q112 0 176 -68.5t64 -181.5v-292h-92v278q0 86 -44 131.5t-124 45.5q-103 0 -184 -101v-354h-92z" />
    <glyph glyph-name="uni04BB" unicode="&#x4bb;" horiz-adv-x="555" 
d="M153 0h-86v700h86v-326q20 51 64.5 80.5t102.5 29.5q78 0 123.5 -48t45.5 -129v-307h-87v287q0 60 -29.5 91.5t-83.5 31.5q-58 0 -97 -46.5t-39 -118.5v-245z" />
    <glyph glyph-name="uni04C0" unicode="&#x4c0;" horiz-adv-x="243" 
d="M76 0v700h92v-700h-92z" />
    <glyph glyph-name="uni04C1" unicode="&#x4c1;" horiz-adv-x="1003" 
d="M633 365l353 -365h-125l-313 324v-324h-92v324l-314 -324h-125l353 365l-336 335h120l302 -304v304h92v-304l301 304h120zM624 889q0 -52 -34 -80.5t-88 -28.5t-88 28.5t-34 80.5q0 11 1 14h68l-1 -11q0 -22 15 -36t39 -14t39 14t15 36l-1 11h68q1 -3 1 -14z" />
    <glyph glyph-name="uni04C2" unicode="&#x4c2;" horiz-adv-x="711" 
d="M23 0l219 250l-210 224h109l171 -191v191h87v-191l171 191h108l-209 -224l218 -250h-107l-181 212v-212h-87v212l-181 -212h-108zM478 663q0 -52 -34 -80.5t-88 -28.5t-88 28.5t-34 80.5q0 11 1 14h68l-1 -11q0 -22 15 -36t39 -14t39 14t15 36l-1 11h68q1 -3 1 -14z" />
    <glyph glyph-name="uni04CF" unicode="&#x4cf;" horiz-adv-x="220" 
d="M67 0v700h86v-700h-86z" />
    <glyph glyph-name="uni04D0" unicode="&#x4d0;" horiz-adv-x="739" 
d="M13 0l293 700h128l293 -700h-102l-72 178h-366l-73 -178h-101zM220 262h299l-149 365zM492 889q0 -52 -34 -80.5t-88 -28.5t-88 28.5t-34 80.5q0 11 1 14h68l-1 -11q0 -22 15 -36t39 -14t39 14t15 36l-1 11h68q1 -3 1 -14z" />
    <glyph glyph-name="uni04D1" unicode="&#x4d1;" horiz-adv-x="515" 
d="M45 135q0 71 48 109t128 38q53 0 101 -15l43 -12v49q0 51 -32.5 79t-86.5 28q-51 0 -84 -26t-42 -72l-78 22q14 69 68 109t136 40q96 0 149 -49.5t53 -137.5v-297h-83v75q-18 -39 -62 -62t-101 -23q-66 0 -112 39q-45 41 -45 106zM365 177v10l-44 13q-50 15 -88 15
q-46 0 -72.5 -19.5t-26.5 -55.5q0 -34 25.5 -54t71.5 -20q60 0 97 30t37 81zM368 663q0 -52 -34 -80.5t-88 -28.5t-88 28.5t-34 80.5q0 11 1 14h68l-1 -11q0 -22 15 -36t39 -14t39 14t15 36l-1 11h68q1 -3 1 -14z" />
    <glyph glyph-name="uni04D2" unicode="&#x4d2;" horiz-adv-x="739" 
d="M13 0l293 700h128l293 -700h-102l-72 178h-366l-73 -178h-101zM220 262h299l-149 365zM238 793v99h97v-99h-97zM405 793v99h97v-99h-97z" />
    <glyph glyph-name="uni04D3" unicode="&#x4d3;" horiz-adv-x="515" 
d="M45 135q0 71 48 109t128 38q53 0 101 -15l43 -12v49q0 51 -32.5 79t-86.5 28q-51 0 -84 -26t-42 -72l-78 22q14 69 68 109t136 40q96 0 149 -49.5t53 -137.5v-297h-83v75q-18 -39 -62 -62t-101 -23q-66 0 -112 39q-45 41 -45 106zM365 177v10l-44 13q-50 15 -88 15
q-46 0 -72.5 -19.5t-26.5 -55.5q0 -34 25.5 -54t71.5 -20q60 0 97 30t37 81zM113 567v99h97v-99h-97zM280 567v99h97v-99h-97z" />
    <glyph glyph-name="uni04D4" unicode="&#x4d4;" horiz-adv-x="947" 
d="M524 87h369v-87h-461v178h-225l-92 -178h-102l363 700h507v-87h-359v-207h329v-87h-329v-232zM432 262v352l-182 -352h182z" />
    <glyph glyph-name="uni04D5" unicode="&#x4d5;" horiz-adv-x="844" 
d="M45 138q0 71 47 109.5t129 38.5h140v18q0 51 -32 79t-87 28q-50 0 -83 -24.5t-42 -68.5l-75 21q16 70 68 107.5t132 37.5q125 0 174 -84q28 39 73 61.5t98 22.5q94 0 152 -55q59 -54 59 -147q0 -22 -6 -58h-343q1 -75 43 -117t108 -42q107 0 137 107l74 -29
q-51 -153 -211 -153q-67 0 -118.5 30t-76.5 83q-60 -113 -198 -113q-72 0 -117 42t-45 106zM448 286h263q1 3 1 14q0 50 -36 79t-91 29t-92.5 -33t-44.5 -89zM361 187v33h-123q-49 0 -77.5 -21t-28.5 -59q0 -36 24.5 -55t69.5 -19q61 0 98 32.5t37 88.5z" />
    <glyph glyph-name="uni04D6" unicode="&#x4d6;" horiz-adv-x="633" 
d="M76 700h493v-87h-401v-207h371v-87h-371v-232h411v-87h-503v700zM428 889q0 -52 -34 -80.5t-88 -28.5t-88 28.5t-34 80.5q0 11 1 14h68l-1 -11q0 -22 15 -36t39 -14t39 14t15 36l-1 11h68q1 -3 1 -14z" />
    <glyph glyph-name="uni04D7" unicode="&#x4d7;" horiz-adv-x="522" 
d="M414 172l75 -29q-51 -153 -212 -153q-106 0 -172.5 68.5t-66.5 181.5q0 104 63 174t163 70q95 0 153 -55q58 -54 58 -147q0 -31 -6 -58h-343q1 -75 43.5 -116.5t107.5 -41.5q107 0 137 106zM126 286h263l1 14q0 50 -36 79t-91 29t-92.5 -33t-44.5 -89zM386 663
q0 -52 -34 -80.5t-88 -28.5t-88 28.5t-34 80.5q0 11 1 14h68l-1 -11q0 -22 15 -36t39 -14t39 14t15 36l-1 11h68q1 -3 1 -14z" />
    <glyph glyph-name="uni04D8" unicode="&#x4d8;" horiz-adv-x="721" 
d="M676 350q2 -152 -92 -257.5t-238 -102.5q-136 0 -222 83t-86 216q0 41 9 81h535q-6 117 -75 185t-174 68q-76 0 -131.5 -44.5t-79.5 -116.5l-88 34q34 99 112 156.5t188 57.5q152 0 247 -98.5t95 -261.5zM577 287h-436q-2 -22 -2 -25q0 -80 58.5 -132.5t150.5 -52.5
t153 56.5t76 153.5z" />
    <glyph glyph-name="uni04D9" unicode="&#x4d9;" horiz-adv-x="522" 
d="M108 302l-75 29q51 153 212 153q106 0 172.5 -68.5t66.5 -181.5q0 -104 -63 -174t-163 -70q-94 0 -153 54q-58 55 -58 148q0 31 6 58h343q-1 75 -43.5 116.5t-107.5 41.5q-107 0 -137 -106zM396 188h-263l-1 -14q0 -50 36 -79t91 -29t92.5 33t44.5 89z" />
    <glyph glyph-name="uni04DA" unicode="&#x4da;" horiz-adv-x="721" 
d="M676 350q2 -152 -92 -257.5t-238 -102.5q-136 0 -222 83t-86 216q0 41 9 81h535q-6 117 -75 185t-174 68q-76 0 -131.5 -44.5t-79.5 -116.5l-88 34q34 99 112 156.5t188 57.5q152 0 247 -98.5t95 -261.5zM577 287h-436q-2 -22 -2 -25q0 -80 58.5 -132.5t150.5 -52.5
t153 56.5t76 153.5zM201 793v99h97v-99h-97zM368 793v99h97v-99h-97z" />
    <glyph glyph-name="uni04DB" unicode="&#x4db;" horiz-adv-x="522" 
d="M108 302l-75 29q51 153 212 153q106 0 172.5 -68.5t66.5 -181.5q0 -104 -63 -174t-163 -70q-94 0 -153 54q-58 55 -58 148q0 31 6 58h343q-1 75 -43.5 116.5t-107.5 41.5q-107 0 -137 -106zM396 188h-263l-1 -14q0 -50 36 -79t91 -29t92.5 33t44.5 89zM125 567v99h97v-99
h-97zM292 567v99h97v-99h-97z" />
    <glyph glyph-name="uni04DC" unicode="&#x4dc;" horiz-adv-x="1003" 
d="M633 365l353 -365h-125l-313 324v-324h-92v324l-314 -324h-125l353 365l-336 335h120l302 -304v304h92v-304l301 304h120zM370 793v99h97v-99h-97zM537 793v99h97v-99h-97z" />
    <glyph glyph-name="uni04DD" unicode="&#x4dd;" horiz-adv-x="711" 
d="M23 0l219 250l-210 224h109l171 -191v191h87v-191l171 191h108l-209 -224l218 -250h-107l-181 212v-212h-87v212l-181 -212h-108zM223 567v99h97v-99h-97zM390 567v99h97v-99h-97z" />
    <glyph glyph-name="uni04DE" unicode="&#x4de;" horiz-adv-x="582" 
d="M43 197l85 35q10 -73 52 -114t114 -41q67 0 106.5 29.5t39.5 85.5t-35 87t-94 31h-36v86h33q58 0 90 28.5t32 82.5q0 56 -36 86t-102 30q-57 0 -95 -32.5t-51 -92.5l-83 37q16 75 79 125q62 50 153 50q105 0 166 -52.5t61 -145.5q0 -59 -29.5 -99t-81.5 -58
q54 -12 87.5 -54.5t33.5 -104.5q0 -98 -67 -152t-174 -54q-103 0 -167.5 56.5t-80.5 150.5zM164 793v99h97v-99h-97zM331 793v99h97v-99h-97z" />
    <glyph glyph-name="uni04DF" unicode="&#x4df;" horiz-adv-x="452" 
d="M33 142l75 34q9 -51 39.5 -79.5t82.5 -28.5q45 0 71.5 19t26.5 54q0 29 -20.5 45t-56.5 16h-43v76h33q33 0 54.5 18t21.5 49t-22.5 47.5t-60.5 16.5q-78 0 -102 -86l-74 37q46 124 176 124q74 0 120.5 -36.5t46.5 -97.5q0 -41 -22.5 -70t-59.5 -39q93 -21 93 -108
q0 -63 -55 -103t-134 -40q-75 0 -126.5 42.5t-63.5 109.5zM102 567v99h97v-99h-97zM269 567v99h97v-99h-97z" />
    <glyph glyph-name="uni04E2" unicode="&#x4e2;" horiz-adv-x="766" 
d="M598 636l-363 -636h-159v700h92v-636l364 636h158v-700h-92v636zM244 876h254v-69h-254v69z" />
    <glyph glyph-name="uni04E3" unicode="&#x4e3;" horiz-adv-x="576" 
d="M67 0v474h86v-390l224 390h133v-474h-87v390l-224 -390h-132zM160 650h254v-69h-254v69z" />
    <glyph glyph-name="uni04E4" unicode="&#x4e4;" horiz-adv-x="766" 
d="M598 636l-363 -636h-159v700h92v-636l364 636h158v-700h-92v636zM239 793v99h97v-99h-97zM406 793v99h97v-99h-97z" />
    <glyph glyph-name="uni04E5" unicode="&#x4e5;" horiz-adv-x="576" 
d="M67 0v474h86v-390l224 390h133v-474h-87v390l-224 -390h-132zM155 567v99h97v-99h-97zM322 567v99h97v-99h-97z" />
    <glyph glyph-name="uni04E6" unicode="&#x4e6;" horiz-adv-x="812" 
d="M406 710q151 3 257.5 -104.5t104.5 -255.5q2 -149 -104.5 -256t-257.5 -104q-151 -3 -257 104t-104 256q-2 148 104 255.5t257 104.5zM406 77q113 0 189 76t76 197t-75 197t-190 76t-190 -76t-75 -198q0 -121 75.5 -196.5t189.5 -75.5zM269 793v99h97v-99h-97zM436 793
v99h97v-99h-97z" />
    <glyph glyph-name="uni04E7" unicode="&#x4e7;" horiz-adv-x="556" 
d="M38 237q0 106 67 176.5t173 70.5q107 0 174 -70.5t67 -176.5t-67.5 -176.5t-173.5 -70.5t-173 70.5t-67 176.5zM430 237q0 75 -43 121q-42 48 -109 48q-66 0 -109 -47.5t-43 -121.5t43 -121.5t109 -47.5q67 0 109.5 47t42.5 122zM145 567v99h97v-99h-97zM312 567v99h97
v-99h-97z" />
    <glyph glyph-name="uni04E8" unicode="&#x4e8;" horiz-adv-x="812" 
d="M45 350q-2 148 104 255.5t257 104.5q151 3 257.5 -104.5t104.5 -255.5q2 -149 -104.5 -256t-257.5 -104q-151 -3 -257 104t-104 256zM144 389h524q-12 105 -84.5 169.5t-177.5 64.5t-177.5 -64t-84.5 -170zM668 311h-524q12 -106 85 -170t177 -64q103 0 176.5 64
t85.5 170z" />
    <glyph glyph-name="uni04E9" unicode="&#x4e9;" horiz-adv-x="556" 
d="M38 236q0 107 67 177.5t173 70.5q107 0 174 -70.5t67 -177.5q0 -106 -67.5 -176t-173.5 -70t-173 69.5t-67 176.5zM129 270h298q-9 62 -50 99t-99 37t-99 -37t-50 -99zM428 204h-299q9 -62 49.5 -99t99.5 -37t100 37t50 99z" />
    <glyph glyph-name="uni04EA" unicode="&#x4ea;" horiz-adv-x="812" 
d="M45 350q-2 148 104 255.5t257 104.5q151 3 257.5 -104.5t104.5 -255.5q2 -149 -104.5 -256t-257.5 -104q-151 -3 -257 104t-104 256zM144 389h524q-12 105 -84.5 169.5t-177.5 64.5t-177.5 -64t-84.5 -170zM668 311h-524q12 -106 85 -170t177 -64q103 0 176.5 64
t85.5 170zM274 793v99h97v-99h-97zM441 793v99h97v-99h-97z" />
    <glyph glyph-name="uni04EB" unicode="&#x4eb;" horiz-adv-x="556" 
d="M38 236q0 107 67 177.5t173 70.5q107 0 174 -70.5t67 -177.5q0 -106 -67.5 -176t-173.5 -70t-173 69.5t-67 176.5zM129 270h298q-9 62 -50 99t-99 37t-99 -37t-50 -99zM428 204h-299q9 -62 49.5 -99t99.5 -37t100 37t50 99zM145 567v99h97v-99h-97zM312 567v99h97v-99
h-97z" />
    <glyph glyph-name="uni04EC" unicode="&#x4ec;" horiz-adv-x="777" 
d="M34 265l81 33q23 -105 89.5 -164.5t178.5 -59.5q103 0 174 62q70 61 81 173h-316v87h316q-13 105 -84.5 167.5t-170.5 62.5q-90 0 -149.5 -50.5t-77.5 -136.5l-84 38q29 102 106 167q80 66 208 66q150 2 249.5 -102t97.5 -258q0 -159 -95 -259.5t-256 -100.5
q-141 0 -230 76q-90 76 -118 199zM254 793v99h97v-99h-97zM421 793v99h97v-99h-97z" />
    <glyph glyph-name="uni04ED" unicode="&#x4ed;" horiz-adv-x="550" 
d="M513 240q0 -112 -68.5 -181t-181.5 -69q-90 0 -151 49.5t-80 139.5l77 29q27 -142 157 -142q60 0 104 36.5t56 99.5h-174v76h174q-10 63 -55 97q-43 33 -96 33q-57 0 -93.5 -31t-48.5 -88l-78 24q19 82 77 126.5t146 44.5q100 0 167.5 -68.5t67.5 -175.5zM140 567v99h97
v-99h-97zM307 567v99h97v-99h-97z" />
    <glyph glyph-name="uni04EE" unicode="&#x4ee;" horiz-adv-x="690" 
d="M119 0l173 265l-276 435h110l219 -351l220 351h109l-444 -700h-111zM219 876h254v-69h-254v69z" />
    <glyph glyph-name="uni04EF" unicode="&#x4ef;" horiz-adv-x="481" 
d="M376 474h92l-304 -672h-92l117 259l-181 413h94l133 -312zM107 650h254v-69h-254v69z" />
    <glyph glyph-name="uni04F0" unicode="&#x4f0;" horiz-adv-x="690" 
d="M119 0l173 265l-276 435h110l219 -351l220 351h109l-444 -700h-111zM214 793v99h97v-99h-97zM381 793v99h97v-99h-97z" />
    <glyph glyph-name="uni04F1" unicode="&#x4f1;" horiz-adv-x="481" 
d="M376 474h92l-304 -672h-92l117 259l-181 413h94l133 -312zM102 567v99h97v-99h-97zM269 567v99h97v-99h-97z" />
    <glyph glyph-name="uni04F2" unicode="&#x4f2;" horiz-adv-x="690" 
d="M119 0l173 265l-276 435h110l219 -351l220 351h109l-444 -700h-111zM215 781l87 133h117v-14l-121 -119h-83zM394 781l87 133h117v-14l-121 -119h-83z" />
    <glyph glyph-name="uni04F3" unicode="&#x4f3;" horiz-adv-x="481" 
d="M376 474h92l-304 -672h-92l117 259l-181 413h94l133 -312zM104 555l87 133h117v-14l-121 -119h-83zM283 555l87 133h117v-14l-121 -119h-83z" />
    <glyph glyph-name="uni04F4" unicode="&#x4f4;" horiz-adv-x="680" 
d="M513 0v241q-73 -83 -205 -83q-110 0 -174.5 69t-64.5 181v292h92v-278q0 -86 44 -131.5t124 -45.5q101 0 184 101v354h92v-700h-92zM205 793v99h97v-99h-97zM372 793v99h97v-99h-97z" />
    <glyph glyph-name="uni04F5" unicode="&#x4f5;" horiz-adv-x="547" 
d="M394 258v216h86v-474h-86v187q-54 -76 -164 -76q-77 0 -120 46t-43 124v193h86v-177q0 -54 27 -83t78 -29q78 0 136 73zM140 567v99h97v-99h-97zM307 567v99h97v-99h-97z" />
    <glyph glyph-name="uni04F8" unicode="&#x4f8;" horiz-adv-x="931" 
d="M76 0v700h92v-297h246q99 0 162.5 -54.5t63.5 -146.5t-63.5 -147t-162.5 -55h-338zM168 87h243q59 0 96 31.5t37 83.5t-36.5 83t-96.5 31h-243v-229zM764 0v700h92v-700h-92zM313 793v99h97v-99h-97zM480 793v99h97v-99h-97z" />
    <glyph glyph-name="uni04F9" unicode="&#x4f9;" horiz-adv-x="719" 
d="M67 0v474h86v-171h141q72 0 115 -42t43 -107t-44 -109.5t-114 -44.5h-227zM153 78h137q35 0 56.5 20.5t21.5 52.5q0 33 -21.5 53t-56.5 20h-137v-146zM566 474h86v-474h-86v474zM227 567v99h97v-99h-97zM394 567v99h97v-99h-97z" />
    <glyph glyph-name="uni0527" unicode="&#x527;" horiz-adv-x="577" 
d="M153 0h-86v700h86v-326q20 51 64.5 80.5t102.5 29.5q78 0 123.5 -48t45.5 -129v-307h-87v287q0 60 -29.5 91.5t-83.5 31.5q-58 0 -97 -46.5t-39 -118.5v-245zM489 -110v183h77v-183h-77z" />
    <glyph glyph-name="uni0E3F" unicode="&#xe3f;" horiz-adv-x="685" 
d="M637 189q0 -83 -64.5 -136t-161.5 -53h-30v-98h-83v98h-222v700h222v98h83v-98h10q100 0 160.5 -50.5t60.5 -131.5q0 -51 -28.5 -93t-76.5 -64q130 -42 130 -172zM165 616v-215h133v215h-133zM397 616h-16v-215h16q59 0 93 28.5t34 79.5q0 50 -35.5 78.5t-91.5 28.5z
M165 84h133v235h-133v-235zM544 204q0 52 -36 83.5t-97 31.5h-30v-235h30q60 0 96.5 32.5t36.5 87.5z" />
    <glyph glyph-name="Wgrave" unicode="&#x1e80;" horiz-adv-x="988" 
d="M182 0l-169 700h97l149 -639l155 639h160l155 -639l149 639h97l-169 -700h-154l-158 641l-159 -641h-153zM453 781l-121 119v14h117l87 -133h-83z" />
    <glyph glyph-name="wgrave" unicode="&#x1e81;" horiz-adv-x="741" 
d="M102 474l111 -390l107 390h101l107 -390l111 390h85l-141 -474h-107l-105 364l-105 -364h-108l-141 474h85zM329 555l-121 119v14h117l87 -133h-83z" />
    <glyph glyph-name="Wacute" unicode="&#x1e82;" horiz-adv-x="988" 
d="M182 0l-169 700h97l149 -639l155 639h160l155 -639l149 639h97l-169 -700h-154l-158 641l-159 -641h-153zM453 781l87 133h117v-14l-121 -119h-83z" />
    <glyph glyph-name="wacute" unicode="&#x1e83;" horiz-adv-x="741" 
d="M102 474l111 -390l107 390h101l107 -390l111 390h85l-141 -474h-107l-105 364l-105 -364h-108l-141 474h85zM330 555l87 133h117v-14l-121 -119h-83z" />
    <glyph glyph-name="Wdieresis" unicode="&#x1e84;" horiz-adv-x="988" 
d="M182 0l-169 700h97l149 -639l155 639h160l155 -639l149 639h97l-169 -700h-154l-158 641l-159 -641h-153zM361 793v99h97v-99h-97zM528 793v99h97v-99h-97z" />
    <glyph glyph-name="wdieresis" unicode="&#x1e85;" horiz-adv-x="741" 
d="M102 474l111 -390l107 390h101l107 -390l111 390h85l-141 -474h-107l-105 364l-105 -364h-108l-141 474h85zM238 567v99h97v-99h-97zM405 567v99h97v-99h-97z" />
    <glyph glyph-name="uni1E9E" unicode="&#x1e9e;" horiz-adv-x="688" 
d="M195 116l80 46q37 -85 131 -85q61 0 101.5 38t40.5 101t-42 99q-40 36 -100 36q-62 0 -99 -37l-60 54l236 245h-162q-85 0 -122.5 -38t-37.5 -122v-453h-92v453q0 126 60.5 186.5t188.5 60.5h280v-87l-190 -194q8 4 31 4q85 0 143 -57.5t58 -149.5q0 -100 -66.5 -162.5
t-167.5 -62.5q-78 0 -131.5 33t-79.5 92z" />
    <glyph glyph-name="Ygrave" unicode="&#x1ef2;" horiz-adv-x="672" 
d="M124 700l212 -331l218 331h105l-277 -412v-288h-92v288l-276 412h110zM295 781l-121 119v14h117l87 -133h-83z" />
    <glyph glyph-name="ygrave" unicode="&#x1ef3;" horiz-adv-x="481" 
d="M376 474h92l-304 -672h-92l117 259l-181 413h94l133 -312zM193 555l-121 119v14h117l87 -133h-83z" />
    <glyph glyph-name="endash" unicode="&#x2013;" horiz-adv-x="641" 
d="M49 292h543v-78h-543v78z" />
    <glyph glyph-name="emdash" unicode="&#x2014;" horiz-adv-x="886" 
d="M49 292h788v-78h-788v78z" />
    <glyph glyph-name="quoteleft" unicode="&#x2018;" horiz-adv-x="222" 
d="M153 483h-105v133q0 84 94 84h32v-52h-35q-39 0 -39 -30t35 -30h18v-105z" />
    <glyph glyph-name="quoteright" unicode="&#x2019;" horiz-adv-x="222" 
d="M69 700h105v-132q0 -85 -94 -85h-32v53h34q40 0 40 29q0 30 -35 30h-18v105z" />
    <glyph glyph-name="quotesinglbase" unicode="&#x201a;" horiz-adv-x="222" 
d="M69 105h105v-133q0 -84 -94 -84h-32v52h34q40 0 40 30t-35 30h-18v105z" />
    <glyph glyph-name="quotedblleft" unicode="&#x201c;" horiz-adv-x="382" 
d="M48 483v133q0 84 94 84h32v-52h-35q-39 0 -39 -30t35 -30h18v-105h-105zM208 483v133q0 84 94 84h33v-52h-35q-39 0 -39 -30t34 -30h18v-105h-105z" />
    <glyph glyph-name="quotedblright" unicode="&#x201d;" horiz-adv-x="382" 
d="M48 483v53h34q40 0 40 29q0 30 -35 30h-18v105h105v-132q0 -85 -94 -85h-32zM208 483v53h35q39 0 39 29q0 30 -34 30h-18v105h105v-132q0 -85 -94 -85h-33z" />
    <glyph glyph-name="quotedblbase" unicode="&#x201e;" horiz-adv-x="393" 
d="M42 -112v52h35q39 0 39 30t-34 30h-18v105h104v-133q0 -84 -93 -84h-33zM203 -112v52h35q39 0 39 30t-35 30h-18v105h105v-133q0 -84 -94 -84h-32z" />
    <glyph glyph-name="dagger" unicode="&#x2020;" horiz-adv-x="400" 
d="M165 270v296h-112v69h112v121h71v-121h111v-69h-111v-296h-71z" />
    <glyph glyph-name="daggerdbl" unicode="&#x2021;" horiz-adv-x="400" 
d="M165 270v135h-112v69h112v92h-112v69h112v121h71v-121h111v-69h-111v-92h111v-69h-111v-135h-71z" />
    <glyph glyph-name="bullet" unicode="&#x2022;" horiz-adv-x="249" 
d="M66 349h117v-118h-117v118z" />
    <glyph glyph-name="ellipsis" unicode="&#x2026;" horiz-adv-x="616" 
d="M66 105h104v-105h-104v105zM256 105h104v-105h-104v105zM446 105h104v-105h-104v105z" />
    <glyph glyph-name="perthousand" unicode="&#x2030;" horiz-adv-x="1118" 
d="M38 533q0 77 49 127t127 50t127.5 -50.5t49.5 -126.5t-49.5 -126.5t-127.5 -50.5t-127 50t-49 127zM316 533q0 48 -28 78t-74 30q-45 0 -73 -30t-28 -78t28 -78t73 -30q46 0 74 30t28 78zM192 84l-51 52l499 478l51 -52zM449 167q0 76 49.5 126.5t127.5 50.5
q93 0 138 -79q47 79 139 79q78 0 127.5 -50.5t49.5 -126.5t-49.5 -126.5t-127.5 -50.5q-91 0 -139 79q-46 -79 -138 -79q-78 0 -127.5 50.5t-49.5 126.5zM727 167q0 48 -28 78t-73 30q-46 0 -74 -30t-28 -78t28 -78t74 -30q45 0 73 30t28 78zM1005 167q0 48 -28 78t-74 30
q-45 0 -73 -30t-28 -78t28 -78t73 -30q46 0 74 30t28 78z" />
    <glyph glyph-name="guilsinglleft" unicode="&#x2039;" horiz-adv-x="322" 
d="M253 90l-202 198v24l202 198h14v-96l-124 -107v-14l124 -107v-96h-14z" />
    <glyph glyph-name="guilsinglright" unicode="&#x203a;" horiz-adv-x="322" 
d="M56 90v96l124 107v14l-124 107v96h14l202 -198v-24l-202 -198h-14z" />
    <glyph glyph-name="uni203D" unicode="&#x203d;" horiz-adv-x="566" 
d="M224 175v448q-47 -15 -73 -51t-26 -88q0 -45 29 -88l-69 -43q-43 61 -43 130q0 86 49 144q50 60 133 77v46h84v-41q100 -6 157.5 -64.5t57.5 -138.5q0 -131 -113 -190q-39 -20 -59 -34q-43 -29 -43 -89v-18h-84zM352 370q46 22 66.5 53t20.5 78q0 54 -36.5 89.5
t-94.5 40.5v-296q11 18 44 35zM214 0v105h104v-105h-104z" />
    <glyph glyph-name="uni2042" unicode="&#x2042;" horiz-adv-x="926" 
d="M423 723h80v-71l-31 -96l86 61l67 22l24 -76l-67 -22h-104l83 -60l41 -57l-65 -46l-41 57l-33 100l-33 -100l-41 -57l-66 46l42 57l83 60h-105l-66 22l24 76l67 -22l86 -61l-31 96v71zM263 -23h-80v71l31 96l-86 -61l-67 -22l-24 76l66 22h105l-83 60l-42 57l66 46
l41 -57l33 -100l33 100l41 57l65 -46l-41 -57l-83 -60h104l67 -22l-24 -76l-67 22l-86 61l31 -96v-71zM743 -23h-80v71l31 96l-86 -61l-67 -22l-24 76l66 22h105l-83 60l-42 57l66 46l41 -57l33 -100l33 100l41 57l65 -46l-41 -57l-83 -60h104l67 -22l-24 -76l-67 22l-86 61
l31 -96v-71z" />
    <glyph glyph-name="fraction" unicode="&#x2044;" horiz-adv-x="142" 
d="M292 592l44 -43l-486 -464l-45 43z" />
    <glyph glyph-name="uni2051" unicode="&#x2051;" horiz-adv-x="446" 
d="M263 -23h-80v71l31 96l-86 -61l-67 -22l-24 76l66 22h105l-83 60l-42 57l66 46l41 -57l33 -100l33 100l41 57l65 -46l-41 -57l-83 -60h104l67 -22l-24 -76l-67 22l-86 61l31 -96v-71zM183 723h80v-71l-31 -96l86 61l67 22l24 -76l-67 -22h-104l83 -60l41 -57l-65 -46
l-41 57l-33 100l-33 -100l-41 -57l-66 46l42 57l83 60h-105l-66 22l24 76l67 -22l86 -61l-31 96v71z" />
    <glyph glyph-name="uni2055" unicode="&#x2055;" horiz-adv-x="800" 
d="M760 391v-82h-261l185 -185l-58 -58l-185 185v-261h-82v261l-185 -185l-58 58l185 185h-261v82h261l-185 185l58 58l185 -185v261h82v-261l185 185l58 -58l-185 -185h261z" />
    <glyph glyph-name="uni2070" unicode="&#x2070;" horiz-adv-x="367" 
d="M36 530q0 80 41.5 127t106.5 47t106.5 -47t41.5 -127t-41.5 -127t-106.5 -47t-106.5 47t-41.5 127zM269 530q0 56 -23.5 87t-61.5 31t-62 -31t-24 -87q0 -55 24 -86.5t62 -31.5t61.5 31t23.5 87z" />
    <glyph glyph-name="uni2074" unicode="&#x2074;" horiz-adv-x="300" 
d="M185 360v75h-160v64q38 37 54 77t16 102v22h61v-22q0 -118 -65 -186h94v103h61v-103h42v-57h-42v-75h-61z" />
    <glyph glyph-name="uni2075" unicode="&#x2075;" horiz-adv-x="316" 
d="M262 700v-56h-162q0 -45 -12 -90q25 36 80 36q49 0 80.5 -30t31.5 -81q0 -57 -33 -90t-90 -33q-49 0 -83.5 26.5t-40.5 73.5l60 14q11 -57 64 -57q29 0 45.5 17t16.5 45q0 27 -16.5 43.5t-45.5 16.5q-19 0 -35.5 -10t-22.5 -24l-62 17q15 100 15 182h210z" />
    <glyph glyph-name="uni2076" unicode="&#x2076;" horiz-adv-x="326" 
d="M36 531q0 77 35.5 125t98.5 48q99 0 116 -87l-52 -14q-10 48 -66 48q-33 0 -53.5 -29.5t-20.5 -82.5v-6q10 22 32.5 35.5t51.5 13.5q50 0 81 -30t31 -79q0 -51 -33.5 -84t-84.5 -33q-65 0 -100.5 47t-35.5 128zM232 470q0 27 -17.5 44t-44.5 17t-45 -17t-18 -44t18 -44
t45 -17t44.5 17t17.5 44z" />
    <glyph glyph-name="uni2077" unicode="&#x2077;" horiz-adv-x="282" 
d="M27 700h228v-51q-53 -40 -79.5 -89.5t-26.5 -120.5q0 -37 6 -79h-61q-5 37 -5 69q0 131 90 215h-152v56z" />
    <glyph glyph-name="uni2078" unicode="&#x2078;" horiz-adv-x="316" 
d="M32 462q0 65 64 88q-45 22 -45 68q0 38 29.5 62t77.5 24t77.5 -24t29.5 -62q0 -46 -45 -68q64 -23 64 -88q0 -46 -34 -76t-92 -30t-92 30t-34 76zM210 615q0 42 -52 42q-53 0 -53 -42q0 -20 14.5 -31t38.5 -11t38 11t14 31zM224 466q0 26 -18 41t-48 15t-48 -15t-18 -41
t18.5 -41t47.5 -15t47.5 15t18.5 41z" />
    <glyph glyph-name="uni2079" unicode="&#x2079;" horiz-adv-x="329" 
d="M36 452l50 16q13 -59 72 -59q77 0 77 116v6q-22 -49 -83 -49q-50 0 -80.5 30t-30.5 76q0 53 33 84.5t85 31.5q65 0 99.5 -45t34.5 -126q0 -80 -35.5 -128.5t-99.5 -48.5q-50 0 -82.5 26.5t-39.5 69.5zM223 592q0 27 -17.5 43t-44.5 16t-44.5 -16t-17.5 -43t17.5 -43
t44.5 -16t44.5 16.5t17.5 42.5z" />
    <glyph glyph-name="uni2080" unicode="&#x2080;" horiz-adv-x="367" 
d="M36 -28q0 80 41.5 127t106.5 47t106.5 -47t41.5 -127t-41.5 -127t-106.5 -47t-106.5 47t-41.5 127zM269 -28q0 56 -23.5 87t-61.5 31t-62 -31t-24 -87q0 -55 24 -86.5t62 -31.5t61.5 31t23.5 87z" />
    <glyph glyph-name="uni2081" unicode="&#x2081;" horiz-adv-x="211" 
d="M108 -198v254q-23 -48 -83 -53l-9 65q82 6 97 74h56v-340h-61z" />
    <glyph glyph-name="uni2082" unicode="&#x2082;" horiz-adv-x="295" 
d="M26 40q0 47 33.5 76.5t85.5 29.5q57 0 88.5 -28t31.5 -77q-1 -33 -14 -56.5t-27 -34.5t-49 -33q-31 -20 -44 -31.5t-19 -27.5h154v-56h-236q0 53 23 86.5t72 61.5q45 24 61.5 42.5t16.5 45.5q0 24 -15.5 38t-44.5 14q-25 0 -41 -14t-16 -35q0 -23 14 -37l-48 -32
q-26 29 -26 68z" />
    <glyph glyph-name="uni2083" unicode="&#x2083;" horiz-adv-x="309" 
d="M27 -103l57 27q4 -31 22.5 -49t48.5 -18q26 0 43.5 16.5t17.5 42.5q0 27 -16 43.5t-42 16.5q-24 0 -40 -13l-35 43l95 79h-133v57h216v-49l-83 -71h7q36 0 64.5 -29t28.5 -76q0 -53 -34.5 -86t-88.5 -33q-53 0 -86 26.5t-42 72.5z" />
    <glyph glyph-name="uni2084" unicode="&#x2084;" horiz-adv-x="300" 
d="M185 -198v75h-160v64q38 37 54 77t16 102v22h61v-22q0 -118 -65 -186h94v103h61v-103h42v-57h-42v-75h-61z" />
    <glyph glyph-name="uni2085" unicode="&#x2085;" horiz-adv-x="316" 
d="M262 142v-56h-162q0 -45 -12 -90q25 36 80 36q49 0 80.5 -30t31.5 -81q0 -57 -33 -90t-90 -33q-49 0 -83.5 26.5t-40.5 73.5l60 14q11 -57 64 -57q29 0 45.5 17t16.5 45q0 27 -16.5 43.5t-45.5 16.5q-19 0 -35.5 -10t-22.5 -24l-62 17q15 101 15 182h210z" />
    <glyph glyph-name="uni2086" unicode="&#x2086;" horiz-adv-x="326" 
d="M36 -27q0 77 35.5 125t98.5 48q99 0 116 -87l-52 -14q-10 48 -66 48q-33 0 -53.5 -29.5t-20.5 -82.5v-6q10 22 32.5 35.5t51.5 13.5q50 0 81 -30t31 -79q0 -51 -33.5 -84t-84.5 -33q-65 0 -100.5 47t-35.5 128zM232 -88q0 27 -17.5 44t-44.5 17t-45 -17t-18 -44t18 -44
t45 -17t44.5 17t17.5 44z" />
    <glyph glyph-name="uni2087" unicode="&#x2087;" horiz-adv-x="282" 
d="M27 142h228v-51q-53 -40 -79.5 -89.5t-26.5 -120.5q0 -37 6 -79h-61q-5 37 -5 69q0 131 90 215h-152v56z" />
    <glyph glyph-name="uni2088" unicode="&#x2088;" horiz-adv-x="316" 
d="M32 -96q0 65 64 88q-45 22 -45 68q0 38 29.5 62t77.5 24t77.5 -24t29.5 -62q0 -46 -45 -68q64 -23 64 -88q0 -46 -34 -76t-92 -30t-92 30t-34 76zM210 57q0 42 -52 42q-53 0 -53 -42q0 -20 14.5 -31t38.5 -11t38 11t14 31zM224 -92q0 26 -18 41t-48 15t-48 -15t-18 -41
t18.5 -41t47.5 -15t47.5 15t18.5 41z" />
    <glyph glyph-name="uni2089" unicode="&#x2089;" horiz-adv-x="329" 
d="M36 -106l50 16q13 -59 72 -59q77 0 77 116v6q-22 -49 -83 -49q-50 0 -80.5 30t-30.5 76q0 53 33 84.5t85 31.5q65 0 99.5 -45t34.5 -126q0 -80 -35.5 -128.5t-99.5 -48.5q-50 0 -82.5 26.5t-39.5 69.5zM223 34q0 27 -17.5 43t-44.5 16t-44.5 -16t-17.5 -43t17.5 -43
t44.5 -16t44.5 16.5t17.5 42.5z" />
    <glyph glyph-name="franc" unicode="&#x20a3;" horiz-adv-x="627" 
d="M576 616h-397v-231h367v-84h-367v-97h152v-79h-152v-125h-89v125h-82v79h82v496h486v-84z" />
    <glyph glyph-name="lira" unicode="&#x20a4;" horiz-adv-x="630" 
d="M524 141l77 -41q-47 -110 -164 -110q-83 0 -146 66q-40 -66 -121 -66q-59 0 -92.5 32t-33.5 84q0 50 34.5 82.5t88.5 32.5q46 0 83 -23q-3 26 -18 58h-150v78h99q-27 35 -38 55h-91v79h61q-4 15 -4 41q0 90 64.5 145.5t159.5 55.5q92 0 150.5 -49.5t70.5 -134.5l-89 -27
q-8 61 -42 94t-90 33q-59 0 -95.5 -33t-36.5 -94q0 -16 3 -31h180v-79h-146l14 -20l23 -35h139v-78h-101q11 -36 11 -73q0 -28 -4 -47q34 -34 57.5 -48t54.5 -14q66 0 92 67zM241 110q-33 33 -68 33q-24 0 -38.5 -12.5t-14.5 -31.5t14 -31t38 -12q49 0 69 54z" />
    <glyph glyph-name="uni20A9" unicode="&#x20a9;" horiz-adv-x="921" 
d="M908 397v-78h-110l-61 -319h-146l-67 319h-128l-66 -319h-146l-61 319h-110v78h95l-58 303h92l58 -303h128l62 303h140l63 -303h128l58 303h91l-58 -303h96zM412 397h96l-48 229zM261 74l50 245h-97zM660 74l47 245h-98z" />
    <glyph glyph-name="dong" unicode="&#x20ab;" horiz-adv-x="599" 
d="M588 630v-76h-81v-554h-85v85q-53 -95 -162 -95q-98 0 -160 67.5t-62 176.5q0 110 61.5 180t158.5 70q55 0 98 -26t64 -70v166h-166v76h166v70h87v-70h81zM424 235q0 75 -45.5 123t-104.5 48q-62 0 -106 -46.5t-44 -124.5q0 -77 44 -122.5t106 -45.5q59 0 104.5 46
t45.5 122zM66 -158v76h441v-76h-441z" />
    <glyph glyph-name="Euro" unicode="&#x20ac;" horiz-adv-x="834" 
d="M719 298l82 -33q-29 -123 -119 -199q-89 -76 -230 -76q-127 0 -215 67q-89 68 -120 179h-99v78h85q-1 8 -1 36q0 4 2 36h-86v78h100q33 111 123.5 178.5t210.5 67.5q128 0 205 -66q78 -66 105 -167l-84 -38q-18 86 -77 136.5t-149 50.5q-81 0 -145 -43t-93 -119h246v-78
h-264q-2 -32 -2 -36t2 -36h264v-78h-248q27 -77 90.5 -119.5t149.5 -42.5q116 0 180 61t87 163z" />
    <glyph glyph-name="uni20AE" unicode="&#x20ae;" horiz-adv-x="669" 
d="M638 616h-259v-153l84 44l36 -72l-120 -63v-63l84 44l36 -72l-120 -63v-218h-89v172l-86 -45l-36 72l122 64v63l-86 -45l-36 72l122 64v199h-259v84h607v-84z" />
    <glyph glyph-name="uni20B4" unicode="&#x20b4;" horiz-adv-x="667" 
d="M572 443h65v-78h-605v78h433q39 30 39 82q0 44 -39.5 72.5t-99.5 28.5q-127 0 -175 -116l-78 41q33 78 98 118.5t155 40.5q104 0 167 -50t63 -130q0 -49 -23 -87zM32 236v79h605v-79h-428q-13 -19 -13 -49q0 -51 45 -82t118 -31q64 0 107.5 24t77.5 77l69 -53
q-85 -132 -256 -132q-112 0 -182.5 54.5t-70.5 141.5q0 26 8 50h-80z" />
    <glyph glyph-name="uni20B8" unicode="&#x20b8;" horiz-adv-x="660" 
d="M31 619v81h598v-81h-598zM285 0v476h-254v81h598v-81h-254v-476h-90z" />
    <glyph glyph-name="uni20B9" unicode="&#x20b9;" horiz-adv-x="557" 
d="M520 619h-98q26 -36 34 -82h64v-78h-64q-17 -91 -93 -134q49 -21 72.5 -59.5t24.5 -106.5q2 -65 8.5 -94t26.5 -51v-14h-105q-23 45 -24 160q-1 74 -35 105t-105 31h-177v87h179q105 0 128 76h-307v78h307q-23 76 -128 76h-179v87h471v-81z" />
    <glyph glyph-name="uni20BA" unicode="&#x20ba;" horiz-adv-x="640" 
d="M605 232q0 -106 -64.5 -169t-180.5 -63h-218v197l-79 -41l-36 72l115 60v76l-79 -41l-36 72l115 60v245h90v-198l90 47l36 -72l-126 -66v-76l90 47l36 -72l-126 -66v-160h127q72 0 115 39t43 102q0 52 -31 92l79 42q40 -55 40 -127z" />
    <glyph glyph-name="uni20BD" unicode="&#x20bd;" horiz-adv-x="676" 
d="M630 494q0 -86 -62 -146t-165 -60h-215v-86h162v-78h-162v-124h-89v124h-91v78h91v498h304q105 0 166 -58.5t61 -147.5zM536 494q0 57 -37.5 89.5t-101.5 32.5h-209v-244h209q64 0 101.5 32.5t37.5 89.5z" />
    <glyph glyph-name="uni2113" unicode="&#x2113;" horiz-adv-x="571" 
d="M390 204l77 -14q-16 -94 -68.5 -147t-130.5 -53q-72 0 -116.5 46t-54.5 127l-56 -11l-13 74q29 4 67 13q2 120 44.5 230t110 177t140.5 64q134 0 134 -143q0 -119 -95.5 -222t-250.5 -158q4 -57 29 -89.5t63 -32.5q45 0 77 36.5t43 102.5zM179 265q122 45 192 126.5
t70 175.5q0 68 -55 68q-46 2 -92.5 -50t-77.5 -139t-37 -181z" />
    <glyph glyph-name="uni2116" unicode="&#x2116;" horiz-adv-x="1305" 
d="M787 463q0 106 67 176.5t173 70.5q107 0 174 -70.5t67 -176.5t-67.5 -176.5t-173.5 -70.5t-173 70.5t-67 176.5zM168 636v-636h-92v700h158l364 -636v636h92v-700h-159zM1179 463q0 75 -43 121q-42 48 -109 48q-66 0 -109 -47.5t-43 -121.5t43 -121.5t109 -47.5
q67 0 109.5 47t42.5 122zM819 78h416v-78h-416v78z" />
    <glyph glyph-name="uni2117" unicode="&#x2117;" horiz-adv-x="536" 
d="M44 486q0 93 65 158.5t159 65.5t159 -65.5t65 -158.5t-65 -158.5t-159 -65.5t-159 65.5t-65 158.5zM447 486q0 75 -51.5 127.5t-127.5 52.5t-127.5 -52.5t-51.5 -127.5t51.5 -127.5t127.5 -52.5t127.5 52.5t51.5 127.5zM177 361v251h119q39 0 60.5 -20t21.5 -55
q0 -36 -21.5 -55.5t-60.5 -19.5h-74v-101h-45zM222 501h70q39 0 39 36t-39 36h-70v-72z" />
    <glyph glyph-name="uni2120" unicode="&#x2120;" horiz-adv-x="611" 
d="M35 520l40 23q14 -56 67 -56q22 0 36.5 10t14.5 26q0 28 -57 37q-85 12 -85 73q0 31 26 51t64 20q76 0 92 -58l-37 -21q-13 38 -55 38q-19 0 -32 -9t-13 -21q0 -25 60 -35q44 -6 64.5 -23.5t20.5 -51.5q0 -35 -27.5 -56.5t-71.5 -21.5q-41 0 -69.5 19.5t-37.5 55.5z
M281 449v251h83l64 -209l65 209h83v-251h-46v219l-70 -219h-63l-70 219v-219h-46z" />
    <glyph glyph-name="trademark" unicode="&#x2122;" horiz-adv-x="615" 
d="M124 449v209h-89v42h223v-42h-88v-209h-46zM285 449v251h84l64 -209l64 209h84v-251h-47v219l-70 -219h-63l-70 219v-219h-46z" />
    <glyph glyph-name="uni2126" unicode="&#x2126;" horiz-adv-x="777" 
d="M732 378q0 -94 -47 -171q-46 -75 -115 -123h136v-84h-272v79q81 42 142 118t61 174q0 109 -71 180.5t-178 71.5t-178 -71.5t-71 -180.5q0 -98 61 -174q60 -75 143 -118v-79h-272v84h135q-69 48 -115 123q-46 76 -46 171q-2 140 97.5 237t245.5 95q148 2 247 -94.5
t97 -237.5z" />
    <glyph glyph-name="estimated" unicode="&#x212e;" horiz-adv-x="787" 
d="M739 320h-560v-140q32 -54 91.5 -84t133.5 -30q97 0 166 48t96 131l73 -30q-35 -100 -125 -162.5t-210 -62.5q-152 -3 -257 104t-103 256q-3 152 101.5 257.5t258.5 102.5q142 2 241.5 -97.5t97.5 -239.5q0 -32 -4 -53zM179 523v-130h430v130q-30 50 -87.5 80.5
t-122.5 30.5q-144 0 -220 -111z" />
    <glyph glyph-name="uni2153" unicode="&#x2153;" horiz-adv-x="662" 
d="M108 360v254q-23 -48 -83 -53l-9 65q82 6 97 74h56v-340h-61zM503 592l44 -43l-486 -464l-45 43zM380 95l57 27q4 -31 22.5 -49t48.5 -18q26 0 43.5 16.5t17.5 42.5q0 27 -16 43.5t-42 16.5q-24 0 -40 -13l-35 43l95 79h-133v57h216v-49l-83 -71h7q36 0 64.5 -29
t28.5 -76q0 -53 -34.5 -86t-88.5 -33q-53 0 -86 26.5t-42 72.5z" />
    <glyph glyph-name="uni2154" unicode="&#x2154;" horiz-adv-x="746" 
d="M26 598q0 47 33.5 76.5t85.5 29.5q57 0 88.5 -28t31.5 -77q-1 -33 -14 -56.5t-27 -34.5t-49 -33q-31 -20 -44 -31.5t-19 -27.5h154v-56h-236q0 53 23 86.5t72 61.5q45 24 61.5 42.5t16.5 45.5q0 24 -15.5 38t-44.5 14q-25 0 -41 -14t-16 -35q0 -23 14 -37l-48 -32
q-26 29 -26 68zM587 592l44 -43l-486 -464l-45 43zM464 95l57 27q4 -31 22.5 -49t48.5 -18q26 0 43.5 16.5t17.5 42.5q0 27 -16 43.5t-42 16.5q-24 0 -40 -13l-35 43l95 79h-133v57h216v-49l-83 -71h7q36 0 64.5 -29t28.5 -76q0 -53 -34.5 -86t-88.5 -33q-53 0 -86 26.5
t-42 72.5z" />
    <glyph glyph-name="oneeighth" unicode="&#x215b;" horiz-adv-x="669" 
d="M108 360v254q-23 -48 -83 -53l-9 65q82 6 97 74h56v-340h-61zM503 592l44 -43l-486 -464l-45 43zM385 102q0 65 64 88q-45 22 -45 68q0 38 29.5 62t77.5 24t77.5 -24t29.5 -62q0 -46 -45 -68q64 -23 64 -88q0 -46 -34 -76t-92 -30t-92 30t-34 76zM563 255q0 42 -52 42
q-53 0 -53 -42q0 -20 14.5 -31t38.5 -11t38 11t14 31zM577 106q0 26 -18 41t-48 15t-48 -15t-18 -41t18.5 -41t47.5 -15t47.5 15t18.5 41z" />
    <glyph glyph-name="threeeighths" unicode="&#x215c;" horiz-adv-x="767" 
d="M27 455l57 27q4 -31 22.5 -49t48.5 -18q26 0 43.5 16.5t17.5 42.5q0 27 -16 43.5t-42 16.5q-24 0 -40 -13l-35 43l95 79h-133v57h216v-49l-83 -71h7q36 0 64.5 -29t28.5 -76q0 -53 -34.5 -86t-88.5 -33q-53 0 -86 26.5t-42 72.5zM601 592l44 -43l-486 -464l-45 43z
M483 102q0 65 64 88q-45 22 -45 68q0 38 29.5 62t77.5 24t77.5 -24t29.5 -62q0 -46 -45 -68q64 -23 64 -88q0 -46 -34 -76t-92 -30t-92 30t-34 76zM661 255q0 42 -52 42q-53 0 -53 -42q0 -20 14.5 -31t38.5 -11t38 11t14 31zM675 106q0 26 -18 41t-48 15t-48 -15t-18 -41
t18.5 -41t47.5 -15t47.5 15t18.5 41z" />
    <glyph glyph-name="fiveeighths" unicode="&#x215d;" horiz-adv-x="774" 
d="M262 700v-56h-162q0 -45 -12 -90q25 36 80 36q49 0 80.5 -30t31.5 -81q0 -57 -33 -90t-90 -33q-49 0 -83.5 26.5t-40.5 73.5l60 14q11 -57 64 -57q29 0 45.5 17t16.5 45q0 27 -16.5 43.5t-45.5 16.5q-19 0 -35.5 -10t-22.5 -24l-62 17q15 100 15 182h210zM608 592l44 -43
l-486 -464l-45 43zM490 102q0 65 64 88q-45 22 -45 68q0 38 29.5 62t77.5 24t77.5 -24t29.5 -62q0 -46 -45 -68q64 -23 64 -88q0 -46 -34 -76t-92 -30t-92 30t-34 76zM668 255q0 42 -52 42q-53 0 -53 -42q0 -20 14.5 -31t38.5 -11t38 11t14 31zM682 106q0 26 -18 41t-48 15
t-48 -15t-18 -41t18.5 -41t47.5 -15t47.5 15t18.5 41z" />
    <glyph glyph-name="seveneighths" unicode="&#x215e;" horiz-adv-x="740" 
d="M27 700h228v-51q-53 -40 -79.5 -89.5t-26.5 -120.5q0 -37 6 -79h-61q-5 37 -5 69q0 131 90 215h-152v56zM574 592l44 -43l-486 -464l-45 43zM456 102q0 65 64 88q-45 22 -45 68q0 38 29.5 62t77.5 24t77.5 -24t29.5 -62q0 -46 -45 -68q64 -23 64 -88q0 -46 -34 -76
t-92 -30t-92 30t-34 76zM634 255q0 42 -52 42q-53 0 -53 -42q0 -20 14.5 -31t38.5 -11t38 11t14 31zM648 106q0 26 -18 41t-48 15t-48 -15t-18 -41t18.5 -41t47.5 -15t47.5 15t18.5 41z" />
    <glyph glyph-name="uni2160" unicode="&#x2160;" horiz-adv-x="581" 
d="M541 87v-87h-501v87h205v526h-205v87h501v-87h-204v-526h204z" />
    <glyph glyph-name="uni2161" unicode="&#x2161;" horiz-adv-x="878" 
d="M40 0v87h205v526h-205v87h798v-87h-205v-526h205v-87h-798zM337 87h204v526h-204v-526z" />
    <glyph glyph-name="uni2162" unicode="&#x2162;" horiz-adv-x="1174" 
d="M40 0v87h205v526h-205v87h1094v-87h-204v-526h204v-87h-1094zM337 87h204v526h-204v-526zM633 87h205v526h-205v-526z" />
    <glyph glyph-name="uni2163" unicode="&#x2163;" horiz-adv-x="1174" 
d="M40 0v87h205v526h-205v87h1094v-87h-128l-175 -526h303v-87h-1094zM337 87h311l-175 526h-136v-526zM740 84l171 529h-342z" />
    <glyph glyph-name="uni2164" unicode="&#x2164;" horiz-adv-x="869" 
d="M40 0v87h303l-175 526h-128v87h789v-87h-128l-175 -526h303v-87h-789zM434 84l171 529h-342z" />
    <glyph glyph-name="uni2165" unicode="&#x2165;" horiz-adv-x="1174" 
d="M40 0v87h303l-175 526h-128v87h1094v-87h-204v-526h204v-87h-1094zM434 84l171 529h-342zM526 87h312v526h-137z" />
    <glyph glyph-name="uni2166" unicode="&#x2166;" horiz-adv-x="1471" 
d="M40 0v87h303l-175 526h-128v87h1391v-87h-205v-526h205v-87h-1391zM434 84l171 529h-342zM526 87h312v526h-137zM930 87h204v526h-204v-526z" />
    <glyph glyph-name="uni2167" unicode="&#x2167;" horiz-adv-x="1767" 
d="M40 0v87h303l-175 526h-128v87h1687v-87h-204v-526h204v-87h-1687zM434 84l171 529h-342zM526 87h312v526h-137zM930 87h204v526h-204v-526zM1226 87h205v526h-205v-526z" />
    <glyph glyph-name="uni2168" unicode="&#x2168;" horiz-adv-x="1174" 
d="M40 0v87h205v526h-205v87h1094v-87h-151l-189 -263l189 -263h151v-87h-1094zM337 87h155l189 263l-189 263h-155v-526zM738 421l133 192h-267zM604 87h267l-133 192z" />
    <glyph glyph-name="uni2169" unicode="&#x2169;" horiz-adv-x="873" 
d="M40 0v87h151l189 263l-189 263h-151v87h793v-87h-151l-189 -263l189 -263h151v-87h-793zM437 421l133 192h-267zM303 87h267l-133 192z" />
    <glyph glyph-name="uni216A" unicode="&#x216a;" horiz-adv-x="1174" 
d="M40 0v87h151l189 263l-189 263h-151v87h1094v-87h-204v-526h204v-87h-1094zM437 421l133 192h-267zM682 87h156v526h-156l-189 -263zM303 87h267l-133 192z" />
    <glyph glyph-name="uni216B" unicode="&#x216b;" horiz-adv-x="1471" 
d="M40 0v87h151l189 263l-189 263h-151v87h1391v-87h-205v-526h205v-87h-1391zM437 421l133 192h-267zM682 87h156v526h-156l-189 -263zM930 87h204v526h-204v-526zM303 87h267l-133 192z" />
    <glyph glyph-name="uni216C" unicode="&#x216c;" horiz-adv-x="721" 
d="M40 0v87h120v526h-120v87h327v-87h-115v-526h337v144h92v-231h-641z" />
    <glyph glyph-name="uni216D" unicode="&#x216d;" horiz-adv-x="781" 
d="M40 350q-3 152 97.5 257.5t244.5 102.5q84 0 148.5 -33t90.5 -91v114h85v-264h-82q-16 88 -77.5 139t-153.5 51q-113 0 -185 -75.5t-72 -200.5q0 -128 70.5 -202t183.5 -74t180 60t89 164l82 -33q-28 -123 -120 -199t-230 -76q-155 -2 -254 102t-97 258z" />
    <glyph glyph-name="uni216E" unicode="&#x216e;" horiz-adv-x="775" 
d="M40 0v86h120v528h-120v86h349q163 0 254.5 -97t91.5 -256q0 -154 -92.5 -250.5t-253.5 -96.5h-349zM252 87h137q122 0 188 71q66 72 66 189q0 124 -66 195t-188 71h-137v-526z" />
    <glyph glyph-name="uni216F" unicode="&#x216f;" horiz-adv-x="1102" 
d="M40 0v87h120v526h-120v87h279l232 -618l232 618h279v-87h-120v-526h120v-87h-332v87h120v531l-237 -618h-123l-238 618v-531h120v-87h-332z" />
    <glyph glyph-name="uni2180" unicode="&#x2180;" horiz-adv-x="1138" 
d="M40 347q0 159 91.5 256t254.5 97h366q163 0 254.5 -97t91.5 -256q0 -154 -92.5 -250.5t-253.5 -96.5h-366q-161 0 -253.5 96.5t-92.5 250.5zM386 87h137v526h-137q-122 0 -188 -70.5t-66 -195.5q0 -119 66.5 -189.5t187.5 -70.5zM615 87h137q122 0 188 71q66 72 66 189
q0 124 -66 195t-188 71h-137v-526z" />
    <glyph glyph-name="uni2181" unicode="&#x2181;" horiz-adv-x="775" 
d="M40 0v86h120v528h-120v86h349q163 0 254.5 -97t91.5 -256q0 -154 -92.5 -250.5t-253.5 -96.5h-349zM252 87h137q122 0 188 71q66 72 66 189q0 124 -66 195t-188 71h-137v-94h107q84 0 132.5 -45.5t48.5 -123.5t-48.5 -123.5t-132.5 -45.5h-107v-94zM252 265h101
q95 0 95 85t-95 85h-101v-170z" />
    <glyph glyph-name="uni2182" unicode="&#x2182;" horiz-adv-x="1138" 
d="M40 347q0 159 91.5 256t254.5 97h366q163 0 254.5 -97t91.5 -256q0 -154 -92.5 -250.5t-253.5 -96.5h-366q-161 0 -253.5 96.5t-92.5 250.5zM386 87h137v94h-107q-84 0 -132.5 45.5t-48.5 123.5t48.5 123.5t132.5 45.5h107v94h-137q-122 0 -188 -70.5t-66 -195.5
q0 -119 66.5 -189.5t187.5 -70.5zM615 87h137q122 0 188 71q66 72 66 189q0 124 -66 195t-188 71h-137v-94h107q84 0 132.5 -45.5t48.5 -123.5t-48.5 -123.5t-132.5 -45.5h-107v-94zM421 265h102v170h-102q-94 0 -94 -85t94 -85zM615 265h101q95 0 95 85t-95 85h-101v-170z
" />
    <glyph glyph-name="arrowleft" unicode="&#x2190;" horiz-adv-x="858" 
d="M40 214v78q95 8 153 69.5t63 165.5l93 -20q-7 -75 -54 -137q-45 -60 -105 -78h628v-78h-628q60 -18 105 -79q47 -62 54 -136l-93 -21q-5 104 -63 166t-153 70z" />
    <glyph glyph-name="arrowup" unicode="&#x2191;" horiz-adv-x="629" 
d="M276 0v550q-18 -60 -79 -105q-62 -46 -136 -53l-21 92q104 5 166 63t70 153h78q8 -95 69.5 -153t165.5 -63l-20 -92q-75 7 -137 53q-60 45 -78 105v-550h-78z" />
    <glyph glyph-name="arrowright" unicode="&#x2192;" horiz-adv-x="858" 
d="M602 -22l-93 21q7 74 53 136q46 61 106 79h-628v78h628q-59 18 -106 78q-46 62 -53 137l93 20q5 -104 63 -165.5t153 -69.5v-78q-95 -8 -153 -70t-63 -166z" />
    <glyph glyph-name="arrowdown" unicode="&#x2193;" horiz-adv-x="629" 
d="M40 216l21 93q74 -9 136 -54q61 -45 79 -105v550h78v-550q18 60 78 105q62 45 137 54l20 -93q-104 -5 -165.5 -63t-69.5 -153h-78q-8 95 -70 153t-166 63z" />
    <glyph glyph-name="arrowboth" unicode="&#x2194;" horiz-adv-x="858" 
d="M818 292v-78q-95 -8 -153 -70t-63 -166l-93 21q7 74 53 136q46 61 106 79h-478q60 -18 105 -79q47 -62 54 -136l-93 -21q-5 104 -63 166t-153 70v78q95 8 153 69.5t63 165.5l93 -20q-7 -75 -54 -137q-45 -60 -105 -78h478q-59 18 -106 78q-46 62 -53 137l93 20
q5 -104 63 -165.5t153 -69.5z" />
    <glyph glyph-name="arrowupdn" unicode="&#x2195;" horiz-adv-x="578" 
d="M518 267l20 -93q-93 -5 -147.5 -50.5t-62.5 -123.5h-78q-8 78 -62.5 123.5t-147.5 50.5l21 93q66 -9 118.5 -44.5t70.5 -83.5v422q-18 -49 -70.5 -84t-118.5 -43l-21 92q92 5 147 51t63 123h78q8 -77 63 -123t147 -51l-20 -92q-65 7 -119 43q-53 35 -71 84v-422
q18 48 70.5 83.5t119.5 44.5z" />
    <glyph glyph-name="uni2196" unicode="&#x2196;" horiz-adv-x="644" 
d="M548 68l-388 389q21 -37 21 -92q0 -94 -61 -172l-80 51q74 82 74 169q0 79 -60 151l55 54q71 -59 149 -59q90 0 170 74l51 -81q-78 -61 -172 -61q-52 0 -92 21l389 -389z" />
    <glyph glyph-name="uni2197" unicode="&#x2197;" horiz-adv-x="644" 
d="M96 68l-56 55l389 389q-40 -21 -92 -21q-94 0 -172 61l51 81q80 -74 170 -74q78 0 149 59l55 -54q-60 -72 -60 -151q0 -87 74 -169l-80 -51q-61 78 -61 172q0 55 21 92z" />
    <glyph glyph-name="uni2198" unicode="&#x2198;" horiz-adv-x="644" 
d="M216 68l-51 80q79 62 172 62q51 0 92 -21l-389 388l56 56l388 -389q-21 36 -21 92q0 94 61 172l80 -52q-74 -82 -74 -168q0 -80 60 -151l-55 -55q-69 60 -149 60q-90 0 -170 -74z" />
    <glyph glyph-name="uni2199" unicode="&#x2199;" horiz-adv-x="644" 
d="M258 142q-80 0 -149 -60l-55 55q60 71 60 151q0 86 -74 168l80 52q61 -78 61 -172q0 -56 -21 -92l388 389l56 -56l-389 -388q40 21 92 21q93 0 172 -62l-51 -80q-80 74 -170 74z" />
    <glyph glyph-name="partialdiff" unicode="&#x2202;" horiz-adv-x="565" 
d="M38 219q-2 105 66.5 185.5t180.5 79.5q96 0 150 -71q-26 90 -92 148q-67 59 -153 75l30 74q140 -34 223.5 -140.5t83.5 -264.5q0 -134 -69.5 -224.5t-198.5 -90.5q-98 0 -159.5 65.5t-61.5 163.5zM432 256q0 70 -38 110t-103 40q-72 0 -118.5 -53.5t-46.5 -134.5
q0 -68 38.5 -109t101.5 -41q75 0 120.5 51t45.5 137z" />
    <glyph glyph-name="emptyset" unicode="&#x2205;" horiz-adv-x="812" 
d="M768 350q2 -149 -104.5 -256t-257.5 -104q-126 0 -221 73l-82 -85l-57 55l82 84q-83 100 -83 233q-2 148 104 255.5t257 104.5q125 0 223 -73l82 85l56 -54l-82 -85q83 -100 83 -233zM191 183l376 390q-70 50 -161 50q-115 0 -190 -76t-75 -198q0 -96 50 -166zM671 350
q0 97 -49 167l-376 -390q69 -50 160 -50q113 0 189 76t76 197z" />
    <glyph glyph-name="uni2206" unicode="&#x2206;" horiz-adv-x="739" 
d="M13 0l293 700h128l293 -700h-714zM149 84h442l-221 544z" />
    <glyph glyph-name="product" unicode="&#x220f;" horiz-adv-x="640" 
d="M473 616h-305v-814h-92v898h489v-898h-92v814z" />
    <glyph glyph-name="summation" unicode="&#x2211;" horiz-adv-x="661" 
d="M52 -32v87l255 279l-255 279v87h555v-87h-438l223 -245v-68l-223 -245h438v-87h-555z" />
    <glyph glyph-name="minus" unicode="&#x2212;" horiz-adv-x="569" 
d="M64 338h442v-76h-442v76z" />
    <glyph glyph-name="uni2215" unicode="&#x2215;" horiz-adv-x="510" 
d="M388 829l73 -27l-339 -931l-73 27z" />
    <glyph glyph-name="uni2219" unicode="&#x2219;" horiz-adv-x="249" 
d="M66 349h117v-118h-117v118z" />
    <glyph glyph-name="radical" unicode="&#x221a;" horiz-adv-x="556" 
d="M223 0l-82 272h-112v78h173l74 -257l203 643l73 -24l-225 -712h-104z" />
    <glyph glyph-name="infinity" unicode="&#x221e;" horiz-adv-x="711" 
d="M46 350q0 77 48 127t126 50q93 0 135 -77q44 77 136 77q78 0 126 -50t48 -127t-48 -127t-126 -50q-92 0 -136 77q-42 -77 -135 -77q-78 0 -126 50t-48 127zM319 350q0 47 -27.5 76t-71.5 29q-45 0 -72 -29t-27 -76t27 -76t72 -29q44 0 71.5 29t27.5 76zM589 350
q0 47 -27 76t-71 29q-45 0 -72 -29t-27 -76t27 -76t72 -29q44 0 71 29t27 76z" />
    <glyph glyph-name="integral" unicode="&#x222b;" horiz-adv-x="453" 
d="M20 -101q0 19 4 30h79q-3 -10 -3 -22q0 -17 10.5 -27.5t28.5 -10.5q41 0 41 51v631q0 71 43.5 115t119.5 44q77 0 117.5 -38t40.5 -102q0 -15 -1 -22h-79l1 18q0 33 -21 52t-57 19t-56.5 -22t-20.5 -63v-634q0 -53 -33.5 -87.5t-94.5 -34.5q-54 0 -86.5 28t-32.5 75z" />
    <glyph glyph-name="approxequal" unicode="&#x2248;" horiz-adv-x="532" 
d="M76 328l-1 17q0 52 34 83.5t84 31.5q51 0 92 -41q31 -27 52 -27q19 0 32.5 13t13.5 33q0 9 -4 20l77 -10q2 -12 2 -17q0 -51 -34 -83.5t-85 -32.5q-31 0 -49 9t-43 32q-28 28 -52 28q-19 0 -32.5 -13t-13.5 -34q0 -11 3 -20zM76 158l-1 17q0 52 34 83.5t84 31.5
q51 0 92 -41q31 -27 52 -27q19 0 32.5 13t13.5 33q0 9 -4 20l77 -10q2 -12 2 -17q0 -51 -34 -83.5t-85 -32.5q-31 0 -49 9t-43 32q-28 28 -52 28q-19 0 -32.5 -13t-13.5 -34q0 -11 3 -20z" />
    <glyph glyph-name="notequal" unicode="&#x2260;" horiz-adv-x="569" 
d="M64 418h249l78 129l62 -37l-55 -92h108v-76h-154l-51 -84h205v-76h-250l-78 -129l-62 37l55 92h-107v76h153l50 84h-203v76z" />
    <glyph glyph-name="lessequal" unicode="&#x2264;" horiz-adv-x="571" 
d="M501 134l-431 127v78l431 127v-78l-322 -88l322 -88v-78zM65 0v76h441v-76h-441z" />
    <glyph glyph-name="greaterequal" unicode="&#x2265;" horiz-adv-x="571" 
d="M70 134v78l322 88l-322 88v78l431 -127v-78zM65 0v76h441v-76h-441z" />
    <glyph glyph-name="uni2318" unicode="&#x2318;" horiz-adv-x="810" 
d="M43 138q0 62 45 105t108 43h69v129h-69q-65 0 -109 42t-44 105t44 105.5t108 42.5q62 0 105.5 -43t43.5 -105v-71h129v71q0 62 44 105t105 43q64 0 108 -42.5t44 -105.5t-44 -105t-109 -42h-69v-129h69q63 0 108 -43t45 -105q0 -63 -44 -105.5t-108 -42.5q-61 0 -105 43
t-44 105v71h-129v-71q0 -62 -43.5 -105t-105.5 -43q-64 0 -108 42.5t-44 105.5zM196 491h69v71q0 32 -20 52t-51 20q-32 0 -52 -20t-20 -52q0 -31 21 -51t53 -20zM552 491h69q33 0 53.5 20t20.5 51q0 32 -20 52t-51 20q-32 0 -52 -20t-20 -52v-71zM344 286h129v129h-129
v-129zM265 138v71h-69q-32 0 -53 -20t-21 -51q0 -32 20 -51.5t52 -19.5t51.5 20t19.5 51zM695 138q0 31 -20.5 51t-53.5 20h-69v-71q0 -32 20 -51.5t52 -19.5t51.5 20t19.5 51z" />
    <glyph glyph-name="filledbox" unicode="&#x25a0;" horiz-adv-x="780" 
d="M40 0v700h700v-700h-700z" />
    <glyph glyph-name="uni25A1" unicode="&#x25a1;" horiz-adv-x="780" 
d="M40 0v700h700v-700h-700zM122 82h536v536h-536v-536z" />
    <glyph glyph-name="uni25B0" unicode="&#x25b0;" horiz-adv-x="1008" 
d="M40 0l228 700h700l-228 -700h-700z" />
    <glyph glyph-name="uni25B1" unicode="&#x25b1;" horiz-adv-x="1008" 
d="M40 0l228 700h700l-228 -700h-700zM152 82h530l174 536h-530z" />
    <glyph glyph-name="triagup" unicode="&#x25b2;" horiz-adv-x="780" 
d="M40 0l350 700l350 -700h-700z" />
    <glyph glyph-name="uni25B3" unicode="&#x25b3;" horiz-adv-x="780" 
d="M40 0l350 700l350 -700h-700zM390 517l-218 -435h436z" />
    <glyph glyph-name="lozenge" unicode="&#x25ca;" horiz-adv-x="655" 
d="M285 0l-232 343v14l232 343h85l232 -343v-14l-232 -343h-85zM328 70l189 280l-189 280l-189 -280z" />
    <glyph glyph-name="circle" unicode="&#x25cb;" horiz-adv-x="780" 
d="M40 350q-3 142 102.5 247.5t247.5 102.5q142 3 247.5 -102.5t102.5 -247.5q3 -142 -102.5 -247.5t-247.5 -102.5q-142 -3 -247.5 102.5t-102.5 247.5zM658 350q2 109 -78.5 189.5t-189.5 78.5q-109 2 -189.5 -78.5t-78.5 -189.5q-2 -109 78.5 -189.5t189.5 -78.5
q109 -2 189.5 78.5t78.5 189.5z" />
    <glyph glyph-name="uni25CF" unicode="&#x25cf;" horiz-adv-x="780" 
d="M40 350q-3 142 102.5 247.5t247.5 102.5q142 3 247.5 -102.5t102.5 -247.5q3 -142 -102.5 -247.5t-247.5 -102.5q-142 -3 -247.5 102.5t-102.5 247.5z" />
    <glyph glyph-name="uni2600" unicode="&#x2600;" horiz-adv-x="800" 
d="M760 309h-164q-8 -38 -29 -68l117 -117l-58 -58l-117 117q-30 -21 -68 -29v-164h-82v164q-38 8 -68 29l-117 -117l-58 58l117 117q-21 30 -29 68h-164v82h164q8 38 29 68l-117 117l58 58l117 -117q30 21 68 29v164h82v-164q38 -8 68 -29l117 117l58 -58l-117 -117
q21 -30 29 -68h164v-82z" />
    <glyph glyph-name="uni2610" unicode="&#x2610;" horiz-adv-x="780" 
d="M40 0v700h700v-700h-700zM122 82h536v536h-536v-536z" />
    <glyph glyph-name="uni2611" unicode="&#x2611;" horiz-adv-x="780" 
d="M40 0v700h700v-700h-700zM122 82h536v536h-536v-536zM526 532l42 -71q-164 -72 -171 -293h-74q-14 109 -114 128l28 74q43 -12 74 -42.5t42 -73.5q7 90 51 162t122 116z" />
    <glyph glyph-name="uni2612" unicode="&#x2612;" horiz-adv-x="780" 
d="M40 0v700h700v-700h-700zM122 82h536v536h-536v-536zM269 175l-54 54l121 121l-121 122l54 54l121 -122l122 122l54 -54l-122 -122l122 -121l-54 -54l-122 121z" />
    <glyph glyph-name="uni2639" unicode="&#x2639;" horiz-adv-x="780" 
d="M40 350q-3 142 102.5 247.5t247.5 102.5q142 3 247.5 -102.5t102.5 -247.5q3 -142 -102.5 -247.5t-247.5 -102.5q-142 -3 -247.5 102.5t-102.5 247.5zM669 350q2 113 -82 197t-197 82q-113 2 -197 -82t-82 -197q-2 -113 82 -197t197 -82q113 -2 197 82t82 197zM237 455
q0 20 14 34t34 14t34 -14t14 -34t-14 -34t-34 -14t-34 14t-14 34zM447 455q0 20 14 34t34 14t34 -14t14 -34t-14 -34t-34 -14t-34 14t-14 34zM271 189l-65 28q18 58 68.5 95.5t115.5 37.5t115.5 -37.5t68.5 -95.5l-65 -28q-13 42 -44 66t-75 24t-75 -24t-44 -66z" />
    <glyph glyph-name="smileface" unicode="&#x263a;" horiz-adv-x="780" 
d="M40 350q-3 142 102.5 247.5t247.5 102.5q142 3 247.5 -102.5t102.5 -247.5q3 -142 -102.5 -247.5t-247.5 -102.5q-142 -3 -247.5 102.5t-102.5 247.5zM669 350q2 113 -82 197t-197 82q-113 2 -197 -82t-82 -197q-2 -113 82 -197t197 -82q113 -2 197 82t82 197zM237 455
q0 20 14 34t34 14t34 -14t14 -34t-14 -34t-34 -14t-34 14t-14 34zM447 455q0 20 14 34t34 14t34 -14t14 -34t-14 -34t-34 -14t-34 14t-14 34zM206 287l65 28q13 -42 44 -65.5t75 -23.5t75 23.5t44 65.5l65 -28q-18 -58 -68.5 -95t-115.5 -37t-115.5 37t-68.5 95z" />
    <glyph glyph-name="sun" unicode="&#x263c;" horiz-adv-x="800" 
d="M760 309h-164q-8 -38 -29 -68l117 -117l-58 -58l-117 117q-30 -21 -68 -29v-164h-82v164q-38 8 -68 29l-117 -117l-58 58l117 117q-21 30 -29 68h-164v82h164q8 38 29 68l-117 117l58 58l117 -117q30 21 68 29v164h82v-164q38 -8 68 -29l117 117l58 -58l-117 -117
q21 -30 29 -68h164v-82zM516 350q0 48 -34 82t-82 34t-82 -34t-34 -82t34 -82t82 -34t82 34t34 82z" />
    <glyph glyph-name="female" unicode="&#x2640;" horiz-adv-x="574" 
d="M327 219v-96h117v-80h-117v-123h-80v123h-117v80h117v96q-88 14 -147.5 83.5t-59.5 160.5q0 101 73 174t174 73t174 -73t73 -174q0 -91 -59.5 -160.5t-147.5 -83.5zM287 298q68 0 116.5 48.5t48.5 116.5t-48.5 116.5t-116.5 48.5t-116.5 -48.5t-48.5 -116.5t48.5 -116.5
t116.5 -48.5z" />
    <glyph glyph-name="male" unicode="&#x2642;" horiz-adv-x="783" 
d="M685 492q0 -78 55 -142l-79 -51q-44 67 -44 145q0 51 20 88l-150 -150q47 -67 47 -145q0 -101 -73 -174t-174 -73t-174 73t-73 174t73 174t174 73q80 0 144 -47l151 150q-42 -20 -87 -20q-77 0 -147 44l51 79q67 -55 142 -55q76 0 147 59l55 -55q-58 -68 -58 -147z
M452 237q0 68 -48.5 116.5t-116.5 48.5t-116.5 -48.5t-48.5 -116.5t48.5 -116.5t116.5 -48.5t116.5 48.5t48.5 116.5z" />
    <glyph glyph-name="uni2661" unicode="&#x2661;" horiz-adv-x="904" 
d="M186 256q-146 74 -146 229q0 97 61.5 161t161.5 64q135 0 189 -110q54 110 189 110q100 0 161.5 -64t61.5 -161q0 -155 -146 -229q-72 -37 -107 -61q-93 -64 -107 -195h-104q-8 76 -39 122q-31 48 -69 73q-33 24 -106 61zM595 277q78 41 108 61q79 52 79 147
q0 62 -40.5 103.5t-107.5 41.5q-59 0 -99 -37t-47 -102h-72q-7 65 -47 102t-99 37q-67 0 -107.5 -41.5t-40.5 -103.5q0 -55 22 -89q24 -37 56 -58q26 -17 109 -61q55 -28 93 -76.5t50 -107.5q13 60 50.5 108t92.5 76z" />
    <glyph glyph-name="heart" unicode="&#x2665;" horiz-adv-x="904" 
d="M186 256q-146 74 -146 229q0 97 61.5 161t161.5 64q135 0 189 -110q54 110 189 110q100 0 161.5 -64t61.5 -161q0 -155 -146 -229q-72 -37 -107 -61q-93 -64 -107 -195h-104q-8 76 -39 122q-31 48 -69 73q-33 24 -106 61z" />
    <glyph glyph-name="uni26A5" unicode="&#x26a5;" horiz-adv-x="783" 
d="M685 600q0 -78 55 -142l-79 -51q-44 67 -44 145q0 51 20 88l-150 -150q47 -67 47 -145q0 -91 -59.5 -160.5t-147.5 -83.5v-96h117v-80h-117v-123h-80v123h-117v80h117v96q-88 14 -147.5 83.5t-59.5 160.5q0 101 73 174t174 73q80 0 144 -47l151 150q-42 -20 -87 -20
q-77 0 -147 44l51 79q67 -55 142 -55q76 0 147 59l55 -55q-58 -68 -58 -147zM452 345q0 68 -48.5 116.5t-116.5 48.5t-116.5 -48.5t-48.5 -116.5t48.5 -116.5t116.5 -48.5t116.5 48.5t48.5 116.5z" />
    <glyph glyph-name="uni2713" unicode="&#x2713;" horiz-adv-x="728" 
d="M636 710l52 -87q-170 -81 -250 -232t-82 -391h-107q-21 232 -209 279l35 94q85 -23 142.5 -90t73.5 -163q9 197 97 349t248 241z" />
    <glyph glyph-name="uni2715" unicode="&#x2715;" horiz-adv-x="779" 
d="M105 8l-58 58l285 284l-285 284l58 58l284 -284l285 284l58 -58l-285 -284l285 -284l-58 -58l-285 284z" />
    <glyph glyph-name="uni271A" unicode="&#x271a;" horiz-adv-x="780" 
d="M40 391h309v309h82v-309h309v-82h-309v-309h-82v309h-309v82z" />
    <glyph glyph-name="uni2780" unicode="&#x2780;" horiz-adv-x="780" 
d="M40 350q-3 142 102.5 247.5t247.5 102.5q142 3 247.5 -102.5t102.5 -247.5q3 -142 -102.5 -247.5t-247.5 -102.5q-142 -3 -247.5 102.5t-102.5 247.5zM671 350q2 115 -82 199t-199 82q-115 2 -199 -82t-82 -199q-2 -115 82 -199t199 -82q115 -2 199 82t82 199zM371 180
v254q-23 -48 -83 -53l-9 65q82 6 97 74h56v-340h-61z" />
    <glyph glyph-name="uni2781" unicode="&#x2781;" horiz-adv-x="780" 
d="M40 350q-3 142 102.5 247.5t247.5 102.5q142 3 247.5 -102.5t102.5 -247.5q3 -142 -102.5 -247.5t-247.5 -102.5q-142 -3 -247.5 102.5t-102.5 247.5zM671 350q2 115 -82 199t-199 82q-115 2 -199 -82t-82 -199q-2 -115 82 -199t199 -82q115 -2 199 82t82 199zM272 418
q0 47 33.5 76.5t85.5 29.5q57 0 88.5 -28t31.5 -77q-1 -33 -14 -56.5t-27 -34.5t-49 -33q-31 -20 -44 -31.5t-19 -27.5h154v-56h-236q0 53 23 86.5t72 61.5q45 24 61.5 42.5t16.5 45.5q0 24 -15.5 38t-44.5 14q-25 0 -41 -14t-16 -35q0 -23 14 -37l-48 -32q-26 29 -26 68z
" />
    <glyph glyph-name="uni2782" unicode="&#x2782;" horiz-adv-x="780" 
d="M40 350q-3 142 102.5 247.5t247.5 102.5q142 3 247.5 -102.5t102.5 -247.5q3 -142 -102.5 -247.5t-247.5 -102.5q-142 -3 -247.5 102.5t-102.5 247.5zM671 350q2 115 -82 199t-199 82q-115 2 -199 -82t-82 -199q-2 -115 82 -199t199 -82q115 -2 199 82t82 199zM269 275
l57 27q4 -31 22.5 -49t48.5 -18q26 0 43.5 16.5t17.5 42.5q0 27 -16 43.5t-42 16.5q-24 0 -40 -13l-35 43l95 79h-133v57h216v-49l-83 -71h7q36 0 64.5 -29t28.5 -76q0 -53 -34.5 -86t-88.5 -33q-53 0 -86 26.5t-42 72.5z" />
    <glyph glyph-name="uni2783" unicode="&#x2783;" horiz-adv-x="780" 
d="M40 350q-3 142 102.5 247.5t247.5 102.5q142 3 247.5 -102.5t102.5 -247.5q3 -142 -102.5 -247.5t-247.5 -102.5q-142 -3 -247.5 102.5t-102.5 247.5zM671 350q2 115 -82 199t-199 82q-115 2 -199 -82t-82 -199q-2 -115 82 -199t199 -82q115 -2 199 82t82 199zM418 180
v75h-160v64q38 37 54 77t16 102v22h61v-22q0 -118 -65 -186h94v103h61v-103h42v-57h-42v-75h-61z" />
    <glyph glyph-name="uni2784" unicode="&#x2784;" horiz-adv-x="780" 
d="M40 350q-3 142 102.5 247.5t247.5 102.5q142 3 247.5 -102.5t102.5 -247.5q3 -142 -102.5 -247.5t-247.5 -102.5q-142 -3 -247.5 102.5t-102.5 247.5zM671 350q2 115 -82 199t-199 82q-115 2 -199 -82t-82 -199q-2 -115 82 -199t199 -82q115 -2 199 82t82 199zM493 520
v-56h-162q0 -45 -12 -90q25 36 80 36q49 0 80.5 -30t31.5 -81q0 -57 -33 -90t-90 -33q-49 0 -83.5 26.5t-40.5 73.5l60 14q11 -57 64 -57q29 0 45.5 17t16.5 45q0 27 -16.5 43.5t-45.5 16.5q-19 0 -35.5 -10t-22.5 -24l-62 17q15 101 15 182h210z" />
    <glyph glyph-name="uni2785" unicode="&#x2785;" horiz-adv-x="780" 
d="M40 350q-3 142 102.5 247.5t247.5 102.5q142 3 247.5 -102.5t102.5 -247.5q3 -142 -102.5 -247.5t-247.5 -102.5q-142 -3 -247.5 102.5t-102.5 247.5zM671 350q2 115 -82 199t-199 82q-115 2 -199 -82t-82 -199q-2 -115 82 -199t199 -82q115 -2 199 82t82 199zM256 351
q0 77 35.5 125t98.5 48q99 0 116 -87l-52 -14q-10 48 -66 48q-33 0 -53.5 -29.5t-20.5 -82.5v-6q10 22 32.5 35.5t51.5 13.5q50 0 81 -30t31 -79q0 -51 -33.5 -84t-84.5 -33q-65 0 -100.5 47t-35.5 128zM452 290q0 27 -17.5 44t-44.5 17t-45 -17t-18 -44t18 -44t45 -17
t44.5 17t17.5 44z" />
    <glyph glyph-name="uni2786" unicode="&#x2786;" horiz-adv-x="780" 
d="M40 350q-3 142 102.5 247.5t247.5 102.5q142 3 247.5 -102.5t102.5 -247.5q3 -142 -102.5 -247.5t-247.5 -102.5q-142 -3 -247.5 102.5t-102.5 247.5zM671 350q2 115 -82 199t-199 82q-115 2 -199 -82t-82 -199q-2 -115 82 -199t199 -82q115 -2 199 82t82 199zM276 520
h228v-51q-54 -40 -80 -89.5t-26 -120.5q0 -37 6 -79h-61q-5 37 -5 69q0 131 90 215h-152v56z" />
    <glyph glyph-name="uni2787" unicode="&#x2787;" horiz-adv-x="780" 
d="M40 350q-3 142 102.5 247.5t247.5 102.5q142 3 247.5 -102.5t102.5 -247.5q3 -142 -102.5 -247.5t-247.5 -102.5q-142 -3 -247.5 102.5t-102.5 247.5zM671 350q2 115 -82 199t-199 82q-115 2 -199 -82t-82 -199q-2 -115 82 -199t199 -82q115 -2 199 82t82 199zM264 282
q0 65 64 88q-45 22 -45 68q0 38 29.5 62t77.5 24t77.5 -24t29.5 -62q0 -46 -45 -68q64 -23 64 -88q0 -46 -34 -76t-92 -30t-92 30t-34 76zM442 435q0 42 -52 42q-53 0 -53 -42q0 -20 14.5 -31t38.5 -11t38 11t14 31zM456 286q0 26 -18 41t-48 15t-48 -15t-18 -41t18.5 -41
t47.5 -15t47.5 15t18.5 41z" />
    <glyph glyph-name="uni2788" unicode="&#x2788;" horiz-adv-x="780" 
d="M40 350q-3 142 102.5 247.5t247.5 102.5q142 3 247.5 -102.5t102.5 -247.5q3 -142 -102.5 -247.5t-247.5 -102.5q-142 -3 -247.5 102.5t-102.5 247.5zM671 350q2 115 -82 199t-199 82q-115 2 -199 -82t-82 -199q-2 -115 82 -199t199 -82q115 -2 199 82t82 199zM267 272
l50 16q13 -59 72 -59q77 0 77 116v6q-22 -49 -83 -49q-50 0 -80.5 30t-30.5 76q0 53 33 84.5t85 31.5q65 0 99.5 -45t34.5 -126q0 -80 -35.5 -128.5t-99.5 -48.5q-50 0 -82.5 26.5t-39.5 69.5zM454 412q0 27 -17.5 43t-44.5 16t-44.5 -16t-17.5 -43t17.5 -43t44.5 -16
t44.5 16.5t17.5 42.5z" />
    <glyph glyph-name="uni278A" unicode="&#x278a;" horiz-adv-x="780" 
d="M40 350q-3 142 102.5 247.5t247.5 102.5q142 3 247.5 -102.5t102.5 -247.5q3 -142 -102.5 -247.5t-247.5 -102.5q-142 -3 -247.5 102.5t-102.5 247.5zM372 180h61v340h-56q-17 -68 -98 -74l10 -65q58 5 83 53v-254z" />
    <glyph glyph-name="uni278B" unicode="&#x278b;" horiz-adv-x="780" 
d="M40 350q-3 142 102.5 247.5t247.5 102.5q142 3 247.5 -102.5t102.5 -247.5q3 -142 -102.5 -247.5t-247.5 -102.5q-142 -3 -247.5 102.5t-102.5 247.5zM276 180h236v56h-154q6 16 19 27.5t44 31.5q35 22 49 33t27 34.5t14 56.5q0 49 -31.5 77t-89.5 28q-51 0 -84.5 -29.5
t-33.5 -76.5q0 -39 26 -68l48 32q-14 14 -14 37q0 21 16 35t41 14q29 0 44.5 -14t15.5 -38q0 -27 -16.5 -45t-61.5 -43q-49 -28 -72 -61.5t-23 -86.5z" />
    <glyph glyph-name="uni278C" unicode="&#x278c;" horiz-adv-x="780" 
d="M40 350q-3 142 102.5 247.5t247.5 102.5q142 3 247.5 -102.5t102.5 -247.5q3 -142 -102.5 -247.5t-247.5 -102.5q-142 -3 -247.5 102.5t-102.5 247.5zM520 295q0 47 -28 76t-65 29h-7l84 71v49h-217v-57h133l-94 -79l34 -43q17 13 40 13q26 0 42 -16.5t16 -43.5
q0 -26 -17.5 -42.5t-43.5 -16.5q-30 0 -48 18t-22 49l-58 -27q10 -46 43 -72.5t85 -26.5q54 0 88.5 33t34.5 86z" />
    <glyph glyph-name="uni278D" unicode="&#x278d;" horiz-adv-x="780" 
d="M40 350q-3 142 102.5 247.5t247.5 102.5q142 3 247.5 -102.5t102.5 -247.5q3 -142 -102.5 -247.5t-247.5 -102.5q-142 -3 -247.5 102.5t-102.5 247.5zM419 180h61v75h41v57h-41v103h-61v-103h-95q65 68 65 186v22h-61v-22q0 -62 -16 -102t-54 -77v-64h161v-75z" />
    </font>
</defs>
</svg>
