<?xml version="1.0" standalone="no"?>
<!DOCTYPE svg PUBLIC "-//W3C//DTD SVG 1.1//EN" "http://www.w3.org/Graphics/SVG/1.1/DTD/svg11.dtd" >
<svg xmlns="http://www.w3.org/2000/svg" xmlns:xlink="http://www.w3.org/1999/xlink" version="1.1">
<metadata>
Created by FontForge 20170731 at Tue Apr 17 04:24:33 2018
 By Aleksey,,,
Copyright (c) 2018 by Benjamin Critton &#38; Colophon Foundry. All rights reserved.
</metadata>
<defs>
<font id="MabryPro-MediumItalic" horiz-adv-x="0" >
  <font-face 
    font-family="Mabry Pro"
    font-weight="500"
    font-style="italic"
    font-stretch="normal"
    units-per-em="1000"
    panose-1="2 13 6 3 4 0 2 11 3 3"
    ascent="792"
    descent="-208"
    x-height="474"
    cap-height="700"
    bbox="-792 -274 1940 1060"
    underline-thickness="62"
    underline-position="-346"
    slope="-18"
    unicode-range="U+000D-1F610"
  />
<missing-glyph horiz-adv-x="817" 
d="M195 0v700h500v-700h-500zM445 416l135 219h-270zM260 585v-470l144 235zM630 115v470l-145 -235zM310 65h270l-135 219z" />
    <glyph glyph-name="f_f" unicode="ff" horiz-adv-x="639" 
d="M37 0l124 384h-103l30 90h103l27 83q50 153 206 153q81 0 112 -49q43 49 131 49q66 0 102 -31t36 -83q0 -26 -12 -57h-100q9 21 9 37q0 44 -52 44q-63 0 -86 -73l-23 -73h129l-30 -90h-129l-124 -384h-107l124 384h-136l-124 -384h-107zM298 474h136l19 58q6 20 6 36
q0 52 -52 52q-63 0 -86 -73z" />
    <glyph glyph-name="fi" unicode="fi" horiz-adv-x="522" 
d="M550 539h-100q9 21 9 37q0 44 -52 44q-63 0 -86 -73l-23 -73h240l-154 -474h-107l125 384h-134l-124 -384h-107l124 384h-103l30 90h103l27 83q50 153 206 153q66 0 102 -31t36 -83q0 -26 -12 -57z" />
    <glyph glyph-name="fl" unicode="fl" horiz-adv-x="530" 
d="M38 0l124 384h-104l30 90h104l24 76q25 80 75.5 120t137.5 40q65 0 102 -35.5t37 -92.5q0 -26 -8 -50l-173 -532h-107l177 545q4 12 4 23q0 24 -14 38t-39 14q-34 0 -53.5 -18.5t-32.5 -56.5l-23 -71h89l-30 -90h-89l-124 -384h-107z" />
    <glyph glyph-name="f_f_i" unicode="ffi" horiz-adv-x="765" 
d="M37 0l124 384h-103l30 90h103l27 83q50 153 206 153q81 0 112 -49q43 49 131 49q66 0 102 -31t36 -83q0 -26 -12 -57h-100q9 21 9 37q0 44 -52 44q-63 0 -86 -73l-23 -73h240l-154 -474h-107l125 384h-134l-124 -384h-107l124 384h-136l-124 -384h-107zM298 474h136
l19 58q6 20 6 36q0 52 -52 52q-63 0 -86 -73z" />
    <glyph glyph-name="f_f_l" unicode="ffl" horiz-adv-x="772" 
d="M37 0l124 384h-103l30 90h103l27 83q50 153 206 153q81 0 112 -49q43 49 133 49q66 0 103.5 -35.5t37.5 -92.5q0 -26 -8 -50l-173 -532h-107l177 545q4 12 4 23q0 24 -14 38t-39 14q-63 0 -86 -73l-23 -73h89l-30 -90h-89l-124 -384h-107l124 384h-136l-124 -384h-107z
M298 474h136l19 58q6 20 6 36q0 52 -52 52q-63 0 -86 -73z" />
    <glyph glyph-name=".notdef" horiz-adv-x="817" 
d="M195 0v700h500v-700h-500zM445 416l135 219h-270zM260 585v-470l144 235zM630 115v470l-145 -235zM310 65h270l-135 219z" />
    <glyph glyph-name=".null" 
 />
    <glyph glyph-name="nonmarkingreturn" horiz-adv-x="333" 
 />
    <glyph glyph-name="CR" unicode="&#xd;" horiz-adv-x="240" 
 />
    <glyph glyph-name="space" unicode=" " horiz-adv-x="240" 
 />
    <glyph glyph-name="exclam" unicode="!" horiz-adv-x="244" 
d="M53 180l169 520h102l-169 -520h-102zM-15 0l39 120h120l-39 -120h-120z" />
    <glyph glyph-name="quotedbl" unicode="&#x22;" horiz-adv-x="389" 
d="M203 700h112l-33 -100l-65 -140h-72l25 140zM375 700h112l-33 -100l-65 -140h-72l25 140z" />
    <glyph glyph-name="numbersign" unicode="#" horiz-adv-x="790" 
d="M214 200h-132v95h162l36 110h-160v95h190l65 200h102l-65 -200h116l65 200h102l-65 -200h150v-95h-180l-36 -110h178v-95h-208l-65 -200h-102l65 200h-116l-65 -200h-102zM346 295h116l36 110h-116z" />
    <glyph glyph-name="dollar" unicode="$" horiz-adv-x="663" 
d="M607 218q0 -103 -80 -165.5t-211 -62.5l-29 -88h-97l32 99q-87 21 -139 82.5t-54 148.5l111 27q9 -128 115 -156l73 222q-161 47 -161 181q0 90 77 147t192 57h17l29 88h97l-34 -105q119 -42 132 -171l-108 -26q-8 68 -58 93l-61 -188q157 -42 157 -183zM361 426l58 179
q-58 -2 -96 -28t-38 -67q0 -54 76 -84zM487 205q0 34 -16 55t-55 37l-66 -201q64 6 100.5 34.5t36.5 74.5z" />
    <glyph glyph-name="percent" unicode="%" horiz-adv-x="943" 
d="M135 504q0 92 62 149t160 57q67 0 110.5 -43t43.5 -105q0 -91 -64 -148.5t-158 -57.5q-67 0 -110.5 42.5t-43.5 105.5zM421 554q0 33 -21 54.5t-56 21.5q-51 0 -85 -33.5t-34 -84.5q0 -33 21.5 -54.5t56.5 -21.5q50 0 84 33.5t34 84.5zM198 80l-45 65l660 473l46 -65z
M506 138q0 92 62 149t160 57q67 0 110.5 -43t43.5 -105q0 -91 -64 -148.5t-158 -57.5q-67 0 -110.5 42.5t-43.5 105.5zM792 188q0 33 -21 54.5t-56 21.5q-51 0 -85 -33.5t-34 -84.5q0 -33 21.5 -54.5t56.5 -21.5q50 0 84 33.5t34 84.5z" />
    <glyph glyph-name="ampersand" unicode="&#x26;" horiz-adv-x="817" 
d="M666 128l68 -64q-45 -74 -149 -74q-73 0 -119 49q-92 -49 -210 -49q-98 0 -161 56.5t-63 138.5q0 92 56.5 150t168.5 90q-12 41 -12 70q0 99 61.5 157t168.5 58q72 0 115 -38t43 -97q0 -151 -228 -207l100 -182q85 84 132 234l88 -33q-60 -184 -169 -284q18 -18 49 -18
q37 0 61 43zM351 513q0 -37 12 -64q86 18 125 43t39 66q0 28 -16.5 45t-48.5 17q-49 0 -80 -30t-31 -77zM275 90q73 0 138 30l-118 224q-81 -22 -118.5 -57t-37.5 -91q0 -46 37.5 -76t98.5 -30z" />
    <glyph glyph-name="quotesingle" unicode="'" horiz-adv-x="217" 
d="M203 700h112l-33 -100l-65 -140h-72l25 140z" />
    <glyph glyph-name="parenleft" unicode="(" horiz-adv-x="450" 
d="M80 255q-3 216 133.5 374t348.5 186l14 -88q-187 -25 -297 -155t-110 -318q0 -170 155 -311l-68 -69q-176 164 -176 381z" />
    <glyph glyph-name="parenright" unicode=")" horiz-adv-x="449" 
d="M443 445q3 -216 -133.5 -374t-348.5 -186l-14 88q187 25 297 155t110 318q0 170 -155 311l68 69q176 -164 176 -381z" />
    <glyph glyph-name="asterisk" unicode="*" horiz-adv-x="464" 
d="M346 730l82 -27l-21 -66l-60 -82l101 33h70v-86h-70l-102 33l64 -83l21 -66l-83 -27l-20 67v108l-62 -88l-57 -42l-52 71l57 41l100 30l-102 33l-56 41l50 70l57 -42l65 -86v101z" />
    <glyph glyph-name="plus" unicode="+" horiz-adv-x="571" 
d="M96 345h179l58 180h92l-58 -180h179l-30 -90h-179l-58 -180h-92l58 180h-179z" />
    <glyph glyph-name="comma" unicode="," horiz-adv-x="245" 
d="M-80 -104l25 54q19 -10 42 -10q50 0 50 34q0 11 -9 18.5t-24 7.5h-18l39 120h120l-51 -157q-27 -83 -114 -83q-33 0 -60 16z" />
    <glyph glyph-name="hyphen" unicode="-" horiz-adv-x="366" 
d="M38 205l30 95h270l-30 -95h-270z" />
    <glyph glyph-name="period" unicode="." horiz-adv-x="245" 
d="M24 120h120l-38 -120h-120z" />
    <glyph glyph-name="slash" unicode="/" horiz-adv-x="371" 
d="M342 831l85 -31l-339 -931l-85 31z" />
    <glyph glyph-name="zero" unicode="0" horiz-adv-x="679" 
d="M66 242q-1 84 28.5 169t81 152t126 108t156.5 39q102 0 165 -66t63 -186q1 -84 -28.5 -169t-81 -152t-126 -108t-156.5 -39q-102 0 -165 66t-63 186zM579 448q0 78 -37 122.5t-100 44.5q-68 3 -132 -51.5t-101 -140t-36 -171.5q0 -78 37 -122.5t100 -44.5q71 0 133 53
q61 52 99 137q37 84 37 173z" />
    <glyph glyph-name="one" unicode="1" horiz-adv-x="393" 
d="M136 0l177 545q-33 -54 -91 -88q-57 -34 -124 -37l19 115q86 4 154.5 46.5t104.5 118.5h95l-228 -700h-107z" />
    <glyph glyph-name="two" unicode="2" horiz-adv-x="613" 
d="M293 304q135 49 181.5 85.5t50.5 108.5q0 52 -35.5 84.5t-93.5 32.5q-71 0 -112 -40.5t-41 -109.5q0 -41 27 -81l-96 -56q-49 58 -49 130q0 117 77 185q76 67 209 67q102 0 166 -56.5t64 -143.5q-1 -55 -15 -94t-47 -69.5t-75.5 -52.5t-113.5 -49q-96 -36 -144.5 -69.5
t-63.5 -75.5h336l-32 -100h-480q45 134 105.5 196.5t181.5 107.5z" />
    <glyph glyph-name="three" unicode="3" horiz-adv-x="577" 
d="M8 200l101 36q7 -69 43 -107.5t98 -38.5q80 0 127 44.5t47 122.5q0 53 -34 85.5t-86 32.5t-99 -35l-35 75l263 185h-283l32 100h455l-27 -85l-259 -168q5 1 28 1q64 0 108 -51.5t44 -127.5q0 -126 -82 -202.5t-220 -76.5q-95 0 -156.5 59.5t-64.5 150.5z" />
    <glyph glyph-name="four" unicode="4" horiz-adv-x="586" 
d="M270 0l56 170h-313l35 110q81 62 132 118q48 51 79 111q32 63 59 146l15 45h107l-26 -78q-29 -86 -59 -145q-60 -118 -202 -212h203l72 219h107l-72 -219h115l-30 -95h-115l-56 -170h-107z" />
    <glyph glyph-name="five" unicode="5" horiz-adv-x="617" 
d="M32 196l107 28q0 -61 39.5 -97.5t103.5 -36.5q80 0 133 47q52 48 52 127q0 53 -34 84.5t-93 31.5q-91 0 -149 -86l-110 31l148 375h450l-32 -100h-351l-84 -199q70 73 172 73q87 0 138.5 -52.5t51.5 -142.5q0 -132 -83.5 -210.5t-223.5 -78.5q-95 0 -164.5 56t-70.5 150z
" />
    <glyph glyph-name="six" unicode="6" horiz-adv-x="616" 
d="M66 236q0 114 47 225q49 111 136 179q88 70 207 70q94 0 145 -56t51 -139l-104 -26q0 59 -31.5 92.5t-86.5 33.5q-91 0 -160 -74.5t-99 -211.5q44 66 97 93.5t123 27.5q76 0 128 -47q52 -46 52 -134q0 -122 -80 -200.5t-210 -78.5q-103 0 -159 69.5t-56 176.5zM464 250
q0 46 -31 75.5t-82 29.5q-72 0 -122 -44t-50 -114q0 -49 31.5 -78t81.5 -29q76 0 124 46.5t48 113.5z" />
    <glyph glyph-name="seven" unicode="7" horiz-adv-x="554" 
d="M498 600h-348l33 100h489l-30 -90q-192 -98 -281 -242q-88 -144 -93 -368h-118q9 400 348 600z" />
    <glyph glyph-name="eight" unicode="8" horiz-adv-x="620" 
d="M34 186q0 84 55.5 141.5t152.5 75.5q-27 15 -45.5 46.5t-18.5 69.5q0 89 68.5 140t186.5 51q88 0 140 -46.5t52 -114.5q0 -62 -39.5 -107.5t-103.5 -63.5q38 -19 61 -58t23 -87q0 -112 -82.5 -177.5t-223.5 -65.5q-96 0 -161 57.5t-65 138.5zM519 533q0 37 -28 59.5
t-74 22.5q-62 0 -99.5 -27t-37.5 -76q0 -36 28 -59t70 -23q62 0 101.5 27.5t39.5 75.5zM458 230q0 49 -34.5 79.5t-91.5 30.5q-83 0 -133 -38.5t-50 -103.5q0 -49 36 -78.5t96 -29.5q77 0 127 38t50 102z" />
    <glyph glyph-name="nine" unicode="9" horiz-adv-x="639" 
d="M36 185l102 30q12 -63 45.5 -94t99.5 -31q201 0 248 265q-62 -105 -203 -105q-90 0 -147 58t-57 147q0 117 81 186t204 69q108 0 168 -65t60 -184q1 -134 -42 -241t-129 -169.5t-201 -60.5q-97 0 -158.5 55t-70.5 140zM523 491q0 56 -34.5 90t-91.5 34q-69 0 -117 -42.5
t-48 -111.5q0 -51 34 -83.5t88 -32.5q75 0 122 40t47 106z" />
    <glyph glyph-name="colon" unicode=":" horiz-adv-x="244" 
d="M92 330l39 120h120l-39 -120h-120zM-15 0l39 120h120l-39 -120h-120z" />
    <glyph glyph-name="semicolon" unicode=";" horiz-adv-x="245" 
d="M93 330l39 120h120l-39 -120h-120zM-80 -104l25 54q19 -10 42 -10q50 0 50 34q0 11 -9 18.5t-24 7.5h-18l39 120h120l-51 -157q-27 -83 -114 -83q-33 0 -60 16z" />
    <glyph glyph-name="less" unicode="&#x3c;" horiz-adv-x="570" 
d="M452 60l-386 195l30 90l512 195l-39 -119l-365 -132l282 -125z" />
    <glyph glyph-name="equal" unicode="=" horiz-adv-x="571" 
d="M122 425h450l-30 -90h-450zM70 265h450l-30 -90h-450z" />
    <glyph glyph-name="greater" unicode="&#x3e;" horiz-adv-x="570" 
d="M3 60l39 119l365 132l-282 125l34 104l386 -195l-30 -90z" />
    <glyph glyph-name="question" unicode="?" horiz-adv-x="488" 
d="M97 307q0 146 226 176q65 9 94.5 27t29.5 51q0 29 -22.5 46.5t-65.5 17.5q-51 0 -85.5 -25t-55.5 -80l-85 33q26 79 90 118t154 39q79 0 127.5 -40t48.5 -98q0 -73 -49 -111t-157 -54q-77 -12 -111.5 -33.5t-34.5 -57.5q0 -21 16.5 -34t41.5 -13q40 0 62 16.5t47 61.5
l74 -38q-66 -124 -198 -124q-68 0 -107.5 32.5t-39.5 89.5zM108 0l39 120h120l-39 -120h-120z" />
    <glyph glyph-name="at" unicode="@" horiz-adv-x="900" 
d="M604 146q0 -18 12.5 -29.5t31.5 -11.5q50 0 88 56t38 136q0 114 -71 174.5t-206 60.5q-146 2 -250 -92t-102 -242q0 -107 66 -181.5t166 -74.5q109 0 179 54l42 -70q-92 -64 -230 -64q-131 -2 -224 95.5t-91 231.5q-2 198 127 311.5t329 111.5q162 0 257.5 -87t95.5 -218
q2 -117 -64.5 -200.5t-156.5 -81.5q-42 0 -70.5 21t-32.5 56q-53 -77 -148 -77q-73 0 -120.5 49.5t-47.5 129.5q0 108 66.5 176.5t174.5 68.5q45 0 78 -19.5t45 -52.5l19 60h91l-89 -272q-3 -11 -3 -19zM463 369q-63 0 -106 -44.5t-43 -113.5q0 -50 25.5 -78t68.5 -28
q63 0 104 48.5t41 117.5q0 45 -24 71.5t-66 26.5z" />
    <glyph glyph-name="A" unicode="A" horiz-adv-x="752" 
d="M546 0l-11 170h-343l-122 -170h-135l516 700h152l60 -700h-117zM263 270h265l-23 337z" />
    <glyph glyph-name="B" unicode="B" horiz-adv-x="709" 
d="M-5 0l228 700h311q86 0 140 -45q55 -43 55 -118q0 -71 -43.5 -117t-116.5 -63q82 -27 82 -128q0 -103 -83.5 -166t-218.5 -63h-354zM240 410h217q71 0 112 27.5t41 77.5q0 36 -25.5 58t-68.5 22h-215zM141 105h237q72 0 115 31.5t43 87.5q0 38 -25 62t-71 24h-232z" />
    <glyph glyph-name="C" unicode="C" horiz-adv-x="800" 
d="M83 293q-3 177 123 298t311 119q139 0 206 -64q69 -64 84 -171l-105 -32q-8 78 -60.5 122.5t-134.5 44.5q-131 2 -219.5 -88.5t-86.5 -218.5q0 -99 55.5 -156t148.5 -57q204 0 270 214l103 -35q-84 -279 -390 -279q-135 0 -220 83t-85 220z" />
    <glyph glyph-name="D" unicode="D" horiz-adv-x="753" 
d="M-5 0l228 700h245q132 0 205 -78q73 -77 73 -212q1 -80 -30 -153.5t-88.5 -131.5t-150 -92t-206.5 -33h-276zM140 100h153q143 -2 241 85.5t96 211.5q0 98 -48 150.5t-135 52.5h-145z" />
    <glyph glyph-name="E" unicode="E" horiz-adv-x="642" 
d="M223 700h510l-34 -105h-398l-59 -180h368l-34 -105h-368l-67 -205h408l-34 -105h-520z" />
    <glyph glyph-name="F" unicode="F" horiz-adv-x="626" 
d="M223 700h505l-34 -105h-393l-65 -200h363l-34 -105h-363l-95 -290h-112z" />
    <glyph glyph-name="G" unicode="G" horiz-adv-x="819" 
d="M349 -10q-117 0 -193 81.5t-76 212.5q-2 181 129 304.5t322 121.5q134 0 210.5 -66t82.5 -174l-107 -30q-26 165 -203 165q-132 2 -225 -88.5t-91 -225.5q0 -92 50 -144t134 -52q93 0 157 49q65 50 91 121h-296l34 105h438l-120 -370h-98l48 146q-81 -156 -287 -156z" />
    <glyph glyph-name="H" unicode="H" horiz-adv-x="744" 
d="M578 295h-375l-96 -295h-112l228 700h112l-99 -305h375l99 305h112l-228 -700h-112z" />
    <glyph glyph-name="I" unicode="I" horiz-adv-x="257" 
d="M-5 0l228 700h112l-228 -700h-112z" />
    <glyph glyph-name="J" unicode="J" horiz-adv-x="607" 
d="M37 181q0 99 75 169l88 -52q-50 -53 -50 -110q0 -39 32 -66t80 -27q66 0 105.5 35.5t66.5 117.5l147 452h112l-156 -480q-39 -120 -100.5 -174t-192.5 -56q-94 0 -150.5 55.5t-56.5 135.5z" />
    <glyph glyph-name="K" unicode="K" horiz-adv-x="680" 
d="M453 418l130 -418h-125l-103 345l-183 -145l-65 -200h-112l228 700h112l-110 -337l418 337h160z" />
    <glyph glyph-name="L" unicode="L" horiz-adv-x="642" 
d="M223 700h112l-194 -595h418l-34 -105h-530z" />
    <glyph glyph-name="M" unicode="M" horiz-adv-x="944" 
d="M794 0h-112l208 639l-406 -639h-174l5 639l-208 -639h-112l228 700h200l-4 -615l390 615h213z" />
    <glyph glyph-name="N" unicode="N" horiz-adv-x="771" 
d="M309 620l-202 -620h-112l228 700h180l132 -621l202 621h112l-228 -700h-180z" />
    <glyph glyph-name="O" unicode="O" horiz-adv-x="856" 
d="M82 293q-3 176 126 298t318 119q154 0 237.5 -85.5t83.5 -217.5q1 -86 -32 -163t-91.5 -133.5t-142 -89t-178.5 -31.5q-153 0 -237 86.5t-84 216.5zM728 401q0 93 -59.5 148.5t-158.5 55.5q-130 2 -220.5 -86.5t-88.5 -219.5q0 -92 60 -148t158 -56q127 -2 219 88t90 218
z" />
    <glyph glyph-name="P" unicode="P" horiz-adv-x="688" 
d="M-5 0l228 700h289q92 0 148 -52t56 -134q0 -108 -82 -171t-223 -63h-213l-91 -280h-112zM232 385h203q74 0 117 31.5t43 87.5q0 44 -27 67.5t-75 23.5h-192z" />
    <glyph glyph-name="Q" unicode="Q" horiz-adv-x="856" 
d="M714 17l28 -97q-59 -30 -132 -30q-54 0 -92.5 28t-48.5 76q-25 -4 -66 -4q-153 0 -237 86.5t-84 216.5q-3 176 126 298t318 119q154 0 237.5 -85.5t83.5 -217.5q0 -133 -72 -236t-195 -150q14 -26 64 -26q42 0 70 22zM201 299q0 -82 47 -135v11q0 74 49.5 117t132.5 43
q69 0 112 -39.5t43 -102.5q0 -25 -5 -55q69 42 108.5 111t39.5 152q0 93 -59.5 148.5t-158.5 55.5q-130 2 -220.5 -86.5t-88.5 -219.5zM419 95q24 0 57 5q10 41 10 71q0 35 -20.5 54.5t-54.5 19.5q-37 0 -60.5 -21t-23.5 -57q0 -28 18 -47.5t49 -23.5q5 -1 25 -1z" />
    <glyph glyph-name="R" unicode="R" horiz-adv-x="682" 
d="M-5 0l228 700h295q92 0 145 -47t53 -126q0 -85 -56 -139q-56 -55 -139 -65q66 -23 66 -101q0 -24 -11 -70q-17 -66 -17 -94q0 -22 11 -42l-5 -16h-121q-3 16 -3 41q0 58 21 119q11 35 11 55q0 75 -93 75h-178l-95 -290h-112zM236 395h208q74 0 114 29t40 83q0 42 -26 65
t-74 23h-197z" />
    <glyph glyph-name="S" unicode="S" horiz-adv-x="663" 
d="M429 605q-62 0 -103 -26t-41 -69q0 -38 35.5 -62.5t112.5 -42.5q174 -38 174 -187q0 -104 -80.5 -166t-212.5 -62q-125 0 -203.5 66t-81.5 176l111 27q12 -164 180 -164q76 0 121.5 29.5t45.5 80.5q0 46 -30 69t-118 48q-172 46 -172 184q0 90 77 147t192 57
q106 0 168.5 -48t72.5 -140l-108 -26q-10 109 -140 109z" />
    <glyph glyph-name="T" unicode="T" horiz-adv-x="676" 
d="M798 700l-34 -105h-254l-194 -595h-112l194 595h-254l34 105h620z" />
    <glyph glyph-name="U" unicode="U" horiz-adv-x="712" 
d="M68 193q0 57 22 123l124 384h112l-134 -414q-13 -38 -13 -79q0 -53 37 -82.5t101 -29.5q82 0 143.5 49.5t91.5 141.5l134 414h112l-142 -438q-87 -272 -365 -272q-98 0 -160.5 55t-62.5 148z" />
    <glyph glyph-name="V" unicode="V" horiz-adv-x="748" 
d="M320 89l434 611h134l-510 -700h-158l-60 700h121z" />
    <glyph glyph-name="W" unicode="W" horiz-adv-x="1004" 
d="M101 0l61 700h115l-63 -618l337 618h192l-59 -618l340 618h118l-388 -700h-182l59 627l-345 -627h-185z" />
    <glyph glyph-name="X" unicode="X" horiz-adv-x="688" 
d="M-61 0l392 399l-114 301h124l79 -231l221 231h146l-326 -332l134 -368h-124l-99 289l-285 -289h-148z" />
    <glyph glyph-name="Y" unicode="Y" horiz-adv-x="694" 
d="M213 0l93 285l-144 415h125l98 -315l303 315h144l-414 -415l-93 -285h-112z" />
    <glyph glyph-name="Z" unicode="Z" horiz-adv-x="707" 
d="M7 105l601 490h-436l34 105h595l-34 -105l-601 -490h446l-34 -105h-605z" />
    <glyph glyph-name="bracketleft" unicode="[" horiz-adv-x="312" 
d="M263 825h195l-27 -85h-98l-266 -816h98l-27 -85h-195z" />
    <glyph glyph-name="backslash" unicode="\" horiz-adv-x="757" 
d="M624 -100l-85 -31l-339 931l85 31z" />
    <glyph glyph-name="bracketright" unicode="]" horiz-adv-x="311" 
d="M-85 -161l27 85h98l266 816h-98l27 85h195l-320 -986h-195z" />
    <glyph glyph-name="asciicircum" unicode="^" horiz-adv-x="556" 
d="M468 710l123 -210l-5 -16h-105l-63 141h-16l-148 -141h-124l5 16l253 210h80z" />
    <glyph glyph-name="underscore" unicode="_" horiz-adv-x="577" 
d="M-47 -25h500l-30 -95h-500z" />
    <glyph glyph-name="grave" unicode="`" horiz-adv-x="341" 
d="M284 555l-83 117l6 16h137l36 -133h-96z" />
    <glyph glyph-name="a" unicode="a" horiz-adv-x="598" 
d="M37 187q0 128 83.5 212.5t210.5 84.5q56 0 93.5 -26.5t48.5 -72.5l29 89h107l-154 -474h-102l22 70q-52 -80 -163 -80q-77 0 -126 52.5t-49 144.5zM438 275q0 51 -31 82.5t-84 31.5q-75 0 -126.5 -54t-51.5 -134q0 -54 31.5 -86t85.5 -32q67 -2 122.5 58t53.5 134z" />
    <glyph glyph-name="b" unicode="b" horiz-adv-x="597" 
d="M216 700h107l-94 -291q60 75 159 75q76 0 124 -57t48 -150q2 -110 -84 -199.5t-207 -87.5q-50 0 -93 28t-55 73l-30 -91h-102zM274 83q73 0 125.5 55t52.5 126q0 59 -31 92t-87 33q-71 0 -123.5 -58t-52.5 -133q0 -53 32 -84t84 -31z" />
    <glyph glyph-name="c" unicode="c" horiz-adv-x="585" 
d="M41 203q0 125 84.5 203t216.5 78q87 0 141 -49t57 -120l-92 -27q-5 49 -36.5 77.5t-80.5 28.5q-80 0 -132 -52t-52 -133q0 -57 34.5 -93t90.5 -36q126 0 168 128l96 -31q-32 -91 -103 -139t-171 -48q-101 0 -161 60.5t-60 152.5z" />
    <glyph glyph-name="d" unicode="d" horiz-adv-x="598" 
d="M37 187q0 128 83.5 212.5t210.5 84.5q56 0 93.5 -26.5t48.5 -72.5l102 315h107l-227 -700h-102l22 70q-52 -80 -163 -80q-77 0 -126 52.5t-49 144.5zM438 275q0 51 -31 82.5t-84 31.5q-75 0 -126.5 -54t-51.5 -134q0 -54 31.5 -86t85.5 -32q67 -2 122.5 58t53.5 134z" />
    <glyph glyph-name="e" unicode="e" horiz-adv-x="555" 
d="M518 317q0 -36 -11 -77l-6 -20h-356v-15q0 -56 32 -90.5t83 -34.5q102 0 142 91l89 -33q-67 -148 -251 -148q-87 0 -144 59.5t-57 150.5q-2 120 85.5 203t208.5 81q87 0 136 -48t49 -119zM420 311q0 38 -27 60.5t-70 22.5q-57 0 -98.5 -27.5t-62.5 -76.5h257q1 7 1 21z
" />
    <glyph glyph-name="f" unicode="f" horiz-adv-x="396" 
d="M37 0l124 384h-103l30 90h103l27 83q50 153 206 153q66 0 102 -31t36 -83q0 -26 -12 -57h-100q9 21 9 37q0 44 -52 44q-63 0 -86 -73l-23 -73h129l-30 -90h-129l-124 -384h-107z" />
    <glyph glyph-name="g" unicode="g" horiz-adv-x="597" 
d="M-21 -50l103 28q5 -46 32 -71t74 -25q122 0 168 144l14 44q-49 -70 -153 -70q-78 0 -128.5 53.5t-50.5 142.5q-2 116 82.5 203.5t209.5 84.5q110 0 147 -85l24 75h107l-150 -462q-36 -112 -104.5 -166t-179.5 -54q-83 0 -134.5 42.5t-60.5 115.5zM439 279q0 53 -31 84
t-83 31q-81 0 -131 -53q-48 -53 -48 -135q0 -53 32 -84.5t80 -31.5q70 0 125.5 57t55.5 132z" />
    <glyph glyph-name="h" unicode="h" horiz-adv-x="572" 
d="M-11 0l228 700h107l-100 -308q70 92 180 92q61 0 96 -35.5t35 -93.5q0 -27 -10 -58l-97 -297h-107l92 282q8 26 8 44q0 34 -20.5 52.5t-58.5 18.5q-51 0 -97 -39.5t-67 -105.5l-82 -252h-107z" />
    <glyph glyph-name="i" unicode="i" horiz-adv-x="239" 
d="M143 474h107l-154 -474h-107zM164 555l38 115h117l-38 -115h-117z" />
    <glyph glyph-name="j" unicode="j" horiz-adv-x="239" 
d="M-75 -198l218 672h107l-219 -672h-106zM164 555l38 115h117l-38 -115h-117z" />
    <glyph glyph-name="k" unicode="k" horiz-adv-x="518" 
d="M563 474l-247 -194l103 -280h-111l-78 212l-87 -69l-47 -143h-107l228 700h107l-133 -408l224 182h148z" />
    <glyph glyph-name="l" unicode="l" horiz-adv-x="240" 
d="M-11 0l228 700h107l-228 -700h-107z" />
    <glyph glyph-name="m" unicode="m" horiz-adv-x="769" 
d="M-11 0l154 474h107l-19 -60q51 70 138 70q42 0 69 -22.5t31 -62.5q58 85 156 85q52 0 82.5 -30t30.5 -82q0 -25 -11 -61l-101 -311h-107l97 297q6 19 6 32q0 61 -58 61q-34 0 -62.5 -24.5t-43.5 -68.5l-97 -297h-107l97 297q7 21 7 36q0 27 -15.5 42t-42.5 15
q-75 0 -110 -103l-94 -287h-107z" />
    <glyph glyph-name="n" unicode="n" horiz-adv-x="552" 
d="M-11 0l154 474h107l-21 -65q59 75 155 75q59 0 95 -37t36 -95q0 -30 -10 -57l-96 -295h-107l92 283q6 20 6 35q0 34 -20 55t-53 21q-49 0 -86.5 -32.5t-56.5 -92.5l-88 -269h-107z" />
    <glyph glyph-name="o" unicode="o" horiz-adv-x="594" 
d="M38 198q-2 117 85.5 202.5t218.5 83.5q98 0 156 -58.5t58 -149.5q2 -117 -85.5 -202.5t-218.5 -83.5q-98 0 -156 58.5t-58 149.5zM448 269q0 51 -34 85q-33 35 -85 35q-80 0 -131.5 -53.5t-51.5 -130.5q0 -51 33 -85q35 -35 86 -35q80 0 131.5 53.5t51.5 130.5z" />
    <glyph glyph-name="p" unicode="p" horiz-adv-x="598" 
d="M-75 -198l218 672h102l-22 -70q52 80 158 80q81 0 130.5 -52.5t49.5 -144.5q0 -128 -83.5 -212.5t-210.5 -84.5q-53 0 -91 28.5t-51 70.5l-93 -287h-107zM453 273q0 54 -31.5 86t-85.5 32q-67 2 -122.5 -58t-53.5 -134q0 -51 31 -82.5t84 -31.5q75 0 126.5 54t51.5 134z
" />
    <glyph glyph-name="q" unicode="q" horiz-adv-x="599" 
d="M285 -198l81 251q-58 -63 -151 -63q-79 0 -127.5 57t-48.5 150q-2 118 80.5 203.5t209.5 83.5q55 0 96.5 -29.5t51.5 -76.5l31 96h102l-218 -672h-107zM441 276q0 53 -33 84t-85 31q-75 0 -125.5 -53t-50.5 -128q0 -59 31 -92t87 -33q71 0 123.5 58t52.5 133z" />
    <glyph glyph-name="r" unicode="r" horiz-adv-x="446" 
d="M-11 0l154 474h107l-20 -62q49 72 129 72q43 0 69 -25t26 -64q0 -43 -27 -95h-104q17 32 17 51q0 20 -14 31.5t-38 11.5q-65 0 -90 -82l-102 -312h-107z" />
    <glyph glyph-name="s" unicode="s" horiz-adv-x="484" 
d="M-4 136l100 29q14 -85 111 -85q45 0 74.5 18t29.5 48q0 26 -20 38.5t-78 27.5q-123 30 -123 127q0 66 53 105.5t147 39.5q69 0 112.5 -34.5t50.5 -94.5l-95 -18q-13 63 -82 63q-40 0 -63 -14.5t-23 -38.5q0 -22 24 -37t82 -29q62 -15 91.5 -45t29.5 -80q0 -76 -60 -121
t-166 -45q-81 0 -132 37.5t-63 108.5z" />
    <glyph glyph-name="t" unicode="t" horiz-adv-x="390" 
d="M37 0l125 384h-94l29 90h94l50 151h107l-50 -151h149l-29 -90h-149l-125 -384h-107z" />
    <glyph glyph-name="u" unicode="u" horiz-adv-x="552" 
d="M38 122q0 28 12 66l93 286h107l-92 -283q-6 -19 -6 -35q0 -34 20 -55t53 -21q49 0 86.5 32.5t56.5 92.5l88 269h107l-154 -474h-107l21 65q-32 -40 -68.5 -57.5t-86.5 -17.5q-59 0 -94.5 36.5t-35.5 95.5z" />
    <glyph glyph-name="v" unicode="v" horiz-adv-x="534" 
d="M202 474l19 -369l252 369h120l-335 -474h-128l-35 474h107z" />
    <glyph glyph-name="w" unicode="w" horiz-adv-x="752" 
d="M198 474l-20 -369l210 369h122l-22 -369l218 369h107l-286 -474h-128l11 333l-196 -333h-131l10 474h105z" />
    <glyph glyph-name="x" unicode="x" horiz-adv-x="484" 
d="M532 474l-229 -230l92 -244h-112l-59 169l-157 -169h-132l256 270l-80 204h113l46 -141l136 141h126z" />
    <glyph glyph-name="y" unicode="y" horiz-adv-x="513" 
d="M461 474h117l-472 -659h-110l137 194l-49 465h110l27 -339z" />
    <glyph glyph-name="z" unicode="z" horiz-adv-x="499" 
d="M378 0h-415l29 90l362 289h-263l31 95h405l-29 -90l-362 -289h273z" />
    <glyph glyph-name="braceleft" unicode="{" horiz-adv-x="327" 
d="M-6 -73q0 21 11 57l83 256q3 12 3 19q0 31 -34 31h-8l28 84h8q46 0 60 41l92 283q28 79 58.5 102t115.5 25h62l-27 -85h-48q-27 0 -42.5 -11.5t-24.5 -38.5l-90 -276q-24 -75 -105 -85q53 -8 53 -63q0 -16 -6 -34l-84 -258q-4 -12 -4 -21q0 -29 35 -29h50l-27 -85h-54
q-105 0 -105 88z" />
    <glyph glyph-name="bar" unicode="|" horiz-adv-x="237" 
d="M265 830h92l-318 -980h-92z" />
    <glyph glyph-name="braceright" unicode="}" horiz-adv-x="326" 
d="M394 737q0 -21 -11 -57l-83 -256q-3 -12 -3 -19q0 -31 34 -31h8l-28 -84h-8q-46 0 -60 -41l-92 -283q-28 -79 -58.5 -102t-115.5 -25h-62l27 85h48q27 0 42.5 11.5t24.5 38.5l90 276q24 75 105 85q-53 8 -53 63q0 16 6 34l84 258q4 12 4 21q0 29 -35 29h-50l27 85h54
q105 0 105 -88z" />
    <glyph glyph-name="asciitilde" unicode="~" horiz-adv-x="547" 
d="M159 213l-86 13q4 66 42.5 102.5t102.5 36.5q49 0 94 -39q31 -26 52 -26q24 0 39 17.5t15 44.5l88 -12q-1 -61 -43 -100q-41 -39 -106 -39q-48 0 -88 38q-30 27 -53 27t-39.5 -19t-17.5 -44z" />
    <glyph glyph-name="uni00A0" unicode="&#xa0;" horiz-adv-x="240" 
 />
    <glyph glyph-name="exclamdown" unicode="&#xa1;" horiz-adv-x="244" 
d="M268 502l-39 -120h-120l39 120h120zM200 322l-169 -520h-102l169 520h102z" />
    <glyph glyph-name="cent" unicode="&#xa2;" horiz-adv-x="585" 
d="M440 208l96 -31q-32 -90 -103 -138.5t-170 -48.5l-29 -88h-97l34 104q-62 23 -96 75t-34 122q0 121 80 198.5t205 82.5l29 88h97l-33 -100q54 -19 86.5 -61t34.5 -96l-92 -27q-8 65 -58 92l-98 -299q109 9 148 127zM201 100l95 291q-67 -11 -108 -60.5t-41 -121.5
q0 -74 54 -109z" />
    <glyph glyph-name="sterling" unicode="&#xa3;" horiz-adv-x="649" 
d="M488 160l89 -60q-31 -58 -75.5 -84t-117.5 -26q-77 0 -129 54q-55 -54 -136 -54q-52 0 -84 30t-32 79q0 59 38 92.5t101 33.5q56 0 97 -34q4 17 4 43q0 16 -5 41h-144l30 95h85q-19 61 -19 109q0 104 70.5 167.5t198.5 63.5q98 0 153.5 -54t55.5 -141l-110 -28
q0 57 -30.5 90t-86.5 33q-64 0 -101.5 -38.5t-37.5 -105.5q0 -30 16 -96h166l-30 -95h-120q1 -5 1 -24q0 -67 -26 -127q40 -34 85 -34q35 0 55.5 15.5t38.5 54.5zM203 104q-28 31 -63 31q-50 0 -50 -37q0 -15 12 -24t31 -9q39 0 70 39z" />
    <glyph glyph-name="currency" unicode="&#xa4;" horiz-adv-x="604" 
d="M481 177l48 -93l-86 -43l-47 92q-24 -7 -57 -7q-107 0 -173 82l-92 -47l-44 85l92 47q-7 29 -7 57q0 107 82 173l-47 92l86 44l46 -92q29 7 57 7q108 0 174 -82l92 47l43 -86l-92 -47q7 -24 7 -56q0 -107 -82 -173zM339 226q53 0 88 36q36 36 36 88q0 53 -35.5 88.5
t-88.5 35.5q-52 0 -88 -36q-36 -34 -36 -88q0 -52 36 -88t88 -36z" />
    <glyph glyph-name="yen" unicode="&#xa5;" horiz-adv-x="694" 
d="M832 700l-326 -325h124l-31 -95h-185l-13 -40h185l-31 -95h-185l-47 -145h-108l47 145h-187l31 95h187l13 40h-187l31 95h126l-114 325h120l98 -321l308 321h144z" />
    <glyph glyph-name="brokenbar" unicode="&#xa6;" horiz-adv-x="237" 
d="M124 395l141 435h92l-141 -435h-92zM-53 -150l148 455h92l-148 -455h-92z" />
    <glyph glyph-name="section" unicode="&#xa7;" horiz-adv-x="564" 
d="M540 301q0 -50 -32 -85.5t-85 -51.5q22 -34 22 -81q0 -89 -63.5 -138t-185.5 -49q-90 0 -143.5 44.5t-53.5 112.5l100 23q0 -90 113 -90q60 0 97.5 24t37.5 63q0 35 -31.5 54.5t-108.5 33.5q-75 14 -111 52t-36 92q0 50 32 85.5t85 51.5q-22 34 -22 81q0 89 63.5 138
t184.5 49q89 0 143.5 -44.5t54.5 -112.5l-100 -23q0 90 -113 90q-60 0 -97.5 -24t-37.5 -63q0 -35 31.5 -54.5t108.5 -33.5q75 -14 111 -52t36 -92zM438 288q0 31 -28.5 49.5t-97.5 29.5q-40 6 -73 22q-35 -9 -56 -27.5t-21 -43.5q0 -31 28.5 -49.5t97.5 -29.5q40 -6 73 -22
q35 9 56 27.5t21 43.5z" />
    <glyph glyph-name="dieresis" unicode="&#xa8;" horiz-adv-x="370" 
d="M146 563l36 112h112l-36 -112h-112zM324 563l36 112h112l-36 -112h-112z" />
    <glyph glyph-name="copyright" unicode="&#xa9;" horiz-adv-x="560" 
d="M137 486q0 93 65 158.5t159 65.5t159 -65.5t65 -158.5t-65 -158.5t-159 -65.5t-159 65.5t-65 158.5zM535 486q0 73 -50 124t-124 51t-124 -51t-50 -124t50 -124t124 -51t124 51t50 124zM233 487q0 56 37 92q37 37 90 37q99 0 119 -91l-49 -15q-4 27 -23 43t-47 16
q-31 0 -52.5 -22t-21.5 -60q0 -37 22 -60t55 -23q67 0 79 70l47 -17q-13 -49 -46 -75t-80 -26q-58 0 -94 36t-36 95z" />
    <glyph glyph-name="ordfeminine" unicode="&#xaa;" horiz-adv-x="542" 
d="M124 440q0 117 75.5 193.5t189.5 76.5q51 0 85.5 -24t45.5 -66l26 80h97l-140 -429h-92l20 63q-47 -72 -149 -72q-70 0 -114 48.5t-44 129.5zM488 523q0 45 -28 73.5t-76 28.5q-68 0 -114.5 -49.5t-46.5 -123.5q0 -50 27.5 -78.5t75.5 -28.5q63 0 112.5 53.5t49.5 124.5z
" />
    <glyph glyph-name="guillemotleft" unicode="&#xab;" horiz-adv-x="523" 
d="M208 85l-142 208l10 30l272 192h16l-40 -122l-147 -88l-6 -16l86 -102l-33 -102h-16zM398 61l-142 208l10 30l272 192h16l-40 -122l-147 -88l-6 -16l86 -102l-33 -102h-16z" />
    <glyph glyph-name="logicalnot" unicode="&#xac;" horiz-adv-x="570" 
d="M412 220l37 115h-357l29 90h449l-66 -205h-92z" />
    <glyph glyph-name="uni00AD" unicode="&#xad;" horiz-adv-x="366" 
d="M38 205l30 95h270l-30 -95h-270z" />
    <glyph glyph-name="registered" unicode="&#xae;" horiz-adv-x="560" 
d="M137 486q0 93 65 158.5t159 65.5t159 -65.5t65 -158.5t-65 -158.5t-159 -65.5t-159 65.5t-65 158.5zM535 486q0 73 -50 124t-124 51t-124 -51t-50 -124t50 -124t124 -51t124 51t50 124zM268 361v251h115q38 0 59.5 -18.5t21.5 -49.5q0 -52 -48 -66q40 -16 40 -60
q0 -38 13 -51v-6h-54q-10 19 -10 57q0 26 -11 36.5t-34 10.5h-43v-104h-49zM317 508h60q37 0 37 31q0 30 -37 30h-60v-61z" />
    <glyph glyph-name="overscore" unicode="&#xaf;" horiz-adv-x="380" 
d="M169 576l26 78h260l-26 -78h-260z" />
    <glyph glyph-name="degree" unicode="&#xb0;" horiz-adv-x="423" 
d="M149 547q0 67 48 115t115 48t115 -48t48 -115t-48 -115t-115 -48t-115 48t-48 115zM395 547q0 35 -24 59t-59 24t-59 -24t-24 -59t24 -59t59 -24t59 24t24 59z" />
    <glyph glyph-name="plusminus" unicode="&#xb1;" horiz-adv-x="570" 
d="M203 125l51 155h-180l29 90h180l50 155h90l-50 -155h180l-29 -90h-180l-51 -155h-90zM-17 0l29 90h450l-29 -90h-450z" />
    <glyph glyph-name="uni00B2" unicode="&#xb2;" horiz-adv-x="308" 
d="M145 589q0 52 36.5 83.5t94.5 31.5q55 0 86 -26t31 -69q-3 -56 -29 -81.5t-90 -54.5q-61 -25 -79 -48h144l-21 -65h-240q21 64 54 100t86 55q56 21 78.5 39t22.5 45q0 18 -14 29.5t-35 11.5q-24 0 -39.5 -13.5t-15.5 -34.5q0 -17 10 -33l-55 -30q-25 25 -25 60z" />
    <glyph glyph-name="uni00B3" unicode="&#xb3;" horiz-adv-x="321" 
d="M97 457l69 23q2 -26 18 -41t41 -15q27 0 44.5 16t17.5 43q0 43 -42 43q-21 0 -35 -13l-27 49l106 73h-117l21 65h220l-18 -55l-94 -62q29 -7 46.5 -31.5t17.5 -61.5q0 -63 -39.5 -98.5t-110.5 -35.5q-51 0 -83.5 28.5t-34.5 72.5z" />
    <glyph glyph-name="acute" unicode="&#xb4;" horiz-adv-x="341" 
d="M176 555l106 133h147l-6 -16l-147 -117h-100z" />
    <glyph glyph-name="uni00B5" unicode="&#xb5;" horiz-adv-x="552" 
d="M-75 -198l218 672h107l-92 -283q-6 -19 -6 -35q0 -34 20 -55t53 -21q49 0 86.5 32.5t56.5 92.5l88 269h107l-154 -474h-107l21 65q-32 -40 -68.5 -57.5t-86.5 -17.5q-38 0 -69 20l-67 -208h-107z" />
    <glyph glyph-name="paragraph" unicode="&#xb6;" horiz-adv-x="561" 
d="M165 0l115 354h-14q-57 0 -98.5 38.5t-41.5 101.5q0 94 63.5 150t174.5 56h317l-23 -70h-45l-205 -630h-82l205 630h-79l-205 -630h-82zM285 424h18l67 206h-23q-59 0 -99 -36t-40 -93q0 -35 21.5 -56t55.5 -21z" />
    <glyph glyph-name="middot" unicode="&#xb7;" horiz-adv-x="245" 
d="M118 410h120l-38 -120h-120z" />
    <glyph glyph-name="cedilla" unicode="&#xb8;" horiz-adv-x="280" 
d="M-58 -122l58 13q1 -12 10 -20.5t23 -8.5q38 0 38 36q0 27 -28 27q-23 0 -37 -18l-44 20q25 40 43 89h60q-1 -1 -9 -13t-19 -27.5t-21 -26.5q21 21 53 21q26 0 42 -18t16 -48q0 -39 -29 -65.5t-74 -26.5q-34 0 -56.5 18t-25.5 48z" />
    <glyph glyph-name="uni00B9" unicode="&#xb9;" horiz-adv-x="217" 
d="M147 360l79 245q-35 -54 -101 -56l15 77q90 6 122 74h67l-110 -340h-72z" />
    <glyph glyph-name="ordmasculine" unicode="&#xba;" horiz-adv-x="534" 
d="M115 449q0 108 77.5 184.5t198.5 76.5q86 0 138 -52.5t52 -134.5q0 -108 -77.5 -184.5t-198.5 -76.5q-86 0 -138 52.5t-52 134.5zM483 516q0 46 -29.5 77t-76.5 31q-71 0 -117.5 -49.5t-46.5 -118.5q0 -46 29.5 -77t76.5 -31q71 0 117.5 49.5t46.5 118.5z" />
    <glyph glyph-name="guillemotright" unicode="&#xbb;" horiz-adv-x="523" 
d="M166 539l142 -208l-10 -30l-272 -192h-16l40 122l147 88l6 16l-86 102l33 102h16zM356 515l142 -208l-10 -30l-272 -192h-16l40 122l147 88l6 16l-86 102l33 102h16z" />
    <glyph glyph-name="onequarter" unicode="&#xbc;" horiz-adv-x="669" 
d="M147 360l79 245q-35 -54 -101 -56l15 77q90 6 122 74h67l-110 -340h-72zM580 561l42 -57l-559 -386l-42 57zM470 0l23 72h-163l24 72q49 40 78 79.5t46 94.5l7 22h70l-10 -31q-20 -61 -45.5 -99t-69.5 -73h84l32 98h72l-32 -98h39l-21 -65h-39l-23 -72h-72z" />
    <glyph glyph-name="onehalf" unicode="&#xbd;" horiz-adv-x="668" 
d="M147 360l79 245q-35 -54 -101 -56l15 77q90 6 122 74h67l-110 -340h-72zM580 561l42 -57l-559 -386l-42 57zM388 229q0 52 36.5 83.5t94.5 31.5q55 0 86 -26t31 -69q-3 -56 -29 -81.5t-90 -54.5q-61 -25 -79 -48h144l-21 -65h-240q21 64 54 100t86 55q56 21 78.5 39
t22.5 45q0 18 -14 29.5t-35 11.5q-24 0 -39.5 -13.5t-15.5 -34.5q0 -17 10 -33l-55 -30q-25 25 -25 60z" />
    <glyph glyph-name="threequarters" unicode="&#xbe;" horiz-adv-x="773" 
d="M97 457l69 23q2 -26 18 -41t41 -15q27 0 44.5 16t17.5 43q0 43 -42 43q-21 0 -35 -13l-27 49l106 73h-117l21 65h220l-18 -55l-94 -62q29 -7 46.5 -31.5t17.5 -61.5q0 -63 -39.5 -98.5t-110.5 -35.5q-51 0 -83.5 28.5t-34.5 72.5zM684 561l42 -57l-559 -386l-42 57z
M574 0l23 72h-163l24 72q49 40 78 79.5t46 94.5l7 22h70l-10 -31q-20 -61 -45.5 -99t-69.5 -73h84l32 98h72l-32 -98h39l-21 -65h-39l-23 -72h-72z" />
    <glyph glyph-name="questiondown" unicode="&#xbf;" horiz-adv-x="488" 
d="M389 502l-39 -120h-120l39 120h120zM400 195q0 -146 -226 -176q-65 -9 -94.5 -27t-29.5 -51q0 -29 22.5 -46.5t65.5 -17.5q51 0 85.5 25t55.5 80l85 -33q-26 -79 -90 -118t-154 -39q-79 0 -127.5 40t-48.5 98q0 73 49 111t157 54q77 12 111.5 33.5t34.5 57.5
q0 21 -16.5 34t-41.5 13q-40 0 -62 -16.5t-47 -61.5l-74 38q66 124 198 124q68 0 107.5 -32.5t39.5 -89.5z" />
    <glyph glyph-name="Agrave" unicode="&#xc0;" horiz-adv-x="752" 
d="M546 0l-11 170h-343l-122 -170h-135l516 700h152l60 -700h-117zM263 270h265l-23 337zM503 781l-83 117l6 16h137l36 -133h-96z" />
    <glyph glyph-name="Aacute" unicode="&#xc1;" horiz-adv-x="752" 
d="M546 0l-11 170h-343l-122 -170h-135l516 700h152l60 -700h-117zM263 270h265l-23 337zM501 782l106 133h147l-6 -16l-147 -117h-100z" />
    <glyph glyph-name="Acircumflex" unicode="&#xc2;" horiz-adv-x="752" 
d="M546 0l-11 170h-343l-122 -170h-135l516 700h152l60 -700h-117zM263 270h265l-23 337zM387 781l5 16l156 108h68l94 -108l-5 -16h-105l-30 64l-69 -64h-114z" />
    <glyph glyph-name="Atilde" unicode="&#xc3;" horiz-adv-x="752" 
d="M546 0l-11 170h-343l-122 -170h-135l516 700h152l60 -700h-117zM263 270h265l-23 337zM470 782l-70 10q3 51 32 81t84 30q39 0 75 -30q24 -21 43 -21q18 0 30 14.5t12 33.5l70 -10q-3 -51 -32 -81t-84 -30q-39 0 -75 30q-24 21 -43 21q-18 0 -30 -14.5t-12 -33.5z" />
    <glyph glyph-name="Adieresis" unicode="&#xc4;" horiz-adv-x="752" 
d="M546 0l-11 170h-343l-122 -170h-135l516 700h152l60 -700h-117zM263 270h265l-23 337zM411 789l36 112h112l-36 -112h-112zM589 789l36 112h112l-36 -112h-112z" />
    <glyph glyph-name="Aring" unicode="&#xc5;" horiz-adv-x="752" 
d="M546 0l-11 170h-343l-122 -170h-135l516 700h152l60 -700h-117zM263 270h265l-23 337zM484 853q0 39 27 66t66 27t66 -27t27 -66t-27 -66t-66 -27t-66 27t-27 66zM613 853q0 14 -11 25t-25 11t-25 -11t-11 -25t11 -25t25 -11t25 11t11 25z" />
    <glyph glyph-name="AE" unicode="&#xc6;" horiz-adv-x="971" 
d="M1028 595h-351l-59 -180h321l-34 -105h-321l-67 -205h361l-34 -105h-471l56 170h-212l-140 -170h-142l581 700h546zM461 270l106 325l-268 -325h162z" />
    <glyph glyph-name="Ccedilla" unicode="&#xc7;" horiz-adv-x="800" 
d="M83 293q-3 177 123 298t311 119q139 0 206 -64q69 -64 84 -171l-105 -32q-8 78 -60.5 122.5t-134.5 44.5q-131 2 -219.5 -88.5t-86.5 -218.5q0 -99 55.5 -156t148.5 -57q204 0 270 214l103 -35q-84 -279 -390 -279q-135 0 -220 83t-85 220zM295 -122l58 13
q1 -12 10 -20.5t23 -8.5q38 0 38 36q0 27 -28 27q-24 0 -37 -18l-44 20q25 40 43 89h60q-1 -1 -9 -13t-19 -27.5t-21 -26.5q21 21 53 21q26 0 42 -18t16 -48q0 -39 -29 -65.5t-74 -26.5q-34 0 -56.5 18t-25.5 48z" />
    <glyph glyph-name="Egrave" unicode="&#xc8;" horiz-adv-x="642" 
d="M223 700h510l-34 -105h-398l-59 -180h368l-34 -105h-368l-67 -205h408l-34 -105h-520zM454 781l-83 117l6 16h137l36 -133h-96z" />
    <glyph glyph-name="Eacute" unicode="&#xc9;" horiz-adv-x="642" 
d="M223 700h510l-34 -105h-398l-59 -180h368l-34 -105h-368l-67 -205h408l-34 -105h-520zM452 782l106 133h147l-6 -16l-147 -117h-100z" />
    <glyph glyph-name="Ecircumflex" unicode="&#xca;" horiz-adv-x="642" 
d="M223 700h510l-34 -105h-398l-59 -180h368l-34 -105h-368l-67 -205h408l-34 -105h-520zM338 781l5 16l156 108h68l94 -108l-5 -16h-105l-30 64l-69 -64h-114z" />
    <glyph glyph-name="Edieresis" unicode="&#xcb;" horiz-adv-x="642" 
d="M223 700h510l-34 -105h-398l-59 -180h368l-34 -105h-368l-67 -205h408l-34 -105h-520zM362 789l36 112h112l-36 -112h-112zM540 789l36 112h112l-36 -112h-112z" />
    <glyph glyph-name="Igrave" unicode="&#xcc;" horiz-adv-x="257" 
d="M-5 0l228 700h112l-228 -700h-112zM255 781l-83 117l6 16h137l36 -133h-96z" />
    <glyph glyph-name="Iacute" unicode="&#xcd;" horiz-adv-x="257" 
d="M-5 0l228 700h112l-228 -700h-112zM253 782l106 133h147l-6 -16l-147 -117h-100z" />
    <glyph glyph-name="Icircumflex" unicode="&#xce;" horiz-adv-x="257" 
d="M-5 0l228 700h112l-228 -700h-112zM139 781l5 16l156 108h68l94 -108l-5 -16h-105l-30 64l-69 -64h-114z" />
    <glyph glyph-name="Idieresis" unicode="&#xcf;" horiz-adv-x="257" 
d="M-5 0l228 700h112l-228 -700h-112zM163 789l36 112h112l-36 -112h-112zM341 789l36 112h112l-36 -112h-112z" />
    <glyph glyph-name="Eth" unicode="&#xd0;" horiz-adv-x="753" 
d="M-5 0l228 700h245q132 0 205 -78q73 -77 73 -212q1 -80 -30 -153.5t-88.5 -131.5t-150 -92t-206.5 -33h-276zM140 100h153q143 -2 241 85.5t96 211.5q0 98 -48 150.5t-135 52.5h-145zM44 395h394l-30 -90h-394z" />
    <glyph glyph-name="Ntilde" unicode="&#xd1;" horiz-adv-x="771" 
d="M309 620l-202 -620h-112l228 700h180l132 -621l202 621h112l-228 -700h-180zM479 782l-70 10q3 51 32 81t84 30q39 0 75 -30q24 -21 43 -21q18 0 30 14.5t12 33.5l70 -10q-3 -51 -32 -81t-84 -30q-39 0 -75 30q-24 21 -43 21q-18 0 -30 -14.5t-12 -33.5z" />
    <glyph glyph-name="Ograve" unicode="&#xd2;" horiz-adv-x="856" 
d="M82 293q-3 176 126 298t318 119q154 0 237.5 -85.5t83.5 -217.5q1 -86 -32 -163t-91.5 -133.5t-142 -89t-178.5 -31.5q-153 0 -237 86.5t-84 216.5zM728 401q0 93 -59.5 148.5t-158.5 55.5q-130 2 -220.5 -86.5t-88.5 -219.5q0 -92 60 -148t158 -56q127 -2 219 88t90 218
zM512 781l-83 117l6 16h137l36 -133h-96z" />
    <glyph glyph-name="Oacute" unicode="&#xd3;" horiz-adv-x="856" 
d="M82 293q-3 176 126 298t318 119q154 0 237.5 -85.5t83.5 -217.5q1 -86 -32 -163t-91.5 -133.5t-142 -89t-178.5 -31.5q-153 0 -237 86.5t-84 216.5zM728 401q0 93 -59.5 148.5t-158.5 55.5q-130 2 -220.5 -86.5t-88.5 -219.5q0 -92 60 -148t158 -56q127 -2 219 88t90 218
zM510 782l106 133h147l-6 -16l-147 -117h-100z" />
    <glyph glyph-name="Ocircumflex" unicode="&#xd4;" horiz-adv-x="856" 
d="M82 293q-3 176 126 298t318 119q154 0 237.5 -85.5t83.5 -217.5q1 -86 -32 -163t-91.5 -133.5t-142 -89t-178.5 -31.5q-153 0 -237 86.5t-84 216.5zM728 401q0 93 -59.5 148.5t-158.5 55.5q-130 2 -220.5 -86.5t-88.5 -219.5q0 -92 60 -148t158 -56q127 -2 219 88t90 218
zM396 781l5 16l156 108h68l94 -108l-5 -16h-105l-30 64l-69 -64h-114z" />
    <glyph glyph-name="Otilde" unicode="&#xd5;" horiz-adv-x="856" 
d="M82 293q-3 176 126 298t318 119q154 0 237.5 -85.5t83.5 -217.5q1 -86 -32 -163t-91.5 -133.5t-142 -89t-178.5 -31.5q-153 0 -237 86.5t-84 216.5zM728 401q0 93 -59.5 148.5t-158.5 55.5q-130 2 -220.5 -86.5t-88.5 -219.5q0 -92 60 -148t158 -56q127 -2 219 88t90 218
zM479 782l-70 10q3 51 32 81t84 30q39 0 75 -30q24 -21 43 -21q18 0 30 14.5t12 33.5l70 -10q-3 -51 -32 -81t-84 -30q-39 0 -75 30q-24 21 -43 21q-18 0 -30 -14.5t-12 -33.5z" />
    <glyph glyph-name="Odieresis" unicode="&#xd6;" horiz-adv-x="856" 
d="M82 293q-3 176 126 298t318 119q154 0 237.5 -85.5t83.5 -217.5q1 -86 -32 -163t-91.5 -133.5t-142 -89t-178.5 -31.5q-153 0 -237 86.5t-84 216.5zM728 401q0 93 -59.5 148.5t-158.5 55.5q-130 2 -220.5 -86.5t-88.5 -219.5q0 -92 60 -148t158 -56q127 -2 219 88t90 218
zM420 789l36 112h112l-36 -112h-112zM598 789l36 112h112l-36 -112h-112z" />
    <glyph glyph-name="multiply" unicode="&#xd7;" horiz-adv-x="502" 
d="M509 417l-174 -127l82 -129l-81 -52l-79 124l-171 -124l-53 74l174 127l-82 129l81 52l79 -124l171 124z" />
    <glyph glyph-name="Oslash" unicode="&#xd8;" horiz-adv-x="856" 
d="M82 293q-3 176 126 298t318 119q154 0 237.5 -85.5t83.5 -217.5q1 -86 -32 -163t-91.5 -133.5t-142 -89t-178.5 -31.5q-153 0 -237 86.5t-84 216.5zM728 401q0 93 -59.5 148.5t-158.5 55.5q-130 2 -220.5 -86.5t-88.5 -219.5q0 -92 60 -148t158 -56q127 -2 219 88t90 218
zM119 -34l-57 62l749 706l57 -62z" />
    <glyph glyph-name="Ugrave" unicode="&#xd9;" horiz-adv-x="712" 
d="M68 193q0 57 22 123l124 384h112l-134 -414q-13 -38 -13 -79q0 -53 37 -82.5t101 -29.5q82 0 143.5 49.5t91.5 141.5l134 414h112l-142 -438q-87 -272 -365 -272q-98 0 -160.5 55t-62.5 148zM479 781l-83 117l6 16h137l36 -133h-96z" />
    <glyph glyph-name="Uacute" unicode="&#xda;" horiz-adv-x="712" 
d="M68 193q0 57 22 123l124 384h112l-134 -414q-13 -38 -13 -79q0 -53 37 -82.5t101 -29.5q82 0 143.5 49.5t91.5 141.5l134 414h112l-142 -438q-87 -272 -365 -272q-98 0 -160.5 55t-62.5 148zM477 782l106 133h147l-6 -16l-147 -117h-100z" />
    <glyph glyph-name="Ucircumflex" unicode="&#xdb;" horiz-adv-x="712" 
d="M68 193q0 57 22 123l124 384h112l-134 -414q-13 -38 -13 -79q0 -53 37 -82.5t101 -29.5q82 0 143.5 49.5t91.5 141.5l134 414h112l-142 -438q-87 -272 -365 -272q-98 0 -160.5 55t-62.5 148zM363 781l5 16l156 108h68l94 -108l-5 -16h-105l-30 64l-69 -64h-114z" />
    <glyph glyph-name="Udieresis" unicode="&#xdc;" horiz-adv-x="712" 
d="M68 193q0 57 22 123l124 384h112l-134 -414q-13 -38 -13 -79q0 -53 37 -82.5t101 -29.5q82 0 143.5 49.5t91.5 141.5l134 414h112l-142 -438q-87 -272 -365 -272q-98 0 -160.5 55t-62.5 148zM387 789l36 112h112l-36 -112h-112zM565 789l36 112h112l-36 -112h-112z" />
    <glyph glyph-name="Yacute" unicode="&#xdd;" horiz-adv-x="694" 
d="M213 0l93 285l-144 415h125l98 -315l303 315h144l-414 -415l-93 -285h-112zM455 782l106 133h147l-6 -16l-147 -117h-100z" />
    <glyph glyph-name="Thorn" unicode="&#xde;" horiz-adv-x="688" 
d="M-5 0l228 700h112l-44 -135h177q92 0 148 -52t56 -134q0 -108 -82 -171t-223 -63h-213l-47 -145h-112zM188 250h203q74 0 117 31.5t43 87.5q0 44 -27 67.5t-75 23.5h-192z" />
    <glyph glyph-name="germandbls" unicode="&#xdf;" horiz-adv-x="610" 
d="M293 86q59 0 103.5 43t44.5 104t-34.5 92t-97.5 31l29 90q66 5 104 33.5t38 74.5q0 30 -17.5 48t-47.5 18q-76 0 -106 -97l-170 -523h-107l116 356h-85l29 90h85l29 88q59 176 219 176q76 0 119 -36t43 -104q0 -62 -42 -106q-43 -45 -103 -55q49 -18 78.5 -61.5
t29.5 -100.5q0 -115 -71 -186t-197 -71q-63 0 -104 22l42 97q32 -23 73 -23z" />
    <glyph glyph-name="agrave" unicode="&#xe0;" horiz-adv-x="598" 
d="M37 187q0 128 83.5 212.5t210.5 84.5q56 0 93.5 -26.5t48.5 -72.5l29 89h107l-154 -474h-102l22 70q-52 -80 -163 -80q-77 0 -126 52.5t-49 144.5zM438 275q0 51 -31 82.5t-84 31.5q-75 0 -126.5 -54t-51.5 -134q0 -54 31.5 -86t85.5 -32q67 -2 122.5 58t53.5 134z
M324 555l-83 117l6 16h137l36 -133h-96z" />
    <glyph glyph-name="aacute" unicode="&#xe1;" horiz-adv-x="598" 
d="M37 187q0 128 83.5 212.5t210.5 84.5q56 0 93.5 -26.5t48.5 -72.5l29 89h107l-154 -474h-102l22 70q-52 -80 -163 -80q-77 0 -126 52.5t-49 144.5zM438 275q0 51 -31 82.5t-84 31.5q-75 0 -126.5 -54t-51.5 -134q0 -54 31.5 -86t85.5 -32q67 -2 122.5 58t53.5 134z
M321 555l106 133h147l-6 -16l-147 -117h-100z" />
    <glyph glyph-name="acircumflex" unicode="&#xe2;" horiz-adv-x="598" 
d="M37 187q0 128 83.5 212.5t210.5 84.5q56 0 93.5 -26.5t48.5 -72.5l29 89h107l-154 -474h-102l22 70q-52 -80 -163 -80q-77 0 -126 52.5t-49 144.5zM438 275q0 51 -31 82.5t-84 31.5q-75 0 -126.5 -54t-51.5 -134q0 -54 31.5 -86t85.5 -32q67 -2 122.5 58t53.5 134z
M204 555l5 16l156 108h68l94 -108l-5 -16h-105l-30 64l-69 -64h-114z" />
    <glyph glyph-name="atilde" unicode="&#xe3;" horiz-adv-x="598" 
d="M37 187q0 128 83.5 212.5t210.5 84.5q56 0 93.5 -26.5t48.5 -72.5l29 89h107l-154 -474h-102l22 70q-52 -80 -163 -80q-77 0 -126 52.5t-49 144.5zM438 275q0 51 -31 82.5t-84 31.5q-75 0 -126.5 -54t-51.5 -134q0 -54 31.5 -86t85.5 -32q67 -2 122.5 58t53.5 134z
M287 556l-70 10q3 51 32 81t84 30q39 0 75 -30q24 -21 43 -21q18 0 30 14.5t12 33.5l70 -10q-3 -51 -32 -81t-84 -30q-39 0 -75 30q-24 21 -43 21q-18 0 -30 -14.5t-12 -33.5z" />
    <glyph glyph-name="adieresis" unicode="&#xe4;" horiz-adv-x="598" 
d="M37 187q0 128 83.5 212.5t210.5 84.5q56 0 93.5 -26.5t48.5 -72.5l29 89h107l-154 -474h-102l22 70q-52 -80 -163 -80q-77 0 -126 52.5t-49 144.5zM438 275q0 51 -31 82.5t-84 31.5q-75 0 -126.5 -54t-51.5 -134q0 -54 31.5 -86t85.5 -32q67 -2 122.5 58t53.5 134z
M228 563l36 112h112l-36 -112h-112zM406 563l36 112h112l-36 -112h-112z" />
    <glyph glyph-name="aring" unicode="&#xe5;" horiz-adv-x="598" 
d="M37 187q0 128 83.5 212.5t210.5 84.5q56 0 93.5 -26.5t48.5 -72.5l29 89h107l-154 -474h-102l22 70q-52 -80 -163 -80q-77 0 -126 52.5t-49 144.5zM438 275q0 51 -31 82.5t-84 31.5q-75 0 -126.5 -54t-51.5 -134q0 -54 31.5 -86t85.5 -32q67 -2 122.5 58t53.5 134z
M292 627q0 39 27 66t66 27t66 -27t27 -66t-27 -66t-66 -27t-66 27t-27 66zM421 627q0 14 -11 25t-25 11t-25 -11t-11 -25t11 -25t25 -11t25 11t11 25z" />
    <glyph glyph-name="ae" unicode="&#xe6;" horiz-adv-x="942" 
d="M37 187q0 128 83.5 212.5t210.5 84.5q56 0 93.5 -26.5t48.5 -72.5l29 89h107l-15 -46q46 56 142 56q76 0 122.5 -48.5t46.5 -118.5q0 -36 -11 -77l-6 -20h-355q-1 -5 -1 -20q0 -54 33.5 -88t82.5 -34q99 0 141 93l89 -33q-67 -148 -248 -148q-108 0 -152 81l-23 -71h-102
l22 70q-52 -80 -163 -80q-77 0 -126 52.5t-49 144.5zM549 290h257q1 7 1 21q0 38 -27 60.5t-70 22.5q-110 0 -161 -104zM438 275q0 51 -31 82.5t-84 31.5q-75 0 -126.5 -54t-51.5 -134q0 -54 31.5 -86t85.5 -32q67 -2 122.5 58t53.5 134z" />
    <glyph glyph-name="ccedilla" unicode="&#xe7;" horiz-adv-x="585" 
d="M41 203q0 125 84.5 203t216.5 78q87 0 141 -49t57 -120l-92 -27q-5 49 -36.5 77.5t-80.5 28.5q-80 0 -132 -52t-52 -133q0 -57 34.5 -93t90.5 -36q126 0 168 128l96 -31q-32 -91 -103 -139t-171 -48q-101 0 -161 60.5t-60 152.5zM162 -122l58 13q1 -12 10 -20.5t23 -8.5
q38 0 38 36q0 27 -28 27q-23 0 -37 -18l-44 20q25 40 43 89h60q-1 -1 -9 -13t-19 -27.5t-21 -26.5q21 21 53 21q26 0 42 -18t16 -48q0 -39 -29 -65.5t-74 -26.5q-34 0 -56.5 18t-25.5 48z" />
    <glyph glyph-name="egrave" unicode="&#xe8;" horiz-adv-x="555" 
d="M518 317q0 -36 -11 -77l-6 -20h-356v-15q0 -56 32 -90.5t83 -34.5q102 0 142 91l89 -33q-67 -148 -251 -148q-87 0 -144 59.5t-57 150.5q-2 120 85.5 203t208.5 81q87 0 136 -48t49 -119zM420 311q0 38 -27 60.5t-70 22.5q-57 0 -98.5 -27.5t-62.5 -76.5h257q1 7 1 21z
M327 555l-83 117l6 16h137l36 -133h-96z" />
    <glyph glyph-name="eacute" unicode="&#xe9;" horiz-adv-x="555" 
d="M518 317q0 -36 -11 -77l-6 -20h-356v-15q0 -56 32 -90.5t83 -34.5q102 0 142 91l89 -33q-67 -148 -251 -148q-87 0 -144 59.5t-57 150.5q-2 120 85.5 203t208.5 81q87 0 136 -48t49 -119zM420 311q0 38 -27 60.5t-70 22.5q-57 0 -98.5 -27.5t-62.5 -76.5h257q1 7 1 21z
M324 555l106 133h147l-6 -16l-147 -117h-100z" />
    <glyph glyph-name="ecircumflex" unicode="&#xea;" horiz-adv-x="555" 
d="M518 317q0 -36 -11 -77l-6 -20h-356v-15q0 -56 32 -90.5t83 -34.5q102 0 142 91l89 -33q-67 -148 -251 -148q-87 0 -144 59.5t-57 150.5q-2 120 85.5 203t208.5 81q87 0 136 -48t49 -119zM420 311q0 38 -27 60.5t-70 22.5q-57 0 -98.5 -27.5t-62.5 -76.5h257q1 7 1 21z
M207 555l5 16l156 108h68l94 -108l-5 -16h-105l-30 64l-69 -64h-114z" />
    <glyph glyph-name="edieresis" unicode="&#xeb;" horiz-adv-x="555" 
d="M518 317q0 -36 -11 -77l-6 -20h-356v-15q0 -56 32 -90.5t83 -34.5q102 0 142 91l89 -33q-67 -148 -251 -148q-87 0 -144 59.5t-57 150.5q-2 120 85.5 203t208.5 81q87 0 136 -48t49 -119zM420 311q0 38 -27 60.5t-70 22.5q-57 0 -98.5 -27.5t-62.5 -76.5h257q1 7 1 21z
M231 563l36 112h112l-36 -112h-112zM409 563l36 112h112l-36 -112h-112z" />
    <glyph glyph-name="igrave" unicode="&#xec;" horiz-adv-x="239" 
d="M143 474h107l-154 -474h-107zM177 555l-83 117l6 16h137l36 -133h-96z" />
    <glyph glyph-name="iacute" unicode="&#xed;" horiz-adv-x="239" 
d="M143 474h107l-154 -474h-107zM174 555l106 133h147l-6 -16l-147 -117h-100z" />
    <glyph glyph-name="icircumflex" unicode="&#xee;" horiz-adv-x="239" 
d="M143 474h107l-154 -474h-107zM57 555l5 16l156 108h68l94 -108l-5 -16h-105l-30 64l-69 -64h-114z" />
    <glyph glyph-name="idieresis" unicode="&#xef;" horiz-adv-x="239" 
d="M143 474h107l-154 -474h-107zM81 563l36 112h112l-36 -112h-112zM259 563l36 112h112l-36 -112h-112z" />
    <glyph glyph-name="eth" unicode="&#xf0;" horiz-adv-x="588" 
d="M563 359q0 -167 -81 -268t-233 -101q-84 0 -146 61.5t-62 151.5q-2 123 82.5 203t204.5 78q49 0 85.5 -23.5t54.5 -62.5q-4 75 -57 146l-48 -36l-43 58l43 32q-27 24 -50 38l60 74q40 -24 69 -53l71 53l43 -58l-66 -50q73 -103 73 -243zM437 268q0 55 -31.5 88t-82.5 33
q-77 0 -126 -49q-48 -50 -48 -128q0 -56 34 -91.5t85 -35.5q76 0 122.5 49.5t46.5 133.5z" />
    <glyph glyph-name="ntilde" unicode="&#xf1;" horiz-adv-x="552" 
d="M-11 0l154 474h107l-21 -65q59 75 155 75q59 0 95 -37t36 -95q0 -30 -10 -57l-96 -295h-107l92 283q6 20 6 35q0 34 -20 55t-53 21q-49 0 -86.5 -32.5t-56.5 -92.5l-88 -269h-107zM303 556l-70 10q3 51 32 81t84 30q39 0 75 -30q24 -21 43 -21q18 0 30 14.5t12 33.5
l70 -10q-3 -51 -32 -81t-84 -30q-39 0 -75 30q-24 21 -43 21q-18 0 -30 -14.5t-12 -33.5z" />
    <glyph glyph-name="ograve" unicode="&#xf2;" horiz-adv-x="594" 
d="M38 198q-2 117 85.5 202.5t218.5 83.5q98 0 156 -58.5t58 -149.5q2 -117 -85.5 -202.5t-218.5 -83.5q-98 0 -156 58.5t-58 149.5zM448 269q0 51 -34 85q-33 35 -85 35q-80 0 -131.5 -53.5t-51.5 -130.5q0 -51 33 -85q35 -35 86 -35q80 0 131.5 53.5t51.5 130.5zM330 555
l-83 117l6 16h137l36 -133h-96z" />
    <glyph glyph-name="oacute" unicode="&#xf3;" horiz-adv-x="594" 
d="M38 198q-2 117 85.5 202.5t218.5 83.5q98 0 156 -58.5t58 -149.5q2 -117 -85.5 -202.5t-218.5 -83.5q-98 0 -156 58.5t-58 149.5zM448 269q0 51 -34 85q-33 35 -85 35q-80 0 -131.5 -53.5t-51.5 -130.5q0 -51 33 -85q35 -35 86 -35q80 0 131.5 53.5t51.5 130.5zM327 555
l106 133h147l-6 -16l-147 -117h-100z" />
    <glyph glyph-name="ocircumflex" unicode="&#xf4;" horiz-adv-x="594" 
d="M38 198q-2 117 85.5 202.5t218.5 83.5q98 0 156 -58.5t58 -149.5q2 -117 -85.5 -202.5t-218.5 -83.5q-98 0 -156 58.5t-58 149.5zM448 269q0 51 -34 85q-33 35 -85 35q-80 0 -131.5 -53.5t-51.5 -130.5q0 -51 33 -85q35 -35 86 -35q80 0 131.5 53.5t51.5 130.5zM210 555
l5 16l156 108h68l94 -108l-5 -16h-105l-30 64l-69 -64h-114z" />
    <glyph glyph-name="otilde" unicode="&#xf5;" horiz-adv-x="594" 
d="M38 198q-2 117 85.5 202.5t218.5 83.5q98 0 156 -58.5t58 -149.5q2 -117 -85.5 -202.5t-218.5 -83.5q-98 0 -156 58.5t-58 149.5zM448 269q0 51 -34 85q-33 35 -85 35q-80 0 -131.5 -53.5t-51.5 -130.5q0 -51 33 -85q35 -35 86 -35q80 0 131.5 53.5t51.5 130.5zM293 556
l-70 10q3 51 32 81t84 30q39 0 75 -30q24 -21 43 -21q18 0 30 14.5t12 33.5l70 -10q-3 -51 -32 -81t-84 -30q-39 0 -75 30q-24 21 -43 21q-18 0 -30 -14.5t-12 -33.5z" />
    <glyph glyph-name="odieresis" unicode="&#xf6;" horiz-adv-x="594" 
d="M38 198q-2 117 85.5 202.5t218.5 83.5q98 0 156 -58.5t58 -149.5q2 -117 -85.5 -202.5t-218.5 -83.5q-98 0 -156 58.5t-58 149.5zM448 269q0 51 -34 85q-33 35 -85 35q-80 0 -131.5 -53.5t-51.5 -130.5q0 -51 33 -85q35 -35 86 -35q80 0 131.5 53.5t51.5 130.5zM234 563
l36 112h112l-36 -112h-112zM412 563l36 112h112l-36 -112h-112z" />
    <glyph glyph-name="divide" unicode="&#xf7;" horiz-adv-x="571" 
d="M290 405l33 100h100l-33 -100h-100zM66 255l30 90h450l-30 -90h-450zM189 95l33 100h100l-33 -100h-100z" />
    <glyph glyph-name="oslash" unicode="&#xf8;" horiz-adv-x="594" 
d="M556 276q2 -117 -85.5 -202.5t-218.5 -83.5q-38 0 -70 9l-43 -61l-68 49l36 51q-69 57 -69 160q-2 117 85.5 202.5t218.5 83.5q38 0 71 -9l43 61l68 -49l-36 -52q68 -57 68 -159zM171 130l181 257q-22 2 -23 2q-80 0 -131.5 -53.5t-51.5 -130.5q0 -44 25 -75zM448 269
q0 43 -25 75l-180 -257q18 -2 22 -2q80 0 131.5 53.5t51.5 130.5z" />
    <glyph glyph-name="ugrave" unicode="&#xf9;" horiz-adv-x="552" 
d="M38 122q0 28 12 66l93 286h107l-92 -283q-6 -19 -6 -35q0 -34 20 -55t53 -21q49 0 86.5 32.5t56.5 92.5l88 269h107l-154 -474h-107l21 65q-32 -40 -68.5 -57.5t-86.5 -17.5q-59 0 -94.5 36.5t-35.5 95.5zM331 555l-83 117l6 16h137l36 -133h-96z" />
    <glyph glyph-name="uacute" unicode="&#xfa;" horiz-adv-x="552" 
d="M38 122q0 28 12 66l93 286h107l-92 -283q-6 -19 -6 -35q0 -34 20 -55t53 -21q49 0 86.5 32.5t56.5 92.5l88 269h107l-154 -474h-107l21 65q-32 -40 -68.5 -57.5t-86.5 -17.5q-59 0 -94.5 36.5t-35.5 95.5zM328 555l106 133h147l-6 -16l-147 -117h-100z" />
    <glyph glyph-name="ucircumflex" unicode="&#xfb;" horiz-adv-x="552" 
d="M38 122q0 28 12 66l93 286h107l-92 -283q-6 -19 -6 -35q0 -34 20 -55t53 -21q49 0 86.5 32.5t56.5 92.5l88 269h107l-154 -474h-107l21 65q-32 -40 -68.5 -57.5t-86.5 -17.5q-59 0 -94.5 36.5t-35.5 95.5zM211 555l5 16l156 108h68l94 -108l-5 -16h-105l-30 64l-69 -64
h-114z" />
    <glyph glyph-name="udieresis" unicode="&#xfc;" horiz-adv-x="552" 
d="M38 122q0 28 12 66l93 286h107l-92 -283q-6 -19 -6 -35q0 -34 20 -55t53 -21q49 0 86.5 32.5t56.5 92.5l88 269h107l-154 -474h-107l21 65q-32 -40 -68.5 -57.5t-86.5 -17.5q-59 0 -94.5 36.5t-35.5 95.5zM235 563l36 112h112l-36 -112h-112zM413 563l36 112h112
l-36 -112h-112z" />
    <glyph glyph-name="yacute" unicode="&#xfd;" horiz-adv-x="513" 
d="M461 474h117l-472 -659h-110l137 194l-49 465h110l27 -339zM304 555l106 133h147l-6 -16l-147 -117h-100z" />
    <glyph glyph-name="thorn" unicode="&#xfe;" horiz-adv-x="598" 
d="M-75 -198l292 898h106l-93 -286q54 70 151 70q81 0 130.5 -52.5t49.5 -144.5q0 -128 -83.5 -212.5t-210.5 -84.5q-53 0 -91 28.5t-51 70.5l-93 -287h-107zM453 273q0 54 -31.5 86t-85.5 32q-67 2 -122.5 -58t-53.5 -134q0 -51 31 -82.5t84 -31.5q75 0 126.5 54t51.5 134z
" />
    <glyph glyph-name="ydieresis" unicode="&#xff;" horiz-adv-x="513" 
d="M461 474h117l-472 -659h-110l137 194l-49 465h110l27 -339zM211 563l36 112h112l-36 -112h-112zM389 563l36 112h112l-36 -112h-112z" />
    <glyph glyph-name="Amacron" unicode="&#x100;" horiz-adv-x="752" 
d="M546 0l-11 170h-343l-122 -170h-135l516 700h152l60 -700h-117zM263 270h265l-23 337zM429 802l26 78h260l-26 -78h-260z" />
    <glyph glyph-name="amacron" unicode="&#x101;" horiz-adv-x="598" 
d="M37 187q0 128 83.5 212.5t210.5 84.5q56 0 93.5 -26.5t48.5 -72.5l29 89h107l-154 -474h-102l22 70q-52 -80 -163 -80q-77 0 -126 52.5t-49 144.5zM438 275q0 51 -31 82.5t-84 31.5q-75 0 -126.5 -54t-51.5 -134q0 -54 31.5 -86t85.5 -32q67 -2 122.5 58t53.5 134z
M247 576l26 78h260l-26 -78h-260z" />
    <glyph glyph-name="Abreve" unicode="&#x102;" horiz-adv-x="752" 
d="M546 0l-11 170h-343l-122 -170h-135l516 700h152l60 -700h-117zM263 270h265l-23 337zM448 861q0 22 9 43h75q-5 -15 -5 -24q0 -13 10.5 -22t27.5 -9q28 0 46 16t18 39h76q-4 -59 -45 -92t-105 -33q-49 0 -78 21.5t-29 60.5z" />
    <glyph glyph-name="abreve" unicode="&#x103;" horiz-adv-x="598" 
d="M37 187q0 128 83.5 212.5t210.5 84.5q56 0 93.5 -26.5t48.5 -72.5l29 89h107l-154 -474h-102l22 70q-52 -80 -163 -80q-77 0 -126 52.5t-49 144.5zM438 275q0 51 -31 82.5t-84 31.5q-75 0 -126.5 -54t-51.5 -134q0 -54 31.5 -86t85.5 -32q67 -2 122.5 58t53.5 134z
M277 635q0 22 9 43h75q-5 -15 -5 -24q0 -13 10.5 -22t27.5 -9q28 0 46 16t18 39h76q-4 -59 -45 -92t-105 -33q-49 0 -78 21.5t-29 60.5z" />
    <glyph glyph-name="Aogonek" unicode="&#x104;" horiz-adv-x="752" 
d="M546 0l-11 170h-343l-122 -170h-135l516 700h152l60 -700h-117zM263 270h265l-23 337zM576 -190q-39 0 -62 20.5t-23 54.5q0 36 27.5 66.5t76.5 48.5h68q-42 -23 -62 -42t-20 -41q0 -25 27 -25q13 0 32 10l17 -69q-35 -23 -81 -23z" />
    <glyph glyph-name="aogonek" unicode="&#x105;" horiz-adv-x="598" 
d="M37 187q0 128 83.5 212.5t210.5 84.5q56 0 93.5 -26.5t48.5 -72.5l29 89h107l-154 -474h-102l22 70q-52 -80 -163 -80q-77 0 -126 52.5t-49 144.5zM438 275q0 51 -31 82.5t-84 31.5q-75 0 -126.5 -54t-51.5 -134q0 -54 31.5 -86t85.5 -32q67 -2 122.5 58t53.5 134z
M368 -190q-39 0 -62 20.5t-23 54.5q0 36 27.5 66.5t76.5 48.5h68q-42 -23 -62 -42t-20 -41q0 -25 27 -25q13 0 32 10l17 -69q-35 -23 -81 -23z" />
    <glyph glyph-name="Cacute" unicode="&#x106;" horiz-adv-x="800" 
d="M83 293q-3 177 123 298t311 119q139 0 206 -64q69 -64 84 -171l-105 -32q-8 78 -60.5 122.5t-134.5 44.5q-131 2 -219.5 -88.5t-86.5 -218.5q0 -99 55.5 -156t148.5 -57q204 0 270 214l103 -35q-84 -279 -390 -279q-135 0 -220 83t-85 220zM525 782l106 133h147l-6 -16
l-147 -117h-100z" />
    <glyph glyph-name="cacute" unicode="&#x107;" horiz-adv-x="585" 
d="M41 203q0 125 84.5 203t216.5 78q87 0 141 -49t57 -120l-92 -27q-5 49 -36.5 77.5t-80.5 28.5q-80 0 -132 -52t-52 -133q0 -57 34.5 -93t90.5 -36q126 0 168 128l96 -31q-32 -91 -103 -139t-171 -48q-101 0 -161 60.5t-60 152.5zM332 555l106 133h147l-6 -16l-147 -117
h-100z" />
    <glyph glyph-name="Ccircumflex" unicode="&#x108;" horiz-adv-x="800" 
d="M83 293q-3 177 123 298t311 119q139 0 206 -64q69 -64 84 -171l-105 -32q-8 78 -60.5 122.5t-134.5 44.5q-131 2 -219.5 -88.5t-86.5 -218.5q0 -99 55.5 -156t148.5 -57q204 0 270 214l103 -35q-84 -279 -390 -279q-135 0 -220 83t-85 220zM411 781l5 16l156 108h68
l94 -108l-5 -16h-105l-30 64l-69 -64h-114z" />
    <glyph glyph-name="ccircumflex" unicode="&#x109;" horiz-adv-x="585" 
d="M41 203q0 125 84.5 203t216.5 78q87 0 141 -49t57 -120l-92 -27q-5 49 -36.5 77.5t-80.5 28.5q-80 0 -132 -52t-52 -133q0 -57 34.5 -93t90.5 -36q126 0 168 128l96 -31q-32 -91 -103 -139t-171 -48q-101 0 -161 60.5t-60 152.5zM215 555l5 16l156 108h68l94 -108l-5 -16
h-105l-30 64l-69 -64h-114z" />
    <glyph glyph-name="Cdotaccent" unicode="&#x10a;" horiz-adv-x="800" 
d="M83 293q-3 177 123 298t311 119q139 0 206 -64q69 -64 84 -171l-105 -32q-8 78 -60.5 122.5t-134.5 44.5q-131 2 -219.5 -88.5t-86.5 -218.5q0 -99 55.5 -156t148.5 -57q204 0 270 214l103 -35q-84 -279 -390 -279q-135 0 -220 83t-85 220zM526 802l38 115h117l-38 -115
h-117z" />
    <glyph glyph-name="cdotaccent" unicode="&#x10b;" horiz-adv-x="585" 
d="M41 203q0 125 84.5 203t216.5 78q87 0 141 -49t57 -120l-92 -27q-5 49 -36.5 77.5t-80.5 28.5q-80 0 -132 -52t-52 -133q0 -57 34.5 -93t90.5 -36q126 0 168 128l96 -31q-32 -91 -103 -139t-171 -48q-101 0 -161 60.5t-60 152.5zM322 555l38 115h117l-38 -115h-117z" />
    <glyph glyph-name="Ccaron" unicode="&#x10c;" horiz-adv-x="800" 
d="M83 293q-3 177 123 298t311 119q139 0 206 -64q69 -64 84 -171l-105 -32q-8 78 -60.5 122.5t-134.5 44.5q-131 2 -219.5 -88.5t-86.5 -218.5q0 -99 55.5 -156t148.5 -57q204 0 270 214l103 -35q-84 -279 -390 -279q-135 0 -220 83t-85 220zM537 781l-94 108l5 16h102
l33 -64l67 64h116l-5 -16l-153 -108h-71z" />
    <glyph glyph-name="ccaron" unicode="&#x10d;" horiz-adv-x="585" 
d="M41 203q0 125 84.5 203t216.5 78q87 0 141 -49t57 -120l-92 -27q-5 49 -36.5 77.5t-80.5 28.5q-80 0 -132 -52t-52 -133q0 -57 34.5 -93t90.5 -36q126 0 168 128l96 -31q-32 -91 -103 -139t-171 -48q-101 0 -161 60.5t-60 152.5zM346 555l-94 108l5 16h102l33 -64l67 64
h116l-5 -16l-153 -108h-71z" />
    <glyph glyph-name="Dcaron" unicode="&#x10e;" horiz-adv-x="753" 
d="M-5 0l228 700h245q132 0 205 -78q73 -77 73 -212q1 -80 -30 -153.5t-88.5 -131.5t-150 -92t-206.5 -33h-276zM140 100h153q143 -2 241 85.5t96 211.5q0 98 -48 150.5t-135 52.5h-145zM426 781l-94 108l5 16h102l33 -64l67 64h116l-5 -16l-153 -108h-71z" />
    <glyph glyph-name="dcaron" unicode="&#x10f;" horiz-adv-x="712" 
d="M37 187q0 128 83.5 212.5t210.5 84.5q56 0 93.5 -26.5t48.5 -72.5l102 315h107l-227 -700h-102l22 70q-52 -80 -163 -80q-77 0 -126 52.5t-49 144.5zM438 275q0 51 -31 82.5t-84 31.5q-75 0 -126.5 -54t-51.5 -134q0 -54 31.5 -86t85.5 -32q67 -2 122.5 58t53.5 134z
M661 474l20 60h30q49 0 49 34q0 26 -34 26h-19l35 106h120l-43 -131q-17 -53 -46 -74t-85 -21h-27z" />
    <glyph glyph-name="Dcroat" unicode="&#x110;" horiz-adv-x="753" 
d="M-5 0l228 700h245q132 0 205 -78q73 -77 73 -212q1 -80 -30 -153.5t-88.5 -131.5t-150 -92t-206.5 -33h-276zM140 100h153q143 -2 241 85.5t96 211.5q0 98 -48 150.5t-135 52.5h-145zM44 395h394l-30 -90h-394z" />
    <glyph glyph-name="dslash" unicode="&#x111;" horiz-adv-x="598" 
d="M37 187q0 128 83.5 212.5t210.5 84.5q56 0 93.5 -26.5t48.5 -72.5l102 315h107l-227 -700h-102l22 70q-52 -80 -163 -80q-77 0 -126 52.5t-49 144.5zM438 275q0 51 -31 82.5t-84 31.5q-75 0 -126.5 -54t-51.5 -134q0 -54 31.5 -86t85.5 -32q67 -2 122.5 58t53.5 134z
M413 639h314l-28 -85h-314z" />
    <glyph glyph-name="Emacron" unicode="&#x112;" horiz-adv-x="642" 
d="M223 700h510l-34 -105h-398l-59 -180h368l-34 -105h-368l-67 -205h408l-34 -105h-520zM380 802l26 78h260l-26 -78h-260z" />
    <glyph glyph-name="emacron" unicode="&#x113;" horiz-adv-x="555" 
d="M518 317q0 -36 -11 -77l-6 -20h-356v-15q0 -56 32 -90.5t83 -34.5q102 0 142 91l89 -33q-67 -148 -251 -148q-87 0 -144 59.5t-57 150.5q-2 120 85.5 203t208.5 81q87 0 136 -48t49 -119zM420 311q0 38 -27 60.5t-70 22.5q-57 0 -98.5 -27.5t-62.5 -76.5h257q1 7 1 21z
M250 576l26 78h260l-26 -78h-260z" />
    <glyph glyph-name="Ebreve" unicode="&#x114;" horiz-adv-x="642" 
d="M223 700h510l-34 -105h-398l-59 -180h368l-34 -105h-368l-67 -205h408l-34 -105h-520zM399 861q0 22 9 43h75q-5 -15 -5 -24q0 -13 10.5 -22t27.5 -9q28 0 46 16t18 39h76q-4 -59 -45 -92t-105 -33q-49 0 -78 21.5t-29 60.5z" />
    <glyph glyph-name="ebreve" unicode="&#x115;" horiz-adv-x="555" 
d="M518 317q0 -36 -11 -77l-6 -20h-356v-15q0 -56 32 -90.5t83 -34.5q102 0 142 91l89 -33q-67 -148 -251 -148q-87 0 -144 59.5t-57 150.5q-2 120 85.5 203t208.5 81q87 0 136 -48t49 -119zM420 311q0 38 -27 60.5t-70 22.5q-57 0 -98.5 -27.5t-62.5 -76.5h257q1 7 1 21z
M280 635q0 22 9 43h75q-5 -15 -5 -24q0 -13 10.5 -22t27.5 -9q28 0 46 16t18 39h76q-4 -59 -45 -92t-105 -33q-49 0 -78 21.5t-29 60.5z" />
    <glyph glyph-name="Edotaccent" unicode="&#x116;" horiz-adv-x="642" 
d="M223 700h510l-34 -105h-398l-59 -180h368l-34 -105h-368l-67 -205h408l-34 -105h-520zM453 802l38 115h117l-38 -115h-117z" />
    <glyph glyph-name="edotaccent" unicode="&#x117;" horiz-adv-x="555" 
d="M518 317q0 -36 -11 -77l-6 -20h-356v-15q0 -56 32 -90.5t83 -34.5q102 0 142 91l89 -33q-67 -148 -251 -148q-87 0 -144 59.5t-57 150.5q-2 120 85.5 203t208.5 81q87 0 136 -48t49 -119zM420 311q0 38 -27 60.5t-70 22.5q-57 0 -98.5 -27.5t-62.5 -76.5h257q1 7 1 21z
M314 555l38 115h117l-38 -115h-117z" />
    <glyph glyph-name="Eogonek" unicode="&#x118;" horiz-adv-x="642" 
d="M223 700h510l-34 -105h-398l-59 -180h368l-34 -105h-368l-67 -205h408l-34 -105h-520zM428 -190q-39 0 -62 20.5t-23 54.5q0 36 27.5 66.5t76.5 48.5h68q-42 -23 -62 -42t-20 -41q0 -25 27 -25q13 0 32 10l17 -69q-35 -23 -81 -23z" />
    <glyph glyph-name="eogonek" unicode="&#x119;" horiz-adv-x="555" 
d="M518 317q0 -36 -11 -77l-6 -20h-356v-15q0 -56 32 -90.5t83 -34.5q102 0 142 91l89 -33q-67 -148 -251 -148q-87 0 -144 59.5t-57 150.5q-2 120 85.5 203t208.5 81q87 0 136 -48t49 -119zM420 311q0 38 -27 60.5t-70 22.5q-57 0 -98.5 -27.5t-62.5 -76.5h257q1 7 1 21z
M199 -190q-39 0 -62 20.5t-23 54.5q0 36 27.5 66.5t76.5 48.5h68q-42 -23 -62 -42t-20 -41q0 -25 27 -25q13 0 32 10l17 -69q-35 -23 -81 -23z" />
    <glyph glyph-name="Ecaron" unicode="&#x11a;" horiz-adv-x="642" 
d="M223 700h510l-34 -105h-398l-59 -180h368l-34 -105h-368l-67 -205h408l-34 -105h-520zM464 781l-94 108l5 16h102l33 -64l67 64h116l-5 -16l-153 -108h-71z" />
    <glyph glyph-name="ecaron" unicode="&#x11b;" horiz-adv-x="555" 
d="M518 317q0 -36 -11 -77l-6 -20h-356v-15q0 -56 32 -90.5t83 -34.5q102 0 142 91l89 -33q-67 -148 -251 -148q-87 0 -144 59.5t-57 150.5q-2 120 85.5 203t208.5 81q87 0 136 -48t49 -119zM420 311q0 38 -27 60.5t-70 22.5q-57 0 -98.5 -27.5t-62.5 -76.5h257q1 7 1 21z
M338 555l-94 108l5 16h102l33 -64l67 64h116l-5 -16l-153 -108h-71z" />
    <glyph glyph-name="Gcircumflex" unicode="&#x11c;" horiz-adv-x="819" 
d="M349 -10q-117 0 -193 81.5t-76 212.5q-2 181 129 304.5t322 121.5q134 0 210.5 -66t82.5 -174l-107 -30q-26 165 -203 165q-132 2 -225 -88.5t-91 -225.5q0 -92 50 -144t134 -52q93 0 157 49q65 50 91 121h-296l34 105h438l-120 -370h-98l48 146q-81 -156 -287 -156z
M400 781l5 16l156 108h68l94 -108l-5 -16h-105l-30 64l-69 -64h-114z" />
    <glyph glyph-name="gcircumflex" unicode="&#x11d;" horiz-adv-x="597" 
d="M-21 -50l103 28q5 -46 32 -71t74 -25q122 0 168 144l14 44q-49 -70 -153 -70q-78 0 -128.5 53.5t-50.5 142.5q-2 116 82.5 203.5t209.5 84.5q110 0 147 -85l24 75h107l-150 -462q-36 -112 -104.5 -166t-179.5 -54q-83 0 -134.5 42.5t-60.5 115.5zM439 279q0 53 -31 84
t-83 31q-81 0 -131 -53q-48 -53 -48 -135q0 -53 32 -84.5t80 -31.5q70 0 125.5 57t55.5 132zM212 555l5 16l156 108h68l94 -108l-5 -16h-105l-30 64l-69 -64h-114z" />
    <glyph glyph-name="Gbreve" unicode="&#x11e;" horiz-adv-x="819" 
d="M349 -10q-117 0 -193 81.5t-76 212.5q-2 181 129 304.5t322 121.5q134 0 210.5 -66t82.5 -174l-107 -30q-26 165 -203 165q-132 2 -225 -88.5t-91 -225.5q0 -92 50 -144t134 -52q93 0 157 49q65 50 91 121h-296l34 105h438l-120 -370h-98l48 146q-81 -156 -287 -156z
M461 861q0 22 9 43h75q-5 -15 -5 -24q0 -13 10.5 -22t27.5 -9q28 0 46 16t18 39h76q-4 -59 -45 -92t-105 -33q-49 0 -78 21.5t-29 60.5z" />
    <glyph glyph-name="gbreve" unicode="&#x11f;" horiz-adv-x="597" 
d="M-21 -50l103 28q5 -46 32 -71t74 -25q122 0 168 144l14 44q-49 -70 -153 -70q-78 0 -128.5 53.5t-50.5 142.5q-2 116 82.5 203.5t209.5 84.5q110 0 147 -85l24 75h107l-150 -462q-36 -112 -104.5 -166t-179.5 -54q-83 0 -134.5 42.5t-60.5 115.5zM439 279q0 53 -31 84
t-83 31q-81 0 -131 -53q-48 -53 -48 -135q0 -53 32 -84.5t80 -31.5q70 0 125.5 57t55.5 132zM285 635q0 22 9 43h75q-5 -15 -5 -24q0 -13 10.5 -22t27.5 -9q28 0 46 16t18 39h76q-4 -59 -45 -92t-105 -33q-49 0 -78 21.5t-29 60.5z" />
    <glyph glyph-name="Gdotaccent" unicode="&#x120;" horiz-adv-x="819" 
d="M349 -10q-117 0 -193 81.5t-76 212.5q-2 181 129 304.5t322 121.5q134 0 210.5 -66t82.5 -174l-107 -30q-26 165 -203 165q-132 2 -225 -88.5t-91 -225.5q0 -92 50 -144t134 -52q93 0 157 49q65 50 91 121h-296l34 105h438l-120 -370h-98l48 146q-81 -156 -287 -156z
M515 802l38 115h117l-38 -115h-117z" />
    <glyph glyph-name="gdotaccent" unicode="&#x121;" horiz-adv-x="597" 
d="M-21 -50l103 28q5 -46 32 -71t74 -25q122 0 168 144l14 44q-49 -70 -153 -70q-78 0 -128.5 53.5t-50.5 142.5q-2 116 82.5 203.5t209.5 84.5q110 0 147 -85l24 75h107l-150 -462q-36 -112 -104.5 -166t-179.5 -54q-83 0 -134.5 42.5t-60.5 115.5zM439 279q0 53 -31 84
t-83 31q-81 0 -131 -53q-48 -53 -48 -135q0 -53 32 -84.5t80 -31.5q70 0 125.5 57t55.5 132zM319 555l38 115h117l-38 -115h-117z" />
    <glyph glyph-name="Gcommaaccent" unicode="&#x122;" horiz-adv-x="819" 
d="M349 -10q-117 0 -193 81.5t-76 212.5q-2 181 129 304.5t322 121.5q134 0 210.5 -66t82.5 -174l-107 -30q-26 165 -203 165q-132 2 -225 -88.5t-91 -225.5q0 -92 50 -144t134 -52q93 0 157 49q65 50 91 121h-296l34 105h438l-120 -370h-98l48 146q-81 -156 -287 -156z
M177 -263l27 58q20 -9 44 -9q21 0 33 10t12 25q0 25 -29 25h-23l33 102h118l-42 -130q-17 -50 -44.5 -71t-71.5 -21q-30 0 -57 11z" />
    <glyph glyph-name="gcommaaccent" unicode="&#x123;" horiz-adv-x="597" 
d="M-21 -50l103 28q5 -46 32 -71t74 -25q122 0 168 144l14 44q-49 -70 -153 -70q-78 0 -128.5 53.5t-50.5 142.5q-2 116 82.5 203.5t209.5 84.5q110 0 147 -85l24 75h107l-150 -462q-36 -112 -104.5 -166t-179.5 -54q-83 0 -134.5 42.5t-60.5 115.5zM439 279q0 53 -31 84
t-83 31q-81 0 -131 -53q-48 -53 -48 -135q0 -53 32 -84.5t80 -31.5q70 0 125.5 57t55.5 132zM345 542l49 150q17 52 45 71t83 19h41l-20 -60h-37q-53 0 -53 -36q0 -24 27 -24h24l-39 -120h-120z" />
    <glyph glyph-name="Hcircumflex" unicode="&#x124;" horiz-adv-x="744" 
d="M578 295h-375l-96 -295h-112l228 700h112l-99 -305h375l99 305h112l-228 -700h-112zM382 781l5 16l156 108h68l94 -108l-5 -16h-105l-30 64l-69 -64h-114z" />
    <glyph glyph-name="hcircumflex" unicode="&#x125;" horiz-adv-x="572" 
d="M-11 0l228 700h107l-100 -308q70 92 180 92q61 0 96 -35.5t35 -93.5q0 -27 -10 -58l-97 -297h-107l92 282q8 26 8 44q0 34 -20.5 52.5t-58.5 18.5q-51 0 -97 -39.5t-67 -105.5l-82 -252h-107zM130 781l5 16l156 108h68l94 -108l-5 -16h-105l-30 64l-69 -64h-114z" />
    <glyph glyph-name="Hbar" unicode="&#x126;" horiz-adv-x="744" 
d="M578 295h-375l-96 -295h-112l228 700h112l-99 -305h375l99 305h112l-228 -700h-112zM110 595h754l-30 -95h-754z" />
    <glyph glyph-name="hbar" unicode="&#x127;" horiz-adv-x="572" 
d="M-11 0l228 700h107l-100 -308q70 92 180 92q61 0 96 -35.5t35 -93.5q0 -27 -10 -58l-97 -297h-107l92 282q8 26 8 44q0 34 -20.5 52.5t-58.5 18.5q-51 0 -97 -39.5t-67 -105.5l-82 -252h-107zM133 639h314l-28 -85h-314z" />
    <glyph glyph-name="Itilde" unicode="&#x128;" horiz-adv-x="257" 
d="M-5 0l228 700h112l-228 -700h-112zM222 782l-70 10q3 51 32 81t84 30q39 0 75 -30q24 -21 43 -21q18 0 30 14.5t12 33.5l70 -10q-3 -51 -32 -81t-84 -30q-39 0 -75 30q-24 21 -43 21q-18 0 -30 -14.5t-12 -33.5z" />
    <glyph glyph-name="itilde" unicode="&#x129;" horiz-adv-x="239" 
d="M143 474h107l-154 -474h-107zM140 556l-70 10q3 51 32 81t84 30q39 0 75 -30q24 -21 43 -21q18 0 30 14.5t12 33.5l70 -10q-3 -51 -32 -81t-84 -30q-39 0 -75 30q-24 21 -43 21q-18 0 -30 -14.5t-12 -33.5z" />
    <glyph glyph-name="Imacron" unicode="&#x12a;" horiz-adv-x="257" 
d="M-5 0l228 700h112l-228 -700h-112zM181 802l26 78h260l-26 -78h-260z" />
    <glyph glyph-name="imacron" unicode="&#x12b;" horiz-adv-x="239" 
d="M143 474h107l-154 -474h-107zM100 576l26 78h260l-26 -78h-260z" />
    <glyph glyph-name="Ibreve" unicode="&#x12c;" horiz-adv-x="257" 
d="M-5 0l228 700h112l-228 -700h-112zM200 861q0 22 9 43h75q-5 -15 -5 -24q0 -13 10.5 -22t27.5 -9q28 0 46 16t18 39h76q-4 -59 -45 -92t-105 -33q-49 0 -78 21.5t-29 60.5z" />
    <glyph glyph-name="ibreve" unicode="&#x12d;" horiz-adv-x="239" 
d="M143 474h107l-154 -474h-107zM130 635q0 22 9 43h75q-5 -15 -5 -24q0 -13 10.5 -22t27.5 -9q28 0 46 16t18 39h76q-4 -59 -45 -92t-105 -33q-49 0 -78 21.5t-29 60.5z" />
    <glyph glyph-name="Iogonek" unicode="&#x12e;" horiz-adv-x="257" 
d="M-5 0l228 700h112l-228 -700h-112zM20 -190q-39 0 -62 20.5t-23 54.5q0 36 27.5 66.5t76.5 48.5h68q-42 -23 -62 -42t-20 -41q0 -25 27 -25q13 0 32 10l17 -69q-35 -23 -81 -23z" />
    <glyph glyph-name="iogonek" unicode="&#x12f;" horiz-adv-x="239" 
d="M143 474h107l-154 -474h-107zM164 555l38 115h117l-38 -115h-117zM8 -190q-39 0 -62 20.5t-23 54.5q0 36 27.5 66.5t76.5 48.5h68q-42 -23 -62 -42t-20 -41q0 -25 27 -25q13 0 32 10l17 -69q-35 -23 -81 -23z" />
    <glyph glyph-name="Idot" unicode="&#x130;" horiz-adv-x="257" 
d="M-5 0l228 700h112l-228 -700h-112zM254 802l38 115h117l-38 -115h-117z" />
    <glyph glyph-name="dotlessi" unicode="&#x131;" horiz-adv-x="239" 
d="M143 474h107l-154 -474h-107z" />
    <glyph glyph-name="IJ" unicode="&#x132;" horiz-adv-x="864" 
d="M-5 0l228 700h112l-228 -700h-112zM294 181q0 99 75 169l88 -52q-50 -53 -50 -110q0 -39 32 -66t80 -27q66 0 105.5 35.5t66.5 117.5l147 452h112l-156 -480q-39 -120 -100.5 -174t-192.5 -56q-94 0 -150.5 55.5t-56.5 135.5z" />
    <glyph glyph-name="ij" unicode="&#x133;" horiz-adv-x="478" 
d="M143 474h107l-154 -474h-107zM164 555l38 115h117l-38 -115h-117zM164 -198l218 672h107l-219 -672h-106zM403 555l38 115h117l-38 -115h-117z" />
    <glyph glyph-name="Jcircumflex" unicode="&#x134;" horiz-adv-x="607" 
d="M37 181q0 99 75 169l88 -52q-50 -53 -50 -110q0 -39 32 -66t80 -27q66 0 105.5 35.5t66.5 117.5l147 452h112l-156 -480q-39 -120 -100.5 -174t-192.5 -56q-94 0 -150.5 55.5t-56.5 135.5zM497 781l5 16l156 108h68l94 -108l-5 -16h-105l-30 64l-69 -64h-114z" />
    <glyph glyph-name="jcircumflex" unicode="&#x135;" horiz-adv-x="239" 
d="M-75 -198l218 672h107l-219 -672h-106zM57 555l5 16l156 108h68l94 -108l-5 -16h-105l-30 64l-69 -64h-114z" />
    <glyph glyph-name="Kcommaaccent" unicode="&#x136;" horiz-adv-x="680" 
d="M453 418l130 -418h-125l-103 345l-183 -145l-65 -200h-112l228 700h112l-110 -337l418 337h160zM106 -263l27 58q19 -9 44 -9q21 0 33 10t12 25q0 25 -29 25h-23l33 102h118l-42 -130q-17 -50 -44.5 -71t-71.5 -21q-30 0 -57 11z" />
    <glyph glyph-name="kcommaaccent" unicode="&#x137;" horiz-adv-x="518" 
d="M563 474l-247 -194l103 -280h-111l-78 212l-87 -69l-47 -143h-107l228 700h107l-133 -408l224 182h148zM30 -263l27 58q20 -9 44 -9q21 0 33 10t12 25q0 25 -29 25h-23l33 102h118l-42 -130q-17 -50 -44.5 -71t-71.5 -21q-30 0 -57 11z" />
    <glyph glyph-name="kgreenlandic" unicode="&#x138;" horiz-adv-x="488" 
d="M-11 0l154 474h107l-57 -175l192 175h148l-271 -232l127 -242h-125l-103 201l-65 -201h-107z" />
    <glyph glyph-name="Lacute" unicode="&#x139;" horiz-adv-x="642" 
d="M223 700h112l-194 -595h418l-34 -105h-530zM252 782l106 133h147l-6 -16l-147 -117h-100z" />
    <glyph glyph-name="lacute" unicode="&#x13a;" horiz-adv-x="240" 
d="M-11 0l228 700h107l-228 -700h-107zM248 781l106 133h147l-6 -16l-147 -117h-100z" />
    <glyph glyph-name="Lcommaaccent" unicode="&#x13b;" horiz-adv-x="642" 
d="M223 700h112l-194 -595h418l-34 -105h-530zM77 -263l27 58q20 -9 44 -9q21 0 33 10t12 25q0 25 -29 25h-23l33 102h118l-42 -130q-17 -50 -44.5 -71t-71.5 -21q-30 0 -57 11z" />
    <glyph glyph-name="lcommaaccent" unicode="&#x13c;" horiz-adv-x="240" 
d="M-11 0l228 700h107l-228 -700h-107zM-132 -263l27 58q20 -9 44 -9q21 0 33 10t12 25q0 25 -29 25h-23l33 102h118l-42 -130q-17 -50 -44.5 -71t-71.5 -21q-30 0 -57 11z" />
    <glyph glyph-name="Lcaron" unicode="&#x13d;" horiz-adv-x="642" 
d="M223 700h112l-194 -595h418l-34 -105h-530zM552 474l20 60h30q49 0 49 34q0 26 -34 26h-19l35 106h120l-43 -131q-17 -53 -46 -74t-85 -21h-27z" />
    <glyph glyph-name="lcaron" unicode="&#x13e;" horiz-adv-x="353" 
d="M-11 0l228 700h107l-228 -700h-107zM302 474l20 60h30q49 0 49 34q0 26 -34 26h-19l35 106h120l-43 -131q-17 -53 -46 -74t-85 -21h-27z" />
    <glyph glyph-name="Ldot" unicode="&#x13f;" horiz-adv-x="642" 
d="M223 700h112l-194 -595h418l-34 -105h-530zM418 410h120l-38 -120h-120z" />
    <glyph glyph-name="ldot" unicode="&#x140;" horiz-adv-x="415" 
d="M-11 0l228 700h107l-228 -700h-107zM323 410h120l-38 -120h-120z" />
    <glyph glyph-name="Lslash" unicode="&#x141;" horiz-adv-x="642" 
d="M223 700h112l-194 -595h418l-34 -105h-530zM25 252l-29 76l357 155l32 -73z" />
    <glyph glyph-name="lslash" unicode="&#x142;" horiz-adv-x="240" 
d="M-11 0l228 700h107l-228 -700h-107zM14 244l-29 76l312 136l32 -73z" />
    <glyph glyph-name="Nacute" unicode="&#x143;" horiz-adv-x="771" 
d="M309 620l-202 -620h-112l228 700h180l132 -621l202 621h112l-228 -700h-180zM510 782l106 133h147l-6 -16l-147 -117h-100z" />
    <glyph glyph-name="nacute" unicode="&#x144;" horiz-adv-x="552" 
d="M-11 0l154 474h107l-21 -65q59 75 155 75q59 0 95 -37t36 -95q0 -30 -10 -57l-96 -295h-107l92 283q6 20 6 35q0 34 -20 55t-53 21q-49 0 -86.5 -32.5t-56.5 -92.5l-88 -269h-107zM337 555l106 133h147l-6 -16l-147 -117h-100z" />
    <glyph glyph-name="Ncommaaccent" unicode="&#x145;" horiz-adv-x="771" 
d="M309 620l-202 -620h-112l228 700h180l132 -621l202 621h112l-228 -700h-180zM135 -263l27 58q20 -9 44 -9q21 0 33 10t12 25q0 25 -29 25h-23l33 102h118l-42 -130q-17 -50 -44.5 -71t-71.5 -21q-30 0 -57 11z" />
    <glyph glyph-name="ncommaaccent" unicode="&#x146;" horiz-adv-x="552" 
d="M-11 0l154 474h107l-21 -65q59 75 155 75q59 0 95 -37t36 -95q0 -30 -10 -57l-96 -295h-107l92 283q6 20 6 35q0 34 -20 55t-53 21q-49 0 -86.5 -32.5t-56.5 -92.5l-88 -269h-107zM25 -263l27 58q20 -9 44 -9q21 0 33 10t12 25q0 25 -29 25h-23l33 102h118l-42 -130
q-17 -50 -44.5 -71t-71.5 -21q-30 0 -57 11z" />
    <glyph glyph-name="Ncaron" unicode="&#x147;" horiz-adv-x="771" 
d="M309 620l-202 -620h-112l228 700h180l132 -621l202 621h112l-228 -700h-180zM522 781l-94 108l5 16h102l33 -64l67 64h116l-5 -16l-153 -108h-71z" />
    <glyph glyph-name="ncaron" unicode="&#x148;" horiz-adv-x="552" 
d="M-11 0l154 474h107l-21 -65q59 75 155 75q59 0 95 -37t36 -95q0 -30 -10 -57l-96 -295h-107l92 283q6 20 6 35q0 34 -20 55t-53 21q-49 0 -86.5 -32.5t-56.5 -92.5l-88 -269h-107zM351 555l-94 108l5 16h102l33 -64l67 64h116l-5 -16l-153 -108h-71z" />
    <glyph glyph-name="Eng" unicode="&#x14a;" horiz-adv-x="771" 
d="M182 -55l106 34q11 -87 92 -87q92 0 130 108h-69l-132 620l-202 -620h-112l228 700h180l132 -621l202 621h112l-228 -700q-40 -116 -93.5 -161t-162.5 -47q-75 0 -125 43q-50 41 -58 110z" />
    <glyph glyph-name="eng" unicode="&#x14b;" horiz-adv-x="552" 
d="M89 -95l98 23q2 -41 39 -41q42 0 55 48l113 348q6 20 6 35q0 34 -20 55t-53 21q-49 0 -86.5 -32.5t-56.5 -92.5l-88 -269h-107l154 474h107l-21 -65q59 75 155 75q59 0 95 -37t36 -95q0 -30 -10 -57l-118 -362q-24 -72 -65.5 -106.5t-111.5 -34.5q-56 0 -88.5 31
t-32.5 82z" />
    <glyph glyph-name="Omacron" unicode="&#x14c;" horiz-adv-x="856" 
d="M82 293q-3 176 126 298t318 119q154 0 237.5 -85.5t83.5 -217.5q1 -86 -32 -163t-91.5 -133.5t-142 -89t-178.5 -31.5q-153 0 -237 86.5t-84 216.5zM728 401q0 93 -59.5 148.5t-158.5 55.5q-130 2 -220.5 -86.5t-88.5 -219.5q0 -92 60 -148t158 -56q127 -2 219 88t90 218
zM438 802l26 78h260l-26 -78h-260z" />
    <glyph glyph-name="omacron" unicode="&#x14d;" horiz-adv-x="594" 
d="M38 198q-2 117 85.5 202.5t218.5 83.5q98 0 156 -58.5t58 -149.5q2 -117 -85.5 -202.5t-218.5 -83.5q-98 0 -156 58.5t-58 149.5zM448 269q0 51 -34 85q-33 35 -85 35q-80 0 -131.5 -53.5t-51.5 -130.5q0 -51 33 -85q35 -35 86 -35q80 0 131.5 53.5t51.5 130.5zM253 576
l26 78h260l-26 -78h-260z" />
    <glyph glyph-name="Obreve" unicode="&#x14e;" horiz-adv-x="856" 
d="M82 293q-3 176 126 298t318 119q154 0 237.5 -85.5t83.5 -217.5q1 -86 -32 -163t-91.5 -133.5t-142 -89t-178.5 -31.5q-153 0 -237 86.5t-84 216.5zM728 401q0 93 -59.5 148.5t-158.5 55.5q-130 2 -220.5 -86.5t-88.5 -219.5q0 -92 60 -148t158 -56q127 -2 219 88t90 218
zM457 861q0 22 9 43h75q-5 -15 -5 -24q0 -13 10.5 -22t27.5 -9q28 0 46 16t18 39h76q-4 -59 -45 -92t-105 -33q-49 0 -78 21.5t-29 60.5z" />
    <glyph glyph-name="obreve" unicode="&#x14f;" horiz-adv-x="594" 
d="M38 198q-2 117 85.5 202.5t218.5 83.5q98 0 156 -58.5t58 -149.5q2 -117 -85.5 -202.5t-218.5 -83.5q-98 0 -156 58.5t-58 149.5zM448 269q0 51 -34 85q-33 35 -85 35q-80 0 -131.5 -53.5t-51.5 -130.5q0 -51 33 -85q35 -35 86 -35q80 0 131.5 53.5t51.5 130.5zM283 635
q0 22 9 43h75q-5 -15 -5 -24q0 -13 10.5 -22t27.5 -9q28 0 46 16t18 39h76q-4 -59 -45 -92t-105 -33q-49 0 -78 21.5t-29 60.5z" />
    <glyph glyph-name="Ohungarumlaut" unicode="&#x150;" horiz-adv-x="856" 
d="M82 293q-3 176 126 298t318 119q154 0 237.5 -85.5t83.5 -217.5q1 -86 -32 -163t-91.5 -133.5t-142 -89t-178.5 -31.5q-153 0 -237 86.5t-84 216.5zM728 401q0 93 -59.5 148.5t-158.5 55.5q-130 2 -220.5 -86.5t-88.5 -219.5q0 -92 60 -148t158 -56q127 -2 219 88t90 218
zM409 781l106 133h147l-6 -16l-147 -117h-100zM602 781l106 133h147l-6 -16l-147 -117h-100z" />
    <glyph glyph-name="ohungarumlaut" unicode="&#x151;" horiz-adv-x="594" 
d="M38 198q-2 117 85.5 202.5t218.5 83.5q98 0 156 -58.5t58 -149.5q2 -117 -85.5 -202.5t-218.5 -83.5q-98 0 -156 58.5t-58 149.5zM448 269q0 51 -34 85q-33 35 -85 35q-80 0 -131.5 -53.5t-51.5 -130.5q0 -51 33 -85q35 -35 86 -35q80 0 131.5 53.5t51.5 130.5zM225 555
l106 133h147l-6 -16l-147 -117h-100zM418 555l106 133h147l-6 -16l-147 -117h-100z" />
    <glyph glyph-name="OE" unicode="&#x152;" horiz-adv-x="1265" 
d="M82 291q-3 179 126.5 300.5t322.5 118.5q96 0 165.5 -40.5t103.5 -110.5l46 141h510l-34 -105h-398l-59 -180h368l-34 -105h-368l-67 -205h408l-34 -105h-520l22 68q-84 -78 -239 -78q-146 -1 -233.5 87t-85.5 214zM734 397q0 91 -60 149.5t-156 58.5
q-132 2 -225.5 -86.5t-91.5 -221.5q0 -88 60 -145t156 -57q131 -2 225 85t92 217z" />
    <glyph glyph-name="oe" unicode="&#x153;" horiz-adv-x="960" 
d="M38 198q-2 117 85.5 202.5t218.5 83.5q62 0 109.5 -27t70.5 -75q35 49 92 75.5t124 26.5q87 0 136 -48t49 -119q0 -36 -11 -77l-6 -20h-356v-15q0 -57 32.5 -92t83.5 -35q99 0 141 93l89 -33q-34 -75 -95.5 -111.5t-156.5 -36.5q-58 0 -102.5 27.5t-64.5 76.5
q-80 -104 -225 -104q-98 0 -156 58.5t-58 149.5zM567 290h257q1 7 1 21q0 38 -27 60.5t-70 22.5q-57 0 -98.5 -27.5t-62.5 -76.5zM448 269q0 51 -34 85q-33 35 -85 35q-80 0 -131.5 -53.5t-51.5 -130.5q0 -51 33 -85q35 -35 86 -35q80 0 131.5 53.5t51.5 130.5z" />
    <glyph glyph-name="Racute" unicode="&#x154;" horiz-adv-x="682" 
d="M-5 0l228 700h295q92 0 145 -47t53 -126q0 -85 -56 -139q-56 -55 -139 -65q66 -23 66 -101q0 -24 -11 -70q-17 -66 -17 -94q0 -22 11 -42l-5 -16h-121q-3 16 -3 41q0 58 21 119q11 35 11 55q0 75 -93 75h-178l-95 -290h-112zM236 395h208q74 0 114 29t40 83q0 42 -26 65
t-74 23h-197zM427 782l106 133h147l-6 -16l-147 -117h-100z" />
    <glyph glyph-name="racute" unicode="&#x155;" horiz-adv-x="446" 
d="M-11 0l154 474h107l-20 -62q49 72 129 72q43 0 69 -25t26 -64q0 -43 -27 -95h-104q17 32 17 51q0 20 -14 31.5t-38 11.5q-65 0 -90 -82l-102 -312h-107zM306 555l106 133h147l-6 -16l-147 -117h-100z" />
    <glyph glyph-name="Rcommaaccent" unicode="&#x156;" horiz-adv-x="682" 
d="M-5 0l228 700h295q92 0 145 -47t53 -126q0 -85 -56 -139q-56 -55 -139 -65q66 -23 66 -101q0 -24 -11 -70q-17 -66 -17 -94q0 -22 11 -42l-5 -16h-121q-3 16 -3 41q0 58 21 119q11 35 11 55q0 75 -93 75h-178l-95 -290h-112zM236 395h208q74 0 114 29t40 83q0 42 -26 65
t-74 23h-197zM106 -263l27 58q19 -9 44 -9q21 0 33 10t12 25q0 25 -29 25h-23l33 102h118l-42 -130q-17 -50 -44.5 -71t-71.5 -21q-30 0 -57 11z" />
    <glyph glyph-name="rcommaaccent" unicode="&#x157;" horiz-adv-x="446" 
d="M-11 0l154 474h107l-20 -62q49 72 129 72q43 0 69 -25t26 -64q0 -43 -27 -95h-104q17 32 17 51q0 20 -14 31.5t-38 11.5q-65 0 -90 -82l-102 -312h-107zM-132 -263l27 58q20 -9 44 -9q21 0 33 10t12 25q0 25 -29 25h-23l33 102h118l-42 -130q-17 -50 -44.5 -71t-71.5 -21
q-30 0 -57 11z" />
    <glyph glyph-name="Rcaron" unicode="&#x158;" horiz-adv-x="682" 
d="M-5 0l228 700h295q92 0 145 -47t53 -126q0 -85 -56 -139q-56 -55 -139 -65q66 -23 66 -101q0 -24 -11 -70q-17 -66 -17 -94q0 -22 11 -42l-5 -16h-121q-3 16 -3 41q0 58 21 119q11 35 11 55q0 75 -93 75h-178l-95 -290h-112zM236 395h208q74 0 114 29t40 83q0 42 -26 65
t-74 23h-197zM439 781l-94 108l5 16h102l33 -64l67 64h116l-5 -16l-153 -108h-71z" />
    <glyph glyph-name="rcaron" unicode="&#x159;" horiz-adv-x="446" 
d="M-11 0l154 474h107l-20 -62q49 72 129 72q43 0 69 -25t26 -64q0 -43 -27 -95h-104q17 32 17 51q0 20 -14 31.5t-38 11.5q-65 0 -90 -82l-102 -312h-107zM320 555l-94 108l5 16h102l33 -64l67 64h116l-5 -16l-153 -108h-71z" />
    <glyph glyph-name="Sacute" unicode="&#x15a;" horiz-adv-x="663" 
d="M429 605q-62 0 -103 -26t-41 -69q0 -38 35.5 -62.5t112.5 -42.5q174 -38 174 -187q0 -104 -80.5 -166t-212.5 -62q-125 0 -203.5 66t-81.5 176l111 27q12 -164 180 -164q76 0 121.5 29.5t45.5 80.5q0 46 -30 69t-118 48q-172 46 -172 184q0 90 77 147t192 57
q106 0 168.5 -48t72.5 -140l-108 -26q-10 109 -140 109zM441 782l106 133h147l-6 -16l-147 -117h-100z" />
    <glyph glyph-name="sacute" unicode="&#x15b;" horiz-adv-x="484" 
d="M-4 136l100 29q14 -85 111 -85q45 0 74.5 18t29.5 48q0 26 -20 38.5t-78 27.5q-123 30 -123 127q0 66 53 105.5t147 39.5q69 0 112.5 -34.5t50.5 -94.5l-95 -18q-13 63 -82 63q-40 0 -63 -14.5t-23 -38.5q0 -22 24 -37t82 -29q62 -15 91.5 -45t29.5 -80q0 -76 -60 -121
t-166 -45q-81 0 -132 37.5t-63 108.5zM273 555l106 133h147l-6 -16l-147 -117h-100z" />
    <glyph glyph-name="Scircumflex" unicode="&#x15c;" horiz-adv-x="663" 
d="M429 605q-62 0 -103 -26t-41 -69q0 -38 35.5 -62.5t112.5 -42.5q174 -38 174 -187q0 -104 -80.5 -166t-212.5 -62q-125 0 -203.5 66t-81.5 176l111 27q12 -164 180 -164q76 0 121.5 29.5t45.5 80.5q0 46 -30 69t-118 48q-172 46 -172 184q0 90 77 147t192 57
q106 0 168.5 -48t72.5 -140l-108 -26q-10 109 -140 109zM327 781l5 16l156 108h68l94 -108l-5 -16h-105l-30 64l-69 -64h-114z" />
    <glyph glyph-name="scircumflex" unicode="&#x15d;" horiz-adv-x="484" 
d="M-4 136l100 29q14 -85 111 -85q45 0 74.5 18t29.5 48q0 26 -20 38.5t-78 27.5q-123 30 -123 127q0 66 53 105.5t147 39.5q69 0 112.5 -34.5t50.5 -94.5l-95 -18q-13 63 -82 63q-40 0 -63 -14.5t-23 -38.5q0 -22 24 -37t82 -29q62 -15 91.5 -45t29.5 -80q0 -76 -60 -121
t-166 -45q-81 0 -132 37.5t-63 108.5zM156 555l5 16l156 108h68l94 -108l-5 -16h-105l-30 64l-69 -64h-114z" />
    <glyph glyph-name="Scedilla" unicode="&#x15e;" horiz-adv-x="663" 
d="M429 605q-62 0 -103 -26t-41 -69q0 -38 35.5 -62.5t112.5 -42.5q174 -38 174 -187q0 -104 -80.5 -166t-212.5 -62q-125 0 -203.5 66t-81.5 176l111 27q12 -164 180 -164q76 0 121.5 29.5t45.5 80.5q0 46 -30 69t-118 48q-172 46 -172 184q0 90 77 147t192 57
q106 0 168.5 -48t72.5 -140l-108 -26q-10 109 -140 109zM186 -122l58 13q1 -12 10 -20.5t23 -8.5q38 0 38 36q0 27 -28 27q-23 0 -37 -18l-44 20q25 40 43 89h60q-1 -1 -9 -13t-19 -27.5t-21 -26.5q21 21 53 21q26 0 42 -18t16 -48q0 -39 -29 -65.5t-74 -26.5
q-34 0 -56.5 18t-25.5 48z" />
    <glyph glyph-name="scedilla" unicode="&#x15f;" horiz-adv-x="484" 
d="M-4 136l100 29q14 -85 111 -85q45 0 74.5 18t29.5 48q0 26 -20 38.5t-78 27.5q-123 30 -123 127q0 66 53 105.5t147 39.5q69 0 112.5 -34.5t50.5 -94.5l-95 -18q-13 63 -82 63q-40 0 -63 -14.5t-23 -38.5q0 -22 24 -37t82 -29q62 -15 91.5 -45t29.5 -80q0 -76 -60 -121
t-166 -45q-81 0 -132 37.5t-63 108.5zM83 -122l58 13q1 -12 10 -20.5t23 -8.5q38 0 38 36q0 27 -28 27q-24 0 -37 -18l-44 20q25 40 43 89h60q-1 -1 -9 -13t-19 -27.5t-21 -26.5q21 21 53 21q26 0 42 -18t16 -48q0 -39 -29 -65.5t-74 -26.5q-34 0 -56.5 18t-25.5 48z" />
    <glyph glyph-name="Scaron" unicode="&#x160;" horiz-adv-x="663" 
d="M429 605q-62 0 -103 -26t-41 -69q0 -38 35.5 -62.5t112.5 -42.5q174 -38 174 -187q0 -104 -80.5 -166t-212.5 -62q-125 0 -203.5 66t-81.5 176l111 27q12 -164 180 -164q76 0 121.5 29.5t45.5 80.5q0 46 -30 69t-118 48q-172 46 -172 184q0 90 77 147t192 57
q106 0 168.5 -48t72.5 -140l-108 -26q-10 109 -140 109zM453 781l-94 108l5 16h102l33 -64l67 64h116l-5 -16l-153 -108h-71z" />
    <glyph glyph-name="scaron" unicode="&#x161;" horiz-adv-x="484" 
d="M-4 136l100 29q14 -85 111 -85q45 0 74.5 18t29.5 48q0 26 -20 38.5t-78 27.5q-123 30 -123 127q0 66 53 105.5t147 39.5q69 0 112.5 -34.5t50.5 -94.5l-95 -18q-13 63 -82 63q-40 0 -63 -14.5t-23 -38.5q0 -22 24 -37t82 -29q62 -15 91.5 -45t29.5 -80q0 -76 -60 -121
t-166 -45q-81 0 -132 37.5t-63 108.5zM287 555l-94 108l5 16h102l33 -64l67 64h116l-5 -16l-153 -108h-71z" />
    <glyph glyph-name="uni0162" unicode="&#x162;" horiz-adv-x="676" 
d="M798 700l-34 -105h-254l-194 -595h-112l194 595h-254l34 105h620zM174 -122l58 13q1 -12 10 -20.5t23 -8.5q38 0 38 36q0 27 -28 27q-23 0 -37 -18l-44 20q25 40 43 89h60q-1 -1 -9 -13t-19 -27.5t-21 -26.5q21 21 53 21q26 0 42 -18t16 -48q0 -39 -29 -65.5t-74 -26.5
q-34 0 -56.5 18t-25.5 48z" />
    <glyph glyph-name="uni0163" unicode="&#x163;" horiz-adv-x="390" 
d="M37 0l125 384h-94l29 90h94l50 151h107l-50 -151h149l-29 -90h-149l-125 -384h-107zM6 -122l58 13q1 -12 10 -20.5t23 -8.5q38 0 38 36q0 27 -28 27q-23 0 -37 -18l-44 20q25 40 43 89h60q-1 -1 -9 -13t-19 -27.5t-21 -26.5q21 21 53 21q26 0 42 -18t16 -48
q0 -39 -29 -65.5t-74 -26.5q-34 0 -56.5 18t-25.5 48z" />
    <glyph glyph-name="Tcaron" unicode="&#x164;" horiz-adv-x="676" 
d="M798 700l-34 -105h-254l-194 -595h-112l194 595h-254l34 105h620zM474 781l-94 108l5 16h102l33 -64l67 64h116l-5 -16l-153 -108h-71z" />
    <glyph glyph-name="tcaron" unicode="&#x165;" horiz-adv-x="390" 
d="M37 0l125 384h-94l29 90h94l50 151h107l-50 -151h149l-29 -90h-149l-125 -384h-107zM360 522l20 60h30q49 0 49 34q0 26 -34 26h-19l35 106h120l-43 -131q-17 -53 -46 -74t-85 -21h-27z" />
    <glyph glyph-name="Tbar" unicode="&#x166;" horiz-adv-x="676" 
d="M798 700l-34 -105h-254l-194 -595h-112l194 595h-254l34 105h620zM192 395h394l-30 -90h-394z" />
    <glyph glyph-name="tbar" unicode="&#x167;" horiz-adv-x="390" 
d="M37 0l125 384h-94l29 90h94l50 151h107l-50 -151h149l-29 -90h-149l-125 -384h-107zM59 306h314l-28 -85h-314z" />
    <glyph glyph-name="Utilde" unicode="&#x168;" horiz-adv-x="712" 
d="M68 193q0 57 22 123l124 384h112l-134 -414q-13 -38 -13 -79q0 -53 37 -82.5t101 -29.5q82 0 143.5 49.5t91.5 141.5l134 414h112l-142 -438q-87 -272 -365 -272q-98 0 -160.5 55t-62.5 148zM446 782l-70 10q3 51 32 81t84 30q39 0 75 -30q24 -21 43 -21q18 0 30 14.5
t12 33.5l70 -10q-3 -51 -32 -81t-84 -30q-39 0 -75 30q-24 21 -43 21q-18 0 -30 -14.5t-12 -33.5z" />
    <glyph glyph-name="utilde" unicode="&#x169;" horiz-adv-x="552" 
d="M38 122q0 28 12 66l93 286h107l-92 -283q-6 -19 -6 -35q0 -34 20 -55t53 -21q49 0 86.5 32.5t56.5 92.5l88 269h107l-154 -474h-107l21 65q-32 -40 -68.5 -57.5t-86.5 -17.5q-59 0 -94.5 36.5t-35.5 95.5zM294 556l-70 10q3 51 32 81t84 30q39 0 75 -30q24 -21 43 -21
q18 0 30 14.5t12 33.5l70 -10q-3 -51 -32 -81t-84 -30q-39 0 -75 30q-24 21 -43 21q-18 0 -30 -14.5t-12 -33.5z" />
    <glyph glyph-name="Umacron" unicode="&#x16a;" horiz-adv-x="712" 
d="M68 193q0 57 22 123l124 384h112l-134 -414q-13 -38 -13 -79q0 -53 37 -82.5t101 -29.5q82 0 143.5 49.5t91.5 141.5l134 414h112l-142 -438q-87 -272 -365 -272q-98 0 -160.5 55t-62.5 148zM405 802l26 78h260l-26 -78h-260z" />
    <glyph glyph-name="umacron" unicode="&#x16b;" horiz-adv-x="552" 
d="M38 122q0 28 12 66l93 286h107l-92 -283q-6 -19 -6 -35q0 -34 20 -55t53 -21q49 0 86.5 32.5t56.5 92.5l88 269h107l-154 -474h-107l21 65q-32 -40 -68.5 -57.5t-86.5 -17.5q-59 0 -94.5 36.5t-35.5 95.5zM254 576l26 78h260l-26 -78h-260z" />
    <glyph glyph-name="Ubreve" unicode="&#x16c;" horiz-adv-x="712" 
d="M68 193q0 57 22 123l124 384h112l-134 -414q-13 -38 -13 -79q0 -53 37 -82.5t101 -29.5q82 0 143.5 49.5t91.5 141.5l134 414h112l-142 -438q-87 -272 -365 -272q-98 0 -160.5 55t-62.5 148zM424 861q0 22 9 43h75q-5 -15 -5 -24q0 -13 10.5 -22t27.5 -9q28 0 46 16
t18 39h76q-4 -59 -45 -92t-105 -33q-49 0 -78 21.5t-29 60.5z" />
    <glyph glyph-name="ubreve" unicode="&#x16d;" horiz-adv-x="552" 
d="M38 122q0 28 12 66l93 286h107l-92 -283q-6 -19 -6 -35q0 -34 20 -55t53 -21q49 0 86.5 32.5t56.5 92.5l88 269h107l-154 -474h-107l21 65q-32 -40 -68.5 -57.5t-86.5 -17.5q-59 0 -94.5 36.5t-35.5 95.5zM284 635q0 22 9 43h75q-5 -15 -5 -24q0 -13 10.5 -22t27.5 -9
q28 0 46 16t18 39h76q-4 -59 -45 -92t-105 -33q-49 0 -78 21.5t-29 60.5z" />
    <glyph glyph-name="Uring" unicode="&#x16e;" horiz-adv-x="712" 
d="M68 193q0 57 22 123l124 384h112l-134 -414q-13 -38 -13 -79q0 -53 37 -82.5t101 -29.5q82 0 143.5 49.5t91.5 141.5l134 414h112l-142 -438q-87 -272 -365 -272q-98 0 -160.5 55t-62.5 148zM460 853q0 39 27 66t66 27t66 -27t27 -66t-27 -66t-66 -27t-66 27t-27 66z
M589 853q0 14 -11 25t-25 11t-25 -11t-11 -25t11 -25t25 -11t25 11t11 25z" />
    <glyph glyph-name="uring" unicode="&#x16f;" horiz-adv-x="552" 
d="M38 122q0 28 12 66l93 286h107l-92 -283q-6 -19 -6 -35q0 -34 20 -55t53 -21q49 0 86.5 32.5t56.5 92.5l88 269h107l-154 -474h-107l21 65q-32 -40 -68.5 -57.5t-86.5 -17.5q-59 0 -94.5 36.5t-35.5 95.5zM299 627q0 39 27 66t66 27t66 -27t27 -66t-27 -66t-66 -27
t-66 27t-27 66zM428 627q0 14 -11 25t-25 11t-25 -11t-11 -25t11 -25t25 -11t25 11t11 25z" />
    <glyph glyph-name="Uhungarumlaut" unicode="&#x170;" horiz-adv-x="712" 
d="M68 193q0 57 22 123l124 384h112l-134 -414q-13 -38 -13 -79q0 -53 37 -82.5t101 -29.5q82 0 143.5 49.5t91.5 141.5l134 414h112l-142 -438q-87 -272 -365 -272q-98 0 -160.5 55t-62.5 148zM376 781l106 133h147l-6 -16l-147 -117h-100zM569 781l106 133h147l-6 -16
l-147 -117h-100z" />
    <glyph glyph-name="uhungarumlaut" unicode="&#x171;" horiz-adv-x="552" 
d="M38 122q0 28 12 66l93 286h107l-92 -283q-6 -19 -6 -35q0 -34 20 -55t53 -21q49 0 86.5 32.5t56.5 92.5l88 269h107l-154 -474h-107l21 65q-32 -40 -68.5 -57.5t-86.5 -17.5q-59 0 -94.5 36.5t-35.5 95.5zM226 555l106 133h147l-6 -16l-147 -117h-100zM419 555l106 133
h147l-6 -16l-147 -117h-100z" />
    <glyph glyph-name="Uogonek" unicode="&#x172;" horiz-adv-x="712" 
d="M68 193q0 57 22 123l124 384h112l-134 -414q-13 -38 -13 -79q0 -53 37 -82.5t101 -29.5q82 0 143.5 49.5t91.5 141.5l134 414h112l-142 -438q-87 -272 -365 -272q-98 0 -160.5 55t-62.5 148zM257 -190q-39 0 -62 20.5t-23 54.5q0 36 27.5 66.5t76.5 48.5h68
q-42 -23 -62 -42t-20 -41q0 -25 27 -25q13 0 32 10l17 -69q-35 -23 -81 -23z" />
    <glyph glyph-name="uogonek" unicode="&#x173;" horiz-adv-x="552" 
d="M38 122q0 28 12 66l93 286h107l-92 -283q-6 -19 -6 -35q0 -34 20 -55t53 -21q49 0 86.5 32.5t56.5 92.5l88 269h107l-154 -474h-107l21 65q-32 -40 -68.5 -57.5t-86.5 -17.5q-59 0 -94.5 36.5t-35.5 95.5zM322 -190q-39 0 -62 20.5t-23 54.5q0 36 27.5 66.5t76.5 48.5h68
q-42 -23 -62 -42t-20 -41q0 -25 27 -25q13 0 32 10l17 -69q-35 -23 -81 -23z" />
    <glyph glyph-name="Wcircumflex" unicode="&#x174;" horiz-adv-x="1004" 
d="M101 0l61 700h115l-63 -618l337 618h192l-59 -618l340 618h118l-388 -700h-182l59 627l-345 -627h-185zM507 781l5 16l156 108h68l94 -108l-5 -16h-105l-30 64l-69 -64h-114z" />
    <glyph glyph-name="wcircumflex" unicode="&#x175;" horiz-adv-x="752" 
d="M198 474l-20 -369l210 369h122l-22 -369l218 369h107l-286 -474h-128l11 333l-196 -333h-131l10 474h105zM306 555l5 16l156 108h68l94 -108l-5 -16h-105l-30 64l-69 -64h-114z" />
    <glyph glyph-name="Ycircumflex" unicode="&#x176;" horiz-adv-x="694" 
d="M213 0l93 285l-144 415h125l98 -315l303 315h144l-414 -415l-93 -285h-112zM341 781l5 16l156 108h68l94 -108l-5 -16h-105l-30 64l-69 -64h-114z" />
    <glyph glyph-name="ycircumflex" unicode="&#x177;" horiz-adv-x="513" 
d="M461 474h117l-472 -659h-110l137 194l-49 465h110l27 -339zM187 555l5 16l156 108h68l94 -108l-5 -16h-105l-30 64l-69 -64h-114z" />
    <glyph glyph-name="Ydieresis" unicode="&#x178;" horiz-adv-x="694" 
d="M213 0l93 285l-144 415h125l98 -315l303 315h144l-414 -415l-93 -285h-112zM365 789l36 112h112l-36 -112h-112zM543 789l36 112h112l-36 -112h-112z" />
    <glyph glyph-name="Zacute" unicode="&#x179;" horiz-adv-x="707" 
d="M7 105l601 490h-436l34 105h595l-34 -105l-601 -490h446l-34 -105h-605zM476 782l106 133h147l-6 -16l-147 -117h-100z" />
    <glyph glyph-name="zacute" unicode="&#x17a;" horiz-adv-x="499" 
d="M378 0h-415l29 90l362 289h-263l31 95h405l-29 -90l-362 -289h273zM293 555l106 133h147l-6 -16l-147 -117h-100z" />
    <glyph glyph-name="Zdotaccent" unicode="&#x17b;" horiz-adv-x="707" 
d="M7 105l601 490h-436l34 105h595l-34 -105l-601 -490h446l-34 -105h-605zM477 802l38 115h117l-38 -115h-117z" />
    <glyph glyph-name="zdotaccent" unicode="&#x17c;" horiz-adv-x="499" 
d="M378 0h-415l29 90l362 289h-263l31 95h405l-29 -90l-362 -289h273zM283 555l38 115h117l-38 -115h-117z" />
    <glyph glyph-name="Zcaron" unicode="&#x17d;" horiz-adv-x="707" 
d="M7 105l601 490h-436l34 105h595l-34 -105l-601 -490h446l-34 -105h-605zM488 781l-94 108l5 16h102l33 -64l67 64h116l-5 -16l-153 -108h-71z" />
    <glyph glyph-name="zcaron" unicode="&#x17e;" horiz-adv-x="499" 
d="M378 0h-415l29 90l362 289h-263l31 95h405l-29 -90l-362 -289h273zM307 555l-94 108l5 16h102l33 -64l67 64h116l-5 -16l-153 -108h-71z" />
    <glyph glyph-name="florin" unicode="&#x192;" horiz-adv-x="445" 
d="M-54 79l95 42q7 -31 36 -31q36 0 51 45l79 244h-123l31 95h123l25 76q52 160 210 160q67 0 103.5 -30.5t36.5 -79.5q0 -25 -17 -61h-100q13 19 13 40q0 41 -54 41q-62 0 -86 -73l-24 -73h130l-31 -95h-130l-83 -257q-43 -132 -167 -132q-51 0 -82 23.5t-36 65.5z" />
    <glyph glyph-name="uni01B5" unicode="&#x1b5;" horiz-adv-x="707" 
d="M801 700l-34 -105l-242 -197h141l-30 -95h-227l-243 -198h446l-34 -105h-605l34 105l243 198h-128l30 95h214l242 197h-436l34 105h595z" />
    <glyph glyph-name="uni01B6" unicode="&#x1b6;" horiz-adv-x="600" 
d="M-37 0l29 90l134 107h-48l28 85h126l122 97h-263l31 95h405l-29 -90l-128 -102h50l-28 -85h-128l-128 -102h273l-31 -95h-415z" />
    <glyph glyph-name="Aringacute" unicode="&#x1fa;" horiz-adv-x="752" 
d="M546 0l-11 170h-343l-122 -170h-135l516 700h152l60 -700h-117zM263 270h265l-23 337zM484 853q0 39 27 66t66 27t66 -27t27 -66t-27 -66t-66 -27t-66 27t-27 66zM613 853q0 14 -11 25t-25 11t-25 -11t-11 -25t11 -25t25 -11t25 11t11 25zM529 927l106 133h147l-6 -16
l-147 -117h-100z" />
    <glyph glyph-name="aringacute" unicode="&#x1fb;" horiz-adv-x="598" 
d="M37 187q0 128 83.5 212.5t210.5 84.5q56 0 93.5 -26.5t48.5 -72.5l29 89h107l-154 -474h-102l22 70q-52 -80 -163 -80q-77 0 -126 52.5t-49 144.5zM438 275q0 51 -31 82.5t-84 31.5q-75 0 -126.5 -54t-51.5 -134q0 -54 31.5 -86t85.5 -32q67 -2 122.5 58t53.5 134z
M292 627q0 39 27 66t66 27t66 -27t27 -66t-27 -66t-66 -27t-66 27t-27 66zM421 627q0 14 -11 25t-25 11t-25 -11t-11 -25t11 -25t25 -11t25 11t11 25zM341 691l106 133h147l-6 -16l-147 -117h-100z" />
    <glyph glyph-name="AEacute" unicode="&#x1fc;" horiz-adv-x="971" 
d="M1028 595h-351l-59 -180h321l-34 -105h-321l-67 -205h361l-34 -105h-471l56 170h-212l-140 -170h-142l581 700h546zM461 270l106 325l-268 -325h162zM769 782l106 133h147l-6 -16l-147 -117h-100z" />
    <glyph glyph-name="aeacute" unicode="&#x1fd;" horiz-adv-x="942" 
d="M37 187q0 128 83.5 212.5t210.5 84.5q56 0 93.5 -26.5t48.5 -72.5l29 89h107l-15 -46q46 56 142 56q76 0 122.5 -48.5t46.5 -118.5q0 -36 -11 -77l-6 -20h-355q-1 -5 -1 -20q0 -54 33.5 -88t82.5 -34q99 0 141 93l89 -33q-67 -148 -248 -148q-108 0 -152 81l-23 -71h-102
l22 70q-52 -80 -163 -80q-77 0 -126 52.5t-49 144.5zM549 290h257q1 7 1 21q0 38 -27 60.5t-70 22.5q-110 0 -161 -104zM438 275q0 51 -31 82.5t-84 31.5q-75 0 -126.5 -54t-51.5 -134q0 -54 31.5 -86t85.5 -32q67 -2 122.5 58t53.5 134zM534 555l106 133h147l-6 -16
l-147 -117h-100z" />
    <glyph glyph-name="Scommaaccent" unicode="&#x218;" horiz-adv-x="663" 
d="M429 605q-62 0 -103 -26t-41 -69q0 -38 35.5 -62.5t112.5 -42.5q174 -38 174 -187q0 -104 -80.5 -166t-212.5 -62q-125 0 -203.5 66t-81.5 176l111 27q12 -164 180 -164q76 0 121.5 29.5t45.5 80.5q0 46 -30 69t-118 48q-172 46 -172 184q0 90 77 147t192 57
q106 0 168.5 -48t72.5 -140l-108 -26q-10 109 -140 109zM98 -263l27 58q19 -9 44 -9q21 0 33 10t12 25q0 25 -29 25h-23l33 102h118l-42 -130q-17 -50 -44.5 -71t-71.5 -21q-30 0 -57 11z" />
    <glyph glyph-name="scommaaccent" unicode="&#x219;" horiz-adv-x="484" 
d="M-4 136l100 29q14 -85 111 -85q45 0 74.5 18t29.5 48q0 26 -20 38.5t-78 27.5q-123 30 -123 127q0 66 53 105.5t147 39.5q69 0 112.5 -34.5t50.5 -94.5l-95 -18q-13 63 -82 63q-40 0 -63 -14.5t-23 -38.5q0 -22 24 -37t82 -29q62 -15 91.5 -45t29.5 -80q0 -76 -60 -121
t-166 -45q-81 0 -132 37.5t-63 108.5zM14 -263l27 58q20 -9 44 -9q21 0 33 10t12 25q0 25 -29 25h-23l33 102h118l-42 -130q-17 -50 -44.5 -71t-71.5 -21q-30 0 -57 11z" />
    <glyph glyph-name="uni021A" unicode="&#x21a;" horiz-adv-x="676" 
d="M798 700l-34 -105h-254l-194 -595h-112l194 595h-254l34 105h620zM86 -263l27 58q19 -9 44 -9q21 0 33 10t12 25q0 25 -29 25h-23l33 102h118l-42 -130q-17 -50 -44.5 -71t-71.5 -21q-30 0 -57 11z" />
    <glyph glyph-name="uni021B" unicode="&#x21b;" horiz-adv-x="390" 
d="M37 0l125 384h-94l29 90h94l50 151h107l-50 -151h149l-29 -90h-149l-125 -384h-107zM-79 -263l27 58q20 -9 44 -9q21 0 33 10t12 25q0 25 -29 25h-23l33 102h118l-42 -130q-17 -50 -44.5 -71t-71.5 -21q-30 0 -57 11z" />
    <glyph glyph-name="uni0237" unicode="&#x237;" horiz-adv-x="239" 
d="M-75 -198l218 672h107l-219 -672h-106z" />
    <glyph glyph-name="circumflex" unicode="&#x2c6;" horiz-adv-x="420" 
d="M155 555l5 16l156 108h68l94 -108l-5 -16h-105l-30 64l-69 -64h-114z" />
    <glyph glyph-name="caron" unicode="&#x2c7;" horiz-adv-x="420" 
d="M280 555l-94 108l5 16h102l33 -64l67 64h116l-5 -16l-153 -108h-71z" />
    <glyph glyph-name="uni02C9" unicode="&#x2c9;" horiz-adv-x="380" 
d="M169 576l26 78h260l-26 -78h-260z" />
    <glyph glyph-name="breve" unicode="&#x2d8;" horiz-adv-x="358" 
d="M188 635q0 22 9 43h75q-5 -15 -5 -24q0 -13 10.5 -22t27.5 -9q28 0 46 16t18 39h76q-4 -59 -45 -92t-105 -33q-49 0 -78 21.5t-29 60.5z" />
    <glyph glyph-name="dotaccent" unicode="&#x2d9;" horiz-adv-x="225" 
d="M157 555l38 115h117l-38 -115h-117z" />
    <glyph glyph-name="ring" unicode="&#x2da;" horiz-adv-x="285" 
d="M60 627q0 34 24 58.5t58 24.5q35 0 59 -24t24 -59q0 -34 -24.5 -58t-58.5 -24t-58 24t-24 58zM170 627q0 12 -8 20t-20 8q-11 0 -19 -8t-8 -20q0 -11 8 -19t19 -8q12 0 20 8t8 19z" />
    <glyph glyph-name="ogonek" unicode="&#x2db;" horiz-adv-x="317" 
d="M145 -175q-39 0 -62 20.5t-23 54.5q0 36 27.5 66.5t76.5 48.5h68q-42 -23 -62 -42t-20 -41q0 -25 27 -25q13 0 32 10l17 -69q-35 -23 -81 -23z" />
    <glyph glyph-name="tilde" unicode="&#x2dc;" horiz-adv-x="325" 
d="M182 556l-70 10q3 51 32 81t84 30q39 0 75 -30q24 -21 43 -21q18 0 30 14.5t12 33.5l70 -10q-3 -51 -32 -81t-84 -30q-39 0 -75 30q-24 21 -43 21q-18 0 -30 -14.5t-12 -33.5z" />
    <glyph glyph-name="hungarumlaut" unicode="&#x2dd;" horiz-adv-x="503" 
d="M161 555l106 133h147l-6 -16l-147 -117h-100zM354 555l106 133h147l-6 -16l-147 -117h-100z" />
    <glyph glyph-name="gravecomb" unicode="&#x300;" 
d="M-57 555l-83 117l6 16h137l36 -133h-96z" />
    <glyph glyph-name="acutecomb" unicode="&#x301;" 
d="M-165 555l106 133h147l-6 -16l-147 -117h-100z" />
    <glyph glyph-name="uni0302" unicode="&#x302;" 
d="M-265 555l5 16l156 108h68l94 -108l-5 -16h-105l-30 64l-69 -64h-114z" />
    <glyph glyph-name="tildecomb" unicode="&#x303;" 
d="M-143 556l-70 10q3 51 32 81t84 30q39 0 75 -30q24 -21 43 -21q18 0 30 14.5t12 33.5l70 -10q-3 -51 -32 -81t-84 -30q-39 0 -75 30q-24 21 -43 21q-18 0 -30 -14.5t-12 -33.5z" />
    <glyph glyph-name="uni0304" unicode="&#x304;" 
d="M-211 576l26 78h260l-26 -78h-260z" />
    <glyph glyph-name="uni0306" unicode="&#x306;" 
d="M-170 635q0 22 9 43h75q-5 -15 -5 -24q0 -13 10.5 -22t27.5 -9q28 0 46 16t18 39h76q-4 -59 -45 -92t-105 -33q-49 0 -78 21.5t-29 60.5z" />
    <glyph glyph-name="uni0307" unicode="&#x307;" 
d="M-68 555l38 115h117l-38 -115h-117z" />
    <glyph glyph-name="uni0308" unicode="&#x308;" 
d="M-224 563l36 112h112l-36 -112h-112zM-46 563l36 112h112l-36 -112h-112z" />
    <glyph glyph-name="uni030A" unicode="&#x30a;" 
d="M-116 627q0 39 27 66t66 27t66 -27t27 -66t-27 -66t-66 -27t-66 27t-27 66zM13 627q0 14 -11 25t-25 11t-25 -11t-11 -25t11 -25t25 -11t25 11t11 25z" />
    <glyph glyph-name="uni030B" unicode="&#x30b;" 
d="M-343 555l106 133h147l-6 -16l-147 -117h-100zM-150 555l106 133h147l-6 -16l-147 -117h-100z" />
    <glyph glyph-name="uni030C" unicode="&#x30c;" 
d="M-140 555l-94 108l5 16h102l33 -64l67 64h116l-5 -16l-153 -108h-71z" />
    <glyph glyph-name="uni0312" unicode="&#x312;" 
d="M-122 542l49 150q17 52 45 71t83 19h41l-20 -60h-37q-53 0 -53 -36q0 -24 27 -24h24l-39 -120h-120z" />
    <glyph glyph-name="uni0326" unicode="&#x326;" 
d="M-349 -263l27 58q19 -9 44 -9q21 0 33 10t12 25q0 25 -29 25h-23l33 102h118l-42 -130q-17 -50 -44.5 -71t-71.5 -21q-30 0 -57 11z" />
    <glyph glyph-name="uni0327" unicode="&#x327;" 
d="M-338 -122l58 13q1 -12 10 -20.5t23 -8.5q38 0 38 36q0 27 -28 27q-23 0 -37 -18l-44 20q25 40 43 89h60q-1 -1 -9 -13t-19 -27.5t-21 -26.5q21 21 53 21q26 0 42 -18t16 -48q0 -39 -29 -65.5t-74 -26.5q-34 0 -56.5 18t-25.5 48z" />
    <glyph glyph-name="uni0328" unicode="&#x328;" 
d="M-172 -175q-39 0 -62 20.5t-23 54.5q0 36 27.5 66.5t76.5 48.5h68q-42 -23 -62 -42t-20 -41q0 -25 27 -25q13 0 32 10l17 -69q-35 -23 -81 -23z" />
    <glyph glyph-name="uni0335" unicode="&#x335;" 
d="M-318 379h314l-28 -85h-314z" />
    <glyph glyph-name="uni0336" unicode="&#x336;" 
d="M-762 398h754l-30 -95h-754z" />
    <glyph glyph-name="uni0337" unicode="&#x337;" 
d="M-366 254l-29 76l312 136l32 -73z" />
    <glyph glyph-name="uni0338" unicode="&#x338;" 
d="M-471 -62l-68 49l385 549l68 -49z" />
    <glyph glyph-name="uni037E" unicode="&#x37e;" horiz-adv-x="245" 
d="M93 330l39 120h120l-39 -120h-120zM-80 -104l25 54q19 -10 42 -10q50 0 50 34q0 11 -9 18.5t-24 7.5h-18l39 120h120l-51 -157q-27 -83 -114 -83q-33 0 -60 16z" />
    <glyph glyph-name="tonos" unicode="&#x384;" horiz-adv-x="296" 
d="M162 555l75 133h136l-6 -16l-105 -117h-100z" />
    <glyph glyph-name="dieresistonos" unicode="&#x385;" horiz-adv-x="470" 
d="M278 552l52 133h112l-5 -16l-77 -117h-82zM143 563l36 112h110l-36 -112h-110zM429 563l36 112h110l-36 -112h-110z" />
    <glyph glyph-name="Alphatonos" unicode="&#x386;" horiz-adv-x="752" 
d="M546 0l-11 170h-343l-122 -170h-135l516 700h152l60 -700h-117zM263 270h265l-23 337zM128 567l75 133h136l-6 -16l-105 -117h-100z" />
    <glyph glyph-name="anoteleia" unicode="&#x387;" horiz-adv-x="245" 
d="M118 410h120l-38 -120h-120z" />
    <glyph glyph-name="Epsilontonos" unicode="&#x388;" horiz-adv-x="642" 
d="M223 700h510l-34 -105h-398l-59 -180h368l-34 -105h-368l-67 -205h408l-34 -105h-520zM-60 567l75 133h136l-6 -16l-105 -117h-100z" />
    <glyph glyph-name="Etatonos" unicode="&#x389;" horiz-adv-x="744" 
d="M578 295h-375l-96 -295h-112l228 700h112l-99 -305h375l99 305h112l-228 -700h-112zM-60 567l75 133h136l-6 -16l-105 -117h-100z" />
    <glyph glyph-name="Iotatonos" unicode="&#x38a;" horiz-adv-x="257" 
d="M-5 0l228 700h112l-228 -700h-112zM-60 567l75 133h136l-6 -16l-105 -117h-100z" />
    <glyph glyph-name="Omicrontonos" unicode="&#x38c;" horiz-adv-x="856" 
d="M82 293q-3 176 126 298t318 119q154 0 237.5 -85.5t83.5 -217.5q1 -86 -32 -163t-91.5 -133.5t-142 -89t-178.5 -31.5q-153 0 -237 86.5t-84 216.5zM728 401q0 93 -59.5 148.5t-158.5 55.5q-130 2 -220.5 -86.5t-88.5 -219.5q0 -92 60 -148t158 -56q127 -2 219 88t90 218
zM-18 567l75 133h136l-6 -16l-105 -117h-100z" />
    <glyph glyph-name="Upsilontonos" unicode="&#x38e;" horiz-adv-x="694" 
d="M213 0l93 285l-144 415h125l98 -315l303 315h144l-414 -415l-93 -285h-112zM-66 567l75 133h136l-6 -16l-105 -117h-100z" />
    <glyph glyph-name="Omegatonos" unicode="&#x38f;" horiz-adv-x="822" 
d="M830 443q0 -213 -253 -343h135l-32 -100h-295l31 95q126 57 209 140q83 85 83 182q0 89 -61 138q-61 50 -154 50q-129 0 -204 -74t-75 -191q0 -75 32 -139.5t86 -105.5l-31 -95h-285l32 100h157q-48 45 -78 110t-30 134q-2 157 113 262.5t302 103.5q142 0 230 -75
t88 -192zM-14 567l75 133h136l-6 -16l-105 -117h-100z" />
    <glyph glyph-name="iotadieresistonos" unicode="&#x390;" horiz-adv-x="343" 
d="M26 89q0 25 8 51l109 334h107l-112 -344q-3 -11 -3 -19q0 -12 8 -19t20 -7q33 0 51 35l73 -43q-39 -87 -149 -87q-51 0 -81.5 27.5t-30.5 71.5zM161 552l52 133h112l-5 -16l-77 -117h-82zM26 563l36 112h110l-36 -112h-110zM312 563l36 112h110l-36 -112h-110z" />
    <glyph glyph-name="Alpha" unicode="&#x391;" horiz-adv-x="752" 
d="M546 0l-11 170h-343l-122 -170h-135l516 700h152l60 -700h-117zM263 270h265l-23 337z" />
    <glyph glyph-name="Beta" unicode="&#x392;" horiz-adv-x="709" 
d="M-5 0l228 700h311q86 0 140 -45q55 -43 55 -118q0 -71 -43.5 -117t-116.5 -63q82 -27 82 -128q0 -103 -83.5 -166t-218.5 -63h-354zM240 410h217q71 0 112 27.5t41 77.5q0 36 -25.5 58t-68.5 22h-215zM141 105h237q72 0 115 31.5t43 87.5q0 38 -25 62t-71 24h-232z" />
    <glyph glyph-name="Gamma" unicode="&#x393;" horiz-adv-x="620" 
d="M708 595h-407l-194 -595h-112l228 700h519z" />
    <glyph glyph-name="uni0394" unicode="&#x394;" horiz-adv-x="752" 
d="M603 700l60 -700h-728l516 700h152zM142 100h397l-34 507z" />
    <glyph glyph-name="Epsilon" unicode="&#x395;" horiz-adv-x="642" 
d="M223 700h510l-34 -105h-398l-59 -180h368l-34 -105h-368l-67 -205h408l-34 -105h-520z" />
    <glyph glyph-name="Zeta" unicode="&#x396;" horiz-adv-x="707" 
d="M7 105l601 490h-436l34 105h595l-34 -105l-601 -490h446l-34 -105h-605z" />
    <glyph glyph-name="Eta" unicode="&#x397;" horiz-adv-x="744" 
d="M578 295h-375l-96 -295h-112l228 700h112l-99 -305h375l99 305h112l-228 -700h-112z" />
    <glyph glyph-name="Theta" unicode="&#x398;" horiz-adv-x="856" 
d="M82 293q-3 176 126 298t318 119q154 0 237.5 -85.5t83.5 -217.5q1 -86 -32 -163t-91.5 -133.5t-142 -89t-178.5 -31.5q-153 0 -237 86.5t-84 216.5zM728 401q0 93 -59.5 148.5t-158.5 55.5q-130 2 -220.5 -86.5t-88.5 -219.5q0 -92 60 -148t158 -56q127 -2 219 88t90 218
zM320 305l30 90h260l-30 -90h-260z" />
    <glyph glyph-name="Iota" unicode="&#x399;" horiz-adv-x="257" 
d="M-5 0l228 700h112l-228 -700h-112z" />
    <glyph glyph-name="Kappa" unicode="&#x39a;" horiz-adv-x="680" 
d="M453 418l130 -418h-125l-103 345l-183 -145l-65 -200h-112l228 700h112l-110 -337l418 337h160z" />
    <glyph glyph-name="Lambda" unicode="&#x39b;" horiz-adv-x="752" 
d="M-65 0l516 700h152l60 -700h-117l-41 607l-435 -607h-135z" />
    <glyph glyph-name="Mu" unicode="&#x39c;" horiz-adv-x="944" 
d="M794 0h-112l208 639l-406 -639h-174l5 639l-208 -639h-112l228 700h200l-4 -615l390 615h213z" />
    <glyph glyph-name="Nu" unicode="&#x39d;" horiz-adv-x="771" 
d="M309 620l-202 -620h-112l228 700h180l132 -621l202 621h112l-228 -700h-180z" />
    <glyph glyph-name="Xi" unicode="&#x39e;" horiz-adv-x="685" 
d="M747 595h-575l34 105h575zM532 305h-335l33 100h335zM7 105h585l-34 -105h-585z" />
    <glyph glyph-name="Omicron" unicode="&#x39f;" horiz-adv-x="856" 
d="M82 293q-3 176 126 298t318 119q154 0 237.5 -85.5t83.5 -217.5q1 -86 -32 -163t-91.5 -133.5t-142 -89t-178.5 -31.5q-153 0 -237 86.5t-84 216.5zM728 401q0 93 -59.5 148.5t-158.5 55.5q-130 2 -220.5 -86.5t-88.5 -219.5q0 -92 60 -148t158 -56q127 -2 219 88t90 218
z" />
    <glyph glyph-name="Pi" unicode="&#x3a0;" horiz-adv-x="744" 
d="M677 600h-375l-195 -600h-112l228 700h599l-228 -700h-112z" />
    <glyph glyph-name="Rho" unicode="&#x3a1;" horiz-adv-x="688" 
d="M-5 0l228 700h289q92 0 148 -52t56 -134q0 -108 -82 -171t-223 -63h-213l-91 -280h-112zM232 385h203q74 0 117 31.5t43 87.5q0 44 -27 67.5t-75 23.5h-192z" />
    <glyph glyph-name="Sigma" unicode="&#x3a3;" horiz-adv-x="660" 
d="M478 400l-32 -100l-285 -195h406l-34 -105h-560l41 125l345 239l-199 211l41 125h540l-34 -105h-407z" />
    <glyph glyph-name="Tau" unicode="&#x3a4;" horiz-adv-x="676" 
d="M798 700l-34 -105h-254l-194 -595h-112l194 595h-254l34 105h620z" />
    <glyph glyph-name="Upsilon" unicode="&#x3a5;" horiz-adv-x="694" 
d="M213 0l93 285l-144 415h125l98 -315l303 315h144l-414 -415l-93 -285h-112z" />
    <glyph glyph-name="Phi" unicode="&#x3a6;" horiz-adv-x="872" 
d="M302 0l26 80h-20q-91 0 -157.5 65.5t-66.5 175.5q-2 121 94.5 211t240.5 88h85l26 80h112l-26 -80h17q102 0 165 -65t63 -170q0 -139 -98 -222t-269 -83h-54l-26 -80h-112zM332 185h30l108 330h-54q-96 0 -158 -50t-62 -140q0 -65 37.5 -102.5t98.5 -37.5zM474 185h44
q95 0 163 51t68 141q0 138 -137 138h-30z" />
    <glyph glyph-name="Chi" unicode="&#x3a7;" horiz-adv-x="688" 
d="M-61 0l392 399l-114 301h124l79 -231l221 231h146l-326 -332l134 -368h-124l-99 289l-285 -289h-148z" />
    <glyph glyph-name="Psi" unicode="&#x3a8;" horiz-adv-x="811" 
d="M785 700h112l-59 -179q-54 -163 -149 -244t-244 -91l-61 -186h-112l62 191q-91 16 -142 75t-51 150q0 57 21 123l53 161h112l-57 -175q-17 -54 -17 -100q0 -112 113 -135l134 410h112l-134 -410q89 16 154 77t96 158z" />
    <glyph glyph-name="uni03A9" unicode="&#x3a9;" horiz-adv-x="822" 
d="M830 443q0 -213 -253 -343h135l-32 -100h-295l31 95q126 57 209 140q83 85 83 182q0 89 -61 138q-61 50 -154 50q-129 0 -204 -74t-75 -191q0 -75 32 -139.5t86 -105.5l-31 -95h-285l32 100h157q-48 45 -78 110t-30 134q-2 157 113 262.5t302 103.5q142 0 230 -75
t88 -192z" />
    <glyph glyph-name="Iotadieresis" unicode="&#x3aa;" horiz-adv-x="257" 
d="M-5 0l228 700h112l-228 -700h-112zM163 789l36 112h112l-36 -112h-112zM341 789l36 112h112l-36 -112h-112z" />
    <glyph glyph-name="Upsilondieresis" unicode="&#x3ab;" horiz-adv-x="694" 
d="M213 0l93 285l-144 415h125l98 -315l303 315h144l-414 -415l-93 -285h-112zM365 789l36 112h112l-36 -112h-112zM543 789l36 112h112l-36 -112h-112z" />
    <glyph glyph-name="alphatonos" unicode="&#x3ac;" horiz-adv-x="671" 
d="M40 190q0 129 75 211.5t201 82.5q50 0 85.5 -22t52.5 -57l22 69h107l-112 -344q-3 -9 -3 -17q0 -25 25 -25q28 0 43 32l81 -36q-34 -94 -136 -94q-45 0 -72 26t-27 68q-54 -94 -171 -94q-76 0 -123.5 56t-47.5 144zM409 273q0 52 -26.5 84t-71.5 32q-69 0 -115 -55
t-46 -134q0 -56 27 -85.5t71 -29.5q69 0 115 56t46 132zM328 555l75 133h136l-6 -16l-105 -117h-100z" />
    <glyph glyph-name="epsilontonos" unicode="&#x3ad;" horiz-adv-x="482" 
d="M8 119q0 54 35 88.5t98 44.5q-52 28 -52 86q0 71 54 108.5t144 37.5q71 0 115.5 -33t54.5 -91l-92 -39q-8 35 -32.5 54.5t-60.5 19.5q-38 0 -60.5 -16.5t-22.5 -44.5q0 -21 17 -35t44 -14h25l-30 -90h-49q-36 0 -58 -15.5t-22 -42.5q0 -24 19.5 -38t52.5 -14
q54 0 87 22.5t53 71.5l93 -38q-28 -77 -87 -114t-160 -37q-71 0 -118 34q-48 35 -48 95zM276 555l75 133h136l-6 -16l-105 -117h-100z" />
    <glyph glyph-name="etatonos" unicode="&#x3ae;" horiz-adv-x="552" 
d="M238 -198l156 481q6 20 6 35q0 34 -20 55t-53 21q-49 0 -86.5 -32.5t-56.5 -92.5l-88 -269h-107l154 474h107l-21 -65q59 75 155 75q59 0 95 -37t36 -95q0 -30 -10 -57l-160 -493h-107zM338 555l75 133h136l-6 -16l-105 -117h-100z" />
    <glyph glyph-name="iotatonos" unicode="&#x3af;" horiz-adv-x="343" 
d="M26 89q0 25 8 51l109 334h107l-112 -344q-3 -11 -3 -19q0 -12 8 -19t20 -7q33 0 51 35l73 -43q-39 -87 -149 -87q-51 0 -81.5 27.5t-30.5 71.5zM173 555l75 133h136l-6 -16l-105 -117h-100z" />
    <glyph glyph-name="upsilondieresistonos" unicode="&#x3b0;" horiz-adv-x="550" 
d="M43 132q0 36 16 84l84 258h107l-90 -277q-9 -27 -9 -49q0 -30 19.5 -46.5t55.5 -16.5q102 0 138 112l90 277h107l-92 -283q-34 -104 -96 -152.5t-163 -48.5q-75 0 -121 39t-46 103zM314 552l52 133h112l-5 -16l-77 -117h-82zM179 563l36 112h110l-36 -112h-110zM465 563
l36 112h110l-36 -112h-110z" />
    <glyph glyph-name="alpha" unicode="&#x3b1;" horiz-adv-x="671" 
d="M40 190q0 129 75 211.5t201 82.5q50 0 85.5 -22t52.5 -57l22 69h107l-112 -344q-3 -9 -3 -17q0 -25 25 -25q28 0 43 32l81 -36q-34 -94 -136 -94q-45 0 -72 26t-27 68q-54 -94 -171 -94q-76 0 -123.5 56t-47.5 144zM409 273q0 52 -26.5 84t-71.5 32q-69 0 -115 -55
t-46 -134q0 -56 27 -85.5t71 -29.5q69 0 115 56t46 132z" />
    <glyph glyph-name="beta" unicode="&#x3b2;" horiz-adv-x="572" 
d="M-75 -198l241 741q25 79 82 123t140 44q72 0 113 -36t41 -104q0 -62 -42 -109q-39 -45 -107 -56q49 -11 84 -54q35 -44 35 -105q0 -115 -71.5 -185.5t-190.5 -70.5q-45 0 -82 18.5t-53 47.5l-83 -254h-107zM403 239q0 56 -35 86.5t-93 30.5h-10l30 90h10q52 0 91 30
q39 32 39 80q0 29 -18 46.5t-46 17.5q-72 0 -102 -89l-103 -316q-8 -27 -8 -44q0 -39 27 -62t70 -23q66 0 106 43q42 43 42 110z" />
    <glyph glyph-name="gamma" unicode="&#x3b3;" horiz-adv-x="542" 
d="M77 -198l89 273l-71 399h107l40 -299l237 299h122l-329 -399l-89 -273h-106z" />
    <glyph glyph-name="delta" unicode="&#x3b4;" horiz-adv-x="573" 
d="M36 190q0 98 57 167.5t144 89.5q-35 9 -56.5 37.5t-21.5 62.5q0 83 72 123q73 40 186 40q133 0 195 -70l-81 -80q-43 55 -138 55q-58 0 -94 -18.5t-36 -55.5q0 -47 99 -61q86 -10 130 -66q43 -53 43 -126q0 -130 -81 -214t-213 -84q-87 0 -146 56t-59 144zM425 275
q0 54 -27 84t-78 30q-79 0 -126 -54.5t-47 -130.5q0 -56 30 -87.5t81 -31.5q70 0 118.5 54t48.5 136z" />
    <glyph glyph-name="epsilon" unicode="&#x3b5;" horiz-adv-x="482" 
d="M8 119q0 54 35 88.5t98 44.5q-52 28 -52 86q0 71 54 108.5t144 37.5q71 0 115.5 -33t54.5 -91l-92 -39q-8 35 -32.5 54.5t-60.5 19.5q-38 0 -60.5 -16.5t-22.5 -44.5q0 -21 17 -35t44 -14h25l-30 -90h-49q-36 0 -58 -15.5t-22 -42.5q0 -24 19.5 -38t52.5 -14
q54 0 87 22.5t53 71.5l93 -38q-28 -77 -87 -114t-160 -37q-71 0 -118 34q-48 35 -48 95z" />
    <glyph glyph-name="zeta" unicode="&#x3b6;" horiz-adv-x="530" 
d="M301 -208l-48 72q62 27 62 72q0 21 -17.5 36t-47.5 18q-96 8 -152 65t-56 147q-2 143 112.5 252.5t290.5 150.5h-260l31 95h440l-31 -95q-210 -52 -347 -151q-134 -98 -134 -235q0 -121 145 -139q63 -8 98.5 -40.5t35.5 -86.5q0 -55 -29.5 -93t-92.5 -68z" />
    <glyph glyph-name="eta" unicode="&#x3b7;" horiz-adv-x="552" 
d="M238 -198l156 481q6 20 6 35q0 34 -20 55t-53 21q-49 0 -86.5 -32.5t-56.5 -92.5l-88 -269h-107l154 474h107l-21 -65q59 75 155 75q59 0 95 -37t36 -95q0 -30 -10 -57l-160 -493h-107z" />
    <glyph glyph-name="theta" unicode="&#x3b8;" horiz-adv-x="615" 
d="M623 464q0 -124 -49 -232q-47 -107 -131 -176q-83 -66 -182 -66q-92 0 -144 64.5t-52 181.5q0 122 48 231q50 110 132 176q82 67 182 67q92 0 144 -64.5t52 -181.5zM196 395h315q4 25 4 66q0 74 -26.5 114t-72.5 40q-64 0 -126.5 -61t-93.5 -159zM492 305h-315
q-4 -25 -4 -66q0 -74 26.5 -114t72.5 -40q64 0 126.5 61t93.5 159z" />
    <glyph glyph-name="iota" unicode="&#x3b9;" horiz-adv-x="343" 
d="M26 89q0 25 8 51l109 334h107l-112 -344q-3 -11 -3 -19q0 -12 8 -19t20 -7q33 0 51 35l73 -43q-39 -87 -149 -87q-51 0 -81.5 27.5t-30.5 71.5z" />
    <glyph glyph-name="kappa" unicode="&#x3ba;" horiz-adv-x="488" 
d="M-11 0l154 474h107l-57 -175l192 175h148l-271 -232l127 -242h-125l-103 201l-65 -201h-107z" />
    <glyph glyph-name="lambda" unicode="&#x3bb;" horiz-adv-x="516" 
d="M427 0h-103l-40 280l-224 -280h-123l328 413l-41 287h100z" />
    <glyph glyph-name="uni03BC" unicode="&#x3bc;" horiz-adv-x="552" 
d="M-75 -198l218 672h107l-92 -283q-6 -19 -6 -35q0 -34 20 -55t53 -21q49 0 86.5 32.5t56.5 92.5l88 269h107l-154 -474h-107l21 65q-32 -40 -68.5 -57.5t-86.5 -17.5q-38 0 -69 20l-67 -208h-107z" />
    <glyph glyph-name="nu" unicode="&#x3bd;" horiz-adv-x="534" 
d="M202 474l19 -369l252 369h120l-335 -474h-128l-35 474h107z" />
    <glyph glyph-name="xi" unicode="&#x3be;" horiz-adv-x="522" 
d="M299 -208l-54 77q63 32 63 67q0 43 -76 54q-94 12 -147 61.5t-53 128.5q0 164 199 206q-30 19 -48.5 52t-18.5 73q0 97 65 148t181 51q90 0 142 -46.5t52 -128.5l-98 -23q-1 48 -32 78t-78 30q-56 0 -93 -29.5t-37 -79.5q0 -45 32.5 -72.5t84.5 -27.5h66l-29 -90h-93
q-79 0 -135 -32q-55 -31 -55 -97q0 -47 34 -73t110 -39q133 -23 133 -127q0 -107 -115 -161z" />
    <glyph glyph-name="omicron" unicode="&#x3bf;" horiz-adv-x="594" 
d="M38 198q-2 117 85.5 202.5t218.5 83.5q98 0 156 -58.5t58 -149.5q2 -117 -85.5 -202.5t-218.5 -83.5q-98 0 -156 58.5t-58 149.5zM448 269q0 51 -34 85q-33 35 -85 35q-80 0 -131.5 -53.5t-51.5 -130.5q0 -51 33 -85q35 -35 86 -35q80 0 131.5 53.5t51.5 130.5z" />
    <glyph glyph-name="pi" unicode="&#x3c0;" horiz-adv-x="662" 
d="M97 474h557l-30 -90h-109l-82 -254q-3 -9 -3 -17q0 -25 29 -25t47 32l83 -47q-20 -40 -61 -61.5t-91 -21.5q-54 0 -85 27t-31 72q0 29 10 58l77 237h-114l-124 -384h-107l124 384h-119z" />
    <glyph glyph-name="rho" unicode="&#x3c1;" horiz-adv-x="592" 
d="M-75 -198l151 464q35 109 109 163.5t174 54.5q92 0 145 -53.5t53 -140.5q2 -125 -86.5 -213.5t-215.5 -86.5q-47 0 -85.5 23t-53.5 57l-87 -268h-104zM449 281q0 48 -28 78t-76 30q-74 0 -131 -60t-57 -139q0 -47 31.5 -77t77.5 -30q73 -2 129 59.5t54 138.5z" />
    <glyph glyph-name="uni03C2" unicode="&#x3c2;" horiz-adv-x="524" 
d="M294 -208l-48 67q27 13 44.5 32t17.5 40q0 24 -16.5 37.5t-60.5 21.5q-87 15 -139 68t-52 139q0 130 86 208.5t220 78.5q90 0 142.5 -47t53.5 -127l-93 -26q-3 52 -33.5 81t-84.5 29q-78 0 -131.5 -50t-53.5 -131q0 -58 32.5 -88t101.5 -45q134 -27 134 -132
q0 -55 -29.5 -91.5t-90.5 -64.5z" />
    <glyph glyph-name="sigma" unicode="&#x3c3;" horiz-adv-x="594" 
d="M38 198q0 118 84 197t218 79h280l-30 -90h-90q24 -20 39 -52.5t15 -65.5q0 -118 -83 -197t-217 -79q-98 0 -157 58.5t-59 149.5zM446 259q0 53 -33 86.5t-86 33.5q-81 0 -131 -49t-50 -125q0 -51 33 -85q35 -35 86 -35q81 0 131 49t50 125z" />
    <glyph glyph-name="tau" unicode="&#x3c4;" horiz-adv-x="432" 
d="M99 89q0 25 8 51l78 239h-119l31 95h365l-31 -95h-139l-81 -249q-3 -11 -3 -19q0 -12 8 -19t20 -7q33 0 51 35l73 -43q-39 -87 -149 -87q-51 0 -81.5 27.5t-30.5 71.5z" />
    <glyph glyph-name="upsilon" unicode="&#x3c5;" horiz-adv-x="550" 
d="M43 132q0 36 16 84l84 258h107l-90 -277q-9 -27 -9 -49q0 -30 19.5 -46.5t55.5 -16.5q102 0 138 112l90 277h107l-92 -283q-34 -104 -96 -152.5t-163 -48.5q-75 0 -121 39t-46 103z" />
    <glyph glyph-name="phi" unicode="&#x3c6;" horiz-adv-x="739" 
d="M701 274q0 -120 -90 -197t-231 -77h-34l-64 -198h-107l64 198h-18q-76 0 -130 55t-54 141q-2 121 92 200.5t228 77.5h37l73 226h107l-73 -226h9q84 0 137.5 -55t53.5 -145zM254 95h16l93 284h-35q-80 0 -134.5 -48t-54.5 -123q0 -52 31.5 -82.5t83.5 -30.5zM599 264
q0 53 -31 84t-85 31h-13l-93 -284h24q85 0 141.5 47t56.5 122z" />
    <glyph glyph-name="chi" unicode="&#x3c7;" horiz-adv-x="484" 
d="M-129 -198l287 371l-54 301h114l27 -211l163 211h126l-264 -332l61 -340h-112l-37 243l-181 -243h-130z" />
    <glyph glyph-name="psi" unicode="&#x3c8;" horiz-adv-x="667" 
d="M139 -198l64 198q-67 3 -110 43q-44 41 -44 102q0 37 14 82l80 247h107l-82 -254q-12 -39 -12 -59q0 -65 78 -66l197 605h107l-197 -605q50 2 90 34.5t58 90.5l82 254h107l-85 -263q-66 -207 -283 -211l-64 -198h-107z" />
    <glyph glyph-name="omega" unicode="&#x3c9;" horiz-adv-x="806" 
d="M28 158q0 87 44 173q45 86 113 143h119q-74 -67 -119 -148q-47 -83 -47 -159q0 -37 18.5 -59.5t49.5 -22.5q89 0 128 120l54 164h107l-54 -164q-8 -26 -8 -48q0 -33 21 -52.5t57 -19.5q76 0 117 60t41 166q0 94 -22 163h111q18 -62 18 -149q2 -140 -79.5 -238.5
t-208.5 -96.5q-49 0 -85 29t-43 73q-69 -102 -182 -102q-71 0 -110.5 44.5t-39.5 123.5z" />
    <glyph glyph-name="iotadieresis" unicode="&#x3ca;" horiz-adv-x="343" 
d="M26 89q0 25 8 51l109 334h107l-112 -344q-3 -11 -3 -19q0 -12 8 -19t20 -7q33 0 51 35l73 -43q-39 -87 -149 -87q-51 0 -81.5 27.5t-30.5 71.5zM79 563l36 112h112l-36 -112h-112zM257 563l36 112h112l-36 -112h-112z" />
    <glyph glyph-name="upsilondieresis" unicode="&#x3cb;" horiz-adv-x="550" 
d="M43 132q0 36 16 84l84 258h107l-90 -277q-9 -27 -9 -49q0 -30 19.5 -46.5t55.5 -16.5q102 0 138 112l90 277h107l-92 -283q-34 -104 -96 -152.5t-163 -48.5q-75 0 -121 39t-46 103zM232 563l36 112h112l-36 -112h-112zM410 563l36 112h112l-36 -112h-112z" />
    <glyph glyph-name="omicrontonos" unicode="&#x3cc;" horiz-adv-x="594" 
d="M38 198q-2 117 85.5 202.5t218.5 83.5q98 0 156 -58.5t58 -149.5q2 -117 -85.5 -202.5t-218.5 -83.5q-98 0 -156 58.5t-58 149.5zM448 269q0 51 -34 85q-33 35 -85 35q-80 0 -131.5 -53.5t-51.5 -130.5q0 -51 33 -85q35 -35 86 -35q80 0 131.5 53.5t51.5 130.5zM328 555
l75 133h136l-6 -16l-105 -117h-100z" />
    <glyph glyph-name="upsilontonos" unicode="&#x3cd;" horiz-adv-x="550" 
d="M43 132q0 36 16 84l84 258h107l-90 -277q-9 -27 -9 -49q0 -30 19.5 -46.5t55.5 -16.5q102 0 138 112l90 277h107l-92 -283q-34 -104 -96 -152.5t-163 -48.5q-75 0 -121 39t-46 103zM326 555l75 133h136l-6 -16l-105 -117h-100z" />
    <glyph glyph-name="omegatonos" unicode="&#x3ce;" horiz-adv-x="806" 
d="M28 158q0 87 44 173q45 86 113 143h119q-74 -67 -119 -148q-47 -83 -47 -159q0 -37 18.5 -59.5t49.5 -22.5q89 0 128 120l54 164h107l-54 -164q-8 -26 -8 -48q0 -33 21 -52.5t57 -19.5q76 0 117 60t41 166q0 94 -22 163h111q18 -62 18 -149q2 -140 -79.5 -238.5
t-208.5 -96.5q-49 0 -85 29t-43 73q-69 -102 -182 -102q-71 0 -110.5 44.5t-39.5 123.5zM458 555l75 133h136l-6 -16l-105 -117h-100z" />
    <glyph glyph-name="uni0400" unicode="&#x400;" horiz-adv-x="642" 
d="M223 700h510l-34 -105h-398l-59 -180h368l-34 -105h-368l-67 -205h408l-34 -105h-520zM452 781l-83 117l6 16h137l36 -133h-96z" />
    <glyph glyph-name="uni0401" unicode="&#x401;" horiz-adv-x="642" 
d="M223 700h510l-34 -105h-398l-59 -180h368l-34 -105h-368l-67 -205h408l-34 -105h-520zM360 789l36 112h112l-36 -112h-112zM538 789l36 112h112l-36 -112h-112z" />
    <glyph glyph-name="uni0402" unicode="&#x402;" horiz-adv-x="850" 
d="M494 -110v16q81 86 139 186q57 99 57 185q0 51 -27 78t-78 27q-66 0 -120.5 -48t-80.5 -129l-67 -205h-112l195 600h-254l33 100h620l-33 -100h-254l-68 -209q74 93 189 93q79 0 125 -53t46 -138q0 -186 -193 -403h-117z" />
    <glyph glyph-name="uni0403" unicode="&#x403;" horiz-adv-x="620" 
d="M708 595h-407l-194 -595h-112l228 700h519zM455 782l106 133h147l-6 -16l-147 -117h-100z" />
    <glyph glyph-name="uni0404" unicode="&#x404;" horiz-adv-x="800" 
d="M675 304l103 -35q-84 -279 -390 -279q-135 0 -220 83t-85 220q-3 177 123 298t311 119q139 0 206 -64q69 -64 84 -171l-105 -32q-8 78 -60.5 122.5t-134.5 44.5q-105 0 -183 -57q-77 -56 -107 -148h283l-34 -105h-265q1 -97 56.5 -153.5t147.5 -56.5q204 0 270 214z" />
    <glyph glyph-name="uni0405" unicode="&#x405;" horiz-adv-x="663" 
d="M429 605q-62 0 -103 -26t-41 -69q0 -38 35.5 -62.5t112.5 -42.5q174 -38 174 -187q0 -104 -80.5 -166t-212.5 -62q-125 0 -203.5 66t-81.5 176l111 27q12 -164 180 -164q76 0 121.5 29.5t45.5 80.5q0 46 -30 69t-118 48q-172 46 -172 184q0 90 77 147t192 57
q106 0 168.5 -48t72.5 -140l-108 -26q-10 109 -140 109z" />
    <glyph glyph-name="uni0406" unicode="&#x406;" horiz-adv-x="257" 
d="M-5 0l228 700h112l-228 -700h-112z" />
    <glyph glyph-name="uni0407" unicode="&#x407;" horiz-adv-x="257" 
d="M-5 0l228 700h112l-228 -700h-112zM163 789l36 112h112l-36 -112h-112zM341 789l36 112h112l-36 -112h-112z" />
    <glyph glyph-name="uni0408" unicode="&#x408;" horiz-adv-x="607" 
d="M37 181q0 99 75 169l88 -52q-50 -53 -50 -110q0 -39 32 -66t80 -27q66 0 105.5 35.5t66.5 117.5l147 452h112l-156 -480q-39 -120 -100.5 -174t-192.5 -56q-94 0 -150.5 55.5t-56.5 135.5z" />
    <glyph glyph-name="uni0409" unicode="&#x409;" horiz-adv-x="1086" 
d="M-52 0l5 16q96 109 169 334l114 350h475l-94 -288h213q93 0 145.5 -49t52.5 -132q0 -101 -77.5 -166t-219.5 -65h-360l195 600h-251l-84 -258q-79 -243 -162 -342h-121zM517 105h238q73 0 115.5 32t42.5 88q0 37 -26 59.5t-72 22.5h-232z" />
    <glyph glyph-name="uni040A" unicode="&#x40a;" horiz-adv-x="1007" 
d="M-5 0l228 700h112l-91 -280h251l91 280h112l-91 -280h148q92 0 143.5 -51t51.5 -136q0 -103 -81.5 -168t-218.5 -65h-292l103 315h-251l-103 -315h-112zM504 105h170q68 0 114 33q47 33 47 88q0 41 -25.5 65t-69.5 24h-167z" />
    <glyph glyph-name="uni040B" unicode="&#x40b;" horiz-adv-x="806" 
d="M204 0l194 595h-254l34 105h620l-34 -105h-254l-63 -193q72 82 177 82q66 0 102.5 -33t36.5 -92q0 -36 -13 -74l-93 -285h-112l90 277q8 26 8 41q0 35 -20.5 54.5t-58.5 19.5q-51 0 -97 -37q-47 -38 -68 -100l-83 -255h-112z" />
    <glyph glyph-name="uni040C" unicode="&#x40c;" horiz-adv-x="642" 
d="M-5 0l228 700h112l-94 -289l372 289h160l-451 -347l229 -353h-133l-206 322l-105 -322h-112zM442 782l106 133h147l-6 -16l-147 -117h-100z" />
    <glyph glyph-name="uni040D" unicode="&#x40d;" horiz-adv-x="772" 
d="M-5 0l228 700h112l-202 -621l520 621h197l-228 -700h-112l202 620l-520 -620h-197zM512 781l-83 117l6 16h137l36 -133h-96z" />
    <glyph glyph-name="uni040E" unicode="&#x40e;" horiz-adv-x="705" 
d="M702 700h138l-663 -700h-141l261 274l-132 426h124l98 -332zM409 861q0 22 9 43h75q-5 -15 -5 -24q0 -13 10.5 -22t27.5 -9q28 0 46 16t18 39h76q-4 -59 -45 -92t-105 -33q-49 0 -78 21.5t-29 60.5z" />
    <glyph glyph-name="uni040F" unicode="&#x40f;" horiz-adv-x="676" 
d="M174 -110l36 110h-215l228 700h112l-195 -600h307l195 600h112l-228 -700h-214l-36 -110h-102z" />
    <glyph glyph-name="uni0410" unicode="&#x410;" horiz-adv-x="752" 
d="M546 0l-11 170h-343l-122 -170h-135l516 700h152l60 -700h-117zM263 270h265l-23 337z" />
    <glyph glyph-name="uni0411" unicode="&#x411;" horiz-adv-x="710" 
d="M-5 0l228 700h495l-34 -105h-383l-60 -183h213q93 0 145.5 -49t52.5 -132q0 -101 -77.5 -166t-219.5 -65h-360zM141 105h238q73 0 115.5 32t42.5 88q0 37 -26 59.5t-72 22.5h-232z" />
    <glyph glyph-name="uni0412" unicode="&#x412;" horiz-adv-x="709" 
d="M-5 0l228 700h311q86 0 140 -45q55 -43 55 -118q0 -71 -43.5 -117t-116.5 -63q82 -27 82 -128q0 -103 -83.5 -166t-218.5 -63h-354zM240 410h217q71 0 112 27.5t41 77.5q0 36 -25.5 58t-68.5 22h-215zM141 105h237q72 0 115 31.5t43 87.5q0 38 -25 62t-71 24h-232z" />
    <glyph glyph-name="uni0413" unicode="&#x413;" horiz-adv-x="620" 
d="M708 595h-407l-194 -595h-112l228 700h519z" />
    <glyph glyph-name="uni0414" unicode="&#x414;" horiz-adv-x="725" 
d="M-89 -110l69 210h70q62 58 99 111q39 57 61 110q27 64 56 154l74 225h426l-195 -600h85l-69 -210h-102l36 110h-472l-36 -110h-102zM177 100h282l162 500h-207l-41 -125q-45 -136 -86 -220q-40 -82 -110 -155z" />
    <glyph glyph-name="uni0415" unicode="&#x415;" horiz-adv-x="642" 
d="M223 700h510l-34 -105h-398l-59 -180h368l-34 -105h-368l-67 -205h408l-34 -105h-520z" />
    <glyph glyph-name="uni0416" unicode="&#x416;" horiz-adv-x="1039" 
d="M1170 700l-451 -347l229 -353h-133l-206 322l-105 -322h-112l103 316l-385 -316h-173l479 380l-235 320h139l204 -295l96 295h112l-94 -289l372 289h160z" />
    <glyph glyph-name="uni0417" unicode="&#x417;" horiz-adv-x="607" 
d="M31 210l114 36q0 -70 35.5 -110.5t100.5 -40.5q69 0 109 30.5t40 84.5q0 42 -27 66t-77 24h-31l34 105h44q68 0 107.5 27.5t39.5 77.5q0 45 -32 70t-86 25q-109 0 -150 -113l-98 38q62 180 260 180q100 0 158 -46t58 -134q0 -75 -48.5 -124.5t-116.5 -60.5q35 -12 56 -45
t21 -80q0 -108 -75 -169t-193 -61q-116 0 -178 63t-65 157z" />
    <glyph glyph-name="uni0418" unicode="&#x418;" horiz-adv-x="772" 
d="M-5 0l228 700h112l-202 -621l520 621h197l-228 -700h-112l202 620l-520 -620h-197z" />
    <glyph glyph-name="uni0419" unicode="&#x419;" horiz-adv-x="772" 
d="M-5 0l228 700h112l-202 -621l520 621h197l-228 -700h-112l202 620l-520 -620h-197zM457 861q0 22 9 43h75q-5 -15 -5 -24q0 -13 10.5 -22t27.5 -9q28 0 46 16t18 39h76q-4 -59 -45 -92t-105 -33q-49 0 -78 21.5t-29 60.5z" />
    <glyph glyph-name="uni041A" unicode="&#x41a;" horiz-adv-x="642" 
d="M-5 0l228 700h112l-94 -289l372 289h160l-451 -347l229 -353h-133l-206 322l-105 -322h-112z" />
    <glyph glyph-name="uni041B" unicode="&#x41b;" horiz-adv-x="708" 
d="M-52 0l5 16q96 109 169 334l114 350h550l-228 -700h-112l195 600h-326l-84 -258q-79 -243 -162 -342h-121z" />
    <glyph glyph-name="uni041C" unicode="&#x41c;" horiz-adv-x="944" 
d="M794 0h-112l208 639l-406 -639h-174l5 639l-208 -639h-112l228 700h200l-4 -615l390 615h213z" />
    <glyph glyph-name="uni041D" unicode="&#x41d;" horiz-adv-x="744" 
d="M578 295h-375l-96 -295h-112l228 700h112l-99 -305h375l99 305h112l-228 -700h-112z" />
    <glyph glyph-name="uni041E" unicode="&#x41e;" horiz-adv-x="856" 
d="M82 293q-3 176 126 298t318 119q154 0 237.5 -85.5t83.5 -217.5q1 -86 -32 -163t-91.5 -133.5t-142 -89t-178.5 -31.5q-153 0 -237 86.5t-84 216.5zM728 401q0 93 -59.5 148.5t-158.5 55.5q-130 2 -220.5 -86.5t-88.5 -219.5q0 -92 60 -148t158 -56q127 -2 219 88t90 218
z" />
    <glyph glyph-name="uni041F" unicode="&#x41f;" horiz-adv-x="744" 
d="M677 600h-375l-195 -600h-112l228 700h599l-228 -700h-112z" />
    <glyph glyph-name="uni0420" unicode="&#x420;" horiz-adv-x="688" 
d="M-5 0l228 700h289q92 0 148 -52t56 -134q0 -108 -82 -171t-223 -63h-213l-91 -280h-112zM232 385h203q74 0 117 31.5t43 87.5q0 44 -27 67.5t-75 23.5h-192z" />
    <glyph glyph-name="uni0421" unicode="&#x421;" horiz-adv-x="800" 
d="M83 293q-3 177 123 298t311 119q139 0 206 -64q69 -64 84 -171l-105 -32q-8 78 -60.5 122.5t-134.5 44.5q-131 2 -219.5 -88.5t-86.5 -218.5q0 -99 55.5 -156t148.5 -57q204 0 270 214l103 -35q-84 -279 -390 -279q-135 0 -220 83t-85 220z" />
    <glyph glyph-name="uni0422" unicode="&#x422;" horiz-adv-x="676" 
d="M798 700l-34 -105h-254l-194 -595h-112l194 595h-254l34 105h620z" />
    <glyph glyph-name="uni0423" unicode="&#x423;" horiz-adv-x="705" 
d="M702 700h138l-663 -700h-141l261 274l-132 426h124l98 -332z" />
    <glyph glyph-name="uni0424" unicode="&#x424;" horiz-adv-x="872" 
d="M414 0h-112l26 80h-14q-98 0 -164 67t-66 166q0 140 96.5 223.5t259.5 83.5h64l26 80h112l-26 -80h14q103 0 166.5 -67.5t63.5 -165.5q0 -149 -99 -229q-99 -78 -267 -78h-54zM331 185h31l108 330h-44q-107 0 -167.5 -51t-60.5 -138q0 -65 37.5 -103t95.5 -38zM616 515
h-34l-108 -330h44q107 0 167.5 50t60.5 137q0 64 -35.5 103.5t-94.5 39.5z" />
    <glyph glyph-name="uni0425" unicode="&#x425;" horiz-adv-x="688" 
d="M-61 0l392 399l-114 301h124l79 -231l221 231h146l-326 -332l134 -368h-124l-99 289l-285 -289h-148z" />
    <glyph glyph-name="uni0426" unicode="&#x426;" horiz-adv-x="702" 
d="M462 -110l36 110h-503l228 700h112l-195 -600h296l195 600h112l-195 -600h85l-69 -210h-102z" />
    <glyph glyph-name="uni0427" unicode="&#x427;" horiz-adv-x="692" 
d="M430 0l77 235q-96 -77 -214 -77q-81 0 -131 52t-50 133q0 47 16 92l87 265h112l-89 -272q-10 -29 -10 -62q0 -103 114 -103q49 0 96 21.5t108 71.5l112 344h112l-228 -700h-112z" />
    <glyph glyph-name="uni0428" unicode="&#x428;" horiz-adv-x="942" 
d="M908 700h112l-228 -700h-797l228 700h112l-195 -600h231l195 600h112l-195 -600h230z" />
    <glyph glyph-name="uni0429" unicode="&#x429;" horiz-adv-x="980" 
d="M740 -110l36 110h-781l228 700h112l-195 -600h231l195 600h112l-195 -600h230l195 600h112l-195 -600h86l-69 -210h-102z" />
    <glyph glyph-name="uni042A" unicode="&#x42a;" horiz-adv-x="809" 
d="M751 231q0 -101 -77.5 -166t-219.5 -65h-360l194 595h-144l34 105h256l-94 -288h213q93 0 145.5 -49t52.5 -132zM636 225q0 37 -26 59.5t-72 22.5h-232l-66 -202h238q72 0 115 32t43 88z" />
    <glyph glyph-name="uni042B" unicode="&#x42b;" horiz-adv-x="967" 
d="M-5 0l228 700h112l-94 -288h213q93 0 145.5 -49t52.5 -132q0 -101 -77.5 -166t-219.5 -65h-360zM141 105h238q73 0 115.5 32t42.5 88q0 37 -26 59.5t-72 22.5h-232zM705 0l228 700h112l-228 -700h-112z" />
    <glyph glyph-name="uni042C" unicode="&#x42c;" horiz-adv-x="710" 
d="M-5 0l228 700h112l-94 -288h213q93 0 145.5 -49t52.5 -132q0 -101 -77.5 -166t-219.5 -65h-360zM141 105h238q73 0 115.5 32t42.5 88q0 37 -26 59.5t-72 22.5h-232z" />
    <glyph glyph-name="uni042D" unicode="&#x42d;" horiz-adv-x="806" 
d="M794 412q0 -191 -117.5 -306.5t-327.5 -115.5q-128 -2 -218 82t-88 198l107 31q3 -89 59.5 -150t156.5 -61q114 0 192 56t105 154h-332l34 105h311q-2 89 -52.5 147t-135.5 58q-180 0 -243 -178l-102 43q34 111 126 173t231 62q138 0 216 -83.5t78 -214.5z" />
    <glyph glyph-name="uni042E" unicode="&#x42e;" horiz-adv-x="1145" 
d="M1136 407q1 -86 -32 -163t-91.5 -133.5t-142 -89t-178.5 -31.5q-153 0 -237 86.5t-84 216.5v2h-168l-96 -295h-112l228 700h112l-99 -305h147q33 140 152 227.5t280 87.5q154 0 237.5 -85.5t83.5 -217.5zM1017 401q0 93 -59.5 148.5t-158.5 55.5q-130 2 -220.5 -86.5
t-88.5 -219.5q0 -92 60 -148t158 -56q127 -2 219 88t90 218z" />
    <glyph glyph-name="uni042F" unicode="&#x42f;" horiz-adv-x="687" 
d="M-28 0l5 16l320 274q-70 5 -119 56.5t-49 124.5q0 108 77.5 168.5t215.5 60.5h343l-228 -700h-112l95 290h-74l-335 -290h-139zM338 395h216l65 200h-219q-69 0 -111 -31.5t-42 -84.5q0 -39 24.5 -61.5t66.5 -22.5z" />
    <glyph glyph-name="uni0430" unicode="&#x430;" horiz-adv-x="598" 
d="M37 187q0 128 83.5 212.5t210.5 84.5q56 0 93.5 -26.5t48.5 -72.5l29 89h107l-154 -474h-102l22 70q-52 -80 -163 -80q-77 0 -126 52.5t-49 144.5zM438 275q0 51 -31 82.5t-84 31.5q-75 0 -126.5 -54t-51.5 -134q0 -54 31.5 -86t85.5 -32q67 -2 122.5 58t53.5 134z" />
    <glyph glyph-name="uni0431" unicode="&#x431;" horiz-adv-x="608" 
d="M55 226q0 161 100.5 268t281.5 143q91 18 125.5 37.5t44.5 60.5h97q-6 -76 -61.5 -119t-166.5 -62q-115 -20 -184 -61t-107 -112q82 103 209 103q79 0 127.5 -55t48.5 -148q0 -125 -83.5 -208t-219.5 -83q-94 0 -153 66t-59 170zM462 272q0 55 -30.5 86t-83.5 31
q-78 0 -131.5 -52.5t-53.5 -130.5q0 -56 32 -88.5t86 -32.5q75 0 128 55.5t53 131.5z" />
    <glyph glyph-name="uni0432" unicode="&#x432;" horiz-adv-x="549" 
d="M-11 0l154 474h247q62 0 98 -31t36 -84q0 -47 -34 -79.5t-84 -41.5q28 -9 45 -32.5t17 -56.5q0 -71 -54.5 -110t-149.5 -39h-275zM189 285h148q35 0 54 14.5t19 39.5q0 40 -48 40h-143zM127 95h158q38 0 58.5 15t20.5 41q0 44 -51 44h-154z" />
    <glyph glyph-name="uni0433" unicode="&#x433;" horiz-adv-x="416" 
d="M-11 0l154 474h332l-32 -100h-225l-122 -374h-107z" />
    <glyph glyph-name="uni0434" unicode="&#x434;" horiz-adv-x="573" 
d="M-84 -110l67 205h45q56 70 82 121q29 54 57 139l39 119h355l-123 -379h60l-67 -205h-97l36 110h-321l-36 -110h-97zM140 95h196l92 284h-151l-8 -24q-54 -160 -129 -260z" />
    <glyph glyph-name="uni0435" unicode="&#x435;" horiz-adv-x="555" 
d="M518 317q0 -36 -11 -77l-6 -20h-356v-15q0 -56 32 -90.5t83 -34.5q102 0 142 91l89 -33q-67 -148 -251 -148q-87 0 -144 59.5t-57 150.5q-2 120 85.5 203t208.5 81q87 0 136 -48t49 -119zM420 311q0 38 -27 60.5t-70 22.5q-57 0 -98.5 -27.5t-62.5 -76.5h257q1 7 1 21z
" />
    <glyph glyph-name="uni0436" unicode="&#x436;" horiz-adv-x="738" 
d="M-55 0l295 261l-131 213h128l99 -174l57 174h107l-57 -175l192 175h148l-271 -232l127 -242h-125l-103 201l-65 -201h-107l63 195l-208 -195h-149z" />
    <glyph glyph-name="uni0437" unicode="&#x437;" horiz-adv-x="468" 
d="M196 195l30 90h35q37 0 61 15.5t24 41.5q0 25 -18.5 39t-51.5 14q-71 0 -99 -75l-84 35q20 63 72 96t128 33q74 0 117.5 -33t43.5 -87q0 -51 -33.5 -85.5t-82.5 -41.5q54 -23 54 -87q0 -75 -56.5 -117.5t-150.5 -42.5q-82 0 -132 43.5t-53 111.5l97 37q0 -43 25 -70
t72 -27q46 0 72 17t26 47q0 21 -17 33.5t-44 12.5h-35z" />
    <glyph glyph-name="uni0438" unicode="&#x438;" horiz-adv-x="600" 
d="M-11 0l154 474h107l-122 -374l315 374h168l-154 -474h-107l122 374l-315 -374h-168z" />
    <glyph glyph-name="uni0439" unicode="&#x439;" horiz-adv-x="600" 
d="M-11 0l154 474h107l-122 -374l315 374h168l-154 -474h-107l122 374l-315 -374h-168zM310 635q0 22 9 43h75q-5 -15 -5 -24q0 -13 10.5 -22t27.5 -9q28 0 46 16t18 39h76q-4 -59 -45 -92t-105 -33q-49 0 -78 21.5t-29 60.5z" />
    <glyph glyph-name="uni043A" unicode="&#x43a;" horiz-adv-x="488" 
d="M-11 0l154 474h107l-57 -175l192 175h148l-271 -232l127 -242h-125l-103 201l-65 -201h-107z" />
    <glyph glyph-name="uni043B" unicode="&#x43b;" horiz-adv-x="533" 
d="M-50 0v16q50 58 85 124q39 71 77 190l47 144h385l-154 -474h-107l123 379h-171l-21 -64q-68 -209 -154 -315h-110z" />
    <glyph glyph-name="uni043C" unicode="&#x43c;" horiz-adv-x="730" 
d="M741 474l-154 -474h-107l125 385l-238 -385h-146v385l-125 -385h-107l154 474h174l-3 -384l238 384h189z" />
    <glyph glyph-name="uni043D" unicode="&#x43d;" horiz-adv-x="561" 
d="M250 474l-60 -184h215l60 184h107l-154 -474h-107l63 195h-215l-63 -195h-107l154 474h107z" />
    <glyph glyph-name="uni043E" unicode="&#x43e;" horiz-adv-x="594" 
d="M38 198q-2 117 85.5 202.5t218.5 83.5q98 0 156 -58.5t58 -149.5q2 -117 -85.5 -202.5t-218.5 -83.5q-98 0 -156 58.5t-58 149.5zM448 269q0 51 -34 85q-33 35 -85 35q-80 0 -131.5 -53.5t-51.5 -130.5q0 -51 33 -85q35 -35 86 -35q80 0 131.5 53.5t51.5 130.5z" />
    <glyph glyph-name="uni043F" unicode="&#x43f;" horiz-adv-x="552" 
d="M-11 0l154 474h420l-154 -474h-107l123 379h-206l-123 -379h-107z" />
    <glyph glyph-name="uni0440" unicode="&#x440;" horiz-adv-x="598" 
d="M-75 -198l218 672h102l-22 -70q52 80 158 80q81 0 130.5 -52.5t49.5 -144.5q0 -128 -83.5 -212.5t-210.5 -84.5q-53 0 -91 28.5t-51 70.5l-93 -287h-107zM453 273q0 54 -31.5 86t-85.5 32q-67 2 -122.5 -58t-53.5 -134q0 -51 31 -82.5t84 -31.5q75 0 126.5 54t51.5 134z
" />
    <glyph glyph-name="uni0441" unicode="&#x441;" horiz-adv-x="585" 
d="M41 203q0 125 84.5 203t216.5 78q87 0 141 -49t57 -120l-92 -27q-5 49 -36.5 77.5t-80.5 28.5q-80 0 -132 -52t-52 -133q0 -57 34.5 -93t90.5 -36q126 0 168 128l96 -31q-32 -91 -103 -139t-171 -48q-101 0 -161 60.5t-60 152.5z" />
    <glyph glyph-name="uni0442" unicode="&#x442;" horiz-adv-x="433" 
d="M86 0l123 379h-149l31 95h405l-31 -95h-149l-123 -379h-107z" />
    <glyph glyph-name="uni0443" unicode="&#x443;" horiz-adv-x="513" 
d="M461 474h117l-472 -659h-110l137 194l-49 465h110l27 -339z" />
    <glyph glyph-name="uni0444" unicode="&#x444;" horiz-adv-x="939" 
d="M274 -198l83 257q-55 -69 -146 -69q-73 0 -121.5 56t-48.5 150q0 126 77.5 207t198.5 81q54 0 93.5 -27t52.5 -72l102 315h107l-93 -286q51 70 138 70q78 0 128.5 -59.5t50.5 -152.5q0 -126 -71.5 -204t-191.5 -78q-55 0 -101.5 30.5t-57.5 68.5l-93 -287h-107zM788 267
q0 59 -31 91.5t-86 32.5q-67 0 -113.5 -54t-46.5 -131q0 -54 32 -87.5t83 -33.5q74 0 118 50t44 132zM426 268q0 54 -31 87.5t-82 33.5q-74 0 -119 -51t-45 -133q0 -56 31.5 -89t84.5 -33q64 0 112.5 55t48.5 130z" />
    <glyph glyph-name="uni0445" unicode="&#x445;" horiz-adv-x="484" 
d="M532 474l-229 -230l92 -244h-112l-59 169l-157 -169h-132l256 270l-80 204h113l46 -141l136 141h126z" />
    <glyph glyph-name="uni0446" unicode="&#x446;" horiz-adv-x="590" 
d="M351 -110l36 110h-398l154 474h107l-123 -379h201l123 379h107l-123 -379h80l-67 -205h-97z" />
    <glyph glyph-name="uni0447" unicode="&#x447;" horiz-adv-x="562" 
d="M312 0l50 152q-32 -20 -70 -32q-32 -9 -80 -9q-56 0 -96 34q-39 35 -39 91q0 31 11 69l55 169h107l-52 -161q-8 -27 -8 -50q0 -30 20 -47.5t53 -17.5q37 0 66 14.5t68 50.5l69 211h107l-154 -474h-107z" />
    <glyph glyph-name="uni0448" unicode="&#x448;" horiz-adv-x="797" 
d="M-11 0l154 474h107l-123 -379h172l123 379h107l-123 -379h172l123 379h107l-154 -474h-665z" />
    <glyph glyph-name="uni0449" unicode="&#x449;" horiz-adv-x="840" 
d="M601 -110l36 110h-648l154 474h107l-123 -379h172l123 379h107l-123 -379h172l123 379h107l-123 -379h80l-67 -205h-97z" />
    <glyph glyph-name="uni044A" unicode="&#x44a;" horiz-adv-x="602" 
d="M67 0l123 379h-130l31 95h237l-53 -164h114q63 0 101 -36.5t38 -97.5q0 -82 -57 -129t-161 -47h-243zM205 95h128q38 0 63 17.5t25 49.5q0 53 -64 53h-113z" />
    <glyph glyph-name="uni044B" unicode="&#x44b;" horiz-adv-x="763" 
d="M-11 0l154 474h107l-53 -164h114q63 0 101 -36.5t38 -97.5q0 -82 -57 -129t-161 -47h-243zM127 95h128q38 0 63 17.5t25 49.5q0 53 -64 53h-113zM667 474h107l-154 -474h-107z" />
    <glyph glyph-name="uni044C" unicode="&#x44c;" horiz-adv-x="524" 
d="M-11 0l154 474h107l-53 -164h114q63 0 101 -36.5t38 -97.5q0 -82 -57 -129t-161 -47h-243zM127 95h128q38 0 63 17.5t25 49.5q0 53 -64 53h-113z" />
    <glyph glyph-name="uni044D" unicode="&#x44d;" horiz-adv-x="579" 
d="M537 270q0 -124 -81 -202t-227 -78q-89 0 -152 53t-66 137l98 22q18 -122 134 -122q62 0 109 31t67 84h-175l30 90h156q-5 52 -37.5 80.5t-85.5 28.5q-105 0 -140 -110l-93 33q24 79 88 123t159 44q101 0 158.5 -60t57.5 -154z" />
    <glyph glyph-name="uni044E" unicode="&#x44e;" horiz-adv-x="796" 
d="M758 276q2 -117 -85.5 -202.5t-218.5 -83.5q-98 0 -155 57.5t-59 147.5h-81l-63 -195h-107l154 474h107l-60 -184h65q28 85 106 140q77 54 183 54q98 0 156 -58.5t58 -149.5zM650 269q0 51 -34 85q-33 35 -85 35q-80 0 -131.5 -53.5t-51.5 -130.5q0 -51 33 -85
q35 -35 86 -35q80 0 131.5 53.5t51.5 130.5z" />
    <glyph glyph-name="uni044F" unicode="&#x44f;" horiz-adv-x="510" 
d="M-40 10l198 175q-43 11 -70 45.5t-27 79.5q0 77 54.5 120.5t151.5 43.5h254l-154 -474h-107l60 185h-38l-206 -185h-119zM349 275l34 104h-135q-38 0 -58 -15.5t-20 -42.5q0 -21 15 -33.5t39 -12.5h125z" />
    <glyph glyph-name="uni0450" unicode="&#x450;" horiz-adv-x="555" 
d="M518 317q0 -36 -11 -77l-6 -20h-356v-15q0 -56 32 -90.5t83 -34.5q102 0 142 91l89 -33q-67 -148 -251 -148q-87 0 -144 59.5t-57 150.5q-2 120 85.5 203t208.5 81q87 0 136 -48t49 -119zM420 311q0 38 -27 60.5t-70 22.5q-57 0 -98.5 -27.5t-62.5 -76.5h257q1 7 1 21z
M327 555l-83 117l6 16h137l36 -133h-96z" />
    <glyph glyph-name="uni0451" unicode="&#x451;" horiz-adv-x="555" 
d="M518 317q0 -36 -11 -77l-6 -20h-356v-15q0 -56 32 -90.5t83 -34.5q102 0 142 91l89 -33q-67 -148 -251 -148q-87 0 -144 59.5t-57 150.5q-2 120 85.5 203t208.5 81q87 0 136 -48t49 -119zM420 311q0 38 -27 60.5t-70 22.5q-57 0 -98.5 -27.5t-62.5 -76.5h257q1 7 1 21z
M231 563l36 112h112l-36 -112h-112zM409 563l36 112h112l-36 -112h-112z" />
    <glyph glyph-name="uni0452" unicode="&#x452;" horiz-adv-x="572" 
d="M535 355q0 -27 -10 -58l-119 -364q-24 -72 -65.5 -106.5t-111.5 -34.5q-56 0 -88.5 31t-32.5 82l98 23q0 -18 10.5 -29.5t28.5 -11.5q41 0 55 48l113 347q8 26 8 44q0 34 -20.5 52.5t-58.5 18.5q-51 0 -97 -39.5t-67 -105.5l-82 -252h-107l180 554h-64l28 85h64l20 61
h107l-20 -61h143l-28 -85h-142l-53 -162q70 92 180 92q61 0 96 -35.5t35 -93.5z" />
    <glyph glyph-name="uni0453" unicode="&#x453;" horiz-adv-x="416" 
d="M-11 0l154 474h332l-32 -100h-225l-122 -374h-107zM286 555l106 133h147l-6 -16l-147 -117h-100z" />
    <glyph glyph-name="uni0454" unicode="&#x454;" horiz-adv-x="588" 
d="M445 215l96 -31q-30 -87 -108 -141q-79 -53 -181 -53q-94 0 -153 58t-59 149q0 130 86 208.5t220 78.5q90 0 142.5 -47t53.5 -127l-93 -26q-3 52 -33.5 81t-84.5 29q-58 0 -103.5 -29t-66.5 -80h165l-30 -90h-150q3 -51 36.5 -83t81.5 -32q133 0 181 135z" />
    <glyph glyph-name="uni0455" unicode="&#x455;" horiz-adv-x="484" 
d="M-4 136l100 29q14 -85 111 -85q45 0 74.5 18t29.5 48q0 26 -20 38.5t-78 27.5q-123 30 -123 127q0 66 53 105.5t147 39.5q69 0 112.5 -34.5t50.5 -94.5l-95 -18q-13 63 -82 63q-40 0 -63 -14.5t-23 -38.5q0 -22 24 -37t82 -29q62 -15 91.5 -45t29.5 -80q0 -76 -60 -121
t-166 -45q-81 0 -132 37.5t-63 108.5z" />
    <glyph glyph-name="uni0456" unicode="&#x456;" horiz-adv-x="239" 
d="M143 474h107l-154 -474h-107zM164 555l38 115h117l-38 -115h-117z" />
    <glyph glyph-name="uni0457" unicode="&#x457;" horiz-adv-x="239" 
d="M143 474h107l-154 -474h-107zM81 563l36 112h112l-36 -112h-112zM259 563l36 112h112l-36 -112h-112z" />
    <glyph glyph-name="uni0458" unicode="&#x458;" horiz-adv-x="239" 
d="M-75 -198l218 672h107l-219 -672h-106zM164 555l38 115h117l-38 -115h-117z" />
    <glyph glyph-name="uni0459" unicode="&#x459;" horiz-adv-x="808" 
d="M-50 0v16q50 58 85 124q39 71 77 190l47 144h375l-53 -164h114q63 0 101 -36.5t38 -97.5q0 -82 -57 -129t-161 -47h-243l123 379h-161l-21 -64q-68 -209 -154 -315h-110zM411 95h128q38 0 63 17.5t25 49.5q0 53 -64 53h-113z" />
    <glyph glyph-name="uni045A" unicode="&#x45a;" horiz-adv-x="835" 
d="M-11 0l154 474h107l-60 -184h205l60 184h107l-60 -184h125q60 0 95 -34t35 -94q0 -80 -55.5 -121t-158.5 -41h-242l63 195h-205l-63 -195h-107zM439 95h135q36 0 57.5 15t21.5 41q0 44 -47 44h-135z" />
    <glyph glyph-name="uni045B" unicode="&#x45b;" horiz-adv-x="572" 
d="M-11 0l228 700h107l-100 -308q70 92 180 92q61 0 96 -35.5t35 -93.5q0 -27 -10 -58l-97 -297h-107l92 282q8 26 8 44q0 34 -20.5 52.5t-58.5 18.5q-51 0 -97 -39.5t-67 -105.5l-82 -252h-107zM133 639h314l-28 -85h-314z" />
    <glyph glyph-name="uni045C" unicode="&#x45c;" horiz-adv-x="488" 
d="M-11 0l154 474h107l-57 -175l192 175h148l-271 -232l127 -242h-125l-103 201l-65 -201h-107zM284 555l106 133h147l-6 -16l-147 -117h-100z" />
    <glyph glyph-name="uni045D" unicode="&#x45d;" horiz-adv-x="600" 
d="M-11 0l154 474h107l-122 -374l315 374h168l-154 -474h-107l122 374l-315 -374h-168zM357 555l-83 117l6 16h137l36 -133h-96z" />
    <glyph glyph-name="uni045E" unicode="&#x45e;" horiz-adv-x="513" 
d="M461 474h117l-472 -659h-110l137 194l-49 465h110l27 -339zM260 635q0 22 9 43h75q-5 -15 -5 -24q0 -13 10.5 -22t27.5 -9q28 0 46 16t18 39h76q-4 -59 -45 -92t-105 -33q-49 0 -78 21.5t-29 60.5z" />
    <glyph glyph-name="uni045F" unicode="&#x45f;" horiz-adv-x="551" 
d="M114 -110l36 110h-161l154 474h107l-123 -379h205l123 379h107l-154 -474h-161l-36 -110h-97z" />
    <glyph glyph-name="uni0462" unicode="&#x462;" horiz-adv-x="775" 
d="M717 231q0 -101 -77.5 -166t-219.5 -65h-360l170 521h-136l30 90h135l29 89h112l-29 -89h147l-30 -90h-146l-36 -109h213q93 0 145.5 -49t52.5 -132zM602 225q0 37 -26 59.5t-72 22.5h-232l-66 -202h238q72 0 115 32t43 88z" />
    <glyph glyph-name="uni0463" unicode="&#x463;" horiz-adv-x="504" 
d="M441 220q0 -104 -70 -162t-199 -58h-183l169 518h-126l30 95h127l28 87h107l-28 -87h160l-30 -95h-161l-44 -134h44q81 0 128.5 -44.5t47.5 -119.5zM324 205q0 84 -85 84h-49l-63 -194h67q61 0 95.5 30.5t34.5 79.5z" />
    <glyph glyph-name="uni0472" unicode="&#x472;" horiz-adv-x="856" 
d="M847 407q1 -86 -32 -163t-91.5 -133.5t-142 -89t-178.5 -31.5q-153 0 -237 86.5t-84 216.5q-3 176 126 298t318 119q154 0 237.5 -85.5t83.5 -217.5zM217 401q55 40 138 40q39 0 67.5 -10.5t68.5 -35.5q64 -37 103 -37q70 0 134 50q-2 90 -62 143q-60 54 -156 54
q-104 0 -184 -56q-79 -55 -109 -148zM711 299q-55 -40 -130 -40q-38 0 -67.5 10.5t-68.5 35.5q-64 37 -103 37q-85 0 -141 -46q1 -90 61.5 -145.5t156.5 -55.5q101 0 181 56q79 55 111 148z" />
    <glyph glyph-name="uni0473" unicode="&#x473;" horiz-adv-x="594" 
d="M556 276q2 -117 -85.5 -202.5t-218.5 -83.5q-98 0 -156 58.5t-58 149.5q-2 117 85.5 202.5t218.5 83.5q98 0 156 -58.5t58 -149.5zM161 280q31 19 69 19q31 0 82 -24q48 -22 71 -22q34 0 65 26q-4 48 -37.5 79t-81.5 31q-59 0 -103 -29t-65 -80zM434 195q-34 -19 -70 -19
q-31 0 -82 24q-48 22 -71 22q-34 0 -65 -26q3 -48 37 -79.5t82 -31.5q59 0 103.5 29.5t65.5 80.5z" />
    <glyph glyph-name="uni0474" unicode="&#x474;" horiz-adv-x="791" 
d="M220 0l-60 700h121l39 -611l380 534q41 57 66.5 76t75.5 21q76 0 102 -62l-80 -85q-9 25 -30 25q-19 0 -41 -29l-415 -569h-158z" />
    <glyph glyph-name="uni0475" unicode="&#x475;" horiz-adv-x="564" 
d="M130 0l-35 474h107l19 -369l215 327q43 63 106 63q32 0 58 -16.5t35 -41.5l-65 -66q-10 21 -28 21t-34 -24l-250 -368h-128z" />
    <glyph glyph-name="uni0490" unicode="&#x490;" horiz-adv-x="620" 
d="M-5 0l227 700h418l55 170h102l-89 -275h-408l-193 -595h-112z" />
    <glyph glyph-name="uni0491" unicode="&#x491;" horiz-adv-x="416" 
d="M-11 0l154 474h225l36 111h107l-68 -211h-225l-122 -374h-107z" />
    <glyph glyph-name="uni0492" unicode="&#x492;" horiz-adv-x="664" 
d="M732 595h-407l-60 -185h252l-32 -100h-253l-101 -310h-112l101 310h-79l32 100h80l94 290h519z" />
    <glyph glyph-name="uni0493" unicode="&#x493;" horiz-adv-x="427" 
d="M456 374h-223l-32 -99h116l-27 -84h-117l-62 -191h-107l62 191h-67l27 84h67l65 199h330z" />
    <glyph glyph-name="uni0496" unicode="&#x496;" horiz-adv-x="1039" 
d="M1170 700l-451 -347l229 -353h-133l-206 322l-105 -322h-112l103 316l-385 -316h-173l479 380l-235 320h139l204 -295l96 295h112l-94 -289l372 289h160zM815 -110l36 110l30 100h104l-68 -210h-102z" />
    <glyph glyph-name="uni0497" unicode="&#x497;" horiz-adv-x="738" 
d="M-55 0l295 261l-131 213h128l99 -174l57 174h107l-57 -175l192 175h148l-271 -232l127 -242h-125l-103 201l-65 -201h-107l63 195l-208 -195h-149zM535 -110l36 110l24 80h94l-62 -190h-92z" />
    <glyph glyph-name="uni0498" unicode="&#x498;" horiz-adv-x="607" 
d="M31 210l114 36q0 -70 35.5 -110.5t100.5 -40.5q69 0 109 30.5t40 84.5q0 42 -27 66t-77 24h-31l34 105h44q68 0 107.5 27.5t39.5 77.5q0 45 -32 70t-86 25q-109 0 -150 -113l-98 38q62 180 260 180q100 0 158 -46t58 -134q0 -75 -48.5 -124.5t-116.5 -60.5q35 -12 56 -45
t21 -80q0 -108 -75 -169t-193 -61q-116 0 -178 63t-65 157zM134 -122l58 13q1 -12 10 -20.5t23 -8.5q38 0 38 36q0 27 -28 27q-23 0 -37 -18l-44 20q25 40 43 89h60q-1 -1 -9 -13t-19 -27.5t-21 -26.5q21 21 53 21q26 0 42 -18t16 -48q0 -39 -29 -65.5t-74 -26.5
q-34 0 -56.5 18t-25.5 48z" />
    <glyph glyph-name="uni0499" unicode="&#x499;" horiz-adv-x="468" 
d="M196 195l30 90h35q37 0 61 15.5t24 41.5q0 25 -18.5 39t-51.5 14q-71 0 -99 -75l-84 35q20 63 72 96t128 33q74 0 117.5 -33t43.5 -87q0 -51 -33.5 -85.5t-82.5 -41.5q54 -23 54 -87q0 -75 -56.5 -117.5t-150.5 -42.5q-82 0 -132 43.5t-53 111.5l97 37q0 -43 25 -70
t72 -27q46 0 72 17t26 47q0 21 -17 33.5t-44 12.5h-35zM67 -122l58 13q1 -12 10 -20.5t23 -8.5q38 0 38 36q0 27 -28 27q-24 0 -37 -18l-44 20q25 40 43 89h60q-1 -1 -9 -13t-19 -27.5t-21 -26.5q21 21 53 21q26 0 42 -18t16 -48q0 -39 -29 -65.5t-74 -26.5q-34 0 -56.5 18
t-25.5 48z" />
    <glyph glyph-name="uni049A" unicode="&#x49a;" horiz-adv-x="642" 
d="M-5 0l228 700h112l-94 -289l372 289h160l-451 -347l229 -353h-133l-206 322l-105 -322h-112zM418 -110l36 110l30 100h104l-68 -210h-102z" />
    <glyph glyph-name="uni049B" unicode="&#x49b;" horiz-adv-x="488" 
d="M-11 0l154 474h107l-57 -175l192 175h148l-271 -232l127 -242h-125l-103 201l-65 -201h-107zM286 -110l36 110l24 80h94l-62 -190h-92z" />
    <glyph glyph-name="uni04A0" unicode="&#x4a0;" horiz-adv-x="808" 
d="M939 700l-451 -347l229 -353h-133l-206 322l-105 -322h-112l197 605h-210l30 95h323l-94 -289l372 289h160z" />
    <glyph glyph-name="uni04A1" unicode="&#x4a1;" horiz-adv-x="560" 
d="M605 474l-271 -232l127 -242h-125l-103 201l-65 -201h-107l126 389h-128l28 85h235l-57 -175l192 175h148z" />
    <glyph glyph-name="uni04A2" unicode="&#x4a2;" horiz-adv-x="744" 
d="M578 295h-375l-96 -295h-112l228 700h112l-99 -305h375l99 305h112l-228 -700h-112zM556 -110l36 110l30 100h104l-68 -210h-102z" />
    <glyph glyph-name="uni04A3" unicode="&#x4a3;" horiz-adv-x="561" 
d="M250 474l-60 -184h215l60 184h107l-154 -474h-107l63 195h-215l-63 -195h-107l154 474h107zM382 -110l36 110l24 80h94l-62 -190h-92z" />
    <glyph glyph-name="uni04AA" unicode="&#x4aa;" horiz-adv-x="800" 
d="M83 293q-3 177 123 298t311 119q139 0 206 -64q69 -64 84 -171l-105 -32q-8 78 -60.5 122.5t-134.5 44.5q-131 2 -219.5 -88.5t-86.5 -218.5q0 -99 55.5 -156t148.5 -57q204 0 270 214l103 -35q-84 -279 -390 -279q-135 0 -220 83t-85 220zM295 -122l58 13
q1 -12 10 -20.5t23 -8.5q38 0 38 36q0 27 -28 27q-24 0 -37 -18l-44 20q25 40 43 89h60q-1 -1 -9 -13t-19 -27.5t-21 -26.5q21 21 53 21q26 0 42 -18t16 -48q0 -39 -29 -65.5t-74 -26.5q-34 0 -56.5 18t-25.5 48z" />
    <glyph glyph-name="uni04AB" unicode="&#x4ab;" horiz-adv-x="585" 
d="M41 203q0 125 84.5 203t216.5 78q87 0 141 -49t57 -120l-92 -27q-5 49 -36.5 77.5t-80.5 28.5q-80 0 -132 -52t-52 -133q0 -57 34.5 -93t90.5 -36q126 0 168 128l96 -31q-32 -91 -103 -139t-171 -48q-101 0 -161 60.5t-60 152.5zM162 -122l58 13q1 -12 10 -20.5t23 -8.5
q38 0 38 36q0 27 -28 27q-23 0 -37 -18l-44 20q25 40 43 89h60q-1 -1 -9 -13t-19 -27.5t-21 -26.5q21 21 53 21q26 0 42 -18t16 -48q0 -39 -29 -65.5t-74 -26.5q-34 0 -56.5 18t-25.5 48z" />
    <glyph glyph-name="uni04AE" unicode="&#x4ae;" horiz-adv-x="694" 
d="M213 0l93 285l-144 415h125l98 -315l303 315h144l-414 -415l-93 -285h-112z" />
    <glyph glyph-name="uni04AF" unicode="&#x4af;" horiz-adv-x="526" 
d="M69 -198l64 198l-38 474h104l19 -350l249 350h118l-345 -474l-64 -198h-107z" />
    <glyph glyph-name="uni04B0" unicode="&#x4b0;" horiz-adv-x="694" 
d="M832 700l-329 -330h111l-28 -85h-168l-93 -285h-112l93 285h-164l28 85h107l-115 330h125l98 -315l303 315h144z" />
    <glyph glyph-name="uni04B1" unicode="&#x4b1;" horiz-adv-x="526" 
d="M585 474l-316 -434h88l-26 -80h-104l-51 -158h-107l51 158h-102l26 80h86l-35 434h104l19 -350l249 350h118z" />
    <glyph glyph-name="uni04B2" unicode="&#x4b2;" horiz-adv-x="688" 
d="M-61 0l392 399l-114 301h124l79 -231l221 231h146l-326 -332l134 -368h-124l-99 289l-285 -289h-148zM492 -110l36 110l30 100h104l-68 -210h-102z" />
    <glyph glyph-name="uni04B3" unicode="&#x4b3;" horiz-adv-x="484" 
d="M532 474l-229 -230l92 -244h-112l-59 169l-157 -169h-132l256 270l-80 204h113l46 -141l136 141h126zM303 -110l36 110l24 80h94l-62 -190h-92z" />
    <glyph glyph-name="uni04B6" unicode="&#x4b6;" horiz-adv-x="692" 
d="M430 0l77 235q-96 -77 -214 -77q-81 0 -131 52t-50 133q0 47 16 92l87 265h112l-89 -272q-10 -29 -10 -62q0 -103 114 -103q49 0 96 21.5t108 71.5l112 344h112l-228 -700h-112zM506 -110l36 110l30 100h104l-68 -210h-102z" />
    <glyph glyph-name="uni04B7" unicode="&#x4b7;" horiz-adv-x="562" 
d="M312 0l50 152q-32 -20 -70 -32q-32 -9 -80 -9q-56 0 -96 34q-39 35 -39 91q0 31 11 69l55 169h107l-52 -161q-8 -27 -8 -50q0 -30 20 -47.5t53 -17.5q37 0 66 14.5t68 50.5l69 211h107l-154 -474h-107zM383 -110l36 110l24 80h94l-62 -190h-92z" />
    <glyph glyph-name="uni04BA" unicode="&#x4ba;" horiz-adv-x="692" 
d="M-5 0l228 700h112l-77 -235q92 77 219 77q84 0 132 -47.5t48 -126.5q0 -39 -15 -87l-92 -281h-112l89 272q10 29 10 59q0 51 -31 78.5t-87 27.5q-94 0 -200 -93l-112 -344h-112z" />
    <glyph glyph-name="uni04BB" unicode="&#x4bb;" horiz-adv-x="572" 
d="M-11 0l228 700h107l-100 -308q70 92 180 92q61 0 96 -35.5t35 -93.5q0 -27 -10 -58l-97 -297h-107l92 282q8 26 8 44q0 34 -20.5 52.5t-58.5 18.5q-51 0 -97 -39.5t-67 -105.5l-82 -252h-107z" />
    <glyph glyph-name="uni04C0" unicode="&#x4c0;" horiz-adv-x="257" 
d="M-5 0l228 700h112l-228 -700h-112z" />
    <glyph glyph-name="uni04C1" unicode="&#x4c1;" horiz-adv-x="1039" 
d="M1170 700l-451 -347l229 -353h-133l-206 322l-105 -322h-112l103 316l-385 -316h-173l479 380l-235 320h139l204 -295l96 295h112l-94 -289l372 289h160zM597 861q0 22 9 43h75q-5 -15 -5 -24q0 -13 10.5 -22t27.5 -9q28 0 46 16t18 39h76q-4 -59 -45 -92t-105 -33
q-49 0 -78 21.5t-29 60.5z" />
    <glyph glyph-name="uni04C2" unicode="&#x4c2;" horiz-adv-x="738" 
d="M-55 0l295 261l-131 213h128l99 -174l57 174h107l-57 -175l192 175h148l-271 -232l127 -242h-125l-103 201l-65 -201h-107l63 195l-208 -195h-149zM380 635q0 22 9 43h75q-5 -15 -5 -24q0 -13 10.5 -22t27.5 -9q28 0 46 16t18 39h76q-4 -59 -45 -92t-105 -33
q-49 0 -78 21.5t-29 60.5z" />
    <glyph glyph-name="uni04CF" unicode="&#x4cf;" horiz-adv-x="240" 
d="M-11 0l228 700h107l-228 -700h-107z" />
    <glyph glyph-name="uni04D0" unicode="&#x4d0;" horiz-adv-x="752" 
d="M546 0l-11 170h-343l-122 -170h-135l516 700h152l60 -700h-117zM263 270h265l-23 337zM448 861q0 22 9 43h75q-5 -15 -5 -24q0 -13 10.5 -22t27.5 -9q28 0 46 16t18 39h76q-4 -59 -45 -92t-105 -33q-49 0 -78 21.5t-29 60.5z" />
    <glyph glyph-name="uni04D1" unicode="&#x4d1;" horiz-adv-x="598" 
d="M37 187q0 128 83.5 212.5t210.5 84.5q56 0 93.5 -26.5t48.5 -72.5l29 89h107l-154 -474h-102l22 70q-52 -80 -163 -80q-77 0 -126 52.5t-49 144.5zM438 275q0 51 -31 82.5t-84 31.5q-75 0 -126.5 -54t-51.5 -134q0 -54 31.5 -86t85.5 -32q67 -2 122.5 58t53.5 134z
M277 635q0 22 9 43h75q-5 -15 -5 -24q0 -13 10.5 -22t27.5 -9q28 0 46 16t18 39h76q-4 -59 -45 -92t-105 -33q-49 0 -78 21.5t-29 60.5z" />
    <glyph glyph-name="uni04D2" unicode="&#x4d2;" horiz-adv-x="752" 
d="M546 0l-11 170h-343l-122 -170h-135l516 700h152l60 -700h-117zM263 270h265l-23 337zM411 789l36 112h112l-36 -112h-112zM589 789l36 112h112l-36 -112h-112z" />
    <glyph glyph-name="uni04D3" unicode="&#x4d3;" horiz-adv-x="598" 
d="M37 187q0 128 83.5 212.5t210.5 84.5q56 0 93.5 -26.5t48.5 -72.5l29 89h107l-154 -474h-102l22 70q-52 -80 -163 -80q-77 0 -126 52.5t-49 144.5zM438 275q0 51 -31 82.5t-84 31.5q-75 0 -126.5 -54t-51.5 -134q0 -54 31.5 -86t85.5 -32q67 -2 122.5 58t53.5 134z
M228 563l36 112h112l-36 -112h-112zM406 563l36 112h112l-36 -112h-112z" />
    <glyph glyph-name="uni04D4" unicode="&#x4d4;" horiz-adv-x="971" 
d="M1028 595h-351l-59 -180h321l-34 -105h-321l-67 -205h361l-34 -105h-471l56 170h-212l-140 -170h-142l581 700h546zM461 270l106 325l-268 -325h162z" />
    <glyph glyph-name="uni04D5" unicode="&#x4d5;" horiz-adv-x="942" 
d="M37 187q0 128 83.5 212.5t210.5 84.5q56 0 93.5 -26.5t48.5 -72.5l29 89h107l-15 -46q46 56 142 56q76 0 122.5 -48.5t46.5 -118.5q0 -36 -11 -77l-6 -20h-355q-1 -5 -1 -20q0 -54 33.5 -88t82.5 -34q99 0 141 93l89 -33q-67 -148 -248 -148q-108 0 -152 81l-23 -71h-102
l22 70q-52 -80 -163 -80q-77 0 -126 52.5t-49 144.5zM549 290h257q1 7 1 21q0 38 -27 60.5t-70 22.5q-110 0 -161 -104zM438 275q0 51 -31 82.5t-84 31.5q-75 0 -126.5 -54t-51.5 -134q0 -54 31.5 -86t85.5 -32q67 -2 122.5 58t53.5 134z" />
    <glyph glyph-name="uni04D6" unicode="&#x4d6;" horiz-adv-x="642" 
d="M223 700h510l-34 -105h-398l-59 -180h368l-34 -105h-368l-67 -205h408l-34 -105h-520zM397 861q0 22 9 43h75q-5 -15 -5 -24q0 -13 10.5 -22t27.5 -9q28 0 46 16t18 39h76q-4 -59 -45 -92t-105 -33q-49 0 -78 21.5t-29 60.5z" />
    <glyph glyph-name="uni04D7" unicode="&#x4d7;" horiz-adv-x="555" 
d="M518 317q0 -36 -11 -77l-6 -20h-356v-15q0 -56 32 -90.5t83 -34.5q102 0 142 91l89 -33q-67 -148 -251 -148q-87 0 -144 59.5t-57 150.5q-2 120 85.5 203t208.5 81q87 0 136 -48t49 -119zM420 311q0 38 -27 60.5t-70 22.5q-57 0 -98.5 -27.5t-62.5 -76.5h257q1 7 1 21z
M280 635q0 22 9 43h75q-5 -15 -5 -24q0 -13 10.5 -22t27.5 -9q28 0 46 16t18 39h76q-4 -59 -45 -92t-105 -33q-49 0 -78 21.5t-29 60.5z" />
    <glyph glyph-name="uni04D8" unicode="&#x4d8;" horiz-adv-x="750" 
d="M742 424q2 -187 -116 -312t-317 -122q-114 0 -188.5 65.5t-74.5 167.5q0 51 20 116l11 35h549q2 34 2 40q0 87 -51 139t-136 52q-80 0 -135.5 -34.5t-89.5 -112.5l-99 40q39 100 127.5 156t213.5 56q129 0 206.5 -76.5t77.5 -209.5zM602 274h-440q-8 -29 -8 -54
q0 -57 44 -91t119 -34q103 0 177 47t108 132z" />
    <glyph glyph-name="uni04D9" unicode="&#x4d9;" horiz-adv-x="555" 
d="M516 274q2 -120 -85.5 -203t-208.5 -81q-87 0 -136 48t-49 119q0 38 11 77l6 20h356v15q0 56 -32 90.5t-83 34.5q-102 0 -142 -91l-89 33q67 148 251 148q87 0 144 -59.5t57 -150.5zM393 184h-257q-1 -7 -1 -21q0 -38 27 -60.5t70 -22.5q57 0 98.5 27.5t62.5 76.5z" />
    <glyph glyph-name="uni04DA" unicode="&#x4da;" horiz-adv-x="750" 
d="M742 424q2 -187 -116 -312t-317 -122q-114 0 -188.5 65.5t-74.5 167.5q0 51 20 116l11 35h549q2 34 2 40q0 87 -51 139t-136 52q-80 0 -135.5 -34.5t-89.5 -112.5l-99 40q39 100 127.5 156t213.5 56q129 0 206.5 -76.5t77.5 -209.5zM602 274h-440q-8 -29 -8 -54
q0 -57 44 -91t119 -34q103 0 177 47t108 132zM364 789l36 112h112l-36 -112h-112zM542 789l36 112h112l-36 -112h-112z" />
    <glyph glyph-name="uni04DB" unicode="&#x4db;" horiz-adv-x="555" 
d="M516 274q2 -120 -85.5 -203t-208.5 -81q-87 0 -136 48t-49 119q0 38 11 77l6 20h356v15q0 56 -32 90.5t-83 34.5q-102 0 -142 -91l-89 33q67 148 251 148q87 0 144 -59.5t57 -150.5zM393 184h-257q-1 -7 -1 -21q0 -38 27 -60.5t70 -22.5q57 0 98.5 27.5t62.5 76.5z
M201 563l36 112h112l-36 -112h-112zM379 563l36 112h112l-36 -112h-112z" />
    <glyph glyph-name="uni04DC" unicode="&#x4dc;" horiz-adv-x="1039" 
d="M1170 700l-451 -347l229 -353h-133l-206 322l-105 -322h-112l103 316l-385 -316h-173l479 380l-235 320h139l204 -295l96 295h112l-94 -289l372 289h160zM560 789l36 112h112l-36 -112h-112zM738 789l36 112h112l-36 -112h-112z" />
    <glyph glyph-name="uni04DD" unicode="&#x4dd;" horiz-adv-x="738" 
d="M-55 0l295 261l-131 213h128l99 -174l57 174h107l-57 -175l192 175h148l-271 -232l127 -242h-125l-103 201l-65 -201h-107l63 195l-208 -195h-149zM331 563l36 112h112l-36 -112h-112zM509 563l36 112h112l-36 -112h-112z" />
    <glyph glyph-name="uni04DE" unicode="&#x4de;" horiz-adv-x="607" 
d="M31 210l114 36q0 -70 35.5 -110.5t100.5 -40.5q69 0 109 30.5t40 84.5q0 42 -27 66t-77 24h-31l34 105h44q68 0 107.5 27.5t39.5 77.5q0 45 -32 70t-86 25q-109 0 -150 -113l-98 38q62 180 260 180q100 0 158 -46t58 -134q0 -75 -48.5 -124.5t-116.5 -60.5q35 -12 56 -45
t21 -80q0 -108 -75 -169t-193 -61q-116 0 -178 63t-65 157zM318 789l36 112h112l-36 -112h-112zM496 789l36 112h112l-36 -112h-112z" />
    <glyph glyph-name="uni04DF" unicode="&#x4df;" horiz-adv-x="468" 
d="M196 195l30 90h35q37 0 61 15.5t24 41.5q0 25 -18.5 39t-51.5 14q-71 0 -99 -75l-84 35q20 63 72 96t128 33q74 0 117.5 -33t43.5 -87q0 -51 -33.5 -85.5t-82.5 -41.5q54 -23 54 -87q0 -75 -56.5 -117.5t-150.5 -42.5q-82 0 -132 43.5t-53 111.5l97 37q0 -43 25 -70
t72 -27q46 0 72 17t26 47q0 21 -17 33.5t-44 12.5h-35zM210 563l36 112h112l-36 -112h-112zM388 563l36 112h112l-36 -112h-112z" />
    <glyph glyph-name="uni04E2" unicode="&#x4e2;" horiz-adv-x="772" 
d="M-5 0l228 700h112l-202 -621l520 621h197l-228 -700h-112l202 620l-520 -620h-197zM438 802l26 78h260l-26 -78h-260z" />
    <glyph glyph-name="uni04E3" unicode="&#x4e3;" horiz-adv-x="600" 
d="M-11 0l154 474h107l-122 -374l315 374h168l-154 -474h-107l122 374l-315 -374h-168zM280 576l26 78h260l-26 -78h-260z" />
    <glyph glyph-name="uni04E4" unicode="&#x4e4;" horiz-adv-x="772" 
d="M-5 0l228 700h112l-202 -621l520 621h197l-228 -700h-112l202 620l-520 -620h-197zM420 789l36 112h112l-36 -112h-112zM598 789l36 112h112l-36 -112h-112z" />
    <glyph glyph-name="uni04E5" unicode="&#x4e5;" horiz-adv-x="600" 
d="M-11 0l154 474h107l-122 -374l315 374h168l-154 -474h-107l122 374l-315 -374h-168zM261 563l36 112h112l-36 -112h-112zM439 563l36 112h112l-36 -112h-112z" />
    <glyph glyph-name="uni04E6" unicode="&#x4e6;" horiz-adv-x="856" 
d="M82 293q-3 176 126 298t318 119q154 0 237.5 -85.5t83.5 -217.5q1 -86 -32 -163t-91.5 -133.5t-142 -89t-178.5 -31.5q-153 0 -237 86.5t-84 216.5zM728 401q0 93 -59.5 148.5t-158.5 55.5q-130 2 -220.5 -86.5t-88.5 -219.5q0 -92 60 -148t158 -56q127 -2 219 88t90 218
zM399 789l36 112h112l-36 -112h-112zM577 789l36 112h112l-36 -112h-112z" />
    <glyph glyph-name="uni04E7" unicode="&#x4e7;" horiz-adv-x="594" 
d="M38 198q-2 117 85.5 202.5t218.5 83.5q98 0 156 -58.5t58 -149.5q2 -117 -85.5 -202.5t-218.5 -83.5q-98 0 -156 58.5t-58 149.5zM448 269q0 51 -34 85q-33 35 -85 35q-80 0 -131.5 -53.5t-51.5 -130.5q0 -51 33 -85q35 -35 86 -35q80 0 131.5 53.5t51.5 130.5zM234 563
l36 112h112l-36 -112h-112zM412 563l36 112h112l-36 -112h-112z" />
    <glyph glyph-name="uni04E8" unicode="&#x4e8;" horiz-adv-x="856" 
d="M82 293q-3 176 126 298t318 119q154 0 237.5 -85.5t83.5 -217.5q1 -86 -32 -163t-91.5 -133.5t-142 -89t-178.5 -31.5q-153 0 -237 86.5t-84 216.5zM215 397h513v4q0 93 -59.5 148.5t-158.5 55.5q-106 0 -186 -57q-80 -56 -109 -151zM712 302h-511v-3q0 -92 60 -148
t158 -56q103 0 183 57t110 150z" />
    <glyph glyph-name="uni04E9" unicode="&#x4e9;" horiz-adv-x="594" 
d="M38 198q-2 117 85.5 202.5t218.5 83.5q98 0 156 -58.5t58 -149.5q2 -117 -85.5 -202.5t-218.5 -83.5q-98 0 -156 58.5t-58 149.5zM158 274h290q-2 49 -35.5 82t-83.5 33q-60 0 -105 -31t-66 -84zM436 200h-290q2 -49 35.5 -82t83.5 -33q60 0 105 31t66 84z" />
    <glyph glyph-name="uni04EA" unicode="&#x4ea;" horiz-adv-x="856" 
d="M82 293q-3 176 126 298t318 119q154 0 237.5 -85.5t83.5 -217.5q1 -86 -32 -163t-91.5 -133.5t-142 -89t-178.5 -31.5q-153 0 -237 86.5t-84 216.5zM215 397h513v4q0 93 -59.5 148.5t-158.5 55.5q-106 0 -186 -57q-80 -56 -109 -151zM712 302h-511v-3q0 -92 60 -148
t158 -56q103 0 183 57t110 150zM420 789l36 112h112l-36 -112h-112zM598 789l36 112h112l-36 -112h-112z" />
    <glyph glyph-name="uni04EB" unicode="&#x4eb;" horiz-adv-x="594" 
d="M38 198q-2 117 85.5 202.5t218.5 83.5q98 0 156 -58.5t58 -149.5q2 -117 -85.5 -202.5t-218.5 -83.5q-98 0 -156 58.5t-58 149.5zM158 274h290q-2 49 -35.5 82t-83.5 33q-60 0 -105 -31t-66 -84zM436 200h-290q2 -49 35.5 -82t83.5 -33q60 0 105 31t66 84zM234 563
l36 112h112l-36 -112h-112zM412 563l36 112h112l-36 -112h-112z" />
    <glyph glyph-name="uni04EC" unicode="&#x4ec;" horiz-adv-x="806" 
d="M794 412q0 -191 -117.5 -306.5t-327.5 -115.5q-128 -2 -218 82t-88 198l107 31q3 -89 59.5 -150t156.5 -61q114 0 192 56t105 154h-332l34 105h311q-2 89 -52.5 147t-135.5 58q-180 0 -243 -178l-102 43q34 111 126 173t231 62q138 0 216 -83.5t78 -214.5zM399 789
l36 112h112l-36 -112h-112zM577 789l36 112h112l-36 -112h-112z" />
    <glyph glyph-name="uni04ED" unicode="&#x4ed;" horiz-adv-x="579" 
d="M537 270q0 -124 -81 -202t-227 -78q-89 0 -152 53t-66 137l98 22q18 -122 134 -122q62 0 109 31t67 84h-175l30 90h156q-5 52 -37.5 80.5t-85.5 28.5q-105 0 -140 -110l-93 33q24 79 88 123t159 44q101 0 158.5 -60t57.5 -154zM238 563l36 112h112l-36 -112h-112z
M416 563l36 112h112l-36 -112h-112z" />
    <glyph glyph-name="uni04EE" unicode="&#x4ee;" horiz-adv-x="705" 
d="M702 700h138l-663 -700h-141l261 274l-132 426h124l98 -332zM390 802l26 78h260l-26 -78h-260z" />
    <glyph glyph-name="uni04EF" unicode="&#x4ef;" horiz-adv-x="513" 
d="M461 474h117l-472 -659h-110l137 194l-49 465h110l27 -339zM230 576l26 78h260l-26 -78h-260z" />
    <glyph glyph-name="uni04F0" unicode="&#x4f0;" horiz-adv-x="705" 
d="M702 700h138l-663 -700h-141l261 274l-132 426h124l98 -332zM372 789l36 112h112l-36 -112h-112zM550 789l36 112h112l-36 -112h-112z" />
    <glyph glyph-name="uni04F1" unicode="&#x4f1;" horiz-adv-x="513" 
d="M461 474h117l-472 -659h-110l137 194l-49 465h110l27 -339zM211 563l36 112h112l-36 -112h-112zM389 563l36 112h112l-36 -112h-112z" />
    <glyph glyph-name="uni04F2" unicode="&#x4f2;" horiz-adv-x="705" 
d="M702 700h138l-663 -700h-141l261 274l-132 426h124l98 -332zM361 781l106 133h147l-6 -16l-147 -117h-100zM554 781l106 133h147l-6 -16l-147 -117h-100z" />
    <glyph glyph-name="uni04F3" unicode="&#x4f3;" horiz-adv-x="513" 
d="M461 474h117l-472 -659h-110l137 194l-49 465h110l27 -339zM202 555l106 133h147l-6 -16l-147 -117h-100zM395 555l106 133h147l-6 -16l-147 -117h-100z" />
    <glyph glyph-name="uni04F4" unicode="&#x4f4;" horiz-adv-x="692" 
d="M430 0l77 235q-96 -77 -214 -77q-81 0 -131 52t-50 133q0 47 16 92l87 265h112l-89 -272q-10 -29 -10 -62q0 -103 114 -103q49 0 96 21.5t108 71.5l112 344h112l-228 -700h-112zM376 789l36 112h112l-36 -112h-112zM554 789l36 112h112l-36 -112h-112z" />
    <glyph glyph-name="uni04F5" unicode="&#x4f5;" horiz-adv-x="562" 
d="M312 0l50 152q-32 -20 -70 -32q-32 -9 -80 -9q-56 0 -96 34q-39 35 -39 91q0 31 11 69l55 169h107l-52 -161q-8 -27 -8 -50q0 -30 20 -47.5t53 -17.5q37 0 66 14.5t68 50.5l69 211h107l-154 -474h-107zM242 563l36 112h112l-36 -112h-112zM420 563l36 112h112l-36 -112
h-112z" />
    <glyph glyph-name="uni04F8" unicode="&#x4f8;" horiz-adv-x="967" 
d="M-5 0l228 700h112l-94 -288h213q93 0 145.5 -49t52.5 -132q0 -101 -77.5 -166t-219.5 -65h-360zM141 105h238q73 0 115.5 32t42.5 88q0 37 -26 59.5t-72 22.5h-232zM705 0l228 700h112l-228 -700h-112zM511 789l36 112h112l-36 -112h-112zM689 789l36 112h112l-36 -112
h-112z" />
    <glyph glyph-name="uni04F9" unicode="&#x4f9;" horiz-adv-x="763" 
d="M-11 0l154 474h107l-53 -164h114q63 0 101 -36.5t38 -97.5q0 -82 -57 -129t-161 -47h-243zM127 95h128q38 0 63 17.5t25 49.5q0 53 -64 53h-113zM667 474h107l-154 -474h-107zM323 563l36 112h112l-36 -112h-112zM501 563l36 112h112l-36 -112h-112z" />
    <glyph glyph-name="uni0527" unicode="&#x527;" horiz-adv-x="572" 
d="M-11 0l228 700h107l-100 -308q70 92 180 92q61 0 96 -35.5t35 -93.5q0 -27 -10 -58l-97 -297h-107l92 282q8 26 8 44q0 34 -20.5 52.5t-58.5 18.5q-51 0 -97 -39.5t-67 -105.5l-82 -252h-107zM389 -110l36 110l24 80h94l-62 -190h-92z" />
    <glyph glyph-name="uni0E3F" unicode="&#xe3f;" horiz-adv-x="709" 
d="M569 357q82 -27 82 -128q0 -103 -83.5 -166t-218.5 -63h-34l-32 -98h-95l32 98h-225l228 700h225l32 98h95l-32 -98q82 -2 134 -47t52 -116t-43.5 -117t-116.5 -63zM303 601l-63 -191h114l62 191h-113zM610 515q0 37 -25.5 61.5t-66.5 24.5h-7l-62 -191h8q71 0 112 27.5
t41 77.5zM139 100h114l68 210h-113zM536 224q0 38 -25 62t-71 24h-24l-68 -210h28q71 0 115.5 34t44.5 90z" />
    <glyph glyph-name="Wgrave" unicode="&#x1e80;" horiz-adv-x="1004" 
d="M101 0l61 700h115l-63 -618l337 618h192l-59 -618l340 618h118l-388 -700h-182l59 627l-345 -627h-185zM623 781l-83 117l6 16h137l36 -133h-96z" />
    <glyph glyph-name="wgrave" unicode="&#x1e81;" horiz-adv-x="752" 
d="M198 474l-20 -369l210 369h122l-22 -369l218 369h107l-286 -474h-128l11 333l-196 -333h-131l10 474h105zM426 555l-83 117l6 16h137l36 -133h-96z" />
    <glyph glyph-name="Wacute" unicode="&#x1e82;" horiz-adv-x="1004" 
d="M101 0l61 700h115l-63 -618l337 618h192l-59 -618l340 618h118l-388 -700h-182l59 627l-345 -627h-185zM621 782l106 133h147l-6 -16l-147 -117h-100z" />
    <glyph glyph-name="wacute" unicode="&#x1e83;" horiz-adv-x="752" 
d="M198 474l-20 -369l210 369h122l-22 -369l218 369h107l-286 -474h-128l11 333l-196 -333h-131l10 474h105zM423 555l106 133h147l-6 -16l-147 -117h-100z" />
    <glyph glyph-name="Wdieresis" unicode="&#x1e84;" horiz-adv-x="1004" 
d="M101 0l61 700h115l-63 -618l337 618h192l-59 -618l340 618h118l-388 -700h-182l59 627l-345 -627h-185zM531 789l36 112h112l-36 -112h-112zM709 789l36 112h112l-36 -112h-112z" />
    <glyph glyph-name="wdieresis" unicode="&#x1e85;" horiz-adv-x="752" 
d="M198 474l-20 -369l210 369h122l-22 -369l218 369h107l-286 -474h-128l11 333l-196 -333h-131l10 474h105zM330 563l36 112h112l-36 -112h-112zM508 563l36 112h112l-36 -112h-112z" />
    <glyph glyph-name="uni1E9E" unicode="&#x1e9e;" horiz-adv-x="727" 
d="M179 131l106 42q12 -36 43 -56.5t70 -20.5q72 0 116 40.5t44 109.5q0 45 -28 71.5t-74 26.5q-54 0 -101 -44l-58 75l281 220h-114q-88 0 -138 -38t-79 -127l-139 -430h-112l142 439q46 142 128 201.5t231 59.5h268l-34 -105l-231 -176q15 4 33 4q61 0 100.5 -49
t39.5 -117q0 -118 -74 -192t-220 -74q-69 0 -127 38q-57 38 -73 102z" />
    <glyph glyph-name="Ygrave" unicode="&#x1ef2;" horiz-adv-x="694" 
d="M213 0l93 285l-144 415h125l98 -315l303 315h144l-414 -415l-93 -285h-112zM457 781l-83 117l6 16h137l36 -133h-96z" />
    <glyph glyph-name="ygrave" unicode="&#x1ef3;" horiz-adv-x="513" 
d="M461 474h117l-472 -659h-110l137 194l-49 465h110l27 -339zM307 555l-83 117l6 16h137l36 -133h-96z" />
    <glyph glyph-name="endash" unicode="&#x2013;" horiz-adv-x="646" 
d="M38 205l30 95h550l-30 -95h-550z" />
    <glyph glyph-name="emdash" unicode="&#x2014;" horiz-adv-x="896" 
d="M68 300h800l-30 -95h-800z" />
    <glyph glyph-name="quoteleft" unicode="&#x2018;" horiz-adv-x="232" 
d="M118 460l49 150q17 52 45 71t83 19h41l-20 -60h-37q-53 0 -53 -36q0 -24 27 -24h24l-39 -120h-120z" />
    <glyph glyph-name="quoteright" unicode="&#x2019;" horiz-adv-x="232" 
d="M216 700h120l-49 -150q-17 -52 -45 -71t-83 -19h-41l20 60h37q53 0 53 36q0 24 -27 24h-24z" />
    <glyph glyph-name="quotesinglbase" unicode="&#x201a;" horiz-adv-x="232" 
d="M28 120h120l-49 -150q-17 -52 -45 -71t-83 -19h-41l20 60h37q53 0 53 36q0 24 -27 24h-24z" />
    <glyph glyph-name="quotedblleft" unicode="&#x201c;" horiz-adv-x="412" 
d="M118 460l49 150q17 52 45 71t83 19h41l-20 -60h-37q-53 0 -53 -36q0 -24 27 -24h24l-39 -120h-120zM298 460l49 150q17 52 45 71t83 19h41l-20 -60h-37q-53 0 -53 -36q0 -24 27 -24h24l-39 -120h-120z" />
    <glyph glyph-name="quotedblright" unicode="&#x201d;" horiz-adv-x="412" 
d="M216 700h120l-49 -150q-17 -52 -45 -71t-83 -19h-41l20 60h37q53 0 53 36q0 24 -27 24h-24zM396 700h120l-49 -150q-17 -52 -45 -71t-83 -19h-41l20 60h37q53 0 53 36q0 24 -27 24h-24z" />
    <glyph glyph-name="quotedblbase" unicode="&#x201e;" horiz-adv-x="412" 
d="M28 120h120l-49 -150q-17 -52 -45 -71t-83 -19h-41l20 60h37q53 0 53 36q0 24 -27 24h-24zM208 120h120l-49 -150q-17 -52 -45 -71t-83 -19h-41l20 60h37q53 0 53 36q0 24 -27 24h-24z" />
    <glyph glyph-name="dagger" unicode="&#x2020;" horiz-adv-x="400" 
d="M179 635h109l39 121h82l-39 -121h109l-26 -80h-109l-93 -285h-82l93 285h-109z" />
    <glyph glyph-name="daggerdbl" unicode="&#x2021;" horiz-adv-x="401" 
d="M170 270l44 135h-109l26 80h109l23 70h-109l26 80h109l39 121h82l-39 -121h109l-26 -80h-109l-23 -70h109l-26 -80h-109l-44 -135h-82z" />
    <glyph glyph-name="bullet" unicode="&#x2022;" horiz-adv-x="254" 
d="M100 355h130l-42 -130h-130z" />
    <glyph glyph-name="ellipsis" unicode="&#x2026;" horiz-adv-x="641" 
d="M24 120h120l-38 -120h-120zM222 120h120l-38 -120h-120zM420 120h120l-38 -120h-120z" />
    <glyph glyph-name="perthousand" unicode="&#x2030;" horiz-adv-x="1226" 
d="M135 504q0 92 62 149t160 57q67 0 110.5 -43t43.5 -105q0 -91 -64 -148.5t-158 -57.5q-67 0 -110.5 42.5t-43.5 105.5zM421 554q0 33 -21 54.5t-56 21.5q-51 0 -85 -33.5t-34 -84.5q0 -33 21.5 -54.5t56.5 -21.5q50 0 84 33.5t34 84.5zM198 80l-45 65l660 473l46 -65z
M506 138q0 92 62 149t160 57q85 0 122 -70q55 70 161 70q67 0 110.5 -43t43.5 -105q0 -91 -64 -148.5t-158 -57.5q-83 0 -124 72q-55 -72 -159 -72q-67 0 -110.5 42.5t-43.5 105.5zM792 188q0 33 -21 54.5t-56 21.5q-51 0 -85 -33.5t-34 -84.5q0 -33 21.5 -54.5t56.5 -21.5
q50 0 84 33.5t34 84.5zM1075 188q0 33 -21 54.5t-56 21.5q-51 0 -85 -33.5t-34 -84.5q0 -33 21.5 -54.5t56.5 -21.5q50 0 84 33.5t34 84.5z" />
    <glyph glyph-name="guilsinglleft" unicode="&#x2039;" horiz-adv-x="326" 
d="M208 85l-142 208l10 30l272 192h16l-40 -122l-147 -88l-6 -16l86 -102l-33 -102h-16z" />
    <glyph glyph-name="guilsinglright" unicode="&#x203a;" horiz-adv-x="326" 
d="M159 515l142 -208l-10 -30l-272 -192h-16l40 122l147 88l6 16l-86 102l33 102h16z" />
    <glyph glyph-name="uni203D" unicode="&#x203d;" horiz-adv-x="572" 
d="M199 180l141 431q-59 -10 -93.5 -48.5t-34.5 -97.5q0 -37 21 -69l-89 -52q-37 56 -37 119q0 107 72 174t193 73l13 40h102l-15 -48q76 -15 116.5 -61.5t40.5 -110.5q0 -81 -44 -131.5t-143 -90.5l-45 -19q-70 -29 -86 -81l-9 -28h-103zM395 384q68 24 98 53.5t30 76.5
q0 74 -82 94l-80 -248q14 18 34 24zM132 0l39 120h120l-39 -120h-120z" />
    <glyph glyph-name="uni2042" unicode="&#x2042;" horiz-adv-x="941" 
d="M507 730l82 -27l-21 -66l-60 -82l101 33h70v-86h-70l-102 33l64 -83l21 -66l-83 -27l-20 67v108l-62 -88l-57 -42l-52 71l57 41l100 30l-102 33l-56 41l50 70l57 -42l65 -86v101zM323 299l51 -70l-56 -41l-97 -30l101 -34l57 -41l-50 -69l-57 41l-64 86l3 -104l-22 -66
l-82 27l23 66l63 88l-101 -36h-71v88h70l98 -35l-63 87l-21 66l81 27l21 -67l3 -108l59 82zM803 299l51 -70l-56 -41l-97 -30l101 -34l57 -41l-50 -69l-57 41l-64 86l3 -104l-22 -66l-82 27l23 66l63 88l-101 -36h-71v88h70l98 -35l-63 87l-21 66l81 27l21 -67l3 -108l59 82
z" />
    <glyph glyph-name="fraction" unicode="&#x2044;" horiz-adv-x="143" 
d="M363 561l42 -57l-559 -386l-42 57z" />
    <glyph glyph-name="uni2051" unicode="&#x2051;" horiz-adv-x="465" 
d="M327 299l51 -70l-56 -41l-97 -30l101 -34l57 -41l-50 -69l-57 41l-64 86l3 -104l-22 -66l-82 27l23 66l63 88l-101 -36h-71v88h70l98 -35l-63 87l-21 66l81 27l21 -67l3 -108l59 82zM346 730l82 -27l-21 -66l-60 -82l101 33h70v-86h-70l-102 33l64 -83l21 -66l-83 -27
l-20 67v108l-62 -88l-57 -42l-52 71l57 41l100 30l-102 33l-56 41l50 70l57 -42l65 -86v101z" />
    <glyph glyph-name="uni2055" unicode="&#x2055;" horiz-adv-x="838" 
d="M392 -8l-95 31l74 228l-214 -109l-45 88l215 110l-229 74l31 95l228 -74l-109 214l88 45l110 -215l74 229l95 -31l-74 -228l214 109l45 -88l-215 -110l229 -74l-31 -95l-228 74l109 -214l-88 -45l-110 215z" />
    <glyph glyph-name="uni2070" unicode="&#x2070;" horiz-adv-x="390" 
d="M127 487q0 90 61.5 153.5t146.5 63.5q55 0 86.5 -36t31.5 -95q0 -89 -61 -153t-143 -64q-57 0 -89.5 36t-32.5 95zM379 568q0 33 -15 52.5t-41 19.5q-47 0 -84.5 -46t-37.5 -102q0 -33 15 -52.5t42 -19.5q47 0 84 46.5t37 101.5z" />
    <glyph glyph-name="uni2074" unicode="&#x2074;" horiz-adv-x="309" 
d="M227 360l23 72h-163l24 72q49 40 78 79.5t46 94.5l7 22h70l-10 -31q-20 -61 -45.5 -99t-69.5 -73h84l32 98h72l-32 -98h39l-21 -65h-39l-23 -72h-72z" />
    <glyph glyph-name="uni2075" unicode="&#x2075;" horiz-adv-x="326" 
d="M104 458l68 13q3 -23 18.5 -36.5t39.5 -13.5q61 0 61 61q0 21 -12 33t-33 12q-37 0 -56 -30l-64 21l68 182h219l-21 -65h-159l-31 -75q23 30 74 30q41 0 65.5 -27.5t24.5 -70.5q0 -65 -37.5 -100.5t-104.5 -35.5q-52 0 -85 27.5t-35 74.5z" />
    <glyph glyph-name="uni2076" unicode="&#x2076;" horiz-adv-x="350" 
d="M130 487q0 93 50.5 155t138.5 62q95 0 108 -88l-63 -16q-5 44 -52 44q-86 0 -115 -107q13 20 38.5 32.5t56.5 12.5q42 0 70 -27.5t28 -67.5q0 -58 -40 -94.5t-104 -36.5q-55 0 -85.5 35t-30.5 96zM320 479q0 21 -13.5 34t-37.5 13q-29 0 -48 -17.5t-19 -44.5
q0 -21 14.5 -34.5t36.5 -13.5q32 0 49.5 17.5t17.5 45.5z" />
    <glyph glyph-name="uni2077" unicode="&#x2077;" horiz-adv-x="285" 
d="M301 635h-147l21 65h234l-19 -60q-87 -45 -132 -111t-59 -169h-70q13 99 53.5 164t118.5 111z" />
    <glyph glyph-name="uni2078" unicode="&#x2078;" horiz-adv-x="337" 
d="M106 456q0 38 27.5 66.5t72.5 35.5q-31 23 -31 56q0 44 33 67t91 23q48 0 77 -22.5t29 -58.5q0 -61 -69 -80q42 -21 42 -71q0 -54 -41.5 -85t-111.5 -31q-52 0 -85.5 27.5t-33.5 72.5zM341 620q0 16 -12.5 25t-33.5 9q-25 0 -40.5 -12t-15.5 -31q0 -15 12.5 -25t31.5 -10
q25 0 41.5 12t16.5 32zM306 475q0 20 -15.5 32.5t-40.5 12.5q-31 0 -51.5 -16t-20.5 -42q0 -19 15.5 -31.5t38.5 -12.5q33 0 53.5 16t20.5 41z" />
    <glyph glyph-name="uni2079" unicode="&#x2079;" horiz-adv-x="352" 
d="M105 453l63 18q2 -25 18.5 -40t45.5 -15q46 0 72 26.5t37 83.5q-26 -44 -89 -44q-44 0 -72 27.5t-28 69.5q0 57 39 91t101 34q57 0 87.5 -33t30.5 -95q0 -104 -47.5 -162t-138.5 -58q-49 0 -83 27.5t-36 69.5zM338 597q0 21 -14 34t-36 13q-31 0 -49.5 -16t-18.5 -45
q0 -20 14.5 -32.5t36.5 -12.5q30 0 48.5 16.5t18.5 42.5z" />
    <glyph glyph-name="uni2080" unicode="&#x2080;" horiz-adv-x="390" 
d="M-54 -71q0 90 61.5 153.5t146.5 63.5q55 0 86.5 -36t31.5 -95q0 -89 -61 -153t-143 -64q-57 0 -89.5 36t-32.5 95zM198 10q0 33 -15 52.5t-41 19.5q-48 0 -85 -46t-37 -102q0 -33 15 -52.5t42 -19.5q47 0 84 46.5t37 101.5z" />
    <glyph glyph-name="uni2081" unicode="&#x2081;" horiz-adv-x="217" 
d="M-34 -198l79 245q-35 -54 -101 -56l15 77q90 6 122 74h67l-110 -340h-72z" />
    <glyph glyph-name="uni2082" unicode="&#x2082;" horiz-adv-x="308" 
d="M-36 31q0 52 36.5 83.5t94.5 31.5q55 0 86 -26t31 -69q-3 -56 -29 -81.5t-90 -54.5q-61 -25 -79 -48h144l-21 -65h-240q21 64 54 100t86 55q56 21 78.5 39t22.5 45q0 18 -14 29.5t-35 11.5q-24 0 -39.5 -13.5t-15.5 -34.5q0 -17 10 -33l-55 -30q-25 25 -25 60z" />
    <glyph glyph-name="uni2083" unicode="&#x2083;" horiz-adv-x="321" 
d="M-84 -101l69 23q2 -26 18 -41t41 -15q27 0 44.5 16t17.5 43q0 43 -42 43q-21 0 -35 -13l-27 49l106 73h-117l21 65h220l-18 -55l-94 -62q29 -7 46.5 -31.5t17.5 -61.5q0 -63 -39.5 -98.5t-110.5 -35.5q-51 0 -83.5 28.5t-34.5 72.5z" />
    <glyph glyph-name="uni2084" unicode="&#x2084;" horiz-adv-x="309" 
d="M46 -198l23 72h-163l24 72q49 40 78 79.5t46 94.5l7 22h70l-10 -31q-20 -61 -45.5 -99t-69.5 -73h84l32 98h72l-32 -98h39l-21 -65h-39l-23 -72h-72z" />
    <glyph glyph-name="uni2085" unicode="&#x2085;" horiz-adv-x="326" 
d="M-77 -100l68 13q3 -23 18.5 -36.5t39.5 -13.5q61 0 61 61q0 21 -12 33t-33 12q-37 0 -56 -30l-64 21l68 182h219l-21 -65h-159l-31 -75q23 30 74 30q41 0 65.5 -27.5t24.5 -70.5q0 -65 -37.5 -100.5t-104.5 -35.5q-52 0 -85 27.5t-35 74.5z" />
    <glyph glyph-name="uni2086" unicode="&#x2086;" horiz-adv-x="350" 
d="M-51 -71q0 93 50.5 155t138.5 62q95 0 108 -88l-63 -16q-5 44 -52 44q-86 0 -115 -107q13 20 38.5 32.5t56.5 12.5q42 0 70 -27.5t28 -67.5q0 -58 -40 -94.5t-104 -36.5q-55 0 -85.5 35t-30.5 96zM139 -79q0 21 -13.5 34t-37.5 13q-29 0 -48 -17.5t-19 -44.5
q0 -21 14.5 -34.5t36.5 -13.5q32 0 49.5 17.5t17.5 45.5z" />
    <glyph glyph-name="uni2087" unicode="&#x2087;" horiz-adv-x="285" 
d="M120 77h-147l21 65h234l-19 -60q-87 -45 -132 -111t-59 -169h-70q13 99 53.5 164t118.5 111z" />
    <glyph glyph-name="uni2088" unicode="&#x2088;" horiz-adv-x="337" 
d="M-75 -102q0 38 27.5 66.5t72.5 35.5q-31 23 -31 56q0 44 33 67t91 23q48 0 77 -22.5t29 -58.5q0 -61 -69 -80q42 -21 42 -71q0 -54 -41.5 -85t-111.5 -31q-52 0 -85.5 27.5t-33.5 72.5zM160 62q0 16 -12.5 25t-33.5 9q-25 0 -40.5 -12t-15.5 -31q0 -15 12.5 -25t31.5 -10
q25 0 41.5 12t16.5 32zM125 -83q0 20 -15.5 32.5t-40.5 12.5q-31 0 -51.5 -16t-20.5 -42q0 -19 15.5 -31.5t38.5 -12.5q33 0 53.5 16t20.5 41z" />
    <glyph glyph-name="uni2089" unicode="&#x2089;" horiz-adv-x="352" 
d="M-76 -105l63 18q2 -25 18.5 -40t45.5 -15q46 0 72 26.5t37 83.5q-26 -44 -89 -44q-44 0 -72 27.5t-28 69.5q0 57 39 91t101 34q57 0 87.5 -33t30.5 -95q0 -104 -47.5 -162t-138.5 -58q-49 0 -83 27.5t-36 69.5zM157 39q0 21 -14 34t-36 13q-31 0 -49.5 -16t-18.5 -45
q0 -20 14.5 -32.5t36.5 -12.5q30 0 48.5 16.5t18.5 42.5z" />
    <glyph glyph-name="franc" unicode="&#x20a3;" horiz-adv-x="645" 
d="M715 600h-395l-67 -205h365l-33 -100h-365l-29 -90h182l-31 -95h-182l-36 -110h-110l36 110h-86l30 95h87l161 495h505z" />
    <glyph glyph-name="lira" unicode="&#x20a4;" horiz-adv-x="649" 
d="M488 160l89 -60q-31 -58 -75.5 -84t-117.5 -26q-77 0 -129 54q-55 -54 -136 -54q-52 0 -84 30t-32 79q0 59 38 92.5t101 33.5q56 0 97 -34q4 17 4 43v11h-157l31 95h102l-13 40h-106l31 95h59v4q0 104 70.5 167.5t198.5 63.5q98 0 153.5 -54t55.5 -141l-110 -28
q0 57 -30.5 90t-86.5 33q-62 0 -99 -36t-40 -99h169l-31 -95h-124l9 -40h132l-31 -95h-91q-1 -66 -26 -121q40 -34 85 -34q35 0 55.5 15.5t38.5 54.5zM203 104q-28 31 -63 31q-50 0 -50 -37q0 -15 12 -24t31 -9q39 0 70 39z" />
    <glyph glyph-name="uni20A9" unicode="&#x20a9;" horiz-adv-x="944" 
d="M1033 700l-147 -295h101l-31 -95h-117l-154 -310h-158l34 310h-127l-165 -310h-157l43 310h-119l31 95h101l41 295h103l-45 -295h112l153 295h175l-35 -295h112l142 295h107zM484 405h88l23 208zM220 97l110 213h-78zM636 97l102 213h-77z" />
    <glyph glyph-name="dong" unicode="&#x20ab;" horiz-adv-x="631" 
d="M749 635l-30 -95h-89l-175 -540h-102l22 70q-52 -80 -163 -80q-77 0 -126 52.5t-49 144.5q0 128 83.5 212.5t210.5 84.5q56 0 93.5 -26.5t48.5 -72.5l50 155h-171l30 95h172l21 65h107l-21 -65h88zM438 275q0 51 -31 82.5t-84 31.5q-75 0 -126.5 -54t-51.5 -134
q0 -54 31.5 -86t85.5 -32q67 -2 122.5 58t53.5 134zM-48 -165l30 95h450l-30 -95h-450z" />
    <glyph glyph-name="Euro" unicode="&#x20ac;" horiz-adv-x="833" 
d="M708 304l103 -35q-84 -279 -390 -279q-117 0 -198 63q-82 64 -101 172h-107l29 95h73q2 28 7 60h-62l30 95h63q51 108 155 171q104 64 240 64q139 0 206 -64q69 -64 84 -171l-105 -32q-8 78 -60.5 122.5t-134.5 44.5t-148.5 -35.5t-108.5 -99.5h259l-30 -95h-269
q-7 -28 -9 -60h260l-29 -95h-220q19 -65 69.5 -100t123.5 -35q204 0 270 214z" />
    <glyph glyph-name="uni20AE" unicode="&#x20ae;" horiz-adv-x="672" 
d="M761 600h-254l-39 -120l83 37l32 -77l-150 -67l-17 -54l82 37l33 -77l-150 -67l-69 -212h-107l51 156l-85 -38l-32 77l151 68l18 54l-84 -38l-33 77l152 68l57 176h-254l33 100h615z" />
    <glyph glyph-name="uni20B4" unicode="&#x20b4;" horiz-adv-x="678" 
d="M656 455h65l-31 -95h-620l31 95h430q51 35 51 86q0 31 -32.5 50t-86.5 19q-120 0 -168 -109l-88 51q37 81 104.5 119.5t173.5 38.5q92 0 149.5 -42t57.5 -109q0 -62 -36 -104zM26 225l31 95h620l-31 -95h-439q-14 -26 -14 -53q0 -39 31.5 -60.5t91.5 -21.5q66 0 112.5 21
t88.5 69l80 -59q-51 -68 -123 -99.5t-175 -31.5q-100 0 -158 47.5t-58 117.5q0 38 20 70h-77z" />
    <glyph glyph-name="uni20B8" unicode="&#x20b8;" horiz-adv-x="672" 
d="M148 605l31 95h615l-31 -95h-615zM205 0l150 460h-254l31 95h615l-31 -95h-254l-150 -460h-107z" />
    <glyph glyph-name="uni20B9" unicode="&#x20b9;" horiz-adv-x="561" 
d="M644 605h-95q15 -31 18 -60h57l-31 -95h-36q-35 -101 -152 -140q39 -26 39 -88q0 -24 -11 -70q-17 -66 -17 -94q0 -22 11 -42l-5 -16h-121q-3 16 -3 41q0 58 21 119q11 35 11 55q0 75 -93 75h-171l34 105h189q102 0 139 55h-311l31 95h294q-18 50 -88 50h-189l3 10l31 95
h476z" />
    <glyph glyph-name="uni20BA" unicode="&#x20ba;" horiz-adv-x="697" 
d="M654 257q0 -257 -361 -257h-214l62 191l-84 -38l-34 76l153 68l18 55l-85 -38l-33 76l152 68l79 242h102l-61 -188l87 39l33 -76l-155 -70l-18 -54l88 39l33 -76l-156 -70l-45 -139h107q102 0 159.5 39.5t57.5 115.5q0 38 -19 66l104 43q30 -49 30 -112z" />
    <glyph glyph-name="uni20BD" unicode="&#x20bd;" horiz-adv-x="695" 
d="M723 514q0 -108 -82 -171t-223 -63h-202l-23 -70h162l-31 -95h-162l-37 -115h-112l37 115h-86l31 95h86l160 490h278q92 0 148 -52t56 -134zM602 504q0 44 -27 70t-74 26h-181l-71 -220h192q73 0 117 33.5t44 90.5z" />
    <glyph glyph-name="uni2113" unicode="&#x2113;" horiz-adv-x="544" 
d="M390 213l93 -18q-17 -96 -72.5 -150.5t-137.5 -54.5q-73 0 -118.5 44t-57.5 124l-56 -11l-15 89q28 3 68 13q3 118 45.5 225.5t110.5 172.5t141 63q142 0 142 -148q0 -117 -93.5 -218t-247.5 -158q5 -50 27.5 -78t56.5 -28q44 0 74 34.5t40 98.5zM194 280
q113 46 176.5 119.5t63.5 158.5q0 62 -49 62q-64 3 -122 -101.5t-69 -238.5z" />
    <glyph glyph-name="uni2116" unicode="&#x2116;" horiz-adv-x="1354" 
d="M871 424q-2 117 85.5 202.5t218.5 83.5q98 0 156 -58.5t58 -149.5q2 -117 -85.5 -202.5t-218.5 -83.5q-98 0 -156 58.5t-58 149.5zM309 620l-202 -620h-112l228 700h180l132 -621l202 621h112l-228 -700h-180zM1281 495q0 51 -34 85q-33 35 -85 35q-80 0 -131.5 -53.5
t-51.5 -130.5q0 -51 33 -85q35 -35 86 -35q80 0 131.5 53.5t51.5 130.5zM800 95h420l-30 -95h-420z" />
    <glyph glyph-name="uni2117" unicode="&#x2117;" horiz-adv-x="560" 
d="M137 486q0 93 65 158.5t159 65.5t159 -65.5t65 -158.5t-65 -158.5t-159 -65.5t-159 65.5t-65 158.5zM535 486q0 73 -50 124t-124 51t-124 -51t-50 -124t50 -124t124 -51t124 51t50 124zM268 361v251h125q39 0 60 -20t21 -56t-21 -56t-60 -20h-76v-99h-49zM317 503h70
q37 0 37 33t-37 33h-70v-66z" />
    <glyph glyph-name="uni2120" unicode="&#x2120;" horiz-adv-x="667" 
d="M148 520l43 26q13 -55 68 -55q21 0 34.5 9t13.5 23q0 28 -55 35q-86 12 -86 75q0 30 26 50.5t65 20.5q76 0 94 -60l-41 -23q-11 39 -53 39q-17 0 -29.5 -8.5t-12.5 -19.5q0 -25 57 -33q45 -6 66 -23.5t21 -52.5t-27.5 -56.5t-72.5 -21.5q-89 0 -111 75zM400 449v251h90
l61 -207l61 207h90v-251h-50v217l-67 -217h-68l-67 217v-217h-50z" />
    <glyph glyph-name="trademark" unicode="&#x2122;" horiz-adv-x="692" 
d="M408 702v-46h-86v-205h-50v205h-87v46h223zM728 451h-48v205h-6l-61 -205h-67l-60 205h-6v-205h-49v251h88l58 -197h6l57 197h88v-251z" />
    <glyph glyph-name="uni2126" unicode="&#x2126;" horiz-adv-x="822" 
d="M830 443q0 -213 -253 -343h135l-32 -100h-295l31 95q126 57 209 140q83 85 83 182q0 89 -61 138q-61 50 -154 50q-129 0 -204 -74t-75 -191q0 -75 32 -139.5t86 -105.5l-31 -95h-285l32 100h157q-48 45 -78 110t-30 134q-2 157 113 262.5t302 103.5q142 0 230 -75
t88 -192z" />
    <glyph glyph-name="estimated" unicode="&#x212e;" horiz-adv-x="847" 
d="M796 320h-560v-120q34 -57 92.5 -88.5t132.5 -31.5q91 0 157 45.5t93 124.5l85 -35q-35 -100 -125 -162.5t-210 -62.5q-152 -3 -257 104t-103 256q-3 152 101.5 257.5t258.5 102.5q142 2 241.5 -97.5t97.5 -239.5q0 -32 -4 -53zM236 500v-90h430v90q-30 56 -86.5 88
t-123.5 32q-72 0 -129 -31.5t-91 -88.5z" />
    <glyph glyph-name="uni2153" unicode="&#x2153;" horiz-adv-x="681" 
d="M147 360l79 245q-35 -54 -101 -56l15 77q90 6 122 74h67l-110 -340h-72zM580 561l42 -57l-559 -386l-42 57zM340 97l69 23q2 -26 18 -41t41 -15q27 0 44.5 16t17.5 43q0 43 -42 43q-21 0 -35 -13l-27 49l106 73h-117l21 65h220l-18 -55l-94 -62q29 -7 46.5 -31.5
t17.5 -61.5q0 -63 -39.5 -98.5t-110.5 -35.5q-51 0 -83.5 28.5t-34.5 72.5z" />
    <glyph glyph-name="uni2154" unicode="&#x2154;" horiz-adv-x="772" 
d="M145 589q0 52 36.5 83.5t94.5 31.5q55 0 86 -26t31 -69q-3 -56 -29 -81.5t-90 -54.5q-61 -25 -79 -48h144l-21 -65h-240q21 64 54 100t86 55q56 21 78.5 39t22.5 45q0 18 -14 29.5t-35 11.5q-24 0 -39.5 -13.5t-15.5 -34.5q0 -17 10 -33l-55 -30q-25 25 -25 60zM671 561
l42 -57l-559 -386l-42 57zM431 97l69 23q2 -26 18 -41t41 -15q27 0 44.5 16t17.5 43q0 43 -42 43q-21 0 -35 -13l-27 49l106 73h-117l21 65h220l-18 -55l-94 -62q29 -7 46.5 -31.5t17.5 -61.5q0 -63 -39.5 -98.5t-110.5 -35.5q-51 0 -83.5 28.5t-34.5 72.5z" />
    <glyph glyph-name="oneeighth" unicode="&#x215b;" horiz-adv-x="697" 
d="M147 360l79 245q-35 -54 -101 -56l15 77q90 6 122 74h67l-110 -340h-72zM580 561l42 -57l-559 -386l-42 57zM349 96q0 38 27.5 66.5t72.5 35.5q-31 23 -31 56q0 44 33 67t91 23q48 0 77 -22.5t29 -58.5q0 -61 -69 -80q42 -21 42 -71q0 -54 -41.5 -85t-111.5 -31
q-52 0 -85.5 27.5t-33.5 72.5zM584 260q0 16 -12.5 25t-33.5 9q-25 0 -40.5 -12t-15.5 -31q0 -15 12.5 -25t31.5 -10q25 0 41.5 12t16.5 32zM549 115q0 20 -15.5 32.5t-40.5 12.5q-31 0 -51.5 -16t-20.5 -42q0 -19 15.5 -31.5t38.5 -12.5q33 0 53.5 16t20.5 41z" />
    <glyph glyph-name="threeeighths" unicode="&#x215c;" horiz-adv-x="801" 
d="M97 457l69 23q2 -26 18 -41t41 -15q27 0 44.5 16t17.5 43q0 43 -42 43q-21 0 -35 -13l-27 49l106 73h-117l21 65h220l-18 -55l-94 -62q29 -7 46.5 -31.5t17.5 -61.5q0 -63 -39.5 -98.5t-110.5 -35.5q-51 0 -83.5 28.5t-34.5 72.5zM684 561l42 -57l-559 -386l-42 57z
M453 96q0 38 27.5 66.5t72.5 35.5q-31 23 -31 56q0 44 33 67t91 23q48 0 77 -22.5t29 -58.5q0 -61 -69 -80q42 -21 42 -71q0 -54 -41.5 -85t-111.5 -31q-52 0 -85.5 27.5t-33.5 72.5zM688 260q0 16 -12.5 25t-33.5 9q-25 0 -40.5 -12t-15.5 -31q0 -15 12.5 -25t31.5 -10
q25 0 41.5 12t16.5 32zM653 115q0 20 -15.5 32.5t-40.5 12.5q-31 0 -51.5 -16t-20.5 -42q0 -19 15.5 -31.5t38.5 -12.5q33 0 53.5 16t20.5 41z" />
    <glyph glyph-name="fiveeighths" unicode="&#x215d;" horiz-adv-x="806" 
d="M104 458l68 13q3 -23 18.5 -36.5t39.5 -13.5q61 0 61 61q0 21 -12 33t-33 12q-37 0 -56 -30l-64 21l68 182h219l-21 -65h-159l-31 -75q23 30 74 30q41 0 65.5 -27.5t24.5 -70.5q0 -65 -37.5 -100.5t-104.5 -35.5q-52 0 -85 27.5t-35 74.5zM689 561l42 -57l-559 -386
l-42 57zM458 96q0 38 27.5 66.5t72.5 35.5q-31 23 -31 56q0 44 33 67t91 23q48 0 77 -22.5t29 -58.5q0 -61 -69 -80q42 -21 42 -71q0 -54 -41.5 -85t-111.5 -31q-52 0 -85.5 27.5t-33.5 72.5zM693 260q0 16 -12.5 25t-33.5 9q-25 0 -40.5 -12t-15.5 -31q0 -15 12.5 -25
t31.5 -10q25 0 41.5 12t16.5 32zM658 115q0 20 -15.5 32.5t-40.5 12.5q-31 0 -51.5 -16t-20.5 -42q0 -19 15.5 -31.5t38.5 -12.5q33 0 53.5 16t20.5 41z" />
    <glyph glyph-name="seveneighths" unicode="&#x215e;" horiz-adv-x="765" 
d="M301 635h-147l21 65h234l-19 -60q-87 -45 -132 -111t-59 -169h-70q13 99 53.5 164t118.5 111zM648 561l42 -57l-559 -386l-42 57zM417 96q0 38 27.5 66.5t72.5 35.5q-31 23 -31 56q0 44 33 67t91 23q48 0 77 -22.5t29 -58.5q0 -61 -69 -80q42 -21 42 -71q0 -54 -41.5 -85
t-111.5 -31q-52 0 -85.5 27.5t-33.5 72.5zM652 260q0 16 -12.5 25t-33.5 9q-25 0 -40.5 -12t-15.5 -31q0 -15 12.5 -25t31.5 -10q25 0 41.5 12t16.5 32zM617 115q0 20 -15.5 32.5t-40.5 12.5q-31 0 -51.5 -16t-20.5 -42q0 -19 15.5 -31.5t38.5 -12.5q33 0 53.5 16t20.5 41z
" />
    <glyph glyph-name="uni2160" unicode="&#x2160;" horiz-adv-x="817" 
d="M700 105v-105h-510v105h200v490h-200v105h510v-105h-200v-490h200z" />
    <glyph glyph-name="uni2161" unicode="&#x2161;" horiz-adv-x="1127" 
d="M190 0v105h200v490h-200v105h820v-105h-200v-490h200v-105h-820zM500 105h200v490h-200v-490z" />
    <glyph glyph-name="uni2162" unicode="&#x2162;" horiz-adv-x="1437" 
d="M190 0v105h200v490h-200v105h1130v-105h-200v-490h200v-105h-1130zM500 105h200v490h-200v-490zM810 105h200v490h-200v-490z" />
    <glyph glyph-name="uni2163" unicode="&#x2163;" horiz-adv-x="1437" 
d="M190 0v105h200v490h-200v105h1130v-105h-130l-170 -490h300v-105h-1130zM500 105h300l-170 490h-130v-490zM910 100l165 495h-330z" />
    <glyph glyph-name="uni2164" unicode="&#x2164;" horiz-adv-x="1127" 
d="M190 0v105h300l-170 490h-130v105h820v-105h-130l-170 -490h300v-105h-820zM600 100l165 495h-330z" />
    <glyph glyph-name="uni2165" unicode="&#x2165;" horiz-adv-x="1437" 
d="M190 0v105h300l-170 490h-130v105h1130v-105h-200v-490h200v-105h-1130zM600 100l165 495h-330zM710 105h300v490h-130z" />
    <glyph glyph-name="uni2166" unicode="&#x2166;" horiz-adv-x="1747" 
d="M190 0v105h300l-170 490h-130v105h1440v-105h-200v-490h200v-105h-1440zM600 100l165 495h-330zM710 105h300v490h-130zM1120 105h200v490h-200v-490z" />
    <glyph glyph-name="uni2167" unicode="&#x2167;" horiz-adv-x="2057" 
d="M190 0v105h300l-170 490h-130v105h1750v-105h-200v-490h200v-105h-1750zM600 100l165 495h-330zM710 105h300v490h-130zM1120 105h200v490h-200v-490zM1430 105h200v490h-200v-490z" />
    <glyph glyph-name="uni2168" unicode="&#x2168;" horiz-adv-x="1437" 
d="M190 0v105h200v490h-200v105h1130v-105h-150l-190 -245l190 -245h150v-105h-1130zM500 105h150l190 245l-190 245h-150v-490zM910 430l120 165h-240zM790 105h240l-120 165z" />
    <glyph glyph-name="uni2169" unicode="&#x2169;" horiz-adv-x="1127" 
d="M190 0v105h150l190 245l-190 245h-150v105h820v-105h-150l-190 -245l190 -245h150v-105h-820zM600 430l120 165h-240zM480 105h240l-120 165z" />
    <glyph glyph-name="uni216A" unicode="&#x216a;" horiz-adv-x="1437" 
d="M190 0v105h150l190 245l-190 245h-150v105h1130v-105h-200v-490h200v-105h-1130zM600 430l120 165h-240zM860 105h150v490h-150l-190 -245zM480 105h240l-120 165z" />
    <glyph glyph-name="uni216B" unicode="&#x216b;" horiz-adv-x="1747" 
d="M190 0v105h150l190 245l-190 245h-150v105h1440v-105h-200v-490h200v-105h-1440zM600 430l120 165h-240zM860 105h150v490h-150l-190 -245zM1120 105h200v490h-200v-490zM480 105h240l-120 165z" />
    <glyph glyph-name="uni216C" unicode="&#x216c;" horiz-adv-x="957" 
d="M190 0v105h120v490h-120v105h340v-105h-110v-490h310v140h110v-245h-650z" />
    <glyph glyph-name="uni216D" unicode="&#x216d;" horiz-adv-x="839" 
d="M98 350q-3 152 97.5 257t242.5 103q83 0 146 -32.5t90 -87.5v110h100v-275h-95q-11 86 -71 135.5t-150 49.5q-110 0 -178 -71t-68 -189q0 -121 66.5 -190.5t174.5 -69.5q109 0 174 63t81 157l100 -40q-28 -126 -121.5 -203t-233.5 -77q-156 -2 -256.5 102t-98.5 258z" />
    <glyph glyph-name="uni216E" unicode="&#x216e;" horiz-adv-x="931" 
d="M190 0v104h120v492h-120v104h365q166 0 258 -98t92 -257q0 -152 -93.5 -248.5t-256.5 -96.5h-365zM420 105h135q115 0 177.5 67.5t62.5 172.5q0 117 -61.5 183.5t-178.5 66.5h-135v-490z" />
    <glyph glyph-name="uni216F" unicode="&#x216f;" horiz-adv-x="1347" 
d="M190 0v105h120v490h-120v105h310l210 -600l210 600h310v-105h-120v-490h120v-105h-350v105h120v495l-215 -600h-150l-215 600v-495h120v-105h-350z" />
    <glyph glyph-name="uni2180" unicode="&#x2180;" horiz-adv-x="1205" 
d="M99 345q0 159 92 257t258 98h380q166 0 258 -98t92 -257q0 -152 -93.5 -248.5t-256.5 -96.5h-380q-163 0 -256.5 96.5t-93.5 248.5zM449 105h135v490h-135q-117 0 -178.5 -66.5t-61.5 -183.5q0 -105 62.5 -172.5t177.5 -67.5zM694 105h135q115 0 177.5 67.5t62.5 172.5
q0 117 -61.5 183.5t-178.5 66.5h-135v-490z" />
    <glyph glyph-name="uni2181" unicode="&#x2181;" horiz-adv-x="931" 
d="M190 0v104h120v492h-120v104h365q166 0 258 -98t92 -257q0 -152 -93.5 -248.5t-256.5 -96.5h-365zM420 105h135q115 0 177.5 67.5t62.5 172.5q0 117 -61.5 183.5t-178.5 66.5h-135v-70h105q84 0 134.5 -47t50.5 -128t-50.5 -128t-134.5 -47h-105v-70zM420 275h95
q39 0 62 19.5t23 55.5t-23 55.5t-62 19.5h-95v-150z" />
    <glyph glyph-name="uni2182" unicode="&#x2182;" horiz-adv-x="1205" 
d="M99 345q0 159 92 257t258 98h380q166 0 258 -98t92 -257q0 -152 -93.5 -248.5t-256.5 -96.5h-380q-163 0 -256.5 96.5t-93.5 248.5zM449 105h135v70h-105q-84 0 -134.5 47t-50.5 128t50.5 128t134.5 47h105v70h-135q-117 0 -178.5 -66.5t-61.5 -183.5q0 -105 62.5 -172.5
t177.5 -67.5zM694 105h135q115 0 177.5 67.5t62.5 172.5q0 117 -61.5 183.5t-178.5 66.5h-135v-70h105q84 0 134.5 -47t50.5 -128t-50.5 -128t-134.5 -47h-105v-70zM489 275h95v150h-95q-39 0 -62 -19.5t-23 -55.5t23 -55.5t62 -19.5zM694 275h95q39 0 62 19.5t23 55.5
t-23 55.5t-62 19.5h-95v-150z" />
    <glyph glyph-name="arrowleft" unicode="&#x2190;" horiz-adv-x="910" 
d="M60 205v95q103 8 162 70.5t63 169.5l115 -25q-7 -73 -55.5 -135t-109.5 -80h625v-95h-625q61 -18 109.5 -80t55.5 -135l-115 -25q-4 107 -63 169.5t-162 70.5z" />
    <glyph glyph-name="arrowup" unicode="&#x2191;" horiz-adv-x="667" 
d="M357 0v525q-18 -61 -80 -109.5t-135 -55.5l-25 115q107 4 169.5 63t70.5 162h95q8 -103 70.5 -162t169.5 -63l-25 -115q-73 7 -135 55.5t-80 109.5v-525h-95z" />
    <glyph glyph-name="arrowright" unicode="&#x2192;" horiz-adv-x="910" 
d="M635 -35l-115 25q7 73 55.5 135t109.5 80h-625v95h625q-61 18 -109.5 80t-55.5 135l115 25q4 -107 63 -169.5t162 -70.5v-95q-103 -8 -162 -70.5t-63 -169.5z" />
    <glyph glyph-name="arrowdown" unicode="&#x2193;" horiz-adv-x="667" 
d="M48 225l25 115q73 -7 135 -55.5t80 -109.5v525h95v-525q18 61 80 109.5t135 55.5l25 -115q-107 -4 -169.5 -63t-70.5 -162h-95q-8 103 -70.5 162t-169.5 63z" />
    <glyph glyph-name="arrowboth" unicode="&#x2194;" horiz-adv-x="910" 
d="M860 300v-95q-103 -8 -162 -70.5t-63 -169.5l-115 25q7 73 55.5 135t109.5 80h-450q61 -18 109.5 -80t55.5 -135l-115 -25q-4 107 -63 169.5t-162 70.5v95q103 8 162 70.5t63 169.5l115 -25q-7 -73 -55.5 -135t-109.5 -80h450q-61 18 -109.5 80t-55.5 135l115 25
q4 -107 63 -169.5t162 -70.5z" />
    <glyph glyph-name="arrowupdn" unicode="&#x2195;" horiz-adv-x="715" 
d="M627 280l25 -115q-196 -8 -210 -165h-95q-14 157 -210 165l25 115q70 -8 118.5 -40.5t66.5 -84.5v390q-18 -52 -66.5 -84.5t-118.5 -40.5l-25 115q196 8 210 165h95q14 -157 210 -165l-25 -115q-70 8 -118.5 40.5t-66.5 84.5v-390q18 52 66.5 84.5t118.5 40.5z" />
    <glyph glyph-name="uni2196" unicode="&#x2196;" horiz-adv-x="782" 
d="M640 64l-371 371q23 -43 23 -102q0 -93 -58 -167l-99 64q76 82 76 168q0 84 -66 161l68 67q77 -65 155 -65q94 0 173 76l64 -99q-71 -59 -170 -59q-55 0 -99 23l372 -371z" />
    <glyph glyph-name="uni2197" unicode="&#x2197;" horiz-adv-x="650" 
d="M103 64l-68 67l372 371q-44 -23 -99 -23q-99 0 -170 59l64 99q79 -76 173 -76q78 0 155 65l68 -67q-66 -77 -66 -161q0 -86 76 -168l-99 -64q-58 74 -58 167q0 59 23 102z" />
    <glyph glyph-name="uni2198" unicode="&#x2198;" horiz-adv-x="782" 
d="M315 64l-64 99q71 59 170 59q55 0 99 -23l-372 371l68 67l371 -371q-23 43 -23 102q0 93 58 167l99 -64q-76 -82 -76 -168q0 -85 66 -161l-68 -67q-77 65 -155 65q-94 0 -173 -76z" />
    <glyph glyph-name="uni2199" unicode="&#x2199;" horiz-adv-x="650" 
d="M349 140q-78 0 -155 -65l-68 67q66 76 66 161q0 86 -76 168l99 64q58 -74 58 -167q0 -59 -23 -102l371 371l68 -67l-372 -371q44 23 99 23q99 0 170 -59l-64 -99q-79 76 -173 76z" />
    <glyph glyph-name="partialdiff" unicode="&#x2202;" horiz-adv-x="575" 
d="M45 219q-2 104 68 185.5t182 79.5q90 0 135 -61q-26 81 -88 131t-148 68l36 88q140 -31 224.5 -138.5t84.5 -266.5q2 -133 -70.5 -225t-201.5 -90q-98 0 -160 65.5t-62 163.5zM427 254q0 64 -34 99.5t-93 35.5q-65 0 -107.5 -49t-42.5 -120q0 -62 34 -98.5t91 -36.5
q69 0 110.5 46t41.5 123z" />
    <glyph glyph-name="emptyset" unicode="&#x2205;" horiz-adv-x="856" 
d="M847 407q1 -86 -32 -163t-91.5 -133.5t-142 -89t-178.5 -31.5q-105 0 -181 43l-55 -57l-66 63l51 52q-70 82 -70 202q-3 176 126 298t318 119q106 0 182 -43l55 57l65 -63l-50 -52q69 -81 69 -202zM236 179l388 401q-49 25 -114 25q-130 2 -220.5 -86.5t-88.5 -219.5
q0 -67 35 -120zM728 401q0 70 -35 120l-387 -401q49 -25 113 -25q127 -2 219 88t90 218z" />
    <glyph glyph-name="uni2206" unicode="&#x2206;" horiz-adv-x="752" 
d="M603 700l60 -700h-728l516 700h152zM142 100h397l-34 507z" />
    <glyph glyph-name="product" unicode="&#x220f;" horiz-adv-x="645" 
d="M578 600h-276l-259 -798h-112l292 898h500l-292 -898h-112z" />
    <glyph glyph-name="summation" unicode="&#x2211;" horiz-adv-x="666" 
d="M-37 -32l34 105l332 277l-162 245l34 105h565l-34 -105h-421l134 -217l-28 -88l-262 -217h407l-34 -105h-565z" />
    <glyph glyph-name="minus" unicode="&#x2212;" horiz-adv-x="571" 
d="M96 345h450l-30 -90h-450z" />
    <glyph glyph-name="uni2215" unicode="&#x2215;" horiz-adv-x="371" 
d="M342 831l85 -31l-339 -931l-85 31z" />
    <glyph glyph-name="uni2219" unicode="&#x2219;" horiz-adv-x="254" 
d="M100 355h130l-42 -130h-130z" />
    <glyph glyph-name="radical" unicode="&#x221a;" horiz-adv-x="561" 
d="M138 0l7 260h-111l29 90h174l-8 -237l404 625l75 -48l-448 -690h-122z" />
    <glyph glyph-name="infinity" unicode="&#x221e;" horiz-adv-x="727" 
d="M89 350q0 77 49 127t128 50q87 0 134 -71q47 71 134 71q79 0 128 -50t49 -127t-49 -127t-128 -50q-87 0 -134 71q-47 -71 -134 -71q-79 0 -128 50t-49 127zM357 350q0 44 -25 70.5t-66 26.5t-66 -26.5t-25 -70.5t25 -70.5t66 -26.5t66 26.5t25 70.5zM625 350
q0 44 -25 70.5t-66 26.5t-66 -26.5t-25 -70.5t25 -70.5t66 -26.5t66 26.5t25 70.5z" />
    <glyph glyph-name="integral" unicode="&#x222b;" horiz-adv-x="424" 
d="M-18 -102q0 20 5 37h95q-4 -9 -4 -22q0 -31 29 -31q30 0 30 38v630q0 73 46 116.5t129 43.5q81 0 123.5 -41t42.5 -107q0 -16 -1 -23h-100q2 12 2 20q0 27 -17.5 44t-49.5 17q-33 0 -51.5 -20.5t-18.5 -54.5v-630q0 -55 -33.5 -89t-101.5 -34q-59 0 -92 29.5t-33 76.5z
" />
    <glyph glyph-name="approxequal" unicode="&#x2248;" horiz-adv-x="547" 
d="M192 313l-86 13q4 66 42.5 102.5t102.5 36.5q49 0 94 -39q31 -26 52 -26q24 0 39 17.5t15 44.5l88 -12q-1 -61 -43 -100q-40 -39 -106 -39q-48 0 -88 38q-30 27 -53 27t-39.5 -19t-17.5 -44zM137 143l-86 13q4 66 42.5 102.5t102.5 36.5q49 0 94 -39q31 -26 52 -26
q24 0 39 17.5t15 44.5l88 -12q-1 -61 -43 -100q-41 -39 -106 -39q-48 0 -88 38q-30 27 -53 27t-39.5 -19t-17.5 -44z" />
    <glyph glyph-name="notequal" unicode="&#x2260;" horiz-adv-x="571" 
d="M542 335h-146l-67 -70h191l-30 -90h-247l-120 -125l-60 55l67 70h-90l30 90h146l67 70h-191l30 90h247l120 125l60 -55l-67 -70h90z" />
    <glyph glyph-name="lessequal" unicode="&#x2264;" horiz-adv-x="570" 
d="M473 125l-407 130l29 90l492 130l-31 -95l-341 -86l286 -84zM-16 0l29 90h449l-29 -90h-449z" />
    <glyph glyph-name="greaterequal" unicode="&#x2265;" horiz-adv-x="570" 
d="M24 125l31 95l341 86l-286 84l28 85l407 -130l-29 -90zM-16 0l29 90h449l-29 -90h-449z" />
    <glyph glyph-name="uni2318" unicode="&#x2318;" horiz-adv-x="972" 
d="M153 140q0 63 46 106.5t109 43.5h60v120h-60q-63 0 -109 43.5t-46 106.5t46 106.5t109 43.5t109 -43.5t46 -106.5v-60h120v60q0 63 46 106.5t109 43.5t109 -43.5t46 -106.5t-46 -106.5t-109 -43.5h-60v-120h60q63 0 109 -43.5t46 -106.5t-46 -106.5t-109 -43.5t-109 43.5
t-46 106.5v60h-120v-60q0 -63 -46 -106.5t-109 -43.5t-109 43.5t-46 106.5zM308 500h60v60q0 26 -17 43t-43 17t-43 -17t-17 -43t17 -43t43 -17zM678 500h60q26 0 43 17t17 43t-17 43t-43 17t-43 -17t-17 -43v-60zM463 290h120v120h-120v-120zM368 140v60h-60q-26 0 -43 -17
t-17 -43t17 -43t43 -17t43 17t17 43zM798 140q0 26 -17 43t-43 17h-60v-60q0 -26 17 -43t43 -17t43 17t17 43z" />
    <glyph glyph-name="filledbox" unicode="&#x25a0;" horiz-adv-x="1007" 
d="M190 0v700h700v-700h-700z" />
    <glyph glyph-name="uni25A1" unicode="&#x25a1;" horiz-adv-x="1007" 
d="M190 0v700h700v-700h-700zM290 100h500v500h-500v-500z" />
    <glyph glyph-name="uni25B0" unicode="&#x25b0;" horiz-adv-x="781" 
d="M-37 0l228 700h700l-228 -700h-700z" />
    <glyph glyph-name="uni25B1" unicode="&#x25b1;" horiz-adv-x="781" 
d="M-37 0l228 700h700l-228 -700h-700zM98 100h496l162 500h-496z" />
    <glyph glyph-name="triagup" unicode="&#x25b2;" horiz-adv-x="780" 
d="M-37 0l350 700l350 -700h-700z" />
    <glyph glyph-name="uni25B3" unicode="&#x25b3;" horiz-adv-x="780" 
d="M-37 0l350 700l350 -700h-700zM313 480l-190 -380h380z" />
    <glyph glyph-name="lozenge" unicode="&#x25ca;" horiz-adv-x="658" 
d="M160 0l-113 342l6 16l335 342h110l113 -342l-6 -16l-335 -342h-110zM233 90l272 278l-83 244l-267 -276z" />
    <glyph glyph-name="circle" unicode="&#x25cb;" horiz-adv-x="816" 
d="M95 350q-3 142 102.5 247.5t247.5 102.5q142 3 247.5 -102.5t102.5 -247.5q3 -142 -102.5 -247.5t-247.5 -102.5q-142 -3 -247.5 102.5t-102.5 247.5zM695 350q0 103 -73.5 176.5t-176.5 73.5t-176.5 -73.5t-73.5 -176.5t73.5 -176.5t176.5 -73.5t176.5 73.5t73.5 176.5z
" />
    <glyph glyph-name="uni25CF" unicode="&#x25cf;" horiz-adv-x="816" 
d="M95 350q-3 142 102.5 247.5t247.5 102.5q142 3 247.5 -102.5t102.5 -247.5q3 -142 -102.5 -247.5t-247.5 -102.5q-142 -3 -247.5 102.5t-102.5 247.5z" />
    <glyph glyph-name="uni2600" unicode="&#x2600;" horiz-adv-x="838" 
d="M392 -8l-95 31l52 158q-24 16 -43 37l-149 -76l-45 88l149 76q-5 25 -5 44v12l-158 52l31 95l158 -52q16 24 37 43l-76 149l88 45l76 -149q25 5 44 5h12l52 158l95 -31l-52 -158q24 -16 43 -37l149 76l45 -88l-149 -76q5 -25 5 -44v-12l158 -52l-31 -95l-158 52
q-16 -24 -37 -43l76 -149l-88 -45l-76 149q-25 -5 -44 -5h-12z" />
    <glyph glyph-name="uni2610" unicode="&#x2610;" horiz-adv-x="1007" 
d="M190 0v700h700v-700h-700zM290 100h500v500h-500v-500z" />
    <glyph glyph-name="uni2611" unicode="&#x2611;" horiz-adv-x="1007" 
d="M190 0v700h700v-700h-700zM290 100h500v500h-500v-500zM676 532l48 -80q-84 -40 -124.5 -107.5t-45.5 -176.5h-88q-12 99 -110 120l32 84q39 -12 69.5 -41.5t42.5 -66.5q24 176 176 268z" />
    </font>
</defs>
</svg>
