<?xml version="1.0" standalone="no"?>
<!DOCTYPE svg PUBLIC "-//W3C//DTD SVG 1.1//EN" "http://www.w3.org/Graphics/SVG/1.1/DTD/svg11.dtd" >
<svg xmlns="http://www.w3.org/2000/svg" xmlns:xlink="http://www.w3.org/1999/xlink" version="1.1">
<metadata>
Created by FontForge 20170731 at Tue Apr 17 04:24:30 2018
 By Aleksey,,,
Copyright (c) 2018 by Benjamin Critton &#38; Colophon Foundry. All rights reserved.
</metadata>
<defs>
<font id="MabryPro-LightItalic" horiz-adv-x="0" >
  <font-face 
    font-family="Mabry Pro"
    font-weight="300"
    font-style="italic"
    font-stretch="normal"
    units-per-em="1000"
    panose-1="2 13 3 3 4 0 2 11 3 3"
    ascent="792"
    descent="-208"
    x-height="474"
    cap-height="700"
    bbox="-757 -240 1800 1050"
    underline-thickness="62"
    underline-position="-346"
    slope="-18"
    unicode-range="U+000D-1F610"
  />
<missing-glyph horiz-adv-x="817" 
d="M195 0v700h500v-700h-500zM445 416l135 219h-270zM260 585v-470l144 235zM630 115v470l-145 -235zM310 65h270l-135 219z" />
    <glyph glyph-name="f_f" unicode="ff" horiz-adv-x="624" 
d="M42 0l137 422h-106l17 52h106l25 77q27 82 72 120.5t123 38.5q77 0 104 -53q50 53 138 53q54 0 87 -25t33 -69q0 -29 -16 -57h-58q12 25 12 44q0 25 -18.5 40t-51.5 15q-44 0 -72 -28.5t-47 -89.5l-21 -66h136l-17 -52h-136l-137 -422h-68l137 422h-174l-137 -422h-68z
M264 474h174l25 77q11 36 11 52q0 25 -18.5 40t-51.5 15q-44 0 -72 -28.5t-47 -89.5z" />
    <glyph glyph-name="fi" unicode="fi" horiz-adv-x="492" 
d="M520 559h-58q12 25 12 44q0 25 -18.5 40t-51.5 15q-44 0 -72 -28.5t-47 -89.5l-21 -66h240l-154 -474h-68l137 422h-172l-137 -422h-68l137 422h-106l17 52h106l25 77q27 82 72 120.5t123 38.5q54 0 87 -25t33 -69q0 -29 -16 -57z" />
    <glyph glyph-name="fl" unicode="fl" horiz-adv-x="497" 
d="M42 0l137 422h-106l17 52h106l26 82q49 154 183 154q64 0 96.5 -30.5t32.5 -85.5q0 -25 -7 -47l-177 -547h-68l180 556q6 20 6 35q0 31 -17 49t-49 18q-42 0 -68.5 -24t-43.5 -78l-26 -82h114l-17 -52h-114l-137 -422h-68z" />
    <glyph glyph-name="f_f_i" unicode="ffi" horiz-adv-x="729" 
d="M42 0l137 422h-106l17 52h106l25 77q27 82 72 120.5t123 38.5q77 0 104 -53q50 53 138 53q54 0 87 -25t33 -69q0 -29 -16 -57h-58q12 25 12 44q0 25 -18.5 40t-51.5 15q-44 0 -72 -28.5t-47 -89.5l-21 -66h235l-154 -474h-68l137 422h-167l-137 -422h-68l137 422h-174
l-137 -422h-68zM264 474h174l25 77q11 36 11 52q0 25 -18.5 40t-51.5 15q-44 0 -72 -28.5t-47 -89.5z" />
    <glyph glyph-name="f_f_l" unicode="ffl" horiz-adv-x="739" 
d="M42 0l137 422h-106l17 52h106l25 77q27 82 72 120.5t123 38.5q77 0 104 -53q50 53 127 53q64 0 96.5 -30.5t32.5 -85.5q0 -25 -7 -47l-177 -547h-68l180 556q6 20 6 35q0 31 -17 49t-49 18q-41 0 -68 -24.5t-44 -77.5l-26 -82h114l-17 -52h-114l-137 -422h-68l137 422
h-174l-137 -422h-68zM264 474h174l25 77q11 36 11 52q0 25 -18.5 40t-51.5 15q-44 0 -72 -28.5t-47 -89.5z" />
    <glyph glyph-name=".notdef" horiz-adv-x="817" 
d="M195 0v700h500v-700h-500zM445 416l135 219h-270zM260 585v-470l144 235zM630 115v470l-145 -235zM310 65h270l-135 219z" />
    <glyph glyph-name=".null" 
 />
    <glyph glyph-name="nonmarkingreturn" horiz-adv-x="333" 
 />
    <glyph glyph-name="CR" unicode="&#xd;" horiz-adv-x="250" 
 />
    <glyph glyph-name="space" unicode=" " horiz-adv-x="250" 
 />
    <glyph glyph-name="exclam" unicode="!" horiz-adv-x="226" 
d="M55 168l173 532h72l-173 -532h-72zM-7 0l28 86h86l-28 -86h-86z" />
    <glyph glyph-name="quotedbl" unicode="&#x22;" horiz-adv-x="317" 
d="M207 700h72l-38 -116l-52 -112h-40l20 112zM339 700h72l-38 -116l-52 -112h-40l20 112z" />
    <glyph glyph-name="numbersign" unicode="#" horiz-adv-x="778" 
d="M225 218h-137v58h156l47 147h-165v58h184l71 219h64l-71 -219h168l71 219h64l-71 -219h156v-58h-175l-47 -147h184v-58h-203l-70 -218h-64l70 218h-168l-70 -218h-64zM308 276h168l47 147h-168z" />
    <glyph glyph-name="dollar" unicode="$" horiz-adv-x="643" 
d="M506 631l-80 -245q81 -24 119 -65.5t38 -113.5q0 -96 -78.5 -156t-207.5 -61l-29 -88h-74l30 93q-89 17 -138.5 79.5t-51.5 157.5l71 16q0 -80 36.5 -128t103.5 -61l93 285q-81 23 -121 62t-40 107q0 86 71.5 141.5t185.5 55.5q18 0 23 -1l29 89h74l-33 -101
q118 -37 129 -167l-71 -12q-6 85 -79 113zM358 406l78 239q-4 1 -19 1q-69 0 -118.5 -36t-49.5 -93q0 -43 26 -68t83 -43zM405 323l-87 -268q84 4 137 44q54 41 54 101q0 47 -23.5 74.5t-80.5 48.5z" />
    <glyph glyph-name="percent" unicode="%" horiz-adv-x="902" 
d="M137 501q0 90 64.5 149.5t158.5 59.5q68 0 108 -42q41 -41 41 -103q0 -88 -66 -148.5t-157 -60.5q-67 0 -108 41q-41 43 -41 104zM445 562q0 41 -25 66.5t-66 25.5q-69 0 -111 -41.5t-42 -108.5q0 -41 25 -66.5t66 -25.5q69 0 111 41.5t42 108.5zM169 88l-33 46l660 474
l33 -46zM467 135q0 90 64.5 149.5t158.5 59.5q68 0 108 -42q41 -41 41 -103q0 -90 -64.5 -149.5t-158.5 -59.5q-67 0 -108 41q-41 43 -41 104zM775 196q0 41 -25 66.5t-66 25.5q-69 0 -111 -41.5t-42 -108.5q0 -41 25 -66.5t66 -25.5q69 0 111 41.5t42 108.5z" />
    <glyph glyph-name="ampersand" unicode="&#x26;" horiz-adv-x="775" 
d="M643 99l42 -45q-24 -35 -52.5 -49.5t-70.5 -14.5q-65 0 -103 62q-98 -62 -208 -62q-99 0 -157.5 54t-58.5 135q0 89 58.5 146t177.5 90q-16 45 -16 85q0 93 57 151.5t155 58.5q66 0 104 -36t38 -95q0 -76 -65 -126t-178 -73l-8 -2l122 -233q98 91 165 264l60 -25
q-76 -193 -196 -295q24 -35 63 -35q43 0 71 45zM321 503q0 -40 12 -73q112 22 159.5 55t47.5 90q0 37 -21 57t-61 20q-61 0 -99 -42t-38 -107zM262 54q89 0 167 51l-134 258q-99 -27 -143.5 -68.5t-44.5 -111.5q0 -61 40.5 -95t114.5 -34z" />
    <glyph glyph-name="quotesingle" unicode="'" horiz-adv-x="185" 
d="M207 700h72l-38 -116l-52 -112h-40l20 112z" />
    <glyph glyph-name="parenleft" unicode="(" horiz-adv-x="446" 
d="M85 256q-2 215 132 370.5t352 187.5l9 -62q-197 -33 -312 -167.5t-115 -327.5q0 -177 158 -331l-44 -50q-180 161 -180 380z" />
    <glyph glyph-name="parenright" unicode=")" horiz-adv-x="446" 
d="M434 444q2 -216 -132 -371t-352 -187l-9 62q197 33 312 167.5t115 327.5q0 177 -158 331l44 50q180 -161 180 -380z" />
    <glyph glyph-name="asterisk" unicode="*" horiz-adv-x="463" 
d="M352 723l68 -22l-22 -69l-58 -82l100 30h71v-72h-71l-97 32l57 -83l22 -67l-68 -22l-24 68v102l-62 -81l-58 -42l-43 58l58 41l95 33l-97 32l-58 42l42 57l58 -41l64 -83v100z" />
    <glyph glyph-name="plus" unicode="+" horiz-adv-x="567" 
d="M98 329h184l61 186h62l-61 -186h184l-18 -58h-184l-61 -186h-62l61 186h-184z" />
    <glyph glyph-name="comma" unicode="," horiz-adv-x="226" 
d="M-66 -92l16 31q14 -8 33 -8q22 0 35 11t13 30q0 28 -32 28h-6l28 86h86l-38 -115q-12 -39 -33 -56t-57 -17q-26 0 -45 10z" />
    <glyph glyph-name="hyphen" unicode="-" horiz-adv-x="355" 
d="M47 224l18 58h254l-18 -58h-254z" />
    <glyph glyph-name="period" unicode="." horiz-adv-x="226" 
d="M21 86h86l-28 -86h-86z" />
    <glyph glyph-name="slash" unicode="/" horiz-adv-x="357" 
d="M349 826l58 -21l-339 -931l-58 21z" />
    <glyph glyph-name="zero" unicode="0" horiz-adv-x="672" 
d="M71 228q-1 123 49 235t141 181t198 66q100 0 157.5 -66.5t57.5 -171.5q1 -123 -49 -235t-141 -181t-198 -66q-92 0 -153.5 68.5t-61.5 169.5zM606 466q0 82 -44.5 134t-111.5 52q-86 2 -159.5 -59t-113 -158t-38.5 -201q0 -82 44.5 -134t111.5 -52q86 -2 159.5 59
t113 158t38.5 201z" />
    <glyph glyph-name="one" unicode="1" horiz-adv-x="348" 
d="M122 0l190 584q-71 -101 -202 -105l12 59q67 1 127.5 44t107.5 118h61l-228 -700h-68z" />
    <glyph glyph-name="two" unicode="2" horiz-adv-x="595" 
d="M297 292q95 30 146 55q54 27 81 65.5t27 96.5q0 67 -48 104q-46 39 -115 39q-87 0 -137.5 -49.5t-50.5 -135.5q0 -45 26 -88l-56 -31q-38 55 -38 121q0 113 72 177q73 64 194 64q97 0 159 -55.5t62 -141.5q-3 -107 -65.5 -164.5t-215.5 -106.5q-100 -32 -154.5 -75
t-77.5 -109h370l-18 -58h-445q22 69 42.5 111.5t53.5 77t76 57.5t112 46z" />
    <glyph glyph-name="three" unicode="3" horiz-adv-x="560" 
d="M10 193l63 20q11 -165 164 -165q91 0 144.5 54.5t53.5 150.5q0 67 -38 105t-105 38q-55 0 -99 -35l-23 52l311 229h-320l18 58h434l-14 -43l-295 -212q16 3 35 3q69 0 117 -54t48 -138q0 -118 -77 -192t-203 -74q-95 0 -152 57.5t-62 145.5z" />
    <glyph glyph-name="four" unicode="4" horiz-adv-x="563" 
d="M275 0l62 190h-314l22 68q81 55 128 110q52 60 84 125q35 67 66 162l15 45h68l-21 -63q-46 -138 -109 -231.5t-161 -157.5h241l77 236h68l-77 -236h123l-19 -58h-123l-62 -190h-68z" />
    <glyph glyph-name="five" unicode="5" horiz-adv-x="606" 
d="M33 191l63 16q2 -74 44 -116.5t121 -42.5q100 0 165 62.5t65 158.5q0 65 -39 106t-107 41q-119 0 -195 -105l-65 23l145 366h436l-18 -58h-374l-111 -256q85 88 206 88q83 0 136.5 -55.5t53.5 -138.5q0 -128 -83.5 -209t-223.5 -81q-101 0 -157.5 56.5t-61.5 144.5z" />
    <glyph glyph-name="six" unicode="6" horiz-adv-x="624" 
d="M74 224q-1 134 47 246t136.5 177t196.5 63q87 0 136 -49.5t55 -135.5l-60 -17q-6 144 -141 144q-105 0 -189 -84t-107 -234q34 55 94.5 85.5t140.5 30.5q83 0 137 -51t54 -131q0 -120 -82 -199t-213 -79q-93 0 -149 64t-56 170zM504 259q0 63 -38 98t-109 35
q-86 0 -150.5 -54.5t-64.5 -141.5q0 -69 40.5 -108.5t109.5 -39.5q98 0 155 58.5t57 152.5z" />
    <glyph glyph-name="seven" unicode="7" horiz-adv-x="518" 
d="M514 642h-346l19 58h445l-16 -48q-135 -80 -214 -164q-82 -86 -125 -203.5t-52 -284.5h-71q13 242 106 394q92 149 254 248z" />
    <glyph glyph-name="eight" unicode="8" horiz-adv-x="600" 
d="M38 187q0 82 60.5 141t160.5 71q-30 13 -52.5 47t-22.5 72q0 88 68 140t175 52q82 0 132 -45t50 -110q0 -67 -43.5 -113.5t-118.5 -62.5q43 -20 68 -60t25 -90q0 -109 -75 -174t-205 -65q-95 0 -158.5 57.5t-63.5 139.5zM543 549q0 46 -35.5 74.5t-89.5 28.5
q-75 0 -121.5 -34.5t-46.5 -100.5q0 -45 33.5 -76t84.5 -31q78 0 126.5 36.5t48.5 102.5zM476 223q0 61 -39 98t-107 37q-102 0 -163 -46t-61 -126q0 -63 45.5 -100.5t120.5 -37.5q93 0 148.5 47.5t55.5 127.5z" />
    <glyph glyph-name="nine" unicode="9" horiz-adv-x="628" 
d="M40 194l63 17q9 -82 48.5 -122.5t125.5 -40.5q112 0 185 87q74 89 96 239q-34 -58 -94.5 -91t-138.5 -33q-88 0 -143 57.5t-55 138.5q0 119 80.5 191.5t195.5 72.5q95 0 156 -63t61 -179q1 -133 -38.5 -240.5t-121 -173t-194.5 -64.5q-101 0 -160.5 58.5t-65.5 145.5z
M549 500q0 69 -42.5 110.5t-113.5 41.5q-84 0 -141 -53.5t-57 -145.5q0 -66 39.5 -105.5t103.5 -39.5q91 0 151 54.5t60 137.5z" />
    <glyph glyph-name="colon" unicode=":" horiz-adv-x="227" 
d="M109 354l27 86h86l-27 -86h-86zM-6 0l27 86h86l-27 -86h-86z" />
    <glyph glyph-name="semicolon" unicode=";" horiz-adv-x="226" 
d="M108 354l27 86h86l-27 -86h-86zM-66 -92l16 31q14 -8 33 -8q22 0 35 11t13 30q0 28 -32 28h-6l28 86h86l-38 -115q-12 -39 -33 -56t-57 -17q-26 0 -45 10z" />
    <glyph glyph-name="less" unicode="&#x3c;" horiz-adv-x="548" 
d="M430 90l-349 179l20 62l465 179l-22 -70l-387 -148l293 -141z" />
    <glyph glyph-name="equal" unicode="=" horiz-adv-x="569" 
d="M124 409h432l-18 -58h-432zM72 249h432l-18 -58h-432z" />
    <glyph glyph-name="greater" unicode="&#x3e;" horiz-adv-x="548" 
d="M23 90l22 70l387 148l-293 141l20 61l349 -179l-20 -62z" />
    <glyph glyph-name="question" unicode="?" horiz-adv-x="471" 
d="M95 299q0 74 53 112.5t166 58.5q85 15 118.5 38t33.5 66q0 36 -31 57t-82 21q-121 0 -159 -114l-55 21q21 72 80 111.5t143 39.5q74 0 123 -38t49 -92q-2 -74 -50 -107.5t-167 -56.5q-79 -15 -117.5 -40.5t-38.5 -71.5q0 -32 22.5 -52.5t60.5 -20.5q85 0 128 93l48 -25
q-30 -67 -73.5 -96.5t-113.5 -29.5q-61 0 -99.5 36t-38.5 90zM117 0l28 86h86l-28 -86h-86z" />
    <glyph glyph-name="at" unicode="@" horiz-adv-x="896" 
d="M593 124q0 -21 14 -34t36 -13q69 0 108 62q40 62 40 158q0 116 -81.5 189.5t-214.5 73.5q-103 1 -188.5 -41t-137.5 -126.5t-51 -197.5q0 -121 76 -201t188 -80q99 0 182 55l28 -46q-82 -61 -221 -61q-127 -2 -221.5 95t-91.5 234q-2 195 126 309t326 112
q145 2 244 -88.5t97 -219.5q0 -120 -61.5 -199.5t-153.5 -79.5q-37 0 -60.5 23.5t-23.5 61.5q-26 -39 -71.5 -62t-98.5 -23q-66 0 -111.5 49t-45.5 123q0 108 69.5 180t176.5 72q55 0 92.5 -25.5t49.5 -66.5l26 80h52l-94 -289q-4 -11 -4 -24zM472 397q-87 0 -138 -55
t-51 -141q0 -57 29.5 -90.5t77.5 -33.5q82 0 136 60t54 144q0 52 -29 84t-79 32z" />
    <glyph glyph-name="A" unicode="A" horiz-adv-x="724" 
d="M563 0l-18 188h-384l-140 -188h-84l527 700h98l71 -700h-70zM208 252h331l-38 394z" />
    <glyph glyph-name="B" unicode="B" horiz-adv-x="682" 
d="M3 0l228 700h293q81 0 129.5 -43.5t48.5 -115.5q0 -67 -44 -114.5t-116 -69.5q78 -33 78 -128q0 -100 -81 -164.5t-209 -64.5h-327zM204 390h242q81 0 131 40q52 40 52 109q0 45 -31.5 71t-88.5 26h-225zM98 64h249q85 0 141.5 43.5t56.5 117.5q0 49 -29.5 77t-85.5 28
h-245z" />
    <glyph glyph-name="C" unicode="C" horiz-adv-x="794" 
d="M88 292q-3 174 119.5 297.5t315.5 120.5q119 0 191 -64.5t80 -166.5l-64 -18q-11 90 -65.5 137.5t-148.5 47.5q-156 2 -256 -100t-98 -248q0 -109 64.5 -176.5t163.5 -67.5q122 0 199 57t116 174l63 -24q-43 -131 -141 -201t-246 -70q-126 0 -209.5 84t-83.5 218z" />
    <glyph glyph-name="D" unicode="D" horiz-adv-x="740" 
d="M3 0l228 700h230q121 0 195 -78t74 -198q2 -179 -124 -302.5t-339 -121.5h-264zM98 64h181q177 -2 278 100t99 250q0 108 -56.5 165t-161.5 57h-154z" />
    <glyph glyph-name="E" unicode="E" horiz-adv-x="622" 
d="M231 700h472l-21 -64h-398l-79 -242h368l-20 -64h-368l-87 -266h408l-21 -64h-482z" />
    <glyph glyph-name="F" unicode="F" horiz-adv-x="606" 
d="M231 700h471l-21 -64h-397l-86 -264h367l-21 -64h-367l-100 -308h-74z" />
    <glyph glyph-name="G" unicode="G" horiz-adv-x="808" 
d="M358 -10q-115 0 -193.5 82.5t-78.5 212.5q-3 182 125 305t315 120q127 0 202 -64t88 -172l-69 -21q-14 99 -71.5 146t-162.5 47q-147 2 -251 -100t-102 -256q0 -110 59 -173t157 -63q112 0 191 67q80 68 113 168h-333l21 64h418l-115 -353h-61l52 158q-95 -168 -304 -168
z" />
    <glyph glyph-name="H" unicode="H" horiz-adv-x="728" 
d="M598 313h-419l-102 -313h-74l228 700h74l-105 -323h419l105 323h74l-228 -700h-74z" />
    <glyph glyph-name="I" unicode="I" horiz-adv-x="235" 
d="M3 0l228 700h74l-228 -700h-74z" />
    <glyph glyph-name="J" unicode="J" horiz-adv-x="600" 
d="M37 168q0 94 69 163l50 -38q-46 -57 -46 -123q0 -50 36 -83t97 -33q81 0 132.5 48t85.5 153l144 445h70l-153 -475q-39 -120 -107.5 -177.5t-180.5 -57.5q-89 0 -143 51.5t-54 126.5z" />
    <glyph glyph-name="K" unicode="K" horiz-adv-x="651" 
d="M420 427l128 -427h-75l-114 377l-219 -172l-67 -205h-70l228 700h70l-127 -392l489 392h102z" />
    <glyph glyph-name="L" unicode="L" horiz-adv-x="630" 
d="M231 700h74l-207 -636h434l-21 -64h-508z" />
    <glyph glyph-name="M" unicode="M" horiz-adv-x="940" 
d="M782 0h-70l217 666l-485 -666h-103l-51 666l-217 -666h-70l228 700h126l47 -651l469 651h137z" />
    <glyph glyph-name="N" unicode="N" horiz-adv-x="759" 
d="M290 655l-213 -655h-74l228 700h113l198 -655l213 655h74l-228 -700h-113z" />
    <glyph glyph-name="O" unicode="O" horiz-adv-x="850" 
d="M86 291q-1 82 32.5 158.5t92.5 134.5t146 92.5t185 33.5q135 0 215.5 -82.5t80.5 -216.5q1 -82 -32.5 -159t-92.5 -135.5t-146 -93t-185 -33.5q-132 0 -214 83.5t-82 217.5zM764 407q0 113 -63.5 176t-175.5 63q-153 3 -260.5 -104.5t-104.5 -246.5q0 -113 64.5 -177
t174.5 -64q100 -2 186 48.5t133.5 132.5t45.5 172z" />
    <glyph glyph-name="P" unicode="P" horiz-adv-x="667" 
d="M3 0l228 700h278q81 0 133.5 -49t52.5 -124q0 -105 -76.5 -167t-218.5 -62h-226l-97 -298h-74zM195 362h220q94 0 149 40.5t55 116.5q0 55 -33.5 86t-91.5 31h-210z" />
    <glyph glyph-name="Q" unicode="Q" horiz-adv-x="850" 
d="M537 13q6 -63 76 -63q46 0 84 28l20 -60q-50 -28 -116 -28q-54 0 -90.5 29.5t-40.5 77.5q-36 -7 -88 -7q-132 0 -214 83.5t-82 217.5q-1 82 32.5 158.5t92.5 134.5t146 92.5t185 33.5q135 0 215.5 -82.5t80.5 -216.5q2 -133 -81.5 -245.5t-219.5 -152.5zM764 407
q0 113 -63.5 176t-175.5 63q-153 3 -260.5 -104.5t-104.5 -246.5q0 -130 82 -192q-10 21 -10 49q0 76 49 120t134 44q69 0 110.5 -38.5t41.5 -103.5q0 -44 -16 -89q97 43 155 131t58 191zM484 84q17 45 17 85q0 43 -25.5 66t-72.5 23t-78 -30t-31 -76q0 -44 28 -71t78 -27
q37 0 77 8q7 20 7 22z" />
    <glyph glyph-name="R" unicode="R" horiz-adv-x="663" 
d="M3 0l228 700h267q86 0 138.5 -47.5t52.5 -122.5q0 -82 -51 -135t-137 -68q64 -23 64 -93q0 -28 -14 -75q-22 -73 -22 -102q0 -22 14 -45l-4 -12h-72q-10 26 -10 50q0 40 18 93q16 47 16 75q0 45 -28 65.5t-87 20.5h-200l-99 -304h-74zM197 368h222q90 0 141 42t51 115
q0 52 -33.5 81.5t-93.5 29.5h-200z" />
    <glyph glyph-name="S" unicode="S" horiz-adv-x="643" 
d="M417 646q-69 0 -118.5 -36t-49.5 -93q0 -52 35 -76.5t121 -48.5q92 -24 135 -66t43 -119q0 -99 -81 -158t-215 -59q-118 0 -184 65t-69 177l71 16q0 -93 50 -143.5t141 -50.5q93 0 153 40.5t60 105.5q0 59 -35.5 87.5t-132.5 55.5q-82 23 -123 62t-41 108
q0 86 71.5 141.5t185.5 55.5q98 0 156.5 -47t65.5 -133l-71 -12q-4 64 -48 96t-120 32z" />
    <glyph glyph-name="T" unicode="T" horiz-adv-x="667" 
d="M783 700l-21 -64h-262l-207 -636h-74l207 636h-262l21 64h598z" />
    <glyph glyph-name="U" unicode="U" horiz-adv-x="718" 
d="M78 193q0 60 19 116l127 391h74l-132 -408q-16 -48 -16 -100q0 -64 44.5 -101t122.5 -37q93 0 163.5 60.5t104.5 167.5l135 418h74l-138 -427q-46 -142 -136 -212.5t-215 -70.5q-104 0 -165.5 55t-61.5 148z" />
    <glyph glyph-name="V" unicode="V" horiz-adv-x="704" 
d="M288 61l470 639h84l-519 -700h-98l-63 700h72z" />
    <glyph glyph-name="W" unicode="W" horiz-adv-x="968" 
d="M110 0l54 700h75l-57 -658l388 658h122l-40 -658l375 658h77l-402 -700h-121l40 655l-388 -655h-123z" />
    <glyph glyph-name="X" unicode="X" horiz-adv-x="652" 
d="M-57 0l390 394l-122 306h75l103 -264l269 264h91l-334 -327l140 -373h-75l-121 327l-322 -327h-94z" />
    <glyph glyph-name="Y" unicode="Y" horiz-adv-x="646" 
d="M208 0l96 296l-138 404h72l116 -343l333 343h93l-403 -408l-95 -292h-74z" />
    <glyph glyph-name="Z" unicode="Z" horiz-adv-x="695" 
d="M-1 64l668 572h-477l21 64h575l-21 -64l-668 -572h487l-21 -64h-585z" />
    <glyph glyph-name="bracketleft" unicode="[" horiz-adv-x="300" 
d="M266 810h174l-17 -53h-112l-276 -850h112l-17 -53h-174z" />
    <glyph glyph-name="backslash" unicode="\" horiz-adv-x="743" 
d="M607 -105l-58 -21l-339 931l58 21z" />
    <glyph glyph-name="bracketright" unicode="]" horiz-adv-x="300" 
d="M-78 -146l17 53h112l276 850h-112l17 53h174l-310 -956h-174z" />
    <glyph glyph-name="asciicircum" unicode="^" horiz-adv-x="543" 
d="M449 710l120 -214l-4 -12h-68l-81 166h-12l-177 -166h-89l4 12l255 214h52z" />
    <glyph glyph-name="underscore" unicode="_" horiz-adv-x="573" 
d="M-41 -25h484l-18 -58h-484z" />
    <glyph glyph-name="grave" unicode="`" horiz-adv-x="304" 
d="M285 555l-78 121l4 12h91l41 -133h-58z" />
    <glyph glyph-name="a" unicode="a" horiz-adv-x="582" 
d="M40 183q-2 128 86 215.5t207 85.5q59 0 102 -31t53 -78l33 99h68l-154 -474h-63l28 84q-60 -94 -186 -94q-73 0 -123.5 53.5t-50.5 139.5zM460 301q0 55 -37.5 90t-97.5 35q-90 0 -152.5 -67.5t-62.5 -170.5q0 -69 33.5 -104.5t89.5 -35.5q83 -2 156.5 78t70.5 175z" />
    <glyph glyph-name="b" unicode="b" horiz-adv-x="581" 
d="M220 700h68l-95 -298q29 37 76 59.5t103 22.5q75 0 124.5 -49.5t49.5 -129.5q2 -126 -88.5 -222t-219.5 -93q-56 0 -97.5 32t-52.5 81l-33 -103h-62zM248 48q95 -2 163 76.5t66 174.5q0 57 -34 92t-93 35q-93 2 -160.5 -75t-65.5 -170q0 -62 33.5 -97.5t90.5 -35.5z" />
    <glyph glyph-name="c" unicode="c" horiz-adv-x="573" 
d="M45 203q0 123 82.5 202t217.5 79q81 0 132 -48t56 -119l-59 -18q-6 59 -44 93t-96 34q-96 0 -157.5 -61t-61.5 -160q0 -72 40.5 -114.5t106.5 -42.5q70 0 120 37t72 105l61 -21q-30 -85 -99 -132t-165 -47q-88 0 -147 58t-59 155z" />
    <glyph glyph-name="d" unicode="d" horiz-adv-x="581" 
d="M39 178q-2 131 85.5 219.5t207.5 86.5q59 0 102 -31t53 -78l106 325h68l-227 -700h-62l30 92q-60 -102 -193 -102q-69 0 -119.5 53.5t-50.5 134.5zM459 301q0 55 -37.5 90t-97.5 35q-90 0 -152.5 -68.5t-62.5 -175.5q0 -65 33.5 -99.5t89.5 -34.5q83 -2 156.5 78
t70.5 175z" />
    <glyph glyph-name="e" unicode="e" horiz-adv-x="546" 
d="M517 331q0 -37 -15 -89l-4 -14h-383q-2 -26 -2 -30q0 -70 39 -110t100 -40q120 0 170 114l59 -24q-69 -148 -242 -148q-82 0 -139 56.5t-57 150.5q0 119 82.5 203t215.5 84q81 0 128.5 -42t47.5 -111zM449 324q0 49 -32 75.5t-87 26.5q-71 0 -125 -40t-78 -106h317
q5 22 5 44z" />
    <glyph glyph-name="f" unicode="f" horiz-adv-x="382" 
d="M42 0l137 422h-106l17 52h106l25 77q27 82 72 120.5t123 38.5q54 0 87 -25t33 -69q0 -29 -16 -57h-58q12 25 12 44q0 25 -18.5 40t-51.5 15q-44 0 -72 -28.5t-47 -89.5l-21 -66h136l-17 -52h-136l-137 -422h-68z" />
    <glyph glyph-name="g" unicode="g" horiz-adv-x="586" 
d="M-20 -53l66 15q1 -52 35.5 -82t92.5 -30q144 0 207 183l17 48q-66 -81 -180 -81q-72 0 -124.5 51t-52.5 134q-2 128 83 214.5t212 84.5q64 0 107 -30.5t53 -68.5l29 89h68l-149 -457q-74 -225 -284 -225q-78 0 -126.5 41.5t-53.5 113.5zM466 299q0 53 -37.5 90t-99.5 37
q-93 0 -156 -63t-63 -166q0 -65 34.5 -102t92.5 -37q91 -2 160.5 71t68.5 170z" />
    <glyph glyph-name="h" unicode="h" horiz-adv-x="546" 
d="M-7 0l228 700h68l-102 -315q65 99 181 99q61 0 98 -37.5t37 -92.5q0 -34 -12 -72l-92 -282h-68l96 294q8 26 8 50q-1 37 -25.5 59.5t-66.5 22.5q-62 0 -120.5 -54.5t-84.5 -134.5l-77 -237h-68z" />
    <glyph glyph-name="i" unicode="i" horiz-adv-x="208" 
d="M147 474h68l-154 -474h-68zM174 571l26 83h78l-26 -83h-78z" />
    <glyph glyph-name="j" unicode="j" horiz-adv-x="208" 
d="M-71 -198l218 672h68l-218 -672h-68zM174 571l26 83h78l-26 -83h-78z" />
    <glyph glyph-name="k" unicode="k" horiz-adv-x="494" 
d="M523 474l-237 -190l105 -284h-73l-88 238l-124 -99l-45 -139h-68l228 700h68l-149 -457l287 231h96z" />
    <glyph glyph-name="l" unicode="l" horiz-adv-x="209" 
d="M-7 0l228 700h68l-228 -700h-68z" />
    <glyph glyph-name="m" unicode="m" horiz-adv-x="742" 
d="M-7 0l154 474h68l-20 -63q58 73 139 73q44 0 71.5 -23t30.5 -60q63 83 160 83q53 0 83.5 -29.5t30.5 -79.5q0 -22 -10 -52l-105 -323h-68l106 324q7 20 7 40q0 27 -19 44.5t-50 17.5q-47 0 -86.5 -33.5t-61.5 -99.5l-96 -293h-68l104 320q6 20 6 36q0 33 -17.5 51.5
t-49.5 18.5q-45 0 -84 -33.5t-61 -99.5l-96 -293h-68z" />
    <glyph glyph-name="n" unicode="n" horiz-adv-x="540" 
d="M-7 0l154 474h68l-28 -87q70 97 179 97q61 0 97 -35t36 -93q0 -30 -13 -69l-93 -287h-68l96 294q8 27 8 49q0 37 -23 60t-62 23q-60 0 -116.5 -47t-82.5 -123l-84 -256h-68z" />
    <glyph glyph-name="o" unicode="o" horiz-adv-x="580" 
d="M39 181q0 129 86.5 216t224.5 87q85 0 138 -53.5t53 -137.5q0 -129 -86.5 -216t-224.5 -87q-83 0 -137 54t-54 137zM469 286q0 63 -37 101.5t-97 38.5q-94 1 -160 -71t-64 -167q0 -63 37 -101.5t97 -38.5q94 -1 160 71t64 167z" />
    <glyph glyph-name="p" unicode="p" horiz-adv-x="581" 
d="M-71 -198l218 672h62l-26 -79q68 89 189 89q76 0 123 -51.5t47 -136.5q2 -131 -85.5 -219.5t-207.5 -86.5q-59 0 -102 31t-53 78l-97 -297h-68zM472 292q0 65 -33.5 99.5t-89.5 34.5q-83 2 -156.5 -78t-70.5 -175q0 -55 37.5 -90t97.5 -35q90 0 152.5 68.5t62.5 175.5z
" />
    <glyph glyph-name="q" unicode="q" horiz-adv-x="581" 
d="M302 -198l86 270q-65 -82 -176 -82q-76 0 -126.5 49.5t-50.5 129.5q-2 126 86.5 222t215.5 93q59 0 100.5 -30.5t55.5 -82.5l33 103h62l-218 -672h-68zM457 295q0 62 -34 96.5t-94 34.5q-94 2 -160.5 -76t-64.5 -175q0 -57 34 -92t93 -35q93 -2 160.5 76t65.5 171z" />
    <glyph glyph-name="r" unicode="r" horiz-adv-x="432" 
d="M-7 0l154 474h68l-22 -69q60 79 148 79q45 0 70 -24t25 -65q0 -33 -17 -78h-65q14 34 14 56q0 53 -64 53q-46 0 -87.5 -39t-61.5 -100l-94 -287h-68z" />
    <glyph glyph-name="s" unicode="s" horiz-adv-x="483" 
d="M9 145l61 15q2 -52 37 -82t94 -30q63 0 101 26t38 69q0 33 -24.5 51t-89.5 33q-126 29 -126 128q0 60 48 94.5t129 34.5q68 0 109.5 -31.5t49.5 -88.5l-58 -11q-6 35 -34 57t-72 22q-50 0 -80 -21t-30 -57q0 -29 27.5 -48t84.5 -31q134 -28 134 -126q0 -70 -58 -114.5
t-151 -44.5q-88 0 -137 43t-53 112z" />
    <glyph glyph-name="t" unicode="t" horiz-adv-x="347" 
d="M43 0l137 422h-92l17 52h92l46 141h68l-46 -141h137l-17 -52h-137l-137 -422h-68z" />
    <glyph glyph-name="u" unicode="u" horiz-adv-x="540" 
d="M41 118q0 30 13 69l93 287h68l-96 -294q-8 -27 -8 -49q0 -37 23 -60t62 -23q60 0 116.5 47t82.5 123l84 256h68l-154 -474h-68l28 87q-70 -97 -179 -97q-61 0 -97 35t-36 93z" />
    <glyph glyph-name="v" unicode="v" horiz-adv-x="506" 
d="M163 474l29 -408l294 408h77l-344 -474h-86l-36 474h66z" />
    <glyph glyph-name="w" unicode="w" horiz-adv-x="728" 
d="M154 474l-12 -408l260 408h79l-15 -408l254 408h67l-296 -474h-86l19 404l-254 -404h-86l11 474h59z" />
    <glyph glyph-name="x" unicode="x" horiz-adv-x="448" 
d="M492 474l-228 -228l93 -246h-68l-73 203l-195 -203h-84l255 260l-80 214h71l60 -171l164 171h85z" />
    <glyph glyph-name="y" unicode="y" horiz-adv-x="455" 
d="M444 474h73l-476 -659h-75l158 218l-37 441h67l30 -358z" />
    <glyph glyph-name="z" unicode="z" horiz-adv-x="489" 
d="M362 0h-395l17 53l415 363h-292l19 58h385l-17 -53l-415 -363h302z" />
    <glyph glyph-name="braceleft" unicode="{" horiz-adv-x="308" 
d="M-2 -70q0 21 8 48l91 281q3 7 3 15q0 29 -30 29h-13l19 58h12q41 0 57 44l97 299q18 57 52 81.5t91 24.5h63l-17 -54h-56q-55 0 -74 -62l-94 -289q-19 -60 -74 -73q30 -11 30 -47q0 -15 -6 -34l-92 -281q-5 -18 -5 -27q0 -35 39 -35h56l-17 -54h-61q-35 0 -57 19.5
t-22 56.5z" />
    <glyph glyph-name="bar" unicode="|" horiz-adv-x="231" 
d="M273 830h70l-318 -980h-70z" />
    <glyph glyph-name="braceright" unicode="}" horiz-adv-x="309" 
d="M372 734q0 -21 -8 -48l-91 -281q-3 -7 -3 -15q0 -29 30 -29h13l-19 -58h-12q-41 0 -57 -44l-97 -299q-18 -57 -52 -81.5t-91 -24.5h-63l17 54h56q55 0 74 62l94 289q19 60 74 73q-30 10 -30 47q0 15 6 34l92 281q5 18 5 27q0 35 -39 35h-56l17 54h61q35 0 57 -19.5
t22 -56.5z" />
    <glyph glyph-name="asciitilde" unicode="~" horiz-adv-x="535" 
d="M141 223l-56 9q2 55 38 89.5t92 34.5q29 0 48 -10t41 -32q32 -30 56 -30q30 0 48 19.5t20 52.5l56 -9q-2 -55 -35.5 -89.5t-86.5 -34.5q-33 0 -53.5 10t-46.5 33q-29 29 -54 29q-30 0 -48 -19.5t-19 -52.5z" />
    <glyph glyph-name="uni00A0" unicode="&#xa0;" horiz-adv-x="250" 
 />
    <glyph glyph-name="exclamdown" unicode="&#xa1;" horiz-adv-x="226" 
d="M242 502l-28 -86h-86l28 86h86zM180 334l-173 -532h-72l173 532h72z" />
    <glyph glyph-name="cent" unicode="&#xa2;" horiz-adv-x="573" 
d="M454 190l61 -21q-30 -85 -99 -132t-165 -47h-1l-29 -88h-68l32 98q-64 19 -102 72.5t-38 130.5q0 122 82 201.5t215 79.5l29 88h68l-31 -97q54 -17 87.5 -60t37.5 -98l-59 -18q-7 87 -85 118l-120 -369q67 2 115 39t70 103zM204 58l119 368q-92 -3 -150 -64.5t-58 -156.5
q0 -54 23.5 -92.5t65.5 -54.5z" />
    <glyph glyph-name="sterling" unicode="&#xa3;" horiz-adv-x="634" 
d="M290 473q0 -38 16 -111h166l-19 -58h-136q7 -39 7 -79q0 -63 -28 -118q42 -53 91 -53q39 0 66.5 18.5t55.5 63.5l48 -36q-31 -58 -73 -84t-106 -26q-63 0 -119 62q-57 -62 -139 -62q-50 0 -80.5 29t-30.5 76q0 54 38 88t96 34q61 0 114 -59q7 24 7 45q0 40 -14 101h-119
l19 58h85q-17 73 -17 108q0 109 67.5 174.5t185.5 65.5q79 0 125 -47.5t47 -123.5l-67 -17q-6 124 -121 124q-73 0 -119 -47t-46 -126zM225 95q-22 31 -40 44.5t-40 13.5q-28 0 -47 -16t-19 -43q0 -23 15 -36.5t41 -13.5q51 0 90 51z" />
    <glyph glyph-name="currency" unicode="&#xa4;" horiz-adv-x="590" 
d="M457 165l45 -89l-49 -25l-46 88q-36 -13 -76 -13q-56 0 -105 26t-80 72l-89 -45l-25 49l88 46q-13 36 -13 76q0 56 26 105t72 80l-44 89l49 25l46 -88q36 13 75 13q56 0 105 -26t80 -72l89 45l26 -50l-89 -45q13 -38 13 -76q0 -56 -26 -105t-72 -80zM331 179
q72 0 121.5 49.5t49.5 121.5t-49.5 121.5t-121.5 49.5t-121.5 -49.5t-49.5 -121.5t49.5 -121.5t121.5 -49.5z" />
    <glyph glyph-name="yen" unicode="&#xa5;" horiz-adv-x="646" 
d="M780 700l-346 -350h113l-19 -58h-151l-23 -70h151l-18 -58h-152l-53 -164h-74l53 164h-150l18 58h151l23 70h-151l19 58h115l-120 350h72l116 -343l333 343h93z" />
    <glyph glyph-name="brokenbar" unicode="&#xa6;" horiz-adv-x="231" 
d="M136 407l137 423h70l-137 -423h-70zM-45 -150l144 443h70l-144 -443h-70z" />
    <glyph glyph-name="section" unicode="&#xa7;" horiz-adv-x="551" 
d="M524 298q0 -50 -34.5 -85t-90.5 -50q29 -35 29 -92q0 -78 -68.5 -126.5t-173.5 -48.5q-85 0 -134 43.5t-50 113.5l66 16q3 -109 129 -109q70 0 114.5 30t44.5 78q0 45 -32.5 69t-102.5 34q-73 11 -114 47t-41 90q0 101 126 134q-30 36 -30 93q0 79 66.5 127t172.5 48
q82 0 133 -38t54 -97l-66 -30q-1 50 -36 75.5t-96 25.5q-69 0 -112.5 -30t-43.5 -77t32 -71t103 -33q74 -10 114.5 -45t40.5 -92zM452 296q0 36 -25 53.5t-92 28.5q-44 7 -83 22q-48 -3 -81 -27.5t-33 -59.5t27 -55t90 -30q50 -8 84 -23q53 9 83 33t30 58z" />
    <glyph glyph-name="dieresis" unicode="&#xa8;" horiz-adv-x="312" 
d="M148 571l28 84h84l-28 -84h-84zM296 571l28 84h84l-28 -84h-84z" />
    <glyph glyph-name="copyright" unicode="&#xa9;" horiz-adv-x="560" 
d="M137 486q0 93 65 158.5t159 65.5t159 -65.5t65 -158.5t-65 -158.5t-159 -65.5t-159 65.5t-65 158.5zM546 486q0 77 -53.5 131.5t-131.5 54.5t-131.5 -54.5t-53.5 -131.5t53.5 -131.5t131.5 -54.5t131.5 54.5t53.5 131.5zM233 487q0 56 37 92q37 37 90 37q46 0 77 -24.5
t38 -66.5l-36 -11q-4 30 -26 47.5t-53 17.5q-35 0 -59.5 -24.5t-24.5 -67.5q0 -42 25 -67.5t62 -25.5q71 0 88 77l38 -14q-12 -48 -45.5 -74.5t-80.5 -26.5q-57 0 -93.5 37t-36.5 94z" />
    <glyph glyph-name="ordfeminine" unicode="&#xaa;" horiz-adv-x="527" 
d="M126 437q0 118 77 195.5t187 77.5q54 0 91 -27.5t46 -70.5l30 88h68l-140 -429h-63l24 74q-54 -83 -164 -83q-66 0 -111 48.5t-45 126.5zM501 540q0 48 -32.5 79.5t-85.5 31.5q-78 0 -132.5 -59t-54.5 -149q0 -61 29.5 -92t79.5 -31q72 -2 135 67t61 153z" />
    <glyph glyph-name="guillemotleft" unicode="&#xab;" horiz-adv-x="485" 
d="M200 96l-128 197l6 18l254 193h12l-30 -92l-168 -112l-4 -12l94 -118l-24 -74h-12zM362 79l-128 197l6 18l254 193h12l-30 -92l-168 -112l-4 -12l94 -118l-24 -74h-12z" />
    <glyph glyph-name="logicalnot" unicode="&#xac;" horiz-adv-x="560" 
d="M428 220l45 138h-365l17 54h423l-62 -192h-58z" />
    <glyph glyph-name="uni00AD" unicode="&#xad;" horiz-adv-x="355" 
d="M47 224l18 58h254l-18 -58h-254z" />
    <glyph glyph-name="registered" unicode="&#xae;" horiz-adv-x="560" 
d="M137 486q0 93 65 158.5t159 65.5t159 -65.5t65 -158.5t-65 -158.5t-159 -65.5t-159 65.5t-65 158.5zM546 486q0 77 -53.5 131.5t-131.5 54.5t-131.5 -54.5t-53.5 -131.5t53.5 -131.5t131.5 -54.5t131.5 54.5t53.5 131.5zM272 361v251h111q35 0 57 -18t22 -44
q0 -51 -51 -69q45 -11 45 -63q0 -38 13 -51v-6h-49q-10 19 -10 57q0 27 -11.5 38.5t-38.5 11.5h-47v-107h-41zM313 503h64q42 0 42 37t-42 37h-64v-74z" />
    <glyph glyph-name="overscore" unicode="&#xaf;" horiz-adv-x="384" 
d="M179 586l18 58h248l-18 -58h-248z" />
    <glyph glyph-name="degree" unicode="&#xb0;" horiz-adv-x="433" 
d="M154 547q0 67 48 115t115 48t115 -48t48 -115t-48 -115t-115 -48t-115 48t-48 115zM424 547q0 46 -30 77.5t-77 31.5t-77 -31.5t-30 -77.5q0 -48 29.5 -78.5t77.5 -30.5t77.5 30.5t29.5 78.5z" />
    <glyph glyph-name="plusminus" unicode="&#xb1;" horiz-adv-x="570" 
d="M221 130l54 166h-188l19 58h188l53 166h58l-53 -166h188l-19 -58h-188l-54 -166h-58zM-7 0l19 58h430l-19 -58h-430z" />
    <glyph glyph-name="uni00B2" unicode="&#xb2;" horiz-adv-x="304" 
d="M150 592q0 51 36 81.5t96 30.5q48 0 76 -25t28 -66q-2 -29 -10 -49.5t-28 -37t-38 -26t-55 -26.5q-44 -19 -65 -33.5t-30 -34.5h169l-15 -46h-231q19 61 53 92t94 57q59 26 82 44q24 18 24 52q0 53 -65 53q-31 0 -51 -17t-20 -44q0 -24 12 -38l-41 -23q-21 23 -21 56z
" />
    <glyph glyph-name="uni00B3" unicode="&#xb3;" horiz-adv-x="316" 
d="M98 453l50 18q0 -30 19 -48.5t51 -18.5q41 0 64 22t23 60q0 27 -15 42t-40 15q-23 0 -42 -13l-20 35l126 87h-134l16 48h212l-13 -41l-122 -83l12 1q32 0 52 -24t20 -63q0 -61 -39.5 -97.5t-106.5 -36.5q-47 0 -79 28.5t-34 68.5z" />
    <glyph glyph-name="acute" unicode="&#xb4;" horiz-adv-x="304" 
d="M198 555l103 133h100l-4 -12l-134 -121h-65z" />
    <glyph glyph-name="uni00B5" unicode="&#xb5;" horiz-adv-x="540" 
d="M-71 -198l218 672h68l-96 -294q-8 -27 -8 -49q0 -37 23 -60t62 -23q60 0 116.5 47t82.5 123l84 256h68l-154 -474h-68l28 87q-70 -97 -179 -97q-74 0 -100 47l-77 -235h-68z" />
    <glyph glyph-name="paragraph" unicode="&#xb6;" horiz-adv-x="533" 
d="M167 0l115 354h-12q-56 0 -97.5 40t-41.5 102q0 98 64.5 151t172.5 53h275l-15 -46h-43l-213 -654h-56l213 654h-93l-213 -654h-56zM280 400h17l83 254h-20q-79 0 -126 -41.5t-47 -113.5q0 -45 26.5 -72t66.5 -27z" />
    <glyph glyph-name="middot" unicode="&#xb7;" horiz-adv-x="226" 
d="M121 393h86l-28 -86h-86z" />
    <glyph glyph-name="cedilla" unicode="&#xb8;" horiz-adv-x="289" 
d="M-52 -120l40 9q2 -17 14.5 -28t31.5 -11q26 0 39.5 13.5t13.5 35.5q0 16 -9.5 27t-26.5 11q-29 0 -47 -27l-39 18q20 27 49 88h45l-15 -24q-19 -31 -33 -47q24 25 55 25q26 0 43.5 -18t17.5 -47q0 -42 -26.5 -67.5t-72.5 -25.5q-31 0 -54 19t-26 49z" />
    <glyph glyph-name="uni00B9" unicode="&#xb9;" horiz-adv-x="208" 
d="M150 360l86 264q-42 -47 -102 -48l10 50q80 4 121 74h47l-110 -340h-52z" />
    <glyph glyph-name="ordmasculine" unicode="&#xba;" horiz-adv-x="524" 
d="M115 437q-2 114 77.5 194.5t201.5 78.5q79 0 127 -50q49 -49 49 -126q2 -113 -77.5 -193t-201.5 -79q-76 0 -126 49.5t-50 125.5zM499 528q0 54 -32.5 88.5t-85.5 34.5q-83 0 -139 -61t-56 -146q0 -54 32.5 -89t85.5 -35q83 0 139 61.5t56 146.5z" />
    <glyph glyph-name="guillemotright" unicode="&#xbb;" horiz-adv-x="485" 
d="M164 521l128 -197l-6 -18l-254 -193h-12l30 92l168 112l4 12l-94 118l24 74h12zM326 504l128 -197l-6 -18l-254 -193h-12l30 92l168 112l4 12l-94 118l24 74h12z" />
    <glyph glyph-name="onequarter" unicode="&#xbc;" horiz-adv-x="643" 
d="M150 360l86 264q-42 -47 -102 -48l10 50q80 4 121 74h47l-110 -340h-52zM568 546l30 -41l-546 -377l-30 41zM458 0l25 79h-160l18 53q55 39 82 79q28 40 49 107l7 22h52l-10 -32q-21 -64 -49 -105.5t-78 -77.5h104l36 110h52l-36 -110h40l-15 -46h-40l-25 -79h-52z" />
    <glyph glyph-name="onehalf" unicode="&#xbd;" horiz-adv-x="652" 
d="M150 360l86 264q-42 -47 -102 -48l10 50q80 4 121 74h47l-110 -340h-52zM568 546l30 -41l-546 -377l-30 41zM381 232q0 51 36 81.5t96 30.5q48 0 76 -25t28 -66q-2 -29 -10 -49.5t-28 -37t-38 -26t-55 -26.5q-44 -19 -65 -33.5t-30 -34.5h169l-15 -46h-231q19 61 53 92
t94 57q59 26 82 44q24 18 24 52q0 53 -65 53q-31 0 -51 -17t-20 -44q0 -24 12 -38l-41 -23q-21 23 -21 56z" />
    <glyph glyph-name="threequarters" unicode="&#xbe;" horiz-adv-x="751" 
d="M98 453l50 18q0 -30 19 -48.5t51 -18.5q41 0 64 22t23 60q0 27 -15 42t-40 15q-23 0 -42 -13l-20 35l126 87h-134l16 48h212l-13 -41l-122 -83l12 1q32 0 52 -24t20 -63q0 -61 -39.5 -97.5t-106.5 -36.5q-47 0 -79 28.5t-34 68.5zM676 546l30 -41l-546 -377l-30 41z
M566 0l25 79h-160l18 53q55 39 82 79q28 40 49 107l7 22h52l-10 -32q-21 -64 -49 -105.5t-78 -77.5h104l36 110h52l-36 -110h40l-15 -46h-40l-25 -79h-52z" />
    <glyph glyph-name="questiondown" unicode="&#xbf;" horiz-adv-x="471" 
d="M363 502l-28 -86h-86l28 86h86zM385 203q0 -74 -53 -112.5t-166 -58.5q-85 -15 -118.5 -38t-33.5 -66q0 -36 31 -57t82 -21q121 0 159 114l55 -21q-21 -72 -80 -111.5t-143 -39.5q-74 0 -123 38t-49 92q2 74 50 107.5t167 56.5q79 15 117.5 40.5t38.5 71.5
q0 32 -22.5 52.5t-60.5 20.5q-85 0 -128 -93l-48 25q30 67 73.5 96.5t113.5 29.5q61 0 99.5 -36t38.5 -90z" />
    <glyph glyph-name="Agrave" unicode="&#xc0;" horiz-adv-x="724" 
d="M563 0l-18 188h-384l-140 -188h-84l527 700h98l71 -700h-70zM208 252h331l-38 394zM500 781l-78 121l4 12h91l41 -133h-58z" />
    <glyph glyph-name="Aacute" unicode="&#xc1;" horiz-adv-x="724" 
d="M563 0l-18 188h-384l-140 -188h-84l527 700h98l71 -700h-70zM208 252h331l-38 394zM497 782l103 133h100l-4 -12l-134 -121h-65z" />
    <glyph glyph-name="Acircumflex" unicode="&#xc2;" horiz-adv-x="724" 
d="M563 0l-18 188h-384l-140 -188h-84l527 700h98l71 -700h-70zM208 252h331l-38 394zM384 781l4 12l147 103h58l81 -103l-4 -12h-73l-42 76l-87 -76h-84z" />
    <glyph glyph-name="Atilde" unicode="&#xc3;" horiz-adv-x="724" 
d="M563 0l-18 188h-384l-140 -188h-84l527 700h98l71 -700h-70zM208 252h331l-38 394zM445 789l-49 6q2 41 32 69.5t73 28.5q34 0 70 -31q29 -23 48 -23q20 0 34 15t18 39l49 -6q-5 -43 -34.5 -70.5t-70.5 -27.5q-34 0 -70 31q-29 23 -48 23q-21 0 -35.5 -15.5t-16.5 -38.5z
" />
    <glyph glyph-name="Adieresis" unicode="&#xc4;" horiz-adv-x="724" 
d="M563 0l-18 188h-384l-140 -188h-84l527 700h98l71 -700h-70zM208 252h331l-38 394zM426 797l28 84h84l-28 -84h-84zM574 797l28 84h84l-28 -84h-84z" />
    <glyph glyph-name="Aring" unicode="&#xc5;" horiz-adv-x="724" 
d="M563 0l-18 188h-384l-140 -188h-84l527 700h98l71 -700h-70zM208 252h331l-38 394zM467 853q0 35 24 59t59 24t59 -24t24 -59q0 -34 -24 -58.5t-59 -24.5t-59 24.5t-24 58.5zM593 853q0 18 -12.5 30.5t-30.5 12.5t-30.5 -12.5t-12.5 -30.5t12.5 -30.5t30.5 -12.5
t30.5 12.5t12.5 30.5z" />
    <glyph glyph-name="AE" unicode="&#xc6;" horiz-adv-x="918" 
d="M978 636h-367l-79 -242h337l-20 -64h-337l-87 -266h377l-21 -64h-447l61 188h-220l-153 -188h-85l568 700h494zM416 252l126 386l-315 -386h189z" />
    <glyph glyph-name="Ccedilla" unicode="&#xc7;" horiz-adv-x="794" 
d="M88 292q-3 174 119.5 297.5t315.5 120.5q119 0 191 -64.5t80 -166.5l-64 -18q-11 90 -65.5 137.5t-148.5 47.5q-156 2 -256 -100t-98 -248q0 -109 64.5 -176.5t163.5 -67.5q122 0 199 57t116 174l63 -24q-43 -131 -141 -201t-246 -70q-126 0 -209.5 84t-83.5 218z
M284 -120l40 9q2 -17 14.5 -28t31.5 -11q26 0 39.5 13.5t13.5 35.5q0 16 -9.5 27t-26.5 11q-29 0 -47 -27l-39 18q20 27 49 88h45l-15 -24q-19 -31 -33 -47q24 25 55 25q26 0 43.5 -18t17.5 -47q0 -42 -26.5 -67.5t-72.5 -25.5q-31 0 -54 19t-26 49z" />
    <glyph glyph-name="Egrave" unicode="&#xc8;" horiz-adv-x="622" 
d="M231 700h472l-21 -64h-398l-79 -242h368l-20 -64h-368l-87 -266h408l-21 -64h-482zM455 781l-78 121l4 12h91l41 -133h-58z" />
    <glyph glyph-name="Eacute" unicode="&#xc9;" horiz-adv-x="622" 
d="M231 700h472l-21 -64h-398l-79 -242h368l-20 -64h-368l-87 -266h408l-21 -64h-482zM452 782l103 133h100l-4 -12l-134 -121h-65z" />
    <glyph glyph-name="Ecircumflex" unicode="&#xca;" horiz-adv-x="622" 
d="M231 700h472l-21 -64h-398l-79 -242h368l-20 -64h-368l-87 -266h408l-21 -64h-482zM339 781l4 12l147 103h58l81 -103l-4 -12h-73l-42 76l-87 -76h-84z" />
    <glyph glyph-name="Edieresis" unicode="&#xcb;" horiz-adv-x="622" 
d="M231 700h472l-21 -64h-398l-79 -242h368l-20 -64h-368l-87 -266h408l-21 -64h-482zM380 797l28 84h84l-28 -84h-84zM528 797l28 84h84l-28 -84h-84z" />
    <glyph glyph-name="Igrave" unicode="&#xcc;" horiz-adv-x="235" 
d="M3 0l228 700h74l-228 -700h-74zM256 781l-78 121l4 12h91l41 -133h-58z" />
    <glyph glyph-name="Iacute" unicode="&#xcd;" horiz-adv-x="235" 
d="M3 0l228 700h74l-228 -700h-74zM253 782l103 133h100l-4 -12l-134 -121h-65z" />
    <glyph glyph-name="Icircumflex" unicode="&#xce;" horiz-adv-x="235" 
d="M3 0l228 700h74l-228 -700h-74zM140 781l4 12l147 103h58l81 -103l-4 -12h-73l-42 76l-87 -76h-84z" />
    <glyph glyph-name="Idieresis" unicode="&#xcf;" horiz-adv-x="235" 
d="M3 0l228 700h74l-228 -700h-74zM181 797l28 84h84l-28 -84h-84zM329 797l28 84h84l-28 -84h-84z" />
    <glyph glyph-name="Eth" unicode="&#xd0;" horiz-adv-x="740" 
d="M3 0l228 700h230q121 0 195 -78t74 -198q2 -179 -124 -302.5t-339 -121.5h-264zM98 64h181q177 -2 278 100t99 250q0 108 -56.5 165t-161.5 57h-154zM45 379h354l-18 -58h-354z" />
    <glyph glyph-name="Ntilde" unicode="&#xd1;" horiz-adv-x="759" 
d="M290 655l-213 -655h-74l228 700h113l198 -655l213 655h74l-228 -700h-113zM463 789l-49 6q2 41 32 69.5t73 28.5q34 0 70 -31q29 -23 48 -23q20 0 34 15t18 39l49 -6q-5 -43 -34.5 -70.5t-70.5 -27.5q-34 0 -70 31q-29 23 -48 23q-21 0 -35.5 -15.5t-16.5 -38.5z" />
    <glyph glyph-name="Ograve" unicode="&#xd2;" horiz-adv-x="850" 
d="M86 291q-1 82 32.5 158.5t92.5 134.5t146 92.5t185 33.5q135 0 215.5 -82.5t80.5 -216.5q1 -82 -32.5 -159t-92.5 -135.5t-146 -93t-185 -33.5q-132 0 -214 83.5t-82 217.5zM764 407q0 113 -63.5 176t-175.5 63q-153 3 -260.5 -104.5t-104.5 -246.5q0 -113 64.5 -177
t174.5 -64q100 -2 186 48.5t133.5 132.5t45.5 172zM532 781l-78 121l4 12h91l41 -133h-58z" />
    <glyph glyph-name="Oacute" unicode="&#xd3;" horiz-adv-x="850" 
d="M86 291q-1 82 32.5 158.5t92.5 134.5t146 92.5t185 33.5q135 0 215.5 -82.5t80.5 -216.5q1 -82 -32.5 -159t-92.5 -135.5t-146 -93t-185 -33.5q-132 0 -214 83.5t-82 217.5zM764 407q0 113 -63.5 176t-175.5 63q-153 3 -260.5 -104.5t-104.5 -246.5q0 -113 64.5 -177
t174.5 -64q100 -2 186 48.5t133.5 132.5t45.5 172zM529 782l103 133h100l-4 -12l-134 -121h-65z" />
    <glyph glyph-name="Ocircumflex" unicode="&#xd4;" horiz-adv-x="850" 
d="M86 291q-1 82 32.5 158.5t92.5 134.5t146 92.5t185 33.5q135 0 215.5 -82.5t80.5 -216.5q1 -82 -32.5 -159t-92.5 -135.5t-146 -93t-185 -33.5q-132 0 -214 83.5t-82 217.5zM764 407q0 113 -63.5 176t-175.5 63q-153 3 -260.5 -104.5t-104.5 -246.5q0 -113 64.5 -177
t174.5 -64q100 -2 186 48.5t133.5 132.5t45.5 172zM416 781l4 12l147 103h58l81 -103l-4 -12h-73l-42 76l-87 -76h-84z" />
    <glyph glyph-name="Otilde" unicode="&#xd5;" horiz-adv-x="850" 
d="M86 291q-1 82 32.5 158.5t92.5 134.5t146 92.5t185 33.5q135 0 215.5 -82.5t80.5 -216.5q1 -82 -32.5 -159t-92.5 -135.5t-146 -93t-185 -33.5q-132 0 -214 83.5t-82 217.5zM764 407q0 113 -63.5 176t-175.5 63q-153 3 -260.5 -104.5t-104.5 -246.5q0 -113 64.5 -177
t174.5 -64q100 -2 186 48.5t133.5 132.5t45.5 172zM477 789l-49 6q2 41 32 69.5t73 28.5q34 0 70 -31q29 -23 48 -23q20 0 34 15t18 39l49 -6q-5 -43 -34.5 -70.5t-70.5 -27.5q-34 0 -70 31q-29 23 -48 23q-21 0 -35.5 -15.5t-16.5 -38.5z" />
    <glyph glyph-name="Odieresis" unicode="&#xd6;" horiz-adv-x="850" 
d="M86 291q-1 82 32.5 158.5t92.5 134.5t146 92.5t185 33.5q135 0 215.5 -82.5t80.5 -216.5q1 -82 -32.5 -159t-92.5 -135.5t-146 -93t-185 -33.5q-132 0 -214 83.5t-82 217.5zM764 407q0 113 -63.5 176t-175.5 63q-153 3 -260.5 -104.5t-104.5 -246.5q0 -113 64.5 -177
t174.5 -64q100 -2 186 48.5t133.5 132.5t45.5 172zM458 797l28 84h84l-28 -84h-84zM606 797l28 84h84l-28 -84h-84z" />
    <glyph glyph-name="multiply" unicode="&#xd7;" horiz-adv-x="482" 
d="M475 426l-174 -133l87 -134l-51 -32l-84 130l-170 -130l-35 45l174 133l-88 136l51 32l85 -132l170 130z" />
    <glyph glyph-name="Oslash" unicode="&#xd8;" horiz-adv-x="850" 
d="M86 291q-1 82 32.5 158.5t92.5 134.5t146 92.5t185 33.5q135 0 215.5 -82.5t80.5 -216.5q1 -82 -32.5 -159t-92.5 -135.5t-146 -93t-185 -33.5q-132 0 -214 83.5t-82 217.5zM764 407q0 113 -63.5 176t-175.5 63q-153 3 -260.5 -104.5t-104.5 -246.5q0 -113 64.5 -177
t174.5 -64q100 -2 186 48.5t133.5 132.5t45.5 172zM117 -19l-43 46l733 692l43 -46z" />
    <glyph glyph-name="Ugrave" unicode="&#xd9;" horiz-adv-x="718" 
d="M78 193q0 60 19 116l127 391h74l-132 -408q-16 -48 -16 -100q0 -64 44.5 -101t122.5 -37q93 0 163.5 60.5t104.5 167.5l135 418h74l-138 -427q-46 -142 -136 -212.5t-215 -70.5q-104 0 -165.5 55t-61.5 148zM491 781l-78 121l4 12h91l41 -133h-58z" />
    <glyph glyph-name="Uacute" unicode="&#xda;" horiz-adv-x="718" 
d="M78 193q0 60 19 116l127 391h74l-132 -408q-16 -48 -16 -100q0 -64 44.5 -101t122.5 -37q93 0 163.5 60.5t104.5 167.5l135 418h74l-138 -427q-46 -142 -136 -212.5t-215 -70.5q-104 0 -165.5 55t-61.5 148zM488 782l103 133h100l-4 -12l-134 -121h-65z" />
    <glyph glyph-name="Ucircumflex" unicode="&#xdb;" horiz-adv-x="718" 
d="M78 193q0 60 19 116l127 391h74l-132 -408q-16 -48 -16 -100q0 -64 44.5 -101t122.5 -37q93 0 163.5 60.5t104.5 167.5l135 418h74l-138 -427q-46 -142 -136 -212.5t-215 -70.5q-104 0 -165.5 55t-61.5 148zM375 781l4 12l147 103h58l81 -103l-4 -12h-73l-42 76l-87 -76
h-84z" />
    <glyph glyph-name="Udieresis" unicode="&#xdc;" horiz-adv-x="718" 
d="M78 193q0 60 19 116l127 391h74l-132 -408q-16 -48 -16 -100q0 -64 44.5 -101t122.5 -37q93 0 163.5 60.5t104.5 167.5l135 418h74l-138 -427q-46 -142 -136 -212.5t-215 -70.5q-104 0 -165.5 55t-61.5 148zM417 797l28 84h84l-28 -84h-84zM565 797l28 84h84l-28 -84h-84
z" />
    <glyph glyph-name="Yacute" unicode="&#xdd;" horiz-adv-x="646" 
d="M208 0l96 296l-138 404h72l116 -343l333 343h93l-403 -408l-95 -292h-74zM445 782l103 133h100l-4 -12l-134 -121h-65z" />
    <glyph glyph-name="Thorn" unicode="&#xde;" horiz-adv-x="667" 
d="M3 0l227 700h74l-48 -149h202q87 0 137.5 -49t50.5 -123q0 -110 -79 -170t-223 -60h-219l-48 -149h-74zM146 213h210q104 0 159 40.5t55 120.5q0 53 -33 83t-92 30h-210z" />
    <glyph glyph-name="germandbls" unicode="&#xdf;" horiz-adv-x="601" 
d="M270 48q93 0 144.5 48.5t51.5 133.5q0 75 -44 116.5t-119 41.5l19 58q87 1 136.5 34t49.5 92q0 37 -22.5 58.5t-64.5 21.5q-54 0 -88.5 -31t-56.5 -98l-170 -523h-68l126 388h-87l19 58h87l27 83q58 181 221 181q65 0 103 -36.5t38 -94.5q0 -62 -49.5 -111t-111.5 -55
q56 -19 89.5 -64.5t33.5 -112.5q0 -109 -74.5 -177.5t-198.5 -68.5q-69 0 -115 33l30 56q37 -31 94 -31z" />
    <glyph glyph-name="agrave" unicode="&#xe0;" horiz-adv-x="582" 
d="M40 183q-2 128 86 215.5t207 85.5q59 0 102 -31t53 -78l33 99h68l-154 -474h-63l28 84q-60 -94 -186 -94q-73 0 -123.5 53.5t-50.5 139.5zM460 301q0 55 -37.5 90t-97.5 35q-90 0 -152.5 -67.5t-62.5 -170.5q0 -69 33.5 -104.5t89.5 -35.5q83 -2 156.5 78t70.5 175z
M335 555l-78 121l4 12h91l41 -133h-58z" />
    <glyph glyph-name="aacute" unicode="&#xe1;" horiz-adv-x="582" 
d="M40 183q-2 128 86 215.5t207 85.5q59 0 102 -31t53 -78l33 99h68l-154 -474h-63l28 84q-60 -94 -186 -94q-73 0 -123.5 53.5t-50.5 139.5zM460 301q0 55 -37.5 90t-97.5 35q-90 0 -152.5 -67.5t-62.5 -170.5q0 -69 33.5 -104.5t89.5 -35.5q83 -2 156.5 78t70.5 175z
M335 555l103 133h100l-4 -12l-134 -121h-65z" />
    <glyph glyph-name="acircumflex" unicode="&#xe2;" horiz-adv-x="582" 
d="M40 183q-2 128 86 215.5t207 85.5q59 0 102 -31t53 -78l33 99h68l-154 -474h-63l28 84q-60 -94 -186 -94q-73 0 -123.5 53.5t-50.5 139.5zM460 301q0 55 -37.5 90t-97.5 35q-90 0 -152.5 -67.5t-62.5 -170.5q0 -69 33.5 -104.5t89.5 -35.5q83 -2 156.5 78t70.5 175z
M220 555l4 12l147 103h58l81 -103l-4 -12h-73l-42 76l-87 -76h-84z" />
    <glyph glyph-name="atilde" unicode="&#xe3;" horiz-adv-x="582" 
d="M40 183q-2 128 86 215.5t207 85.5q59 0 102 -31t53 -78l33 99h68l-154 -474h-63l28 84q-60 -94 -186 -94q-73 0 -123.5 53.5t-50.5 139.5zM460 301q0 55 -37.5 90t-97.5 35q-90 0 -152.5 -67.5t-62.5 -170.5q0 -69 33.5 -104.5t89.5 -35.5q83 -2 156.5 78t70.5 175z
M273 563l-49 6q2 41 32 69.5t73 28.5q34 0 70 -31q29 -23 48 -23q20 0 34 15t18 39l49 -6q-5 -43 -34.5 -70.5t-70.5 -27.5q-34 0 -70 31q-29 23 -48 23q-21 0 -35.5 -15.5t-16.5 -38.5z" />
    <glyph glyph-name="adieresis" unicode="&#xe4;" horiz-adv-x="582" 
d="M40 183q-2 128 86 215.5t207 85.5q59 0 102 -31t53 -78l33 99h68l-154 -474h-63l28 84q-60 -94 -186 -94q-73 0 -123.5 53.5t-50.5 139.5zM460 301q0 55 -37.5 90t-97.5 35q-90 0 -152.5 -67.5t-62.5 -170.5q0 -69 33.5 -104.5t89.5 -35.5q83 -2 156.5 78t70.5 175z
M253 571l28 84h84l-28 -84h-84zM401 571l28 84h84l-28 -84h-84z" />
    <glyph glyph-name="aring" unicode="&#xe5;" horiz-adv-x="582" 
d="M40 183q-2 128 86 215.5t207 85.5q59 0 102 -31t53 -78l33 99h68l-154 -474h-63l28 84q-60 -94 -186 -94q-73 0 -123.5 53.5t-50.5 139.5zM460 301q0 55 -37.5 90t-97.5 35q-90 0 -152.5 -67.5t-62.5 -170.5q0 -69 33.5 -104.5t89.5 -35.5q83 -2 156.5 78t70.5 175z
M299 627q0 35 24 59t59 24t59 -24t24 -59q0 -34 -24 -58.5t-59 -24.5t-59 24.5t-24 58.5zM425 627q0 18 -12.5 30.5t-30.5 12.5t-30.5 -12.5t-12.5 -30.5t12.5 -30.5t30.5 -12.5t30.5 12.5t12.5 30.5z" />
    <glyph glyph-name="ae" unicode="&#xe6;" horiz-adv-x="944" 
d="M40 183q-2 128 86 215.5t207 85.5q59 0 102 -31t53 -78l33 99h68l-22 -68q31 36 77 57t96 21q81 0 128 -42t47 -111q0 -37 -15 -89l-4 -14h-381q-4 -17 -4 -36q0 -65 39 -104.5t100 -39.5q120 0 170 114l59 -24q-68 -148 -243 -148q-58 0 -104 30.5t-63 83.5l-34 -104
h-63l28 84q-60 -94 -186 -94q-73 0 -123.5 53.5t-50.5 139.5zM460 301q0 55 -37.5 90t-97.5 35q-90 0 -152.5 -67.5t-62.5 -170.5q0 -69 33.5 -104.5t89.5 -35.5q83 -2 156.5 78t70.5 175zM525 280h317q5 22 5 44q0 49 -32 75.5t-87 26.5q-73 0 -126 -40t-77 -106z" />
    <glyph glyph-name="ccedilla" unicode="&#xe7;" horiz-adv-x="573" 
d="M45 203q0 123 82.5 202t217.5 79q81 0 132 -48t56 -119l-59 -18q-6 59 -44 93t-96 34q-96 0 -157.5 -61t-61.5 -160q0 -72 40.5 -114.5t106.5 -42.5q70 0 120 37t72 105l61 -21q-30 -85 -99 -132t-165 -47q-88 0 -147 58t-59 155zM164 -120l40 9q2 -17 14.5 -28t31.5 -11
q26 0 39.5 13.5t13.5 35.5q0 16 -9.5 27t-26.5 11q-29 0 -47 -27l-39 18q20 27 49 88h45l-15 -24q-19 -31 -33 -47q24 25 55 25q26 0 43.5 -18t17.5 -47q0 -42 -26.5 -67.5t-72.5 -25.5q-31 0 -54 19t-26 49z" />
    <glyph glyph-name="egrave" unicode="&#xe8;" horiz-adv-x="546" 
d="M517 331q0 -37 -15 -89l-4 -14h-383q-2 -26 -2 -30q0 -70 39 -110t100 -40q120 0 170 114l59 -24q-69 -148 -242 -148q-82 0 -139 56.5t-57 150.5q0 119 82.5 203t215.5 84q81 0 128.5 -42t47.5 -111zM449 324q0 49 -32 75.5t-87 26.5q-71 0 -125 -40t-78 -106h317
q5 22 5 44zM342 555l-78 121l4 12h91l41 -133h-58z" />
    <glyph glyph-name="eacute" unicode="&#xe9;" horiz-adv-x="546" 
d="M517 331q0 -37 -15 -89l-4 -14h-383q-2 -26 -2 -30q0 -70 39 -110t100 -40q120 0 170 114l59 -24q-69 -148 -242 -148q-82 0 -139 56.5t-57 150.5q0 119 82.5 203t215.5 84q81 0 128.5 -42t47.5 -111zM449 324q0 49 -32 75.5t-87 26.5q-71 0 -125 -40t-78 -106h317
q5 22 5 44zM342 555l103 133h100l-4 -12l-134 -121h-65z" />
    <glyph glyph-name="ecircumflex" unicode="&#xea;" horiz-adv-x="546" 
d="M517 331q0 -37 -15 -89l-4 -14h-383q-2 -26 -2 -30q0 -70 39 -110t100 -40q120 0 170 114l59 -24q-69 -148 -242 -148q-82 0 -139 56.5t-57 150.5q0 119 82.5 203t215.5 84q81 0 128.5 -42t47.5 -111zM449 324q0 49 -32 75.5t-87 26.5q-71 0 -125 -40t-78 -106h317
q5 22 5 44zM227 555l4 12l147 103h58l81 -103l-4 -12h-73l-42 76l-87 -76h-84z" />
    <glyph glyph-name="edieresis" unicode="&#xeb;" horiz-adv-x="546" 
d="M517 331q0 -37 -15 -89l-4 -14h-383q-2 -26 -2 -30q0 -70 39 -110t100 -40q120 0 170 114l59 -24q-69 -148 -242 -148q-82 0 -139 56.5t-57 150.5q0 119 82.5 203t215.5 84q81 0 128.5 -42t47.5 -111zM449 324q0 49 -32 75.5t-87 26.5q-71 0 -125 -40t-78 -106h317
q5 22 5 44zM260 571l28 84h84l-28 -84h-84zM408 571l28 84h84l-28 -84h-84z" />
    <glyph glyph-name="igrave" unicode="&#xec;" horiz-adv-x="208" 
d="M147 474h68l-154 -474h-68zM176 555l-78 121l4 12h91l41 -133h-58z" />
    <glyph glyph-name="iacute" unicode="&#xed;" horiz-adv-x="208" 
d="M147 474h68l-154 -474h-68zM176 555l103 133h100l-4 -12l-134 -121h-65z" />
    <glyph glyph-name="icircumflex" unicode="&#xee;" horiz-adv-x="208" 
d="M147 474h68l-154 -474h-68zM61 555l4 12l147 103h58l81 -103l-4 -12h-73l-42 76l-87 -76h-84z" />
    <glyph glyph-name="idieresis" unicode="&#xef;" horiz-adv-x="208" 
d="M147 474h68l-154 -474h-68zM94 571l28 84h84l-28 -84h-84zM242 571l28 84h84l-28 -84h-84z" />
    <glyph glyph-name="eth" unicode="&#xf0;" horiz-adv-x="574" 
d="M545 666l-70 -54q67 -101 67 -270q0 -157 -80 -254.5t-223 -97.5q-79 -2 -138 62t-57 146q-1 122 81 205t200 81q55 0 99 -30q45 -30 57 -74q-3 110 -57 193l-64 -49l-34 44l63 48q-21 24 -56 47l40 47q35 -22 67 -54l71 54zM462 273q0 66 -40.5 109.5t-101.5 43.5
q-94 0 -149 -63t-55 -160q0 -67 39 -111t98 -44q92 0 150.5 63t58.5 162z" />
    <glyph glyph-name="ntilde" unicode="&#xf1;" horiz-adv-x="540" 
d="M-7 0l154 474h68l-28 -87q70 97 179 97q61 0 97 -35t36 -93q0 -30 -13 -69l-93 -287h-68l96 294q8 27 8 49q0 37 -23 60t-62 23q-60 0 -116.5 -47t-82.5 -123l-84 -256h-68zM270 563l-49 6q2 41 32 69.5t73 28.5q34 0 70 -31q29 -23 48 -23q20 0 34 15t18 39l49 -6
q-5 -43 -34.5 -70.5t-70.5 -27.5q-34 0 -70 31q-29 23 -48 23q-21 0 -35.5 -15.5t-16.5 -38.5z" />
    <glyph glyph-name="ograve" unicode="&#xf2;" horiz-adv-x="580" 
d="M39 181q0 129 86.5 216t224.5 87q85 0 138 -53.5t53 -137.5q0 -129 -86.5 -216t-224.5 -87q-83 0 -137 54t-54 137zM469 286q0 63 -37 101.5t-97 38.5q-94 1 -160 -71t-64 -167q0 -63 37 -101.5t97 -38.5q94 -1 160 71t64 167zM342 555l-78 121l4 12h91l41 -133h-58z" />
    <glyph glyph-name="oacute" unicode="&#xf3;" horiz-adv-x="580" 
d="M39 181q0 129 86.5 216t224.5 87q85 0 138 -53.5t53 -137.5q0 -129 -86.5 -216t-224.5 -87q-83 0 -137 54t-54 137zM469 286q0 63 -37 101.5t-97 38.5q-94 1 -160 -71t-64 -167q0 -63 37 -101.5t97 -38.5q94 -1 160 71t64 167zM342 555l103 133h100l-4 -12l-134 -121h-65
z" />
    <glyph glyph-name="ocircumflex" unicode="&#xf4;" horiz-adv-x="580" 
d="M39 181q0 129 86.5 216t224.5 87q85 0 138 -53.5t53 -137.5q0 -129 -86.5 -216t-224.5 -87q-83 0 -137 54t-54 137zM469 286q0 63 -37 101.5t-97 38.5q-94 1 -160 -71t-64 -167q0 -63 37 -101.5t97 -38.5q94 -1 160 71t64 167zM227 555l4 12l147 103h58l81 -103l-4 -12
h-73l-42 76l-87 -76h-84z" />
    <glyph glyph-name="otilde" unicode="&#xf5;" horiz-adv-x="580" 
d="M39 181q0 129 86.5 216t224.5 87q85 0 138 -53.5t53 -137.5q0 -129 -86.5 -216t-224.5 -87q-83 0 -137 54t-54 137zM469 286q0 63 -37 101.5t-97 38.5q-94 1 -160 -71t-64 -167q0 -63 37 -101.5t97 -38.5q94 -1 160 71t64 167zM280 563l-49 6q2 41 32 69.5t73 28.5
q34 0 70 -31q29 -23 48 -23q20 0 34 15t18 39l49 -6q-5 -43 -34.5 -70.5t-70.5 -27.5q-34 0 -70 31q-29 23 -48 23q-21 0 -35.5 -15.5t-16.5 -38.5z" />
    <glyph glyph-name="odieresis" unicode="&#xf6;" horiz-adv-x="580" 
d="M39 181q0 129 86.5 216t224.5 87q85 0 138 -53.5t53 -137.5q0 -129 -86.5 -216t-224.5 -87q-83 0 -137 54t-54 137zM469 286q0 63 -37 101.5t-97 38.5q-94 1 -160 -71t-64 -167q0 -63 37 -101.5t97 -38.5q94 -1 160 71t64 167zM260 571l28 84h84l-28 -84h-84zM408 571
l28 84h84l-28 -84h-84z" />
    <glyph glyph-name="divide" unicode="&#xf7;" horiz-adv-x="569" 
d="M299 414l28 86h86l-28 -86h-86zM80 271l18 58h432l-18 -58h-432zM197 100l28 86h86l-28 -86h-86z" />
    <glyph glyph-name="oslash" unicode="&#xf8;" horiz-adv-x="580" 
d="M541 293q0 -129 -86.5 -216t-224.5 -87q-33 0 -68 11l-35 -49l-49 36l30 43q-69 52 -69 150q0 129 86.5 216t224.5 87q34 0 69 -11l34 49l49 -36l-29 -42q68 -54 68 -151zM148 87l233 332q-18 7 -46 7q-94 1 -160 -71t-64 -167q0 -63 37 -101zM469 286q0 63 -37 101
l-233 -332q18 -7 46 -7q94 -1 160 71t64 167z" />
    <glyph glyph-name="ugrave" unicode="&#xf9;" horiz-adv-x="540" 
d="M41 118q0 30 13 69l93 287h68l-96 -294q-8 -27 -8 -49q0 -37 23 -60t62 -23q60 0 116.5 47t82.5 123l84 256h68l-154 -474h-68l28 87q-70 -97 -179 -97q-61 0 -97 35t-36 93zM337 555l-78 121l4 12h91l41 -133h-58z" />
    <glyph glyph-name="uacute" unicode="&#xfa;" horiz-adv-x="540" 
d="M41 118q0 30 13 69l93 287h68l-96 -294q-8 -27 -8 -49q0 -37 23 -60t62 -23q60 0 116.5 47t82.5 123l84 256h68l-154 -474h-68l28 87q-70 -97 -179 -97q-61 0 -97 35t-36 93zM337 555l103 133h100l-4 -12l-134 -121h-65z" />
    <glyph glyph-name="ucircumflex" unicode="&#xfb;" horiz-adv-x="540" 
d="M41 118q0 30 13 69l93 287h68l-96 -294q-8 -27 -8 -49q0 -37 23 -60t62 -23q60 0 116.5 47t82.5 123l84 256h68l-154 -474h-68l28 87q-70 -97 -179 -97q-61 0 -97 35t-36 93zM222 555l4 12l147 103h58l81 -103l-4 -12h-73l-42 76l-87 -76h-84z" />
    <glyph glyph-name="udieresis" unicode="&#xfc;" horiz-adv-x="540" 
d="M41 118q0 30 13 69l93 287h68l-96 -294q-8 -27 -8 -49q0 -37 23 -60t62 -23q60 0 116.5 47t82.5 123l84 256h68l-154 -474h-68l28 87q-70 -97 -179 -97q-61 0 -97 35t-36 93zM255 571l28 84h84l-28 -84h-84zM403 571l28 84h84l-28 -84h-84z" />
    <glyph glyph-name="yacute" unicode="&#xfd;" horiz-adv-x="455" 
d="M444 474h73l-476 -659h-75l158 218l-37 441h67l30 -358zM285 555l103 133h100l-4 -12l-134 -121h-65z" />
    <glyph glyph-name="thorn" unicode="&#xfe;" horiz-adv-x="581" 
d="M-71 -198l291 898h67l-99 -305q67 89 184 89q76 0 123 -51.5t47 -136.5q2 -131 -85.5 -219.5t-207.5 -86.5q-59 0 -102 31t-53 78l-97 -297h-68zM472 292q0 65 -33.5 99.5t-89.5 34.5q-83 2 -156.5 -78t-70.5 -175q0 -55 37.5 -90t97.5 -35q90 0 152.5 68.5t62.5 175.5z
" />
    <glyph glyph-name="ydieresis" unicode="&#xff;" horiz-adv-x="455" 
d="M444 474h73l-476 -659h-75l158 218l-37 441h67l30 -358zM203 571l28 84h84l-28 -84h-84zM351 571l28 84h84l-28 -84h-84z" />
    <glyph glyph-name="Amacron" unicode="&#x100;" horiz-adv-x="724" 
d="M563 0l-18 188h-384l-140 -188h-84l527 700h98l71 -700h-70zM208 252h331l-38 394zM424 812l18 58h248l-18 -58h-248z" />
    <glyph glyph-name="amacron" unicode="&#x101;" horiz-adv-x="582" 
d="M40 183q-2 128 86 215.5t207 85.5q59 0 102 -31t53 -78l33 99h68l-154 -474h-63l28 84q-60 -94 -186 -94q-73 0 -123.5 53.5t-50.5 139.5zM460 301q0 55 -37.5 90t-97.5 35q-90 0 -152.5 -67.5t-62.5 -170.5q0 -69 33.5 -104.5t89.5 -35.5q83 -2 156.5 78t70.5 175z
M252 586l18 58h248l-18 -58h-248z" />
    <glyph glyph-name="Abreve" unicode="&#x102;" horiz-adv-x="724" 
d="M563 0l-18 188h-384l-140 -188h-84l527 700h98l71 -700h-70zM208 252h331l-38 394zM438 859q0 23 10 42h59q-8 -18 -8 -31q0 -16 13 -26t34 -10q73 0 75 67h61q0 -57 -38 -88t-106 -31q-46 0 -72.5 20t-27.5 57z" />
    <glyph glyph-name="abreve" unicode="&#x103;" horiz-adv-x="582" 
d="M40 183q-2 128 86 215.5t207 85.5q59 0 102 -31t53 -78l33 99h68l-154 -474h-63l28 84q-60 -94 -186 -94q-73 0 -123.5 53.5t-50.5 139.5zM460 301q0 55 -37.5 90t-97.5 35q-90 0 -152.5 -67.5t-62.5 -170.5q0 -69 33.5 -104.5t89.5 -35.5q83 -2 156.5 78t70.5 175z
M277 633q0 23 10 42h59q-8 -18 -8 -31q0 -16 13 -26t34 -10q73 0 75 67h61q0 -57 -38 -88t-106 -31q-46 0 -72.5 20t-27.5 57z" />
    <glyph glyph-name="Aogonek" unicode="&#x104;" horiz-adv-x="724" 
d="M563 0l-18 188h-384l-140 -188h-84l527 700h98l71 -700h-70zM208 252h331l-38 394zM546 -185q-33 0 -52.5 19.5t-19.5 49.5q0 34 29 66t77 50h53q-42 -19 -69 -46t-27 -51q0 -30 32 -30q18 0 38 11l14 -51q-33 -18 -75 -18z" />
    <glyph glyph-name="aogonek" unicode="&#x105;" horiz-adv-x="582" 
d="M40 183q-2 128 86 215.5t207 85.5q59 0 102 -31t53 -78l33 99h68l-154 -474h-63l28 84q-60 -94 -186 -94q-73 0 -123.5 53.5t-50.5 139.5zM460 301q0 55 -37.5 90t-97.5 35q-90 0 -152.5 -67.5t-62.5 -170.5q0 -69 33.5 -104.5t89.5 -35.5q83 -2 156.5 78t70.5 175z
M348 -185q-33 0 -52.5 19.5t-19.5 49.5q0 34 29 66t77 50h53q-42 -19 -69 -46t-27 -51q0 -30 32 -30q18 0 38 11l14 -51q-33 -18 -75 -18z" />
    <glyph glyph-name="Cacute" unicode="&#x106;" horiz-adv-x="794" 
d="M88 292q-3 174 119.5 297.5t315.5 120.5q119 0 191 -64.5t80 -166.5l-64 -18q-11 90 -65.5 137.5t-148.5 47.5q-156 2 -256 -100t-98 -248q0 -109 64.5 -176.5t163.5 -67.5q122 0 199 57t116 174l63 -24q-43 -131 -141 -201t-246 -70q-126 0 -209.5 84t-83.5 218z
M520 782l103 133h100l-4 -12l-134 -121h-65z" />
    <glyph glyph-name="cacute" unicode="&#x107;" horiz-adv-x="573" 
d="M45 203q0 123 82.5 202t217.5 79q81 0 132 -48t56 -119l-59 -18q-6 59 -44 93t-96 34q-96 0 -157.5 -61t-61.5 -160q0 -72 40.5 -114.5t106.5 -42.5q70 0 120 37t72 105l61 -21q-30 -85 -99 -132t-165 -47q-88 0 -147 58t-59 155zM347 555l103 133h100l-4 -12l-134 -121
h-65z" />
    <glyph glyph-name="Ccircumflex" unicode="&#x108;" horiz-adv-x="794" 
d="M88 292q-3 174 119.5 297.5t315.5 120.5q119 0 191 -64.5t80 -166.5l-64 -18q-11 90 -65.5 137.5t-148.5 47.5q-156 2 -256 -100t-98 -248q0 -109 64.5 -176.5t163.5 -67.5q122 0 199 57t116 174l63 -24q-43 -131 -141 -201t-246 -70q-126 0 -209.5 84t-83.5 218z
M407 781l4 12l147 103h58l81 -103l-4 -12h-73l-42 76l-87 -76h-84z" />
    <glyph glyph-name="ccircumflex" unicode="&#x109;" horiz-adv-x="573" 
d="M45 203q0 123 82.5 202t217.5 79q81 0 132 -48t56 -119l-59 -18q-6 59 -44 93t-96 34q-96 0 -157.5 -61t-61.5 -160q0 -72 40.5 -114.5t106.5 -42.5q70 0 120 37t72 105l61 -21q-30 -85 -99 -132t-165 -47q-88 0 -147 58t-59 155zM232 555l4 12l147 103h58l81 -103
l-4 -12h-73l-42 76l-87 -76h-84z" />
    <glyph glyph-name="Cdotaccent" unicode="&#x10a;" horiz-adv-x="794" 
d="M88 292q-3 174 119.5 297.5t315.5 120.5q119 0 191 -64.5t80 -166.5l-64 -18q-11 90 -65.5 137.5t-148.5 47.5q-156 2 -256 -100t-98 -248q0 -109 64.5 -176.5t163.5 -67.5q122 0 199 57t116 174l63 -24q-43 -131 -141 -201t-246 -70q-126 0 -209.5 84t-83.5 218z
M534 818l26 83h78l-26 -83h-78z" />
    <glyph glyph-name="cdotaccent" unicode="&#x10b;" horiz-adv-x="573" 
d="M45 203q0 123 82.5 202t217.5 79q81 0 132 -48t56 -119l-59 -18q-6 59 -44 93t-96 34q-96 0 -157.5 -61t-61.5 -160q0 -72 40.5 -114.5t106.5 -42.5q70 0 120 37t72 105l61 -21q-30 -85 -99 -132t-165 -47q-88 0 -147 58t-59 155zM345 571l26 83h78l-26 -83h-78z" />
    <glyph glyph-name="Ccaron" unicode="&#x10c;" horiz-adv-x="794" 
d="M88 292q-3 174 119.5 297.5t315.5 120.5q119 0 191 -64.5t80 -166.5l-64 -18q-11 90 -65.5 137.5t-148.5 47.5q-156 2 -256 -100t-98 -248q0 -109 64.5 -176.5t163.5 -67.5q122 0 199 57t116 174l63 -24q-43 -131 -141 -201t-246 -70q-126 0 -209.5 84t-83.5 218z
M523 781l-81 103l4 12h71l44 -76l84 76h87l-4 -12l-144 -103h-61z" />
    <glyph glyph-name="ccaron" unicode="&#x10d;" horiz-adv-x="573" 
d="M45 203q0 123 82.5 202t217.5 79q81 0 132 -48t56 -119l-59 -18q-6 59 -44 93t-96 34q-96 0 -157.5 -61t-61.5 -160q0 -72 40.5 -114.5t106.5 -42.5q70 0 120 37t72 105l61 -21q-30 -85 -99 -132t-165 -47q-88 0 -147 58t-59 155zM344 555l-81 103l4 12h71l44 -76l84 76
h87l-4 -12l-144 -103h-61z" />
    <glyph glyph-name="Dcaron" unicode="&#x10e;" horiz-adv-x="740" 
d="M3 0l228 700h230q121 0 195 -78t74 -198q2 -179 -124 -302.5t-339 -121.5h-264zM98 64h181q177 -2 278 100t99 250q0 108 -56.5 165t-161.5 57h-154zM424 781l-81 103l4 12h71l44 -76l84 76h87l-4 -12l-144 -103h-61z" />
    <glyph glyph-name="dcaron" unicode="&#x10f;" horiz-adv-x="640" 
d="M39 178q-2 131 85.5 219.5t207.5 86.5q59 0 102 -31t53 -78l106 325h68l-227 -700h-62l30 92q-60 -102 -193 -102q-69 0 -119.5 53.5t-50.5 134.5zM459 301q0 55 -37.5 90t-97.5 35q-90 0 -152.5 -68.5t-62.5 -175.5q0 -65 33.5 -99.5t89.5 -34.5q83 -2 156.5 78
t70.5 175zM625 512l14 43h27q44 0 44 33q0 26 -28 26h-6l28 86h86l-37 -111q-15 -44 -37 -60.5t-62 -16.5h-29z" />
    <glyph glyph-name="Dcroat" unicode="&#x110;" horiz-adv-x="740" 
d="M3 0l228 700h230q121 0 195 -78t74 -198q2 -179 -124 -302.5t-339 -121.5h-264zM98 64h181q177 -2 278 100t99 250q0 108 -56.5 165t-161.5 57h-154zM45 379h354l-18 -58h-354z" />
    <glyph glyph-name="dslash" unicode="&#x111;" horiz-adv-x="581" 
d="M39 178q-2 131 85.5 219.5t207.5 86.5q59 0 102 -31t53 -78l106 325h68l-227 -700h-62l30 92q-60 -102 -193 -102q-69 0 -119.5 53.5t-50.5 134.5zM459 301q0 55 -37.5 90t-97.5 35q-90 0 -152.5 -68.5t-62.5 -175.5q0 -65 33.5 -99.5t89.5 -34.5q83 -2 156.5 78
t70.5 175zM396 623h293l-17 -52h-293z" />
    <glyph glyph-name="Emacron" unicode="&#x112;" horiz-adv-x="622" 
d="M231 700h472l-21 -64h-398l-79 -242h368l-20 -64h-368l-87 -266h408l-21 -64h-482zM379 812l18 58h248l-18 -58h-248z" />
    <glyph glyph-name="emacron" unicode="&#x113;" horiz-adv-x="546" 
d="M517 331q0 -37 -15 -89l-4 -14h-383q-2 -26 -2 -30q0 -70 39 -110t100 -40q120 0 170 114l59 -24q-69 -148 -242 -148q-82 0 -139 56.5t-57 150.5q0 119 82.5 203t215.5 84q81 0 128.5 -42t47.5 -111zM449 324q0 49 -32 75.5t-87 26.5q-71 0 -125 -40t-78 -106h317
q5 22 5 44zM259 586l18 58h248l-18 -58h-248z" />
    <glyph glyph-name="Ebreve" unicode="&#x114;" horiz-adv-x="622" 
d="M231 700h472l-21 -64h-398l-79 -242h368l-20 -64h-368l-87 -266h408l-21 -64h-482zM393 859q0 23 10 42h59q-8 -18 -8 -31q0 -16 13 -26t34 -10q73 0 75 67h61q0 -57 -38 -88t-106 -31q-46 0 -72.5 20t-27.5 57z" />
    <glyph glyph-name="ebreve" unicode="&#x115;" horiz-adv-x="546" 
d="M517 331q0 -37 -15 -89l-4 -14h-383q-2 -26 -2 -30q0 -70 39 -110t100 -40q120 0 170 114l59 -24q-69 -148 -242 -148q-82 0 -139 56.5t-57 150.5q0 119 82.5 203t215.5 84q81 0 128.5 -42t47.5 -111zM449 324q0 49 -32 75.5t-87 26.5q-71 0 -125 -40t-78 -106h317
q5 22 5 44zM284 633q0 23 10 42h59q-8 -18 -8 -31q0 -16 13 -26t34 -10q73 0 75 67h61q0 -57 -38 -88t-106 -31q-46 0 -72.5 20t-27.5 57z" />
    <glyph glyph-name="Edotaccent" unicode="&#x116;" horiz-adv-x="622" 
d="M231 700h472l-21 -64h-398l-79 -242h368l-20 -64h-368l-87 -266h408l-21 -64h-482zM466 818l26 83h78l-26 -83h-78z" />
    <glyph glyph-name="edotaccent" unicode="&#x117;" horiz-adv-x="546" 
d="M517 331q0 -37 -15 -89l-4 -14h-383q-2 -26 -2 -30q0 -70 39 -110t100 -40q120 0 170 114l59 -24q-69 -148 -242 -148q-82 0 -139 56.5t-57 150.5q0 119 82.5 203t215.5 84q81 0 128.5 -42t47.5 -111zM449 324q0 49 -32 75.5t-87 26.5q-71 0 -125 -40t-78 -106h317
q5 22 5 44zM340 571l26 83h78l-26 -83h-78z" />
    <glyph glyph-name="Eogonek" unicode="&#x118;" horiz-adv-x="622" 
d="M231 700h472l-21 -64h-398l-79 -242h368l-20 -64h-368l-87 -266h408l-21 -64h-482zM398 -185q-33 0 -52.5 19.5t-19.5 49.5q0 34 29 66t77 50h53q-42 -19 -69 -46t-27 -51q0 -30 32 -30q18 0 38 11l14 -51q-33 -18 -75 -18z" />
    <glyph glyph-name="eogonek" unicode="&#x119;" horiz-adv-x="546" 
d="M517 331q0 -37 -15 -89l-4 -14h-383q-2 -26 -2 -30q0 -70 39 -110t100 -40q120 0 170 114l59 -24q-69 -148 -242 -148q-82 0 -139 56.5t-57 150.5q0 119 82.5 203t215.5 84q81 0 128.5 -42t47.5 -111zM449 324q0 49 -32 75.5t-87 26.5q-71 0 -125 -40t-78 -106h317
q5 22 5 44zM184 -185q-33 0 -52.5 19.5t-19.5 49.5q0 34 29 66t77 50h53q-42 -19 -69 -46t-27 -51q0 -30 32 -30q18 0 38 11l14 -51q-33 -18 -75 -18z" />
    <glyph glyph-name="Ecaron" unicode="&#x11a;" horiz-adv-x="622" 
d="M231 700h472l-21 -64h-398l-79 -242h368l-20 -64h-368l-87 -266h408l-21 -64h-482zM455 781l-81 103l4 12h71l44 -76l84 76h87l-4 -12l-144 -103h-61z" />
    <glyph glyph-name="ecaron" unicode="&#x11b;" horiz-adv-x="546" 
d="M517 331q0 -37 -15 -89l-4 -14h-383q-2 -26 -2 -30q0 -70 39 -110t100 -40q120 0 170 114l59 -24q-69 -148 -242 -148q-82 0 -139 56.5t-57 150.5q0 119 82.5 203t215.5 84q81 0 128.5 -42t47.5 -111zM449 324q0 49 -32 75.5t-87 26.5q-71 0 -125 -40t-78 -106h317
q5 22 5 44zM339 555l-81 103l4 12h71l44 -76l84 76h87l-4 -12l-144 -103h-61z" />
    <glyph glyph-name="Gcircumflex" unicode="&#x11c;" horiz-adv-x="808" 
d="M358 -10q-115 0 -193.5 82.5t-78.5 212.5q-3 182 125 305t315 120q127 0 202 -64t88 -172l-69 -21q-14 99 -71.5 146t-162.5 47q-147 2 -251 -100t-102 -256q0 -110 59 -173t157 -63q112 0 191 67q80 68 113 168h-333l21 64h418l-115 -353h-61l52 158q-95 -168 -304 -168
zM415 781l4 12l147 103h58l81 -103l-4 -12h-73l-42 76l-87 -76h-84z" />
    <glyph glyph-name="gcircumflex" unicode="&#x11d;" horiz-adv-x="586" 
d="M-20 -53l66 15q1 -52 35.5 -82t92.5 -30q144 0 207 183l17 48q-66 -81 -180 -81q-72 0 -124.5 51t-52.5 134q-2 128 83 214.5t212 84.5q64 0 107 -30.5t53 -68.5l29 89h68l-149 -457q-74 -225 -284 -225q-78 0 -126.5 41.5t-53.5 113.5zM466 299q0 53 -37.5 90t-99.5 37
q-93 0 -156 -63t-63 -166q0 -65 34.5 -102t92.5 -37q91 -2 160.5 71t68.5 170zM234 555l4 12l147 103h58l81 -103l-4 -12h-73l-42 76l-87 -76h-84z" />
    <glyph glyph-name="Gbreve" unicode="&#x11e;" horiz-adv-x="808" 
d="M358 -10q-115 0 -193.5 82.5t-78.5 212.5q-3 182 125 305t315 120q127 0 202 -64t88 -172l-69 -21q-14 99 -71.5 146t-162.5 47q-147 2 -251 -100t-102 -256q0 -110 59 -173t157 -63q112 0 191 67q80 68 113 168h-333l21 64h418l-115 -353h-61l52 158q-95 -168 -304 -168
zM469 859q0 23 10 42h59q-8 -18 -8 -31q0 -16 13 -26t34 -10q73 0 75 67h61q0 -57 -38 -88t-106 -31q-46 0 -72.5 20t-27.5 57z" />
    <glyph glyph-name="gbreve" unicode="&#x11f;" horiz-adv-x="586" 
d="M-20 -53l66 15q1 -52 35.5 -82t92.5 -30q144 0 207 183l17 48q-66 -81 -180 -81q-72 0 -124.5 51t-52.5 134q-2 128 83 214.5t212 84.5q64 0 107 -30.5t53 -68.5l29 89h68l-149 -457q-74 -225 -284 -225q-78 0 -126.5 41.5t-53.5 113.5zM466 299q0 53 -37.5 90t-99.5 37
q-93 0 -156 -63t-63 -166q0 -65 34.5 -102t92.5 -37q91 -2 160.5 71t68.5 170zM291 633q0 23 10 42h59q-8 -18 -8 -31q0 -16 13 -26t34 -10q73 0 75 67h61q0 -57 -38 -88t-106 -31q-46 0 -72.5 20t-27.5 57z" />
    <glyph glyph-name="Gdotaccent" unicode="&#x120;" horiz-adv-x="808" 
d="M358 -10q-115 0 -193.5 82.5t-78.5 212.5q-3 182 125 305t315 120q127 0 202 -64t88 -172l-69 -21q-14 99 -71.5 146t-162.5 47q-147 2 -251 -100t-102 -256q0 -110 59 -173t157 -63q112 0 191 67q80 68 113 168h-333l21 64h418l-115 -353h-61l52 158q-95 -168 -304 -168
zM542 818l26 83h78l-26 -83h-78z" />
    <glyph glyph-name="gdotaccent" unicode="&#x121;" horiz-adv-x="586" 
d="M-20 -53l66 15q1 -52 35.5 -82t92.5 -30q144 0 207 183l17 48q-66 -81 -180 -81q-72 0 -124.5 51t-52.5 134q-2 128 83 214.5t212 84.5q64 0 107 -30.5t53 -68.5l29 89h68l-149 -457q-74 -225 -284 -225q-78 0 -126.5 41.5t-53.5 113.5zM466 299q0 53 -37.5 90t-99.5 37
q-93 0 -156 -63t-63 -166q0 -65 34.5 -102t92.5 -37q91 -2 160.5 71t68.5 170zM347 571l26 83h78l-26 -83h-78z" />
    <glyph glyph-name="Gcommaaccent" unicode="&#x122;" horiz-adv-x="808" 
d="M358 -10q-115 0 -193.5 82.5t-78.5 212.5q-3 182 125 305t315 120q127 0 202 -64t88 -172l-69 -21q-14 99 -71.5 146t-162.5 47q-147 2 -251 -100t-102 -256q0 -110 59 -173t157 -63q112 0 191 67q80 68 113 168h-333l21 64h418l-115 -353h-61l52 158q-95 -168 -304 -168
zM198 -225l18 30q19 -8 35 -8q21 0 34 9.5t13 27.5q0 28 -32 28h-8l28 86h86l-38 -116q-22 -68 -93 -68q-29 0 -43 11z" />
    <glyph glyph-name="gcommaaccent" unicode="&#x123;" horiz-adv-x="586" 
d="M-20 -53l66 15q1 -52 35.5 -82t92.5 -30q144 0 207 183l17 48q-66 -81 -180 -81q-72 0 -124.5 51t-52.5 134q-2 128 83 214.5t212 84.5q64 0 107 -30.5t53 -68.5l29 89h68l-149 -457q-74 -225 -284 -225q-78 0 -126.5 41.5t-53.5 113.5zM466 299q0 53 -37.5 90t-99.5 37
q-93 0 -156 -63t-63 -166q0 -65 34.5 -102t92.5 -37q91 -2 160.5 71t68.5 170zM363 542l37 114q14 43 35.5 58.5t61.5 15.5h37l-14 -43h-33q-20 0 -32.5 -9.5t-12.5 -25.5q0 -24 27 -24h8l-28 -86h-86z" />
    <glyph glyph-name="Hcircumflex" unicode="&#x124;" horiz-adv-x="728" 
d="M598 313h-419l-102 -313h-74l228 700h74l-105 -323h419l105 323h74l-228 -700h-74zM387 781l4 12l147 103h58l81 -103l-4 -12h-73l-42 76l-87 -76h-84z" />
    <glyph glyph-name="hcircumflex" unicode="&#x125;" horiz-adv-x="546" 
d="M-7 0l228 700h68l-102 -315q65 99 181 99q61 0 98 -37.5t37 -92.5q0 -34 -12 -72l-92 -282h-68l96 294q8 26 8 50q-1 37 -25.5 59.5t-66.5 22.5q-62 0 -120.5 -54.5t-84.5 -134.5l-77 -237h-68zM135 781l4 12l147 103h58l81 -103l-4 -12h-73l-42 76l-87 -76h-84z" />
    <glyph glyph-name="Hbar" unicode="&#x126;" horiz-adv-x="728" 
d="M598 313h-419l-102 -313h-74l228 700h74l-105 -323h419l105 323h74l-228 -700h-74zM113 577h724l-19 -58h-724z" />
    <glyph glyph-name="hbar" unicode="&#x127;" horiz-adv-x="546" 
d="M-7 0l228 700h68l-102 -315q65 99 181 99q61 0 98 -37.5t37 -92.5q0 -34 -12 -72l-92 -282h-68l96 294q8 26 8 50q-1 37 -25.5 59.5t-66.5 22.5q-62 0 -120.5 -54.5t-84.5 -134.5l-77 -237h-68zM128 623h293l-17 -52h-293z" />
    <glyph glyph-name="Itilde" unicode="&#x128;" horiz-adv-x="235" 
d="M3 0l228 700h74l-228 -700h-74zM201 789l-49 6q2 41 32 69.5t73 28.5q34 0 70 -31q29 -23 48 -23q20 0 34 15t18 39l49 -6q-5 -43 -34.5 -70.5t-70.5 -27.5q-34 0 -70 31q-29 23 -48 23q-21 0 -35.5 -15.5t-16.5 -38.5z" />
    <glyph glyph-name="itilde" unicode="&#x129;" horiz-adv-x="208" 
d="M147 474h68l-154 -474h-68zM114 563l-49 6q2 41 32 69.5t73 28.5q34 0 70 -31q29 -23 48 -23q20 0 34 15t18 39l49 -6q-5 -43 -34.5 -70.5t-70.5 -27.5q-34 0 -70 31q-29 23 -48 23q-21 0 -35.5 -15.5t-16.5 -38.5z" />
    <glyph glyph-name="Imacron" unicode="&#x12a;" horiz-adv-x="235" 
d="M3 0l228 700h74l-228 -700h-74zM180 812l18 58h248l-18 -58h-248z" />
    <glyph glyph-name="imacron" unicode="&#x12b;" horiz-adv-x="208" 
d="M147 474h68l-154 -474h-68zM93 586l18 58h248l-18 -58h-248z" />
    <glyph glyph-name="Ibreve" unicode="&#x12c;" horiz-adv-x="235" 
d="M3 0l228 700h74l-228 -700h-74zM194 859q0 23 10 42h59q-8 -18 -8 -31q0 -16 13 -26t34 -10q73 0 75 67h61q0 -57 -38 -88t-106 -31q-46 0 -72.5 20t-27.5 57z" />
    <glyph glyph-name="ibreve" unicode="&#x12d;" horiz-adv-x="208" 
d="M147 474h68l-154 -474h-68zM118 633q0 23 10 42h59q-8 -18 -8 -31q0 -16 13 -26t34 -10q73 0 75 67h61q0 -57 -38 -88t-106 -31q-46 0 -72.5 20t-27.5 57z" />
    <glyph glyph-name="Iogonek" unicode="&#x12e;" horiz-adv-x="235" 
d="M3 0l228 700h74l-228 -700h-74zM-12 -185q-33 0 -52.5 19.5t-19.5 49.5q0 34 29 66t77 50h53q-42 -19 -69 -46t-27 -51q0 -30 32 -30q18 0 38 11l14 -51q-33 -18 -75 -18z" />
    <glyph glyph-name="iogonek" unicode="&#x12f;" horiz-adv-x="208" 
d="M147 474h68l-154 -474h-68zM174 571l26 83h78l-26 -83h-78zM-28 -185q-33 0 -52.5 19.5t-19.5 49.5q0 34 29 66t77 50h53q-42 -19 -69 -46t-27 -51q0 -30 32 -30q18 0 38 11l14 -51q-33 -18 -75 -18z" />
    <glyph glyph-name="Idot" unicode="&#x130;" horiz-adv-x="235" 
d="M3 0l228 700h74l-228 -700h-74zM267 818l26 83h78l-26 -83h-78z" />
    <glyph glyph-name="dotlessi" unicode="&#x131;" horiz-adv-x="208" 
d="M147 474h68l-154 -474h-68z" />
    <glyph glyph-name="IJ" unicode="&#x132;" horiz-adv-x="835" 
d="M3 0l228 700h74l-228 -700h-74zM272 168q0 94 69 163l50 -38q-46 -57 -46 -123q0 -50 36 -83t97 -33q81 0 132.5 48t85.5 153l144 445h70l-153 -475q-39 -120 -107.5 -177.5t-180.5 -57.5q-89 0 -143 51.5t-54 126.5z" />
    <glyph glyph-name="ij" unicode="&#x133;" horiz-adv-x="416" 
d="M147 474h68l-154 -474h-68zM174 571l26 83h78l-26 -83h-78zM137 -198l218 672h68l-218 -672h-68zM382 571l26 83h78l-26 -83h-78z" />
    <glyph glyph-name="Jcircumflex" unicode="&#x134;" horiz-adv-x="600" 
d="M37 168q0 94 69 163l50 -38q-46 -57 -46 -123q0 -50 36 -83t97 -33q81 0 132.5 48t85.5 153l144 445h70l-153 -475q-39 -120 -107.5 -177.5t-180.5 -57.5q-89 0 -143 51.5t-54 126.5zM512 781l4 12l147 103h58l81 -103l-4 -12h-73l-42 76l-87 -76h-84z" />
    <glyph glyph-name="jcircumflex" unicode="&#x135;" horiz-adv-x="208" 
d="M-71 -198l218 672h68l-218 -672h-68zM61 555l4 12l147 103h58l81 -103l-4 -12h-73l-42 76l-87 -76h-84z" />
    <glyph glyph-name="Kcommaaccent" unicode="&#x136;" horiz-adv-x="651" 
d="M420 427l128 -427h-75l-114 377l-219 -172l-67 -205h-70l228 700h70l-127 -392l489 392h102zM122 -225l18 30q19 -8 35 -8q21 0 34 9.5t13 27.5q0 28 -32 28h-8l28 86h86l-38 -116q-22 -68 -93 -68q-29 0 -43 11z" />
    <glyph glyph-name="kcommaaccent" unicode="&#x137;" horiz-adv-x="494" 
d="M523 474l-237 -190l105 -284h-73l-88 238l-124 -99l-45 -139h-68l228 700h68l-149 -457l287 231h96zM44 -225l18 30q19 -8 35 -8q21 0 34 9.5t13 27.5q0 28 -32 28h-8l28 86h86l-38 -116q-22 -68 -93 -68q-29 0 -43 11z" />
    <glyph glyph-name="kgreenlandic" unicode="&#x138;" horiz-adv-x="445" 
d="M-7 0l154 474h68l-68 -210l247 210h94l-283 -232l137 -242h-74l-131 232l-76 -232h-68z" />
    <glyph glyph-name="Lacute" unicode="&#x139;" horiz-adv-x="630" 
d="M231 700h74l-207 -636h434l-21 -64h-508zM251 782l103 133h100l-4 -12l-134 -121h-65z" />
    <glyph glyph-name="lacute" unicode="&#x13a;" horiz-adv-x="209" 
d="M-7 0l228 700h68l-228 -700h-68zM250 781l103 133h100l-4 -12l-134 -121h-65z" />
    <glyph glyph-name="Lcommaaccent" unicode="&#x13b;" horiz-adv-x="630" 
d="M231 700h74l-207 -636h434l-21 -64h-508zM99 -225l18 30q19 -8 35 -8q21 0 34 9.5t13 27.5q0 28 -32 28h-8l28 86h86l-38 -116q-22 -68 -93 -68q-29 0 -43 11z" />
    <glyph glyph-name="lcommaaccent" unicode="&#x13c;" horiz-adv-x="209" 
d="M-7 0l228 700h68l-228 -700h-68zM-121 -225l18 30q19 -8 35 -8q21 0 34 9.5t13 27.5q0 28 -32 28h-8l28 86h86l-38 -116q-22 -68 -93 -68q-29 0 -43 11z" />
    <glyph glyph-name="Lcaron" unicode="&#x13d;" horiz-adv-x="630" 
d="M231 700h74l-207 -636h434l-21 -64h-508zM574 512l14 43h27q44 0 44 33q0 26 -28 26h-6l28 86h86l-37 -111q-15 -44 -37 -60.5t-62 -16.5h-29z" />
    <glyph glyph-name="lcaron" unicode="&#x13e;" horiz-adv-x="283" 
d="M-7 0l228 700h68l-228 -700h-68zM268 512l14 43h27q44 0 44 33q0 26 -28 26h-6l28 86h86l-37 -111q-15 -44 -37 -60.5t-62 -16.5h-29z" />
    <glyph glyph-name="Ldot" unicode="&#x13f;" horiz-adv-x="630" 
d="M231 700h74l-207 -636h434l-21 -64h-508zM421 393h86l-28 -86h-86z" />
    <glyph glyph-name="ldot" unicode="&#x140;" horiz-adv-x="382" 
d="M-7 0l228 700h68l-228 -700h-68zM303 393h86l-28 -86h-86z" />
    <glyph glyph-name="Lslash" unicode="&#x141;" horiz-adv-x="630" 
d="M231 700h74l-207 -636h434l-21 -64h-508zM37 265l-22 50l332 151l21 -48z" />
    <glyph glyph-name="lslash" unicode="&#x142;" horiz-adv-x="209" 
d="M-7 0l228 700h68l-228 -700h-68zM3 257l-22 50l299 135l21 -48z" />
    <glyph glyph-name="Nacute" unicode="&#x143;" horiz-adv-x="759" 
d="M290 655l-213 -655h-74l228 700h113l198 -655l213 655h74l-228 -700h-113zM515 782l103 133h100l-4 -12l-134 -121h-65z" />
    <glyph glyph-name="nacute" unicode="&#x144;" horiz-adv-x="540" 
d="M-7 0l154 474h68l-28 -87q70 97 179 97q61 0 97 -35t36 -93q0 -30 -13 -69l-93 -287h-68l96 294q8 27 8 49q0 37 -23 60t-62 23q-60 0 -116.5 -47t-82.5 -123l-84 -256h-68zM332 555l103 133h100l-4 -12l-134 -121h-65z" />
    <glyph glyph-name="Ncommaaccent" unicode="&#x145;" horiz-adv-x="759" 
d="M290 655l-213 -655h-74l228 700h113l198 -655l213 655h74l-228 -700h-113zM155 -225l18 30q19 -8 35 -8q21 0 34 9.5t13 27.5q0 28 -32 28h-8l28 86h86l-38 -116q-22 -68 -93 -68q-29 0 -43 11z" />
    <glyph glyph-name="ncommaaccent" unicode="&#x146;" horiz-adv-x="540" 
d="M-7 0l154 474h68l-28 -87q70 97 179 97q61 0 97 -35t36 -93q0 -30 -13 -69l-93 -287h-68l96 294q8 27 8 49q0 37 -23 60t-62 23q-60 0 -116.5 -47t-82.5 -123l-84 -256h-68zM45 -225l18 30q19 -8 35 -8q21 0 34 9.5t13 27.5q0 28 -32 28h-8l28 86h86l-38 -116
q-22 -68 -93 -68q-29 0 -43 11z" />
    <glyph glyph-name="Ncaron" unicode="&#x147;" horiz-adv-x="759" 
d="M290 655l-213 -655h-74l228 700h113l198 -655l213 655h74l-228 -700h-113zM518 781l-81 103l4 12h71l44 -76l84 76h87l-4 -12l-144 -103h-61z" />
    <glyph glyph-name="ncaron" unicode="&#x148;" horiz-adv-x="540" 
d="M-7 0l154 474h68l-28 -87q70 97 179 97q61 0 97 -35t36 -93q0 -30 -13 -69l-93 -287h-68l96 294q8 27 8 49q0 37 -23 60t-62 23q-60 0 -116.5 -47t-82.5 -123l-84 -256h-68zM329 555l-81 103l4 12h71l44 -76l84 76h87l-4 -12l-144 -103h-61z" />
    <glyph glyph-name="Eng" unicode="&#x14a;" horiz-adv-x="759" 
d="M256 -92l66 23q4 -75 72 -75q42 0 73 26t46 74l14 44h-39l-198 655l-213 -655h-74l228 700h113l198 -655l213 655h74l-244 -749q-26 -82 -76.5 -120.5t-131.5 -38.5q-51 0 -85.5 32.5t-35.5 83.5z" />
    <glyph glyph-name="eng" unicode="&#x14b;" horiz-adv-x="540" 
d="M133 -129l61 22q8 -41 45 -41t53 48l129 394q8 27 8 49q0 37 -23 60t-62 23q-60 0 -116.5 -47t-82.5 -123l-84 -256h-68l154 474h68l-28 -87q70 97 179 97q61 0 97 -35t36 -93q0 -30 -13 -69l-128 -394q-33 -101 -133 -101q-39 0 -64.5 22t-27.5 57z" />
    <glyph glyph-name="Omacron" unicode="&#x14c;" horiz-adv-x="850" 
d="M86 291q-1 82 32.5 158.5t92.5 134.5t146 92.5t185 33.5q135 0 215.5 -82.5t80.5 -216.5q1 -82 -32.5 -159t-92.5 -135.5t-146 -93t-185 -33.5q-132 0 -214 83.5t-82 217.5zM764 407q0 113 -63.5 176t-175.5 63q-153 3 -260.5 -104.5t-104.5 -246.5q0 -113 64.5 -177
t174.5 -64q100 -2 186 48.5t133.5 132.5t45.5 172zM456 812l18 58h248l-18 -58h-248z" />
    <glyph glyph-name="omacron" unicode="&#x14d;" horiz-adv-x="580" 
d="M39 181q0 129 86.5 216t224.5 87q85 0 138 -53.5t53 -137.5q0 -129 -86.5 -216t-224.5 -87q-83 0 -137 54t-54 137zM469 286q0 63 -37 101.5t-97 38.5q-94 1 -160 -71t-64 -167q0 -63 37 -101.5t97 -38.5q94 -1 160 71t64 167zM259 586l18 58h248l-18 -58h-248z" />
    <glyph glyph-name="Obreve" unicode="&#x14e;" horiz-adv-x="850" 
d="M86 291q-1 82 32.5 158.5t92.5 134.5t146 92.5t185 33.5q135 0 215.5 -82.5t80.5 -216.5q1 -82 -32.5 -159t-92.5 -135.5t-146 -93t-185 -33.5q-132 0 -214 83.5t-82 217.5zM764 407q0 113 -63.5 176t-175.5 63q-153 3 -260.5 -104.5t-104.5 -246.5q0 -113 64.5 -177
t174.5 -64q100 -2 186 48.5t133.5 132.5t45.5 172zM470 859q0 23 10 42h59q-8 -18 -8 -31q0 -16 13 -26t34 -10q73 0 75 67h61q0 -57 -38 -88t-106 -31q-46 0 -72.5 20t-27.5 57z" />
    <glyph glyph-name="obreve" unicode="&#x14f;" horiz-adv-x="580" 
d="M39 181q0 129 86.5 216t224.5 87q85 0 138 -53.5t53 -137.5q0 -129 -86.5 -216t-224.5 -87q-83 0 -137 54t-54 137zM469 286q0 63 -37 101.5t-97 38.5q-94 1 -160 -71t-64 -167q0 -63 37 -101.5t97 -38.5q94 -1 160 71t64 167zM284 633q0 23 10 42h59q-8 -18 -8 -31
q0 -16 13 -26t34 -10q73 0 75 67h61q0 -57 -38 -88t-106 -31q-46 0 -72.5 20t-27.5 57z" />
    <glyph glyph-name="Ohungarumlaut" unicode="&#x150;" horiz-adv-x="850" 
d="M86 291q-1 82 32.5 158.5t92.5 134.5t146 92.5t185 33.5q135 0 215.5 -82.5t80.5 -216.5q1 -82 -32.5 -159t-92.5 -135.5t-146 -93t-185 -33.5q-132 0 -214 83.5t-82 217.5zM764 407q0 113 -63.5 176t-175.5 63q-153 3 -260.5 -104.5t-104.5 -246.5q0 -113 64.5 -177
t174.5 -64q100 -2 186 48.5t133.5 132.5t45.5 172zM442 781l103 133h100l-4 -12l-134 -121h-65zM604 781l103 133h100l-4 -12l-134 -121h-65z" />
    <glyph glyph-name="ohungarumlaut" unicode="&#x151;" horiz-adv-x="580" 
d="M39 181q0 129 86.5 216t224.5 87q85 0 138 -53.5t53 -137.5q0 -129 -86.5 -216t-224.5 -87q-83 0 -137 54t-54 137zM469 286q0 63 -37 101.5t-97 38.5q-94 1 -160 -71t-64 -167q0 -63 37 -101.5t97 -38.5q94 -1 160 71t64 167zM257 555l103 133h100l-4 -12l-134 -121h-65
zM419 555l103 133h100l-4 -12l-134 -121h-65z" />
    <glyph glyph-name="OE" unicode="&#x152;" horiz-adv-x="1265" 
d="M83 281q-1 84 33.5 162.5t94 138t146 95t182.5 33.5q103 0 177 -54q75 -53 97 -143l61 187h472l-21 -64h-398l-79 -242h368l-20 -64h-368l-87 -266h408l-21 -64h-482l39 118q-48 -63 -128 -95.5t-178 -32.5q-133 0 -214.5 81t-81.5 210zM764 415q0 108 -65 169.5
t-177 61.5q-100 2 -185.5 -49.5t-133.5 -135.5t-46 -176q0 -108 64 -169.5t175 -61.5q153 -3 261.5 107.5t106.5 253.5z" />
    <glyph glyph-name="oe" unicode="&#x153;" horiz-adv-x="968" 
d="M39 181q0 129 86.5 216t224.5 87q63 0 109 -32.5t64 -90.5q36 58 99 90.5t141 32.5q81 0 128.5 -42t47.5 -111q0 -37 -15 -89l-4 -14h-383q-2 -26 -2 -30q0 -70 39 -110t100 -40q120 0 170 114l59 -24q-69 -148 -242 -148q-64 0 -113 35t-67 99q-80 -134 -251 -134
q-83 0 -137 54t-54 137zM469 286q0 63 -37 101.5t-97 38.5q-94 1 -160 -71t-64 -167q0 -63 37 -101.5t97 -38.5q94 -1 160 71t64 167zM549 280h317q5 22 5 44q0 49 -32 75.5t-87 26.5q-71 0 -125 -40t-78 -106z" />
    <glyph glyph-name="Racute" unicode="&#x154;" horiz-adv-x="663" 
d="M3 0l228 700h267q86 0 138.5 -47.5t52.5 -122.5q0 -82 -51 -135t-137 -68q64 -23 64 -93q0 -28 -14 -75q-22 -73 -22 -102q0 -22 14 -45l-4 -12h-72q-10 26 -10 50q0 40 18 93q16 47 16 75q0 45 -28 65.5t-87 20.5h-200l-99 -304h-74zM197 368h222q90 0 141 42t51 115
q0 52 -33.5 81.5t-93.5 29.5h-200zM430 782l103 133h100l-4 -12l-134 -121h-65z" />
    <glyph glyph-name="racute" unicode="&#x155;" horiz-adv-x="432" 
d="M-7 0l154 474h68l-22 -69q60 79 148 79q45 0 70 -24t25 -65q0 -33 -17 -78h-65q14 34 14 56q0 53 -64 53q-46 0 -87.5 -39t-61.5 -100l-94 -287h-68zM306 555l103 133h100l-4 -12l-134 -121h-65z" />
    <glyph glyph-name="Rcommaaccent" unicode="&#x156;" horiz-adv-x="663" 
d="M3 0l228 700h267q86 0 138.5 -47.5t52.5 -122.5q0 -82 -51 -135t-137 -68q64 -23 64 -93q0 -28 -14 -75q-22 -73 -22 -102q0 -22 14 -45l-4 -12h-72q-10 26 -10 50q0 40 18 93q16 47 16 75q0 45 -28 65.5t-87 20.5h-200l-99 -304h-74zM197 368h222q90 0 141 42t51 115
q0 52 -33.5 81.5t-93.5 29.5h-200zM124 -225l18 30q19 -8 35 -8q21 0 34 9.5t13 27.5q0 28 -32 28h-8l28 86h86l-38 -116q-22 -68 -93 -68q-29 0 -43 11z" />
    <glyph glyph-name="rcommaaccent" unicode="&#x157;" horiz-adv-x="432" 
d="M-7 0l154 474h68l-22 -69q60 79 148 79q45 0 70 -24t25 -65q0 -33 -17 -78h-65q14 34 14 56q0 53 -64 53q-46 0 -87.5 -39t-61.5 -100l-94 -287h-68zM-121 -225l18 30q19 -8 35 -8q21 0 34 9.5t13 27.5q0 28 -32 28h-8l28 86h86l-38 -116q-22 -68 -93 -68q-29 0 -43 11z
" />
    <glyph glyph-name="Rcaron" unicode="&#x158;" horiz-adv-x="663" 
d="M3 0l228 700h267q86 0 138.5 -47.5t52.5 -122.5q0 -82 -51 -135t-137 -68q64 -23 64 -93q0 -28 -14 -75q-22 -73 -22 -102q0 -22 14 -45l-4 -12h-72q-10 26 -10 50q0 40 18 93q16 47 16 75q0 45 -28 65.5t-87 20.5h-200l-99 -304h-74zM197 368h222q90 0 141 42t51 115
q0 52 -33.5 81.5t-93.5 29.5h-200zM433 781l-81 103l4 12h71l44 -76l84 76h87l-4 -12l-144 -103h-61z" />
    <glyph glyph-name="rcaron" unicode="&#x159;" horiz-adv-x="432" 
d="M-7 0l154 474h68l-22 -69q60 79 148 79q45 0 70 -24t25 -65q0 -33 -17 -78h-65q14 34 14 56q0 53 -64 53q-46 0 -87.5 -39t-61.5 -100l-94 -287h-68zM303 555l-81 103l4 12h71l44 -76l84 76h87l-4 -12l-144 -103h-61z" />
    <glyph glyph-name="Sacute" unicode="&#x15a;" horiz-adv-x="643" 
d="M417 646q-69 0 -118.5 -36t-49.5 -93q0 -52 35 -76.5t121 -48.5q92 -24 135 -66t43 -119q0 -99 -81 -158t-215 -59q-118 0 -184 65t-69 177l71 16q0 -93 50 -143.5t141 -50.5q93 0 153 40.5t60 105.5q0 59 -35.5 87.5t-132.5 55.5q-82 23 -123 62t-41 108
q0 86 71.5 141.5t185.5 55.5q98 0 156.5 -47t65.5 -133l-71 -12q-4 64 -48 96t-120 32zM435 782l103 133h100l-4 -12l-134 -121h-65z" />
    <glyph glyph-name="sacute" unicode="&#x15b;" horiz-adv-x="483" 
d="M9 145l61 15q2 -52 37 -82t94 -30q63 0 101 26t38 69q0 33 -24.5 51t-89.5 33q-126 29 -126 128q0 60 48 94.5t129 34.5q68 0 109.5 -31.5t49.5 -88.5l-58 -11q-6 35 -34 57t-72 22q-50 0 -80 -21t-30 -57q0 -29 27.5 -48t84.5 -31q134 -28 134 -126q0 -70 -58 -114.5
t-151 -44.5q-88 0 -137 43t-53 112zM282 555l103 133h100l-4 -12l-134 -121h-65z" />
    <glyph glyph-name="Scircumflex" unicode="&#x15c;" horiz-adv-x="643" 
d="M417 646q-69 0 -118.5 -36t-49.5 -93q0 -52 35 -76.5t121 -48.5q92 -24 135 -66t43 -119q0 -99 -81 -158t-215 -59q-118 0 -184 65t-69 177l71 16q0 -93 50 -143.5t141 -50.5q93 0 153 40.5t60 105.5q0 59 -35.5 87.5t-132.5 55.5q-82 23 -123 62t-41 108
q0 86 71.5 141.5t185.5 55.5q98 0 156.5 -47t65.5 -133l-71 -12q-4 64 -48 96t-120 32zM322 781l4 12l147 103h58l81 -103l-4 -12h-73l-42 76l-87 -76h-84z" />
    <glyph glyph-name="scircumflex" unicode="&#x15d;" horiz-adv-x="483" 
d="M9 145l61 15q2 -52 37 -82t94 -30q63 0 101 26t38 69q0 33 -24.5 51t-89.5 33q-126 29 -126 128q0 60 48 94.5t129 34.5q68 0 109.5 -31.5t49.5 -88.5l-58 -11q-6 35 -34 57t-72 22q-50 0 -80 -21t-30 -57q0 -29 27.5 -48t84.5 -31q134 -28 134 -126q0 -70 -58 -114.5
t-151 -44.5q-88 0 -137 43t-53 112zM167 555l4 12l147 103h58l81 -103l-4 -12h-73l-42 76l-87 -76h-84z" />
    <glyph glyph-name="Scedilla" unicode="&#x15e;" horiz-adv-x="643" 
d="M417 646q-69 0 -118.5 -36t-49.5 -93q0 -52 35 -76.5t121 -48.5q92 -24 135 -66t43 -119q0 -99 -81 -158t-215 -59q-118 0 -184 65t-69 177l71 16q0 -93 50 -143.5t141 -50.5q93 0 153 40.5t60 105.5q0 59 -35.5 87.5t-132.5 55.5q-82 23 -123 62t-41 108
q0 86 71.5 141.5t185.5 55.5q98 0 156.5 -47t65.5 -133l-71 -12q-4 64 -48 96t-120 32zM175 -120l40 9q2 -17 14.5 -28t31.5 -11q26 0 39.5 13.5t13.5 35.5q0 16 -9.5 27t-26.5 11q-29 0 -47 -27l-39 18q20 27 49 88h45l-15 -24q-19 -31 -33 -47q24 25 55 25q26 0 43.5 -18
t17.5 -47q0 -42 -26.5 -67.5t-72.5 -25.5q-31 0 -54 19t-26 49z" />
    <glyph glyph-name="scedilla" unicode="&#x15f;" horiz-adv-x="483" 
d="M9 145l61 15q2 -52 37 -82t94 -30q63 0 101 26t38 69q0 33 -24.5 51t-89.5 33q-126 29 -126 128q0 60 48 94.5t129 34.5q68 0 109.5 -31.5t49.5 -88.5l-58 -11q-6 35 -34 57t-72 22q-50 0 -80 -21t-30 -57q0 -29 27.5 -48t84.5 -31q134 -28 134 -126q0 -70 -58 -114.5
t-151 -44.5q-88 0 -137 43t-53 112zM81 -120l40 9q2 -17 14.5 -28t31.5 -11q26 0 39.5 13.5t13.5 35.5q0 16 -9.5 27t-26.5 11q-29 0 -47 -27l-39 18q20 27 49 88h45l-15 -24q-19 -31 -33 -47q24 25 55 25q26 0 43.5 -18t17.5 -47q0 -42 -26.5 -67.5t-72.5 -25.5
q-31 0 -54 19t-26 49z" />
    <glyph glyph-name="Scaron" unicode="&#x160;" horiz-adv-x="643" 
d="M417 646q-69 0 -118.5 -36t-49.5 -93q0 -52 35 -76.5t121 -48.5q92 -24 135 -66t43 -119q0 -99 -81 -158t-215 -59q-118 0 -184 65t-69 177l71 16q0 -93 50 -143.5t141 -50.5q93 0 153 40.5t60 105.5q0 59 -35.5 87.5t-132.5 55.5q-82 23 -123 62t-41 108
q0 86 71.5 141.5t185.5 55.5q98 0 156.5 -47t65.5 -133l-71 -12q-4 64 -48 96t-120 32zM438 781l-81 103l4 12h71l44 -76l84 76h87l-4 -12l-144 -103h-61z" />
    <glyph glyph-name="scaron" unicode="&#x161;" horiz-adv-x="483" 
d="M9 145l61 15q2 -52 37 -82t94 -30q63 0 101 26t38 69q0 33 -24.5 51t-89.5 33q-126 29 -126 128q0 60 48 94.5t129 34.5q68 0 109.5 -31.5t49.5 -88.5l-58 -11q-6 35 -34 57t-72 22q-50 0 -80 -21t-30 -57q0 -29 27.5 -48t84.5 -31q134 -28 134 -126q0 -70 -58 -114.5
t-151 -44.5q-88 0 -137 43t-53 112zM279 555l-81 103l4 12h71l44 -76l84 76h87l-4 -12l-144 -103h-61z" />
    <glyph glyph-name="uni0162" unicode="&#x162;" horiz-adv-x="667" 
d="M783 700l-21 -64h-262l-207 -636h-74l207 636h-262l21 64h598zM174 -120l40 9q2 -17 14.5 -28t31.5 -11q26 0 39.5 13.5t13.5 35.5q0 16 -9.5 27t-26.5 11q-29 0 -47 -27l-39 18q20 27 49 88h45l-15 -24q-19 -31 -33 -47q24 25 55 25q26 0 43.5 -18t17.5 -47
q0 -42 -26.5 -67.5t-72.5 -25.5q-31 0 -54 19t-26 49z" />
    <glyph glyph-name="uni0163" unicode="&#x163;" horiz-adv-x="347" 
d="M43 0l137 422h-92l17 52h92l46 141h68l-46 -141h137l-17 -52h-137l-137 -422h-68zM-2 -120l40 9q2 -17 14.5 -28t31.5 -11q26 0 39.5 13.5t13.5 35.5q0 16 -9.5 27t-26.5 11q-29 0 -47 -27l-39 18q20 27 49 88h45l-15 -24q-19 -31 -33 -47q24 25 55 25q26 0 43.5 -18
t17.5 -47q0 -42 -26.5 -67.5t-72.5 -25.5q-31 0 -54 19t-26 49z" />
    <glyph glyph-name="Tcaron" unicode="&#x164;" horiz-adv-x="667" 
d="M783 700l-21 -64h-262l-207 -636h-74l207 636h-262l21 64h598zM472 781l-81 103l4 12h71l44 -76l84 76h87l-4 -12l-144 -103h-61z" />
    <glyph glyph-name="tcaron" unicode="&#x165;" horiz-adv-x="347" 
d="M43 0l137 422h-92l17 52h92l46 141h68l-46 -141h137l-17 -52h-137l-137 -422h-68zM335 528l14 43h27q44 0 44 33q0 26 -28 26h-6l28 86h86l-37 -111q-15 -44 -37 -60.5t-62 -16.5h-29z" />
    <glyph glyph-name="Tbar" unicode="&#x166;" horiz-adv-x="667" 
d="M783 700l-21 -64h-262l-207 -636h-74l207 636h-262l21 64h598zM202 379h354l-18 -58h-354z" />
    <glyph glyph-name="tbar" unicode="&#x167;" horiz-adv-x="347" 
d="M43 0l137 422h-92l17 52h92l46 141h68l-46 -141h137l-17 -52h-137l-137 -422h-68zM64 302h293l-17 -52h-293z" />
    <glyph glyph-name="Utilde" unicode="&#x168;" horiz-adv-x="718" 
d="M78 193q0 60 19 116l127 391h74l-132 -408q-16 -48 -16 -100q0 -64 44.5 -101t122.5 -37q93 0 163.5 60.5t104.5 167.5l135 418h74l-138 -427q-46 -142 -136 -212.5t-215 -70.5q-104 0 -165.5 55t-61.5 148zM436 789l-49 6q2 41 32 69.5t73 28.5q34 0 70 -31
q29 -23 48 -23q20 0 34 15t18 39l49 -6q-5 -43 -34.5 -70.5t-70.5 -27.5q-34 0 -70 31q-29 23 -48 23q-21 0 -35.5 -15.5t-16.5 -38.5z" />
    <glyph glyph-name="utilde" unicode="&#x169;" horiz-adv-x="540" 
d="M41 118q0 30 13 69l93 287h68l-96 -294q-8 -27 -8 -49q0 -37 23 -60t62 -23q60 0 116.5 47t82.5 123l84 256h68l-154 -474h-68l28 87q-70 -97 -179 -97q-61 0 -97 35t-36 93zM275 563l-49 6q2 41 32 69.5t73 28.5q34 0 70 -31q29 -23 48 -23q20 0 34 15t18 39l49 -6
q-5 -43 -34.5 -70.5t-70.5 -27.5q-34 0 -70 31q-29 23 -48 23q-21 0 -35.5 -15.5t-16.5 -38.5z" />
    <glyph glyph-name="Umacron" unicode="&#x16a;" horiz-adv-x="718" 
d="M78 193q0 60 19 116l127 391h74l-132 -408q-16 -48 -16 -100q0 -64 44.5 -101t122.5 -37q93 0 163.5 60.5t104.5 167.5l135 418h74l-138 -427q-46 -142 -136 -212.5t-215 -70.5q-104 0 -165.5 55t-61.5 148zM415 812l18 58h248l-18 -58h-248z" />
    <glyph glyph-name="umacron" unicode="&#x16b;" horiz-adv-x="540" 
d="M41 118q0 30 13 69l93 287h68l-96 -294q-8 -27 -8 -49q0 -37 23 -60t62 -23q60 0 116.5 47t82.5 123l84 256h68l-154 -474h-68l28 87q-70 -97 -179 -97q-61 0 -97 35t-36 93zM254 586l18 58h248l-18 -58h-248z" />
    <glyph glyph-name="Ubreve" unicode="&#x16c;" horiz-adv-x="718" 
d="M78 193q0 60 19 116l127 391h74l-132 -408q-16 -48 -16 -100q0 -64 44.5 -101t122.5 -37q93 0 163.5 60.5t104.5 167.5l135 418h74l-138 -427q-46 -142 -136 -212.5t-215 -70.5q-104 0 -165.5 55t-61.5 148zM429 859q0 23 10 42h59q-8 -18 -8 -31q0 -16 13 -26t34 -10
q73 0 75 67h61q0 -57 -38 -88t-106 -31q-46 0 -72.5 20t-27.5 57z" />
    <glyph glyph-name="ubreve" unicode="&#x16d;" horiz-adv-x="540" 
d="M41 118q0 30 13 69l93 287h68l-96 -294q-8 -27 -8 -49q0 -37 23 -60t62 -23q60 0 116.5 47t82.5 123l84 256h68l-154 -474h-68l28 87q-70 -97 -179 -97q-61 0 -97 35t-36 93zM279 633q0 23 10 42h59q-8 -18 -8 -31q0 -16 13 -26t34 -10q73 0 75 67h61q0 -57 -38 -88
t-106 -31q-46 0 -72.5 20t-27.5 57z" />
    <glyph glyph-name="Uring" unicode="&#x16e;" horiz-adv-x="718" 
d="M78 193q0 60 19 116l127 391h74l-132 -408q-16 -48 -16 -100q0 -64 44.5 -101t122.5 -37q93 0 163.5 60.5t104.5 167.5l135 418h74l-138 -427q-46 -142 -136 -212.5t-215 -70.5q-104 0 -165.5 55t-61.5 148zM458 853q0 35 24 59t59 24t59 -24t24 -59q0 -34 -24 -58.5
t-59 -24.5t-59 24.5t-24 58.5zM584 853q0 18 -12.5 30.5t-30.5 12.5t-30.5 -12.5t-12.5 -30.5t12.5 -30.5t30.5 -12.5t30.5 12.5t12.5 30.5z" />
    <glyph glyph-name="uring" unicode="&#x16f;" horiz-adv-x="540" 
d="M41 118q0 30 13 69l93 287h68l-96 -294q-8 -27 -8 -49q0 -37 23 -60t62 -23q60 0 116.5 47t82.5 123l84 256h68l-154 -474h-68l28 87q-70 -97 -179 -97q-61 0 -97 35t-36 93zM301 627q0 35 24 59t59 24t59 -24t24 -59q0 -34 -24 -58.5t-59 -24.5t-59 24.5t-24 58.5z
M427 627q0 18 -12.5 30.5t-30.5 12.5t-30.5 -12.5t-12.5 -30.5t12.5 -30.5t30.5 -12.5t30.5 12.5t12.5 30.5z" />
    <glyph glyph-name="Uhungarumlaut" unicode="&#x170;" horiz-adv-x="718" 
d="M78 193q0 60 19 116l127 391h74l-132 -408q-16 -48 -16 -100q0 -64 44.5 -101t122.5 -37q93 0 163.5 60.5t104.5 167.5l135 418h74l-138 -427q-46 -142 -136 -212.5t-215 -70.5q-104 0 -165.5 55t-61.5 148zM401 781l103 133h100l-4 -12l-134 -121h-65zM563 781l103 133
h100l-4 -12l-134 -121h-65z" />
    <glyph glyph-name="uhungarumlaut" unicode="&#x171;" horiz-adv-x="540" 
d="M41 118q0 30 13 69l93 287h68l-96 -294q-8 -27 -8 -49q0 -37 23 -60t62 -23q60 0 116.5 47t82.5 123l84 256h68l-154 -474h-68l28 87q-70 -97 -179 -97q-61 0 -97 35t-36 93zM252 555l103 133h100l-4 -12l-134 -121h-65zM414 555l103 133h100l-4 -12l-134 -121h-65z" />
    <glyph glyph-name="Uogonek" unicode="&#x172;" horiz-adv-x="718" 
d="M78 193q0 60 19 116l127 391h74l-132 -408q-16 -48 -16 -100q0 -64 44.5 -101t122.5 -37q93 0 163.5 60.5t104.5 167.5l135 418h74l-138 -427q-46 -142 -136 -212.5t-215 -70.5q-104 0 -165.5 55t-61.5 148zM257 -185q-33 0 -52.5 19.5t-19.5 49.5q0 34 29 66t77 50h53
q-42 -19 -69 -46t-27 -51q0 -30 32 -30q18 0 38 11l14 -51q-33 -18 -75 -18z" />
    <glyph glyph-name="uogonek" unicode="&#x173;" horiz-adv-x="540" 
d="M41 118q0 30 13 69l93 287h68l-96 -294q-8 -27 -8 -49q0 -37 23 -60t62 -23q60 0 116.5 47t82.5 123l84 256h68l-154 -474h-68l28 87q-70 -97 -179 -97q-61 0 -97 35t-36 93zM306 -185q-33 0 -52.5 19.5t-19.5 49.5q0 34 29 66t77 50h53q-42 -19 -69 -46t-27 -51
q0 -30 32 -30q18 0 38 11l14 -51q-33 -18 -75 -18z" />
    <glyph glyph-name="Wcircumflex" unicode="&#x174;" horiz-adv-x="968" 
d="M110 0l54 700h75l-57 -658l388 658h122l-40 -658l375 658h77l-402 -700h-121l40 655l-388 -655h-123zM506 781l4 12l147 103h58l81 -103l-4 -12h-73l-42 76l-87 -76h-84z" />
    <glyph glyph-name="wcircumflex" unicode="&#x175;" horiz-adv-x="728" 
d="M154 474l-12 -408l260 408h79l-15 -408l254 408h67l-296 -474h-86l19 404l-254 -404h-86l11 474h59zM321 555l4 12l147 103h58l81 -103l-4 -12h-73l-42 76l-87 -76h-84z" />
    <glyph glyph-name="Ycircumflex" unicode="&#x176;" horiz-adv-x="646" 
d="M208 0l96 296l-138 404h72l116 -343l333 343h93l-403 -408l-95 -292h-74zM332 781l4 12l147 103h58l81 -103l-4 -12h-73l-42 76l-87 -76h-84z" />
    <glyph glyph-name="ycircumflex" unicode="&#x177;" horiz-adv-x="455" 
d="M444 474h73l-476 -659h-75l158 218l-37 441h67l30 -358zM170 555l4 12l147 103h58l81 -103l-4 -12h-73l-42 76l-87 -76h-84z" />
    <glyph glyph-name="Ydieresis" unicode="&#x178;" horiz-adv-x="646" 
d="M208 0l96 296l-138 404h72l116 -343l333 343h93l-403 -408l-95 -292h-74zM374 797l28 84h84l-28 -84h-84zM522 797l28 84h84l-28 -84h-84z" />
    <glyph glyph-name="Zacute" unicode="&#x179;" horiz-adv-x="695" 
d="M-1 64l668 572h-477l21 64h575l-21 -64l-668 -572h487l-21 -64h-585zM482 782l103 133h100l-4 -12l-134 -121h-65z" />
    <glyph glyph-name="zacute" unicode="&#x17a;" horiz-adv-x="489" 
d="M362 0h-395l17 53l415 363h-292l19 58h385l-17 -53l-415 -363h302zM303 555l103 133h100l-4 -12l-134 -121h-65z" />
    <glyph glyph-name="Zdotaccent" unicode="&#x17b;" horiz-adv-x="695" 
d="M-1 64l668 572h-477l21 64h575l-21 -64l-668 -572h487l-21 -64h-585zM496 818l26 83h78l-26 -83h-78z" />
    <glyph glyph-name="zdotaccent" unicode="&#x17c;" horiz-adv-x="489" 
d="M362 0h-395l17 53l415 363h-292l19 58h385l-17 -53l-415 -363h302zM301 571l26 83h78l-26 -83h-78z" />
    <glyph glyph-name="Zcaron" unicode="&#x17d;" horiz-adv-x="695" 
d="M-1 64l668 572h-477l21 64h575l-21 -64l-668 -572h487l-21 -64h-585zM485 781l-81 103l4 12h71l44 -76l84 76h87l-4 -12l-144 -103h-61z" />
    <glyph glyph-name="zcaron" unicode="&#x17e;" horiz-adv-x="489" 
d="M362 0h-395l17 53l415 363h-292l19 58h385l-17 -53l-415 -363h302zM300 555l-81 103l4 12h71l44 -76l84 76h87l-4 -12l-144 -103h-61z" />
    <glyph glyph-name="florin" unicode="&#x192;" horiz-adv-x="441" 
d="M-52 68l55 22q9 -48 52 -48q58 0 82 79l97 301h-104l17 52h104l27 82q25 78 70 116t122 38q58 0 90.5 -27.5t32.5 -71.5q0 -25 -13 -52h-60q12 25 12 47q0 24 -19 38t-49 14q-45 0 -73 -26t-47 -83l-25 -75h138l-17 -52h-138l-98 -303q-23 -71 -60 -100t-101 -29
q-38 0 -64 21t-31 57z" />
    <glyph glyph-name="uni01B5" unicode="&#x1b5;" horiz-adv-x="695" 
d="M786 700l-21 -64l-300 -257h175l-19 -58h-224l-300 -257h487l-21 -64h-585l21 64l300 257h-152l19 58h201l300 257h-477l21 64h575z" />
    <glyph glyph-name="uni01B6" unicode="&#x1b6;" horiz-adv-x="600" 
d="M-33 0l17 53l185 162h-79l17 52h122l170 149h-292l19 58h385l-17 -53l-176 -154h82l-17 -52h-125l-179 -157h302l-19 -58h-395z" />
    <glyph glyph-name="Aringacute" unicode="&#x1fa;" horiz-adv-x="724" 
d="M563 0l-18 188h-384l-140 -188h-84l527 700h98l71 -700h-70zM208 252h331l-38 394zM467 853q0 35 24 59t59 24t59 -24t24 -59q0 -34 -24 -58.5t-59 -24.5t-59 24.5t-24 58.5zM593 853q0 18 -12.5 30.5t-30.5 12.5t-30.5 -12.5t-12.5 -30.5t12.5 -30.5t30.5 -12.5
t30.5 12.5t12.5 30.5zM524 917l103 133h100l-4 -12l-134 -121h-65z" />
    <glyph glyph-name="aringacute" unicode="&#x1fb;" horiz-adv-x="582" 
d="M40 183q-2 128 86 215.5t207 85.5q59 0 102 -31t53 -78l33 99h68l-154 -474h-63l28 84q-60 -94 -186 -94q-73 0 -123.5 53.5t-50.5 139.5zM460 301q0 55 -37.5 90t-97.5 35q-90 0 -152.5 -67.5t-62.5 -170.5q0 -69 33.5 -104.5t89.5 -35.5q83 -2 156.5 78t70.5 175z
M299 627q0 35 24 59t59 24t59 -24t24 -59q0 -34 -24 -58.5t-59 -24.5t-59 24.5t-24 58.5zM425 627q0 18 -12.5 30.5t-30.5 12.5t-30.5 -12.5t-12.5 -30.5t12.5 -30.5t30.5 -12.5t30.5 12.5t12.5 30.5zM361 691l103 133h100l-4 -12l-134 -121h-65z" />
    <glyph glyph-name="AEacute" unicode="&#x1fc;" horiz-adv-x="918" 
d="M978 636h-367l-79 -242h337l-20 -64h-337l-87 -266h377l-21 -64h-447l61 188h-220l-153 -188h-85l568 700h494zM416 252l126 386l-315 -386h189zM744 782l103 133h100l-4 -12l-134 -121h-65z" />
    <glyph glyph-name="aeacute" unicode="&#x1fd;" horiz-adv-x="944" 
d="M40 183q-2 128 86 215.5t207 85.5q59 0 102 -31t53 -78l33 99h68l-22 -68q31 36 77 57t96 21q81 0 128 -42t47 -111q0 -37 -15 -89l-4 -14h-381q-4 -17 -4 -36q0 -65 39 -104.5t100 -39.5q120 0 170 114l59 -24q-68 -148 -243 -148q-58 0 -104 30.5t-63 83.5l-34 -104
h-63l28 84q-60 -94 -186 -94q-73 0 -123.5 53.5t-50.5 139.5zM460 301q0 55 -37.5 90t-97.5 35q-90 0 -152.5 -67.5t-62.5 -170.5q0 -69 33.5 -104.5t89.5 -35.5q83 -2 156.5 78t70.5 175zM525 280h317q5 22 5 44q0 49 -32 75.5t-87 26.5q-73 0 -126 -40t-77 -106zM553 555
l103 133h100l-4 -12l-134 -121h-65z" />
    <glyph glyph-name="Scommaaccent" unicode="&#x218;" horiz-adv-x="643" 
d="M417 646q-69 0 -118.5 -36t-49.5 -93q0 -52 35 -76.5t121 -48.5q92 -24 135 -66t43 -119q0 -99 -81 -158t-215 -59q-118 0 -184 65t-69 177l71 16q0 -93 50 -143.5t141 -50.5q93 0 153 40.5t60 105.5q0 59 -35.5 87.5t-132.5 55.5q-82 23 -123 62t-41 108
q0 86 71.5 141.5t185.5 55.5q98 0 156.5 -47t65.5 -133l-71 -12q-4 64 -48 96t-120 32zM109 -225l18 30q19 -8 35 -8q21 0 34 9.5t13 27.5q0 28 -32 28h-8l28 86h86l-38 -116q-22 -68 -93 -68q-29 0 -43 11z" />
    <glyph glyph-name="scommaaccent" unicode="&#x219;" horiz-adv-x="483" 
d="M9 145l61 15q2 -52 37 -82t94 -30q63 0 101 26t38 69q0 33 -24.5 51t-89.5 33q-126 29 -126 128q0 60 48 94.5t129 34.5q68 0 109.5 -31.5t49.5 -88.5l-58 -11q-6 35 -34 57t-72 22q-50 0 -80 -21t-30 -57q0 -29 27.5 -48t84.5 -31q134 -28 134 -126q0 -70 -58 -114.5
t-151 -44.5q-88 0 -137 43t-53 112zM41 -225l18 30q19 -8 35 -8q21 0 34 9.5t13 27.5q0 28 -32 28h-8l28 86h86l-38 -116q-22 -68 -93 -68q-29 0 -43 11z" />
    <glyph glyph-name="uni021A" unicode="&#x21a;" horiz-adv-x="667" 
d="M783 700l-21 -64h-262l-207 -636h-74l207 636h-262l21 64h598zM108 -225l18 30q19 -8 35 -8q21 0 34 9.5t13 27.5q0 28 -32 28h-8l28 86h86l-38 -116q-22 -68 -93 -68q-29 0 -43 11z" />
    <glyph glyph-name="uni021B" unicode="&#x21b;" horiz-adv-x="347" 
d="M43 0l137 422h-92l17 52h92l46 141h68l-46 -141h137l-17 -52h-137l-137 -422h-68zM-68 -225l18 30q19 -8 35 -8q21 0 34 9.5t13 27.5q0 28 -32 28h-8l28 86h86l-38 -116q-22 -68 -93 -68q-29 0 -43 11z" />
    <glyph glyph-name="uni0237" unicode="&#x237;" horiz-adv-x="208" 
d="M-71 -198l218 672h68l-218 -672h-68z" />
    <glyph glyph-name="circumflex" unicode="&#x2c6;" horiz-adv-x="420" 
d="M170 555l4 12l147 103h58l81 -103l-4 -12h-73l-42 76l-87 -76h-84z" />
    <glyph glyph-name="caron" unicode="&#x2c7;" horiz-adv-x="410" 
d="M280 555l-81 103l4 12h71l44 -76l84 76h87l-4 -12l-144 -103h-61z" />
    <glyph glyph-name="uni02C9" unicode="&#x2c9;" horiz-adv-x="384" 
d="M179 586l18 58h248l-18 -58h-248z" />
    <glyph glyph-name="breve" unicode="&#x2d8;" horiz-adv-x="358" 
d="M191 633q0 23 10 42h59q-8 -18 -8 -31q0 -16 13 -26t34 -10q73 0 75 67h61q0 -57 -38 -88t-106 -31q-46 0 -72.5 20t-27.5 57z" />
    <glyph glyph-name="dotaccent" unicode="&#x2d9;" horiz-adv-x="174" 
d="M157 571l26 83h78l-26 -83h-78z" />
    <glyph glyph-name="ring" unicode="&#x2da;" horiz-adv-x="301" 
d="M68 627q0 34 24 58.5t58 24.5q35 0 59 -24t24 -59q0 -34 -24.5 -58t-58.5 -24t-58 24t-24 58zM194 627q0 19 -12.5 31.5t-31.5 12.5q-17 0 -29.5 -12.5t-12.5 -31.5q0 -17 12.5 -29.5t29.5 -12.5q19 0 31.5 12.5t12.5 29.5z" />
    <glyph glyph-name="ogonek" unicode="&#x2db;" horiz-adv-x="317" 
d="M139 -170q-33 0 -52.5 19.5t-19.5 49.5q0 34 29 66t77 50h53q-42 -19 -69 -46t-27 -51q0 -30 32 -30q18 0 38 11l14 -51q-33 -18 -75 -18z" />
    <glyph glyph-name="tilde" unicode="&#x2dc;" horiz-adv-x="300" 
d="M161 563l-49 6q2 41 32 69.5t73 28.5q34 0 70 -31q29 -23 48 -23q20 0 34 15t18 39l49 -6q-5 -43 -34.5 -70.5t-70.5 -27.5q-34 0 -70 31q-29 23 -48 23q-21 0 -35.5 -15.5t-16.5 -38.5z" />
    <glyph glyph-name="hungarumlaut" unicode="&#x2dd;" horiz-adv-x="449" 
d="M190 555l103 133h100l-4 -12l-134 -121h-65zM352 555l103 133h100l-4 -12l-134 -121h-65z" />
    <glyph glyph-name="gravecomb" unicode="&#x300;" 
d="M-19 555l-78 121l4 12h91l41 -133h-58z" />
    <glyph glyph-name="acutecomb" unicode="&#x301;" 
d="M-106 555l103 133h100l-4 -12l-134 -121h-65z" />
    <glyph glyph-name="uni0302" unicode="&#x302;" 
d="M-250 555l4 12l147 103h58l81 -103l-4 -12h-73l-42 76l-87 -76h-84z" />
    <glyph glyph-name="tildecomb" unicode="&#x303;" 
d="M-139 563l-49 6q2 41 32 69.5t73 28.5q34 0 70 -31q29 -23 48 -23q20 0 34 15t18 39l49 -6q-5 -43 -34.5 -70.5t-70.5 -27.5q-34 0 -70 31q-29 23 -48 23q-21 0 -35.5 -15.5t-16.5 -38.5z" />
    <glyph glyph-name="uni0304" unicode="&#x304;" 
d="M-201 586l18 58h248l-18 -58h-248z" />
    <glyph glyph-name="uni0306" unicode="&#x306;" 
d="M-167 633q0 23 10 42h59q-8 -18 -8 -31q0 -16 13 -26t34 -10q73 0 75 67h61q0 -57 -38 -88t-106 -31q-46 0 -72.5 20t-27.5 57z" />
    <glyph glyph-name="uni0307" unicode="&#x307;" 
d="M-17 571l26 83h78l-26 -83h-78z" />
    <glyph glyph-name="uni0308" unicode="&#x308;" 
d="M-164 571l28 84h84l-28 -84h-84zM-16 571l28 84h84l-28 -84h-84z" />
    <glyph glyph-name="uni030A" unicode="&#x30a;" 
d="M-106 627q0 35 24 59t59 24t59 -24t24 -59q0 -34 -24 -58.5t-59 -24.5t-59 24.5t-24 58.5zM20 627q0 18 -12.5 30.5t-30.5 12.5t-30.5 -12.5t-12.5 -30.5t12.5 -30.5t30.5 -12.5t30.5 12.5t12.5 30.5z" />
    <glyph glyph-name="uni030B" unicode="&#x30b;" 
d="M-260 555l103 133h100l-4 -12l-134 -121h-65zM-98 555l103 133h100l-4 -12l-134 -121h-65z" />
    <glyph glyph-name="uni030C" unicode="&#x30c;" 
d="M-130 555l-81 103l4 12h71l44 -76l84 76h87l-4 -12l-144 -103h-61z" />
    <glyph glyph-name="uni0312" unicode="&#x312;" 
d="M-83 542l37 114q14 43 35.5 58.5t61.5 15.5h37l-14 -43h-33q-20 0 -32.5 -9.5t-12.5 -25.5q0 -24 27 -24h8l-28 -86h-86z" />
    <glyph glyph-name="uni0326" unicode="&#x326;" 
d="M-311 -225l18 30q19 -8 35 -8q21 0 34 9.5t13 27.5q0 28 -32 28h-8l28 86h86l-38 -116q-22 -68 -93 -68q-29 0 -43 11z" />
    <glyph glyph-name="uni0327" unicode="&#x327;" 
d="M-341 -120l40 9q2 -17 14.5 -28t31.5 -11q26 0 39.5 13.5t13.5 35.5q0 16 -9.5 27t-26.5 11q-29 0 -47 -27l-39 18q20 27 49 88h45l-15 -24q-19 -31 -33 -47q24 25 55 25q26 0 43.5 -18t17.5 -47q0 -42 -26.5 -67.5t-72.5 -25.5q-31 0 -54 19t-26 49z" />
    <glyph glyph-name="uni0328" unicode="&#x328;" 
d="M-178 -170q-33 0 -52.5 19.5t-19.5 49.5q0 34 29 66t77 50h53q-42 -19 -69 -46t-27 -51q0 -30 32 -30q18 0 38 11l14 -51q-33 -18 -75 -18z" />
    <glyph glyph-name="uni0335" unicode="&#x335;" 
d="M-313 362h293l-17 -52h-293z" />
    <glyph glyph-name="uni0336" unicode="&#x336;" 
d="M-738 379h724l-19 -58h-724z" />
    <glyph glyph-name="uni0337" unicode="&#x337;" 
d="M-338 266l-22 50l299 135l21 -48z" />
    <glyph glyph-name="uni0338" unicode="&#x338;" 
d="M-476 -48l-49 36l375 534l49 -36z" />
    <glyph glyph-name="uni037E" unicode="&#x37e;" horiz-adv-x="226" 
d="M108 354l27 86h86l-27 -86h-86zM-66 -92l16 31q14 -8 33 -8q22 0 35 11t13 30q0 28 -32 28h-6l28 86h86l-38 -115q-12 -39 -33 -56t-57 -17q-26 0 -45 10z" />
    <glyph glyph-name="tonos" unicode="&#x384;" horiz-adv-x="297" 
d="M162 555l80 133h93l-4 -12l-105 -121h-64z" />
    <glyph glyph-name="dieresistonos" unicode="&#x385;" horiz-adv-x="332" 
d="M222 547l46 133h96l-4 -12l-80 -121h-58zM119 571l27 84h82l-27 -84h-82zM349 571l27 84h82l-27 -84h-82z" />
    <glyph glyph-name="Alphatonos" unicode="&#x386;" horiz-adv-x="724" 
d="M563 0l-18 188h-384l-140 -188h-84l527 700h98l71 -700h-70zM208 252h331l-38 394zM167 567l80 133h93l-4 -12l-105 -121h-64z" />
    <glyph glyph-name="anoteleia" unicode="&#x387;" horiz-adv-x="226" 
d="M121 393h86l-28 -86h-86z" />
    <glyph glyph-name="Epsilontonos" unicode="&#x388;" horiz-adv-x="622" 
d="M231 700h472l-21 -64h-398l-79 -242h368l-20 -64h-368l-87 -266h408l-21 -64h-482zM-23 567l80 133h93l-4 -12l-105 -121h-64z" />
    <glyph glyph-name="Etatonos" unicode="&#x389;" horiz-adv-x="728" 
d="M598 313h-419l-102 -313h-74l228 700h74l-105 -323h419l105 323h74l-228 -700h-74zM-23 567l80 133h93l-4 -12l-105 -121h-64z" />
    <glyph glyph-name="Iotatonos" unicode="&#x38a;" horiz-adv-x="235" 
d="M3 0l228 700h74l-228 -700h-74zM-22 567l80 133h93l-4 -12l-105 -121h-64z" />
    <glyph glyph-name="Omicrontonos" unicode="&#x38c;" horiz-adv-x="850" 
d="M86 291q-1 82 32.5 158.5t92.5 134.5t146 92.5t185 33.5q135 0 215.5 -82.5t80.5 -216.5q1 -82 -32.5 -159t-92.5 -135.5t-146 -93t-185 -33.5q-132 0 -214 83.5t-82 217.5zM764 407q0 113 -63.5 176t-175.5 63q-153 3 -260.5 -104.5t-104.5 -246.5q0 -113 64.5 -177
t174.5 -64q100 -2 186 48.5t133.5 132.5t45.5 172zM21 567l80 133h93l-4 -12l-105 -121h-64z" />
    <glyph glyph-name="Upsilontonos" unicode="&#x38e;" horiz-adv-x="646" 
d="M208 0l96 296l-138 404h72l116 -343l333 343h93l-403 -408l-95 -292h-74zM-27 567l80 133h93l-4 -12l-105 -121h-64z" />
    <glyph glyph-name="Omegatonos" unicode="&#x38f;" horiz-adv-x="802" 
d="M803 437q0 -121 -78 -214q-78 -91 -204 -159h149l-20 -64h-257l19 59q134 63 225 156q92 95 92 214q0 96 -72 156.5t-182 60.5q-131 2 -217 -89.5t-84 -218.5q0 -173 125 -279l-19 -59h-257l20 64h174q-117 119 -117 271q0 163 109 269t286 106q131 0 219.5 -78
t88.5 -195zM24 567l80 133h93l-4 -12l-105 -121h-64z" />
    <glyph glyph-name="iotadieresistonos" unicode="&#x390;" horiz-adv-x="326" 
d="M30 87q0 25 8 51l110 336h68l-113 -346q-6 -18 -6 -35q0 -45 49 -45q43 0 67 42l51 -30q-21 -37 -52 -53.5t-80 -16.5q-45 0 -73 27t-29 70zM160 547l46 133h96l-4 -12l-80 -121h-58zM57 571l27 84h82l-27 -84h-82zM287 571l27 84h82l-27 -84h-82z" />
    <glyph glyph-name="Alpha" unicode="&#x391;" horiz-adv-x="724" 
d="M563 0l-18 188h-384l-140 -188h-84l527 700h98l71 -700h-70zM208 252h331l-38 394z" />
    <glyph glyph-name="Beta" unicode="&#x392;" horiz-adv-x="682" 
d="M3 0l228 700h293q81 0 129.5 -43.5t48.5 -115.5q0 -67 -44 -114.5t-116 -69.5q78 -33 78 -128q0 -100 -81 -164.5t-209 -64.5h-327zM204 390h242q81 0 131 40q52 40 52 109q0 45 -31.5 71t-88.5 26h-225zM98 64h249q85 0 141.5 43.5t56.5 117.5q0 49 -29.5 77t-85.5 28
h-245z" />
    <glyph glyph-name="Gamma" unicode="&#x393;" horiz-adv-x="606" 
d="M701 636h-417l-207 -636h-74l228 700h491z" />
    <glyph glyph-name="uni0394" unicode="&#x394;" horiz-adv-x="724" 
d="M562 700l71 -700h-696l527 700h98zM69 64h488l-56 582z" />
    <glyph glyph-name="Epsilon" unicode="&#x395;" horiz-adv-x="622" 
d="M231 700h472l-21 -64h-398l-79 -242h368l-20 -64h-368l-87 -266h408l-21 -64h-482z" />
    <glyph glyph-name="Zeta" unicode="&#x396;" horiz-adv-x="695" 
d="M-1 64l668 572h-477l21 64h575l-21 -64l-668 -572h487l-21 -64h-585z" />
    <glyph glyph-name="Eta" unicode="&#x397;" horiz-adv-x="728" 
d="M598 313h-419l-102 -313h-74l228 700h74l-105 -323h419l105 323h74l-228 -700h-74z" />
    <glyph glyph-name="Theta" unicode="&#x398;" horiz-adv-x="850" 
d="M86 291q-1 82 32.5 158.5t92.5 134.5t146 92.5t185 33.5q135 0 215.5 -82.5t80.5 -216.5q1 -82 -32.5 -159t-92.5 -135.5t-146 -93t-185 -33.5q-132 0 -214 83.5t-82 217.5zM764 407q0 113 -63.5 176t-175.5 63q-153 3 -260.5 -104.5t-104.5 -246.5q0 -113 64.5 -177
t174.5 -64q100 -2 186 48.5t133.5 132.5t45.5 172zM329 321l18 58h248l-18 -58h-248z" />
    <glyph glyph-name="Iota" unicode="&#x399;" horiz-adv-x="235" 
d="M3 0l228 700h74l-228 -700h-74z" />
    <glyph glyph-name="Kappa" unicode="&#x39a;" horiz-adv-x="651" 
d="M420 427l128 -427h-75l-114 377l-219 -172l-67 -205h-70l228 700h70l-127 -392l489 392h102z" />
    <glyph glyph-name="Lambda" unicode="&#x39b;" horiz-adv-x="724" 
d="M-63 0l527 700h98l71 -700h-70l-62 646l-480 -646h-84z" />
    <glyph glyph-name="Mu" unicode="&#x39c;" horiz-adv-x="940" 
d="M782 0h-70l217 666l-485 -666h-103l-51 666l-217 -666h-70l228 700h126l47 -651l469 651h137z" />
    <glyph glyph-name="Nu" unicode="&#x39d;" horiz-adv-x="759" 
d="M290 655l-213 -655h-74l228 700h113l198 -655l213 655h74l-228 -700h-113z" />
    <glyph glyph-name="Xi" unicode="&#x39e;" horiz-adv-x="665" 
d="M730 636h-535l21 64h535zM508 323h-295l21 64h295zM4 64h545l-21 -64h-545z" />
    <glyph glyph-name="Omicron" unicode="&#x39f;" horiz-adv-x="850" 
d="M86 291q-1 82 32.5 158.5t92.5 134.5t146 92.5t185 33.5q135 0 215.5 -82.5t80.5 -216.5q1 -82 -32.5 -159t-92.5 -135.5t-146 -93t-185 -33.5q-132 0 -214 83.5t-82 217.5zM764 407q0 113 -63.5 176t-175.5 63q-153 3 -260.5 -104.5t-104.5 -246.5q0 -113 64.5 -177
t174.5 -64q100 -2 186 48.5t133.5 132.5t45.5 172z" />
    <glyph glyph-name="Pi" unicode="&#x3a0;" horiz-adv-x="728" 
d="M703 636h-419l-207 -636h-74l228 700h567l-228 -700h-74z" />
    <glyph glyph-name="Rho" unicode="&#x3a1;" horiz-adv-x="667" 
d="M3 0l228 700h278q81 0 133.5 -49t52.5 -124q0 -105 -76.5 -167t-218.5 -62h-226l-97 -298h-74zM195 362h220q94 0 149 40.5t55 116.5q0 55 -33.5 86t-91.5 31h-210z" />
    <glyph glyph-name="Sigma" unicode="&#x3a3;" horiz-adv-x="644" 
d="M451 380l-20 -60l-349 -256h446l-21 -64h-529l26 80l376 283l-200 257l26 80h509l-21 -64h-440z" />
    <glyph glyph-name="Tau" unicode="&#x3a4;" horiz-adv-x="667" 
d="M783 700l-21 -64h-262l-207 -636h-74l207 636h-262l21 64h598z" />
    <glyph glyph-name="Upsilon" unicode="&#x3a5;" horiz-adv-x="646" 
d="M208 0l96 296l-138 404h72l116 -343l333 343h93l-403 -408l-95 -292h-74z" />
    <glyph glyph-name="Phi" unicode="&#x3a6;" horiz-adv-x="842" 
d="M304 0l26 80h-33q-87 0 -148.5 64t-61.5 167q-2 132 101 221t258 88h60l26 80h74l-26 -80h23q104 0 164 -65t60 -171q0 -131 -98 -217.5t-265 -86.5h-60l-26 -80h-74zM325 144h26l134 412h-46q-122 0 -200 -67t-78 -177q0 -78 45 -123t119 -45zM425 144h46
q129 0 205.5 66t76.5 173q0 78 -43 125.5t-115 47.5h-36z" />
    <glyph glyph-name="Chi" unicode="&#x3a7;" horiz-adv-x="652" 
d="M-57 0l390 394l-122 306h75l103 -264l269 264h91l-334 -327l140 -373h-75l-121 327l-322 -327h-94z" />
    <glyph glyph-name="Psi" unicode="&#x3a8;" horiz-adv-x="799" 
d="M801 700h74l-61 -187q-54 -166 -150 -243.5t-245 -83.5l-60 -186h-74l61 188q-88 13 -142 72q-54 60 -54 152q0 56 20 119l55 169h74l-56 -172q-21 -66 -21 -116q0 -69 38.5 -110.5t106.5 -50.5l146 449h74l-146 -450q112 10 186.5 78t117.5 200z" />
    <glyph glyph-name="uni03A9" unicode="&#x3a9;" horiz-adv-x="802" 
d="M803 437q0 -121 -78 -214q-78 -91 -204 -159h149l-20 -64h-257l19 59q134 63 225 156q92 95 92 214q0 96 -72 156.5t-182 60.5q-131 2 -217 -89.5t-84 -218.5q0 -173 125 -279l-19 -59h-257l20 64h174q-117 119 -117 271q0 163 109 269t286 106q131 0 219.5 -78
t88.5 -195z" />
    <glyph glyph-name="Iotadieresis" unicode="&#x3aa;" horiz-adv-x="235" 
d="M3 0l228 700h74l-228 -700h-74zM182 797l28 84h84l-28 -84h-84zM330 797l28 84h84l-28 -84h-84z" />
    <glyph glyph-name="Upsilondieresis" unicode="&#x3ab;" horiz-adv-x="646" 
d="M208 0l96 296l-138 404h72l116 -343l333 343h93l-403 -408l-95 -292h-74zM374 797l28 84h84l-28 -84h-84zM522 797l28 84h84l-28 -84h-84z" />
    <glyph glyph-name="alphatonos" unicode="&#x3ac;" horiz-adv-x="615" 
d="M41 182q0 128 78 215t204 87q53 0 92.5 -27.5t52.5 -70.5l28 88h68l-125 -386q-2 -6 -2 -14q0 -26 26 -26q29 0 47 38l45 -22q-31 -74 -101 -74q-30 0 -49 19t-19 48q0 12 3 24q-63 -91 -180 -91q-69 0 -118.5 54t-49.5 138zM430 284q0 65 -30.5 103.5t-81.5 38.5
q-97 0 -152.5 -68t-55.5 -172q0 -64 31.5 -101t83.5 -37q82 -2 144.5 72.5t60.5 163.5zM334 555l80 133h93l-4 -12l-105 -121h-64z" />
    <glyph glyph-name="epsilontonos" unicode="&#x3ad;" horiz-adv-x="451" 
d="M11 120q0 57 40.5 94t102.5 39q-59 26 -59 92q0 60 52.5 99.5t129.5 39.5q63 0 104.5 -32t49.5 -89l-62 -25q-4 41 -30 64.5t-72 23.5q-45 0 -75.5 -24.5t-30.5 -60.5q0 -33 22.5 -52.5t55.5 -19.5h18l-18 -58h-47q-53 0 -83 -21.5t-30 -62.5q0 -34 27 -56.5t72 -22.5
q56 0 92.5 28t60.5 84l54 -22q-53 -148 -222 -148q-62 0 -107 37.5t-45 92.5zM279 555l80 133h93l-4 -12l-105 -121h-64z" />
    <glyph glyph-name="etatonos" unicode="&#x3ae;" horiz-adv-x="540" 
d="M260 -198l161 492q8 27 8 49q0 37 -23 60t-62 23q-60 0 -116.5 -47t-82.5 -123l-84 -256h-68l154 474h68l-28 -87q70 97 179 97q61 0 97 -35t36 -93q0 -30 -13 -69l-158 -485h-68zM330 555l80 133h93l-4 -12l-105 -121h-64z" />
    <glyph glyph-name="iotatonos" unicode="&#x3af;" horiz-adv-x="326" 
d="M30 87q0 25 8 51l110 336h68l-113 -346q-6 -18 -6 -35q0 -45 49 -45q43 0 67 42l51 -30q-21 -37 -52 -53.5t-80 -16.5q-45 0 -73 27t-29 70zM175 555l80 133h93l-4 -12l-105 -121h-64z" />
    <glyph glyph-name="upsilondieresistonos" unicode="&#x3b0;" horiz-adv-x="530" 
d="M46 125q0 35 12 74l89 275h68l-93 -285q-10 -30 -10 -60q0 -38 27 -59.5t72 -21.5q56 0 99 36t66 105l93 285h68l-93 -286q-33 -103 -93 -150.5t-154 -47.5q-68 0 -109.5 37t-41.5 98zM313 547l46 133h96l-4 -12l-80 -121h-58zM210 571l27 84h82l-27 -84h-82zM440 571
l27 84h82l-27 -84h-82z" />
    <glyph glyph-name="alpha" unicode="&#x3b1;" horiz-adv-x="615" 
d="M41 182q0 128 78 215t204 87q53 0 92.5 -27.5t52.5 -70.5l28 88h68l-125 -386q-2 -6 -2 -14q0 -26 26 -26q29 0 47 38l45 -22q-31 -74 -101 -74q-30 0 -49 19t-19 48q0 12 3 24q-63 -91 -180 -91q-69 0 -118.5 54t-49.5 138zM430 284q0 65 -30.5 103.5t-81.5 38.5
q-97 0 -152.5 -68t-55.5 -172q0 -64 31.5 -101t83.5 -37q82 -2 144.5 72.5t60.5 163.5z" />
    <glyph glyph-name="beta" unicode="&#x3b2;" horiz-adv-x="555" 
d="M-71 -198l240 736q55 172 211 172q68 0 106.5 -36t38.5 -99q0 -69 -45 -112q-43 -43 -101 -57q110 -45 110 -165q0 -107 -71.5 -179t-187.5 -72q-53 0 -93.5 26t-48.5 63l-91 -277h-68zM421 238q0 62 -43 99q-43 38 -103 38h-32l19 58h32q69 0 118 39t49 95
q0 40 -23 62.5t-63 22.5q-53 0 -87 -31t-56 -98l-100 -308q-11 -36 -11 -61q0 -49 29.5 -77.5t81.5 -28.5q82 0 135.5 50t53.5 140z" />
    <glyph glyph-name="gamma" unicode="&#x3b3;" horiz-adv-x="514" 
d="M82 -198l85 263l-70 409h64l54 -346l283 346h73l-336 -409l-85 -263h-68z" />
    <glyph glyph-name="delta" unicode="&#x3b4;" horiz-adv-x="561" 
d="M39 192q0 93 59.5 169.5t160.5 95.5q-35 13 -56.5 38.5t-21.5 60.5q0 72 61.5 113t164.5 41q126 0 186 -82l-48 -46q-47 70 -147 70q-64 0 -105.5 -26t-41.5 -72q0 -59 112 -78q74 -14 115.5 -63t41.5 -126q2 -123 -81 -211t-202 -86q-84 0 -141 59.5t-57 142.5zM448 272
q0 146 -133 146q-80 2 -143 -66.5t-61 -158.5q0 -66 38.5 -105.5t102.5 -39.5q77 0 136.5 66.5t59.5 157.5z" />
    <glyph glyph-name="epsilon" unicode="&#x3b5;" horiz-adv-x="451" 
d="M11 120q0 57 40.5 94t102.5 39q-59 26 -59 92q0 60 52.5 99.5t129.5 39.5q63 0 104.5 -32t49.5 -89l-62 -25q-4 41 -30 64.5t-72 23.5q-45 0 -75.5 -24.5t-30.5 -60.5q0 -33 22.5 -52.5t55.5 -19.5h18l-18 -58h-47q-53 0 -83 -21.5t-30 -62.5q0 -34 27 -56.5t72 -22.5
q56 0 92.5 28t60.5 84l54 -22q-53 -148 -222 -148q-62 0 -107 37.5t-45 92.5z" />
    <glyph glyph-name="zeta" unicode="&#x3b6;" horiz-adv-x="505" 
d="M278 -208l-29 47q40 21 55.5 38.5t15.5 45.5q0 27 -23 42.5t-75 24.5q-82 13 -130 66.5t-48 133.5q0 116 60 201q57 82 150 140.5t234 110.5h-289l19 58h406l-19 -58q-151 -62 -256 -120q-103 -58 -170 -138t-67 -188q0 -58 39.5 -96.5t117.5 -52.5q119 -23 119 -112
q0 -93 -110 -143z" />
    <glyph glyph-name="eta" unicode="&#x3b7;" horiz-adv-x="540" 
d="M260 -198l161 492q8 27 8 49q0 37 -23 60t-62 23q-60 0 -116.5 -47t-82.5 -123l-84 -256h-68l154 474h68l-28 -87q70 97 179 97q61 0 97 -35t36 -93q0 -30 -13 -69l-158 -485h-68z" />
    <glyph glyph-name="theta" unicode="&#x3b8;" horiz-adv-x="587" 
d="M595 475q0 -119 -48 -231t-131 -183t-181 -71q-80 0 -125 64t-45 171q0 117 48 230t131 184t181 71q80 0 125 -64t45 -171zM157 379h361q9 48 9 94q0 85 -29.5 132t-85.5 47q-81 0 -150.5 -78.5t-104.5 -194.5zM503 321h-361q-9 -48 -9 -94q0 -85 29.5 -132t85.5 -47
q81 0 150.5 78.5t104.5 194.5z" />
    <glyph glyph-name="iota" unicode="&#x3b9;" horiz-adv-x="326" 
d="M30 87q0 25 8 51l110 336h68l-113 -346q-6 -18 -6 -35q0 -45 49 -45q43 0 67 42l51 -30q-21 -37 -52 -53.5t-80 -16.5q-45 0 -73 27t-29 70z" />
    <glyph glyph-name="kappa" unicode="&#x3ba;" horiz-adv-x="445" 
d="M-7 0l154 474h68l-68 -210l247 210h94l-283 -232l137 -242h-74l-131 232l-76 -232h-68z" />
    <glyph glyph-name="lambda" unicode="&#x3bb;" horiz-adv-x="481" 
d="M389 0h-66l-46 318l-256 -318h-82l325 405l-43 295h66z" />
    <glyph glyph-name="uni03BC" unicode="&#x3bc;" horiz-adv-x="540" 
d="M-71 -198l218 672h68l-96 -294q-8 -27 -8 -49q0 -37 23 -60t62 -23q60 0 116.5 47t82.5 123l84 256h68l-154 -474h-68l28 87q-70 -97 -179 -97q-74 0 -100 47l-77 -235h-68z" />
    <glyph glyph-name="nu" unicode="&#x3bd;" horiz-adv-x="506" 
d="M163 474l29 -408l294 408h77l-344 -474h-86l-36 474h66z" />
    <glyph glyph-name="xi" unicode="&#x3be;" horiz-adv-x="495" 
d="M279 -207l-30 48q59 30 59 79q0 59 -97 70q-82 10 -131.5 57t-49.5 118q0 84 54.5 140t153.5 76q-34 15 -56.5 51t-22.5 78q0 94 66 147q67 53 171 53q85 0 133.5 -42.5t50.5 -124.5l-62 -18q-5 127 -133 127q-73 0 -116.5 -36.5t-43.5 -102.5q0 -49 32.5 -82.5
t82.5 -33.5h85l-19 -58h-104q-84 0 -144 -46.5t-60 -117.5q0 -111 132 -127q72 -9 108.5 -40.5t36.5 -80.5q0 -81 -96 -134z" />
    <glyph glyph-name="omicron" unicode="&#x3bf;" horiz-adv-x="580" 
d="M39 181q0 129 86.5 216t224.5 87q85 0 138 -53.5t53 -137.5q0 -129 -86.5 -216t-224.5 -87q-83 0 -137 54t-54 137zM469 286q0 63 -37 101.5t-97 38.5q-94 1 -160 -71t-64 -167q0 -63 37 -101.5t97 -38.5q94 -1 160 71t64 167z" />
    <glyph glyph-name="pi" unicode="&#x3c0;" horiz-adv-x="591" 
d="M105 474h526l-17 -52h-142l-102 -312q-4 -12 -4 -26q0 -18 10.5 -29t27.5 -11q38 0 66 46l41 -30q-39 -70 -118 -70q-42 0 -68 24.5t-26 63.5q0 24 7 45l97 299h-142l-137 -422h-69l137 422h-104z" />
    <glyph glyph-name="rho" unicode="&#x3c1;" horiz-adv-x="575" 
d="M-71 -198l158 485q30 92 102.5 144.5t169.5 52.5q84 0 132.5 -50t48.5 -135q2 -118 -88 -215t-214 -94q-53 0 -94 26t-55 68l-92 -282h-68zM470 293q0 133 -118 133q-62 2 -116.5 -35t-84 -94t-28.5 -114q0 -59 33.5 -97t84.5 -38q93 -3 162 74t67 171z" />
    <glyph glyph-name="uni03C2" unicode="&#x3c2;" horiz-adv-x="527" 
d="M304 -208l-34 47q70 34 70 84q0 32 -21 44t-88 23q-88 15 -137 68.5t-49 143.5q0 124 82.5 203t218.5 79q81 0 131.5 -48t55.5 -119l-59 -18q-6 59 -44 93t-95 34q-97 0 -158.5 -62t-61.5 -161q0 -134 133 -154q85 -13 122.5 -40t37.5 -79q0 -85 -104 -138z" />
    <glyph glyph-name="sigma" unicode="&#x3c3;" horiz-adv-x="580" 
d="M40 184q0 126 83.5 208t221.5 82h271l-19 -58h-113q58 -52 58 -133q2 -125 -83.5 -210t-214.5 -83q-91 0 -147.5 54t-56.5 140zM470 269q0 66 -36.5 106.5t-97.5 40.5q-97 0 -160.5 -66t-63.5 -162q0 -63 38 -101.5t103 -38.5q91 0 154 65.5t63 155.5z" />
    <glyph glyph-name="tau" unicode="&#x3c4;" horiz-adv-x="431" 
d="M117 87q0 25 8 51l93 284h-130l17 52h328l-17 -52h-130l-96 -294q-6 -18 -6 -35q0 -45 49 -45q43 0 67 42l51 -30q-21 -37 -52 -53.5t-80 -16.5q-46 0 -74 27t-28 70z" />
    <glyph glyph-name="upsilon" unicode="&#x3c5;" horiz-adv-x="530" 
d="M46 125q0 35 12 74l89 275h68l-93 -285q-10 -30 -10 -60q0 -38 27 -59.5t72 -21.5q56 0 99 36t66 105l93 285h68l-93 -286q-33 -103 -93 -150.5t-154 -47.5q-68 0 -109.5 37t-41.5 98z" />
    <glyph glyph-name="phi" unicode="&#x3c6;" horiz-adv-x="712" 
d="M672 282q2 -120 -92 -201.5t-233 -80.5h-34l-64 -198h-68l64 198h-24q-79 0 -130.5 55t-51.5 139q-2 112 89.5 197t231.5 83h40l73 226h68l-73 -226h17q85 0 136 -52t51 -140zM243 58h21l117 358h-21q-111 0 -182 -65t-71 -155q0 -65 37.5 -101.5t98.5 -36.5zM604 279
q0 65 -34.5 101t-99.5 36h-21l-117 -358h21q117 0 184 61.5t67 159.5z" />
    <glyph glyph-name="chi" unicode="&#x3c7;" horiz-adv-x="452" 
d="M-127 -198l293 362l-58 310h69l40 -255l198 255h81l-261 -321l62 -351h-65l-51 289l-226 -289h-82z" />
    <glyph glyph-name="psi" unicode="&#x3c8;" horiz-adv-x="589" 
d="M118 -198l64 198q-60 3 -98 37t-38 87q0 40 15 85l86 265h72l-93 -274q-14 -39 -14 -70q0 -70 89 -72l209 642h68l-209 -642q125 3 170 142l89 274h68l-92 -283q-62 -190 -254 -191l-64 -198h-68z" />
    <glyph glyph-name="omega" unicode="&#x3c9;" horiz-adv-x="736" 
d="M28 143q0 92 46 181q47 92 121 150h75q-176 -146 -176 -332q0 -94 77 -94q44 0 83 38t61 103l59 180h68l-62 -189q-9 -28 -9 -52q0 -36 22 -58t59 -22q83 0 131.5 77t48.5 186q0 107 -22 163h69q20 -52 20 -154q0 -141 -71 -235.5t-185 -94.5q-50 0 -83.5 31.5
t-35.5 80.5q-34 -57 -73.5 -84.5t-94.5 -27.5q-59 0 -93.5 43t-34.5 110z" />
    <glyph glyph-name="iotadieresis" unicode="&#x3ca;" horiz-adv-x="326" 
d="M30 87q0 25 8 51l110 336h68l-113 -346q-6 -18 -6 -35q0 -45 49 -45q43 0 67 42l51 -30q-21 -37 -52 -53.5t-80 -16.5q-45 0 -73 27t-29 70zM95 571l28 84h84l-28 -84h-84zM243 571l28 84h84l-28 -84h-84z" />
    <glyph glyph-name="upsilondieresis" unicode="&#x3cb;" horiz-adv-x="530" 
d="M46 125q0 35 12 74l89 275h68l-93 -285q-10 -30 -10 -60q0 -38 27 -59.5t72 -21.5q56 0 99 36t66 105l93 285h68l-93 -286q-33 -103 -93 -150.5t-154 -47.5q-68 0 -109.5 37t-41.5 98zM248 571l28 84h84l-28 -84h-84zM396 571l28 84h84l-28 -84h-84z" />
    <glyph glyph-name="omicrontonos" unicode="&#x3cc;" horiz-adv-x="580" 
d="M39 181q0 129 86.5 216t224.5 87q85 0 138 -53.5t53 -137.5q0 -129 -86.5 -216t-224.5 -87q-83 0 -137 54t-54 137zM469 286q0 63 -37 101.5t-97 38.5q-94 1 -160 -71t-64 -167q0 -63 37 -101.5t97 -38.5q94 -1 160 71t64 167zM340 555l80 133h93l-4 -12l-105 -121h-64z
" />
    <glyph glyph-name="upsilontonos" unicode="&#x3cd;" horiz-adv-x="530" 
d="M46 125q0 35 12 74l89 275h68l-93 -285q-10 -30 -10 -60q0 -38 27 -59.5t72 -21.5q56 0 99 36t66 105l93 285h68l-93 -286q-33 -103 -93 -150.5t-154 -47.5q-68 0 -109.5 37t-41.5 98zM328 555l80 133h93l-4 -12l-105 -121h-64z" />
    <glyph glyph-name="omegatonos" unicode="&#x3ce;" horiz-adv-x="736" 
d="M28 143q0 92 46 181q47 92 121 150h75q-176 -146 -176 -332q0 -94 77 -94q44 0 83 38t61 103l59 180h68l-62 -189q-9 -28 -9 -52q0 -36 22 -58t59 -22q83 0 131.5 77t48.5 186q0 107 -22 163h69q20 -52 20 -154q0 -141 -71 -235.5t-185 -94.5q-50 0 -83.5 31.5
t-35.5 80.5q-34 -57 -73.5 -84.5t-94.5 -27.5q-59 0 -93.5 43t-34.5 110zM435 555l80 133h93l-4 -12l-105 -121h-64z" />
    <glyph glyph-name="uni0400" unicode="&#x400;" horiz-adv-x="622" 
d="M231 700h472l-21 -64h-398l-79 -242h368l-20 -64h-368l-87 -266h408l-21 -64h-482zM455 781l-78 121l4 12h91l41 -133h-58z" />
    <glyph glyph-name="uni0401" unicode="&#x401;" horiz-adv-x="622" 
d="M231 700h472l-21 -64h-398l-79 -242h368l-20 -64h-368l-87 -266h408l-21 -64h-482zM381 797l28 84h84l-28 -84h-84zM529 797l28 84h84l-28 -84h-84z" />
    <glyph glyph-name="uni0402" unicode="&#x402;" horiz-adv-x="848" 
d="M525 -110v10q89 100 144 204q55 103 55 196q0 57 -32 88.5t-92 31.5q-68 0 -138 -57t-95 -136l-74 -227h-74l207 636h-262l21 64h598l-21 -64h-262l-85 -260q47 54 97.5 81t116.5 27q80 0 125.5 -49.5t45.5 -131.5q0 -97 -60 -210q-58 -110 -145 -203h-70z" />
    <glyph glyph-name="uni0403" unicode="&#x403;" horiz-adv-x="606" 
d="M701 636h-417l-207 -636h-74l228 700h491zM462 782l103 133h100l-4 -12l-134 -121h-65z" />
    <glyph glyph-name="uni0404" unicode="&#x404;" horiz-adv-x="794" 
d="M705 285l63 -24q-43 -131 -141 -201t-246 -70q-126 0 -209.5 84t-83.5 218q-3 174 119.5 297.5t315.5 120.5q119 0 191 -64.5t80 -166.5l-64 -18q-11 90 -65.5 137.5t-148.5 47.5q-133 0 -224.5 -72.5t-119.5 -188.5h303l-20 -64h-292q-1 -5 -1 -23q0 -109 64.5 -176.5
t163.5 -67.5q122 0 199 57t116 174z" />
    <glyph glyph-name="uni0405" unicode="&#x405;" horiz-adv-x="643" 
d="M417 646q-69 0 -118.5 -36t-49.5 -93q0 -52 35 -76.5t121 -48.5q92 -24 135 -66t43 -119q0 -99 -81 -158t-215 -59q-118 0 -184 65t-69 177l71 16q0 -93 50 -143.5t141 -50.5q93 0 153 40.5t60 105.5q0 59 -35.5 87.5t-132.5 55.5q-82 23 -123 62t-41 108
q0 86 71.5 141.5t185.5 55.5q98 0 156.5 -47t65.5 -133l-71 -12q-4 64 -48 96t-120 32z" />
    <glyph glyph-name="uni0406" unicode="&#x406;" horiz-adv-x="235" 
d="M3 0l228 700h74l-228 -700h-74z" />
    <glyph glyph-name="uni0407" unicode="&#x407;" horiz-adv-x="235" 
d="M3 0l228 700h74l-228 -700h-74zM182 797l28 84h84l-28 -84h-84zM330 797l28 84h84l-28 -84h-84z" />
    <glyph glyph-name="uni0408" unicode="&#x408;" horiz-adv-x="600" 
d="M37 168q0 94 69 163l50 -38q-46 -57 -46 -123q0 -50 36 -83t97 -33q81 0 132.5 48t85.5 153l144 445h70l-153 -475q-39 -120 -107.5 -177.5t-180.5 -57.5q-89 0 -143 51.5t-54 126.5z" />
    <glyph glyph-name="uni0409" unicode="&#x409;" horiz-adv-x="1050" 
d="M-45 0l2 8q53 62 89 134q37 71 78 197l118 361h431l-100 -308h235q81 0 131 -43t50 -115q0 -104 -81.5 -169t-214.5 -65h-322l207 636h-283l-99 -305q-46 -138 -83 -209q-41 -77 -80 -122h-78zM466 64h247q83 0 141.5 44.5t58.5 115.5q0 104 -114 104h-247z" />
    <glyph glyph-name="uni040A" unicode="&#x40a;" horiz-adv-x="991" 
d="M3 0l228 700h72l-100 -308h303l100 308h74l-100 -308h169q81 0 131 -43t50 -115q0 -104 -81.5 -169t-214.5 -65h-256l107 328h-303l-107 -328h-72zM473 64h181q83 0 141.5 44.5t58.5 115.5q0 104 -114 104h-181z" />
    <glyph glyph-name="uni040B" unicode="&#x40b;" horiz-adv-x="790" 
d="M219 0l207 636h-262l21 64h598l-21 -64h-262l-80 -246q76 94 187 94q65 0 100.5 -33.5t35.5 -94.5q0 -29 -11 -65l-95 -291h-74l94 288q9 28 9 50q0 39 -21.5 60.5t-62.5 21.5q-66 0 -128 -54q-61 -53 -86 -135l-75 -231h-74z" />
    <glyph glyph-name="uni040C" unicode="&#x40c;" horiz-adv-x="583" 
d="M3 0l228 700h74l-101 -311l388 311h108l-444 -352l230 -348h-83l-218 333l-108 -333h-74zM433 782l103 133h100l-4 -12l-134 -121h-65z" />
    <glyph glyph-name="uni040D" unicode="&#x40d;" horiz-adv-x="760" 
d="M3 0l228 700h74l-213 -655l605 655h133l-228 -700h-74l213 655l-605 -655h-133zM518 781l-78 121l4 12h91l41 -133h-58z" />
    <glyph glyph-name="uni040E" unicode="&#x40e;" horiz-adv-x="673" 
d="M711 700h93l-667 -700h-93l259 271l-134 429h78l114 -367zM398 859q0 23 10 42h59q-8 -18 -8 -31q0 -16 13 -26t34 -10q73 0 75 67h61q0 -57 -38 -88t-106 -31q-46 0 -72.5 20t-27.5 57z" />
    <glyph glyph-name="uni040F" unicode="&#x40f;" horiz-adv-x="652" 
d="M176 -110l36 110h-209l228 700h74l-207 -636h343l207 636h74l-228 -700h-208l-36 -110h-74z" />
    <glyph glyph-name="uni0410" unicode="&#x410;" horiz-adv-x="724" 
d="M563 0l-18 188h-384l-140 -188h-84l527 700h98l71 -700h-70zM208 252h331l-38 394z" />
    <glyph glyph-name="uni0411" unicode="&#x411;" horiz-adv-x="682" 
d="M3 0l228 700h471l-21 -64h-397l-79 -244h235q81 0 131 -43t50 -115q0 -104 -81.5 -169t-214.5 -65h-322zM98 64h247q83 0 141.5 44.5t58.5 115.5q0 104 -114 104h-247z" />
    <glyph glyph-name="uni0412" unicode="&#x412;" horiz-adv-x="682" 
d="M3 0l228 700h293q81 0 129.5 -43.5t48.5 -115.5q0 -67 -44 -114.5t-116 -69.5q78 -33 78 -128q0 -100 -81 -164.5t-209 -64.5h-327zM204 390h242q81 0 131 40q52 40 52 109q0 45 -31.5 71t-88.5 26h-225zM98 64h249q85 0 141.5 43.5t56.5 117.5q0 49 -29.5 77t-85.5 28
h-245z" />
    <glyph glyph-name="uni0413" unicode="&#x413;" horiz-adv-x="606" 
d="M701 636h-417l-207 -636h-74l228 700h491z" />
    <glyph glyph-name="uni0414" unicode="&#x414;" horiz-adv-x="660" 
d="M-79 -110l57 174h52q58 60 91 111q35 55 59 113t57 159l83 253h397l-207 -636h60l-57 -174h-74l36 110h-444l-36 -110h-74zM115 64h321l186 572h-249l-65 -199q-43 -134 -87 -217q-43 -84 -106 -156z" />
    <glyph glyph-name="uni0415" unicode="&#x415;" horiz-adv-x="622" 
d="M231 700h472l-21 -64h-398l-79 -242h368l-20 -64h-368l-87 -266h408l-21 -64h-482z" />
    <glyph glyph-name="uni0416" unicode="&#x416;" horiz-adv-x="936" 
d="M1051 700l-444 -352l232 -348h-83l-220 333l-108 -333h-74l108 331l-416 -331h-103l469 377l-225 323h83l210 -312l102 312h74l-101 -311l388 311h108z" />
    <glyph glyph-name="uni0417" unicode="&#x417;" horiz-adv-x="585" 
d="M32 193l70 15q18 -154 151 -154q86 0 135 42.5t49 114.5q0 53 -30 82t-82 29h-17l21 64h21q85 0 133 37t48 108q0 55 -34 85t-93 30q-129 0 -179 -131l-58 25q59 170 249 170q85 0 137 -48t52 -121q0 -83 -48 -132t-119 -63q35 -15 55 -47.5t20 -76.5q0 -103 -72 -167.5
t-196 -64.5q-98 0 -152 58q-53 58 -61 145z" />
    <glyph glyph-name="uni0418" unicode="&#x418;" horiz-adv-x="760" 
d="M3 0l228 700h74l-213 -655l605 655h133l-228 -700h-74l213 655l-605 -655h-133z" />
    <glyph glyph-name="uni0419" unicode="&#x419;" horiz-adv-x="760" 
d="M3 0l228 700h74l-213 -655l605 655h133l-228 -700h-74l213 655l-605 -655h-133zM456 859q0 23 10 42h59q-8 -18 -8 -31q0 -16 13 -26t34 -10q73 0 75 67h61q0 -57 -38 -88t-106 -31q-46 0 -72.5 20t-27.5 57z" />
    <glyph glyph-name="uni041A" unicode="&#x41a;" horiz-adv-x="583" 
d="M3 0l228 700h74l-101 -311l388 311h108l-444 -352l230 -348h-83l-218 333l-108 -333h-74z" />
    <glyph glyph-name="uni041B" unicode="&#x41b;" horiz-adv-x="678" 
d="M-46 0l3 8q53 62 89 134q37 71 78 197l118 361h506l-228 -700h-74l207 636h-358l-99 -305q-46 -138 -83 -209q-41 -77 -80 -122h-79z" />
    <glyph glyph-name="uni041C" unicode="&#x41c;" horiz-adv-x="940" 
d="M782 0h-70l217 666l-485 -666h-103l-51 666l-217 -666h-70l228 700h126l47 -651l469 651h137z" />
    <glyph glyph-name="uni041D" unicode="&#x41d;" horiz-adv-x="728" 
d="M598 313h-419l-102 -313h-74l228 700h74l-105 -323h419l105 323h74l-228 -700h-74z" />
    <glyph glyph-name="uni041E" unicode="&#x41e;" horiz-adv-x="850" 
d="M86 291q-1 82 32.5 158.5t92.5 134.5t146 92.5t185 33.5q135 0 215.5 -82.5t80.5 -216.5q1 -82 -32.5 -159t-92.5 -135.5t-146 -93t-185 -33.5q-132 0 -214 83.5t-82 217.5zM764 407q0 113 -63.5 176t-175.5 63q-153 3 -260.5 -104.5t-104.5 -246.5q0 -113 64.5 -177
t174.5 -64q100 -2 186 48.5t133.5 132.5t45.5 172z" />
    <glyph glyph-name="uni041F" unicode="&#x41f;" horiz-adv-x="728" 
d="M703 636h-419l-207 -636h-74l228 700h567l-228 -700h-74z" />
    <glyph glyph-name="uni0420" unicode="&#x420;" horiz-adv-x="667" 
d="M3 0l228 700h278q81 0 133.5 -49t52.5 -124q0 -105 -76.5 -167t-218.5 -62h-226l-97 -298h-74zM195 362h220q94 0 149 40.5t55 116.5q0 55 -33.5 86t-91.5 31h-210z" />
    <glyph glyph-name="uni0421" unicode="&#x421;" horiz-adv-x="794" 
d="M88 292q-3 174 119.5 297.5t315.5 120.5q119 0 191 -64.5t80 -166.5l-64 -18q-11 90 -65.5 137.5t-148.5 47.5q-156 2 -256 -100t-98 -248q0 -109 64.5 -176.5t163.5 -67.5q122 0 199 57t116 174l63 -24q-43 -131 -141 -201t-246 -70q-126 0 -209.5 84t-83.5 218z" />
    <glyph glyph-name="uni0422" unicode="&#x422;" horiz-adv-x="667" 
d="M783 700l-21 -64h-262l-207 -636h-74l207 636h-262l21 64h598z" />
    <glyph glyph-name="uni0423" unicode="&#x423;" horiz-adv-x="673" 
d="M711 700h93l-667 -700h-93l259 271l-134 429h78l114 -367z" />
    <glyph glyph-name="uni0424" unicode="&#x424;" horiz-adv-x="842" 
d="M381 0h-74l26 80h-34q-87 0 -150 61.5t-63 161.5q0 143 100 230t276 87h47l26 80h74l-26 -80h19q101 0 164 -62.5t63 -157.5q0 -148 -100.5 -234t-270.5 -86h-51zM315 144h39l134 412h-39q-137 0 -213 -65.5t-76 -182.5q0 -74 40.5 -119t114.5 -45zM591 556h-29
l-134 -412h39q138 0 213 66t75 186q0 74 -44.5 117t-119.5 43z" />
    <glyph glyph-name="uni0425" unicode="&#x425;" horiz-adv-x="652" 
d="M-57 0l390 394l-122 306h75l103 -264l269 264h91l-334 -327l140 -373h-75l-121 327l-322 -327h-94z" />
    <glyph glyph-name="uni0426" unicode="&#x426;" horiz-adv-x="681" 
d="M460 -110l36 110h-493l228 700h74l-207 -636h344l207 636h74l-207 -636h75l-57 -174h-74z" />
    <glyph glyph-name="uni0427" unicode="&#x427;" horiz-adv-x="666" 
d="M434 0l81 249q-46 -47 -98 -69t-127 -22q-72 0 -122.5 46t-50.5 123q0 44 15 89l92 284h74l-93 -285q-15 -48 -15 -84q1 -53 33.5 -81t92.5 -28q124 0 231 123l115 355h74l-228 -700h-74z" />
    <glyph glyph-name="uni0428" unicode="&#x428;" horiz-adv-x="898" 
d="M894 700h74l-228 -700h-737l228 700h74l-207 -636h258l207 636h74l-207 -636h257z" />
    <glyph glyph-name="uni0429" unicode="&#x429;" horiz-adv-x="927" 
d="M706 -110l36 110h-739l228 700h74l-207 -636h258l207 636h74l-207 -636h257l207 636h74l-207 -636h76l-57 -174h-74z" />
    <glyph glyph-name="uni042A" unicode="&#x42a;" horiz-adv-x="780" 
d="M719 234q0 -104 -81.5 -169t-214.5 -65h-322l207 636h-144l21 64h218l-100 -308h235q81 0 131 -43t50 -115zM643 224q0 104 -114 104h-247l-86 -264h247q83 0 141.5 44.5t58.5 115.5z" />
    <glyph glyph-name="uni042B" unicode="&#x42b;" horiz-adv-x="917" 
d="M3 0l228 700h74l-100 -308h235q81 0 131 -43t50 -115q0 -104 -81.5 -169t-214.5 -65h-322zM98 64h247q83 0 141.5 44.5t58.5 115.5q0 104 -114 104h-247zM685 0l228 700h74l-228 -700h-74z" />
    <glyph glyph-name="uni042C" unicode="&#x42c;" horiz-adv-x="682" 
d="M3 0l228 700h74l-100 -308h235q81 0 131 -43t50 -115q0 -104 -81.5 -169t-214.5 -65h-322zM98 64h247q83 0 141.5 44.5t58.5 115.5q0 104 -114 104h-247z" />
    <glyph glyph-name="uni042D" unicode="&#x42d;" horiz-adv-x="788" 
d="M777 427q3 -185 -123 -312.5t-312 -124.5q-125 -2 -209.5 80.5t-90.5 192.5l66 17q8 -98 73.5 -162t176.5 -64q123 0 213.5 75t119.5 192h-339l20 64h330q1 7 1 31q0 107 -60.5 168.5t-155.5 61.5q-204 0 -277 -193l-60 25q37 109 128 170.5t225 61.5q122 0 198 -78.5
t76 -204.5z" />
    <glyph glyph-name="uni042E" unicode="&#x42e;" horiz-adv-x="1112" 
d="M1100 411q1 -82 -32.5 -159t-92.5 -135.5t-146 -93t-185 -33.5q-132 0 -214 83.5t-82 217.5q0 17 1 22h-170l-102 -313h-74l228 700h74l-105 -323h157q31 143 152.5 238t294.5 95q135 0 215.5 -82.5t80.5 -216.5zM1026 407q0 113 -63.5 176t-175.5 63
q-153 3 -260.5 -104.5t-104.5 -246.5q0 -113 64.5 -177t174.5 -64q100 -2 186 48.5t133.5 132.5t45.5 172z" />
    <glyph glyph-name="uni042F" unicode="&#x42f;" horiz-adv-x="667" 
d="M-22 0l4 12l336 292h-6q-73 0 -123.5 49t-50.5 128q0 102 76 160.5t209 58.5h314l-228 -700h-74l99 304h-116l-350 -304h-90zM333 368h222l87 268h-233q-88 0 -140.5 -42.5t-52.5 -108.5q0 -55 31.5 -86t85.5 -31z" />
    <glyph glyph-name="uni0430" unicode="&#x430;" horiz-adv-x="582" 
d="M40 183q-2 128 86 215.5t207 85.5q59 0 102 -31t53 -78l33 99h68l-154 -474h-63l28 84q-60 -94 -186 -94q-73 0 -123.5 53.5t-50.5 139.5zM460 301q0 55 -37.5 90t-97.5 35q-90 0 -152.5 -67.5t-62.5 -170.5q0 -69 33.5 -104.5t89.5 -35.5q83 -2 156.5 78t70.5 175z" />
    <glyph glyph-name="uni0431" unicode="&#x431;" horiz-adv-x="592" 
d="M52 205q0 150 95 260q94 111 274 156q107 27 146.5 49.5t47.5 64.5h60q-10 -69 -58.5 -102t-165.5 -62q-222 -54 -294 -197q37 50 94.5 80t124.5 30q81 0 128.5 -51.5t47.5 -138.5q2 -134 -88 -220t-214 -84q-90 0 -144 62.5t-54 152.5zM480 292q0 61 -33 97.5t-90 36.5
q-94 2 -165.5 -69.5t-69.5 -161.5q0 -66 39 -106.5t102 -40.5q95 0 156 67.5t61 176.5z" />
    <glyph glyph-name="uni0432" unicode="&#x432;" horiz-adv-x="524" 
d="M-7 0l154 474h215q60 0 95 -31t35 -83q0 -49 -33 -81.5t-83 -41.5q29 -7 47 -31.5t18 -58.5q0 -68 -54 -107.5t-152 -39.5h-242zM149 270h167q49 0 78.5 22t29.5 61q0 63 -76 63h-152zM80 58h170q57 0 89.5 23t32.5 63q0 32 -20.5 50t-54.5 18h-167z" />
    <glyph glyph-name="uni0433" unicode="&#x433;" horiz-adv-x="394" 
d="M-7 0l154 474h302l-19 -58h-234l-135 -416h-68z" />
    <glyph glyph-name="uni0434" unicode="&#x434;" horiz-adv-x="557" 
d="M-75 -110l55 168h45q51 63 82 123q29 55 59 144l49 149h331l-135 -416h50l-55 -168h-68l36 110h-345l-36 -110h-68zM100 58h243l116 358h-195l-30 -91q-29 -89 -60 -149q-27 -53 -74 -118z" />
    <glyph glyph-name="uni0435" unicode="&#x435;" horiz-adv-x="546" 
d="M517 331q0 -37 -15 -89l-4 -14h-383q-2 -26 -2 -30q0 -70 39 -110t100 -40q120 0 170 114l59 -24q-69 -148 -242 -148q-82 0 -139 56.5t-57 150.5q0 119 82.5 203t215.5 84q81 0 128.5 -42t47.5 -111zM449 324q0 49 -32 75.5t-87 26.5q-71 0 -125 -40t-78 -106h317
q5 22 5 44z" />
    <glyph glyph-name="uni0436" unicode="&#x436;" horiz-adv-x="680" 
d="M-51 0l302 259l-140 215h74l128 -211l69 211h68l-68 -210l247 210h94l-283 -232l137 -242h-74l-131 232l-76 -232h-68l76 233l-271 -233h-84z" />
    <glyph glyph-name="uni0437" unicode="&#x437;" horiz-adv-x="453" 
d="M196 211l18 58h31q52 0 85.5 23t33.5 61q0 35 -24.5 54t-67.5 19q-89 0 -120 -84l-53 23q17 56 67 87.5t118 31.5q69 0 108.5 -34t39.5 -87q0 -52 -35.5 -86.5t-87.5 -40.5q28 -8 46 -33t18 -58q0 -72 -54 -113.5t-146 -41.5q-72 0 -120 42t-51 106l59 23q5 -53 36.5 -83
t83.5 -30q58 0 91 25.5t33 70.5q0 32 -21.5 49.5t-61.5 17.5h-26z" />
    <glyph glyph-name="uni0438" unicode="&#x438;" horiz-adv-x="554" 
d="M-7 0l154 474h68l-131 -404l372 404h105l-154 -474h-68l131 404l-372 -404h-105z" />
    <glyph glyph-name="uni0439" unicode="&#x439;" horiz-adv-x="554" 
d="M-7 0l154 474h68l-131 -404l372 404h105l-154 -474h-68l131 404l-372 -404h-105zM291 633q0 23 10 42h59q-8 -18 -8 -31q0 -16 13 -26t34 -10q73 0 75 67h61q0 -57 -38 -88t-106 -31q-46 0 -72.5 20t-27.5 57z" />
    <glyph glyph-name="uni043A" unicode="&#x43a;" horiz-adv-x="445" 
d="M-7 0l154 474h68l-68 -210l247 210h94l-283 -232l137 -242h-74l-131 232l-76 -232h-68z" />
    <glyph glyph-name="uni043B" unicode="&#x43b;" horiz-adv-x="510" 
d="M-43 0v12q52 59 89 128q39 71 78 190l47 144h346l-154 -474h-68l135 416h-210l-32 -99q-40 -123 -78 -193q-39 -70 -84 -124h-69z" />
    <glyph glyph-name="uni043C" unicode="&#x43c;" horiz-adv-x="672" 
d="M679 474l-154 -474h-68l134 413l-285 -413h-86l-25 413l-134 -413h-68l154 474h104l24 -421l290 421h114z" />
    <glyph glyph-name="uni043D" unicode="&#x43d;" horiz-adv-x="533" 
d="M215 474l-65 -201h257l65 201h68l-154 -474h-68l70 215h-257l-70 -215h-68l154 474h68z" />
    <glyph glyph-name="uni043E" unicode="&#x43e;" horiz-adv-x="580" 
d="M39 181q0 129 86.5 216t224.5 87q85 0 138 -53.5t53 -137.5q0 -129 -86.5 -216t-224.5 -87q-83 0 -137 54t-54 137zM469 286q0 63 -37 101.5t-97 38.5q-94 1 -160 -71t-64 -167q0 -63 37 -101.5t97 -38.5q94 -1 160 71t64 167z" />
    <glyph glyph-name="uni043F" unicode="&#x43f;" horiz-adv-x="532" 
d="M-7 0l154 474h392l-154 -474h-68l135 416h-256l-135 -416h-68z" />
    <glyph glyph-name="uni0440" unicode="&#x440;" horiz-adv-x="581" 
d="M-71 -198l218 672h62l-26 -79q68 89 189 89q76 0 123 -51.5t47 -136.5q2 -131 -85.5 -219.5t-207.5 -86.5q-59 0 -102 31t-53 78l-97 -297h-68zM472 292q0 65 -33.5 99.5t-89.5 34.5q-83 2 -156.5 -78t-70.5 -175q0 -55 37.5 -90t97.5 -35q90 0 152.5 68.5t62.5 175.5z
" />
    <glyph glyph-name="uni0441" unicode="&#x441;" horiz-adv-x="573" 
d="M45 203q0 123 82.5 202t217.5 79q81 0 132 -48t56 -119l-59 -18q-6 59 -44 93t-96 34q-96 0 -157.5 -61t-61.5 -160q0 -72 40.5 -114.5t106.5 -42.5q70 0 120 37t72 105l61 -21q-30 -85 -99 -132t-165 -47q-88 0 -147 58t-59 155z" />
    <glyph glyph-name="uni0442" unicode="&#x442;" horiz-adv-x="392" 
d="M85 0l135 416h-146l19 58h360l-19 -58h-146l-135 -416h-68z" />
    <glyph glyph-name="uni0443" unicode="&#x443;" horiz-adv-x="455" 
d="M444 474h73l-476 -659h-75l158 218l-37 441h67l30 -358z" />
    <glyph glyph-name="uni0444" unicode="&#x444;" horiz-adv-x="908" 
d="M274 -198l87 269q-54 -81 -162 -81q-70 0 -114 53.5t-44 138.5q-2 129 79.5 216.5t191.5 85.5q58 0 97.5 -29.5t51.5 -76.5l105 322h68l-95 -292q57 76 161 76q73 0 118.5 -56.5t45.5 -141.5q0 -135 -74.5 -215.5t-194.5 -80.5q-55 0 -99 32q-45 32 -58 75l-96 -295h-68z
M428 301q0 57 -33.5 91t-90.5 34q-81 0 -137 -67.5t-56 -172.5q0 -65 29 -101.5t78 -36.5q82 -2 147 78.5t63 174.5zM794 281q0 64 -33 104.5t-87 40.5q-85 0 -141 -67t-56 -168q0 -58 34.5 -100.5t89.5 -42.5q90 0 141.5 61.5t51.5 171.5z" />
    <glyph glyph-name="uni0445" unicode="&#x445;" horiz-adv-x="448" 
d="M492 474l-228 -228l93 -246h-68l-73 203l-195 -203h-84l255 260l-80 214h71l60 -171l164 171h85z" />
    <glyph glyph-name="uni0446" unicode="&#x446;" horiz-adv-x="548" 
d="M329 -110l36 110h-372l154 474h68l-135 -416h255l135 416h68l-135 -416h49l-55 -168h-68z" />
    <glyph glyph-name="uni0447" unicode="&#x447;" horiz-adv-x="533" 
d="M322 0l60 185q-72 -74 -180 -74q-55 0 -91 31t-36 81q0 30 10 61l62 190h68l-64 -196q-8 -27 -8 -47q0 -29 21 -45.5t56 -16.5q52 0 89 18q39 19 96 66l71 221h64l-154 -474h-64z" />
    <glyph glyph-name="uni0448" unicode="&#x448;" horiz-adv-x="764" 
d="M-7 0l154 474h68l-135 -416h210l135 416h68l-135 -416h210l135 416h68l-154 -474h-624z" />
    <glyph glyph-name="uni0449" unicode="&#x449;" horiz-adv-x="781" 
d="M562 -110l36 110h-605l154 474h68l-135 -416h210l135 416h68l-135 -416h210l135 416h68l-135 -416h49l-55 -168h-68z" />
    <glyph glyph-name="uni044A" unicode="&#x44a;" horiz-adv-x="566" 
d="M67 0l135 416h-120l19 58h188l-58 -180h124q64 0 99 -34t35 -90q0 -78 -54.5 -124t-155.5 -46h-212zM154 58h142q57 0 91 30t34 77q0 33 -20.5 52t-55.5 19h-133z" />
    <glyph glyph-name="uni044B" unicode="&#x44b;" horiz-adv-x="700" 
d="M-7 0l154 474h68l-58 -180h124q64 0 99 -34t35 -90q0 -78 -54.5 -124t-155.5 -46h-212zM80 58h142q57 0 91 30t34 77q0 33 -20.5 52t-55.5 19h-133zM639 474h68l-154 -474h-68z" />
    <glyph glyph-name="uni044C" unicode="&#x44c;" horiz-adv-x="492" 
d="M-7 0l154 474h68l-58 -180h124q64 0 99 -34t35 -90q0 -78 -54.5 -124t-155.5 -46h-212zM80 58h142q57 0 91 30t34 77q0 33 -20.5 52t-55.5 19h-133z" />
    <glyph glyph-name="uni044D" unicode="&#x44d;" horiz-adv-x="564" 
d="M520 284q0 -130 -79 -212t-220 -82q-86 0 -144 54.5t-60 134.5l60 13q5 -68 44 -106t108 -38q86 0 141.5 43t73.5 120h-205l18 58h195v12q0 67 -36.5 106t-102.5 39q-131 0 -176 -129l-57 22q27 78 91.5 121.5t150.5 43.5q91 0 144.5 -55t53.5 -145z" />
    <glyph glyph-name="uni044E" unicode="&#x44e;" horiz-adv-x="761" 
d="M722 293q0 -128 -87 -215.5t-224 -87.5q-86 0 -138.5 53t-52.5 138q0 4 2 34h-91l-70 -215h-68l154 474h68l-65 -201h83q28 93 108 152t190 59q86 0 138.5 -53t52.5 -138zM650 290q0 60 -37 98t-97 38q-96 0 -160 -71t-64 -171q0 -60 37 -98t97 -38q96 0 160 71t64 171z
" />
    <glyph glyph-name="uni044F" unicode="&#x44f;" horiz-adv-x="499" 
d="M-26 10l211 185q-47 8 -78.5 44t-31.5 85q0 71 51 110.5t148 39.5h232l-154 -474h-68l63 195h-72l-223 -195h-81zM366 253l53 163h-154q-122 0 -122 -88q0 -34 22 -54.5t57 -20.5h144z" />
    <glyph glyph-name="uni0450" unicode="&#x450;" horiz-adv-x="546" 
d="M517 331q0 -37 -15 -89l-4 -14h-383q-2 -26 -2 -30q0 -70 39 -110t100 -40q120 0 170 114l59 -24q-69 -148 -242 -148q-82 0 -139 56.5t-57 150.5q0 119 82.5 203t215.5 84q81 0 128.5 -42t47.5 -111zM449 324q0 49 -32 75.5t-87 26.5q-71 0 -125 -40t-78 -106h317
q5 22 5 44zM342 555l-78 121l4 12h91l41 -133h-58z" />
    <glyph glyph-name="uni0451" unicode="&#x451;" horiz-adv-x="546" 
d="M517 331q0 -37 -15 -89l-4 -14h-383q-2 -26 -2 -30q0 -70 39 -110t100 -40q120 0 170 114l59 -24q-69 -148 -242 -148q-82 0 -139 56.5t-57 150.5q0 119 82.5 203t215.5 84q81 0 128.5 -42t47.5 -111zM449 324q0 49 -32 75.5t-87 26.5q-71 0 -125 -40t-78 -106h317
q5 22 5 44zM260 571l28 84h84l-28 -84h-84zM408 571l28 84h84l-28 -84h-84z" />
    <glyph glyph-name="uni0452" unicode="&#x452;" horiz-adv-x="546" 
d="M503 354q0 -34 -12 -72l-127 -389q-33 -101 -133 -101q-39 0 -64.5 22t-27.5 57l61 22q6 -41 45 -41q37 0 53 48l129 394q8 26 8 50q-1 37 -25.5 59.5t-66.5 22.5q-62 0 -120.5 -54.5t-84.5 -134.5l-77 -237h-68l186 571h-68l17 52h68l25 77h68l-25 -77h157l-17 -52h-157
l-60 -186q65 99 181 99q61 0 98 -37.5t37 -92.5z" />
    <glyph glyph-name="uni0453" unicode="&#x453;" horiz-adv-x="394" 
d="M-7 0l154 474h302l-19 -58h-234l-135 -416h-68zM293 555l103 133h100l-4 -12l-134 -121h-65z" />
    <glyph glyph-name="uni0454" unicode="&#x454;" horiz-adv-x="568" 
d="M452 192l58 -23q-35 -86 -105.5 -132.5t-163.5 -46.5q-91 0 -146 53.5t-55 146.5q-2 121 88.5 208.5t214.5 85.5q85 0 132 -44.5t53 -122.5l-57 -15q-8 60 -43 92t-90 32q-80 0 -138.5 -42t-79.5 -115h201l-18 -58h-192q-1 -4 -1 -18q0 -66 36.5 -105.5t101.5 -39.5
q142 0 204 144z" />
    <glyph glyph-name="uni0455" unicode="&#x455;" horiz-adv-x="483" 
d="M9 145l61 15q2 -52 37 -82t94 -30q63 0 101 26t38 69q0 33 -24.5 51t-89.5 33q-126 29 -126 128q0 60 48 94.5t129 34.5q68 0 109.5 -31.5t49.5 -88.5l-58 -11q-6 35 -34 57t-72 22q-50 0 -80 -21t-30 -57q0 -29 27.5 -48t84.5 -31q134 -28 134 -126q0 -70 -58 -114.5
t-151 -44.5q-88 0 -137 43t-53 112z" />
    <glyph glyph-name="uni0456" unicode="&#x456;" horiz-adv-x="208" 
d="M147 474h68l-154 -474h-68zM174 571l26 83h78l-26 -83h-78z" />
    <glyph glyph-name="uni0457" unicode="&#x457;" horiz-adv-x="208" 
d="M147 474h68l-154 -474h-68zM94 571l28 84h84l-28 -84h-84zM242 571l28 84h84l-28 -84h-84z" />
    <glyph glyph-name="uni0458" unicode="&#x458;" horiz-adv-x="208" 
d="M-71 -198l218 672h68l-218 -672h-68zM174 571l26 83h78l-26 -83h-78z" />
    <glyph glyph-name="uni0459" unicode="&#x459;" horiz-adv-x="762" 
d="M-43 0v12q52 59 89 128q39 71 78 190l47 144h314l-58 -180h124q64 0 99 -34t35 -90q0 -78 -54.5 -124t-155.5 -46h-212l135 416h-178l-32 -99q-40 -123 -78 -193q-39 -70 -84 -124h-69zM350 58h142q57 0 91 30t34 77q0 33 -20.5 52t-55.5 19h-133z" />
    <glyph glyph-name="uni045A" unicode="&#x45a;" horiz-adv-x="794" 
d="M-7 0l154 474h68l-65 -201h235l65 201h68l-65 -201h123q67 0 102 -30.5t35 -86.5q0 -74 -52 -115t-153 -41h-212l70 215h-235l-70 -215h-68zM383 58h142q57 0 88.5 25t31.5 68q0 64 -79 64h-132z" />
    <glyph glyph-name="uni045B" unicode="&#x45b;" horiz-adv-x="546" 
d="M-7 0l228 700h68l-102 -315q65 99 181 99q61 0 98 -37.5t37 -92.5q0 -34 -12 -72l-92 -282h-68l96 294q8 26 8 50q-1 37 -25.5 59.5t-66.5 22.5q-62 0 -120.5 -54.5t-84.5 -134.5l-77 -237h-68zM128 623h293l-17 -52h-293z" />
    <glyph glyph-name="uni045C" unicode="&#x45c;" horiz-adv-x="445" 
d="M-7 0l154 474h68l-68 -210l247 210h94l-283 -232l137 -242h-74l-131 232l-76 -232h-68zM288 555l103 133h100l-4 -12l-134 -121h-65z" />
    <glyph glyph-name="uni045D" unicode="&#x45d;" horiz-adv-x="554" 
d="M-7 0l154 474h68l-131 -404l372 404h105l-154 -474h-68l131 404l-372 -404h-105zM349 555l-78 121l4 12h91l41 -133h-58z" />
    <glyph glyph-name="uni045E" unicode="&#x45e;" horiz-adv-x="455" 
d="M444 474h73l-476 -659h-75l158 218l-37 441h67l30 -358zM227 633q0 23 10 42h59q-8 -18 -8 -31q0 -16 13 -26t34 -10q73 0 75 67h61q0 -57 -38 -88t-106 -31q-46 0 -72.5 20t-27.5 57z" />
    <glyph glyph-name="uni045F" unicode="&#x45f;" horiz-adv-x="532" 
d="M119 -110l36 110h-162l154 474h68l-135 -416h256l135 416h68l-154 -474h-162l-36 -110h-68z" />
    <glyph glyph-name="uni0462" unicode="&#x462;" horiz-adv-x="749" 
d="M688 234q0 -104 -81.5 -169t-214.5 -65h-322l175 536h-143l18 58h143l35 106h74l-34 -106h136l-18 -58h-137l-47 -144h235q81 0 131 -43t50 -115zM612 224q0 104 -114 104h-247l-86 -264h247q83 0 141.5 44.5t58.5 115.5z" />
    <glyph glyph-name="uni0463" unicode="&#x463;" horiz-adv-x="476" 
d="M410 211q0 -95 -70.5 -153t-191.5 -58h-157l175 536h-121l19 58h120l35 106h68l-35 -106h152l-19 -58h-151l-54 -164h68q71 0 116 -45q46 -45 46 -116zM342 207q0 51 -30 79t-84 28h-67l-83 -256h77q82 0 135 41q52 40 52 108z" />
    <glyph glyph-name="uni0472" unicode="&#x472;" horiz-adv-x="850" 
d="M838 411q1 -82 -32.5 -159t-92.5 -135.5t-146 -93t-185 -33.5q-132 0 -214 83.5t-82 217.5q-1 82 32.5 158.5t92.5 134.5t146 92.5t185 33.5q135 0 215.5 -82.5t80.5 -216.5zM167 366q70 58 166 58q36 0 63.5 -9.5t73.5 -35.5q44 -24 70.5 -34t59.5 -10q49 0 86.5 17.5
t77.5 58.5q-1 111 -64.5 173t-174.5 62q-136 0 -234 -80t-124 -200zM757 338q-71 -62 -170 -62q-36 0 -63.5 9.5t-73.5 35.5q-44 24 -70.5 34t-59.5 10q-91 0 -160 -72q1 -113 65 -176t174 -63q133 -2 233 81t125 203z" />
    <glyph glyph-name="uni0473" unicode="&#x473;" horiz-adv-x="580" 
d="M541 293q0 -128 -87 -215.5t-224 -87.5q-86 0 -138.5 53t-52.5 138q0 128 87 215.5t224 87.5q86 0 138.5 -53t52.5 -138zM122 260q40 25 93 25q37 0 84 -22q51 -20 74 -20q53 0 96 32v15q0 60 -37 98t-97 38q-76 0 -134 -47q-57 -46 -79 -119zM458 215q-40 -25 -93 -25
q-37 0 -84 22q-51 20 -74 20q-53 0 -96 -32v-16q0 -60 37 -98t97 -38q76 0 134 47q58 46 79 120z" />
    <glyph glyph-name="uni0474" unicode="&#x474;" horiz-adv-x="762" 
d="M225 0l-63 700h72l53 -639l419 579q31 42 57.5 61t60.5 19q67 0 86 -46l-49 -44q-11 23 -35 23q-28 0 -49 -30l-454 -623h-98z" />
    <glyph glyph-name="uni0475" unicode="&#x475;" horiz-adv-x="530" 
d="M133 0l-36 474h66l29 -408l268 382q32 47 75 47q25 0 43 -11.5t24 -30.5l-47 -44q-7 16 -22 16q-14 0 -28 -19l-285 -406h-87z" />
    <glyph glyph-name="uni0490" unicode="&#x490;" horiz-adv-x="604" 
d="M3 0l227 700h417l55 170h74l-76 -234h-417l-206 -636h-74z" />
    <glyph glyph-name="uni0491" unicode="&#x491;" horiz-adv-x="394" 
d="M-7 0l154 474h234l35 111h68l-54 -169h-234l-135 -416h-68z" />
    <glyph glyph-name="uni0492" unicode="&#x492;" horiz-adv-x="645" 
d="M720 636h-417l-83 -254h257l-17 -52h-257l-107 -330h-74l107 330h-78l17 52h78l104 318h491z" />
    <glyph glyph-name="uni0493" unicode="&#x493;" horiz-adv-x="406" 
d="M446 416h-234l-49 -152h117l-16 -48h-117l-70 -216h-68l70 216h-63l16 48h63l68 210h302z" />
    <glyph glyph-name="uni0496" unicode="&#x496;" horiz-adv-x="936" 
d="M1051 700l-444 -352l232 -348h-83l-220 333l-108 -333h-74l108 331l-416 -331h-103l469 377l-225 323h83l210 -312l102 312h74l-101 -311l388 311h108zM741 -110l36 110l19 64h76l-57 -174h-74z" />
    <glyph glyph-name="uni0497" unicode="&#x497;" horiz-adv-x="680" 
d="M-51 0l302 259l-140 215h74l128 -211l69 211h68l-68 -210l247 210h94l-283 -232l137 -242h-74l-131 232l-76 -232h-68l76 233l-271 -233h-84zM485 -110l35 110l19 64h66l-56 -174h-64z" />
    <glyph glyph-name="uni0498" unicode="&#x498;" horiz-adv-x="585" 
d="M32 193l70 15q18 -154 151 -154q86 0 135 42.5t49 114.5q0 53 -30 82t-82 29h-17l21 64h21q85 0 133 37t48 108q0 55 -34 85t-93 30q-129 0 -179 -131l-58 25q59 170 249 170q85 0 137 -48t52 -121q0 -83 -48 -132t-119 -63q35 -15 55 -47.5t20 -76.5q0 -103 -72 -167.5
t-196 -64.5q-98 0 -152 58q-53 58 -61 145zM118 -120l40 9q2 -17 14.5 -28t31.5 -11q26 0 39.5 13.5t13.5 35.5q0 16 -9.5 27t-26.5 11q-29 0 -47 -27l-39 18q20 27 49 88h45l-15 -24q-19 -31 -33 -47q24 25 55 25q26 0 43.5 -18t17.5 -47q0 -42 -26.5 -67.5t-72.5 -25.5
q-31 0 -54 19t-26 49z" />
    <glyph glyph-name="uni0499" unicode="&#x499;" horiz-adv-x="453" 
d="M196 211l18 58h31q52 0 85.5 23t33.5 61q0 35 -24.5 54t-67.5 19q-89 0 -120 -84l-53 23q17 56 67 87.5t118 31.5q69 0 108.5 -34t39.5 -87q0 -52 -35.5 -86.5t-87.5 -40.5q28 -8 46 -33t18 -58q0 -72 -54 -113.5t-146 -41.5q-72 0 -120 42t-51 106l59 23q5 -53 36.5 -83
t83.5 -30q58 0 91 25.5t33 70.5q0 32 -21.5 49.5t-61.5 17.5h-26zM58 -120l40 9q2 -17 14.5 -28t31.5 -11q26 0 39.5 13.5t13.5 35.5q0 16 -9.5 27t-26.5 11q-29 0 -47 -27l-39 18q20 27 49 88h45l-15 -24q-19 -31 -33 -47q24 25 55 25q26 0 43.5 -18t17.5 -47
q0 -42 -26.5 -67.5t-72.5 -25.5q-31 0 -54 19t-26 49z" />
    <glyph glyph-name="uni049A" unicode="&#x49a;" horiz-adv-x="583" 
d="M3 0l228 700h74l-101 -311l388 311h108l-444 -352l230 -348h-83l-218 333l-108 -333h-74zM387 -110l36 110l19 64h76l-57 -174h-74z" />
    <glyph glyph-name="uni049B" unicode="&#x49b;" horiz-adv-x="445" 
d="M-7 0l154 474h68l-68 -210l247 210h94l-283 -232l137 -242h-74l-131 232l-76 -232h-68zM250 -110l35 110l19 64h66l-56 -174h-64z" />
    <glyph glyph-name="uni04A0" unicode="&#x4a0;" horiz-adv-x="733" 
d="M850 700l-444 -352l230 -348h-83l-218 333l-108 -333h-74l209 642h-196l18 58h271l-101 -311l388 311h108z" />
    <glyph glyph-name="uni04A1" unicode="&#x4a1;" horiz-adv-x="500" 
d="M543 474l-283 -232l137 -242h-74l-131 232l-76 -232h-68l137 422h-104l16 52h173l-68 -210l247 210h94z" />
    <glyph glyph-name="uni04A2" unicode="&#x4a2;" horiz-adv-x="728" 
d="M598 313h-419l-102 -313h-74l228 700h74l-105 -323h419l105 323h74l-228 -700h-74zM534 -110l36 110l19 64h76l-57 -174h-74z" />
    <glyph glyph-name="uni04A3" unicode="&#x4a3;" horiz-adv-x="533" 
d="M215 474l-65 -201h257l65 201h68l-154 -474h-68l70 215h-257l-70 -215h-68l154 474h68zM351 -110l35 110l19 64h66l-56 -174h-64z" />
    <glyph glyph-name="uni04AA" unicode="&#x4aa;" horiz-adv-x="794" 
d="M88 292q-3 174 119.5 297.5t315.5 120.5q119 0 191 -64.5t80 -166.5l-64 -18q-11 90 -65.5 137.5t-148.5 47.5q-156 2 -256 -100t-98 -248q0 -109 64.5 -176.5t163.5 -67.5q122 0 199 57t116 174l63 -24q-43 -131 -141 -201t-246 -70q-126 0 -209.5 84t-83.5 218z
M284 -120l40 9q2 -17 14.5 -28t31.5 -11q26 0 39.5 13.5t13.5 35.5q0 16 -9.5 27t-26.5 11q-29 0 -47 -27l-39 18q20 27 49 88h45l-15 -24q-19 -31 -33 -47q24 25 55 25q26 0 43.5 -18t17.5 -47q0 -42 -26.5 -67.5t-72.5 -25.5q-31 0 -54 19t-26 49z" />
    <glyph glyph-name="uni04AB" unicode="&#x4ab;" horiz-adv-x="573" 
d="M45 203q0 123 82.5 202t217.5 79q81 0 132 -48t56 -119l-59 -18q-6 59 -44 93t-96 34q-96 0 -157.5 -61t-61.5 -160q0 -72 40.5 -114.5t106.5 -42.5q70 0 120 37t72 105l61 -21q-30 -85 -99 -132t-165 -47q-88 0 -147 58t-59 155zM164 -120l40 9q2 -17 14.5 -28t31.5 -11
q26 0 39.5 13.5t13.5 35.5q0 16 -9.5 27t-26.5 11q-29 0 -47 -27l-39 18q20 27 49 88h45l-15 -24q-19 -31 -33 -47q24 25 55 25q26 0 43.5 -18t17.5 -47q0 -42 -26.5 -67.5t-72.5 -25.5q-31 0 -54 19t-26 49z" />
    <glyph glyph-name="uni04AE" unicode="&#x4ae;" horiz-adv-x="646" 
d="M208 0l96 296l-138 404h72l116 -343l333 343h93l-403 -408l-95 -292h-74z" />
    <glyph glyph-name="uni04AF" unicode="&#x4af;" horiz-adv-x="506" 
d="M78 -198l64 198l-45 474h66l32 -397l286 397h82l-353 -474l-64 -198h-68z" />
    <glyph glyph-name="uni04B0" unicode="&#x4b0;" horiz-adv-x="646" 
d="M780 700l-352 -356h129l-16 -52h-164l-95 -292h-74l95 292h-171l16 52h140l-122 356h72l116 -343l333 343h93z" />
    <glyph glyph-name="uni04B1" unicode="&#x4b1;" horiz-adv-x="506" 
d="M563 474l-334 -449h81l-16 -50h-92l-56 -173h-68l56 173h-92l16 50h82l-43 449h66l32 -397l286 397h82z" />
    <glyph glyph-name="uni04B2" unicode="&#x4b2;" horiz-adv-x="652" 
d="M-57 0l390 394l-122 306h75l103 -264l269 264h91l-334 -327l140 -373h-75l-121 327l-322 -327h-94zM474 -110l36 110l19 64h76l-57 -174h-74z" />
    <glyph glyph-name="uni04B3" unicode="&#x4b3;" horiz-adv-x="448" 
d="M492 474l-228 -228l93 -246h-68l-73 203l-195 -203h-84l255 260l-80 214h71l60 -171l164 171h85zM278 -110l35 110l19 64h66l-56 -174h-64z" />
    <glyph glyph-name="uni04B6" unicode="&#x4b6;" horiz-adv-x="666" 
d="M434 0l81 249q-46 -47 -98 -69t-127 -22q-72 0 -122.5 46t-50.5 123q0 44 15 89l92 284h74l-93 -285q-15 -48 -15 -84q1 -53 33.5 -81t92.5 -28q124 0 231 123l115 355h74l-228 -700h-74zM472 -110l36 110l19 64h76l-57 -174h-74z" />
    <glyph glyph-name="uni04B7" unicode="&#x4b7;" horiz-adv-x="533" 
d="M322 0l60 185q-72 -74 -180 -74q-55 0 -91 31t-36 81q0 30 10 61l62 190h68l-64 -196q-8 -27 -8 -47q0 -29 21 -45.5t56 -16.5q52 0 89 18q39 19 96 66l71 221h64l-154 -474h-64zM351 -110l35 110l19 64h66l-56 -174h-64z" />
    <glyph glyph-name="uni04BA" unicode="&#x4ba;" horiz-adv-x="666" 
d="M3 0l228 700h74l-81 -249q91 91 220 91q84 0 132.5 -46.5t48.5 -123.5q0 -33 -14 -77l-96 -295h-74l93 285q12 37 12 66q0 59 -33 93t-94 34q-114 0 -223 -112l-119 -366h-74z" />
    <glyph glyph-name="uni04BB" unicode="&#x4bb;" horiz-adv-x="546" 
d="M-7 0l228 700h68l-102 -315q65 99 181 99q61 0 98 -37.5t37 -92.5q0 -34 -12 -72l-92 -282h-68l96 294q8 26 8 50q-1 37 -25.5 59.5t-66.5 22.5q-62 0 -120.5 -54.5t-84.5 -134.5l-77 -237h-68z" />
    <glyph glyph-name="uni04C0" unicode="&#x4c0;" horiz-adv-x="235" 
d="M3 0l228 700h74l-228 -700h-74z" />
    <glyph glyph-name="uni04C1" unicode="&#x4c1;" horiz-adv-x="936" 
d="M1051 700l-444 -352l232 -348h-83l-220 333l-108 -333h-74l108 331l-416 -331h-103l469 377l-225 323h83l210 -312l102 312h74l-101 -311l388 311h108zM545 859q0 23 10 42h59q-8 -18 -8 -31q0 -16 13 -26t34 -10q73 0 75 67h61q0 -57 -38 -88t-106 -31q-46 0 -72.5 20
t-27.5 57z" />
    <glyph glyph-name="uni04C2" unicode="&#x4c2;" horiz-adv-x="680" 
d="M-51 0l302 259l-140 215h74l128 -211l69 211h68l-68 -210l247 210h94l-283 -232l137 -242h-74l-131 232l-76 -232h-68l76 233l-271 -233h-84zM353 633q0 23 10 42h59q-8 -18 -8 -31q0 -16 13 -26t34 -10q73 0 75 67h61q0 -57 -38 -88t-106 -31q-46 0 -72.5 20t-27.5 57z
" />
    <glyph glyph-name="uni04CF" unicode="&#x4cf;" horiz-adv-x="209" 
d="M-7 0l228 700h68l-228 -700h-68z" />
    <glyph glyph-name="uni04D0" unicode="&#x4d0;" horiz-adv-x="724" 
d="M563 0l-18 188h-384l-140 -188h-84l527 700h98l71 -700h-70zM208 252h331l-38 394zM438 859q0 23 10 42h59q-8 -18 -8 -31q0 -16 13 -26t34 -10q73 0 75 67h61q0 -57 -38 -88t-106 -31q-46 0 -72.5 20t-27.5 57z" />
    <glyph glyph-name="uni04D1" unicode="&#x4d1;" horiz-adv-x="582" 
d="M40 183q-2 128 86 215.5t207 85.5q59 0 102 -31t53 -78l33 99h68l-154 -474h-63l28 84q-60 -94 -186 -94q-73 0 -123.5 53.5t-50.5 139.5zM460 301q0 55 -37.5 90t-97.5 35q-90 0 -152.5 -67.5t-62.5 -170.5q0 -69 33.5 -104.5t89.5 -35.5q83 -2 156.5 78t70.5 175z
M277 633q0 23 10 42h59q-8 -18 -8 -31q0 -16 13 -26t34 -10q73 0 75 67h61q0 -57 -38 -88t-106 -31q-46 0 -72.5 20t-27.5 57z" />
    <glyph glyph-name="uni04D2" unicode="&#x4d2;" horiz-adv-x="724" 
d="M563 0l-18 188h-384l-140 -188h-84l527 700h98l71 -700h-70zM208 252h331l-38 394zM426 797l28 84h84l-28 -84h-84zM574 797l28 84h84l-28 -84h-84z" />
    <glyph glyph-name="uni04D3" unicode="&#x4d3;" horiz-adv-x="582" 
d="M40 183q-2 128 86 215.5t207 85.5q59 0 102 -31t53 -78l33 99h68l-154 -474h-63l28 84q-60 -94 -186 -94q-73 0 -123.5 53.5t-50.5 139.5zM460 301q0 55 -37.5 90t-97.5 35q-90 0 -152.5 -67.5t-62.5 -170.5q0 -69 33.5 -104.5t89.5 -35.5q83 -2 156.5 78t70.5 175z
M253 571l28 84h84l-28 -84h-84zM401 571l28 84h84l-28 -84h-84z" />
    <glyph glyph-name="uni04D4" unicode="&#x4d4;" horiz-adv-x="918" 
d="M978 636h-367l-79 -242h337l-20 -64h-337l-87 -266h377l-21 -64h-447l61 188h-220l-153 -188h-85l568 700h494zM416 252l126 386l-315 -386h189z" />
    <glyph glyph-name="uni04D5" unicode="&#x4d5;" horiz-adv-x="944" 
d="M40 183q-2 128 86 215.5t207 85.5q59 0 102 -31t53 -78l33 99h68l-22 -68q31 36 77 57t96 21q81 0 128 -42t47 -111q0 -37 -15 -89l-4 -14h-381q-4 -17 -4 -36q0 -65 39 -104.5t100 -39.5q120 0 170 114l59 -24q-68 -148 -243 -148q-58 0 -104 30.5t-63 83.5l-34 -104
h-63l28 84q-60 -94 -186 -94q-73 0 -123.5 53.5t-50.5 139.5zM460 301q0 55 -37.5 90t-97.5 35q-90 0 -152.5 -67.5t-62.5 -170.5q0 -69 33.5 -104.5t89.5 -35.5q83 -2 156.5 78t70.5 175zM525 280h317q5 22 5 44q0 49 -32 75.5t-87 26.5q-73 0 -126 -40t-77 -106z" />
    <glyph glyph-name="uni04D6" unicode="&#x4d6;" horiz-adv-x="622" 
d="M231 700h472l-21 -64h-398l-79 -242h368l-20 -64h-368l-87 -266h408l-21 -64h-482zM393 859q0 23 10 42h59q-8 -18 -8 -31q0 -16 13 -26t34 -10q73 0 75 67h61q0 -57 -38 -88t-106 -31q-46 0 -72.5 20t-27.5 57z" />
    <glyph glyph-name="uni04D7" unicode="&#x4d7;" horiz-adv-x="546" 
d="M517 331q0 -37 -15 -89l-4 -14h-383q-2 -26 -2 -30q0 -70 39 -110t100 -40q120 0 170 114l59 -24q-69 -148 -242 -148q-82 0 -139 56.5t-57 150.5q0 119 82.5 203t215.5 84q81 0 128.5 -42t47.5 -111zM449 324q0 49 -32 75.5t-87 26.5q-71 0 -125 -40t-78 -106h317
q5 22 5 44zM284 633q0 23 10 42h59q-8 -18 -8 -31q0 -16 13 -26t34 -10q73 0 75 67h61q0 -57 -38 -88t-106 -31q-46 0 -72.5 20t-27.5 57z" />
    <glyph glyph-name="uni04D8" unicode="&#x4d8;" horiz-adv-x="741" 
d="M728 421q1 -118 -52 -217.5t-152.5 -157.5t-222.5 -56q-116 0 -184 65.5t-68 163.5q0 58 19 116l10 31h573q3 25 3 52q0 104 -58 165q-57 63 -154 63q-94 0 -162.5 -47t-100.5 -137l-63 26q39 106 130 164t204 58q124 0 201 -80.5t77 -208.5zM638 302h-508
q-12 -40 -12 -83q0 -72 52 -118.5t138 -46.5q125 0 211 68q88 68 119 180z" />
    <glyph glyph-name="uni04D9" unicode="&#x4d9;" horiz-adv-x="546" 
d="M503 277q0 -119 -82.5 -203t-215.5 -84q-81 0 -128.5 42t-47.5 111q0 36 15 89l4 14h383q2 26 2 30q0 70 -39 110t-100 40q-120 0 -170 -114l-59 24q69 148 242 148q82 0 139 -56.5t57 -150.5zM419 194h-317q-5 -22 -5 -44q0 -49 32 -75.5t87 -26.5q71 0 125 40t78 106z
" />
    <glyph glyph-name="uni04DA" unicode="&#x4da;" horiz-adv-x="741" 
d="M728 421q1 -118 -52 -217.5t-152.5 -157.5t-222.5 -56q-116 0 -184 65.5t-68 163.5q0 58 19 116l10 31h573q3 25 3 52q0 104 -58 165q-57 63 -154 63q-94 0 -162.5 -47t-100.5 -137l-63 26q39 106 130 164t204 58q124 0 201 -80.5t77 -208.5zM638 302h-508
q-12 -40 -12 -83q0 -72 52 -118.5t138 -46.5q125 0 211 68q88 68 119 180zM384 797l28 84h84l-28 -84h-84zM532 797l28 84h84l-28 -84h-84z" />
    <glyph glyph-name="uni04DB" unicode="&#x4db;" horiz-adv-x="546" 
d="M503 277q0 -119 -82.5 -203t-215.5 -84q-81 0 -128.5 42t-47.5 111q0 36 15 89l4 14h383q2 26 2 30q0 70 -39 110t-100 40q-120 0 -170 -114l-59 24q69 148 242 148q82 0 139 -56.5t57 -150.5zM419 194h-317q-5 -22 -5 -44q0 -49 32 -75.5t87 -26.5q71 0 125 40t78 106z
M228 571l28 84h84l-28 -84h-84zM376 571l28 84h84l-28 -84h-84z" />
    <glyph glyph-name="uni04DC" unicode="&#x4dc;" horiz-adv-x="936" 
d="M1051 700l-444 -352l232 -348h-83l-220 333l-108 -333h-74l108 331l-416 -331h-103l469 377l-225 323h83l210 -312l102 312h74l-101 -311l388 311h108zM533 797l28 84h84l-28 -84h-84zM681 797l28 84h84l-28 -84h-84z" />
    <glyph glyph-name="uni04DD" unicode="&#x4dd;" horiz-adv-x="680" 
d="M-51 0l302 259l-140 215h74l128 -211l69 211h68l-68 -210l247 210h94l-283 -232l137 -242h-74l-131 232l-76 -232h-68l76 233l-271 -233h-84zM329 571l28 84h84l-28 -84h-84zM477 571l28 84h84l-28 -84h-84z" />
    <glyph glyph-name="uni04DE" unicode="&#x4de;" horiz-adv-x="585" 
d="M32 193l70 15q18 -154 151 -154q86 0 135 42.5t49 114.5q0 53 -30 82t-82 29h-17l21 64h21q85 0 133 37t48 108q0 55 -34 85t-93 30q-129 0 -179 -131l-58 25q59 170 249 170q85 0 137 -48t52 -121q0 -83 -48 -132t-119 -63q35 -15 55 -47.5t20 -76.5q0 -103 -72 -167.5
t-196 -64.5q-98 0 -152 58q-53 58 -61 145zM333 797l28 84h84l-28 -84h-84zM481 797l28 84h84l-28 -84h-84z" />
    <glyph glyph-name="uni04DF" unicode="&#x4df;" horiz-adv-x="453" 
d="M196 211l18 58h31q52 0 85.5 23t33.5 61q0 35 -24.5 54t-67.5 19q-89 0 -120 -84l-53 23q17 56 67 87.5t118 31.5q69 0 108.5 -34t39.5 -87q0 -52 -35.5 -86.5t-87.5 -40.5q28 -8 46 -33t18 -58q0 -72 -54 -113.5t-146 -41.5q-72 0 -120 42t-51 106l59 23q5 -53 36.5 -83
t83.5 -30q58 0 91 25.5t33 70.5q0 32 -21.5 49.5t-61.5 17.5h-26zM217 571l28 84h84l-28 -84h-84zM365 571l28 84h84l-28 -84h-84z" />
    <glyph glyph-name="uni04E2" unicode="&#x4e2;" horiz-adv-x="760" 
d="M3 0l228 700h74l-213 -655l605 655h133l-228 -700h-74l213 655l-605 -655h-133zM442 812l18 58h248l-18 -58h-248z" />
    <glyph glyph-name="uni04E3" unicode="&#x4e3;" horiz-adv-x="554" 
d="M-7 0l154 474h68l-131 -404l372 404h105l-154 -474h-68l131 404l-372 -404h-105zM266 586l18 58h248l-18 -58h-248z" />
    <glyph glyph-name="uni04E4" unicode="&#x4e4;" horiz-adv-x="760" 
d="M3 0l228 700h74l-213 -655l605 655h133l-228 -700h-74l213 655l-605 -655h-133zM444 797l28 84h84l-28 -84h-84zM592 797l28 84h84l-28 -84h-84z" />
    <glyph glyph-name="uni04E5" unicode="&#x4e5;" horiz-adv-x="554" 
d="M-7 0l154 474h68l-131 -404l372 404h105l-154 -474h-68l131 404l-372 -404h-105zM267 571l28 84h84l-28 -84h-84zM415 571l28 84h84l-28 -84h-84z" />
    <glyph glyph-name="uni04E6" unicode="&#x4e6;" horiz-adv-x="850" 
d="M86 291q-1 82 32.5 158.5t92.5 134.5t146 92.5t185 33.5q135 0 215.5 -82.5t80.5 -216.5q1 -82 -32.5 -159t-92.5 -135.5t-146 -93t-185 -33.5q-132 0 -214 83.5t-82 217.5zM764 407q0 113 -63.5 176t-175.5 63q-153 3 -260.5 -104.5t-104.5 -246.5q0 -113 64.5 -177
t174.5 -64q100 -2 186 48.5t133.5 132.5t45.5 172zM438 797l28 84h84l-28 -84h-84zM586 797l28 84h84l-28 -84h-84z" />
    <glyph glyph-name="uni04E7" unicode="&#x4e7;" horiz-adv-x="580" 
d="M39 181q0 129 86.5 216t224.5 87q85 0 138 -53.5t53 -137.5q0 -129 -86.5 -216t-224.5 -87q-83 0 -137 54t-54 137zM469 286q0 63 -37 101.5t-97 38.5q-94 1 -160 -71t-64 -167q0 -63 37 -101.5t97 -38.5q94 -1 160 71t64 167zM260 571l28 84h84l-28 -84h-84zM408 571
l28 84h84l-28 -84h-84z" />
    <glyph glyph-name="uni04E8" unicode="&#x4e8;" horiz-adv-x="850" 
d="M86 291q-1 82 32.5 158.5t92.5 134.5t146 92.5t185 33.5q135 0 215.5 -82.5t80.5 -216.5q1 -82 -32.5 -159t-92.5 -135.5t-146 -93t-185 -33.5q-132 0 -214 83.5t-82 217.5zM171 379h592q1 6 1 28q0 113 -63.5 176t-175.5 63q-131 0 -228 -76t-126 -191zM753 321h-592
q-1 -6 -1 -26q0 -113 64.5 -177t174.5 -64q130 0 226.5 76t127.5 191z" />
    <glyph glyph-name="uni04E9" unicode="&#x4e9;" horiz-adv-x="580" 
d="M39 181q0 128 87 215.5t224 87.5q86 0 138.5 -53t52.5 -138q0 -128 -87 -215.5t-224 -87.5q-86 0 -138.5 53t-52.5 138zM124 266h344q1 5 1 24q0 60 -37 98t-97 38q-74 0 -131.5 -44t-79.5 -116zM456 208h-344q-1 -5 -1 -24q0 -60 37 -98t97 -38q74 0 131.5 44t79.5 116z
" />
    <glyph glyph-name="uni04EA" unicode="&#x4ea;" horiz-adv-x="850" 
d="M86 291q-1 82 32.5 158.5t92.5 134.5t146 92.5t185 33.5q135 0 215.5 -82.5t80.5 -216.5q1 -82 -32.5 -159t-92.5 -135.5t-146 -93t-185 -33.5q-132 0 -214 83.5t-82 217.5zM171 379h592q1 6 1 28q0 113 -63.5 176t-175.5 63q-131 0 -228 -76t-126 -191zM753 321h-592
q-1 -6 -1 -26q0 -113 64.5 -177t174.5 -64q130 0 226.5 76t127.5 191zM458 797l28 84h84l-28 -84h-84zM606 797l28 84h84l-28 -84h-84z" />
    <glyph glyph-name="uni04EB" unicode="&#x4eb;" horiz-adv-x="580" 
d="M39 181q0 128 87 215.5t224 87.5q86 0 138.5 -53t52.5 -138q0 -128 -87 -215.5t-224 -87.5q-86 0 -138.5 53t-52.5 138zM124 266h344q1 5 1 24q0 60 -37 98t-97 38q-74 0 -131.5 -44t-79.5 -116zM456 208h-344q-1 -5 -1 -24q0 -60 37 -98t97 -38q74 0 131.5 44t79.5 116z
M260 571l28 84h84l-28 -84h-84zM408 571l28 84h84l-28 -84h-84z" />
    <glyph glyph-name="uni04EC" unicode="&#x4ec;" horiz-adv-x="788" 
d="M777 427q3 -185 -123 -312.5t-312 -124.5q-125 -2 -209.5 80.5t-90.5 192.5l66 17q8 -98 73.5 -162t176.5 -64q123 0 213.5 75t119.5 192h-339l20 64h330q1 7 1 31q0 107 -60.5 168.5t-155.5 61.5q-204 0 -277 -193l-60 25q37 109 128 170.5t225 61.5q122 0 198 -78.5
t76 -204.5zM423 797l28 84h84l-28 -84h-84zM571 797l28 84h84l-28 -84h-84z" />
    <glyph glyph-name="uni04ED" unicode="&#x4ed;" horiz-adv-x="564" 
d="M520 284q0 -130 -79 -212t-220 -82q-86 0 -144 54.5t-60 134.5l60 13q5 -68 44 -106t108 -38q86 0 141.5 43t73.5 120h-205l18 58h195v12q0 67 -36.5 106t-102.5 39q-131 0 -176 -129l-57 22q27 78 91.5 121.5t150.5 43.5q91 0 144.5 -55t53.5 -145zM259 571l28 84h84
l-28 -84h-84zM407 571l28 84h84l-28 -84h-84z" />
    <glyph glyph-name="uni04EE" unicode="&#x4ee;" horiz-adv-x="673" 
d="M711 700h93l-667 -700h-93l259 271l-134 429h78l114 -367zM384 812l18 58h248l-18 -58h-248z" />
    <glyph glyph-name="uni04EF" unicode="&#x4ef;" horiz-adv-x="455" 
d="M444 474h73l-476 -659h-75l158 218l-37 441h67l30 -358zM202 586l18 58h248l-18 -58h-248z" />
    <glyph glyph-name="uni04F0" unicode="&#x4f0;" horiz-adv-x="673" 
d="M711 700h93l-667 -700h-93l259 271l-134 429h78l114 -367zM386 797l28 84h84l-28 -84h-84zM534 797l28 84h84l-28 -84h-84z" />
    <glyph glyph-name="uni04F1" unicode="&#x4f1;" horiz-adv-x="455" 
d="M444 474h73l-476 -659h-75l158 218l-37 441h67l30 -358zM203 571l28 84h84l-28 -84h-84zM351 571l28 84h84l-28 -84h-84z" />
    <glyph glyph-name="uni04F2" unicode="&#x4f2;" horiz-adv-x="673" 
d="M711 700h93l-667 -700h-93l259 271l-134 429h78l114 -367zM370 781l103 133h100l-4 -12l-134 -121h-65zM532 781l103 133h100l-4 -12l-134 -121h-65z" />
    <glyph glyph-name="uni04F3" unicode="&#x4f3;" horiz-adv-x="455" 
d="M444 474h73l-476 -659h-75l158 218l-37 441h67l30 -358zM200 555l103 133h100l-4 -12l-134 -121h-65zM362 555l103 133h100l-4 -12l-134 -121h-65z" />
    <glyph glyph-name="uni04F4" unicode="&#x4f4;" horiz-adv-x="666" 
d="M434 0l81 249q-46 -47 -98 -69t-127 -22q-72 0 -122.5 46t-50.5 123q0 44 15 89l92 284h74l-93 -285q-15 -48 -15 -84q1 -53 33.5 -81t92.5 -28q124 0 231 123l115 355h74l-228 -700h-74zM394 797l28 84h84l-28 -84h-84zM542 797l28 84h84l-28 -84h-84z" />
    <glyph glyph-name="uni04F5" unicode="&#x4f5;" horiz-adv-x="533" 
d="M322 0l60 185q-72 -74 -180 -74q-55 0 -91 31t-36 81q0 30 10 61l62 190h68l-64 -196q-8 -27 -8 -47q0 -29 21 -45.5t56 -16.5q52 0 89 18q39 19 96 66l71 221h64l-154 -474h-64zM256 571l28 84h84l-28 -84h-84zM404 571l28 84h84l-28 -84h-84z" />
    <glyph glyph-name="uni04F8" unicode="&#x4f8;" horiz-adv-x="917" 
d="M3 0l228 700h74l-100 -308h235q81 0 131 -43t50 -115q0 -104 -81.5 -169t-214.5 -65h-322zM98 64h247q83 0 141.5 44.5t58.5 115.5q0 104 -114 104h-247zM685 0l228 700h74l-228 -700h-74zM515 797l28 84h84l-28 -84h-84zM663 797l28 84h84l-28 -84h-84z" />
    <glyph glyph-name="uni04F9" unicode="&#x4f9;" horiz-adv-x="700" 
d="M-7 0l154 474h68l-58 -180h124q64 0 99 -34t35 -90q0 -78 -54.5 -124t-155.5 -46h-212zM80 58h142q57 0 91 30t34 77q0 33 -20.5 52t-55.5 19h-133zM639 474h68l-154 -474h-68zM329 571l28 84h84l-28 -84h-84zM477 571l28 84h84l-28 -84h-84z" />
    <glyph glyph-name="uni0527" unicode="&#x527;" horiz-adv-x="546" 
d="M-7 0l228 700h68l-102 -315q65 99 181 99q61 0 98 -37.5t37 -92.5q0 -34 -12 -72l-92 -282h-68l96 294q8 26 8 50q-1 37 -25.5 59.5t-66.5 22.5q-62 0 -120.5 -54.5t-84.5 -134.5l-77 -237h-68zM362 -110l35 110l19 64h66l-56 -174h-64z" />
    <glyph glyph-name="uni0E3F" unicode="&#xe3f;" horiz-adv-x="682" 
d="M542 357q78 -33 78 -128q0 -100 -81 -164.5t-209 -64.5h-30l-32 -98h-74l32 98h-223l228 700h223l32 98h74l-32 -98q79 -1 126.5 -44.5t47.5 -114.5q0 -67 -44 -114.5t-116 -69.5zM284 636l-80 -246h149l80 246h-149zM629 539q0 45 -31.5 71t-88.5 26h-2l-80 -246h19
q81 0 131 40q52 40 52 109zM98 64h149l86 266h-148zM430 330h-23l-86 -266h26q85 0 141.5 43.5t56.5 117.5q0 49 -29.5 77t-85.5 28z" />
    <glyph glyph-name="Wgrave" unicode="&#x1e80;" horiz-adv-x="968" 
d="M110 0l54 700h75l-57 -658l388 658h122l-40 -658l375 658h77l-402 -700h-121l40 655l-388 -655h-123zM622 781l-78 121l4 12h91l41 -133h-58z" />
    <glyph glyph-name="wgrave" unicode="&#x1e81;" horiz-adv-x="728" 
d="M154 474l-12 -408l260 408h79l-15 -408l254 408h67l-296 -474h-86l19 404l-254 -404h-86l11 474h59zM436 555l-78 121l4 12h91l41 -133h-58z" />
    <glyph glyph-name="Wacute" unicode="&#x1e82;" horiz-adv-x="968" 
d="M110 0l54 700h75l-57 -658l388 658h122l-40 -658l375 658h77l-402 -700h-121l40 655l-388 -655h-123zM619 782l103 133h100l-4 -12l-134 -121h-65z" />
    <glyph glyph-name="wacute" unicode="&#x1e83;" horiz-adv-x="728" 
d="M154 474l-12 -408l260 408h79l-15 -408l254 408h67l-296 -474h-86l19 404l-254 -404h-86l11 474h59zM436 555l103 133h100l-4 -12l-134 -121h-65z" />
    <glyph glyph-name="Wdieresis" unicode="&#x1e84;" horiz-adv-x="968" 
d="M110 0l54 700h75l-57 -658l388 658h122l-40 -658l375 658h77l-402 -700h-121l40 655l-388 -655h-123zM547 797l28 84h84l-28 -84h-84zM695 797l28 84h84l-28 -84h-84z" />
    <glyph glyph-name="wdieresis" unicode="&#x1e85;" horiz-adv-x="728" 
d="M154 474l-12 -408l260 408h79l-15 -408l254 408h67l-296 -474h-86l19 404l-254 -404h-86l11 474h59zM354 571l28 84h84l-28 -84h-84zM502 571l28 84h84l-28 -84h-84z" />
    <glyph glyph-name="uni1E9E" unicode="&#x1e9e;" horiz-adv-x="688" 
d="M157 127l61 25q9 -45 48 -71.5t103 -26.5q79 0 132.5 49t53.5 130q0 59 -33.5 93t-91.5 34q-62 0 -100 -27l-33 46l331 257h-192q-151 0 -203 -156l-156 -480h-74l159 489q68 211 288 211h295l-20 -64l-282 -216q10 2 21 2q70 0 116.5 -52.5t46.5 -129.5
q0 -113 -76.5 -181.5t-193.5 -68.5q-80 0 -134 38.5t-66 98.5z" />
    <glyph glyph-name="Ygrave" unicode="&#x1ef2;" horiz-adv-x="646" 
d="M208 0l96 296l-138 404h72l116 -343l333 343h93l-403 -408l-95 -292h-74zM448 781l-78 121l4 12h91l41 -133h-58z" />
    <glyph glyph-name="ygrave" unicode="&#x1ef3;" horiz-adv-x="455" 
d="M444 474h73l-476 -659h-75l158 218l-37 441h67l30 -358zM285 555l-78 121l4 12h91l41 -133h-58z" />
    <glyph glyph-name="endash" unicode="&#x2013;" horiz-adv-x="635" 
d="M47 224l18 58h534l-18 -58h-534z" />
    <glyph glyph-name="emdash" unicode="&#x2014;" horiz-adv-x="875" 
d="M65 282h774l-18 -58h-774z" />
    <glyph glyph-name="quoteleft" unicode="&#x2018;" horiz-adv-x="210" 
d="M139 512l37 114q14 43 35.5 58.5t61.5 15.5h37l-14 -43h-33q-20 0 -32.5 -9.5t-12.5 -25.5q0 -24 27 -24h8l-28 -86h-86z" />
    <glyph glyph-name="quoteright" unicode="&#x2019;" horiz-adv-x="210" 
d="M224 700h86l-37 -114q-14 -43 -35.5 -58.5t-61.5 -15.5h-37l14 43h33q20 0 32.5 9.5t12.5 25.5q0 24 -27 24h-8z" />
    <glyph glyph-name="quotesinglbase" unicode="&#x201a;" horiz-adv-x="210" 
d="M25 86h86l-37 -114q-14 -43 -35.5 -58.5t-61.5 -15.5h-37l14 43h33q20 0 32.5 9.5t12.5 25.5q0 24 -27 24h-8z" />
    <glyph glyph-name="quotedblleft" unicode="&#x201c;" horiz-adv-x="346" 
d="M139 512l37 114q14 43 35.5 58.5t61.5 15.5h37l-14 -43h-33q-20 0 -32.5 -9.5t-12.5 -25.5q0 -24 27 -24h8l-28 -86h-86zM275 512l37 114q14 43 35.5 58.5t61.5 15.5h37l-14 -43h-33q-20 0 -32.5 -9.5t-12.5 -25.5q0 -24 27 -24h8l-28 -86h-86z" />
    <glyph glyph-name="quotedblright" unicode="&#x201d;" horiz-adv-x="346" 
d="M224 700h86l-37 -114q-14 -43 -35.5 -58.5t-61.5 -15.5h-37l14 43h33q20 0 32.5 9.5t12.5 25.5q0 24 -27 24h-8zM360 700h86l-37 -114q-14 -43 -35.5 -58.5t-61.5 -15.5h-37l14 43h33q20 0 32.5 9.5t12.5 25.5q0 24 -27 24h-8z" />
    <glyph glyph-name="quotedblbase" unicode="&#x201e;" horiz-adv-x="346" 
d="M25 86h86l-37 -114q-14 -43 -35.5 -58.5t-61.5 -15.5h-37l14 43h33q20 0 32.5 9.5t12.5 25.5q0 24 -27 24h-8zM161 86h86l-37 -114q-14 -43 -35.5 -58.5t-61.5 -15.5h-37l14 43h33q20 0 32.5 9.5t12.5 25.5q0 24 -27 24h-8z" />
    <glyph glyph-name="dagger" unicode="&#x2020;" horiz-adv-x="401" 
d="M186 635h112l39 121h64l-39 -121h112l-19 -56h-112l-100 -309h-64l100 309h-112z" />
    <glyph glyph-name="daggerdbl" unicode="&#x2021;" horiz-adv-x="401" 
d="M179 270l44 135h-112l18 56h112l38 118h-112l19 56h112l39 121h64l-39 -121h112l-19 -56h-112l-38 -118h112l-18 -56h-112l-44 -135h-64z" />
    <glyph glyph-name="bullet" unicode="&#x2022;" horiz-adv-x="243" 
d="M105 341h102l-34 -102h-102z" />
    <glyph glyph-name="ellipsis" unicode="&#x2026;" horiz-adv-x="586" 
d="M21 86h86l-28 -86h-86zM201 86h86l-28 -86h-86zM381 86h86l-28 -86h-86z" />
    <glyph glyph-name="perthousand" unicode="&#x2030;" horiz-adv-x="1206" 
d="M137 501q0 90 64.5 149.5t158.5 59.5q68 0 108 -42q41 -41 41 -103q0 -88 -66 -148.5t-157 -60.5q-67 0 -108 41q-41 43 -41 104zM445 562q0 41 -25 66.5t-66 25.5q-69 0 -111 -41.5t-42 -108.5q0 -41 25 -66.5t66 -25.5q69 0 111 41.5t42 108.5zM169 88l-33 46l660 474
l33 -46zM467 135q0 90 64.5 149.5t158.5 59.5q98 0 130 -85q62 85 174 85q68 0 108 -42q41 -41 41 -103q0 -90 -64.5 -149.5t-158.5 -59.5q-95 0 -132 87q-58 -87 -172 -87q-67 0 -108 41q-41 43 -41 104zM775 196q0 41 -25 66.5t-66 25.5q-69 0 -111 -41.5t-42 -108.5
q0 -41 25 -66.5t66 -25.5q69 0 111 41.5t42 108.5zM1079 196q0 41 -25 66.5t-66 25.5q-69 0 -111 -41.5t-42 -108.5q0 -41 25 -66.5t66 -25.5q69 0 111 41.5t42 108.5z" />
    <glyph glyph-name="guilsinglleft" unicode="&#x2039;" horiz-adv-x="318" 
d="M200 96l-128 197l6 18l254 193h12l-30 -92l-168 -112l-4 -12l94 -118l-24 -74h-12z" />
    <glyph glyph-name="guilsinglright" unicode="&#x203a;" horiz-adv-x="318" 
d="M159 504l128 -197l-6 -18l-254 -193h-12l30 92l168 112l4 12l-94 118l24 74h12z" />
    <glyph glyph-name="uni203D" unicode="&#x203d;" horiz-adv-x="559" 
d="M211 168l157 483q-75 -6 -128.5 -56t-53.5 -124q0 -41 23 -75l-58 -32q-32 45 -32 104q0 108 74 172.5t194 69.5l13 40h72l-15 -45q73 -14 115 -59t42 -107q0 -57 -23 -97q-21 -37 -56 -62t-102 -55q-63 -29 -94 -55.5t-46 -71.5l-10 -30h-72zM397 370q85 32 117 65
q33 35 33 94q0 45 -28.5 76.5t-79.5 41.5l-104 -318q11 17 23.5 24.5t38.5 16.5zM148 0l28 86h86l-28 -86h-86z" />
    <glyph glyph-name="uni2042" unicode="&#x2042;" horiz-adv-x="939" 
d="M513 723l68 -22l-22 -69l-58 -82l100 30h71v-72h-71l-97 32l57 -83l22 -67l-68 -22l-24 68v102l-62 -81l-58 -42l-43 58l58 41l95 33l-97 32l-58 42l42 57l58 -41l64 -83v100zM324 295l43 -57l-59 -43l-94 -33l97 -34l58 -42l-42 -59l-58 42l-59 83l-3 -101l-21 -67
l-68 22l20 70l60 83l-98 -30h-72l1 72l71 -1l95 -29l-59 83l-22 69l67 21l23 -67l3 -105l59 81zM804 295l43 -57l-59 -43l-94 -33l97 -34l58 -42l-42 -59l-58 42l-59 83l-3 -101l-21 -67l-68 22l20 70l60 83l-98 -30h-72l1 72l71 -1l95 -29l-59 83l-22 69l67 21l23 -67
l3 -105l59 81z" />
    <glyph glyph-name="fraction" unicode="&#x2044;" horiz-adv-x="140" 
d="M360 546l30 -41l-546 -377l-30 41z" />
    <glyph glyph-name="uni2051" unicode="&#x2051;" horiz-adv-x="463" 
d="M328 295l43 -57l-59 -43l-94 -33l97 -34l58 -42l-42 -59l-58 42l-59 83l-3 -101l-21 -67l-68 22l20 70l60 83l-98 -30h-72l1 72l71 -1l95 -29l-59 83l-22 69l67 21l23 -67l3 -105l59 81zM352 723l68 -22l-22 -69l-58 -82l100 30h71v-72h-71l-97 32l57 -83l22 -67l-68 -22
l-24 68v102l-62 -81l-58 -42l-43 58l58 41l95 33l-97 32l-58 42l42 57l58 -41l64 -83v100z" />
    <glyph glyph-name="uni2055" unicode="&#x2055;" horiz-adv-x="838" 
d="M373 -2l-57 19l89 273l-256 -130l-27 54l256 130l-274 89l19 57l273 -89l-130 256l54 27l130 -256l89 274l57 -19l-89 -273l256 130l27 -54l-256 -130l274 -89l-19 -57l-273 89l130 -256l-54 -27l-130 256z" />
    <glyph glyph-name="uni2070" unicode="&#x2070;" horiz-adv-x="381" 
d="M129 480q-2 87 59 156.5t143 67.5q50 0 80.5 -34.5t30.5 -89.5q2 -86 -59.5 -156t-143.5 -68q-50 0 -80 34.5t-30 89.5zM390 575q0 39 -17.5 61t-47.5 22q-55 0 -99.5 -53.5t-44.5 -119.5q0 -39 17 -61t47 -22q56 0 100.5 53.5t44.5 119.5z" />
    <glyph glyph-name="uni2074" unicode="&#x2074;" horiz-adv-x="295" 
d="M227 360l25 79h-160l18 53q55 39 82 79q28 40 49 107l7 22h52l-10 -32q-21 -64 -49 -105.5t-78 -77.5h104l36 110h52l-36 -110h40l-15 -46h-40l-25 -79h-52z" />
    <glyph glyph-name="uni2075" unicode="&#x2075;" horiz-adv-x="321" 
d="M106 455l51 10q5 -62 70 -62q35 0 57.5 21.5t22.5 60.5q0 28 -16 44t-45 16q-51 0 -73 -40l-45 15l70 180h209l-15 -45h-166l-44 -103q30 38 84 38q40 0 66.5 -28t26.5 -70q0 -64 -38.5 -100t-100.5 -36q-48 0 -79 26.5t-35 72.5z" />
    <glyph glyph-name="uni2076" unicode="&#x2076;" horiz-adv-x="346" 
d="M132 480q0 94 52.5 159t132.5 65q46 0 72.5 -23.5t28.5 -62.5l-46 -11q-1 52 -65 52q-44 0 -79 -35.5t-47 -96.5q15 24 44 39.5t61 15.5q42 0 69 -26.5t27 -67.5q0 -58 -40 -95t-104 -37q-47 0 -76.5 33t-29.5 91zM330 483q0 24 -15.5 39t-41.5 15q-39 0 -64 -22t-25 -55
q0 -27 17.5 -43t45.5 -16q37 0 60 22.5t23 59.5z" />
    <glyph glyph-name="uni2077" unicode="&#x2077;" horiz-adv-x="278" 
d="M322 655h-158l14 45h220l-13 -40q-185 -108 -197 -300h-50q18 194 184 295z" />
    <glyph glyph-name="uni2078" unicode="&#x2078;" horiz-adv-x="321" 
d="M109 454q0 42 29 68.5t72 33.5q-34 20 -34 59t32 64t85 25q45 0 69 -20.5t24 -56.5q0 -62 -71 -82q44 -17 44 -70q0 -54 -38.5 -86.5t-102.5 -32.5q-48 0 -78.5 28t-30.5 70zM340 622q0 17 -14 28t-37 11q-30 0 -48.5 -13.5t-18.5 -38.5q0 -17 14 -28t36 -11
q31 0 49.5 14t18.5 38zM311 470q0 25 -19 40t-48 15q-40 0 -63.5 -18t-23.5 -50q0 -25 18.5 -40.5t50.5 -15.5q39 0 62 19t23 50z" />
    <glyph glyph-name="uni2079" unicode="&#x2079;" horiz-adv-x="350" 
d="M115 451l47 13q0 -28 18 -45.5t50 -17.5q101 0 125 133q-26 -52 -97 -52q-44 0 -73 28t-29 70q0 56 38.5 90t101.5 34q53 0 81.5 -33.5t28.5 -89.5q0 -103 -48.5 -164t-132.5 -61q-48 0 -79 27.5t-31 67.5zM351 601q0 27 -17.5 42.5t-45.5 15.5q-36 0 -57 -20.5
t-21 -55.5q0 -24 16.5 -40t42.5 -16q37 0 59.5 20t22.5 54z" />
    <glyph glyph-name="uni2080" unicode="&#x2080;" horiz-adv-x="381" 
d="M-52 -78q-2 87 59 156.5t143 67.5q50 0 80.5 -34.5t30.5 -89.5q2 -86 -59.5 -156t-143.5 -68q-50 0 -80 34.5t-30 89.5zM209 17q0 39 -17.5 61t-47.5 22q-55 0 -99.5 -53.5t-44.5 -119.5q0 -39 17 -61t47 -22q56 0 100.5 53.5t44.5 119.5z" />
    <glyph glyph-name="uni2081" unicode="&#x2081;" horiz-adv-x="208" 
d="M-31 -198l86 264q-42 -47 -102 -48l10 50q80 4 121 74h47l-110 -340h-52z" />
    <glyph glyph-name="uni2082" unicode="&#x2082;" horiz-adv-x="304" 
d="M-31 34q0 51 36 81.5t96 30.5q48 0 76 -25t28 -66q-2 -29 -10 -49.5t-28 -37t-38 -26t-55 -26.5q-44 -19 -65 -33.5t-30 -34.5h169l-15 -46h-231q19 60 54 92q34 32 93 57q59 26 82 44q24 18 24 52q0 53 -65 53q-31 0 -51 -17t-20 -44q0 -24 12 -38l-41 -23
q-21 23 -21 56z" />
    <glyph glyph-name="uni2083" unicode="&#x2083;" horiz-adv-x="316" 
d="M-83 -105l50 18q0 -30 19 -48.5t51 -18.5q41 0 64 22t23 60q0 27 -15 42t-40 15q-23 0 -42 -13l-20 35l126 87h-134l16 48h212l-13 -41l-122 -83l12 1q32 0 52 -24t20 -63q0 -61 -39.5 -97.5t-106.5 -36.5q-47 0 -79 28.5t-34 68.5z" />
    <glyph glyph-name="uni2084" unicode="&#x2084;" horiz-adv-x="295" 
d="M46 -198l25 79h-160l18 53q55 39 82 79q28 40 49 107l7 22h52l-10 -32q-21 -64 -49 -105.5t-78 -77.5h104l36 110h52l-36 -110h40l-15 -46h-40l-25 -79h-52z" />
    <glyph glyph-name="uni2085" unicode="&#x2085;" horiz-adv-x="321" 
d="M-75 -103l51 10q5 -62 70 -62q35 0 57.5 21.5t22.5 60.5q0 28 -16 44t-45 16q-51 0 -73 -40l-45 15l70 180h209l-15 -45h-166l-44 -103q30 38 84 38q40 0 66.5 -28t26.5 -70q0 -64 -38.5 -100t-100.5 -36q-48 0 -79 26.5t-35 72.5z" />
    <glyph glyph-name="uni2086" unicode="&#x2086;" horiz-adv-x="346" 
d="M-49 -78q0 94 52.5 159t132.5 65q46 0 72.5 -23.5t28.5 -62.5l-46 -11q-1 52 -65 52q-44 0 -79 -35.5t-47 -96.5q15 24 44 39.5t61 15.5q42 0 69 -26.5t27 -67.5q0 -58 -40 -95t-104 -37q-47 0 -76.5 33t-29.5 91zM149 -75q0 24 -15.5 39t-41.5 15q-39 0 -64 -22t-25 -55
q0 -27 17.5 -43t45.5 -16q37 0 60 22.5t23 59.5z" />
    <glyph glyph-name="uni2087" unicode="&#x2087;" horiz-adv-x="278" 
d="M141 97h-158l14 45h220l-13 -40q-185 -108 -197 -300h-50q18 194 184 295z" />
    <glyph glyph-name="uni2088" unicode="&#x2088;" horiz-adv-x="321" 
d="M-72 -104q0 42 29 68.5t72 33.5q-34 20 -34 59t32 64t85 25q45 0 69 -20.5t24 -56.5q0 -62 -71 -82q44 -17 44 -70q0 -54 -38.5 -86.5t-102.5 -32.5q-48 0 -78.5 28t-30.5 70zM159 64q0 17 -14 28t-37 11q-30 0 -48.5 -13.5t-18.5 -38.5q0 -17 14 -28t36 -11
q31 0 49.5 14t18.5 38zM130 -88q0 25 -19 40t-48 15q-40 0 -63.5 -18t-23.5 -50q0 -25 18.5 -40.5t50.5 -15.5q39 0 62 19t23 50z" />
    <glyph glyph-name="uni2089" unicode="&#x2089;" horiz-adv-x="350" 
d="M-66 -107l47 13q0 -28 18 -45.5t50 -17.5q101 0 125 133q-26 -52 -97 -52q-44 0 -73 28t-29 70q0 56 38.5 90t101.5 34q53 0 81.5 -33.5t28.5 -89.5q0 -103 -48.5 -164t-132.5 -61q-48 0 -79 27.5t-31 67.5zM170 43q0 27 -17.5 42.5t-45.5 15.5q-36 0 -57 -20.5
t-21 -55.5q0 -24 16.5 -40t42.5 -16q37 0 59.5 20t22.5 54z" />
    <glyph glyph-name="franc" unicode="&#x20a3;" horiz-adv-x="608" 
d="M683 636h-397l-86 -264h367l-21 -64h-367l-34 -106h146l-19 -58h-146l-47 -144h-74l47 144h-70l19 58h70l162 498h471z" />
    <glyph glyph-name="lira" unicode="&#x20a4;" horiz-adv-x="634" 
d="M290 473v-14h184l-18 -58h-158l15 -74h149l-19 -58h-121q2 -38 2 -44q0 -63 -28 -118q42 -53 91 -53q39 0 66.5 18.5t55.5 63.5l48 -36q-31 -58 -73 -84t-106 -26q-63 0 -119 62q-57 -62 -139 -62q-50 0 -80.5 29t-30.5 76q0 54 38 88t96 34q61 0 114 -59q7 24 7 45
q0 23 -6 66h-137l19 58h105q-16 60 -19 74h-92l18 58h66v11q0 109 67.5 174.5t185.5 65.5q79 0 125 -47.5t47 -123.5l-67 -17q-6 124 -121 124q-73 0 -119 -47t-46 -126zM225 95q-22 31 -40 44.5t-40 13.5q-28 0 -47 -16t-19 -43q0 -23 15 -36.5t41 -13.5q51 0 90 51z" />
    <glyph glyph-name="uni20A9" unicode="&#x20a9;" horiz-adv-x="892" 
d="M1003 700l-165 -313h89l-19 -57h-101l-174 -330h-111l27 330h-141l-184 -330h-111l39 330h-108l19 57h95l37 313h73l-39 -313h137l175 313h104l-25 -313h141l165 313h77zM440 387h114l20 241zM189 72l145 258h-113zM594 72l136 258h-115z" />
    <glyph glyph-name="dong" unicode="&#x20ab;" horiz-adv-x="592" 
d="M703 623l-17 -52h-67l-185 -571h-62l30 92q-60 -102 -193 -102q-69 0 -119.5 53.5t-50.5 134.5q-2 131 85.5 219.5t207.5 86.5q59 0 102 -31t53 -78l64 196h-158l17 52h158l25 77h68l-25 -77h67zM459 301q0 55 -37.5 90t-97.5 35q-90 0 -152.5 -68.5t-62.5 -175.5
q0 -65 33.5 -99.5t89.5 -34.5q83 -2 156.5 78t70.5 175zM-48 -150l17 54h430l-17 -54h-430z" />
    <glyph glyph-name="Euro" unicode="&#x20ac;" horiz-adv-x="825" 
d="M736 285l63 -24q-43 -131 -141 -201t-246 -70q-116 0 -197 71.5t-94 187.5h-97l19 58h76q2 46 11 86h-59l19 58h58q45 118 151 188q107 71 255 71q119 0 191 -64.5t80 -166.5l-64 -18q-11 90 -65.5 137.5t-148.5 47.5q-112 0 -196 -52t-126 -143h297l-19 -58h-298
q-11 -41 -12 -86h282l-19 -58h-259q14 -91 75 -143t149 -52q122 0 199 57t116 174z" />
    <glyph glyph-name="uni20AE" unicode="&#x20ae;" horiz-adv-x="667" 
d="M762 636h-262l-63 -193l99 44l21 -51l-143 -64l-24 -74l99 44l21 -51l-143 -64l-74 -227h-74l61 188l-97 -43l-21 51l141 63l25 75l-98 -44l-21 51l142 63l75 232h-262l21 64h598z" />
    <glyph glyph-name="uni20B4" unicode="&#x20b4;" horiz-adv-x="654" 
d="M608 429h77l-19 -58h-587l19 58h424q37 22 58.5 55t21.5 69q0 41 -39.5 67t-98.5 26q-122 0 -182 -116l-56 29q65 151 254 151q86 0 141 -43t55 -107q0 -81 -68 -131zM40 250l18 58h587l-18 -58h-431q-42 -35 -42 -96q0 -45 34 -72.5t95 -27.5q74 0 123.5 28.5t94.5 94.5
l55 -37q-53 -77 -118.5 -113.5t-159.5 -36.5q-85 0 -141.5 45.5t-56.5 116.5q0 60 37 98h-77z" />
    <glyph glyph-name="uni20B8" unicode="&#x20b8;" horiz-adv-x="647" 
d="M164 636l21 64h578l-21 -64h-578zM209 0l161 496h-252l21 64h578l-21 -64h-252l-161 -496h-74z" />
    <glyph glyph-name="uni20B9" unicode="&#x20b9;" horiz-adv-x="554" 
d="M666 700l-21 -64h-137q38 -44 38 -104v-4h64l-19 -58h-52q-29 -109 -150 -147q55 -24 55 -89q0 -28 -14 -75q-22 -67 -22 -102q0 -22 14 -45l-4 -12h-72q-10 26 -10 50q0 40 18 93q16 47 16 75q0 45 -28 65.5t-87 20.5h-5h-178l21 64h171q162 0 195 102h-333l19 58h323
q-2 108 -120 108h-168l21 64h465z" />
    <glyph glyph-name="uni20BA" unicode="&#x20ba;" horiz-adv-x="630" 
d="M584 254q0 -124 -84.5 -189t-241.5 -65h-191l67 205l-89 -40l-22 55l135 60l32 98l-89 -40l-22 55l136 60l80 247h74l-68 -208l106 47l22 -55l-152 -68l-32 -97l106 47l21 -55l-152 -68l-58 -179h104q105 0 175 44q69 45 69 140q0 37 -19 71l70 31q23 -44 23 -96z" />
    <glyph glyph-name="uni20BD" unicode="&#x20bd;" horiz-adv-x="686" 
d="M714 527q0 -105 -76.5 -167t-218.5 -62h-222l-35 -106h156l-19 -58h-155l-44 -134h-74l44 134h-91l19 58h91l165 508h274q81 0 133.5 -49t52.5 -124zM638 519q0 55 -33.5 86t-91.5 31h-206l-89 -274h216q94 0 149 40.5t55 116.5z" />
    <glyph glyph-name="uni2113" unicode="&#x2113;" horiz-adv-x="513" 
d="M382 194l59 -11q-14 -90 -64 -141.5t-123 -51.5q-69 0 -112 48t-51 132q-27 -7 -58 -12l-10 56q29 3 66 13q3 127 43 236q40 110 107 179q66 68 142 68q126 0 126 -136q0 -122 -98 -228.5t-256 -157.5q4 -65 32.5 -103.5t70.5 -38.5q48 0 81 38.5t45 109.5zM154 246
q135 48 212 137q77 91 77 195q0 36 -16 56t-46 20q-53 2 -104 -56t-84.5 -153.5t-38.5 -198.5z" />
    <glyph glyph-name="uni2116" unicode="&#x2116;" horiz-adv-x="1329" 
d="M862 407q0 129 86.5 216t224.5 87q85 0 138 -53.5t53 -137.5q0 -129 -86.5 -216t-224.5 -87q-83 0 -137 54t-54 137zM290 655l-213 -655h-74l228 700h113l198 -655l213 655h74l-228 -700h-113zM1292 512q0 63 -37 101.5t-97 38.5q-94 1 -160 -71t-64 -167
q0 -63 37 -101.5t97 -38.5q94 -1 160 71t64 167zM776 58h410l-18 -58h-410z" />
    <glyph glyph-name="uni2117" unicode="&#x2117;" horiz-adv-x="560" 
d="M137 486q0 93 65 158.5t159 65.5t159 -65.5t65 -158.5t-65 -158.5t-159 -65.5t-159 65.5t-65 158.5zM546 486q0 77 -53.5 131.5t-131.5 54.5t-131.5 -54.5t-53.5 -131.5t53.5 -131.5t131.5 -54.5t131.5 54.5t53.5 131.5zM272 361v251h113q39 0 61 -19.5t22 -54.5
t-22 -54.5t-61 -19.5h-72v-103h-41zM313 499h70q42 0 42 39t-42 39h-70v-78z" />
    <glyph glyph-name="uni2120" unicode="&#x2120;" horiz-adv-x="647" 
d="M154 520l37 20q12 -57 66 -57q24 0 39 10.5t15 28.5q0 31 -59 40q-84 14 -84 71q0 30 26 50.5t63 20.5q74 0 88 -56l-32 -19q-12 37 -56 37q-20 0 -34.5 -9.5t-14.5 -22.5q0 -28 63 -38q43 -6 62.5 -22.5t19.5 -49.5q0 -36 -27 -57.5t-69 -21.5q-86 0 -103 75zM392 449
v251h76l68 -212l68 212h76v-251h-42v221l-74 -221h-56l-74 221v-221h-42z" />
    <glyph glyph-name="trademark" unicode="&#x2122;" horiz-adv-x="690" 
d="M410 702v-38h-90v-213h-42v213h-91v38h223zM724 451h-40v213h-4l-71 -213h-55l-70 213h-4v-213h-41v251h75l66 -207h4l65 207h75v-251z" />
    <glyph glyph-name="uni2126" unicode="&#x2126;" horiz-adv-x="802" 
d="M803 437q0 -121 -78 -214q-78 -91 -204 -159h149l-20 -64h-257l19 59q134 63 225 156q92 95 92 214q0 96 -72 156.5t-182 60.5q-131 2 -217 -89.5t-84 -218.5q0 -173 125 -279l-19 -59h-257l20 64h174q-117 119 -117 271q0 163 109 269t286 106q131 0 219.5 -78
t88.5 -195z" />
    <glyph glyph-name="estimated" unicode="&#x212e;" horiz-adv-x="847" 
d="M796 320h-560v-164q29 -50 89.5 -79t135.5 -29q104 0 176.5 51t99.5 139l59 -23q-35 -100 -125 -162.5t-210 -62.5q-152 -3 -257 104t-103 256q-3 152 101.5 257.5t258.5 102.5q142 2 241.5 -97.5t97.5 -239.5q0 -32 -4 -53zM236 552v-179h430v179q-31 45 -89 72.5
t-121 27.5q-140 0 -220 -100z" />
    <glyph glyph-name="uni2153" unicode="&#x2153;" horiz-adv-x="664" 
d="M150 360l86 264q-42 -47 -102 -48l10 50q80 4 121 74h47l-110 -340h-52zM568 546l30 -41l-546 -377l-30 41zM329 93l50 18q0 -30 19 -48.5t51 -18.5q41 0 64 22t23 60q0 27 -15 42t-40 15q-23 0 -42 -13l-20 35l126 87h-134l16 48h212l-13 -41l-122 -83l12 1q32 0 52 -24
t20 -63q0 -61 -39.5 -97.5t-106.5 -36.5q-47 0 -79 28.5t-34 68.5z" />
    <glyph glyph-name="uni2154" unicode="&#x2154;" horiz-adv-x="760" 
d="M150 592q0 51 36 81.5t96 30.5q48 0 76 -25t28 -66q-2 -29 -10 -49.5t-28 -37t-38 -26t-55 -26.5q-44 -19 -65 -33.5t-30 -34.5h169l-15 -46h-231q19 61 53 92t94 57q59 26 82 44q24 18 24 52q0 53 -65 53q-31 0 -51 -17t-20 -44q0 -24 12 -38l-41 -23q-21 23 -21 56z
M664 546l30 -41l-546 -377l-30 41zM425 93l50 18q0 -30 19 -48.5t51 -18.5q41 0 64 22t23 60q0 27 -15 42t-40 15q-23 0 -42 -13l-20 35l126 87h-134l16 48h212l-13 -41l-122 -83l12 1q32 0 52 -24t20 -63q0 -61 -39.5 -97.5t-106.5 -36.5q-47 0 -79 28.5t-34 68.5z" />
    <glyph glyph-name="oneeighth" unicode="&#x215b;" horiz-adv-x="669" 
d="M150 360l86 264q-42 -47 -102 -48l10 50q80 4 121 74h47l-110 -340h-52zM568 546l30 -41l-546 -377l-30 41zM340 94q0 42 29 68.5t72 33.5q-34 20 -34 59t32 64t85 25q45 0 69 -20.5t24 -56.5q0 -62 -71 -82q44 -17 44 -70q0 -54 -38.5 -86.5t-102.5 -32.5
q-48 0 -78.5 28t-30.5 70zM571 262q0 17 -14 28t-37 11q-30 0 -48.5 -13.5t-18.5 -38.5q0 -17 14 -28t36 -11q31 0 49.5 14t18.5 38zM542 110q0 25 -19 40t-48 15q-40 0 -63.5 -18t-23.5 -50q0 -25 18.5 -40.5t50.5 -15.5q39 0 62 19t23 50z" />
    <glyph glyph-name="threeeighths" unicode="&#x215c;" horiz-adv-x="777" 
d="M98 453l50 18q0 -30 19 -48.5t51 -18.5q41 0 64 22t23 60q0 27 -15 42t-40 15q-23 0 -42 -13l-20 35l126 87h-134l16 48h212l-13 -41l-122 -83l12 1q32 0 52 -24t20 -63q0 -61 -39.5 -97.5t-106.5 -36.5q-47 0 -79 28.5t-34 68.5zM676 546l30 -41l-546 -377l-30 41z
M448 94q0 42 29 68.5t72 33.5q-34 20 -34 59t32 64t85 25q45 0 69 -20.5t24 -56.5q0 -62 -71 -82q44 -17 44 -70q0 -54 -38.5 -86.5t-102.5 -32.5q-48 0 -78.5 28t-30.5 70zM679 262q0 17 -14 28t-37 11q-30 0 -48.5 -13.5t-18.5 -38.5q0 -17 14 -28t36 -11q31 0 49.5 14
t18.5 38zM650 110q0 25 -19 40t-48 15q-40 0 -63.5 -18t-23.5 -50q0 -25 18.5 -40.5t50.5 -15.5q39 0 62 19t23 50z" />
    <glyph glyph-name="fiveeighths" unicode="&#x215d;" horiz-adv-x="782" 
d="M106 455l51 10q5 -62 70 -62q35 0 57.5 21.5t22.5 60.5q0 28 -16 44t-45 16q-51 0 -73 -40l-45 15l70 180h209l-15 -45h-166l-44 -103q30 38 84 38q40 0 66.5 -28t26.5 -70q0 -64 -38.5 -100t-100.5 -36q-48 0 -79 26.5t-35 72.5zM681 546l30 -41l-546 -377l-30 41z
M453 94q0 42 29 68.5t72 33.5q-34 20 -34 59t32 64t85 25q45 0 69 -20.5t24 -56.5q0 -62 -71 -82q44 -17 44 -70q0 -54 -38.5 -86.5t-102.5 -32.5q-48 0 -78.5 28t-30.5 70zM684 262q0 17 -14 28t-37 11q-30 0 -48.5 -13.5t-18.5 -38.5q0 -17 14 -28t36 -11q31 0 49.5 14
t18.5 38zM655 110q0 25 -19 40t-48 15q-40 0 -63.5 -18t-23.5 -50q0 -25 18.5 -40.5t50.5 -15.5q39 0 62 19t23 50z" />
    <glyph glyph-name="seveneighths" unicode="&#x215e;" horiz-adv-x="739" 
d="M322 655h-158l14 45h220l-13 -40q-185 -108 -197 -300h-50q18 194 184 295zM638 546l30 -41l-546 -377l-30 41zM410 94q0 42 29 68.5t72 33.5q-34 20 -34 59t32 64t85 25q45 0 69 -20.5t24 -56.5q0 -62 -71 -82q44 -17 44 -70q0 -54 -38.5 -86.5t-102.5 -32.5
q-48 0 -78.5 28t-30.5 70zM641 262q0 17 -14 28t-37 11q-30 0 -48.5 -13.5t-18.5 -38.5q0 -17 14 -28t36 -11q31 0 49.5 14t18.5 38zM612 110q0 25 -19 40t-48 15q-40 0 -63.5 -18t-23.5 -50q0 -25 18.5 -40.5t50.5 -15.5q39 0 62 19t23 50z" />
    <glyph glyph-name="uni2160" unicode="&#x2160;" horiz-adv-x="797" 
d="M680 64v-64h-490v64h210v572h-210v64h490v-64h-210v-572h210z" />
    <glyph glyph-name="uni2161" unicode="&#x2161;" horiz-adv-x="1077" 
d="M190 0v64h210v572h-210v64h770v-64h-210v-572h210v-64h-770zM470 64h210v572h-210v-572z" />
    <glyph glyph-name="uni2162" unicode="&#x2162;" horiz-adv-x="1357" 
d="M190 0v64h210v572h-210v64h1050v-64h-210v-572h210v-64h-1050zM470 64h210v572h-210v-572zM750 64h210v572h-210v-572z" />
    <glyph glyph-name="uni2163" unicode="&#x2163;" horiz-adv-x="1357" 
d="M190 0v64h210v572h-210v64h1050v-64h-125l-181 -572h306v-64h-1050zM470 64h326l-181 572h-145v-572zM865 64l178 572h-356z" />
    <glyph glyph-name="uni2164" unicode="&#x2164;" horiz-adv-x="1057" 
d="M190 0v64h306l-181 572h-125v64h750v-64h-125l-181 -572h306v-64h-750zM565 64l178 572h-356z" />
    <glyph glyph-name="uni2165" unicode="&#x2165;" horiz-adv-x="1357" 
d="M190 0v64h306l-181 572h-125v64h1050v-64h-210v-572h210v-64h-1050zM565 64l178 572h-356zM634 64h326v572h-145z" />
    <glyph glyph-name="uni2166" unicode="&#x2166;" horiz-adv-x="1637" 
d="M190 0v64h306l-181 572h-125v64h1330v-64h-210v-572h210v-64h-1330zM565 64l178 572h-356zM634 64h326v572h-145zM1030 64h210v572h-210v-572z" />
    <glyph glyph-name="uni2167" unicode="&#x2167;" horiz-adv-x="1917" 
d="M190 0v64h306l-181 572h-125v64h1610v-64h-210v-572h210v-64h-1610zM565 64l178 572h-356zM634 64h326v572h-145zM1030 64h210v572h-210v-572zM1310 64h210v572h-210v-572z" />
    <glyph glyph-name="uni2168" unicode="&#x2168;" horiz-adv-x="1357" 
d="M190 0v64h210v572h-210v64h1050v-64h-152l-189 -286l189 -286h152v-64h-1050zM470 64h162l189 286l-189 286h-162v-572zM860 409l150 227h-300zM710 64h300l-150 227z" />
    <glyph glyph-name="uni2169" unicode="&#x2169;" horiz-adv-x="1067" 
d="M190 0v64h152l189 286l-189 286h-152v64h760v-64h-152l-189 -286l189 -286h152v-64h-760zM570 409l150 227h-300zM420 64h300l-150 227z" />
    <glyph glyph-name="uni216A" unicode="&#x216a;" horiz-adv-x="1357" 
d="M190 0v64h152l189 286l-189 286h-152v64h1050v-64h-210v-572h210v-64h-1050zM570 409l150 227h-300zM798 64h162v572h-162l-189 -286zM420 64h300l-150 227z" />
    <glyph glyph-name="uni216B" unicode="&#x216b;" horiz-adv-x="1637" 
d="M190 0v64h152l189 286l-189 286h-152v64h1330v-64h-210v-572h210v-64h-1330zM570 409l150 227h-300zM798 64h162v572h-162l-189 -286zM1030 64h210v572h-210v-572zM420 64h300l-150 227z" />
    <glyph glyph-name="uni216C" unicode="&#x216c;" horiz-adv-x="937" 
d="M190 0v64h120v572h-120v64h310v-64h-120v-572h370v150h70v-214h-630z" />
    <glyph glyph-name="uni216D" unicode="&#x216d;" horiz-adv-x="822" 
d="M98 350q-2 152 98 257.5t247 102.5q85 0 150.5 -34t92.5 -94v118h66v-251h-66q-22 90 -86.5 143.5t-157.5 53.5q-117 0 -193.5 -81.5t-76.5 -214.5q0 -138 74.5 -217t195.5 -79q227 0 287 229l59 -24q-28 -119 -119 -195q-89 -74 -226 -74q-155 0 -250 101.5t-95 258.5z
" />
    <glyph glyph-name="uni216E" unicode="&#x216e;" horiz-adv-x="887" 
d="M190 0v64h120v572h-120v64h330q159 0 249.5 -96.5t90.5 -253.5t-90.5 -253.5t-249.5 -96.5h-330zM380 64h140q128 0 199 75.5t71 210.5t-71 210.5t-199 75.5h-140v-572z" />
    <glyph glyph-name="uni216F" unicode="&#x216f;" horiz-adv-x="1307" 
d="M190 0v64h120v572h-120v64h241l259 -640l259 640h241v-64h-120v-572h120v-64h-310v64h120v576l-265 -640h-90l-265 640v-576h120v-64h-310z" />
    <glyph glyph-name="uni2180" unicode="&#x2180;" horiz-adv-x="1157" 
d="M100 350q0 157 90.5 253.5t249.5 96.5h350q159 0 249.5 -96.5t90.5 -253.5t-90.5 -253.5t-249.5 -96.5h-350q-159 0 -249.5 96.5t-90.5 253.5zM440 64h140v572h-140q-128 0 -199 -75.5t-71 -210.5t71 -210.5t199 -75.5zM650 64h140q128 0 199 75.5t71 210.5t-71 210.5
t-199 75.5h-140v-572z" />
    <glyph glyph-name="uni2181" unicode="&#x2181;" horiz-adv-x="887" 
d="M190 0v64h120v572h-120v64h330q159 0 249.5 -96.5t90.5 -253.5t-90.5 -253.5t-249.5 -96.5h-330zM380 64h140q128 0 199 75.5t71 210.5t-71 210.5t-199 75.5h-140v-125h109q86 0 131 -42.5t45 -118.5t-45 -118.5t-131 -42.5h-109v-125zM380 253h109q106 0 106 97t-106 97
h-109v-194z" />
    <glyph glyph-name="uni2182" unicode="&#x2182;" horiz-adv-x="1157" 
d="M100 350q0 157 90.5 253.5t249.5 96.5h350q159 0 249.5 -96.5t90.5 -253.5t-90.5 -253.5t-249.5 -96.5h-350q-159 0 -249.5 96.5t-90.5 253.5zM440 64h140v125h-109q-86 0 -131 42.5t-45 118.5t45 118.5t131 42.5h109v125h-140q-128 0 -199 -75.5t-71 -210.5t71 -210.5
t199 -75.5zM650 64h140q128 0 199 75.5t71 210.5t-71 210.5t-199 75.5h-140v-125h109q86 0 131 -42.5t45 -118.5t-45 -118.5t-131 -42.5h-109v-125zM471 253h109v194h-109q-106 0 -106 -97t106 -97zM650 253h109q106 0 106 97t-106 97h-109v-194z" />
    <glyph glyph-name="arrowleft" unicode="&#x2190;" horiz-adv-x="849" 
d="M55 224v58q87 9 143 68.5t62 161.5l67 -15q-10 -77 -53 -138q-41 -59 -99 -77h630v-58h-630q59 -18 99 -78q43 -59 53 -137l-67 -15q-6 102 -62 161.5t-143 68.5z" />
    <glyph glyph-name="arrowup" unicode="&#x2191;" horiz-adv-x="604" 
d="M354 0v580q-18 -57 -77 -98t-138 -52l-15 65q102 6 161.5 62t68.5 143h58q9 -87 68.5 -143t161.5 -62l-15 -65q-79 11 -138 52t-77 98v-580h-58z" />
    <glyph glyph-name="arrowright" unicode="&#x2192;" horiz-adv-x="849" 
d="M600 -6l-67 15q10 77 52 137t100 78h-630v58h630q-57 18 -100 77q-42 62 -52 138l67 15q6 -102 62 -161.5t143 -68.5v-58q-87 -9 -143 -68.5t-62 -161.5z" />
    <glyph glyph-name="arrowdown" unicode="&#x2193;" horiz-adv-x="604" 
d="M36 205l15 65q79 -11 138 -52t77 -98v580h58v-580q18 57 77 98t138 52l15 -65q-102 -6 -161.5 -62t-68.5 -143h-58q-9 87 -68.5 143t-161.5 62z" />
    <glyph glyph-name="arrowboth" unicode="&#x2194;" horiz-adv-x="849" 
d="M805 282v-58q-87 -9 -143 -68.5t-62 -161.5l-67 15q10 77 52 137t100 78h-510q59 -18 99 -78q43 -59 53 -137l-67 -15q-6 102 -62 161.5t-143 68.5v58q87 9 143 68.5t62 161.5l67 -15q-10 -77 -53 -138q-41 -59 -99 -77h510q-57 18 -100 77q-42 62 -52 138l67 15
q6 -102 62 -161.5t143 -68.5z" />
    <glyph glyph-name="arrowupdn" unicode="&#x2195;" horiz-adv-x="665" 
d="M593 250l15 -65q-93 -8 -147 -59q-55 -52 -63 -126h-58q-7 72 -64 126q-54 51 -146 59l15 65q64 -11 120 -49q57 -37 75 -81v460q-18 -43 -75 -82q-57 -38 -120 -48l-15 65q92 8 146 59q57 54 64 126h58q8 -74 63 -126q54 -51 147 -59l-15 -65q-61 10 -120 49
q-57 37 -75 81v-460q19 45 75 82q57 38 120 48z" />
    <glyph glyph-name="uni2196" unicode="&#x2196;" horiz-adv-x="763" 
d="M641 73l-408 411q19 -34 19 -81q0 -94 -65 -177l-57 36q71 80 71 169q0 73 -53 138l40 40q65 -53 142 -53q85 0 165 71l36 -57q-87 -65 -174 -65q-47 0 -84 19l410 -410z" />
    <glyph glyph-name="uni2197" unicode="&#x2197;" horiz-adv-x="585" 
d="M42 73l-42 41l410 410q-37 -19 -84 -19q-87 0 -174 65l36 57q80 -71 165 -71q77 0 142 53l40 -40q-53 -65 -53 -138q0 -89 71 -169l-57 -36q-65 83 -65 177q0 47 19 81z" />
    <glyph glyph-name="uni2198" unicode="&#x2198;" horiz-adv-x="762" 
d="M341 73l-36 57q87 65 174 65q47 0 84 -19l-410 410l42 41l408 -411q-19 34 -19 81q0 94 65 177l57 -36q-71 -80 -71 -169q0 -73 53 -138l-40 -40q-65 53 -142 53q-85 0 -165 -71z" />
    <glyph glyph-name="uni2199" unicode="&#x2199;" horiz-adv-x="585" 
d="M305 144q-77 0 -142 -53l-40 40q53 65 53 138q0 89 -71 169l57 36q65 -83 65 -177q0 -47 -19 -81l408 411l42 -41l-410 -410q37 19 84 19q87 0 174 -65l-36 -57q-80 71 -165 71z" />
    <glyph glyph-name="partialdiff" unicode="&#x2202;" horiz-adv-x="574" 
d="M50 219q0 106 66.5 185.5t177.5 79.5q108 0 167 -84q-19 99 -91 168q-71 68 -164 86l23 56q138 -36 221 -141q83 -106 83 -264q0 -133 -69 -224t-194 -91q-97 0 -158.5 65.5t-61.5 163.5zM458 258q0 78 -42.5 123t-113.5 45q-80 0 -132 -59t-52 -151q0 -76 43.5 -122
t115.5 -46q80 0 130.5 56t50.5 154z" />
    <glyph glyph-name="emptyset" unicode="&#x2205;" horiz-adv-x="850" 
d="M838 411q1 -82 -32.5 -159t-92.5 -135.5t-146 -93t-185 -33.5q-99 0 -175 50l-57 -59l-46 44l56 57q-74 83 -74 209q-1 82 32.5 158.5t92.5 134.5t146 92.5t185 33.5q102 0 176 -50l57 59l45 -43l-55 -57q73 -81 73 -208zM210 134l458 475q-58 37 -143 37
q-153 3 -260.5 -104.5t-104.5 -246.5q0 -97 50 -161zM764 407q0 98 -49 160l-458 -475q59 -38 142 -38q100 -2 186 48.5t133.5 132.5t45.5 172z" />
    <glyph glyph-name="uni2206" unicode="&#x2206;" horiz-adv-x="724" 
d="M562 700l71 -700h-696l527 700h98zM69 64h488l-56 582z" />
    <glyph glyph-name="product" unicode="&#x220f;" horiz-adv-x="637" 
d="M612 636h-328l-271 -834h-74l292 898h476l-292 -898h-74z" />
    <glyph glyph-name="summation" unicode="&#x2211;" horiz-adv-x="659" 
d="M-32 -32l21 64l368 317l-172 287l21 64h543l-21 -64h-466l161 -280l-14 -44l-327 -280h450l-21 -64h-543z" />
    <glyph glyph-name="minus" unicode="&#x2212;" horiz-adv-x="569" 
d="M98 329h432l-18 -58h-432z" />
    <glyph glyph-name="uni2215" unicode="&#x2215;" horiz-adv-x="357" 
d="M349 826l58 -21l-339 -931l-58 21z" />
    <glyph glyph-name="uni2219" unicode="&#x2219;" horiz-adv-x="243" 
d="M105 341h102l-34 -102h-102z" />
    <glyph glyph-name="radical" unicode="&#x221a;" horiz-adv-x="551" 
d="M152 0l6 286h-110l21 64h155l-9 -280l425 663l51 -33l-449 -700h-90z" />
    <glyph glyph-name="infinity" unicode="&#x221e;" horiz-adv-x="738" 
d="M98 350q0 77 47.5 127t123.5 50q46 0 83 -23t54 -62q17 39 54 62t83 23q76 0 123.5 -50t47.5 -127t-47.5 -127t-123.5 -50q-46 0 -83 23t-54 62q-17 -39 -54 -62t-83 -23q-76 0 -123.5 50t-47.5 127zM377 350q0 52 -29.5 83.5t-78.5 31.5t-78.5 -31.5t-29.5 -83.5
t29.5 -83.5t78.5 -31.5t78.5 31.5t29.5 83.5zM651 350q0 52 -29.5 83.5t-78.5 31.5t-78.5 -31.5t-29.5 -83.5t29.5 -83.5t78.5 -31.5t78.5 31.5t29.5 83.5z" />
    <glyph glyph-name="integral" unicode="&#x222b;" horiz-adv-x="394" 
d="M-22 -99q0 7 2 21h59q-2 -16 -2 -22q0 -21 14.5 -33.5t36.5 -12.5q27 0 41.5 17.5t14.5 47.5v633q0 70 41 114t107 44q70 0 109 -34.5t39 -95.5l-1 -21h-54l1 15q0 41 -25 62.5t-66 21.5q-40 0 -63.5 -25t-23.5 -72v-640q0 -50 -32.5 -84.5t-87.5 -34.5q-48 0 -79 25.5
t-31 73.5z" />
    <glyph glyph-name="approxequal" unicode="&#x2248;" horiz-adv-x="534" 
d="M172 321l-56 9q2 55 38 89.5t92 34.5q29 0 48 -10t41 -32q31 -30 56 -30q30 0 48 19.5t20 52.5l56 -9q-2 -55 -35.5 -89.5t-86.5 -34.5q-33 0 -53.5 10t-46.5 33q-29 29 -54 29q-30 0 -48 -19.5t-19 -52.5zM117 151l-56 9q2 55 38 89.5t92 34.5q29 0 48 -10t41 -32
q32 -30 56 -30q30 0 48 19.5t20 52.5l56 -9q-2 -55 -35.5 -89.5t-86.5 -34.5q-33 0 -53.5 10t-46.5 33q-29 29 -54 29q-30 0 -48 -19.5t-19 -52.5z" />
    <glyph glyph-name="notequal" unicode="&#x2260;" horiz-adv-x="569" 
d="M538 351h-148l-95 -102h209l-18 -58h-246l-126 -135l-41 36l93 99h-112l18 58h148l95 102h-209l18 58h246l126 135l41 -36l-93 -99h112z" />
    <glyph glyph-name="lessequal" unicode="&#x2264;" horiz-adv-x="570" 
d="M457 144l-365 125l20 62l446 125l-23 -69l-358 -92l300 -90zM-7 0l19 58h430l-19 -58h-430z" />
    <glyph glyph-name="greaterequal" unicode="&#x2265;" horiz-adv-x="570" 
d="M52 144l23 69l360 92l-302 90l20 61l367 -125l-20 -62zM-7 0l19 58h430l-19 -58h-430z" />
    <glyph glyph-name="uni2318" unicode="&#x2318;" horiz-adv-x="956" 
d="M155 135q0 63 42 104q44 41 108 41h80v140h-80q-64 0 -108 41q-42 41 -42 104t42 104q43 41 106 41q58 0 100 -43t42 -102v-85h140v85q0 59 42 102t100 43q63 0 106 -41q42 -40 42 -104t-43 -104q-43 -41 -107 -41h-80v-140h80q64 0 107 -41q43 -40 43 -104
q0 -63 -42 -104q-43 -41 -106 -41q-58 0 -100 43t-42 102v85h-140v-85q0 -59 -42 -102t-100 -43q-63 0 -106 41q-42 41 -42 104zM305 480h80v85q0 37 -23.5 61t-61.5 24t-61.5 -24t-23.5 -61t25 -61t65 -24zM645 480h80q40 0 65 24t25 61t-23.5 61t-61.5 24t-61.5 -24
t-23.5 -61v-85zM445 280h140v140h-140v-140zM385 135v85h-80q-40 0 -65 -24t-25 -61t23.5 -61t61.5 -24t61.5 24t23.5 61zM815 135q0 37 -25 61t-65 24h-80v-85q0 -37 23.5 -61t61.5 -24t61.5 24t23.5 61z" />
    <glyph glyph-name="filledbox" unicode="&#x25a0;" horiz-adv-x="1007" 
d="M190 0v700h700v-700h-700z" />
    <glyph glyph-name="uni25A1" unicode="&#x25a1;" horiz-adv-x="1007" 
d="M190 0v700h700v-700h-700zM250 60h580v580h-580v-580z" />
    <glyph glyph-name="uni25B0" unicode="&#x25b0;" horiz-adv-x="781" 
d="M-37 0l228 700h700l-228 -700h-700z" />
    <glyph glyph-name="uni25B1" unicode="&#x25b1;" horiz-adv-x="781" 
d="M-37 0l228 700h700l-228 -700h-700zM47 60h572l188 580h-572z" />
    <glyph glyph-name="triagup" unicode="&#x25b2;" horiz-adv-x="780" 
d="M-37 0l350 700l350 -700h-700z" />
    <glyph glyph-name="uni25B3" unicode="&#x25b3;" horiz-adv-x="780" 
d="M-37 0l350 700l350 -700h-700zM313 562l-252 -502h504z" />
    <glyph glyph-name="lozenge" unicode="&#x25ca;" horiz-adv-x="652" 
d="M174 0l-119 344l4 12l335 344h84l119 -344l-4 -12l-335 -344h-84zM223 46l309 315l-104 293l-307 -316z" />
    <glyph glyph-name="circle" unicode="&#x25cb;" horiz-adv-x="816" 
d="M95 350q-3 142 102.5 247.5t247.5 102.5q142 3 247.5 -102.5t102.5 -247.5q3 -142 -102.5 -247.5t-247.5 -102.5q-142 -3 -247.5 102.5t-102.5 247.5zM735 350q2 118 -85 205t-205 85q-118 2 -205 -85t-85 -205q-2 -118 85 -205t205 -85q118 -2 205 85t85 205z" />
    <glyph glyph-name="uni25CF" unicode="&#x25cf;" horiz-adv-x="816" 
d="M95 350q-3 142 102.5 247.5t247.5 102.5q142 3 247.5 -102.5t102.5 -247.5q3 -142 -102.5 -247.5t-247.5 -102.5q-142 -3 -247.5 102.5t-102.5 247.5z" />
    </font>
</defs>
</svg>
