<?xml version="1.0" encoding="utf-8"?>
<!-- Generator: Adobe Illustrator 23.0.3, SVG Export Plug-In . SVG Version: 6.00 Build 0)  -->
<svg version="1.1" id="Calque_1" xmlns="http://www.w3.org/2000/svg" xmlns:xlink="http://www.w3.org/1999/xlink" x="0px" y="0px"
	 viewBox="0 0 48 36" style="enable-background:new 0 0 48 36;" xml:space="preserve">
<style type="text/css">
	.st0{fill:#002781;}
	.st1{fill:#E6E6E6;}
	.st2{fill:#D10D24;}
</style>
<path class="st0" d="M46,0H2C0.9,0,0,0.9,0,2v32c0,1.1,0.9,2,2,2h44c1.1,0,2-0.9,2-2V2C48,0.9,47.1,0,46,0z"/>
<path class="st1" d="M48,2c0-1.1-0.9-2-2-2h-5.2L28,9.9V0h-8v9.9L7.2,0H2C0.9,0,0,0.9,0,2v2.6L12.2,14H0v8h12.2L0,31.4V34
	c0,1.1,0.9,2,2,2h5.2L20,26.1V36h8v-9.9L40.8,36H46c1.1,0,2-0.9,2-2v-2.6L35.8,22H48v-8H35.8L48,4.6V2z"/>
<polygon class="st2" points="48,16 26,16 26,0 22,0 22,16 0,16 0,20 22,20 22,36 26,36 26,20 48,20 "/>
<path class="st2" d="M47,0.3L29.2,14h3.3L48,2.1V2C48,1.3,47.6,0.7,47,0.3z"/>
<path class="st2" d="M32.5,22h-3.3L47,35.7c0.6-0.3,1-1,1-1.7v-0.1L32.5,22z"/>
<path class="st2" d="M15.5,22L0,33.9V34c0,0.7,0.4,1.3,1,1.7L18.8,22H15.5z"/>
<path class="st2" d="M15.5,14h3.3L1,0.3C0.4,0.7,0,1.3,0,2v0.1L15.5,14z"/>
</svg>
