<?xml version="1.0" standalone="no"?>
<!DOCTYPE svg PUBLIC "-//W3C//DTD SVG 1.1//EN" "http://www.w3.org/Graphics/SVG/1.1/DTD/svg11.dtd" >
<svg xmlns="http://www.w3.org/2000/svg" xmlns:xlink="http://www.w3.org/1999/xlink" version="1.1">
<metadata>
Created by FontForge 20170731 at Tue Apr 17 04:24:27 2018
 By Aleksey,,,
Copyright (c) 2018 by Benjamin Critton &#38; Colophon Foundry. All rights reserved.
</metadata>
<defs>
<font id="MabryPro-Bold" horiz-adv-x="0" >
  <font-face 
    font-family="Mabry Pro"
    font-weight="700"
    font-stretch="normal"
    units-per-em="1000"
    panose-1="2 13 8 3 4 0 2 4 3 3"
    ascent="792"
    descent="-208"
    x-height="474"
    cap-height="700"
    bbox="-827 -294 1870 1062"
    underline-thickness="62"
    underline-position="-346"
    unicode-range="U+000D-1F610"
  />
<missing-glyph horiz-adv-x="590" 
d="M45 0v700h500v-700h-500zM295 416l135 219h-270zM110 585v-470l144 235zM480 115v470l-145 -235zM160 65h270l-135 219z" />
    <glyph glyph-name="f_f" unicode="ff" horiz-adv-x="666" 
d="M108 0v369h-100v105h100v66q0 78 51 124t133 46q93 0 132 -50q37 50 116 50q89 0 135.5 -41t46.5 -113q0 -20 -1 -26h-120q2 10 2 19q0 24 -15.5 39t-42.5 15t-42.5 -16.5t-15.5 -45.5v-67h125v-105h-125v-369h-127v369h-124v-369h-128zM236 474h124v68q0 29 -16.5 45
t-45.5 16t-45.5 -17t-16.5 -46v-66z" />
    <glyph glyph-name="fi" unicode="fi" horiz-adv-x="543" 
d="M487 474v-474h-128v369h-124v-369h-127v369h-100v105h100v66q0 78 49 124t131 46q89 0 135.5 -41t46.5 -113q0 -20 -1 -26h-120q2 10 2 19q0 24 -15.5 39t-42.5 15t-42.5 -16.5t-15.5 -45.5v-67h252z" />
    <glyph glyph-name="fl" unicode="fl" horiz-adv-x="548" 
d="M108 0v369h-100v105h100v69q0 76 50 121.5t140 45.5t139.5 -45.5t49.5 -121.5v-543h-127v538q0 30 -16 47.5t-46 17.5t-46 -17.5t-16 -47.5v-64h76v-105h-76v-369h-128z" />
    <glyph glyph-name="f_f_i" unicode="ffi" horiz-adv-x="795" 
d="M108 0v369h-100v105h100v66q0 78 51 124t133 46q87 0 128 -50q41 50 120 50q89 0 135.5 -41t46.5 -113q0 -20 -1 -26h-120q2 10 2 19q0 24 -15.5 39t-42.5 15t-42.5 -16.5t-15.5 -45.5v-67h252v-474h-128v369h-124v-369h-127v369h-124v-369h-128zM236 474h124v68
q0 29 -16.5 45t-45.5 16t-45.5 -17t-16.5 -46v-66z" />
    <glyph glyph-name="f_f_l" unicode="ffl" horiz-adv-x="792" 
d="M108 0v369h-100v105h100v66q0 78 50 124t132 46q88 0 129 -50q39 50 124 50q90 0 139 -45.5t49 -121.5v-543h-128v538q0 30 -15.5 47.5t-44.5 17.5t-44.5 -17.5t-15.5 -47.5v-64h76v-105h-76v-369h-127v369h-120v-369h-128zM236 474h120v68q0 61 -60 61
q-27 0 -43.5 -17.5t-16.5 -45.5v-66z" />
    <glyph glyph-name=".notdef" horiz-adv-x="590" 
d="M45 0v700h500v-700h-500zM295 416l135 219h-270zM110 585v-470l144 235zM480 115v470l-145 -235zM160 65h270l-135 219z" />
    <glyph glyph-name=".null" 
 />
    <glyph glyph-name="nonmarkingreturn" horiz-adv-x="333" 
 />
    <glyph glyph-name="CR" unicode="&#xd;" horiz-adv-x="235" 
 />
    <glyph glyph-name="space" unicode=" " horiz-adv-x="235" 
 />
    <glyph glyph-name="exclam" unicode="!" horiz-adv-x="258" 
d="M69 200v500h120v-500h-120zM59 0v140h140v-140h-140z" />
    <glyph glyph-name="quotedbl" unicode="&#x22;" horiz-adv-x="424" 
d="M81 430l-29 153v117h130v-117l-28 -153h-73zM271 430l-29 153v117h130v-117l-28 -153h-73z" />
    <glyph glyph-name="numbersign" unicode="#" horiz-adv-x="800" 
d="M194 191h-148v113h171l18 92h-159v113h182l38 191h118l-38 -191h102l38 191h118l-38 -191h158v-113h-181l-18 -92h169v-113h-192l-38 -191h-118l38 191h-102l-38 -191h-118zM332 301h107l19 98h-107z" />
    <glyph glyph-name="dollar" unicode="$" horiz-adv-x="647" 
d="M390 -8v-90h-108v92q-196 27 -261 209l118 66q34 -124 143 -152v188q-203 45 -203 211q0 72 55.5 125.5t147.5 65.5v91h108v-93q73 -13 125 -56t76 -111l-112 -59q-26 81 -89 105v-178q118 -24 172 -72.5t54 -131.5q0 -85 -60.5 -142t-165.5 -68zM282 432v159
q-35 -7 -54.5 -27.5t-19.5 -48.5q0 -54 74 -83zM486 194q0 34 -22 54.5t-74 34.5v-170q45 7 70.5 29t25.5 52z" />
    <glyph glyph-name="percent" unicode="%" horiz-adv-x="858" 
d="M34 533q0 76 50 126.5t129 50.5t129 -50.5t50 -126.5t-50 -126.5t-129 -50.5t-129 50.5t-50 126.5zM296 533q0 40 -23 64t-60 24t-59.5 -24t-22.5 -64q0 -39 22.5 -63.5t59.5 -24.5t60 24.5t23 63.5zM208 77l-62 63l502 481l62 -63zM466 167q0 76 50 126.5t129 50.5
t129 -50.5t50 -126.5t-50 -126.5t-129 -50.5t-129 50.5t-50 126.5zM728 167q0 40 -23 64t-60 24t-59.5 -24t-22.5 -64q0 -39 22.5 -63.5t59.5 -24.5t60 24.5t23 63.5z" />
    <glyph glyph-name="ampersand" unicode="&#x26;" horiz-adv-x="825" 
d="M712 143l85 -74q-43 -79 -149 -79q-77 0 -135 54q-87 -54 -209 -54q-117 0 -186.5 60.5t-69.5 158.5q0 144 142 207q-43 61 -43 121q0 79 53 126t140 47q88 0 139 -44.5t51 -116.5q0 -125 -150 -180l136 -152q49 80 53 207l121 -10q-6 -178 -89 -289q25 -21 53 -21
q41 0 58 39zM263 538q0 -39 43 -86q101 28 101 91q0 28 -18.5 46.5t-50.5 18.5t-53.5 -19.5t-21.5 -50.5zM318 110q64 0 113 25l-169 196q-85 -39 -85 -115q0 -48 38 -77t103 -29z" />
    <glyph glyph-name="quotesingle" unicode="'" horiz-adv-x="234" 
d="M81 430l-29 153v117h130v-117l-28 -153h-73z" />
    <glyph glyph-name="parenleft" unicode="(" horiz-adv-x="427" 
d="M40 350q0 173 84.5 298.5t238.5 196.5l47 -92q-132 -61 -197 -164t-65 -239q0 -280 262 -403l-47 -92q-154 71 -238.5 196.5t-84.5 298.5z" />
    <glyph glyph-name="parenright" unicode=")" horiz-adv-x="427" 
d="M279 350q0 136 -65 239t-197 164l47 92q154 -71 238.5 -196.5t84.5 -298.5t-84.5 -298.5t-238.5 -196.5l-47 92q262 123 262 403z" />
    <glyph glyph-name="asterisk" unicode="*" horiz-adv-x="440" 
d="M173 725h94v-74l-31 -87l75 58l71 23l29 -89l-70 -24h-92l74 -49l44 -60l-77 -56l-44 60l-26 89l-26 -89l-44 -60l-77 56l44 60l74 49h-91l-71 24l29 89l71 -23l75 -58l-31 87v74z" />
    <glyph glyph-name="plus" unicode="+" horiz-adv-x="570" 
d="M53 352h180v180h104v-180h180v-104h-180v-180h-104v180h-180v104z" />
    <glyph glyph-name="comma" unicode="," horiz-adv-x="258" 
d="M34 -118l13 63q17 -10 45 -10q42 0 42 32q0 33 -39 33h-36v140h140v-173q0 -97 -105 -97q-38 0 -60 12z" />
    <glyph glyph-name="hyphen" unicode="-" horiz-adv-x="384" 
d="M47 310h290v-115h-290v115z" />
    <glyph glyph-name="period" unicode="." horiz-adv-x="258" 
d="M59 140h140v-140h-140v140z" />
    <glyph glyph-name="slash" unicode="/" horiz-adv-x="534" 
d="M386 834l101 -37l-339 -931l-101 37z" />
    <glyph glyph-name="zero" unicode="0" horiz-adv-x="654" 
d="M37 350q0 164 78.5 262t211.5 98t211.5 -98t78.5 -262t-78.5 -262t-211.5 -98t-211.5 98t-78.5 262zM487 350q0 113 -41.5 179t-118.5 66t-118.5 -66t-41.5 -179t41.5 -179t118.5 -66t118.5 66t41.5 179z" />
    <glyph glyph-name="one" unicode="1" horiz-adv-x="422" 
d="M224 0v522q-22 -48 -71 -79t-109 -35l-25 132q86 6 143.5 48.5t74.5 111.5h117v-700h-130z" />
    <glyph glyph-name="two" unicode="2" horiz-adv-x="597" 
d="M231 291q35 19 36 20q65 35 93 54q64 43 64 111q0 54 -36.5 86.5t-96.5 32.5q-56 0 -91.5 -33t-35.5 -84q0 -52 42 -93l-107 -72q-63 67 -63 162q0 98 73.5 166.5t186.5 68.5q119 0 187 -64t68 -167q0 -84 -39 -133t-113 -93q-28 -17 -43 -24q-60 -34 -97 -61
q-30 -22 -37 -50h331v-118h-502q0 112 49 179q50 69 131 112z" />
    <glyph glyph-name="three" unicode="3" horiz-adv-x="584" 
d="M19 210l120 53q4 -71 44.5 -112t104.5 -41q58 0 95 35.5t37 91.5q0 57 -36.5 92t-93.5 35q-60 0 -93 -39l-73 90l198 168h-270v117h462v-97l-185 -155q3 1 17 1q78 0 138.5 -58.5t60.5 -152.5q0 -110 -72 -179t-185 -69q-110 0 -180.5 59.5t-88.5 160.5z" />
    <glyph glyph-name="four" unicode="4" horiz-adv-x="604" 
d="M351 0v160h-319v125q63 60 94 112q30 51 41 107q10 53 10 141v55h128v-55q0 -120 -28 -204q-29 -87 -105 -166h179v209h127v-209h112v-115h-112v-160h-127z" />
    <glyph glyph-name="five" unicode="5" horiz-adv-x="612" 
d="M540 700v-120h-339q0 -75 -15 -154q25 25 65 40.5t82 15.5q104 0 172 -62.5t68 -171.5q0 -115 -71.5 -186.5t-194.5 -71.5q-105 0 -178 54t-87 156l125 35q8 -59 44.5 -92t95.5 -33q63 0 101 35.5t38 92.5t-37 93.5t-99 36.5q-44 0 -79 -22t-49 -58l-130 30
q30 181 30 382h458z" />
    <glyph glyph-name="six" unicode="6" horiz-adv-x="605" 
d="M37 333q0 168 72.5 272.5t212.5 104.5q102 0 164.5 -49t79.5 -139l-117 -36q-22 109 -132 109q-67 0 -112 -57.5t-45 -166.5v-8q23 42 71 68.5t104 26.5q98 0 159.5 -64t61.5 -159q0 -111 -69 -178t-177 -67q-119 0 -196 92.5t-77 250.5zM428 225q0 52 -34 86t-88 34
q-50 0 -83 -34t-33 -83q0 -51 34 -85.5t87 -34.5q50 0 83.5 34t33.5 83z" />
    <glyph glyph-name="seven" unicode="7" horiz-adv-x="540" 
d="M30 700h480v-107q-221 -136 -221 -424q0 -77 15 -169h-141q-11 71 -11 139q0 284 193 441h-315v120z" />
    <glyph glyph-name="eight" unicode="8" horiz-adv-x="603" 
d="M39 205q0 63 32.5 112t92.5 73q-85 44 -85 135q0 80 61.5 132.5t161.5 52.5q99 0 160.5 -52.5t61.5 -132.5q0 -91 -85 -135q60 -24 92.5 -72.5t32.5 -112.5q0 -91 -70.5 -153t-191.5 -62q-122 0 -192.5 62t-70.5 153zM404 520q0 33 -29 55.5t-73 22.5q-45 0 -74 -22.5
t-29 -55.5q0 -36 28 -59t75 -23q46 0 74 23t28 59zM437 220q0 48 -37.5 79t-97.5 31t-97.5 -31t-37.5 -79q0 -49 37 -79.5t98 -30.5t98 30.5t37 79.5z" />
    <glyph glyph-name="nine" unicode="9" horiz-adv-x="603" 
d="M39 188l119 37q19 -117 137 -117q72 0 111.5 58.5t39.5 162.5v26q-21 -53 -64.5 -82.5t-106.5 -29.5q-100 0 -162.5 65t-62.5 160q0 107 68.5 174.5t171.5 67.5q147 0 212 -102q64 -101 64 -264q0 -148 -63 -251t-213 -103q-101 0 -168 54.5t-83 143.5zM415 475
q0 52 -33.5 86t-86.5 34q-52 0 -86 -34.5t-34 -87.5q0 -52 33.5 -83.5t86.5 -31.5q55 0 87.5 32t32.5 85z" />
    <glyph glyph-name="colon" unicode=":" horiz-adv-x="258" 
d="M59 315v140h140v-140h-140zM59 0v140h140v-140h-140z" />
    <glyph glyph-name="semicolon" unicode=";" horiz-adv-x="258" 
d="M59 315v140h140v-140h-140zM34 -118l13 63q17 -10 45 -10q42 0 42 32q0 33 -39 33h-36v140h140v-173q0 -97 -105 -97q-38 0 -60 12z" />
    <glyph glyph-name="less" unicode="&#x3c;" horiz-adv-x="570" 
d="M517 51l-464 197v104l464 197v-127l-311 -122l311 -121v-128z" />
    <glyph glyph-name="equal" unicode="=" horiz-adv-x="570" 
d="M53 438h464v-104h-464v104zM53 267h464v-104h-464v104z" />
    <glyph glyph-name="greater" unicode="&#x3e;" horiz-adv-x="570" 
d="M53 51v128l312 121l-312 122v127l464 -197v-104z" />
    <glyph glyph-name="question" unicode="?" horiz-adv-x="494" 
d="M77 328q0 128 171 159q90 16 90 67q0 24 -23 38.5t-61 14.5q-43 0 -77.5 -25.5t-48.5 -74.5l-101 53q27 73 88 111.5t141 38.5q95 0 151.5 -41.5t56.5 -106.5t-43 -104t-140 -61q-43 -10 -62 -24.5t-19 -40.5q0 -21 16 -34t40 -13q64 0 86 73l94 -52q-54 -121 -185 -121
q-78 0 -126 40.5t-48 102.5zM185 0v135h140v-135h-140z" />
    <glyph glyph-name="at" unicode="@" horiz-adv-x="847" 
d="M654 117q59 0 59 128q0 279 -289 279q-113 2 -199.5 -80.5t-84.5 -206.5q0 -134 80.5 -210.5t197.5 -76.5q89 0 167 54l43 -82q-92 -60 -212 -60q-75 -1 -142.5 23.5t-120.5 70.5t-83.5 119t-29.5 162q-3 155 110 266t275 109q173 0 277.5 -93.5t104.5 -252.5
q0 -120 -40.5 -180.5t-111.5 -60.5q-40 0 -68 20.5t-38 55.5q-49 -76 -145 -76q-87 0 -141.5 59t-54.5 150q0 92 56 153.5t138 61.5q75 0 115 -48v36h102v-281q0 -18 9.5 -28.5t25.5 -10.5zM416 358q-45 0 -75 -35t-30 -88t29.5 -85.5t75.5 -32.5q44 0 75 32.5t31 85.5
t-32 88t-74 35z" />
    <glyph glyph-name="A" unicode="A" horiz-adv-x="776" 
d="M11 0l282 700h191l281 -700h-149l-61 158h-334l-60 -158h-150zM268 280h241l-121 313z" />
    <glyph glyph-name="B" unicode="B" horiz-adv-x="707" 
d="M68 0v700h345q99 0 162 -51t63 -131q0 -110 -112 -158q64 -18 100.5 -61t36.5 -106q0 -87 -65.5 -140t-171.5 -53h-358zM203 420h205q48 0 73 21t25 59q0 35 -26.5 55t-71.5 20h-205v-155zM203 125h225q45 0 72.5 23.5t27.5 61.5q0 39 -27.5 63.5t-72.5 24.5h-225v-173z
" />
    <glyph glyph-name="C" unicode="C" horiz-adv-x="790" 
d="M178 350q0 -108 63.5 -172.5t160.5 -64.5q96 0 156 56t78 150l123 -49q-28 -127 -122 -204q-92 -76 -236 -76q-162 0 -261.5 101.5t-99.5 258.5q-2 151 103.5 257t257.5 103q131 0 214.5 -65.5t109.5 -168.5l-124 -55q-15 77 -68 122t-133 45q-95 0 -158.5 -65.5
t-63.5 -172.5z" />
    <glyph glyph-name="D" unicode="D" horiz-adv-x="741" 
d="M68 0v700h270q171 0 267 -96.5t96 -258.5q0 -152 -97 -248.5t-263 -96.5h-273zM203 578v-455h135q109 0 168.5 62t59.5 160q0 109 -59.5 171t-170.5 62h-133z" />
    <glyph glyph-name="E" unicode="E" horiz-adv-x="648" 
d="M68 700h526v-125h-391v-152h361v-125h-361v-173h401v-125h-536v700z" />
    <glyph glyph-name="F" unicode="F" horiz-adv-x="634" 
d="M68 700h520v-125h-385v-170h355v-125h-355v-280h-135v700z" />
    <glyph glyph-name="G" unicode="G" horiz-adv-x="808" 
d="M388 -10q-147 -2 -248.5 101.5t-99.5 258.5q-3 150 103.5 256.5t256.5 103.5q136 0 223.5 -65.5t115.5 -178.5l-132 -42q-16 77 -70 119t-135 42q-95 0 -159.5 -66.5t-64.5 -168.5q0 -104 62 -169.5t160 -65.5q77 0 124.5 43t58.5 95h-283v117h454v-370h-117v145
q-69 -155 -249 -155z" />
    <glyph glyph-name="H" unicode="H" horiz-adv-x="751" 
d="M548 283h-345v-283h-135v700h135v-295h345v295h135v-700h-135v283z" />
    <glyph glyph-name="I" unicode="I" horiz-adv-x="271" 
d="M68 0v700h135v-700h-135z" />
    <glyph glyph-name="J" unicode="J" horiz-adv-x="611" 
d="M415 700h135v-460q0 -50 -14 -93t-42.5 -79t-78.5 -57t-116 -21q-118 0 -186 67.5t-68 171.5q0 75 35 125l124 -49q-26 -35 -26 -82t33 -77.5t85 -30.5q119 0 119 142v443z" />
    <glyph glyph-name="K" unicode="K" horiz-adv-x="699" 
d="M409 421l272 -421h-160l-203 319l-115 -124v-195h-135v700h135v-315l290 315h173z" />
    <glyph glyph-name="L" unicode="L" horiz-adv-x="648" 
d="M68 700h135v-575h407v-125h-542v700z" />
    <glyph glyph-name="M" unicode="M" horiz-adv-x="976" 
d="M908 0h-135v628l-182 -628h-205l-183 628v-628h-135v700h248l172 -600l173 600h247v-700z" />
    <glyph glyph-name="N" unicode="N" horiz-adv-x="795" 
d="M203 607v-607h-135v700h233l291 -607v607h135v-700h-233z" />
    <glyph glyph-name="O" unicode="O" horiz-adv-x="815" 
d="M408 710q150 3 260 -105t107 -255q3 -148 -107 -255.5t-260 -104.5q-150 -4 -260.5 104.5t-107.5 255.5q-3 147 107.5 255t260.5 105zM408 118q97 0 163.5 64.5t66.5 167.5t-66 168t-164 65t-164 -65t-66 -168t66.5 -167.5t163.5 -64.5z" />
    <glyph glyph-name="P" unicode="P" horiz-adv-x="669" 
d="M203 270v-270h-135v700h330q108 0 169 -61.5t61 -152.5q0 -89 -61.5 -152.5t-168.5 -63.5h-195zM203 395h185q46 0 74.5 24t28.5 66t-28 66t-75 24h-185v-180z" />
    <glyph glyph-name="Q" unicode="Q" horiz-adv-x="815" 
d="M503 3q-43 -13 -95 -13q-150 -4 -260.5 104.5t-107.5 255.5q-3 147 107.5 255t260.5 105q150 3 260 -105t107 -255q0 -92 -42.5 -170.5t-117.5 -127.5q24 -45 81 -45q45 0 74 26l43 -117q-49 -34 -123 -34q-65 0 -114.5 31.5t-72.5 89.5zM255 197q2 70 47 111
q46 42 112 42q70 0 115.5 -39t59.5 -110q49 64 49 149q0 103 -66 168t-164 65t-164 -65t-66 -168q0 -115 81 -179q-4 9 -4 26zM484 130q-7 109 -80 109q-26 0 -43.5 -16.5t-17.5 -41.5q0 -30 17.5 -46.5t47.5 -16.5q44 0 76 12z" />
    <glyph glyph-name="R" unicode="R" horiz-adv-x="689" 
d="M648 0h-158q-14 27 -18 60q-5 37 -5 100q0 118 -114 118h-150v-278h-135v700h343q106 0 168 -55.5t62 -141.5q0 -63 -37.5 -112.5t-100.5 -72.5q103 -34 109 -156q3 -62 10 -92.5t26 -53.5v-16zM203 403h200q49 0 76 23.5t27 63.5t-26.5 62.5t-76.5 22.5h-200v-172z" />
    <glyph glyph-name="S" unicode="S" horiz-adv-x="652" 
d="M321 590q-50 0 -80 -21t-30 -54q0 -40 41.5 -64.5t121.5 -39.5q130 -24 188.5 -72t58.5 -137q0 -93 -76.5 -152.5t-202.5 -59.5q-104 0 -192 48q-88 50 -129 165l120 75q21 -81 73.5 -123t130.5 -42q63 0 101 23t38 61q0 40 -36 63t-124 37q-248 38 -248 219q0 82 71 138
t182 56q94 0 163.5 -45t98.5 -127l-117 -68q-33 120 -153 120z" />
    <glyph glyph-name="T" unicode="T" horiz-adv-x="680" 
d="M655 700v-125h-247v-575h-135v575h-248v125h630z" />
    <glyph glyph-name="U" unicode="U" horiz-adv-x="709" 
d="M61 700h135v-414q0 -80 43 -125.5t116 -45.5t115.5 45.5t42.5 125.5v414h135v-417q0 -133 -79.5 -213t-213.5 -80q-135 0 -214.5 80t-79.5 213v417z" />
    <glyph glyph-name="V" unicode="V" horiz-adv-x="756" 
d="M378 106l220 594h149l-273 -700h-192l-273 700h149z" />
    <glyph glyph-name="W" unicode="W" horiz-adv-x="1022" 
d="M159 0l-148 700h140l120 -610l125 610h230l125 -610l120 610h140l-147 -700h-225l-128 610l-127 -610h-225z" />
    <glyph glyph-name="X" unicode="X" horiz-adv-x="715" 
d="M15 0l265 380l-225 320h160l143 -217l142 217h160l-225 -320l265 -380h-160l-182 273l-183 -273h-160z" />
    <glyph glyph-name="Y" unicode="Y" horiz-adv-x="692" 
d="M171 700l175 -296l185 296h150l-267 -422v-278h-135v278l-268 422h160z" />
    <glyph glyph-name="Z" unicode="Z" horiz-adv-x="714" 
d="M48 125l433 450h-428v125h606v-125l-433 -450h438v-125h-616v125z" />
    <glyph glyph-name="bracketleft" unicode="[" horiz-adv-x="327" 
d="M68 834h216v-105h-101v-794h101v-105h-216v1004z" />
    <glyph glyph-name="backslash" unicode="\" horiz-adv-x="534" 
d="M487 -97l-101 -37l-339 931l101 37z" />
    <glyph glyph-name="bracketright" unicode="]" horiz-adv-x="327" 
d="M43 -170v105h101v794h-101v105h216v-1004h-216z" />
    <glyph glyph-name="asciicircum" unicode="^" horiz-adv-x="564" 
d="M329 710l190 -210v-16h-136l-93 129h-16l-92 -129h-137v16l191 210h93z" />
    <glyph glyph-name="underscore" unicode="_" horiz-adv-x="579" 
d="M37 -25h505v-110h-505v110z" />
    <glyph glyph-name="grave" unicode="`" horiz-adv-x="362" 
d="M189 555l-129 117v16h157l85 -133h-113z" />
    <glyph glyph-name="a" unicode="a" horiz-adv-x="532" 
d="M41 137q0 74 49.5 113t135.5 39q44 0 81 -10l42 -10v30q0 40 -26 62.5t-71 22.5q-85 0 -103 -79l-111 30q19 70 74.5 109.5t140.5 39.5q107 0 162.5 -49t55.5 -143v-292h-117v73q-47 -83 -157 -83q-64 0 -110 40.5t-46 106.5zM349 175v4l-29 9q-47 14 -74 14
q-75 0 -75 -57t77 -57q45 0 73 23t28 64z" />
    <glyph glyph-name="b" unicode="b" horiz-adv-x="598" 
d="M61 700h128v-297q24 37 64.5 59t87.5 22q97 0 160 -69t63 -180q0 -110 -64.5 -177.5t-165.5 -67.5t-150 73v-63h-123v700zM310 99q54 0 90 37.5t36 98.5q0 63 -36 101t-90 38q-53 0 -89.5 -38.5t-36.5 -100.5q0 -61 36.5 -98.5t89.5 -37.5z" />
    <glyph glyph-name="c" unicode="c" horiz-adv-x="560" 
d="M289 103q56 0 88 32t39 85l118 -41q-21 -93 -84.5 -141t-157.5 -48q-116 0 -187 68.5t-71 181.5q0 105 72 174.5t173 69.5q91 0 152.5 -45.5t77.5 -125.5l-113 -38q-7 45 -38 71t-76 26q-49 0 -86 -36t-37 -96q0 -61 38.5 -99t91.5 -38z" />
    <glyph glyph-name="d" unicode="d" horiz-adv-x="598" 
d="M34 235q0 111 63.5 180t161.5 69q102 0 150 -81v297h128v-700h-123v68q-49 -78 -152 -78q-101 0 -164.5 67.5t-63.5 177.5zM414 235q0 62 -36.5 100.5t-89.5 38.5q-54 0 -90 -38t-36 -101q0 -62 36 -99t90 -37q53 0 89.5 37.5t36.5 98.5z" />
    <glyph glyph-name="e" unicode="e" horiz-adv-x="534" 
d="M397 181l109 -43q-25 -70 -82 -109t-139 -39q-111 0 -181 69t-70 181q0 103 66.5 173.5t169.5 70.5q99 0 159.5 -58t60.5 -155q0 -31 -6 -58h-322q1 -52 36.5 -82.5t88.5 -30.5q87 0 110 81zM162 298h203l1 4q0 36 -26.5 57.5t-69.5 21.5q-40 0 -69.5 -22.5t-38.5 -60.5z
" />
    <glyph glyph-name="f" unicode="f" horiz-adv-x="414" 
d="M108 0v369h-100v105h100v66q0 78 49 124t131 46q89 0 135.5 -41t46.5 -113q0 -20 -1 -26h-120q2 10 2 19q0 24 -15.5 39t-42.5 15t-42.5 -16.5t-15.5 -45.5v-67h125v-105h-125v-369h-127z" />
    <glyph glyph-name="g" unicode="g" horiz-adv-x="590" 
d="M59 -65l113 50q11 -41 41 -63.5t74 -22.5q57 0 86 35t29 99v45q-44 -75 -152 -75q-93 0 -154.5 66t-61.5 169q0 110 65 178t160 68q97 0 143 -66v56h127v-431q0 -117 -63.5 -184t-181.5 -67q-175 0 -225 143zM406 241q0 59 -34.5 96t-88.5 37q-53 0 -87 -37t-34 -99
q0 -58 34.5 -93t88.5 -35q52 0 86.5 37t34.5 94z" />
    <glyph glyph-name="h" unicode="h" horiz-adv-x="581" 
d="M189 0h-128v700h128v-311q22 45 63.5 70t93.5 25q80 0 127 -49t47 -131v-304h-127v274q0 49 -25.5 76.5t-71.5 27.5q-47 0 -77 -36t-30 -96v-246z" />
    <glyph glyph-name="i" unicode="i" horiz-adv-x="250" 
d="M61 474h128v-474h-128v474zM57 545v135h137v-135h-137z" />
    <glyph glyph-name="j" unicode="j" horiz-adv-x="250" 
d="M61 -198v672h128v-672h-128zM57 545v135h137v-135h-137z" />
    <glyph glyph-name="k" unicode="k" horiz-adv-x="535" 
d="M322 280l194 -280h-147l-131 190l-49 -51v-139h-128v700h128v-402l160 176h157z" />
    <glyph glyph-name="l" unicode="l" horiz-adv-x="250" 
d="M61 0v700h128v-700h-128z" />
    <glyph glyph-name="m" unicode="m" horiz-adv-x="785" 
d="M61 474h128v-58q36 68 117 68q44 0 76 -23t47 -66q42 89 137 89q73 0 115.5 -43.5t42.5 -120.5v-320h-128v296q0 38 -19.5 60t-50.5 22q-32 0 -51 -23t-19 -64v-291h-127v296q0 37 -19 58t-51 21q-31 0 -50.5 -23.5t-19.5 -65.5v-286h-128v474z" />
    <glyph glyph-name="n" unicode="n" horiz-adv-x="565" 
d="M189 0h-128v474h128v-62q47 72 144 72q78 0 124.5 -46.5t46.5 -127.5v-310h-128v275q0 49 -24 77t-65 28q-44 0 -71 -31.5t-27 -86.5v-262z" />
    <glyph glyph-name="o" unicode="o" horiz-adv-x="564" 
d="M34 237q0 107 70 177t178 70t178 -70t70 -177q0 -106 -70.5 -176.5t-177.5 -70.5t-177.5 70.5t-70.5 176.5zM405 237q0 59 -34.5 95.5t-88.5 36.5t-88.5 -36.5t-34.5 -95.5t34.5 -95.5t88.5 -36.5t88.5 36.5t34.5 95.5z" />
    <glyph glyph-name="p" unicode="p" horiz-adv-x="598" 
d="M61 474h123v-71q27 37 68.5 59t88.5 22q97 0 160 -69t63 -180q0 -110 -64.5 -177.5t-165.5 -67.5q-49 0 -87.5 19t-57.5 52v-259h-128v672zM310 99q54 0 90 37.5t36 98.5q0 63 -36 101t-90 38q-53 0 -89.5 -38.5t-36.5 -100.5q0 -61 36.5 -98.5t89.5 -37.5z" />
    <glyph glyph-name="q" unicode="q" horiz-adv-x="598" 
d="M409 -198v268q-46 -80 -147 -80q-100 0 -164 67.5t-64 177.5q0 111 63.5 180t161.5 69q51 0 92.5 -22t62.5 -59v71h123v-672h-128zM414 235q0 62 -36.5 100.5t-89.5 38.5q-54 0 -90 -38t-36 -101q0 -62 36 -99t90 -37q53 0 89.5 37.5t36.5 98.5z" />
    <glyph glyph-name="r" unicode="r" horiz-adv-x="471" 
d="M61 474h128v-61q32 71 114 71q63 0 99.5 -39t36.5 -101q0 -32 -7 -59h-121q4 15 4 36q0 26 -16.5 42.5t-43.5 16.5q-30 0 -48 -19.5t-18 -55.5v-305h-128v474z" />
    <glyph glyph-name="s" unicode="s" horiz-adv-x="476" 
d="M26 117l100 53q33 -75 119 -75q36 0 56.5 12.5t20.5 33.5q0 25 -24 39t-86 23q-162 25 -162 142q0 60 53.5 99.5t127.5 39.5q134 0 180 -100l-97 -53q-18 54 -80 54q-29 0 -48 -11.5t-19 -29.5q0 -21 22.5 -32t82.5 -20q90 -14 129.5 -49.5t39.5 -99.5q0 -66 -57 -109.5
t-143 -43.5q-163 0 -215 127z" />
    <glyph glyph-name="t" unicode="t" horiz-adv-x="493" 
d="M115 160v209h-98v105h98v156h127v-156h178v-105h-178v-209q0 -27 15 -42t39 -15q50 0 56 66l118 -22q-10 -75 -56 -116t-121 -41q-85 0 -131.5 45.5t-46.5 124.5z" />
    <glyph glyph-name="u" unicode="u" horiz-adv-x="572" 
d="M384 474h127v-474h-127v70q-19 -37 -56.5 -58.5t-87.5 -21.5q-83 0 -131 47.5t-48 135.5v301h128v-269q0 -51 22.5 -78t64.5 -27q51 0 79.5 35t28.5 95v244z" />
    <glyph glyph-name="v" unicode="v" horiz-adv-x="563" 
d="M152 474l130 -354l129 354h135l-187 -474h-155l-187 474h135z" />
    <glyph glyph-name="w" unicode="w" horiz-adv-x="775" 
d="M143 474l87 -354l83 354h150l82 -354l88 354h127l-130 -474h-165l-77 308l-78 -308h-165l-130 474h128z" />
    <glyph glyph-name="x" unicode="x" horiz-adv-x="505" 
d="M476 474l-154 -223l172 -251h-145l-97 151l-96 -151h-145l172 251l-154 223h145l78 -124l79 124h145z" />
    <glyph glyph-name="y" unicode="y" horiz-adv-x="533" 
d="M392 474h130l-323 -672h-130l127 265l-190 407h134l122 -270z" />
    <glyph glyph-name="z" unicode="z" horiz-adv-x="508" 
d="M466 0h-428v110l260 254h-252v110h413v-105l-261 -254h268v-115z" />
    <glyph glyph-name="braceleft" unicode="{" horiz-adv-x="330" 
d="M85 -20v251q0 50 -46 50h-9v103h9q46 0 46 50v250q0 78 34 114t111 36h57v-105h-37q-50 0 -50 -50v-247q0 -46 -19 -69t-63 -31q44 -8 63 -31t19 -69v-247q0 -50 50 -50h37v-105h-57q-77 0 -111 36t-34 114z" />
    <glyph glyph-name="bar" unicode="|" horiz-adv-x="249" 
d="M68 830h113v-980h-113v980z" />
    <glyph glyph-name="braceright" unicode="}" horiz-adv-x="330" 
d="M43 -170v105h37q50 0 50 50v247q0 46 19 69t63 31q-44 8 -63 31t-19 69v247q0 50 -50 50h-37v105h57q77 0 111 -36t34 -114v-250q0 -50 46 -50h9v-103h-9q-46 0 -46 -50v-251q0 -78 -34 -114t-111 -36h-57z" />
    <glyph glyph-name="asciitilde" unicode="~" horiz-adv-x="537" 
d="M68 226l-1 15q0 61 38 96q38 34 91 34q34 0 53.5 -9t42.5 -30q24 -23 44 -23q15 0 25 9.5t10 26.5q0 9 -3 18l101 -13l1 -15q0 -58 -37 -94t-92 -36q-33 0 -52.5 9t-39.5 29q-25 25 -48 25q-15 0 -25 -10t-10 -28q0 -1 2 -17z" />
    <glyph glyph-name="uni00A0" unicode="&#xa0;" horiz-adv-x="235" 
 />
    <glyph glyph-name="exclamdown" unicode="&#xa1;" horiz-adv-x="258" 
d="M59 502h140v-140h-140v140zM69 302h120v-500h-120v500z" />
    <glyph glyph-name="cent" unicode="&#xa2;" horiz-adv-x="560" 
d="M332 -8v-90h-104v94q-90 18 -142 83t-52 161q0 91 55 156.5t139 82.5v93h104v-92q70 -12 116.5 -55.5t60.5 -111.5l-113 -38q-11 64 -64 87v-253q72 21 84 111l118 -41q-41 -167 -202 -187zM228 118v241q-32 -15 -50.5 -46t-18.5 -73t18.5 -74t50.5 -48z" />
    <glyph glyph-name="sterling" unicode="&#xa3;" horiz-adv-x="640" 
d="M504 169l112 -58q-46 -121 -182 -121q-78 0 -146 57q-44 -57 -121 -57q-64 0 -98 32.5t-34 87.5q0 51 36 84t94 33q35 0 65 -13q-6 34 -25 61h-142v98h67q-41 64 -41 127q0 95 70 152.5t173 57.5q107 0 172 -53t77 -146l-128 -39q-5 56 -37 89t-84 33t-84 -28.5
t-32 -81.5q0 -47 45 -111h171v-98h-113q13 -35 13 -77q0 -30 -5 -55q49 -38 97 -38q61 0 80 64zM219 109q-25 19 -51 19q-16 0 -25.5 -7.5t-9.5 -19.5t9.5 -19.5t25.5 -7.5q34 0 51 35z" />
    <glyph glyph-name="currency" unicode="&#xa4;" horiz-adv-x="609" 
d="M497 235l74 -74l-77 -77l-74 74q-53 -32 -115 -32t-115 32l-74 -74l-78 77l74 74q-31 52 -31 115t31 115l-74 74l78 78l74 -75q55 32 115 32q63 0 115 -31l74 74l77 -78l-74 -74q32 -53 32 -115t-32 -115zM305 235q49 0 82 33t33 82t-33 82t-82 33t-82 -33t-33 -82
t33 -82t82 -33z" />
    <glyph glyph-name="yen" unicode="&#xa5;" horiz-adv-x="692" 
d="M681 700l-205 -322h111v-103h-175v-45h175v-102h-175v-128h-132v128h-175v102h175v45h-175v103h111l-205 322h155l180 -297l185 297h150z" />
    <glyph glyph-name="brokenbar" unicode="&#xa6;" horiz-adv-x="249" 
d="M68 395v435h113v-435h-113zM181 305v-455h-113v455h113z" />
    <glyph glyph-name="section" unicode="&#xa7;" horiz-adv-x="544" 
d="M489 69q0 -77 -62 -125t-157 -48q-189 0 -221 139l101 49q20 -86 121 -86q49 0 78.5 18.5t29.5 50.5q0 67 -162 86q-196 25 -196 162q0 70 67 115q-42 40 -42 107q0 77 62 125t157 48q188 0 221 -138l-101 -49q-19 85 -121 85q-48 0 -78 -18t-30 -50q0 -36 38.5 -55
t123.5 -31q195 -26 195 -163q0 -69 -67 -114q43 -40 43 -108zM282 242q51 -6 85 -19q34 24 34 58q0 35 -33.5 54t-114.5 29q-40 4 -86 19q-34 -24 -34 -57q0 -35 34 -54.5t115 -29.5z" />
    <glyph glyph-name="dieresis" unicode="&#xa8;" horiz-adv-x="399" 
d="M40 559v129h127v-129h-127zM232 559v129h127v-129h-127z" />
    <glyph glyph-name="copyright" unicode="&#xa9;" horiz-adv-x="536" 
d="M39 486q0 96 66.5 162.5t162.5 66.5t162.5 -66.5t66.5 -162.5t-66.5 -162.5t-162.5 -66.5t-162.5 66.5t-66.5 162.5zM442 486q0 73 -50 124t-124 51t-124 -51t-50 -124t50 -124t124 -51t124 51t50 124zM140 487q0 56 37 92q37 37 90 37q99 0 119 -91l-53 -16
q-4 25 -22 40.5t-44 15.5q-29 0 -49 -21t-20 -57q0 -35 20.5 -56.5t51.5 -21.5q62 0 74 67l52 -19q-13 -49 -45.5 -75t-80.5 -26q-58 0 -94 36t-36 95z" />
    <glyph glyph-name="ordfeminine" unicode="&#xaa;" horiz-adv-x="480" 
d="M36 396q0 66 44.5 101t121.5 35q38 0 75 -9l34 -9v28q0 36 -22.5 55.5t-61.5 19.5q-76 0 -91 -68l-102 28q19 63 69 98t125 35q97 0 147.5 -45t50.5 -130v-264h-109v63q-46 -72 -141 -72q-59 0 -99.5 37.5t-40.5 96.5zM311 428v4l-24 9q-33 12 -66 12q-30 0 -47.5 -13.5
t-17.5 -37.5q0 -51 67 -51q40 0 64 20.5t24 56.5z" />
    <glyph glyph-name="guillemotleft" unicode="&#xab;" horiz-adv-x="537" 
d="M266 77l-222 208v30l222 208h16v-126l-109 -89v-16l109 -88v-127h-16zM473 77l-222 208v30l222 208h16v-126l-109 -89v-16l109 -88v-127h-16z" />
    <glyph glyph-name="logicalnot" unicode="&#xac;" horiz-adv-x="570" 
d="M413 219v115h-360v104h464v-219h-104z" />
    <glyph glyph-name="uni00AD" unicode="&#xad;" horiz-adv-x="384" 
d="M47 310h290v-115h-290v115z" />
    <glyph glyph-name="registered" unicode="&#xae;" horiz-adv-x="536" 
d="M39 486q0 96 66.5 162.5t162.5 66.5t162.5 -66.5t66.5 -162.5t-66.5 -162.5t-162.5 -66.5t-162.5 66.5t-66.5 162.5zM442 486q0 73 -50 124t-124 51t-124 -51t-50 -124t50 -124t124 -51t124 51t50 124zM175 361v251h115q38 0 59.5 -18.5t21.5 -49.5q0 -48 -48 -65
q40 -15 40 -61q0 -38 13 -51v-6h-59q-10 19 -10 57q0 44 -42 44h-36v-101h-54zM229 510h54q34 0 34 29q0 26 -34 26h-54v-55z" />
    <glyph glyph-name="overscore" unicode="&#xaf;" horiz-adv-x="380" 
d="M57 660h266v-90h-266v90z" />
    <glyph glyph-name="degree" unicode="&#xb0;" horiz-adv-x="406" 
d="M40 547q0 67 48 115t115 48t115 -48t48 -115t-48 -115t-115 -48t-115 48t-48 115zM276 547q0 31 -21 52t-52 21t-52 -21t-21 -52t21 -52t52 -21t52 21t21 52z" />
    <glyph glyph-name="plusminus" unicode="&#xb1;" horiz-adv-x="570" 
d="M233 142v138h-180v104h180v141h105v-141h179v-104h-179v-138h-105zM53 0v104h464v-104h-464z" />
    <glyph glyph-name="uni00B2" unicode="&#xb2;" horiz-adv-x="302" 
d="M23 592q0 51 35 81.5t92 30.5q60 0 93 -28.5t33 -77.5q-3 -49 -22 -73.5t-65 -52.5q-40 -24 -49 -39h133v-73h-247q0 62 24.5 94.5t75.5 62.5q39 22 54 38t15 37q0 18 -12.5 28.5t-34.5 10.5q-21 0 -33 -10.5t-12 -27.5q0 -18 13 -32l-64 -43q-29 29 -29 74z" />
    <glyph glyph-name="uni00B3" unicode="&#xb3;" horiz-adv-x="312" 
d="M25 454l73 34q8 -56 57 -56q21 0 34 12t13 32q0 19 -12.5 32t-30.5 13q-19 0 -33 -12l-44 53l81 66h-122v72h227v-60l-76 -57q38 -2 64.5 -30.5t26.5 -77.5q0 -53 -35.5 -86t-91.5 -33q-54 0 -88 26.5t-43 71.5z" />
    <glyph glyph-name="acute" unicode="&#xb4;" horiz-adv-x="362" 
d="M60 555l85 133h157v-16l-129 -117h-113z" />
    <glyph glyph-name="uni00B5" unicode="&#xb5;" horiz-adv-x="572" 
d="M61 -198v672h128v-269q0 -105 93 -105q47 0 74.5 34.5t27.5 95.5v244h127v-474h-127v70q-33 -80 -114 -80q-56 0 -81 28v-216h-128z" />
    <glyph glyph-name="paragraph" unicode="&#xb6;" horiz-adv-x="574" 
d="M235 0v349h-27q-81 0 -131 48.5t-50 127.5q0 78 50 126.5t131 48.5h337v-82h-42v-618h-91v618h-86v-618h-91zM208 432h27v186h-27q-39 0 -65 -24t-26 -69t26 -69t65 -24z" />
    <glyph glyph-name="middot" unicode="&#xb7;" horiz-adv-x="258" 
d="M59 420h140v-140h-140v140z" />
    <glyph glyph-name="cedilla" unicode="&#xb8;" horiz-adv-x="280" 
d="M105 -48q20 18 45 18q36 0 58 -20.5t22 -56.5t-24 -58.5t-63 -22.5q-79 0 -91 65l60 15q2 -26 30 -26q13 0 21 7.5t8 19.5q0 27 -29 27q-20 0 -29 -15l-59 11q13 50 20 100h60q-12 -37 -29 -64z" />
    <glyph glyph-name="uni00B9" unicode="&#xb9;" horiz-adv-x="221" 
d="M106 360v232q-26 -45 -83 -50l-10 84q85 7 98 74h76v-340h-81z" />
    <glyph glyph-name="ordmasculine" unicode="&#xba;" horiz-adv-x="503" 
d="M252 710q99 0 160 -62t61 -162t-61 -162t-160 -62t-160.5 62t-61.5 162t61 162t161 62zM252 366q48 0 78 33t30 87t-30 87t-78 33t-78 -33t-30 -87t30 -87t78 -33z" />
    <glyph glyph-name="guillemotright" unicode="&#xbb;" horiz-adv-x="537" 
d="M49 77v127l109 88v16l-109 89v126h16l222 -208v-30l-222 -208h-16zM256 77v127l109 88v16l-109 89v126h16l222 -208v-30l-222 -208h-16z" />
    <glyph glyph-name="onequarter" unicode="&#xbc;" horiz-adv-x="686" 
d="M106 360v232q-26 -45 -83 -50l-10 84q85 7 98 74h76v-340h-81zM516 609l58 -58l-499 -477l-58 58zM554 0v69h-161v78q66 63 66 167v26h77v-24q0 -112 -57 -175h75v94h77v-94h45v-72h-45v-69h-77z" />
    <glyph glyph-name="onehalf" unicode="&#xbd;" horiz-adv-x="672" 
d="M106 360v232q-26 -45 -83 -50l-10 84q85 7 98 74h76v-340h-81zM516 609l58 -58l-499 -477l-58 58zM393 232q0 51 35 81.5t92 30.5q60 0 93 -28.5t33 -77.5q-3 -49 -22 -73.5t-65 -52.5q-40 -24 -49 -39h133v-73h-247q0 62 24.5 94.5t75.5 62.5q39 22 54 38t15 37
q0 18 -12.5 28.5t-34.5 10.5q-21 0 -33 -10.5t-12 -27.5q0 -18 13 -32l-64 -43q-29 29 -29 74z" />
    <glyph glyph-name="threequarters" unicode="&#xbe;" horiz-adv-x="777" 
d="M25 454l73 34q8 -56 57 -56q21 0 34 12t13 32q0 19 -12.5 32t-30.5 13q-19 0 -33 -12l-44 53l81 66h-122v72h227v-60l-76 -57q38 -2 64.5 -30.5t26.5 -77.5q0 -53 -35.5 -86t-91.5 -33q-54 0 -88 26.5t-43 71.5zM607 609l58 -58l-499 -477l-58 58zM645 0v69h-161v78
q66 63 66 167v26h77v-24q0 -112 -57 -175h75v94h77v-94h45v-72h-45v-69h-77z" />
    <glyph glyph-name="questiondown" unicode="&#xbf;" horiz-adv-x="494" 
d="M309 502v-135h-140v135h140zM417 174q0 -128 -171 -159q-90 -16 -90 -67q0 -24 23 -38.5t61 -14.5q43 0 77.5 25.5t48.5 74.5l101 -53q-27 -73 -88 -111.5t-141 -38.5q-95 0 -151.5 41.5t-56.5 106.5t43 104t140 61q43 10 62 24.5t19 40.5q0 21 -16 34t-40 13
q-64 0 -86 -73l-94 52q54 121 185 121q78 0 126 -40.5t48 -102.5z" />
    <glyph glyph-name="Agrave" unicode="&#xc0;" horiz-adv-x="776" 
d="M11 0l282 700h191l281 -700h-149l-61 158h-334l-60 -158h-150zM268 280h241l-121 313zM332 781l-129 117v16h157l85 -133h-113z" />
    <glyph glyph-name="Aacute" unicode="&#xc1;" horiz-adv-x="776" 
d="M11 0l282 700h191l281 -700h-149l-61 158h-334l-60 -158h-150zM268 280h241l-121 313zM332 781l85 133h157v-16l-129 -117h-113z" />
    <glyph glyph-name="Acircumflex" unicode="&#xc2;" horiz-adv-x="776" 
d="M11 0l282 700h191l281 -700h-149l-61 158h-334l-60 -158h-150zM268 280h241l-121 313zM221 781v16l130 113h74l131 -113v-16h-124l-44 59l-44 -59h-123z" />
    <glyph glyph-name="Atilde" unicode="&#xc3;" horiz-adv-x="776" 
d="M11 0l282 700h191l281 -700h-149l-61 158h-334l-60 -158h-150zM268 280h241l-121 313zM370 807q-19 19 -35 19q-28 0 -28 -31q0 -3 2 -13l-84 11q0 3 -0.5 6.5t-0.5 5.5l-1 2q0 45 28.5 74t73.5 29q44 0 81 -32q19 -18 35 -18q29 0 29 30q0 4 -2 14l84 -12q1 -3 1 -14
q0 -45 -28.5 -74t-73.5 -29q-44 0 -81 32z" />
    <glyph glyph-name="Adieresis" unicode="&#xc4;" horiz-adv-x="776" 
d="M11 0l282 700h191l281 -700h-149l-61 158h-334l-60 -158h-150zM268 280h241l-121 313zM229 785v129h127v-129h-127zM421 785v129h127v-129h-127z" />
    <glyph glyph-name="Aring" unicode="&#xc5;" horiz-adv-x="776" 
d="M11 0l282 700h191l281 -700h-149l-61 158h-334l-60 -158h-150zM268 280h241l-121 313zM290 853q0 41 28.5 69.5t69.5 28.5t69.5 -28.5t28.5 -69.5t-28.5 -69.5t-69.5 -28.5t-69.5 29t-28.5 69zM420 853q0 13 -9.5 22.5t-22.5 9.5t-22.5 -9.5t-9.5 -22.5t9.5 -22.5
t22.5 -9.5t22.5 9.5t9.5 22.5z" />
    <glyph glyph-name="AE" unicode="&#xc6;" horiz-adv-x="989" 
d="M593 125h352v-125h-487v158h-215l-82 -158h-150l365 700h559v-127h-342v-150h312v-125h-312v-173zM458 280v293l-152 -293h152z" />
    <glyph glyph-name="Ccedilla" unicode="&#xc7;" horiz-adv-x="790" 
d="M178 350q0 -108 63.5 -172.5t160.5 -64.5q96 0 156 56t78 150l123 -49q-28 -127 -122 -204q-92 -76 -236 -76q-162 0 -261.5 101.5t-99.5 258.5q-2 151 103.5 257t257.5 103q131 0 214.5 -65.5t109.5 -168.5l-124 -55q-15 77 -68 122t-133 45q-95 0 -158.5 -65.5
t-63.5 -172.5zM374 -48q20 18 45 18q36 0 58 -20.5t22 -56.5t-24 -58.5t-63 -22.5q-79 0 -91 65l60 15q2 -26 30 -26q13 0 21 7.5t8 19.5q0 27 -29 27q-20 0 -29 -15l-59 11q13 50 20 100h60q-12 -37 -29 -64z" />
    <glyph glyph-name="Egrave" unicode="&#xc8;" horiz-adv-x="648" 
d="M68 700h526v-125h-391v-152h361v-125h-361v-173h401v-125h-536v700zM275 781l-129 117v16h157l85 -133h-113z" />
    <glyph glyph-name="Eacute" unicode="&#xc9;" horiz-adv-x="648" 
d="M68 700h526v-125h-391v-152h361v-125h-361v-173h401v-125h-536v700zM275 781l85 133h157v-16l-129 -117h-113z" />
    <glyph glyph-name="Ecircumflex" unicode="&#xca;" horiz-adv-x="648" 
d="M68 700h526v-125h-391v-152h361v-125h-361v-173h401v-125h-536v700zM164 781v16l130 113h74l131 -113v-16h-124l-44 59l-44 -59h-123z" />
    <glyph glyph-name="Edieresis" unicode="&#xcb;" horiz-adv-x="648" 
d="M68 700h526v-125h-391v-152h361v-125h-361v-173h401v-125h-536v700zM172 785v129h127v-129h-127zM364 785v129h127v-129h-127z" />
    <glyph glyph-name="Igrave" unicode="&#xcc;" horiz-adv-x="271" 
d="M68 0v700h135v-700h-135zM80 781l-129 117v16h157l85 -133h-113z" />
    <glyph glyph-name="Iacute" unicode="&#xcd;" horiz-adv-x="271" 
d="M68 0v700h135v-700h-135zM80 781l85 133h157v-16l-129 -117h-113z" />
    <glyph glyph-name="Icircumflex" unicode="&#xce;" horiz-adv-x="271" 
d="M68 0v700h135v-700h-135zM-31 781v16l130 113h74l131 -113v-16h-124l-44 59l-44 -59h-123z" />
    <glyph glyph-name="Idieresis" unicode="&#xcf;" horiz-adv-x="271" 
d="M68 0v700h135v-700h-135zM-24 785v129h127v-129h-127zM168 785v129h127v-129h-127z" />
    <glyph glyph-name="Eth" unicode="&#xd0;" horiz-adv-x="741" 
d="M68 0v700h270q171 0 267 -96.5t96 -258.5q0 -152 -97 -248.5t-263 -96.5h-273zM203 578v-455h135q109 0 168.5 62t59.5 160q0 109 -59.5 171t-170.5 62h-133zM-6 404h414v-108h-414v108z" />
    <glyph glyph-name="Ntilde" unicode="&#xd1;" horiz-adv-x="795" 
d="M203 607v-607h-135v700h233l291 -607v607h135v-700h-233zM380 807q-19 19 -35 19q-28 0 -28 -31q0 -3 2 -13l-84 11q0 3 -0.5 6.5t-0.5 5.5l-1 2q0 45 28.5 74t73.5 29q44 0 81 -32q20 -18 35 -18q29 0 29 30q0 4 -2 14l84 -12q1 -3 1 -14q0 -45 -28.5 -74t-73.5 -29
q-44 0 -81 32z" />
    <glyph glyph-name="Ograve" unicode="&#xd2;" horiz-adv-x="815" 
d="M408 710q150 3 260 -105t107 -255q3 -148 -107 -255.5t-260 -104.5q-150 -4 -260.5 104.5t-107.5 255.5q-3 147 107.5 255t260.5 105zM408 118q97 0 163.5 64.5t66.5 167.5t-66 168t-164 65t-164 -65t-66 -168t66.5 -167.5t163.5 -64.5zM352 781l-129 117v16h157l85 -133
h-113z" />
    <glyph glyph-name="Oacute" unicode="&#xd3;" horiz-adv-x="815" 
d="M408 710q150 3 260 -105t107 -255q3 -148 -107 -255.5t-260 -104.5q-150 -4 -260.5 104.5t-107.5 255.5q-3 147 107.5 255t260.5 105zM408 118q97 0 163.5 64.5t66.5 167.5t-66 168t-164 65t-164 -65t-66 -168t66.5 -167.5t163.5 -64.5zM352 781l85 133h157v-16
l-129 -117h-113z" />
    <glyph glyph-name="Ocircumflex" unicode="&#xd4;" horiz-adv-x="815" 
d="M408 710q150 3 260 -105t107 -255q3 -148 -107 -255.5t-260 -104.5q-150 -4 -260.5 104.5t-107.5 255.5q-3 147 107.5 255t260.5 105zM408 118q97 0 163.5 64.5t66.5 167.5t-66 168t-164 65t-164 -65t-66 -168t66.5 -167.5t163.5 -64.5zM241 781v16l130 113h74l131 -113
v-16h-124l-44 59l-44 -59h-123z" />
    <glyph glyph-name="Otilde" unicode="&#xd5;" horiz-adv-x="815" 
d="M408 710q150 3 260 -105t107 -255q3 -148 -107 -255.5t-260 -104.5q-150 -4 -260.5 104.5t-107.5 255.5q-3 147 107.5 255t260.5 105zM408 118q97 0 163.5 64.5t66.5 167.5t-66 168t-164 65t-164 -65t-66 -168t66.5 -167.5t163.5 -64.5zM390 807q-19 19 -35 19
q-28 0 -28 -31q0 -3 2 -13l-84 11q0 3 -0.5 6.5t-0.5 5.5l-1 2q0 45 28.5 74t73.5 29q44 0 81 -32q20 -18 35 -18q29 0 29 30q0 4 -2 14l84 -12q1 -3 1 -14q0 -45 -28.5 -74t-73.5 -29q-44 0 -81 32z" />
    <glyph glyph-name="Odieresis" unicode="&#xd6;" horiz-adv-x="815" 
d="M408 710q150 3 260 -105t107 -255q3 -148 -107 -255.5t-260 -104.5q-150 -4 -260.5 104.5t-107.5 255.5q-3 147 107.5 255t260.5 105zM408 118q97 0 163.5 64.5t66.5 167.5t-66 168t-164 65t-164 -65t-66 -168t66.5 -167.5t163.5 -64.5zM249 785v129h127v-129h-127z
M441 785v129h127v-129h-127z" />
    <glyph glyph-name="multiply" unicode="&#xd7;" horiz-adv-x="536" 
d="M141 99l-74 74l128 127l-128 127l74 74l127 -127l127 127l74 -74l-127 -127l127 -127l-74 -74l-127 128z" />
    <glyph glyph-name="Oslash" unicode="&#xd8;" horiz-adv-x="815" 
d="M408 710q150 3 260 -105t107 -255q3 -148 -107 -255.5t-260 -104.5q-150 -4 -260.5 104.5t-107.5 255.5q-3 147 107.5 255t260.5 105zM408 118q97 0 163.5 64.5t66.5 167.5t-66 168t-164 65t-164 -65t-66 -168t66.5 -167.5t163.5 -64.5zM189 -43l-87 64l525 723l87 -64z
" />
    <glyph glyph-name="Ugrave" unicode="&#xd9;" horiz-adv-x="709" 
d="M61 700h135v-414q0 -80 43 -125.5t116 -45.5t115.5 45.5t42.5 125.5v414h135v-417q0 -133 -79.5 -213t-213.5 -80q-135 0 -214.5 80t-79.5 213v417zM299 781l-129 117v16h157l85 -133h-113z" />
    <glyph glyph-name="Uacute" unicode="&#xda;" horiz-adv-x="709" 
d="M61 700h135v-414q0 -80 43 -125.5t116 -45.5t115.5 45.5t42.5 125.5v414h135v-417q0 -133 -79.5 -213t-213.5 -80q-135 0 -214.5 80t-79.5 213v417zM299 781l85 133h157v-16l-129 -117h-113z" />
    <glyph glyph-name="Ucircumflex" unicode="&#xdb;" horiz-adv-x="709" 
d="M61 700h135v-414q0 -80 43 -125.5t116 -45.5t115.5 45.5t42.5 125.5v414h135v-417q0 -133 -79.5 -213t-213.5 -80q-135 0 -214.5 80t-79.5 213v417zM188 781v16l130 113h74l131 -113v-16h-124l-44 59l-44 -59h-123z" />
    <glyph glyph-name="Udieresis" unicode="&#xdc;" horiz-adv-x="709" 
d="M61 700h135v-414q0 -80 43 -125.5t116 -45.5t115.5 45.5t42.5 125.5v414h135v-417q0 -133 -79.5 -213t-213.5 -80q-135 0 -214.5 80t-79.5 213v417zM196 785v129h127v-129h-127zM388 785v129h127v-129h-127z" />
    <glyph glyph-name="Yacute" unicode="&#xdd;" horiz-adv-x="692" 
d="M171 700l175 -296l185 296h150l-267 -422v-278h-135v278l-268 422h160zM290 781l85 133h157v-16l-129 -117h-113z" />
    <glyph glyph-name="Thorn" unicode="&#xde;" horiz-adv-x="669" 
d="M203 137v-137h-135v700h135v-133h195q108 0 169 -61.5t61 -152.5q0 -89 -61.5 -152.5t-168.5 -63.5h-195zM203 262h185q46 0 74.5 24t28.5 66t-28 66t-75 24h-185v-180z" />
    <glyph glyph-name="germandbls" unicode="&#xdf;" horiz-adv-x="600" 
d="M344 101q41 0 66 31t25 88q0 62 -46 96.5t-121 34.5v100q41 4 68 26t27 58q0 30 -19 47.5t-50 17.5q-72 0 -72 -83v-517h-128v351h-79v100h79v68q0 90 56 140.5t142 50.5t137.5 -43t51.5 -108q0 -98 -86 -140q72 -16 117.5 -68.5t45.5 -133.5q0 -100 -57.5 -163.5
t-147.5 -63.5q-58 0 -102 23l21 109q30 -21 72 -21z" />
    <glyph glyph-name="agrave" unicode="&#xe0;" horiz-adv-x="532" 
d="M41 137q0 74 49.5 113t135.5 39q44 0 81 -10l42 -10v30q0 40 -26 62.5t-71 22.5q-85 0 -103 -79l-111 30q19 70 74.5 109.5t140.5 39.5q107 0 162.5 -49t55.5 -143v-292h-117v73q-47 -83 -157 -83q-64 0 -110 40.5t-46 106.5zM349 175v4l-29 9q-47 14 -74 14
q-75 0 -75 -57t77 -57q45 0 73 23t28 64zM198 555l-129 117v16h157l85 -133h-113z" />
    <glyph glyph-name="aacute" unicode="&#xe1;" horiz-adv-x="532" 
d="M41 137q0 74 49.5 113t135.5 39q44 0 81 -10l42 -10v30q0 40 -26 62.5t-71 22.5q-85 0 -103 -79l-111 30q19 70 74.5 109.5t140.5 39.5q107 0 162.5 -49t55.5 -143v-292h-117v73q-47 -83 -157 -83q-64 0 -110 40.5t-46 106.5zM349 175v4l-29 9q-47 14 -74 14
q-75 0 -75 -57t77 -57q45 0 73 23t28 64zM198 555l85 133h157v-16l-129 -117h-113z" />
    <glyph glyph-name="acircumflex" unicode="&#xe2;" horiz-adv-x="532" 
d="M41 137q0 74 49.5 113t135.5 39q44 0 81 -10l42 -10v30q0 40 -26 62.5t-71 22.5q-85 0 -103 -79l-111 30q19 70 74.5 109.5t140.5 39.5q107 0 162.5 -49t55.5 -143v-292h-117v73q-47 -83 -157 -83q-64 0 -110 40.5t-46 106.5zM349 175v4l-29 9q-47 14 -74 14
q-75 0 -75 -57t77 -57q45 0 73 23t28 64zM87 555v16l130 113h74l131 -113v-16h-124l-44 59l-44 -59h-123z" />
    <glyph glyph-name="atilde" unicode="&#xe3;" horiz-adv-x="532" 
d="M41 137q0 74 49.5 113t135.5 39q44 0 81 -10l42 -10v30q0 40 -26 62.5t-71 22.5q-85 0 -103 -79l-111 30q19 70 74.5 109.5t140.5 39.5q107 0 162.5 -49t55.5 -143v-292h-117v73q-47 -83 -157 -83q-64 0 -110 40.5t-46 106.5zM349 175v4l-29 9q-47 14 -74 14
q-75 0 -75 -57t77 -57q45 0 73 23t28 64zM236 581q-19 19 -35 19q-28 0 -28 -31q0 -3 2 -13l-84 11q0 3 -0.5 6.5t-0.5 5.5l-1 2q0 45 28.5 74t73.5 29q44 0 81 -32q20 -18 35 -18q29 0 29 30q0 4 -2 14l84 -12q1 -3 1 -14q0 -45 -28.5 -74t-73.5 -29q-44 0 -81 32z" />
    <glyph glyph-name="adieresis" unicode="&#xe4;" horiz-adv-x="532" 
d="M41 137q0 74 49.5 113t135.5 39q44 0 81 -10l42 -10v30q0 40 -26 62.5t-71 22.5q-85 0 -103 -79l-111 30q19 70 74.5 109.5t140.5 39.5q107 0 162.5 -49t55.5 -143v-292h-117v73q-47 -83 -157 -83q-64 0 -110 40.5t-46 106.5zM349 175v4l-29 9q-47 14 -74 14
q-75 0 -75 -57t77 -57q45 0 73 23t28 64zM95 559v129h127v-129h-127zM287 559v129h127v-129h-127z" />
    <glyph glyph-name="aring" unicode="&#xe5;" horiz-adv-x="532" 
d="M41 137q0 74 49.5 113t135.5 39q44 0 81 -10l42 -10v30q0 40 -26 62.5t-71 22.5q-85 0 -103 -79l-111 30q19 70 74.5 109.5t140.5 39.5q107 0 162.5 -49t55.5 -143v-292h-117v73q-47 -83 -157 -83q-64 0 -110 40.5t-46 106.5zM349 175v4l-29 9q-47 14 -74 14
q-75 0 -75 -57t77 -57q45 0 73 23t28 64zM156 627q0 41 28.5 69.5t69.5 28.5t69.5 -28.5t28.5 -69.5t-28.5 -69.5t-69.5 -28.5t-69.5 29t-28.5 69zM286 627q0 13 -9.5 22.5t-22.5 9.5t-22.5 -9.5t-9.5 -22.5t9.5 -22.5t22.5 -9.5t22.5 9.5t9.5 22.5z" />
    <glyph glyph-name="ae" unicode="&#xe6;" horiz-adv-x="853" 
d="M41 137q0 73 49 111.5t135 38.5h129v10q0 40 -28 63.5t-76 23.5q-44 0 -71 -20.5t-34 -56.5l-106 29q18 72 72.5 110t139.5 38q123 0 178 -73q57 73 160 73q99 0 159.5 -58t60.5 -155q0 -31 -6 -58h-322q1 -52 36.5 -83t88.5 -31q86 0 110 82l109 -43q-25 -70 -82 -109
t-139 -39q-67 0 -116.5 28.5t-71.5 77.5q-65 -106 -206 -106q-72 0 -120.5 42t-48.5 105zM481 298h203l1 4q0 36 -26.5 57.5t-69.5 21.5q-40 0 -69.5 -22.5t-38.5 -60.5zM354 183v24h-104q-37 0 -59 -15.5t-22 -44.5q0 -57 74 -57q51 0 81 26t30 67z" />
    <glyph glyph-name="ccedilla" unicode="&#xe7;" horiz-adv-x="560" 
d="M289 103q56 0 88 32t39 85l118 -41q-21 -93 -84.5 -141t-157.5 -48q-116 0 -187 68.5t-71 181.5q0 105 72 174.5t173 69.5q91 0 152.5 -45.5t77.5 -125.5l-113 -38q-7 45 -38 71t-76 26q-49 0 -86 -36t-37 -96q0 -61 38.5 -99t91.5 -38zM260 -48q20 18 45 18
q36 0 58 -20.5t22 -56.5t-24 -58.5t-63 -22.5q-79 0 -91 65l60 15q2 -26 30 -26q13 0 21 7.5t8 19.5q0 27 -29 27q-20 0 -29 -15l-59 11q13 50 20 100h60q-12 -37 -29 -64z" />
    <glyph glyph-name="egrave" unicode="&#xe8;" horiz-adv-x="534" 
d="M397 181l109 -43q-25 -70 -82 -109t-139 -39q-111 0 -181 69t-70 181q0 103 66.5 173.5t169.5 70.5q99 0 159.5 -58t60.5 -155q0 -31 -6 -58h-322q1 -52 36.5 -82.5t88.5 -30.5q87 0 110 81zM162 298h203l1 4q0 36 -26.5 57.5t-69.5 21.5q-40 0 -69.5 -22.5t-38.5 -60.5z
M214 555l-129 117v16h157l85 -133h-113z" />
    <glyph glyph-name="eacute" unicode="&#xe9;" horiz-adv-x="534" 
d="M397 181l109 -43q-25 -70 -82 -109t-139 -39q-111 0 -181 69t-70 181q0 103 66.5 173.5t169.5 70.5q99 0 159.5 -58t60.5 -155q0 -31 -6 -58h-322q1 -52 36.5 -82.5t88.5 -30.5q87 0 110 81zM162 298h203l1 4q0 36 -26.5 57.5t-69.5 21.5q-40 0 -69.5 -22.5t-38.5 -60.5z
M214 555l85 133h157v-16l-129 -117h-113z" />
    <glyph glyph-name="ecircumflex" unicode="&#xea;" horiz-adv-x="534" 
d="M397 181l109 -43q-25 -70 -82 -109t-139 -39q-111 0 -181 69t-70 181q0 103 66.5 173.5t169.5 70.5q99 0 159.5 -58t60.5 -155q0 -31 -6 -58h-322q1 -52 36.5 -82.5t88.5 -30.5q87 0 110 81zM162 298h203l1 4q0 36 -26.5 57.5t-69.5 21.5q-40 0 -69.5 -22.5t-38.5 -60.5z
M103 555v16l130 113h74l131 -113v-16h-124l-44 59l-44 -59h-123z" />
    <glyph glyph-name="edieresis" unicode="&#xeb;" horiz-adv-x="534" 
d="M397 181l109 -43q-25 -70 -82 -109t-139 -39q-111 0 -181 69t-70 181q0 103 66.5 173.5t169.5 70.5q99 0 159.5 -58t60.5 -155q0 -31 -6 -58h-322q1 -52 36.5 -82.5t88.5 -30.5q87 0 110 81zM162 298h203l1 4q0 36 -26.5 57.5t-69.5 21.5q-40 0 -69.5 -22.5t-38.5 -60.5z
M111 559v129h127v-129h-127zM303 559v129h127v-129h-127z" />
    <glyph glyph-name="igrave" unicode="&#xec;" horiz-adv-x="250" 
d="M61 474h128v-474h-128v474zM69 555l-129 117v16h157l85 -133h-113z" />
    <glyph glyph-name="iacute" unicode="&#xed;" horiz-adv-x="250" 
d="M61 474h128v-474h-128v474zM69 555l85 133h157v-16l-129 -117h-113z" />
    <glyph glyph-name="icircumflex" unicode="&#xee;" horiz-adv-x="250" 
d="M61 474h128v-474h-128v474zM-42 555v16l130 113h74l131 -113v-16h-124l-44 59l-44 -59h-123z" />
    <glyph glyph-name="idieresis" unicode="&#xef;" horiz-adv-x="250" 
d="M61 474h128v-474h-128v474zM-35 559v129h127v-129h-127zM157 559v129h127v-129h-127z" />
    <glyph glyph-name="eth" unicode="&#xf0;" horiz-adv-x="559" 
d="M34 235q0 105 66.5 177t168.5 72q70 0 111 -39q-25 56 -64 97l-27 -31l-64 55l28 32q-6 5 -27 19l-20 15l67 82l49 -36l34 38l64 -55l-35 -40q140 -148 140 -358q0 -125 -66 -199t-180 -74q-107 0 -176 70t-69 175zM399 235q0 59 -33.5 96.5t-86.5 37.5t-86.5 -37.5
t-33.5 -96.5q0 -58 33.5 -94t86.5 -36t86.5 36t33.5 94z" />
    <glyph glyph-name="ntilde" unicode="&#xf1;" horiz-adv-x="565" 
d="M189 0h-128v474h128v-62q47 72 144 72q78 0 124.5 -46.5t46.5 -127.5v-310h-128v275q0 49 -24 77t-65 28q-44 0 -71 -31.5t-27 -86.5v-262zM285 581q-19 19 -35 19q-28 0 -28 -31q0 -3 2 -13l-84 11q0 3 -0.5 6.5t-1.5 5.5v2q0 45 28.5 74t73.5 29q44 0 81 -32
q20 -18 35 -18q29 0 29 30q0 4 -2 14l84 -12q1 -3 1 -14q0 -45 -28.5 -74t-73.5 -29q-44 0 -81 32z" />
    <glyph glyph-name="ograve" unicode="&#xf2;" horiz-adv-x="564" 
d="M34 237q0 107 70 177t178 70t178 -70t70 -177q0 -106 -70.5 -176.5t-177.5 -70.5t-177.5 70.5t-70.5 176.5zM405 237q0 59 -34.5 95.5t-88.5 36.5t-88.5 -36.5t-34.5 -95.5t34.5 -95.5t88.5 -36.5t88.5 36.5t34.5 95.5zM226 555l-129 117v16h157l85 -133h-113z" />
    <glyph glyph-name="oacute" unicode="&#xf3;" horiz-adv-x="564" 
d="M34 237q0 107 70 177t178 70t178 -70t70 -177q0 -106 -70.5 -176.5t-177.5 -70.5t-177.5 70.5t-70.5 176.5zM405 237q0 59 -34.5 95.5t-88.5 36.5t-88.5 -36.5t-34.5 -95.5t34.5 -95.5t88.5 -36.5t88.5 36.5t34.5 95.5zM226 555l85 133h157v-16l-129 -117h-113z" />
    <glyph glyph-name="ocircumflex" unicode="&#xf4;" horiz-adv-x="564" 
d="M34 237q0 107 70 177t178 70t178 -70t70 -177q0 -106 -70.5 -176.5t-177.5 -70.5t-177.5 70.5t-70.5 176.5zM405 237q0 59 -34.5 95.5t-88.5 36.5t-88.5 -36.5t-34.5 -95.5t34.5 -95.5t88.5 -36.5t88.5 36.5t34.5 95.5zM115 555v16l130 113h74l131 -113v-16h-124l-44 59
l-44 -59h-123z" />
    <glyph glyph-name="otilde" unicode="&#xf5;" horiz-adv-x="564" 
d="M34 237q0 107 70 177t178 70t178 -70t70 -177q0 -106 -70.5 -176.5t-177.5 -70.5t-177.5 70.5t-70.5 176.5zM405 237q0 59 -34.5 95.5t-88.5 36.5t-88.5 -36.5t-34.5 -95.5t34.5 -95.5t88.5 -36.5t88.5 36.5t34.5 95.5zM264 581q-19 19 -35 19q-28 0 -28 -31q0 -3 2 -13
l-84 11q0 3 -0.5 6.5t-0.5 5.5l-1 2q0 45 28.5 74t73.5 29q44 0 81 -32q19 -18 35 -18q29 0 29 30q0 4 -2 14l84 -12q1 -3 1 -14q0 -45 -28.5 -74t-73.5 -29q-44 0 -81 32z" />
    <glyph glyph-name="odieresis" unicode="&#xf6;" horiz-adv-x="564" 
d="M34 237q0 107 70 177t178 70t178 -70t70 -177q0 -106 -70.5 -176.5t-177.5 -70.5t-177.5 70.5t-70.5 176.5zM405 237q0 59 -34.5 95.5t-88.5 36.5t-88.5 -36.5t-34.5 -95.5t34.5 -95.5t88.5 -36.5t88.5 36.5t34.5 95.5zM123 559v129h127v-129h-127zM315 559v129h127v-129
h-127z" />
    <glyph glyph-name="divide" unicode="&#xf7;" horiz-adv-x="570" 
d="M230 405v109h110v-109h-110zM53 248v104h464v-104h-464zM230 86v109h110v-109h-110z" />
    <glyph glyph-name="oslash" unicode="&#xf8;" horiz-adv-x="564" 
d="M530 237q0 -106 -70.5 -176.5t-177.5 -70.5q-6 0 -32 2l-21 -57l-101 36l20 55q-54 32 -84 87.5t-30 123.5q0 107 70 177t178 70q3 0 33 -2l21 57l101 -36l-20 -55q54 -32 83.5 -87t29.5 -124zM190 139l86 235q-54 -2 -87.5 -40t-33.5 -97q0 -60 35 -98zM410 237
q0 60 -35 98l-86 -235q54 3 87.5 40.5t33.5 96.5z" />
    <glyph glyph-name="ugrave" unicode="&#xf9;" horiz-adv-x="572" 
d="M384 474h127v-474h-127v70q-19 -37 -56.5 -58.5t-87.5 -21.5q-83 0 -131 47.5t-48 135.5v301h128v-269q0 -51 22.5 -78t64.5 -27q51 0 79.5 35t28.5 95v244zM231 555l-129 117v16h157l85 -133h-113z" />
    <glyph glyph-name="uacute" unicode="&#xfa;" horiz-adv-x="572" 
d="M384 474h127v-474h-127v70q-19 -37 -56.5 -58.5t-87.5 -21.5q-83 0 -131 47.5t-48 135.5v301h128v-269q0 -51 22.5 -78t64.5 -27q51 0 79.5 35t28.5 95v244zM231 555l85 133h157v-16l-129 -117h-113z" />
    <glyph glyph-name="ucircumflex" unicode="&#xfb;" horiz-adv-x="572" 
d="M384 474h127v-474h-127v70q-19 -37 -56.5 -58.5t-87.5 -21.5q-83 0 -131 47.5t-48 135.5v301h128v-269q0 -51 22.5 -78t64.5 -27q51 0 79.5 35t28.5 95v244zM120 555v16l130 113h74l131 -113v-16h-124l-44 59l-44 -59h-123z" />
    <glyph glyph-name="udieresis" unicode="&#xfc;" horiz-adv-x="572" 
d="M384 474h127v-474h-127v70q-19 -37 -56.5 -58.5t-87.5 -21.5q-83 0 -131 47.5t-48 135.5v301h128v-269q0 -51 22.5 -78t64.5 -27q51 0 79.5 35t28.5 95v244zM128 559v129h127v-129h-127zM320 559v129h127v-129h-127z" />
    <glyph glyph-name="yacute" unicode="&#xfd;" horiz-adv-x="533" 
d="M392 474h130l-323 -672h-130l127 265l-190 407h134l122 -270zM209 555l85 133h157v-16l-129 -117h-113z" />
    <glyph glyph-name="thorn" unicode="&#xfe;" horiz-adv-x="598" 
d="M61 700h128v-297q24 37 64.5 59t87.5 22q97 0 160 -69t63 -180q0 -110 -64.5 -177.5t-165.5 -67.5q-49 0 -88 19t-60 52v-259h-125v898zM310 99q54 0 90 37.5t36 98.5q0 63 -36 101t-90 38q-53 0 -89.5 -38.5t-36.5 -100.5q0 -61 36.5 -98.5t89.5 -37.5z" />
    <glyph glyph-name="ydieresis" unicode="&#xff;" horiz-adv-x="533" 
d="M392 474h130l-323 -672h-130l127 265l-190 407h134l122 -270zM106 559v129h127v-129h-127zM298 559v129h127v-129h-127z" />
    <glyph glyph-name="Amacron" unicode="&#x100;" horiz-adv-x="776" 
d="M11 0l282 700h191l281 -700h-149l-61 158h-334l-60 -158h-150zM268 280h241l-121 313zM255 886h266v-90h-266v90z" />
    <glyph glyph-name="amacron" unicode="&#x101;" horiz-adv-x="532" 
d="M41 137q0 74 49.5 113t135.5 39q44 0 81 -10l42 -10v30q0 40 -26 62.5t-71 22.5q-85 0 -103 -79l-111 30q19 70 74.5 109.5t140.5 39.5q107 0 162.5 -49t55.5 -143v-292h-117v73q-47 -83 -157 -83q-64 0 -110 40.5t-46 106.5zM349 175v4l-29 9q-47 14 -74 14
q-75 0 -75 -57t77 -57q45 0 73 23t28 64zM121 660h266v-90h-266v90z" />
    <glyph glyph-name="Abreve" unicode="&#x102;" horiz-adv-x="776" 
d="M11 0l282 700h191l281 -700h-149l-61 158h-334l-60 -158h-150zM268 280h241l-121 313zM518 892q0 -53 -37 -84t-93 -31t-92.5 31t-36.5 84q0 11 1 14h86l-1 -9q0 -17 12 -28.5t31 -11.5q20 0 31.5 11t11.5 29l-1 9h87q1 -3 1 -14z" />
    <glyph glyph-name="abreve" unicode="&#x103;" horiz-adv-x="532" 
d="M41 137q0 74 49.5 113t135.5 39q44 0 81 -10l42 -10v30q0 40 -26 62.5t-71 22.5q-85 0 -103 -79l-111 30q19 70 74.5 109.5t140.5 39.5q107 0 162.5 -49t55.5 -143v-292h-117v73q-47 -83 -157 -83q-64 0 -110 40.5t-46 106.5zM349 175v4l-29 9q-47 14 -74 14
q-75 0 -75 -57t77 -57q45 0 73 23t28 64zM384 666q0 -53 -37 -84t-93 -31t-92.5 31t-36.5 84q0 11 1 14h86l-1 -9q0 -17 12 -28.5t31 -11.5q20 0 31.5 11t11.5 29l-1 9h87q1 -3 1 -14z" />
    <glyph glyph-name="Aogonek" unicode="&#x104;" horiz-adv-x="776" 
d="M11 0l282 700h191l281 -700h-149l-61 158h-334l-60 -158h-150zM268 280h241l-121 313zM720 -193q-42 0 -68.5 24.5t-26.5 63.5q0 64 71 105h69q-52 -39 -52 -70q0 -30 31 -30q14 0 31 11l36 -78q-44 -26 -91 -26z" />
    <glyph glyph-name="aogonek" unicode="&#x105;" horiz-adv-x="532" 
d="M41 137q0 74 49.5 113t135.5 39q44 0 81 -10l42 -10v30q0 40 -26 62.5t-71 22.5q-85 0 -103 -79l-111 30q19 70 74.5 109.5t140.5 39.5q107 0 162.5 -49t55.5 -143v-292h-117v73q-47 -83 -157 -83q-64 0 -110 40.5t-46 106.5zM349 175v4l-29 9q-47 14 -74 14
q-75 0 -75 -57t77 -57q45 0 73 23t28 64zM426 -193q-42 0 -68.5 24.5t-26.5 63.5q0 64 71 105h69q-52 -39 -52 -70q0 -30 31 -30q14 0 31 11l36 -78q-44 -26 -91 -26z" />
    <glyph glyph-name="Cacute" unicode="&#x106;" horiz-adv-x="790" 
d="M178 350q0 -108 63.5 -172.5t160.5 -64.5q96 0 156 56t78 150l123 -49q-28 -127 -122 -204q-92 -76 -236 -76q-162 0 -261.5 101.5t-99.5 258.5q-2 151 103.5 257t257.5 103q131 0 214.5 -65.5t109.5 -168.5l-124 -55q-15 77 -68 122t-133 45q-95 0 -158.5 -65.5
t-63.5 -172.5zM339 781l85 133h157v-16l-129 -117h-113z" />
    <glyph glyph-name="cacute" unicode="&#x107;" horiz-adv-x="560" 
d="M289 103q56 0 88 32t39 85l118 -41q-21 -93 -84.5 -141t-157.5 -48q-116 0 -187 68.5t-71 181.5q0 105 72 174.5t173 69.5q91 0 152.5 -45.5t77.5 -125.5l-113 -38q-7 45 -38 71t-76 26q-49 0 -86 -36t-37 -96q0 -61 38.5 -99t91.5 -38zM223 555l85 133h157v-16
l-129 -117h-113z" />
    <glyph glyph-name="Ccircumflex" unicode="&#x108;" horiz-adv-x="790" 
d="M178 350q0 -108 63.5 -172.5t160.5 -64.5q96 0 156 56t78 150l123 -49q-28 -127 -122 -204q-92 -76 -236 -76q-162 0 -261.5 101.5t-99.5 258.5q-2 151 103.5 257t257.5 103q131 0 214.5 -65.5t109.5 -168.5l-124 -55q-15 77 -68 122t-133 45q-95 0 -158.5 -65.5
t-63.5 -172.5zM228 781v16l130 113h74l131 -113v-16h-124l-44 59l-44 -59h-123z" />
    <glyph glyph-name="ccircumflex" unicode="&#x109;" horiz-adv-x="560" 
d="M289 103q56 0 88 32t39 85l118 -41q-21 -93 -84.5 -141t-157.5 -48q-116 0 -187 68.5t-71 181.5q0 105 72 174.5t173 69.5q91 0 152.5 -45.5t77.5 -125.5l-113 -38q-7 45 -38 71t-76 26q-49 0 -86 -36t-37 -96q0 -61 38.5 -99t91.5 -38zM112 555v16l130 113h74l131 -113
v-16h-124l-44 59l-44 -59h-123z" />
    <glyph glyph-name="Cdotaccent" unicode="&#x10a;" horiz-adv-x="790" 
d="M178 350q0 -108 63.5 -172.5t160.5 -64.5q96 0 156 56t78 150l123 -49q-28 -127 -122 -204q-92 -76 -236 -76q-162 0 -261.5 101.5t-99.5 258.5q-2 151 103.5 257t257.5 103q131 0 214.5 -65.5t109.5 -168.5l-124 -55q-15 77 -68 122t-133 45q-95 0 -158.5 -65.5
t-63.5 -172.5zM331 916h129v-130h-129v130z" />
    <glyph glyph-name="cdotaccent" unicode="&#x10b;" horiz-adv-x="560" 
d="M289 103q56 0 88 32t39 85l118 -41q-21 -93 -84.5 -141t-157.5 -48q-116 0 -187 68.5t-71 181.5q0 105 72 174.5t173 69.5q91 0 152.5 -45.5t77.5 -125.5l-113 -38q-7 45 -38 71t-76 26q-49 0 -86 -36t-37 -96q0 -61 38.5 -99t91.5 -38zM211 545v135h137v-135h-137z" />
    <glyph glyph-name="Ccaron" unicode="&#x10c;" horiz-adv-x="790" 
d="M178 350q0 -108 63.5 -172.5t160.5 -64.5q96 0 156 56t78 150l123 -49q-28 -127 -122 -204q-92 -76 -236 -76q-162 0 -261.5 101.5t-99.5 258.5q-2 151 103.5 257t257.5 103q131 0 214.5 -65.5t109.5 -168.5l-124 -55q-15 77 -68 122t-133 45q-95 0 -158.5 -65.5
t-63.5 -172.5zM358 781l-130 113v16h123l44 -59l44 59h124v-16l-131 -113h-74z" />
    <glyph glyph-name="ccaron" unicode="&#x10d;" horiz-adv-x="560" 
d="M289 103q56 0 88 32t39 85l118 -41q-21 -93 -84.5 -141t-157.5 -48q-116 0 -187 68.5t-71 181.5q0 105 72 174.5t173 69.5q91 0 152.5 -45.5t77.5 -125.5l-113 -38q-7 45 -38 71t-76 26q-49 0 -86 -36t-37 -96q0 -61 38.5 -99t91.5 -38zM242 555l-130 113v16h123l44 -59
l44 59h124v-16l-131 -113h-74z" />
    <glyph glyph-name="Dcaron" unicode="&#x10e;" horiz-adv-x="741" 
d="M68 0v700h270q171 0 267 -96.5t96 -258.5q0 -152 -97 -248.5t-263 -96.5h-273zM203 578v-455h135q109 0 168.5 62t59.5 160q0 109 -59.5 171t-170.5 62h-133zM257 781l-130 113v16h123l44 -59l44 59h124v-16l-131 -113h-74z" />
    <glyph glyph-name="dcaron" unicode="&#x10f;" horiz-adv-x="737" 
d="M34 235q0 111 63.5 180t161.5 69q102 0 150 -81v297h128v-700h-123v68q-49 -78 -152 -78q-101 0 -164.5 67.5t-63.5 177.5zM414 235q0 62 -36.5 100.5t-89.5 38.5q-54 0 -90 -38t-36 -101q0 -62 36 -99t90 -37q53 0 89.5 37.5t36.5 98.5zM590 458v62h38q44 0 44 33
q0 32 -39 32h-36v115h140v-142q0 -49 -31 -74.5t-79 -25.5h-37z" />
    <glyph glyph-name="Dcroat" unicode="&#x110;" horiz-adv-x="741" 
d="M68 0v700h270q171 0 267 -96.5t96 -258.5q0 -152 -97 -248.5t-263 -96.5h-273zM203 578v-455h135q109 0 168.5 62t59.5 160q0 109 -59.5 171t-170.5 62h-133zM-6 404h414v-108h-414v108z" />
    <glyph glyph-name="dslash" unicode="&#x111;" horiz-adv-x="598" 
d="M34 235q0 111 63.5 180t161.5 69q102 0 150 -81v297h128v-700h-123v68q-49 -78 -152 -78q-101 0 -164.5 67.5t-63.5 177.5zM414 235q0 62 -36.5 100.5t-89.5 38.5q-54 0 -90 -38t-36 -101q0 -62 36 -99t90 -37q53 0 89.5 37.5t36.5 98.5zM275 645h323v-96h-323v96z" />
    <glyph glyph-name="Emacron" unicode="&#x112;" horiz-adv-x="648" 
d="M68 700h526v-125h-391v-152h361v-125h-361v-173h401v-125h-536v700zM198 886h266v-90h-266v90z" />
    <glyph glyph-name="emacron" unicode="&#x113;" horiz-adv-x="534" 
d="M397 181l109 -43q-25 -70 -82 -109t-139 -39q-111 0 -181 69t-70 181q0 103 66.5 173.5t169.5 70.5q99 0 159.5 -58t60.5 -155q0 -31 -6 -58h-322q1 -52 36.5 -82.5t88.5 -30.5q87 0 110 81zM162 298h203l1 4q0 36 -26.5 57.5t-69.5 21.5q-40 0 -69.5 -22.5t-38.5 -60.5z
M137 660h266v-90h-266v90z" />
    <glyph glyph-name="Ebreve" unicode="&#x114;" horiz-adv-x="648" 
d="M68 700h526v-125h-391v-152h361v-125h-361v-173h401v-125h-536v700zM461 892q0 -53 -37 -84t-93 -31t-92.5 31t-36.5 84q0 11 1 14h86l-1 -9q0 -17 12 -28.5t31 -11.5q20 0 31.5 11t11.5 29l-1 9h87q1 -3 1 -14z" />
    <glyph glyph-name="ebreve" unicode="&#x115;" horiz-adv-x="534" 
d="M397 181l109 -43q-25 -70 -82 -109t-139 -39q-111 0 -181 69t-70 181q0 103 66.5 173.5t169.5 70.5q99 0 159.5 -58t60.5 -155q0 -31 -6 -58h-322q1 -52 36.5 -82.5t88.5 -30.5q87 0 110 81zM162 298h203l1 4q0 36 -26.5 57.5t-69.5 21.5q-40 0 -69.5 -22.5t-38.5 -60.5z
M400 666q0 -53 -37 -84t-93 -31t-92.5 31t-36.5 84q0 11 1 14h86l-1 -9q0 -17 12 -28.5t31 -11.5q20 0 31.5 11t11.5 29l-1 9h87q1 -3 1 -14z" />
    <glyph glyph-name="Edotaccent" unicode="&#x116;" horiz-adv-x="648" 
d="M68 700h526v-125h-391v-152h361v-125h-361v-173h401v-125h-536v700zM267 916h129v-130h-129v130z" />
    <glyph glyph-name="edotaccent" unicode="&#x117;" horiz-adv-x="534" 
d="M397 181l109 -43q-25 -70 -82 -109t-139 -39q-111 0 -181 69t-70 181q0 103 66.5 173.5t169.5 70.5q99 0 159.5 -58t60.5 -155q0 -31 -6 -58h-322q1 -52 36.5 -82.5t88.5 -30.5q87 0 110 81zM162 298h203l1 4q0 36 -26.5 57.5t-69.5 21.5q-40 0 -69.5 -22.5t-38.5 -60.5z
M202 545v135h137v-135h-137z" />
    <glyph glyph-name="Eogonek" unicode="&#x118;" horiz-adv-x="648" 
d="M68 700h526v-125h-391v-152h361v-125h-361v-173h401v-125h-536v700zM559 -193q-42 0 -68.5 24.5t-26.5 63.5q0 64 71 105h69q-52 -39 -52 -70q0 -30 31 -30q14 0 31 11l36 -78q-44 -26 -91 -26z" />
    <glyph glyph-name="eogonek" unicode="&#x119;" horiz-adv-x="534" 
d="M397 181l109 -43q-25 -70 -82 -109t-139 -39q-111 0 -181 69t-70 181q0 103 66.5 173.5t169.5 70.5q99 0 159.5 -58t60.5 -155q0 -31 -6 -58h-322q1 -52 36.5 -82.5t88.5 -30.5q87 0 110 81zM162 298h203l1 4q0 36 -26.5 57.5t-69.5 21.5q-40 0 -69.5 -22.5t-38.5 -60.5z
M303 -193q-42 0 -68.5 24.5t-26.5 63.5q0 64 71 105h69q-52 -39 -52 -70q0 -30 31 -30q14 0 31 11l36 -78q-44 -26 -91 -26z" />
    <glyph glyph-name="Ecaron" unicode="&#x11a;" horiz-adv-x="648" 
d="M68 700h526v-125h-391v-152h361v-125h-361v-173h401v-125h-536v700zM294 781l-130 113v16h123l44 -59l44 59h124v-16l-131 -113h-74z" />
    <glyph glyph-name="ecaron" unicode="&#x11b;" horiz-adv-x="534" 
d="M397 181l109 -43q-25 -70 -82 -109t-139 -39q-111 0 -181 69t-70 181q0 103 66.5 173.5t169.5 70.5q99 0 159.5 -58t60.5 -155q0 -31 -6 -58h-322q1 -52 36.5 -82.5t88.5 -30.5q87 0 110 81zM162 298h203l1 4q0 36 -26.5 57.5t-69.5 21.5q-40 0 -69.5 -22.5t-38.5 -60.5z
M233 555l-130 113v16h123l44 -59l44 59h124v-16l-131 -113h-74z" />
    <glyph glyph-name="Gcircumflex" unicode="&#x11c;" horiz-adv-x="808" 
d="M388 -10q-147 -2 -248.5 101.5t-99.5 258.5q-3 150 103.5 256.5t256.5 103.5q136 0 223.5 -65.5t115.5 -178.5l-132 -42q-16 77 -70 119t-135 42q-95 0 -159.5 -66.5t-64.5 -168.5q0 -104 62 -169.5t160 -65.5q77 0 124.5 43t58.5 95h-283v117h454v-370h-117v145
q-69 -155 -249 -155zM233 781v16l130 113h74l131 -113v-16h-124l-44 59l-44 -59h-123z" />
    <glyph glyph-name="gcircumflex" unicode="&#x11d;" horiz-adv-x="590" 
d="M59 -65l113 50q11 -41 41 -63.5t74 -22.5q57 0 86 35t29 99v45q-44 -75 -152 -75q-93 0 -154.5 66t-61.5 169q0 110 65 178t160 68q97 0 143 -66v56h127v-431q0 -117 -63.5 -184t-181.5 -67q-175 0 -225 143zM406 241q0 59 -34.5 96t-88.5 37q-53 0 -87 -37t-34 -99
q0 -58 34.5 -93t88.5 -35q52 0 86.5 37t34.5 94zM127 555v16l130 113h74l131 -113v-16h-124l-44 59l-44 -59h-123z" />
    <glyph glyph-name="Gbreve" unicode="&#x11e;" horiz-adv-x="808" 
d="M388 -10q-147 -2 -248.5 101.5t-99.5 258.5q-3 150 103.5 256.5t256.5 103.5q136 0 223.5 -65.5t115.5 -178.5l-132 -42q-16 77 -70 119t-135 42q-95 0 -159.5 -66.5t-64.5 -168.5q0 -104 62 -169.5t160 -65.5q77 0 124.5 43t58.5 95h-283v117h454v-370h-117v145
q-69 -155 -249 -155zM530 892q0 -53 -37 -84t-93 -31t-92.5 31t-36.5 84q0 11 1 14h86l-1 -9q0 -17 12 -28.5t31 -11.5q20 0 31.5 11t11.5 29l-1 9h87q1 -3 1 -14z" />
    <glyph glyph-name="gbreve" unicode="&#x11f;" horiz-adv-x="590" 
d="M59 -65l113 50q11 -41 41 -63.5t74 -22.5q57 0 86 35t29 99v45q-44 -75 -152 -75q-93 0 -154.5 66t-61.5 169q0 110 65 178t160 68q97 0 143 -66v56h127v-431q0 -117 -63.5 -184t-181.5 -67q-175 0 -225 143zM406 241q0 59 -34.5 96t-88.5 37q-53 0 -87 -37t-34 -99
q0 -58 34.5 -93t88.5 -35q52 0 86.5 37t34.5 94zM424 666q0 -53 -37 -84t-93 -31t-92.5 31t-36.5 84q0 11 1 14h86l-1 -9q0 -17 12 -28.5t31 -11.5q20 0 31.5 11t11.5 29l-1 9h87q1 -3 1 -14z" />
    <glyph glyph-name="Gdotaccent" unicode="&#x120;" horiz-adv-x="808" 
d="M388 -10q-147 -2 -248.5 101.5t-99.5 258.5q-3 150 103.5 256.5t256.5 103.5q136 0 223.5 -65.5t115.5 -178.5l-132 -42q-16 77 -70 119t-135 42q-95 0 -159.5 -66.5t-64.5 -168.5q0 -104 62 -169.5t160 -65.5q77 0 124.5 43t58.5 95h-283v117h454v-370h-117v145
q-69 -155 -249 -155zM336 916h129v-130h-129v130z" />
    <glyph glyph-name="gdotaccent" unicode="&#x121;" horiz-adv-x="590" 
d="M59 -65l113 50q11 -41 41 -63.5t74 -22.5q57 0 86 35t29 99v45q-44 -75 -152 -75q-93 0 -154.5 66t-61.5 169q0 110 65 178t160 68q97 0 143 -66v56h127v-431q0 -117 -63.5 -184t-181.5 -67q-175 0 -225 143zM406 241q0 59 -34.5 96t-88.5 37q-53 0 -87 -37t-34 -99
q0 -58 34.5 -93t88.5 -35q52 0 86.5 37t34.5 94zM226 545v135h137v-135h-137z" />
    <glyph glyph-name="Gcommaaccent" unicode="&#x122;" horiz-adv-x="808" 
d="M388 -10q-147 -2 -248.5 101.5t-99.5 258.5q-3 150 103.5 256.5t256.5 103.5q136 0 223.5 -65.5t115.5 -178.5l-132 -42q-16 77 -70 119t-135 42q-95 0 -159.5 -66.5t-64.5 -168.5q0 -104 62 -169.5t160 -65.5q77 0 124.5 43t58.5 95h-283v117h454v-370h-117v145
q-69 -155 -249 -155zM293 -283l14 63q23 -9 49 -9q41 0 41 32t-39 32h-36v113h139v-145q0 -48 -28 -72.5t-72 -24.5q-33 0 -68 11z" />
    <glyph glyph-name="gcommaaccent" unicode="&#x123;" horiz-adv-x="590" 
d="M59 -65l113 50q11 -41 41 -63.5t74 -22.5q57 0 86 35t29 99v45q-44 -75 -152 -75q-93 0 -154.5 66t-61.5 169q0 110 65 178t160 68q97 0 143 -66v56h127v-431q0 -117 -63.5 -184t-181.5 -67q-175 0 -225 143zM406 241q0 59 -34.5 96t-88.5 37q-53 0 -87 -37t-34 -99
q0 -58 34.5 -93t88.5 -35q52 0 86.5 37t34.5 94zM347 542h-140v173q0 97 110 97h50v-65h-50q-45 0 -45 -32q0 -33 40 -33h35v-140z" />
    <glyph glyph-name="Hcircumflex" unicode="&#x124;" horiz-adv-x="751" 
d="M548 283h-345v-283h-135v700h135v-295h345v295h135v-700h-135v283zM209 781v16l130 113h74l131 -113v-16h-124l-44 59l-44 -59h-123z" />
    <glyph glyph-name="hcircumflex" unicode="&#x125;" horiz-adv-x="581" 
d="M189 0h-128v700h128v-311q22 45 63.5 70t93.5 25q80 0 127 -49t47 -131v-304h-127v274q0 49 -25.5 76.5t-71.5 27.5q-47 0 -77 -36t-30 -96v-246zM-42 781v16l130 113h74l131 -113v-16h-124l-44 59l-44 -59h-123z" />
    <glyph glyph-name="Hbar" unicode="&#x126;" horiz-adv-x="751" 
d="M548 283h-345v-283h-135v700h135v-295h345v295h135v-700h-135v283zM-8 495v105h767v-105h-767z" />
    <glyph glyph-name="hbar" unicode="&#x127;" horiz-adv-x="581" 
d="M189 0h-128v700h128v-311q22 45 63.5 70t93.5 25q80 0 127 -49t47 -131v-304h-127v274q0 49 -25.5 76.5t-71.5 27.5q-47 0 -77 -36t-30 -96v-246zM0 645h323v-96h-323v96z" />
    <glyph glyph-name="Itilde" unicode="&#x128;" horiz-adv-x="271" 
d="M68 0v700h135v-700h-135zM118 807q-19 19 -35 19q-28 0 -28 -31q0 -3 2 -13l-84 11q0 3 -0.5 6.5t-0.5 5.5l-1 2q0 45 28.5 74t73.5 29q44 0 81 -32q20 -18 35 -18q29 0 29 30q0 4 -2 14l84 -12q1 -3 1 -14q0 -45 -28.5 -74t-73.5 -29q-44 0 -81 32z" />
    <glyph glyph-name="itilde" unicode="&#x129;" horiz-adv-x="250" 
d="M61 474h128v-474h-128v474zM107 581q-19 19 -35 19q-28 0 -28 -31q0 -3 2 -13l-84 11q0 3 -0.5 6.5t-1.5 5.5v2q0 45 28.5 74t73.5 29q44 0 81 -32q19 -18 35 -18q29 0 29 30q0 4 -2 14l84 -12q1 -3 1 -14q0 -45 -28.5 -74t-73.5 -29q-44 0 -81 32z" />
    <glyph glyph-name="Imacron" unicode="&#x12a;" horiz-adv-x="271" 
d="M68 0v700h135v-700h-135zM3 886h266v-90h-266v90z" />
    <glyph glyph-name="imacron" unicode="&#x12b;" horiz-adv-x="250" 
d="M61 474h128v-474h-128v474zM-8 660h266v-90h-266v90z" />
    <glyph glyph-name="Ibreve" unicode="&#x12c;" horiz-adv-x="271" 
d="M68 0v700h135v-700h-135zM266 892q0 -53 -37 -84t-93 -31t-92.5 31t-36.5 84q0 11 1 14h86l-1 -9q0 -17 12 -28.5t31 -11.5q20 0 31.5 11t11.5 29l-1 9h87q1 -3 1 -14z" />
    <glyph glyph-name="ibreve" unicode="&#x12d;" horiz-adv-x="250" 
d="M61 474h128v-474h-128v474zM255 666q0 -53 -37 -84t-93 -31t-92.5 31t-36.5 84q0 11 1 14h86l-1 -9q0 -17 12 -28.5t31 -11.5q20 0 31.5 11t11.5 29l-1 9h87q1 -3 1 -14z" />
    <glyph glyph-name="Iogonek" unicode="&#x12e;" horiz-adv-x="271" 
d="M68 0v700h135v-700h-135zM158 -193q-42 0 -68.5 24.5t-26.5 63.5q0 64 71 105h69q-52 -39 -52 -70q0 -30 31 -30q14 0 31 11l36 -78q-44 -26 -91 -26z" />
    <glyph glyph-name="iogonek" unicode="&#x12f;" horiz-adv-x="250" 
d="M61 474h128v-474h-128v474zM57 545v135h137v-135h-137zM144 -193q-42 0 -68.5 24.5t-26.5 63.5q0 64 71 105h69q-52 -39 -52 -70q0 -30 31 -30q14 0 31 11l36 -78q-44 -26 -91 -26z" />
    <glyph glyph-name="Idot" unicode="&#x130;" horiz-adv-x="271" 
d="M68 0v700h135v-700h-135zM72 916h129v-130h-129v130z" />
    <glyph glyph-name="dotlessi" unicode="&#x131;" horiz-adv-x="250" 
d="M61 474h128v-474h-128v474z" />
    <glyph glyph-name="IJ" unicode="&#x132;" horiz-adv-x="882" 
d="M68 0v700h135v-700h-135zM686 700h135v-460q0 -50 -14 -93t-42.5 -79t-78.5 -57t-116 -21q-118 0 -186 67.5t-68 171.5q0 75 35 125l124 -49q-26 -35 -26 -82t33 -77.5t85 -30.5q119 0 119 142v443z" />
    <glyph glyph-name="ij" unicode="&#x133;" horiz-adv-x="500" 
d="M61 474h128v-474h-128v474zM57 545v135h137v-135h-137zM311 -198v672h128v-672h-128zM307 545v135h137v-135h-137z" />
    <glyph glyph-name="Jcircumflex" unicode="&#x134;" horiz-adv-x="611" 
d="M415 700h135v-460q0 -50 -14 -93t-42.5 -79t-78.5 -57t-116 -21q-118 0 -186 67.5t-68 171.5q0 75 35 125l124 -49q-26 -35 -26 -82t33 -77.5t85 -30.5q119 0 119 142v443zM316 781v16l130 113h74l131 -113v-16h-124l-44 59l-44 -59h-123z" />
    <glyph glyph-name="jcircumflex" unicode="&#x135;" horiz-adv-x="250" 
d="M61 -198v672h128v-672h-128zM-42 555v16l130 113h74l131 -113v-16h-124l-44 59l-44 -59h-123z" />
    <glyph glyph-name="Kcommaaccent" unicode="&#x136;" horiz-adv-x="699" 
d="M409 421l272 -421h-160l-203 319l-115 -124v-195h-135v700h135v-315l290 315h173zM263 -283l14 63q23 -9 49 -9q41 0 41 32t-39 32h-36v113h139v-145q0 -48 -28 -72.5t-72 -24.5q-33 0 -68 11z" />
    <glyph glyph-name="kcommaaccent" unicode="&#x137;" horiz-adv-x="535" 
d="M322 280l194 -280h-147l-131 190l-49 -51v-139h-128v700h128v-402l160 176h157zM176 -283l14 63q22 -9 49 -9q41 0 41 32t-39 32h-36v113h139v-145q0 -48 -28 -72.5t-72 -24.5q-33 0 -68 11z" />
    <glyph glyph-name="kgreenlandic" unicode="&#x138;" horiz-adv-x="518" 
d="M61 0v474h125v-168l145 168h158l-205 -224l215 -250h-154l-159 191v-191h-125z" />
    <glyph glyph-name="Lacute" unicode="&#x139;" horiz-adv-x="648" 
d="M68 700h135v-575h407v-125h-542v700zM80 781l85 133h157v-16l-129 -117h-113z" />
    <glyph glyph-name="lacute" unicode="&#x13a;" horiz-adv-x="250" 
d="M61 0v700h128v-700h-128zM69 781l85 133h157v-16l-129 -117h-113z" />
    <glyph glyph-name="Lcommaaccent" unicode="&#x13b;" horiz-adv-x="648" 
d="M68 700h135v-575h407v-125h-542v700zM228 -283l14 63q22 -9 49 -9q41 0 41 32t-39 32h-36v113h139v-145q0 -48 -28 -72.5t-72 -24.5q-33 0 -68 11z" />
    <glyph glyph-name="lcommaaccent" unicode="&#x13c;" horiz-adv-x="250" 
d="M61 0v700h128v-700h-128zM26 -283l14 63q22 -9 49 -9q41 0 41 32t-39 32h-36v113h139v-145q0 -48 -28 -72.5t-72 -24.5q-33 0 -68 11z" />
    <glyph glyph-name="Lcaron" unicode="&#x13d;" horiz-adv-x="648" 
d="M68 700h135v-575h407v-125h-542v700zM463 458v62h38q44 0 44 33q0 32 -39 32h-36v115h140v-142q0 -49 -31 -74.5t-79 -25.5h-37z" />
    <glyph glyph-name="lcaron" unicode="&#x13e;" horiz-adv-x="389" 
d="M61 0v700h128v-700h-128zM242 458v62h38q44 0 44 33q0 32 -39 32h-36v115h140v-142q0 -49 -31 -74.5t-79 -25.5h-37z" />
    <glyph glyph-name="Ldot" unicode="&#x13f;" horiz-adv-x="600" 
d="M68 700h135v-575h407v-125h-542v700zM378 420h140v-140h-140v140z" />
    <glyph glyph-name="ldot" unicode="&#x140;" horiz-adv-x="451" 
d="M61 0v700h128v-700h-128zM280 420h140v-140h-140v140z" />
    <glyph glyph-name="Lslash" unicode="&#x141;" horiz-adv-x="648" 
d="M68 700h135v-575h407v-125h-542v700zM14 235l-49 97l335 173l49 -96z" />
    <glyph glyph-name="lslash" unicode="&#x142;" horiz-adv-x="250" 
d="M61 0v700h128v-700h-128zM10 237l-49 96l279 145l49 -96z" />
    <glyph glyph-name="Nacute" unicode="&#x143;" horiz-adv-x="795" 
d="M203 607v-607h-135v700h233l291 -607v607h135v-700h-233zM342 781l85 133h157v-16l-129 -117h-113z" />
    <glyph glyph-name="nacute" unicode="&#x144;" horiz-adv-x="565" 
d="M189 0h-128v474h128v-62q47 72 144 72q78 0 124.5 -46.5t46.5 -127.5v-310h-128v275q0 49 -24 77t-65 28q-44 0 -71 -31.5t-27 -86.5v-262zM247 555l85 133h157v-16l-129 -117h-113z" />
    <glyph glyph-name="Ncommaaccent" unicode="&#x145;" horiz-adv-x="795" 
d="M203 607v-607h-135v700h233l291 -607v607h135v-700h-233zM299 -283l14 63q22 -9 49 -9q41 0 41 32t-39 32h-36v113h139v-145q0 -48 -28 -72.5t-72 -24.5q-33 0 -68 11z" />
    <glyph glyph-name="ncommaaccent" unicode="&#x146;" horiz-adv-x="565" 
d="M189 0h-128v474h128v-62q47 72 144 72q78 0 124.5 -46.5t46.5 -127.5v-310h-128v275q0 49 -24 77t-65 28q-44 0 -71 -31.5t-27 -86.5v-262zM183 -283l14 63q23 -9 49 -9q41 0 41 32t-39 32h-36v113h139v-145q0 -48 -28 -72.5t-72 -24.5q-33 0 -68 11z" />
    <glyph glyph-name="Ncaron" unicode="&#x147;" horiz-adv-x="795" 
d="M203 607v-607h-135v700h233l291 -607v607h135v-700h-233zM361 781l-130 113v16h123l44 -59l44 59h124v-16l-131 -113h-74z" />
    <glyph glyph-name="ncaron" unicode="&#x148;" horiz-adv-x="565" 
d="M189 0h-128v474h128v-62q47 72 144 72q78 0 124.5 -46.5t46.5 -127.5v-310h-128v275q0 49 -24 77t-65 28q-44 0 -71 -31.5t-27 -86.5v-262zM266 555l-130 113v16h123l44 -59l44 59h124v-16l-131 -113h-74z" />
    <glyph glyph-name="Eng" unicode="&#x14a;" horiz-adv-x="795" 
d="M295 -66l118 40q19 -70 95 -70q40 0 62 25t22 71h-98l-291 607v-607h-135v700h233l291 -607v607h135v-669q0 -115 -54.5 -177t-160.5 -62q-88 0 -143.5 37t-73.5 105z" />
    <glyph glyph-name="eng" unicode="&#x14b;" horiz-adv-x="565" 
d="M195 -101l111 35q5 -38 37 -38q33 0 33 43v336q0 49 -24 77t-65 28q-44 0 -71 -31.5t-27 -85.5v-263h-128v474h128v-62q47 72 144 72q78 0 124.5 -46.5t46.5 -127.5v-362q0 -74 -41 -115t-121 -41q-60 0 -98.5 28t-48.5 79z" />
    <glyph glyph-name="Omacron" unicode="&#x14c;" horiz-adv-x="815" 
d="M408 710q150 3 260 -105t107 -255q3 -148 -107 -255.5t-260 -104.5q-150 -4 -260.5 104.5t-107.5 255.5q-3 147 107.5 255t260.5 105zM408 118q97 0 163.5 64.5t66.5 167.5t-66 168t-164 65t-164 -65t-66 -168t66.5 -167.5t163.5 -64.5zM275 886h266v-90h-266v90z" />
    <glyph glyph-name="omacron" unicode="&#x14d;" horiz-adv-x="564" 
d="M34 237q0 107 70 177t178 70t178 -70t70 -177q0 -106 -70.5 -176.5t-177.5 -70.5t-177.5 70.5t-70.5 176.5zM405 237q0 59 -34.5 95.5t-88.5 36.5t-88.5 -36.5t-34.5 -95.5t34.5 -95.5t88.5 -36.5t88.5 36.5t34.5 95.5zM149 660h266v-90h-266v90z" />
    <glyph glyph-name="Obreve" unicode="&#x14e;" horiz-adv-x="815" 
d="M408 710q150 3 260 -105t107 -255q3 -148 -107 -255.5t-260 -104.5q-150 -4 -260.5 104.5t-107.5 255.5q-3 147 107.5 255t260.5 105zM408 118q97 0 163.5 64.5t66.5 167.5t-66 168t-164 65t-164 -65t-66 -168t66.5 -167.5t163.5 -64.5zM538 892q0 -53 -37 -84t-93 -31
t-92.5 31t-36.5 84q0 11 1 14h86l-1 -9q0 -17 12 -28.5t31 -11.5q20 0 31.5 11t11.5 29l-1 9h87q1 -3 1 -14z" />
    <glyph glyph-name="obreve" unicode="&#x14f;" horiz-adv-x="564" 
d="M34 237q0 107 70 177t178 70t178 -70t70 -177q0 -106 -70.5 -176.5t-177.5 -70.5t-177.5 70.5t-70.5 176.5zM405 237q0 59 -34.5 95.5t-88.5 36.5t-88.5 -36.5t-34.5 -95.5t34.5 -95.5t88.5 -36.5t88.5 36.5t34.5 95.5zM412 666q0 -53 -37 -84t-93 -31t-92.5 31t-36.5 84
q0 11 1 14h86l-1 -9q0 -17 12 -28.5t31 -11.5q20 0 31.5 11t11.5 29l-1 9h87q1 -3 1 -14z" />
    <glyph glyph-name="Ohungarumlaut" unicode="&#x150;" horiz-adv-x="815" 
d="M408 710q150 3 260 -105t107 -255q3 -148 -107 -255.5t-260 -104.5q-150 -4 -260.5 104.5t-107.5 255.5q-3 147 107.5 255t260.5 105zM408 118q97 0 163.5 64.5t66.5 167.5t-66 168t-164 65t-164 -65t-66 -168t66.5 -167.5t163.5 -64.5zM247 781l85 133h157v-16
l-129 -117h-113zM458 781l85 133h157v-16l-129 -117h-113z" />
    <glyph glyph-name="ohungarumlaut" unicode="&#x151;" horiz-adv-x="564" 
d="M34 237q0 107 70 177t178 70t178 -70t70 -177q0 -106 -70.5 -176.5t-177.5 -70.5t-177.5 70.5t-70.5 176.5zM405 237q0 59 -34.5 95.5t-88.5 36.5t-88.5 -36.5t-34.5 -95.5t34.5 -95.5t88.5 -36.5t88.5 36.5t34.5 95.5zM121 555l85 133h157v-16l-129 -117h-113zM332 555
l85 133h157v-16l-129 -117h-113z" />
    <glyph glyph-name="OE" unicode="&#x152;" horiz-adv-x="1217" 
d="M40 350q-3 146 107 254.5t259 105.5q145 0 232 -97v87h525v-127h-390v-150h360v-125h-360v-173h400v-125h-535v88q-86 -98 -232 -98q-98 -2 -183.5 47t-135 133t-47.5 180zM638 350q0 103 -66 168t-164 65t-164 -65t-66 -168t66.5 -167.5t163.5 -64.5q99 0 164.5 64.5
t65.5 167.5z" />
    <glyph glyph-name="oe" unicode="&#x153;" horiz-adv-x="903" 
d="M34 236q0 108 69.5 178t177.5 70q120 0 183 -90q68 90 176 90q100 0 159 -58q60 -57 60 -155q0 -31 -6 -58h-323q1 -52 37 -83t89 -31q88 0 110 82l109 -43q-25 -71 -81.5 -109.5t-138.5 -38.5q-127 0 -188 90q-67 -90 -186 -90q-108 0 -177.5 70t-69.5 176zM530 298h204
l1 4q0 36 -26.5 57.5t-69.5 21.5q-40 0 -70 -22.5t-39 -60.5zM403 236q0 59 -34 96t-88 37t-88 -37t-34 -96t34 -95t88 -36t88 36t34 95z" />
    <glyph glyph-name="Racute" unicode="&#x154;" horiz-adv-x="689" 
d="M648 0h-158q-14 27 -18 60q-5 37 -5 100q0 118 -114 118h-150v-278h-135v700h343q106 0 168 -55.5t62 -141.5q0 -63 -37.5 -112.5t-100.5 -72.5q103 -34 109 -156q3 -62 10 -92.5t26 -53.5v-16zM203 403h200q49 0 76 23.5t27 63.5t-26.5 62.5t-76.5 22.5h-200v-172z
M252 781l85 133h157v-16l-129 -117h-113z" />
    <glyph glyph-name="racute" unicode="&#x155;" horiz-adv-x="471" 
d="M61 474h128v-61q32 71 114 71q63 0 99.5 -39t36.5 -101q0 -32 -7 -59h-121q4 15 4 36q0 26 -16.5 42.5t-43.5 16.5q-30 0 -48 -19.5t-18 -55.5v-305h-128v474zM215 555l85 133h157v-16l-129 -117h-113z" />
    <glyph glyph-name="Rcommaaccent" unicode="&#x156;" horiz-adv-x="689" 
d="M648 0h-158q-14 27 -18 60q-5 37 -5 100q0 118 -114 118h-150v-278h-135v700h343q106 0 168 -55.5t62 -141.5q0 -63 -37.5 -112.5t-100.5 -72.5q103 -34 109 -156q3 -62 10 -92.5t26 -53.5v-16zM203 403h200q49 0 76 23.5t27 63.5t-26.5 62.5t-76.5 22.5h-200v-172z
M249 -283l14 63q23 -9 49 -9q41 0 41 32t-39 32h-36v113h139v-145q0 -48 -28 -72.5t-72 -24.5q-33 0 -68 11z" />
    <glyph glyph-name="rcommaaccent" unicode="&#x157;" horiz-adv-x="471" 
d="M61 474h128v-61q32 71 114 71q63 0 99.5 -39t36.5 -101q0 -32 -7 -59h-121q4 15 4 36q0 26 -16.5 42.5t-43.5 16.5q-30 0 -48 -19.5t-18 -55.5v-305h-128v474zM26 -283l14 63q22 -9 49 -9q41 0 41 32t-39 32h-36v113h139v-145q0 -48 -28 -72.5t-72 -24.5q-33 0 -68 11z
" />
    <glyph glyph-name="Rcaron" unicode="&#x158;" horiz-adv-x="689" 
d="M648 0h-158q-14 27 -18 60q-5 37 -5 100q0 118 -114 118h-150v-278h-135v700h343q106 0 168 -55.5t62 -141.5q0 -63 -37.5 -112.5t-100.5 -72.5q103 -34 109 -156q3 -62 10 -92.5t26 -53.5v-16zM203 403h200q49 0 76 23.5t27 63.5t-26.5 62.5t-76.5 22.5h-200v-172z
M271 781l-130 113v16h123l44 -59l44 59h124v-16l-131 -113h-74z" />
    <glyph glyph-name="rcaron" unicode="&#x159;" horiz-adv-x="471" 
d="M61 474h128v-61q32 71 114 71q63 0 99.5 -39t36.5 -101q0 -32 -7 -59h-121q4 15 4 36q0 26 -16.5 42.5t-43.5 16.5q-30 0 -48 -19.5t-18 -55.5v-305h-128v474zM234 555l-130 113v16h123l44 -59l44 59h124v-16l-131 -113h-74z" />
    <glyph glyph-name="Sacute" unicode="&#x15a;" horiz-adv-x="652" 
d="M321 590q-50 0 -80 -21t-30 -54q0 -40 41.5 -64.5t121.5 -39.5q130 -24 188.5 -72t58.5 -137q0 -93 -76.5 -152.5t-202.5 -59.5q-104 0 -192 48q-88 50 -129 165l120 75q21 -81 73.5 -123t130.5 -42q63 0 101 23t38 61q0 40 -36 63t-124 37q-248 38 -248 219q0 82 71 138
t182 56q94 0 163.5 -45t98.5 -127l-117 -68q-33 120 -153 120zM270 781l85 133h157v-16l-129 -117h-113z" />
    <glyph glyph-name="sacute" unicode="&#x15b;" horiz-adv-x="476" 
d="M26 117l100 53q33 -75 119 -75q36 0 56.5 12.5t20.5 33.5q0 25 -24 39t-86 23q-162 25 -162 142q0 60 53.5 99.5t127.5 39.5q134 0 180 -100l-97 -53q-18 54 -80 54q-29 0 -48 -11.5t-19 -29.5q0 -21 22.5 -32t82.5 -20q90 -14 129.5 -49.5t39.5 -99.5q0 -66 -57 -109.5
t-143 -43.5q-163 0 -215 127zM175 555l85 133h157v-16l-129 -117h-113z" />
    <glyph glyph-name="Scircumflex" unicode="&#x15c;" horiz-adv-x="652" 
d="M321 590q-50 0 -80 -21t-30 -54q0 -40 41.5 -64.5t121.5 -39.5q130 -24 188.5 -72t58.5 -137q0 -93 -76.5 -152.5t-202.5 -59.5q-104 0 -192 48q-88 50 -129 165l120 75q21 -81 73.5 -123t130.5 -42q63 0 101 23t38 61q0 40 -36 63t-124 37q-248 38 -248 219q0 82 71 138
t182 56q94 0 163.5 -45t98.5 -127l-117 -68q-33 120 -153 120zM159 781v16l130 113h74l131 -113v-16h-124l-44 59l-44 -59h-123z" />
    <glyph glyph-name="scircumflex" unicode="&#x15d;" horiz-adv-x="476" 
d="M26 117l100 53q33 -75 119 -75q36 0 56.5 12.5t20.5 33.5q0 25 -24 39t-86 23q-162 25 -162 142q0 60 53.5 99.5t127.5 39.5q134 0 180 -100l-97 -53q-18 54 -80 54q-29 0 -48 -11.5t-19 -29.5q0 -21 22.5 -32t82.5 -20q90 -14 129.5 -49.5t39.5 -99.5q0 -66 -57 -109.5
t-143 -43.5q-163 0 -215 127zM64 555v16l130 113h74l131 -113v-16h-124l-44 59l-44 -59h-123z" />
    <glyph glyph-name="Scedilla" unicode="&#x15e;" horiz-adv-x="652" 
d="M321 590q-50 0 -80 -21t-30 -54q0 -40 41.5 -64.5t121.5 -39.5q130 -24 188.5 -72t58.5 -137q0 -93 -76.5 -152.5t-202.5 -59.5q-104 0 -192 48q-88 50 -129 165l120 75q21 -81 73.5 -123t130.5 -42q63 0 101 23t38 61q0 40 -36 63t-124 37q-248 38 -248 219q0 82 71 138
t182 56q94 0 163.5 -45t98.5 -127l-117 -68q-33 120 -153 120zM342 -48q20 18 45 18q36 0 58 -20.5t22 -56.5t-24 -58.5t-63 -22.5q-79 0 -91 65l60 15q2 -26 30 -26q13 0 21 7.5t8 19.5q0 27 -29 27q-20 0 -29 -15l-59 11q13 50 20 100h60q-12 -37 -29 -64z" />
    <glyph glyph-name="scedilla" unicode="&#x15f;" horiz-adv-x="476" 
d="M26 117l100 53q33 -75 119 -75q36 0 56.5 12.5t20.5 33.5q0 25 -24 39t-86 23q-162 25 -162 142q0 60 53.5 99.5t127.5 39.5q134 0 180 -100l-97 -53q-18 54 -80 54q-29 0 -48 -11.5t-19 -29.5q0 -21 22.5 -32t82.5 -20q90 -14 129.5 -49.5t39.5 -99.5q0 -66 -57 -109.5
t-143 -43.5q-163 0 -215 127zM217 -48q20 18 45 18q36 0 58 -20.5t22 -56.5t-24 -58.5t-63 -22.5q-79 0 -91 65l60 15q2 -26 30 -26q13 0 21 7.5t8 19.5q0 27 -29 27q-20 0 -29 -15l-59 11q13 50 20 100h60q-12 -37 -29 -64z" />
    <glyph glyph-name="Scaron" unicode="&#x160;" horiz-adv-x="652" 
d="M321 590q-50 0 -80 -21t-30 -54q0 -40 41.5 -64.5t121.5 -39.5q130 -24 188.5 -72t58.5 -137q0 -93 -76.5 -152.5t-202.5 -59.5q-104 0 -192 48q-88 50 -129 165l120 75q21 -81 73.5 -123t130.5 -42q63 0 101 23t38 61q0 40 -36 63t-124 37q-248 38 -248 219q0 82 71 138
t182 56q94 0 163.5 -45t98.5 -127l-117 -68q-33 120 -153 120zM289 781l-130 113v16h123l44 -59l44 59h124v-16l-131 -113h-74z" />
    <glyph glyph-name="scaron" unicode="&#x161;" horiz-adv-x="476" 
d="M26 117l100 53q33 -75 119 -75q36 0 56.5 12.5t20.5 33.5q0 25 -24 39t-86 23q-162 25 -162 142q0 60 53.5 99.5t127.5 39.5q134 0 180 -100l-97 -53q-18 54 -80 54q-29 0 -48 -11.5t-19 -29.5q0 -21 22.5 -32t82.5 -20q90 -14 129.5 -49.5t39.5 -99.5q0 -66 -57 -109.5
t-143 -43.5q-163 0 -215 127zM194 555l-130 113v16h123l44 -59l44 59h124v-16l-131 -113h-74z" />
    <glyph glyph-name="uni0162" unicode="&#x162;" horiz-adv-x="680" 
d="M655 700v-125h-247v-575h-135v575h-248v125h630zM345 -48q20 18 45 18q36 0 58 -20.5t22 -56.5t-24 -58.5t-63 -22.5q-79 0 -91 65l60 15q2 -26 30 -26q13 0 21 7.5t8 19.5q0 27 -29 27q-20 0 -29 -15l-59 11q13 50 20 100h60q-12 -37 -29 -64z" />
    <glyph glyph-name="uni0163" unicode="&#x163;" horiz-adv-x="493" 
d="M115 160v209h-98v105h98v156h127v-156h178v-105h-178v-209q0 -27 15 -42t39 -15q50 0 56 66l118 -22q-10 -75 -56 -116t-121 -41q-85 0 -131.5 45.5t-46.5 124.5zM263 -48q20 18 45 18q36 0 58 -20.5t22 -56.5t-24 -58.5t-63 -22.5q-79 0 -91 65l60 15q2 -26 30 -26
q13 0 21 7.5t8 19.5q0 27 -29 27q-20 0 -29 -15l-59 11q13 50 20 100h60q-12 -37 -29 -64z" />
    <glyph glyph-name="Tcaron" unicode="&#x164;" horiz-adv-x="680" 
d="M655 700v-125h-247v-575h-135v575h-248v125h630zM303 781l-130 113v16h123l44 -59l44 59h124v-16l-131 -113h-74z" />
    <glyph glyph-name="tcaron" unicode="&#x165;" horiz-adv-x="493" 
d="M115 160v209h-98v105h98v156h127v-156h178v-105h-178v-209q0 -27 15 -42t39 -15q50 0 56 66l118 -22q-10 -75 -56 -116t-121 -41q-85 0 -131.5 45.5t-46.5 124.5zM284 515v62h38q44 0 44 33q0 32 -39 32h-36v115h140v-142q0 -49 -31 -74.5t-79 -25.5h-37z" />
    <glyph glyph-name="Tbar" unicode="&#x166;" horiz-adv-x="680" 
d="M655 700v-125h-247v-575h-135v575h-248v125h630zM133 404h414v-108h-414v108z" />
    <glyph glyph-name="tbar" unicode="&#x167;" horiz-adv-x="493" 
d="M115 160v209h-98v105h98v156h127v-156h178v-105h-178v-209q0 -27 15 -42t39 -15q50 0 56 66l118 -22q-10 -75 -56 -116t-121 -41q-85 0 -131.5 45.5t-46.5 124.5zM33 309h323v-96h-323v96z" />
    <glyph glyph-name="Utilde" unicode="&#x168;" horiz-adv-x="709" 
d="M61 700h135v-414q0 -80 43 -125.5t116 -45.5t115.5 45.5t42.5 125.5v414h135v-417q0 -133 -79.5 -213t-213.5 -80q-135 0 -214.5 80t-79.5 213v417zM337 807q-19 19 -35 19q-28 0 -28 -31q0 -3 2 -13l-84 11q0 3 -0.5 6.5t-1.5 5.5v2q0 45 28.5 74t73.5 29q44 0 81 -32
q20 -18 35 -18q29 0 29 30q0 4 -2 14l84 -12q1 -3 1 -14q0 -45 -28.5 -74t-73.5 -29q-44 0 -81 32z" />
    <glyph glyph-name="utilde" unicode="&#x169;" horiz-adv-x="572" 
d="M384 474h127v-474h-127v70q-19 -37 -56.5 -58.5t-87.5 -21.5q-83 0 -131 47.5t-48 135.5v301h128v-269q0 -51 22.5 -78t64.5 -27q51 0 79.5 35t28.5 95v244zM269 581q-19 19 -35 19q-28 0 -28 -31q0 -3 2 -13l-84 11q0 3 -0.5 6.5t-1.5 5.5v2q0 45 28.5 74t73.5 29
q44 0 81 -32q19 -18 35 -18q29 0 29 30q0 4 -2 14l84 -12q1 -3 1 -14q0 -45 -28.5 -74t-73.5 -29q-44 0 -81 32z" />
    <glyph glyph-name="Umacron" unicode="&#x16a;" horiz-adv-x="709" 
d="M61 700h135v-414q0 -80 43 -125.5t116 -45.5t115.5 45.5t42.5 125.5v414h135v-417q0 -133 -79.5 -213t-213.5 -80q-135 0 -214.5 80t-79.5 213v417zM222 886h266v-90h-266v90z" />
    <glyph glyph-name="umacron" unicode="&#x16b;" horiz-adv-x="572" 
d="M384 474h127v-474h-127v70q-19 -37 -56.5 -58.5t-87.5 -21.5q-83 0 -131 47.5t-48 135.5v301h128v-269q0 -51 22.5 -78t64.5 -27q51 0 79.5 35t28.5 95v244zM154 660h266v-90h-266v90z" />
    <glyph glyph-name="Ubreve" unicode="&#x16c;" horiz-adv-x="709" 
d="M61 700h135v-414q0 -80 43 -125.5t116 -45.5t115.5 45.5t42.5 125.5v414h135v-417q0 -133 -79.5 -213t-213.5 -80q-135 0 -214.5 80t-79.5 213v417zM485 892q0 -53 -37 -84t-93 -31t-92.5 31t-36.5 84q0 11 1 14h86l-1 -9q0 -17 12 -28.5t31 -11.5q20 0 31.5 11t11.5 29
l-1 9h87q1 -3 1 -14z" />
    <glyph glyph-name="ubreve" unicode="&#x16d;" horiz-adv-x="572" 
d="M384 474h127v-474h-127v70q-19 -37 -56.5 -58.5t-87.5 -21.5q-83 0 -131 47.5t-48 135.5v301h128v-269q0 -51 22.5 -78t64.5 -27q51 0 79.5 35t28.5 95v244zM417 666q0 -53 -37 -84t-93 -31t-92.5 31t-36.5 84q0 11 1 14h86l-1 -9q0 -17 12 -28.5t31 -11.5q20 0 31.5 11
t11.5 29l-1 9h87q1 -3 1 -14z" />
    <glyph glyph-name="Uring" unicode="&#x16e;" horiz-adv-x="709" 
d="M61 700h135v-414q0 -80 43 -125.5t116 -45.5t115.5 45.5t42.5 125.5v414h135v-417q0 -133 -79.5 -213t-213.5 -80q-135 0 -214.5 80t-79.5 213v417zM257 853q0 41 28.5 69.5t69.5 28.5t69.5 -28.5t28.5 -69.5t-28.5 -69.5t-69.5 -28.5t-69.5 29t-28.5 69zM387 853
q0 13 -9.5 22.5t-22.5 9.5t-22.5 -9.5t-9.5 -22.5t9.5 -22.5t22.5 -9.5t22.5 9.5t9.5 22.5z" />
    <glyph glyph-name="uring" unicode="&#x16f;" horiz-adv-x="572" 
d="M384 474h127v-474h-127v70q-19 -37 -56.5 -58.5t-87.5 -21.5q-83 0 -131 47.5t-48 135.5v301h128v-269q0 -51 22.5 -78t64.5 -27q51 0 79.5 35t28.5 95v244zM189 627q0 41 28.5 69.5t69.5 28.5t69.5 -28.5t28.5 -69.5t-28.5 -69.5t-69.5 -28.5t-69.5 29t-28.5 69z
M319 627q0 13 -9.5 22.5t-22.5 9.5t-22.5 -9.5t-9.5 -22.5t9.5 -22.5t22.5 -9.5t22.5 9.5t9.5 22.5z" />
    <glyph glyph-name="Uhungarumlaut" unicode="&#x170;" horiz-adv-x="709" 
d="M61 700h135v-414q0 -80 43 -125.5t116 -45.5t115.5 45.5t42.5 125.5v414h135v-417q0 -133 -79.5 -213t-213.5 -80q-135 0 -214.5 80t-79.5 213v417zM194 781l85 133h157v-16l-129 -117h-113zM405 781l85 133h157v-16l-129 -117h-113z" />
    <glyph glyph-name="uhungarumlaut" unicode="&#x171;" horiz-adv-x="572" 
d="M384 474h127v-474h-127v70q-19 -37 -56.5 -58.5t-87.5 -21.5q-83 0 -131 47.5t-48 135.5v301h128v-269q0 -51 22.5 -78t64.5 -27q51 0 79.5 35t28.5 95v244zM126 555l85 133h157v-16l-129 -117h-113zM337 555l85 133h157v-16l-129 -117h-113z" />
    <glyph glyph-name="Uogonek" unicode="&#x172;" horiz-adv-x="709" 
d="M61 700h135v-414q0 -80 43 -125.5t116 -45.5t115.5 45.5t42.5 125.5v414h135v-417q0 -133 -79.5 -213t-213.5 -80q-135 0 -214.5 80t-79.5 213v417zM373 -193q-42 0 -68.5 24.5t-26.5 63.5q0 64 71 105h69q-52 -39 -52 -70q0 -30 31 -30q14 0 31 11l36 -78
q-44 -26 -91 -26z" />
    <glyph glyph-name="uogonek" unicode="&#x173;" horiz-adv-x="572" 
d="M384 474h127v-474h-127v70q-19 -37 -56.5 -58.5t-87.5 -21.5q-83 0 -131 47.5t-48 135.5v301h128v-269q0 -51 22.5 -78t64.5 -27q51 0 79.5 35t28.5 95v244zM466 -193q-42 0 -68.5 24.5t-26.5 63.5q0 64 71 105h69q-52 -39 -52 -70q0 -30 31 -30q14 0 31 11l36 -78
q-44 -26 -91 -26z" />
    <glyph glyph-name="Wcircumflex" unicode="&#x174;" horiz-adv-x="1022" 
d="M159 0l-148 700h140l120 -610l125 610h230l125 -610l120 610h140l-147 -700h-225l-128 610l-127 -610h-225zM344 781v16l130 113h74l131 -113v-16h-124l-44 59l-44 -59h-123z" />
    <glyph glyph-name="wcircumflex" unicode="&#x175;" horiz-adv-x="775" 
d="M143 474l87 -354l83 354h150l82 -354l88 354h127l-130 -474h-165l-77 308l-78 -308h-165l-130 474h128zM221 555v16l130 113h74l131 -113v-16h-124l-44 59l-44 -59h-123z" />
    <glyph glyph-name="Ycircumflex" unicode="&#x176;" horiz-adv-x="692" 
d="M171 700l175 -296l185 296h150l-267 -422v-278h-135v278l-268 422h160zM179 781v16l130 113h74l131 -113v-16h-124l-44 59l-44 -59h-123z" />
    <glyph glyph-name="ycircumflex" unicode="&#x177;" horiz-adv-x="533" 
d="M392 474h130l-323 -672h-130l127 265l-190 407h134l122 -270zM98 555v16l130 113h74l131 -113v-16h-124l-44 59l-44 -59h-123z" />
    <glyph glyph-name="Ydieresis" unicode="&#x178;" horiz-adv-x="692" 
d="M171 700l175 -296l185 296h150l-267 -422v-278h-135v278l-268 422h160zM187 785v129h127v-129h-127zM379 785v129h127v-129h-127z" />
    <glyph glyph-name="Zacute" unicode="&#x179;" horiz-adv-x="714" 
d="M48 125l433 450h-428v125h606v-125l-433 -450h438v-125h-616v125zM299 781l85 133h157v-16l-129 -117h-113z" />
    <glyph glyph-name="zacute" unicode="&#x17a;" horiz-adv-x="508" 
d="M466 0h-428v110l260 254h-252v110h413v-105l-261 -254h268v-115zM196 555l85 133h157v-16l-129 -117h-113z" />
    <glyph glyph-name="Zdotaccent" unicode="&#x17b;" horiz-adv-x="714" 
d="M48 125l433 450h-428v125h606v-125l-433 -450h438v-125h-616v125zM291 916h129v-130h-129v130z" />
    <glyph glyph-name="zdotaccent" unicode="&#x17c;" horiz-adv-x="508" 
d="M466 0h-428v110l260 254h-252v110h413v-105l-261 -254h268v-115zM184 545v135h137v-135h-137z" />
    <glyph glyph-name="Zcaron" unicode="&#x17d;" horiz-adv-x="714" 
d="M48 125l433 450h-428v125h606v-125l-433 -450h438v-125h-616v125zM318 781l-130 113v16h123l44 -59l44 59h124v-16l-131 -113h-74z" />
    <glyph glyph-name="zcaron" unicode="&#x17e;" horiz-adv-x="508" 
d="M466 0h-428v110l260 254h-252v110h413v-105l-261 -254h268v-115zM215 555l-130 113v16h123l44 -59l44 59h124v-16l-131 -113h-74z" />
    <glyph glyph-name="florin" unicode="&#x192;" horiz-adv-x="522" 
d="M33 72l104 64q11 -33 41 -33q38 0 38 48v218h-110v105h110v66q0 78 49 124t131 46q89 0 135.5 -41t46.5 -113q0 -20 -1 -26h-120q2 10 2 19q0 24 -15.5 39t-42.5 15t-42.5 -16.5t-15.5 -45.5v-67h125v-105h-125v-219q0 -76 -43 -118t-113 -42q-58 0 -94.5 19t-59.5 63z
" />
    <glyph glyph-name="uni01B5" unicode="&#x1b5;" horiz-adv-x="600" 
d="M226 125h438v-125h-616v125l166 173h-144v105h245l166 172h-428v125h606v-125l-166 -172h119v-105h-220z" />
    <glyph glyph-name="uni01B6" unicode="&#x1b6;" horiz-adv-x="508" 
d="M38 0v110l89 87h-48v86h137l82 81h-252v110h413v-105l-88 -86h41v-86h-130l-84 -82h268v-115h-428z" />
    <glyph glyph-name="Aringacute" unicode="&#x1fa;" horiz-adv-x="776" 
d="M11 0l282 700h191l281 -700h-149l-61 158h-334l-60 -158h-150zM268 280h241l-121 313zM290 853q0 41 28.5 69.5t69.5 28.5t69.5 -28.5t28.5 -69.5t-28.5 -69.5t-69.5 -28.5t-69.5 29t-28.5 69zM420 853q0 13 -9.5 22.5t-22.5 9.5t-22.5 -9.5t-9.5 -22.5t9.5 -22.5
t22.5 -9.5t22.5 9.5t9.5 22.5zM332 929l85 133h157v-16l-129 -117h-113z" />
    <glyph glyph-name="aringacute" unicode="&#x1fb;" horiz-adv-x="532" 
d="M41 137q0 74 49.5 113t135.5 39q44 0 81 -10l42 -10v30q0 40 -26 62.5t-71 22.5q-85 0 -103 -79l-111 30q19 70 74.5 109.5t140.5 39.5q107 0 162.5 -49t55.5 -143v-292h-117v73q-47 -83 -157 -83q-64 0 -110 40.5t-46 106.5zM349 175v4l-29 9q-47 14 -74 14
q-75 0 -75 -57t77 -57q45 0 73 23t28 64zM156 627q0 41 28.5 69.5t69.5 28.5t69.5 -28.5t28.5 -69.5t-28.5 -69.5t-69.5 -28.5t-69.5 29t-28.5 69zM286 627q0 13 -9.5 22.5t-22.5 9.5t-22.5 -9.5t-9.5 -22.5t9.5 -22.5t22.5 -9.5t22.5 9.5t9.5 22.5zM194 691l85 133h157v-16
l-129 -117h-113z" />
    <glyph glyph-name="AEacute" unicode="&#x1fc;" horiz-adv-x="989" 
d="M593 125h352v-125h-487v158h-215l-82 -158h-150l365 700h559v-127h-342v-150h312v-125h-312v-173zM458 280v293l-152 -293h152zM598 781l85 133h157v-16l-129 -117h-113z" />
    <glyph glyph-name="aeacute" unicode="&#x1fd;" horiz-adv-x="853" 
d="M41 137q0 73 49 111.5t135 38.5h129v10q0 40 -28 63.5t-76 23.5q-44 0 -71 -20.5t-34 -56.5l-106 29q18 72 72.5 110t139.5 38q123 0 178 -73q57 73 160 73q99 0 159.5 -58t60.5 -155q0 -31 -6 -58h-322q1 -52 36.5 -83t88.5 -31q86 0 110 82l109 -43q-25 -70 -82 -109
t-139 -39q-67 0 -116.5 28.5t-71.5 77.5q-65 -106 -206 -106q-72 0 -120.5 42t-48.5 105zM481 298h203l1 4q0 36 -26.5 57.5t-69.5 21.5q-40 0 -69.5 -22.5t-38.5 -60.5zM354 183v24h-104q-37 0 -59 -15.5t-22 -44.5q0 -57 74 -57q51 0 81 26t30 67zM373 555l85 133h157v-16
l-129 -117h-113z" />
    <glyph glyph-name="Scommaaccent" unicode="&#x218;" horiz-adv-x="652" 
d="M321 590q-50 0 -80 -21t-30 -54q0 -40 41.5 -64.5t121.5 -39.5q130 -24 188.5 -72t58.5 -137q0 -93 -76.5 -152.5t-202.5 -59.5q-104 0 -192 48q-88 50 -129 165l120 75q21 -81 73.5 -123t130.5 -42q63 0 101 23t38 61q0 40 -36 63t-124 37q-248 38 -248 219q0 82 71 138
t182 56q94 0 163.5 -45t98.5 -127l-117 -68q-33 120 -153 120zM238 -283l14 63q22 -9 49 -9q41 0 41 32t-39 32h-36v113h139v-145q0 -48 -28 -72.5t-72 -24.5q-33 0 -68 11z" />
    <glyph glyph-name="scommaaccent" unicode="&#x219;" horiz-adv-x="476" 
d="M26 117l100 53q33 -75 119 -75q36 0 56.5 12.5t20.5 33.5q0 25 -24 39t-86 23q-162 25 -162 142q0 60 53.5 99.5t127.5 39.5q134 0 180 -100l-97 -53q-18 54 -80 54q-29 0 -48 -11.5t-19 -29.5q0 -21 22.5 -32t82.5 -20q90 -14 129.5 -49.5t39.5 -99.5q0 -66 -57 -109.5
t-143 -43.5q-163 0 -215 127zM141 -283l14 63q23 -9 49 -9q41 0 41 32t-39 32h-36v113h139v-145q0 -48 -28 -72.5t-72 -24.5q-33 0 -68 11z" />
    <glyph glyph-name="uni021A" unicode="&#x21a;" horiz-adv-x="680" 
d="M655 700v-125h-247v-575h-135v575h-248v125h630zM241 -283l14 63q23 -9 49 -9q41 0 41 32t-39 32h-36v113h139v-145q0 -48 -28 -72.5t-72 -24.5q-33 0 -68 11z" />
    <glyph glyph-name="uni021B" unicode="&#x21b;" horiz-adv-x="493" 
d="M115 160v209h-98v105h98v156h127v-156h178v-105h-178v-209q0 -27 15 -42t39 -15q50 0 56 66l118 -22q-10 -75 -56 -116t-121 -41q-85 0 -131.5 45.5t-46.5 124.5zM192 -283l14 63q22 -9 49 -9q41 0 41 32t-39 32h-36v113h139v-145q0 -48 -28 -72.5t-72 -24.5
q-33 0 -68 11z" />
    <glyph glyph-name="uni0237" unicode="&#x237;" horiz-adv-x="250" 
d="M61 -198v672h128v-672h-128z" />
    <glyph glyph-name="circumflex" unicode="&#x2c6;" horiz-adv-x="420" 
d="M43 555v16l130 113h74l131 -113v-16h-124l-44 59l-44 -59h-123z" />
    <glyph glyph-name="caron" unicode="&#x2c7;" horiz-adv-x="420" 
d="M173 555l-130 113v16h123l44 -59l44 59h124v-16l-131 -113h-74z" />
    <glyph glyph-name="uni02C9" unicode="&#x2c9;" horiz-adv-x="380" 
d="M57 660h266v-90h-266v90z" />
    <glyph glyph-name="breve" unicode="&#x2d8;" horiz-adv-x="358" 
d="M309 666q0 -53 -37 -84t-93 -31t-92.5 31t-36.5 84q0 11 1 14h86l-1 -9q0 -17 12 -28.5t31 -11.5q20 0 31.5 11t11.5 29l-1 9h87q1 -3 1 -14z" />
    <glyph glyph-name="dotaccent" unicode="&#x2d9;" horiz-adv-x="245" 
d="M54 545v135h137v-135h-137z" />
    <glyph glyph-name="ring" unicode="&#x2da;" horiz-adv-x="285" 
d="M142 720q39 0 66 -27t27 -66q0 -38 -27 -65t-66 -27q-37 0 -64.5 27.5t-27.5 64.5q0 39 27 66t65 27zM142 600q12 0 20 8t8 19q0 12 -8 20t-20 8q-11 0 -19 -8t-8 -20q0 -11 8 -19t19 -8z" />
    <glyph glyph-name="ogonek" unicode="&#x2db;" horiz-adv-x="317" 
d="M159 -175q-42 0 -68.5 24t-26.5 61q0 64 71 105h68q-50 -38 -50 -68t30 -30q14 0 31 11l36 -77q-42 -26 -91 -26z" />
    <glyph glyph-name="tilde" unicode="&#x2dc;" horiz-adv-x="422" 
d="M193 581q-19 19 -35 19q-29 0 -29 -32q0 -5 2 -13l-84 11l-1 13q0 47 29.5 76t74.5 29q42 0 78 -33q22 -19 36 -19q13 0 21 8.5t8 23.5q0 4 -2 14l84 -12l1 -13q0 -45 -28.5 -74.5t-73.5 -29.5q-29 0 -45 7t-36 25z" />
    <glyph glyph-name="hungarumlaut" unicode="&#x2dd;" horiz-adv-x="526" 
d="M37 555l85 133h157v-16l-129 -117h-113zM248 555l85 133h157v-16l-129 -117h-113z" />
    <glyph glyph-name="gravecomb" unicode="&#x300;" 
d="M-173 555l-129 117v16h157l85 -133h-113z" />
    <glyph glyph-name="acutecomb" unicode="&#x301;" 
d="M-302 555l85 133h157v-16l-129 -117h-113z" />
    <glyph glyph-name="uni0302" unicode="&#x302;" 
d="M-377 555v16l130 113h74l131 -113v-16h-124l-44 59l-44 -59h-123z" />
    <glyph glyph-name="tildecomb" unicode="&#x303;" 
d="M-229 581q-19 19 -35 19q-28 0 -28 -31q0 -3 2 -13l-84 11q0 3 -0.5 6.5t-1.5 5.5v2q0 45 28.5 74t73.5 29q44 0 81 -32q19 -18 35 -18q29 0 29 30q0 4 -2 14l84 -12q1 -3 1 -14q0 -45 -28.5 -74t-73.5 -29q-44 0 -81 32z" />
    <glyph glyph-name="uni0304" unicode="&#x304;" 
d="M-323 660h266v-90h-266v90z" />
    <glyph glyph-name="uni0306" unicode="&#x306;" 
d="M-49 666q0 -53 -37 -84t-93 -31t-92.5 31t-36.5 84q0 11 1 14h86l-1 -9q0 -17 12 -28.5t31 -11.5q20 0 31.5 11t11.5 29l-1 9h87q1 -3 1 -14z" />
    <glyph glyph-name="uni0307" unicode="&#x307;" 
d="M-191 545v135h137v-135h-137z" />
    <glyph glyph-name="uni0308" unicode="&#x308;" 
d="M-359 559v129h127v-129h-127zM-167 559v129h127v-129h-127z" />
    <glyph glyph-name="uni030A" unicode="&#x30a;" 
d="M-241 627q0 41 28.5 69.5t69.5 28.5t69.5 -28.5t28.5 -69.5t-28.5 -69.5t-69.5 -28.5t-69.5 29t-28.5 69zM-111 627q0 13 -9.5 22.5t-22.5 9.5t-22.5 -9.5t-9.5 -22.5t9.5 -22.5t22.5 -9.5t22.5 9.5t9.5 22.5z" />
    <glyph glyph-name="uni030B" unicode="&#x30b;" 
d="M-489 555l85 133h157v-16l-129 -117h-113zM-278 555l85 133h157v-16l-129 -117h-113z" />
    <glyph glyph-name="uni030C" unicode="&#x30c;" 
d="M-247 555l-130 113v16h123l44 -59l44 59h124v-16l-131 -113h-74z" />
    <glyph glyph-name="uni0312" unicode="&#x312;" 
d="M-77 542h-140v173q0 97 110 97h50v-65h-50q-45 0 -45 -32q0 -33 40 -33h35v-140z" />
    <glyph glyph-name="uni0326" unicode="&#x326;" 
d="M-228 -283l14 63q22 -9 49 -9q41 0 41 32t-39 32h-36v113h139v-145q0 -48 -28 -72.5t-72 -24.5q-33 0 -68 11z" />
    <glyph glyph-name="uni0327" unicode="&#x327;" 
d="M-175 -48q20 18 45 18q36 0 58 -20.5t22 -56.5t-24 -58.5t-63 -22.5q-79 0 -91 65l60 15q2 -26 30 -26q13 0 21 7.5t8 19.5q0 27 -29 27q-20 0 -29 -15l-59 11q13 50 20 100h60q-12 -37 -29 -64z" />
    <glyph glyph-name="uni0328" unicode="&#x328;" 
d="M-158 -178q-42 0 -68.5 24.5t-26.5 63.5q0 64 71 105h69q-52 -39 -52 -70q0 -30 31 -30q14 0 31 11l36 -78q-44 -26 -91 -26z" />
    <glyph glyph-name="uni0335" unicode="&#x335;" 
d="M-373 385h323v-96h-323v96z" />
    <glyph glyph-name="uni0336" unicode="&#x336;" 
d="M-827 298v105h767v-105h-767z" />
    <glyph glyph-name="uni0337" unicode="&#x337;" 
d="M-371 240l-49 96l279 145l49 -96z" />
    <glyph glyph-name="uni0338" unicode="&#x338;" 
d="M-366 -65l-101 36l208 568l101 -36z" />
    <glyph glyph-name="uni037E" unicode="&#x37e;" horiz-adv-x="258" 
d="M59 315v140h140v-140h-140zM34 -118l13 63q17 -10 45 -10q42 0 42 32q0 33 -39 33h-36v140h140v-173q0 -97 -105 -97q-38 0 -60 12z" />
    <glyph glyph-name="tonos" unicode="&#x384;" horiz-adv-x="339" 
d="M62 555l35 133h151v-16l-79 -117h-107z" />
    <glyph glyph-name="dieresistonos" unicode="&#x385;" horiz-adv-x="530" 
d="M193 549l19 149h134v-16l-63 -133h-90zM47 559v129h127v-129h-127zM364 559v129h127v-129h-127z" />
    <glyph glyph-name="Alphatonos" unicode="&#x386;" horiz-adv-x="776" 
d="M11 0l282 700h191l281 -700h-149l-61 158h-334l-60 -158h-150zM268 280h241l-121 313zM15 567l35 133h151v-16l-79 -117h-107z" />
    <glyph glyph-name="anoteleia" unicode="&#x387;" horiz-adv-x="258" 
d="M59 420h140v-140h-140v140z" />
    <glyph glyph-name="Epsilontonos" unicode="&#x388;" horiz-adv-x="648" 
d="M68 700h526v-125h-391v-152h361v-125h-361v-173h401v-125h-536v700zM-181 567l35 133h151v-16l-79 -117h-107z" />
    <glyph glyph-name="Etatonos" unicode="&#x389;" horiz-adv-x="751" 
d="M548 283h-345v-283h-135v700h135v-295h345v295h135v-700h-135v283zM-181 567l35 133h151v-16l-79 -117h-107z" />
    <glyph glyph-name="Iotatonos" unicode="&#x38a;" horiz-adv-x="271" 
d="M68 0v700h135v-700h-135zM-181 567l35 133h151v-16l-79 -117h-107z" />
    <glyph glyph-name="Omicrontonos" unicode="&#x38c;" horiz-adv-x="815" 
d="M408 710q150 3 260 -105t107 -255q3 -148 -107 -255.5t-260 -104.5q-150 -4 -260.5 104.5t-107.5 255.5q-3 147 107.5 255t260.5 105zM408 118q97 0 163.5 64.5t66.5 167.5t-66 168t-164 65t-164 -65t-66 -168t66.5 -167.5t163.5 -64.5zM-82 567l35 133h151v-16l-79 -117
h-107z" />
    <glyph glyph-name="Upsilontonos" unicode="&#x38e;" horiz-adv-x="692" 
d="M171 700l175 -296l185 296h150l-267 -422v-278h-135v278l-268 422h160zM-205 567l35 133h151v-16l-79 -117h-107z" />
    <glyph glyph-name="Omegatonos" unicode="&#x38f;" horiz-adv-x="790" 
d="M750 384q0 -153 -135 -261h115v-123h-298v118q76 38 129 102q52 65 52 151q0 95 -61 153.5t-157 58.5q-95 0 -156 -58.5t-61 -153.5q0 -86 52 -151q53 -65 128 -102v-118h-298v123h115q-135 108 -135 261q-2 138 100 233t255 93q154 2 255.5 -92.5t99.5 -233.5zM-98 567
l35 133h151v-16l-79 -117h-107z" />
    <glyph glyph-name="iotadieresistonos" unicode="&#x390;" horiz-adv-x="368" 
d="M61 150v324h128v-326q0 -43 36 -43q27 0 35 30l104 -58q-14 -40 -52 -63.5t-91 -23.5q-77 0 -118.5 43t-41.5 117zM49 549l19 149h134v-16l-63 -133h-90zM-97 559v129h127v-129h-127zM220 559v129h127v-129h-127z" />
    <glyph glyph-name="Alpha" unicode="&#x391;" horiz-adv-x="776" 
d="M11 0l282 700h191l281 -700h-149l-61 158h-334l-60 -158h-150zM268 280h241l-121 313z" />
    <glyph glyph-name="Beta" unicode="&#x392;" horiz-adv-x="707" 
d="M68 0v700h345q99 0 162 -51t63 -131q0 -110 -112 -158q64 -18 100.5 -61t36.5 -106q0 -87 -65.5 -140t-171.5 -53h-358zM203 420h205q48 0 73 21t25 59q0 35 -26.5 55t-71.5 20h-205v-155zM203 125h225q45 0 72.5 23.5t27.5 61.5q0 39 -27.5 63.5t-72.5 24.5h-225v-173z
" />
    <glyph glyph-name="Gamma" unicode="&#x393;" horiz-adv-x="623" 
d="M598 575h-395v-575h-135v700h530v-125z" />
    <glyph glyph-name="uni0394" unicode="&#x394;" horiz-adv-x="776" 
d="M11 0l282 700h191l281 -700h-754zM208 123h361l-181 470z" />
    <glyph glyph-name="Epsilon" unicode="&#x395;" horiz-adv-x="648" 
d="M68 700h526v-125h-391v-152h361v-125h-361v-173h401v-125h-536v700z" />
    <glyph glyph-name="Zeta" unicode="&#x396;" horiz-adv-x="714" 
d="M48 125l433 450h-428v125h606v-125l-433 -450h438v-125h-616v125z" />
    <glyph glyph-name="Eta" unicode="&#x397;" horiz-adv-x="751" 
d="M548 283h-345v-283h-135v700h135v-295h345v295h135v-700h-135v283z" />
    <glyph glyph-name="Theta" unicode="&#x398;" horiz-adv-x="815" 
d="M408 710q150 3 260 -105t107 -255q3 -148 -107 -255.5t-260 -104.5q-150 -4 -260.5 104.5t-107.5 255.5q-3 147 107.5 255t260.5 105zM408 118q97 0 163.5 64.5t66.5 167.5t-66 168t-164 65t-164 -65t-66 -168t66.5 -167.5t163.5 -64.5zM275 297v106h266v-106h-266z" />
    <glyph glyph-name="Iota" unicode="&#x399;" horiz-adv-x="271" 
d="M68 0v700h135v-700h-135z" />
    <glyph glyph-name="Kappa" unicode="&#x39a;" horiz-adv-x="699" 
d="M409 421l272 -421h-160l-203 319l-115 -124v-195h-135v700h135v-315l290 315h173z" />
    <glyph glyph-name="Lambda" unicode="&#x39b;" horiz-adv-x="776" 
d="M11 0l282 700h191l281 -700h-149l-228 593l-227 -593h-150z" />
    <glyph glyph-name="Mu" unicode="&#x39c;" horiz-adv-x="976" 
d="M908 0h-135v628l-182 -628h-205l-183 628v-628h-135v700h248l172 -600l173 600h247v-700z" />
    <glyph glyph-name="Nu" unicode="&#x39d;" horiz-adv-x="795" 
d="M203 607v-607h-135v700h233l291 -607v607h135v-700h-233z" />
    <glyph glyph-name="Xi" unicode="&#x39e;" horiz-adv-x="693" 
d="M644 575h-595v125h595v-125zM524 295h-355v120h355v-120zM44 125h605v-125h-605v125z" />
    <glyph glyph-name="Omicron" unicode="&#x39f;" horiz-adv-x="815" 
d="M408 710q150 3 260 -105t107 -255q3 -148 -107 -255.5t-260 -104.5q-150 -4 -260.5 104.5t-107.5 255.5q-3 147 107.5 255t260.5 105zM408 118q97 0 163.5 64.5t66.5 167.5t-66 168t-164 65t-164 -65t-66 -168t66.5 -167.5t163.5 -64.5z" />
    <glyph glyph-name="Pi" unicode="&#x3a0;" horiz-adv-x="751" 
d="M548 578h-345v-578h-135v700h615v-700h-135v578z" />
    <glyph glyph-name="Rho" unicode="&#x3a1;" horiz-adv-x="669" 
d="M203 270v-270h-135v700h330q108 0 169 -61.5t61 -152.5q0 -89 -61.5 -152.5t-168.5 -63.5h-195zM203 395h185q46 0 74.5 24t28.5 66t-28 66t-75 24h-185v-180z" />
    <glyph glyph-name="Sigma" unicode="&#x3a3;" horiz-adv-x="669" 
d="M436 406v-112l-205 -169h394v-125h-577v145l263 205l-263 205v145h557v-125h-374z" />
    <glyph glyph-name="Tau" unicode="&#x3a4;" horiz-adv-x="680" 
d="M655 700v-125h-247v-575h-135v575h-248v125h630z" />
    <glyph glyph-name="Upsilon" unicode="&#x3a5;" horiz-adv-x="692" 
d="M171 700l175 -296l185 296h150l-267 -422v-278h-135v278l-268 422h160z" />
    <glyph glyph-name="Phi" unicode="&#x3a6;" horiz-adv-x="830" 
d="M348 0v80h-43q-113 -2 -190 78.5t-75 191.5q-2 108 76 190t189 80h43v80h135v-80h42q111 2 189 -80t76 -190q2 -111 -75 -191.5t-190 -78.5h-42v-80h-135zM317 200h31v300h-31q-66 0 -106.5 -42t-40.5 -108t40.5 -108t106.5 -42zM483 200h30q66 0 106.5 42t40.5 108
t-40.5 108t-106.5 42h-30v-300z" />
    <glyph glyph-name="Chi" unicode="&#x3a7;" horiz-adv-x="715" 
d="M15 0l265 380l-225 320h160l143 -217l142 217h160l-225 -320l265 -380h-160l-182 273l-183 -273h-160z" />
    <glyph glyph-name="Psi" unicode="&#x3a8;" horiz-adv-x="818" 
d="M627 700h130v-170q0 -141 -74 -231t-206 -109v-190h-135v190q-133 19 -207 109t-74 231v170h130v-175q0 -174 151 -210v385h135v-385q73 17 111.5 70.5t38.5 139.5v175z" />
    <glyph glyph-name="uni03A9" unicode="&#x3a9;" horiz-adv-x="790" 
d="M750 384q0 -153 -135 -261h115v-123h-298v118q76 38 129 102q52 65 52 151q0 95 -61 153.5t-157 58.5q-95 0 -156 -58.5t-61 -153.5q0 -86 52 -151q53 -65 128 -102v-118h-298v123h115q-135 108 -135 261q-2 138 100 233t255 93q154 2 255.5 -92.5t99.5 -233.5z" />
    <glyph glyph-name="Iotadieresis" unicode="&#x3aa;" horiz-adv-x="271" 
d="M68 0v700h135v-700h-135zM-24 785v129h127v-129h-127zM168 785v129h127v-129h-127z" />
    <glyph glyph-name="Upsilondieresis" unicode="&#x3ab;" horiz-adv-x="692" 
d="M171 700l175 -296l185 296h150l-267 -422v-278h-135v278l-268 422h160zM186 785v129h127v-129h-127zM378 785v129h127v-129h-127z" />
    <glyph glyph-name="alphatonos" unicode="&#x3ac;" horiz-adv-x="660" 
d="M34 236q0 113 57.5 180.5t143.5 67.5q87 0 134 -69v59h127v-333q0 -39 33 -39q26 0 35 34l92 -48q-37 -98 -139 -98q-52 0 -86 25.5t-43 66.5q-36 -92 -150 -92q-88 0 -146 66.5t-58 179.5zM371 238q0 67 -28 101.5t-77 34.5q-47 0 -75.5 -36t-28.5 -102
q0 -65 28.5 -100.5t75.5 -35.5q48 0 76.5 35.5t28.5 102.5zM260 555l35 133h151v-16l-79 -117h-107z" />
    <glyph glyph-name="epsilontonos" unicode="&#x3ad;" horiz-adv-x="475" 
d="M36 133q0 44 23.5 71.5t62.5 36.5q-36 12 -56 41t-20 68q0 62 52 98t137 36q147 0 190 -130l-102 -48q-20 80 -90 80q-31 0 -50 -13.5t-19 -36.5q0 -22 17 -34.5t45 -12.5h35v-97h-44q-27 0 -43.5 -12t-16.5 -32q0 -52 79 -52q46 0 74 26t35 69l102 -45q-12 -70 -67 -113
t-140 -43q-94 0 -149 38t-55 105zM185 555l35 133h151v-16l-79 -117h-107z" />
    <glyph glyph-name="etatonos" unicode="&#x3ae;" horiz-adv-x="565" 
d="M376 -198v473q0 48 -25 76.5t-65 28.5q-45 0 -71 -30.5t-26 -84.5v-265h-128v474h128v-60q49 70 141 70q79 0 126.5 -46.5t47.5 -127.5v-508h-128zM250 555l35 133h151v-16l-79 -117h-107z" />
    <glyph glyph-name="iotatonos" unicode="&#x3af;" horiz-adv-x="368" 
d="M61 150v324h128v-326q0 -43 36 -43q27 0 35 30l104 -58q-14 -40 -52 -63.5t-91 -23.5q-77 0 -118.5 43t-41.5 117zM72 555l35 133h151v-16l-79 -117h-107z" />
    <glyph glyph-name="upsilondieresistonos" unicode="&#x3b0;" horiz-adv-x="567" 
d="M61 210v264h128v-268q0 -50 24.5 -76.5t70.5 -26.5q45 0 70 26.5t25 76.5v268h127v-264q0 -104 -55.5 -162t-166.5 -58t-167 58t-56 162zM209 549l19 149h134v-16l-63 -133h-90zM63 559v129h127v-129h-127zM380 559v129h127v-129h-127z" />
    <glyph glyph-name="alpha" unicode="&#x3b1;" horiz-adv-x="660" 
d="M34 236q0 113 57.5 180.5t143.5 67.5q87 0 134 -69v59h127v-333q0 -39 33 -39q26 0 35 34l92 -48q-37 -98 -139 -98q-52 0 -86 25.5t-43 66.5q-36 -92 -150 -92q-88 0 -146 66.5t-58 179.5zM371 238q0 67 -28 101.5t-77 34.5q-47 0 -75.5 -36t-28.5 -102
q0 -65 28.5 -100.5t75.5 -35.5q48 0 76.5 35.5t28.5 102.5z" />
    <glyph glyph-name="beta" unicode="&#x3b2;" horiz-adv-x="567" 
d="M61 -198v712q0 92 56.5 144t142.5 52q85 0 137 -44.5t52 -111.5q0 -53 -23 -89t-62 -51q72 -13 116.5 -65.5t44.5 -136.5q0 -100 -55 -161t-148 -61q-40 0 -76.5 15.5t-56.5 43.5v-247h-128zM402 218q0 64 -42.5 98.5t-114.5 34.5h-11v100h10q37 1 62 23.5t25 58.5
q0 32 -19 49.5t-50 17.5q-34 0 -53.5 -22t-19.5 -62v-300q0 -53 30 -84t78 -31q49 0 77 30.5t28 86.5z" />
    <glyph glyph-name="gamma" unicode="&#x3b3;" horiz-adv-x="563" 
d="M218 -198v277l-201 395h137l128 -270l127 270h137l-201 -395v-277h-127z" />
    <glyph glyph-name="delta" unicode="&#x3b4;" horiz-adv-x="560" 
d="M34 230q0 74 34.5 128.5t86.5 77.5q-49 9 -78.5 41.5t-29.5 81.5q0 67 64 109t161 42q125 0 210 -69l-65 -94q-59 51 -142 51q-46 0 -72.5 -16t-26.5 -43q0 -57 104 -57q110 0 178 -69.5t68 -173.5q0 -108 -69 -178.5t-177 -70.5q-106 0 -176 69t-70 171zM401 237
q0 59 -33.5 95.5t-87.5 36.5t-87.5 -36.5t-33.5 -95.5t33.5 -95.5t87.5 -36.5t87.5 36.5t33.5 95.5z" />
    <glyph glyph-name="epsilon" unicode="&#x3b5;" horiz-adv-x="475" 
d="M36 133q0 44 23.5 71.5t62.5 36.5q-36 12 -56 41t-20 68q0 62 52 98t137 36q147 0 190 -130l-102 -48q-20 80 -90 80q-31 0 -50 -13.5t-19 -36.5q0 -22 17 -34.5t45 -12.5h35v-97h-44q-27 0 -43.5 -12t-16.5 -32q0 -52 79 -52q46 0 74 26t35 69l102 -45q-12 -70 -67 -113
t-140 -43q-94 0 -149 38t-55 105z" />
    <glyph glyph-name="zeta" unicode="&#x3b6;" horiz-adv-x="525" 
d="M454 -208l-94 64q37 30 37 68q0 66 -91 66q-118 0 -195 74t-77 199q0 126 76 208q75 81 190 119h-252v110h456v-102q-177 -58 -261 -135.5t-84 -185.5q0 -83 50 -128.5t136 -45.5q82 0 129.5 -42.5t47.5 -122.5q0 -89 -68 -146z" />
    <glyph glyph-name="eta" unicode="&#x3b7;" horiz-adv-x="565" 
d="M376 -198v473q0 48 -25 76.5t-65 28.5q-45 0 -71 -30.5t-26 -84.5v-265h-128v474h128v-60q49 70 141 70q79 0 126.5 -46.5t47.5 -127.5v-508h-128z" />
    <glyph glyph-name="theta" unicode="&#x3b8;" horiz-adv-x="566" 
d="M34 350q0 174 66 267t183 93t183 -93t66 -267q0 -175 -65.5 -267.5t-183.5 -92.5q-117 0 -183 93t-66 267zM161 405h245q-6 92 -37.5 141t-85.5 49t-85.5 -49.5t-36.5 -140.5zM406 295h-245q11 -190 122 -190t123 190z" />
    <glyph glyph-name="iota" unicode="&#x3b9;" horiz-adv-x="368" 
d="M61 150v324h128v-326q0 -43 36 -43q27 0 35 30l104 -58q-14 -40 -52 -63.5t-91 -23.5q-77 0 -118.5 43t-41.5 117z" />
    <glyph glyph-name="kappa" unicode="&#x3ba;" horiz-adv-x="518" 
d="M61 0v474h125v-168l145 168h158l-205 -224l215 -250h-154l-159 191v-191h-125z" />
    <glyph glyph-name="lambda" unicode="&#x3bb;" horiz-adv-x="536" 
d="M525 0h-133l-125 326l-122 -326h-133l193 487l-22 57q-16 43 -57 43q-38 0 -54 -34l-82 66q47 81 147 81q113 0 154 -108z" />
    <glyph glyph-name="uni03BC" unicode="&#x3bc;" horiz-adv-x="572" 
d="M61 -198v672h128v-269q0 -105 93 -105q47 0 74.5 34.5t27.5 95.5v244h127v-474h-127v70q-33 -80 -114 -80q-56 0 -81 28v-216h-128z" />
    <glyph glyph-name="nu" unicode="&#x3bd;" horiz-adv-x="563" 
d="M152 474l130 -354l129 354h135l-187 -474h-155l-187 474h135z" />
    <glyph glyph-name="xi" unicode="&#x3be;" horiz-adv-x="507" 
d="M437 -208l-94 60q36 32 36 68q0 31 -24.5 50.5t-73.5 19.5q-115 0 -180 54t-65 149q0 63 32.5 110t89.5 71q-44 19 -70.5 58t-26.5 89q0 87 60.5 138t156.5 51q94 0 151 -45.5t68 -131.5l-123 -31q-4 47 -29 71.5t-67 24.5t-67 -24t-25 -61q0 -42 31 -67t84 -25h77v-108
h-80q-64 0 -100.5 -28.5t-36.5 -77.5q0 -104 153 -104q87 0 138.5 -45t51.5 -129q0 -83 -67 -137z" />
    <glyph glyph-name="omicron" unicode="&#x3bf;" horiz-adv-x="564" 
d="M34 237q0 107 70 177t178 70t178 -70t70 -177q0 -106 -70.5 -176.5t-177.5 -70.5t-177.5 70.5t-70.5 176.5zM405 237q0 59 -34.5 95.5t-88.5 36.5t-88.5 -36.5t-34.5 -95.5t34.5 -95.5t88.5 -36.5t88.5 36.5t34.5 95.5z" />
    <glyph glyph-name="pi" unicode="&#x3c0;" horiz-adv-x="694" 
d="M369 150v214h-104v-364h-127v364h-123v110h604v-110h-123v-216q0 -41 36 -41q26 0 37 30l102 -54q-40 -93 -142 -93q-77 0 -118.5 43t-41.5 117z" />
    <glyph glyph-name="rho" unicode="&#x3c1;" horiz-adv-x="592" 
d="M61 -198v414q0 129 67 198.5t181 69.5q112 0 180.5 -69t68.5 -179q0 -109 -63.5 -177.5t-162.5 -68.5q-102 0 -148 70v-258h-123zM430 236q0 64 -34 101t-89 37t-89 -37t-34 -101q0 -62 34.5 -99.5t88.5 -37.5q55 0 89 37t34 100z" />
    <glyph glyph-name="uni03C2" unicode="&#x3c2;" horiz-adv-x="515" 
d="M435 -208l-90 67q37 31 37 69q0 28 -22.5 45t-68.5 17q-113 0 -185 69t-72 181q0 105 72 174.5t173 69.5q91 0 152.5 -45.5t77.5 -125.5l-113 -38q-7 45 -38 71t-76 26q-49 0 -86 -36t-37 -96q0 -63 41 -99.5t111 -37.5q94 -2 145 -44.5t51 -122.5q0 -82 -72 -144z" />
    <glyph glyph-name="sigma" unicode="&#x3c3;" horiz-adv-x="564" 
d="M34 232q0 107 73.5 174.5t197.5 67.5h229v-105h-83q75 -42 75 -153q0 -95 -69.5 -160.5t-176.5 -65.5t-176.5 69.5t-69.5 172.5zM401 232q0 56 -34 91.5t-86 35.5t-87 -35.5t-35 -91.5t34.5 -91.5t86.5 -35.5t86.5 35.5t34.5 91.5z" />
    <glyph glyph-name="tau" unicode="&#x3c4;" horiz-adv-x="463" 
d="M137 150v217h-120v107h403v-107h-155v-219q0 -43 36 -43q27 0 35 30l104 -58q-14 -40 -52 -63.5t-91 -23.5q-77 0 -118.5 43t-41.5 117z" />
    <glyph glyph-name="upsilon" unicode="&#x3c5;" horiz-adv-x="567" 
d="M61 210v264h128v-268q0 -50 24.5 -76.5t70.5 -26.5q45 0 70 26.5t25 76.5v268h127v-264q0 -104 -55.5 -162t-166.5 -58t-167 58t-56 162z" />
    <glyph glyph-name="phi" unicode="&#x3c6;" horiz-adv-x="726" 
d="M692 237q0 -105 -67 -171t-168 -66h-30v-198h-128v198h-30q-101 0 -168 66t-67 171t67 171t168 66h30v226h128v-226h30q101 0 168 -66t67 -171zM283 113h16v249h-16q-60 0 -94.5 -33t-34.5 -92t34.5 -91.5t94.5 -32.5zM572 237q0 59 -34.5 92t-94.5 33h-16v-249h16
q60 0 94.5 32.5t34.5 91.5z" />
    <glyph glyph-name="chi" unicode="&#x3c7;" horiz-adv-x="513" 
d="M11 -198l175 350l-160 322h145l85 -191l86 191h145l-160 -322l175 -350h-145l-101 224l-100 -224h-145z" />
    <glyph glyph-name="psi" unicode="&#x3c8;" horiz-adv-x="689" 
d="M283 113v587h123v-587q99 5 99 118v243h123v-240q0 -108 -58.5 -169t-163.5 -65v-198h-123v198q-105 4 -163.5 65t-58.5 169v240h123v-243q0 -113 99 -118z" />
    <glyph glyph-name="omega" unicode="&#x3c9;" horiz-adv-x="791" 
d="M334 214v155h123v-155q0 -111 84 -111q44 0 68.5 37t24.5 106q0 63 -21.5 124t-54.5 104h131q68 -97 68 -222q0 -117 -50 -190q-49 -72 -158 -72q-107 0 -154 95q-47 -95 -153 -95q-108 0 -158 72q-50 73 -50 190q0 125 68 222h131q-33 -43 -54.5 -104t-21.5 -124
q0 -69 24.5 -106t68.5 -37q84 0 84 111z" />
    <glyph glyph-name="iotadieresis" unicode="&#x3ca;" horiz-adv-x="368" 
d="M61 150v324h128v-326q0 -43 36 -43q27 0 35 30l104 -58q-14 -40 -52 -63.5t-91 -23.5q-77 0 -118.5 43t-41.5 117zM-35 559v129h127v-129h-127zM157 559v129h127v-129h-127z" />
    <glyph glyph-name="upsilondieresis" unicode="&#x3cb;" horiz-adv-x="567" 
d="M61 210v264h128v-268q0 -50 24.5 -76.5t70.5 -26.5q45 0 70 26.5t25 76.5v268h127v-264q0 -104 -55.5 -162t-166.5 -58t-167 58t-56 162zM125 559v129h127v-129h-127zM317 559v129h127v-129h-127z" />
    <glyph glyph-name="omicrontonos" unicode="&#x3cc;" horiz-adv-x="564" 
d="M34 237q0 107 70 177t178 70t178 -70t70 -177q0 -106 -70.5 -176.5t-177.5 -70.5t-177.5 70.5t-70.5 176.5zM405 237q0 59 -34.5 95.5t-88.5 36.5t-88.5 -36.5t-34.5 -95.5t34.5 -95.5t88.5 -36.5t88.5 36.5t34.5 95.5zM229 555l35 133h151v-16l-79 -117h-107z" />
    <glyph glyph-name="upsilontonos" unicode="&#x3cd;" horiz-adv-x="567" 
d="M61 210v264h128v-268q0 -50 24.5 -76.5t70.5 -26.5q45 0 70 26.5t25 76.5v268h127v-264q0 -104 -55.5 -162t-166.5 -58t-167 58t-56 162zM231 555l35 133h151v-16l-79 -117h-107z" />
    <glyph glyph-name="omegatonos" unicode="&#x3ce;" horiz-adv-x="791" 
d="M334 214v155h123v-155q0 -111 84 -111q44 0 68.5 37t24.5 106q0 63 -21.5 124t-54.5 104h131q68 -97 68 -222q0 -117 -50 -190q-49 -72 -158 -72q-107 0 -154 95q-47 -95 -153 -95q-108 0 -158 72q-50 73 -50 190q0 125 68 222h131q-33 -43 -54.5 -104t-21.5 -124
q0 -69 24.5 -106t68.5 -37q84 0 84 111zM343 555l35 133h151v-16l-79 -117h-107z" />
    <glyph glyph-name="uni0400" unicode="&#x400;" horiz-adv-x="648" 
d="M68 700h526v-125h-391v-152h361v-125h-361v-173h401v-125h-536v700zM261 781l-129 117v16h157l85 -133h-113z" />
    <glyph glyph-name="uni0401" unicode="&#x401;" horiz-adv-x="648" 
d="M68 700h526v-125h-391v-152h361v-125h-361v-173h401v-125h-536v700zM158 785v129h127v-129h-127zM350 785v129h127v-129h-127z" />
    <glyph glyph-name="uni0402" unicode="&#x402;" horiz-adv-x="846" 
d="M599 -110v16q40 74 57.5 135t17.5 134q0 196 -132 196q-67 0 -102 -47t-35 -127v-197h-130v583h-250v117h630v-117h-250v-190q25 42 70.5 66.5t101.5 24.5q110 0 169 -83q58 -82 58 -213q0 -66 -11 -123q-11 -55 -25 -90t-39 -85h-130z" />
    <glyph glyph-name="uni0403" unicode="&#x403;" horiz-adv-x="623" 
d="M598 575h-395v-575h-135v700h530v-125zM272 781l85 133h157v-16l-129 -117h-113z" />
    <glyph glyph-name="uni0404" unicode="&#x404;" horiz-adv-x="790" 
d="M636 319l123 -49q-28 -127 -122 -204q-92 -76 -236 -76q-162 0 -261.5 101.5t-99.5 258.5q-2 151 103.5 257t257.5 103q131 0 214.5 -65.5t109.5 -168.5l-124 -55q-15 77 -68 122t-133 45q-81 0 -139 -46.5t-76 -126.5h287v-125h-288q16 -82 75 -129.5t143 -47.5
q96 0 156 56t78 150z" />
    <glyph glyph-name="uni0405" unicode="&#x405;" horiz-adv-x="652" 
d="M321 590q-50 0 -80 -21t-30 -54q0 -40 41.5 -64.5t121.5 -39.5q130 -24 188.5 -72t58.5 -137q0 -93 -76.5 -152.5t-202.5 -59.5q-104 0 -192 48q-88 50 -129 165l120 75q21 -81 73.5 -123t130.5 -42q63 0 101 23t38 61q0 40 -36 63t-124 37q-248 38 -248 219q0 82 71 138
t182 56q94 0 163.5 -45t98.5 -127l-117 -68q-33 120 -153 120z" />
    <glyph glyph-name="uni0406" unicode="&#x406;" horiz-adv-x="271" 
d="M68 0v700h135v-700h-135z" />
    <glyph glyph-name="uni0407" unicode="&#x407;" horiz-adv-x="271" 
d="M68 0v700h135v-700h-135zM-24 785v129h127v-129h-127zM168 785v129h127v-129h-127z" />
    <glyph glyph-name="uni0408" unicode="&#x408;" horiz-adv-x="611" 
d="M415 700h135v-460q0 -50 -14 -93t-42.5 -79t-78.5 -57t-116 -21q-118 0 -186 67.5t-68 171.5q0 75 35 125l124 -49q-26 -35 -26 -82t33 -77.5t85 -30.5q119 0 119 142v443z" />
    <glyph glyph-name="uni0409" unicode="&#x409;" horiz-adv-x="1035" 
d="M22 0v19q60 109 60 336v345h497v-275h177q107 0 171 -59.5t64 -152.5q0 -95 -63.5 -154t-171.5 -59h-312v578h-227v-211q0 -258 -56 -367h-139zM579 125h177q45 0 72.5 24t27.5 64t-27.5 63.5t-72.5 23.5h-177v-175z" />
    <glyph glyph-name="uni040A" unicode="&#x40a;" horiz-adv-x="1001" 
d="M68 0v700h135v-275h228v275h135v-275h156q107 0 171 -59.5t64 -152.5q0 -95 -63.5 -154t-171.5 -59h-291v300h-228v-300h-135zM566 125h156q45 0 72.5 24t27.5 64t-27.5 63.5t-72.5 23.5h-156v-175z" />
    <glyph glyph-name="uni040B" unicode="&#x40b;" horiz-adv-x="824" 
d="M273 0v575h-248v125h630v-125h-247v-178q23 41 66.5 64t96.5 23q88 0 137 -48.5t49 -134.5v-301h-135v266q0 49 -27 77t-74 28q-48 0 -80.5 -35t-32.5 -93v-243h-135z" />
    <glyph glyph-name="uni040C" unicode="&#x40c;" horiz-adv-x="677" 
d="M68 0v700h135v-272l269 272h176l-332 -334l350 -366h-187l-276 294v-294h-135zM280 781l85 133h157v-16l-129 -117h-113z" />
    <glyph glyph-name="uni040D" unicode="&#x40d;" horiz-adv-x="795" 
d="M592 607l-291 -607h-233v700h135v-607l291 607h233v-700h-135v607zM334 781l-129 117v16h157l85 -133h-113z" />
    <glyph glyph-name="uni040E" unicode="&#x40e;" horiz-adv-x="725" 
d="M113 0l174 264l-274 436h162l189 -311l194 311h154l-442 -700h-157zM495 892q0 -53 -37 -84t-93 -31t-92.5 31t-36.5 84q0 11 1 14h86l-1 -9q0 -17 12 -28.5t31 -11.5q20 0 31.5 11t11.5 29l-1 9h87q1 -3 1 -14z" />
    <glyph glyph-name="uni040F" unicode="&#x40f;" horiz-adv-x="687" 
d="M283 -110v110h-215v700h135v-577h281v577h135v-701h-214v-109h-122z" />
    <glyph glyph-name="uni0410" unicode="&#x410;" horiz-adv-x="776" 
d="M11 0l282 700h191l281 -700h-149l-61 158h-334l-60 -158h-150zM268 280h241l-121 313z" />
    <glyph glyph-name="uni0411" unicode="&#x411;" horiz-adv-x="710" 
d="M68 0v700h506v-125h-371v-154h225q105 0 172 -56q66 -55 66 -154q0 -98 -66 -154.5t-172 -56.5h-360zM203 125h228q45 0 72.5 24t27.5 62t-27.5 61.5t-72.5 23.5h-228v-171z" />
    <glyph glyph-name="uni0412" unicode="&#x412;" horiz-adv-x="707" 
d="M68 0v700h345q99 0 162 -51t63 -131q0 -110 -112 -158q64 -18 100.5 -61t36.5 -106q0 -87 -65.5 -140t-171.5 -53h-358zM203 420h205q48 0 73 21t25 59q0 35 -26.5 55t-71.5 20h-205v-155zM203 125h225q45 0 72.5 23.5t27.5 61.5q0 39 -27.5 63.5t-72.5 24.5h-225v-173z
" />
    <glyph glyph-name="uni0413" unicode="&#x413;" horiz-adv-x="623" 
d="M598 575h-395v-575h-135v700h530v-125z" />
    <glyph glyph-name="uni0414" unicode="&#x414;" horiz-adv-x="730" 
d="M18 -110v230h70q44 56 63 105q20 51 26 103q6 54 6 147v225h444v-580h85v-230h-122v110h-449v-110h-123zM233 120h264v460h-189v-105q0 -129 -15 -205q-13 -75 -60 -150z" />
    <glyph glyph-name="uni0415" unicode="&#x415;" horiz-adv-x="648" 
d="M68 700h526v-125h-391v-152h361v-125h-361v-173h401v-125h-536v700z" />
    <glyph glyph-name="uni0416" unicode="&#x416;" horiz-adv-x="1083" 
d="M722 366l350 -366h-187l-276 294v-294h-135v294l-275 -294h-188l350 366l-331 334h176l268 -272v272h135v-272l269 272h176z" />
    <glyph glyph-name="uni0417" unicode="&#x417;" horiz-adv-x="598" 
d="M36 214l123 46q4 -64 43 -105.5t106 -41.5q56 0 88.5 22.5t32.5 66.5q0 46 -30 70t-83 24h-40v115h46q48 0 73.5 22.5t25.5 64.5q0 43 -31.5 67.5t-86.5 24.5q-109 0 -131 -114l-112 49q18 84 81.5 134.5t165.5 50.5q107 0 173 -55t66 -147q0 -58 -29 -97.5t-76 -54.5
q52 -16 83.5 -56.5t31.5 -104.5q0 -100 -70 -152q-70 -53 -180 -53q-112 0 -183 61t-87 163z" />
    <glyph glyph-name="uni0418" unicode="&#x418;" horiz-adv-x="795" 
d="M592 607l-291 -607h-233v700h135v-607l291 607h233v-700h-135v607z" />
    <glyph glyph-name="uni0419" unicode="&#x419;" horiz-adv-x="795" 
d="M592 607l-291 -607h-233v700h135v-607l291 607h233v-700h-135v607zM520 892q0 -53 -37 -84t-93 -31t-92.5 31t-36.5 84q0 11 1 14h86l-1 -9q0 -17 12 -28.5t31 -11.5q20 0 31.5 11t11.5 29l-1 9h87q1 -3 1 -14z" />
    <glyph glyph-name="uni041A" unicode="&#x41a;" horiz-adv-x="677" 
d="M68 0v700h135v-272l269 272h176l-332 -334l350 -366h-187l-276 294v-294h-135z" />
    <glyph glyph-name="uni041B" unicode="&#x41b;" horiz-adv-x="720" 
d="M22 0v19q60 109 60 336v345h570v-700h-135v578h-300v-211q0 -258 -56 -367h-139z" />
    <glyph glyph-name="uni041C" unicode="&#x41c;" horiz-adv-x="976" 
d="M908 0h-135v628l-182 -628h-205l-183 628v-628h-135v700h248l172 -600l173 600h247v-700z" />
    <glyph glyph-name="uni041D" unicode="&#x41d;" horiz-adv-x="751" 
d="M548 283h-345v-283h-135v700h135v-295h345v295h135v-700h-135v283z" />
    <glyph glyph-name="uni041E" unicode="&#x41e;" horiz-adv-x="815" 
d="M408 710q150 3 260 -105t107 -255q3 -148 -107 -255.5t-260 -104.5q-150 -4 -260.5 104.5t-107.5 255.5q-3 147 107.5 255t260.5 105zM408 118q97 0 163.5 64.5t66.5 167.5t-66 168t-164 65t-164 -65t-66 -168t66.5 -167.5t163.5 -64.5z" />
    <glyph glyph-name="uni041F" unicode="&#x41f;" horiz-adv-x="751" 
d="M548 578h-345v-578h-135v700h615v-700h-135v578z" />
    <glyph glyph-name="uni0420" unicode="&#x420;" horiz-adv-x="669" 
d="M203 270v-270h-135v700h330q108 0 169 -61.5t61 -152.5q0 -89 -61.5 -152.5t-168.5 -63.5h-195zM203 395h185q46 0 74.5 24t28.5 66t-28 66t-75 24h-185v-180z" />
    <glyph glyph-name="uni0421" unicode="&#x421;" horiz-adv-x="790" 
d="M178 350q0 -108 63.5 -172.5t160.5 -64.5q96 0 156 56t78 150l123 -49q-28 -127 -122 -204q-92 -76 -236 -76q-162 0 -261.5 101.5t-99.5 258.5q-2 151 103.5 257t257.5 103q131 0 214.5 -65.5t109.5 -168.5l-124 -55q-15 77 -68 122t-133 45q-95 0 -158.5 -65.5
t-63.5 -172.5z" />
    <glyph glyph-name="uni0422" unicode="&#x422;" horiz-adv-x="680" 
d="M655 700v-125h-247v-575h-135v575h-248v125h630z" />
    <glyph glyph-name="uni0423" unicode="&#x423;" horiz-adv-x="725" 
d="M113 0l174 264l-274 436h162l189 -311l194 311h154l-442 -700h-157z" />
    <glyph glyph-name="uni0424" unicode="&#x424;" horiz-adv-x="842" 
d="M489 0h-135v80h-49q-112 0 -188.5 77.5t-76.5 192.5q0 112 77 191t188 79h49v80h135v-80h48q111 0 188 -79t77 -191q0 -115 -76.5 -192.5t-188.5 -77.5h-48v-80zM317 205h37v290h-37q-63 0 -103.5 -40t-40.5 -105t40.5 -105t103.5 -40zM525 495h-36v-290h36q63 0 104 40
t41 105t-41 105t-104 40z" />
    <glyph glyph-name="uni0425" unicode="&#x425;" horiz-adv-x="715" 
d="M15 0l265 380l-225 320h160l143 -217l142 217h160l-225 -320l265 -380h-160l-182 273l-183 -273h-160z" />
    <glyph glyph-name="uni0426" unicode="&#x426;" horiz-adv-x="715" 
d="M574 -110v110h-506v700h135v-577h274v577h135v-577h85v-233h-123z" />
    <glyph glyph-name="uni0427" unicode="&#x427;" horiz-adv-x="708" 
d="M505 0v225q-76 -67 -187 -67q-119 0 -188 73t-69 189v280h135v-261q0 -74 39 -115t108 -41q87 0 162 81v336h135v-700h-135z" />
    <glyph glyph-name="uni0428" unicode="&#x428;" horiz-adv-x="975" 
d="M772 700h135v-700h-839v700h135v-577h217v577h135v-577h217v577z" />
    <glyph glyph-name="uni0429" unicode="&#x429;" horiz-adv-x="1010" 
d="M870 -110v110h-802v700h135v-577h217v577h135v-577h217v577h135v-577h85v-233h-122z" />
    <glyph glyph-name="uni042A" unicode="&#x42a;" horiz-adv-x="813" 
d="M769 211q0 -98 -66 -154.5t-172 -56.5h-358v575h-148v125h283v-279h223q105 0 172 -56q66 -55 66 -154zM634 211q0 38 -27.5 61.5t-72.5 23.5h-226v-171h226q45 0 72.5 24t27.5 62z" />
    <glyph glyph-name="uni042B" unicode="&#x42b;" horiz-adv-x="979" 
d="M68 0v700h135v-279h223q105 0 172 -56q66 -55 66 -154q0 -98 -66 -154.5t-172 -56.5h-358zM203 125h226q45 0 72.5 24t27.5 62t-27.5 61.5t-72.5 23.5h-226v-171zM776 0v700h135v-700h-135z" />
    <glyph glyph-name="uni042C" unicode="&#x42c;" horiz-adv-x="708" 
d="M68 0v700h135v-279h223q105 0 172 -56q66 -55 66 -154q0 -98 -66 -154.5t-172 -56.5h-358zM203 125h226q45 0 72.5 24t27.5 62t-27.5 61.5t-72.5 23.5h-226v-171z" />
    <glyph glyph-name="uni042D" unicode="&#x42d;" horiz-adv-x="790" 
d="M31 270l124 49q16 -94 77 -150t157 -56q84 0 143.5 47t76.5 130h-293v125h292q-18 79 -78 126q-61 47 -139 47q-80 0 -133.5 -45t-68.5 -122l-123 55q26 101 111 167.5t216 66.5q153 2 256 -102t101 -258q0 -159 -97.5 -259.5t-263.5 -100.5q-144 0 -236 76
q-92 77 -122 204z" />
    <glyph glyph-name="uni042E" unicode="&#x42e;" horiz-adv-x="1124" 
d="M1084 350q3 -148 -107 -255.5t-260 -104.5q-132 -2 -236 83t-126 210h-152v-283h-135v700h135v-295h150q17 129 123 218t241 87q150 3 260 -105t107 -255zM947 350q0 103 -66 168t-164 65t-164 -65t-66 -168t66.5 -167.5t163.5 -64.5t163.5 64.5t66.5 167.5z" />
    <glyph glyph-name="uni042F" unicode="&#x42f;" horiz-adv-x="691" 
d="M41 0v16l219 262q-88 3 -149 62.5t-61 154.5q0 89 62.5 147t167.5 58h343v-700h-135v278h-65l-227 -278h-155zM288 403h200v172h-200q-50 0 -76.5 -22.5t-26.5 -62.5t27 -63.5t76 -23.5z" />
    <glyph glyph-name="uni0430" unicode="&#x430;" horiz-adv-x="532" 
d="M41 137q0 74 49.5 113t135.5 39q44 0 81 -10l42 -10v30q0 40 -26 62.5t-71 22.5q-85 0 -103 -79l-111 30q19 70 74.5 109.5t140.5 39.5q107 0 162.5 -49t55.5 -143v-292h-117v73q-47 -83 -157 -83q-64 0 -110 40.5t-46 106.5zM349 175v4l-29 9q-47 14 -74 14
q-75 0 -75 -57t77 -57q45 0 73 23t28 64z" />
    <glyph glyph-name="uni0431" unicode="&#x431;" horiz-adv-x="567" 
d="M34 290q0 147 70 230q70 85 184 117q84 24 109.5 42.5t21.5 55.5h111q1 -4 1 -18q0 -68 -45.5 -107.5t-137.5 -61.5q-93 -22 -139 -60.5t-61 -107.5q23 49 67 76.5t100 27.5q104 0 160.5 -70t56.5 -179q0 -106 -67.5 -175.5t-176.5 -69.5q-127 0 -190.5 84.5t-63.5 215.5
zM408 236q0 62 -35 99.5t-90 37.5t-90 -37.5t-35 -99.5q0 -59 35.5 -96.5t89.5 -37.5q56 0 90.5 36.5t34.5 97.5z" />
    <glyph glyph-name="uni0432" unicode="&#x432;" horiz-adv-x="542" 
d="M61 0v474h272q68 0 109.5 -34.5t41.5 -90.5q0 -77 -72 -108q88 -19 88 -110q0 -59 -44.5 -95t-117.5 -36h-277zM184 291h129q51 0 51 41q0 19 -13.5 30t-37.5 11h-129v-82zM184 102h142q25 0 39.5 12.5t14.5 32.5q0 21 -14.5 33.5t-39.5 12.5h-142v-91z" />
    <glyph glyph-name="uni0433" unicode="&#x433;" horiz-adv-x="422" 
d="M61 0v474h345v-115h-217v-359h-128z" />
    <glyph glyph-name="uni0434" unicode="&#x434;" horiz-adv-x="580" 
d="M26 -110v223h52q28 60 37 111q10 47 10 131v119h368v-361h62v-223h-113v110h-304v-110h-112zM201 113h179v256h-142v-29q0 -125 -37 -227z" />
    <glyph glyph-name="uni0435" unicode="&#x435;" horiz-adv-x="534" 
d="M397 181l109 -43q-25 -70 -82 -109t-139 -39q-111 0 -181 69t-70 181q0 103 66.5 173.5t169.5 70.5q99 0 159.5 -58t60.5 -155q0 -31 -6 -58h-322q1 -52 36.5 -82.5t88.5 -30.5q87 0 110 81zM162 298h203l1 4q0 36 -26.5 57.5t-69.5 21.5q-40 0 -69.5 -22.5t-38.5 -60.5z
" />
    <glyph glyph-name="uni0436" unicode="&#x436;" horiz-adv-x="775" 
d="M19 0l215 250l-205 224h155l142 -166v166h123v-166l142 166h155l-205 -224l215 -250h-151l-156 189v-189h-123v189l-156 -189h-151z" />
    <glyph glyph-name="uni0437" unicode="&#x437;" horiz-adv-x="475" 
d="M28 146l102 45q7 -43 35 -69t74 -26q79 0 79 52q0 20 -16.5 32t-43.5 12h-44v97h35q28 0 45 12.5t17 34.5q0 23 -19 36.5t-50 13.5q-70 0 -90 -80l-102 48q43 130 190 130q85 0 137 -36t52 -98q0 -39 -20 -68t-56 -41q39 -9 62.5 -36.5t23.5 -71.5q0 -67 -55 -105
t-149 -38q-85 0 -140 43t-67 113z" />
    <glyph glyph-name="uni0438" unicode="&#x438;" horiz-adv-x="614" 
d="M61 0v474h125v-343l187 343h180v-474h-125v343l-186 -343h-181z" />
    <glyph glyph-name="uni0439" unicode="&#x439;" horiz-adv-x="614" 
d="M61 0v474h125v-343l187 343h180v-474h-125v343l-186 -343h-181zM437 666q0 -53 -37 -84t-93 -31t-92.5 31t-36.5 84q0 11 1 14h86l-1 -9q0 -17 12 -28.5t31 -11.5q20 0 31.5 11t11.5 29l-1 9h87q1 -3 1 -14z" />
    <glyph glyph-name="uni043A" unicode="&#x43a;" horiz-adv-x="518" 
d="M61 0v474h125v-168l145 168h158l-205 -224l215 -250h-154l-159 191v-191h-125z" />
    <glyph glyph-name="uni043B" unicode="&#x43b;" horiz-adv-x="544" 
d="M18 0v16q30 56 44 124q16 68 16 190v144h405v-474h-125v359h-155v-24q0 -215 -60 -335h-125z" />
    <glyph glyph-name="uni043C" unicode="&#x43c;" horiz-adv-x="746" 
d="M685 474v-474h-125v361l-107 -361h-160l-107 361v-361h-125v474h205l107 -356l107 356h205z" />
    <glyph glyph-name="uni043D" unicode="&#x43d;" horiz-adv-x="569" 
d="M186 474v-174h197v174h125v-474h-125v185h-197v-185h-125v474h125z" />
    <glyph glyph-name="uni043E" unicode="&#x43e;" horiz-adv-x="564" 
d="M34 237q0 107 70 177t178 70t178 -70t70 -177q0 -106 -70.5 -176.5t-177.5 -70.5t-177.5 70.5t-70.5 176.5zM405 237q0 59 -34.5 95.5t-88.5 36.5t-88.5 -36.5t-34.5 -95.5t34.5 -95.5t88.5 -36.5t88.5 36.5t34.5 95.5z" />
    <glyph glyph-name="uni043F" unicode="&#x43f;" horiz-adv-x="555" 
d="M61 0v474h433v-474h-125v359h-183v-359h-125z" />
    <glyph glyph-name="uni0440" unicode="&#x440;" horiz-adv-x="598" 
d="M61 474h123v-71q27 37 68.5 59t88.5 22q97 0 160 -69t63 -180q0 -110 -64.5 -177.5t-165.5 -67.5q-49 0 -87.5 19t-57.5 52v-259h-128v672zM310 99q54 0 90 37.5t36 98.5q0 63 -36 101t-90 38q-53 0 -89.5 -38.5t-36.5 -100.5q0 -61 36.5 -98.5t89.5 -37.5z" />
    <glyph glyph-name="uni0441" unicode="&#x441;" horiz-adv-x="560" 
d="M289 103q56 0 88 32t39 85l118 -41q-21 -93 -84.5 -141t-157.5 -48q-116 0 -187 68.5t-71 181.5q0 105 72 174.5t173 69.5q91 0 152.5 -45.5t77.5 -125.5l-113 -38q-7 45 -38 71t-76 26q-49 0 -86 -36t-37 -96q0 -61 38.5 -99t91.5 -38z" />
    <glyph glyph-name="uni0442" unicode="&#x442;" horiz-adv-x="449" 
d="M162 0v359h-149v115h423v-115h-149v-359h-125z" />
    <glyph glyph-name="uni0443" unicode="&#x443;" horiz-adv-x="533" 
d="M392 474h130l-323 -672h-130l127 265l-190 407h134l122 -270z" />
    <glyph glyph-name="uni0444" unicode="&#x444;" horiz-adv-x="921" 
d="M398 -198v252q-50 -64 -145 -64q-97 0 -158 67t-61 179q0 113 60 180.5t154 67.5q101 0 148 -67v283h130v-283q47 67 147 67q94 0 154 -67.5t60 -180.5q0 -112 -61 -179t-158 -67q-94 0 -145 64v-252h-125zM401 236q0 63 -34.5 100.5t-85.5 37.5q-54 0 -86.5 -37.5
t-32.5 -100.5t32.5 -100t86.5 -37q51 0 85.5 37t34.5 100zM760 236q0 63 -33 100.5t-87 37.5q-50 0 -84.5 -37.5t-34.5 -100.5q0 -64 34 -100.5t85 -36.5q54 0 87 37t33 100z" />
    <glyph glyph-name="uni0445" unicode="&#x445;" horiz-adv-x="505" 
d="M476 474l-154 -223l172 -251h-145l-97 151l-96 -151h-145l172 251l-154 223h145l78 -124l79 124h145z" />
    <glyph glyph-name="uni0446" unicode="&#x446;" horiz-adv-x="604" 
d="M466 -110v110h-405v474h125v-359h186v359h125v-359h82v-225h-113z" />
    <glyph glyph-name="uni0447" unicode="&#x447;" horiz-adv-x="570" 
d="M384 266v208h125v-474h-125v169q-55 -58 -150 -58q-81 0 -127 48t-46 129v186h125v-151q0 -105 96 -105q60 0 102 48z" />
    <glyph glyph-name="uni0448" unicode="&#x448;" horiz-adv-x="812" 
d="M61 0v474h125v-359h158v359h125v-359h157v359h125v-474h-690z" />
    <glyph glyph-name="uni0449" unicode="&#x449;" horiz-adv-x="859" 
d="M721 -110v110h-660v474h125v-359h158v359h125v-359h157v359h125v-359h82v-225h-112z" />
    <glyph glyph-name="uni044A" unicode="&#x44a;" horiz-adv-x="602" 
d="M144 0v373h-135v101h255v-160h124q81 0 126.5 -41t45.5 -113t-46.5 -116t-125.5 -44h-244zM264 102h118q29 0 45 15t16 40t-16 40.5t-45 15.5h-118v-111z" />
    <glyph glyph-name="uni044B" unicode="&#x44b;" horiz-adv-x="769" 
d="M61 0v474h120v-160h124q81 0 126.5 -41t45.5 -113t-46.5 -116t-125.5 -44h-244zM181 102h118q29 0 45 15t16 40t-16 40.5t-45 15.5h-118v-111zM580 474h128v-474h-128v474z" />
    <glyph glyph-name="uni044C" unicode="&#x44c;" horiz-adv-x="519" 
d="M61 0v474h120v-160h124q81 0 126.5 -41t45.5 -113t-46.5 -116t-125.5 -44h-244zM181 102h118q29 0 45 15t16 40t-16 40.5t-45 15.5h-118v-111z" />
    <glyph glyph-name="uni044D" unicode="&#x44d;" horiz-adv-x="560" 
d="M526 240q0 -113 -71 -181.5t-187 -68.5q-94 0 -157.5 48t-84.5 141l118 41q7 -53 39 -85t88 -32q46 0 78.5 22.5t44.5 63.5h-132v102h132q-12 39 -43.5 60t-72.5 21q-45 0 -76 -26t-38 -71l-113 38q19 81 80 126t152 45q103 0 173 -68.5t70 -175.5z" />
    <glyph glyph-name="uni044E" unicode="&#x44e;" horiz-adv-x="779" 
d="M745 236q0 -106 -70.5 -176t-177.5 -70q-93 0 -161 54q-65 54 -82 141h-68v-185h-125v474h125v-174h70q20 83 85 133q65 51 156 51q107 0 177.5 -70.5t70.5 -177.5zM620 236q0 59 -34.5 96t-88.5 37t-88.5 -37t-34.5 -96t34.5 -95t88.5 -36t88.5 36t34.5 95z" />
    <glyph glyph-name="uni044F" unicode="&#x44f;" horiz-adv-x="512" 
d="M24 10l144 175q-59 2 -98 42q-39 41 -39 101q0 64 42.5 105t115.5 41h262v-474h-120v185h-25l-150 -185h-132v10zM331 282v90h-127q-53 0 -53 -45t53 -45h127z" />
    <glyph glyph-name="uni0450" unicode="&#x450;" horiz-adv-x="534" 
d="M397 181l109 -43q-25 -70 -82 -109t-139 -39q-111 0 -181 69t-70 181q0 103 66.5 173.5t169.5 70.5q99 0 159.5 -58t60.5 -155q0 -31 -6 -58h-322q1 -52 36.5 -82.5t88.5 -30.5q87 0 110 81zM162 298h203l1 4q0 36 -26.5 57.5t-69.5 21.5q-40 0 -69.5 -22.5t-38.5 -60.5z
M214 555l-129 117v16h157l85 -133h-113z" />
    <glyph glyph-name="uni0451" unicode="&#x451;" horiz-adv-x="534" 
d="M397 181l109 -43q-25 -70 -82 -109t-139 -39q-111 0 -181 69t-70 181q0 103 66.5 173.5t169.5 70.5q99 0 159.5 -58t60.5 -155q0 -31 -6 -58h-322q1 -52 36.5 -82.5t88.5 -30.5q87 0 110 81zM162 298h203l1 4q0 36 -26.5 57.5t-69.5 21.5q-40 0 -69.5 -22.5t-38.5 -60.5z
M111 559v129h127v-129h-127zM303 559v129h127v-129h-127z" />
    <glyph glyph-name="uni0452" unicode="&#x452;" horiz-adv-x="581" 
d="M520 304v-347q0 -76 -44 -120.5t-123 -44.5q-70 0 -114 34.5t-51 93.5l120 29q5 -43 45 -43q19 0 29.5 13t10.5 35v320q0 49 -25.5 76.5t-71.5 27.5q-47 0 -77 -36t-30 -96v-246h-128v549h-61v96h61v55h128v-55h134v-96h-134v-160q22 45 63.5 70t93.5 25q80 0 127 -49
t47 -131z" />
    <glyph glyph-name="uni0453" unicode="&#x453;" horiz-adv-x="422" 
d="M61 0v474h345v-115h-217v-359h-128zM177 555l85 133h157v-16l-129 -117h-113z" />
    <glyph glyph-name="uni0454" unicode="&#x454;" horiz-adv-x="560" 
d="M34 240q0 107 70 175.5t173 68.5q91 0 152 -45t80 -126l-113 -38q-7 45 -38 71t-76 26q-41 0 -72.5 -21t-43.5 -60h132v-102h-132q12 -41 44.5 -63.5t78.5 -22.5q56 0 88 32t39 85l118 -41q-21 -93 -84.5 -141t-157.5 -48q-116 0 -187 68.5t-71 181.5z" />
    <glyph glyph-name="uni0455" unicode="&#x455;" horiz-adv-x="476" 
d="M26 117l100 53q33 -75 119 -75q36 0 56.5 12.5t20.5 33.5q0 25 -24 39t-86 23q-162 25 -162 142q0 60 53.5 99.5t127.5 39.5q134 0 180 -100l-97 -53q-18 54 -80 54q-29 0 -48 -11.5t-19 -29.5q0 -21 22.5 -32t82.5 -20q90 -14 129.5 -49.5t39.5 -99.5q0 -66 -57 -109.5
t-143 -43.5q-163 0 -215 127z" />
    <glyph glyph-name="uni0456" unicode="&#x456;" horiz-adv-x="250" 
d="M61 474h128v-474h-128v474zM57 545v135h137v-135h-137z" />
    <glyph glyph-name="uni0457" unicode="&#x457;" horiz-adv-x="250" 
d="M61 474h128v-474h-128v474zM-35 559v129h127v-129h-127zM157 559v129h127v-129h-127z" />
    <glyph glyph-name="uni0458" unicode="&#x458;" horiz-adv-x="250" 
d="M61 -198v672h128v-672h-128zM57 545v135h137v-135h-137z" />
    <glyph glyph-name="uni0459" unicode="&#x459;" horiz-adv-x="810" 
d="M18 0v16q30 56 44 124q16 68 16 190v144h394v-160h124q81 0 126.5 -41t45.5 -113t-46.5 -116t-125.5 -44h-244v359h-149v-24q0 -215 -60 -335h-125zM472 102h118q29 0 45 15t16 40t-16 40.5t-45 15.5h-118v-111z" />
    <glyph glyph-name="uni045A" unicode="&#x45a;" horiz-adv-x="842" 
d="M61 0v474h125v-176h192v176h126v-181h126q81 0 125.5 -38t44.5 -109t-44.5 -108.5t-125.5 -37.5h-252v186h-192v-186h-125zM504 102h124q54 0 54 45q0 44 -54 44h-124v-89z" />
    <glyph glyph-name="uni045B" unicode="&#x45b;" horiz-adv-x="581" 
d="M189 0h-128v700h128v-311q22 45 63.5 70t93.5 25q80 0 127 -49t47 -131v-304h-127v274q0 49 -25.5 76.5t-71.5 27.5q-47 0 -77 -36t-30 -96v-246zM0 645h323v-96h-323v96z" />
    <glyph glyph-name="uni045C" unicode="&#x45c;" horiz-adv-x="518" 
d="M61 0v474h125v-168l145 168h158l-205 -224l215 -250h-154l-159 191v-191h-125zM203 555l85 133h157v-16l-129 -117h-113z" />
    <glyph glyph-name="uni045D" unicode="&#x45d;" horiz-adv-x="614" 
d="M61 0v474h125v-343l187 343h180v-474h-125v343l-186 -343h-181zM251 555l-129 117v16h157l85 -133h-113z" />
    <glyph glyph-name="uni045E" unicode="&#x45e;" horiz-adv-x="533" 
d="M392 474h130l-323 -672h-130l127 265l-190 407h134l122 -270zM395 666q0 -53 -37 -84t-93 -31t-92.5 31t-36.5 84q0 11 1 14h86l-1 -9q0 -17 12 -28.5t31 -11.5q20 0 31.5 11t11.5 29l-1 9h87q1 -3 1 -14z" />
    <glyph glyph-name="uni045F" unicode="&#x45f;" horiz-adv-x="557" 
d="M222 -110v110h-161v474h125v-359h185v359h125v-474h-161v-110h-113z" />
    <glyph glyph-name="uni0462" unicode="&#x462;" horiz-adv-x="777" 
d="M734 211q0 -98 -66 -154.5t-172 -56.5h-358v512h-137v108h137v80h135v-80h142v-108h-142v-91h223q105 0 172 -56q66 -55 66 -154zM599 211q0 38 -27.5 61.5t-72.5 23.5h-226v-171h226q45 0 72.5 24t27.5 62z" />
    <glyph glyph-name="uni0463" unicode="&#x463;" horiz-adv-x="496" 
d="M454 196q0 -93 -58.5 -144.5t-155.5 -51.5h-176v512h-126v107h126v81h120v-81h162v-107h-162v-121h56q96 0 154 -51q60 -50 60 -144zM329 196q0 40 -24 62.5t-69 22.5h-52v-171h52q45 0 69 22.5t24 63.5z" />
    <glyph glyph-name="uni0472" unicode="&#x472;" horiz-adv-x="815" 
d="M775 350q3 -148 -107 -255.5t-260 -104.5q-150 -4 -260.5 104.5t-107.5 255.5q-3 147 107.5 255t260.5 105q150 3 260 -105t107 -255zM187 419q47 27 98 27q43 0 74 -10.5t76 -34.5q36 -20 56 -27.5t45 -7.5q59 0 97 38q-16 81 -79 130q-61 49 -146 49
q-80 0 -140.5 -44.5t-80.5 -119.5zM629 282q-42 -27 -98 -27q-44 0 -75 10.5t-76 35.5q-58 34 -100 34q-57 0 -97 -40q16 -80 79 -129q63 -48 146 -48q78 0 140 44q62 45 81 120z" />
    <glyph glyph-name="uni0473" unicode="&#x473;" horiz-adv-x="564" 
d="M530 235q0 -106 -70 -175.5t-178 -69.5t-178 69.5t-70 175.5q0 107 70.5 178t177.5 71t177.5 -71t70.5 -178zM167 299q25 5 39 5q34 0 89 -26q44 -21 63 -21q28 0 47 18q-10 45 -43.5 72t-79.5 27q-81 0 -115 -75zM401 182q-21 -10 -53 -10q-34 0 -89 26q-44 21 -63 21
q-22 0 -39 -12q8 -49 42 -77.5t83 -28.5q42 0 74 21.5t45 59.5z" />
    <glyph glyph-name="uni0474" unicode="&#x474;" horiz-adv-x="834" 
d="M282 0l-273 700h149l220 -594l189 499q43 115 151 115q112 0 140 -107l-97 -53q-7 31 -34 31q-25 0 -38 -35l-215 -556h-192z" />
    <glyph glyph-name="uni0475" unicode="&#x475;" horiz-adv-x="595" 
d="M202 0l-185 474h135l128 -354l103 275q37 100 129 100q81 0 112 -73l-76 -65q-7 19 -25 19q-19 0 -30 -26l-136 -350h-155z" />
    <glyph glyph-name="uni0490" unicode="&#x490;" horiz-adv-x="623" 
d="M468 870h130v-295h-395v-575h-135v700h400v170z" />
    <glyph glyph-name="uni0491" unicode="&#x491;" horiz-adv-x="422" 
d="M286 585h120v-226h-217v-359h-128v474h225v111z" />
    <glyph glyph-name="uni0492" unicode="&#x492;" horiz-adv-x="676" 
d="M630 575h-395v-163h237v-103h-237v-309h-135v309h-86v103h86v288h530v-125z" />
    <glyph glyph-name="uni0493" unicode="&#x493;" horiz-adv-x="436" 
d="M421 359h-215v-81h114v-91h-114v-187h-128v187h-67v91h67v196h343v-115z" />
    <glyph glyph-name="uni0496" unicode="&#x496;" horiz-adv-x="1083" 
d="M722 366l350 -366h-187l-276 294v-294h-135v294l-275 -294h-188l350 366l-331 334h176l268 -272v272h135v-272l269 272h176zM955 -110v233h123v-233h-123z" />
    <glyph glyph-name="uni0497" unicode="&#x497;" horiz-adv-x="775" 
d="M19 0l215 250l-205 224h155l142 -166v166h123v-166l142 166h155l-205 -224l215 -250h-151l-156 189v-189h-123v189l-156 -189h-151zM668 -110v213h113v-213h-113z" />
    <glyph glyph-name="uni0498" unicode="&#x498;" horiz-adv-x="598" 
d="M36 214l123 46q4 -64 43 -105.5t106 -41.5q56 0 88.5 22.5t32.5 66.5q0 46 -30 70t-83 24h-40v115h46q48 0 73.5 22.5t25.5 64.5q0 43 -31.5 67.5t-86.5 24.5q-109 0 -131 -114l-112 49q18 84 81.5 134.5t165.5 50.5q107 0 173 -55t66 -147q0 -58 -29 -97.5t-76 -54.5
q52 -16 83.5 -56.5t31.5 -104.5q0 -100 -70 -152q-70 -53 -180 -53q-112 0 -183 61t-87 163zM281 -48q20 18 45 18q36 0 58 -20.5t22 -56.5t-24 -58.5t-63 -22.5q-79 0 -91 65l60 15q2 -26 30 -26q13 0 21 7.5t8 19.5q0 27 -29 27q-20 0 -29 -15l-59 11q13 50 20 100h60
q-12 -37 -29 -64z" />
    <glyph glyph-name="uni0499" unicode="&#x499;" horiz-adv-x="475" 
d="M28 146l102 45q7 -43 35 -69t74 -26q79 0 79 52q0 20 -16.5 32t-43.5 12h-44v97h35q28 0 45 12.5t17 34.5q0 23 -19 36.5t-50 13.5q-70 0 -90 -80l-102 48q43 130 190 130q85 0 137 -36t52 -98q0 -39 -20 -68t-56 -41q39 -9 62.5 -36.5t23.5 -71.5q0 -67 -55 -105
t-149 -38q-85 0 -140 43t-67 113zM219 -48q20 18 45 18q36 0 58 -20.5t22 -56.5t-24 -58.5t-63 -22.5q-79 0 -91 65l60 15q2 -26 30 -26q13 0 21 7.5t8 19.5q0 27 -29 27q-20 0 -29 -15l-59 11q13 50 20 100h60q-12 -37 -29 -64z" />
    <glyph glyph-name="uni049A" unicode="&#x49a;" horiz-adv-x="677" 
d="M68 0v700h135v-272l269 272h176l-332 -334l350 -366h-187l-276 294v-294h-135zM549 -110v233h123v-233h-123z" />
    <glyph glyph-name="uni049B" unicode="&#x49b;" horiz-adv-x="518" 
d="M61 0v474h125v-168l145 168h158l-205 -224l215 -250h-154l-159 191v-191h-125zM411 -110v213h113v-213h-113z" />
    <glyph glyph-name="uni04A0" unicode="&#x4a0;" horiz-adv-x="851" 
d="M490 366l350 -366h-187l-276 294v-294h-135v585h-217v115h352v-272l269 272h176z" />
    <glyph glyph-name="uni04A1" unicode="&#x4a1;" horiz-adv-x="589" 
d="M355 250l215 -250h-154l-159 191v-191h-125v378h-127v96h252v-168l145 168h158z" />
    <glyph glyph-name="uni04A2" unicode="&#x4a2;" horiz-adv-x="751" 
d="M548 283h-345v-283h-135v700h135v-295h345v295h135v-700h-135v283zM675 -110v233h123v-233h-123z" />
    <glyph glyph-name="uni04A3" unicode="&#x4a3;" horiz-adv-x="637" 
d="M186 474v-174h197v174h125v-474h-125v185h-197v-185h-125v474h125zM506 -110v213h113v-213h-113z" />
    <glyph glyph-name="uni04AA" unicode="&#x4aa;" horiz-adv-x="790" 
d="M178 350q0 -108 63.5 -172.5t160.5 -64.5q96 0 156 56t78 150l123 -49q-28 -127 -122 -204q-92 -76 -236 -76q-162 0 -261.5 101.5t-99.5 258.5q-2 151 103.5 257t257.5 103q131 0 214.5 -65.5t109.5 -168.5l-124 -55q-15 77 -68 122t-133 45q-95 0 -158.5 -65.5
t-63.5 -172.5zM374 -48q20 18 45 18q36 0 58 -20.5t22 -56.5t-24 -58.5t-63 -22.5q-79 0 -91 65l60 15q2 -26 30 -26q13 0 21 7.5t8 19.5q0 27 -29 27q-20 0 -29 -15l-59 11q13 50 20 100h60q-12 -37 -29 -64z" />
    <glyph glyph-name="uni04AB" unicode="&#x4ab;" horiz-adv-x="560" 
d="M289 103q56 0 88 32t39 85l118 -41q-21 -93 -84.5 -141t-157.5 -48q-116 0 -187 68.5t-71 181.5q0 105 72 174.5t173 69.5q91 0 152.5 -45.5t77.5 -125.5l-113 -38q-7 45 -38 71t-76 26q-49 0 -86 -36t-37 -96q0 -61 38.5 -99t91.5 -38zM260 -48q20 18 45 18
q36 0 58 -20.5t22 -56.5t-24 -58.5t-63 -22.5q-79 0 -91 65l60 15q2 -26 30 -26q13 0 21 7.5t8 19.5q0 27 -29 27q-20 0 -29 -15l-59 11q13 50 20 100h60q-12 -37 -29 -64z" />
    <glyph glyph-name="uni04AE" unicode="&#x4ae;" horiz-adv-x="692" 
d="M171 700l175 -296l185 296h150l-267 -422v-278h-135v278l-268 422h160z" />
    <glyph glyph-name="uni04AF" unicode="&#x4af;" horiz-adv-x="559" 
d="M216 -198v198l-199 474h135l128 -333l127 333h135l-198 -474v-198h-128z" />
    <glyph glyph-name="uni04B0" unicode="&#x4b0;" horiz-adv-x="692" 
d="M681 700l-206 -326h100v-96h-161v-278h-135v278h-162v96h101l-207 326h160l175 -296l185 296h150z" />
    <glyph glyph-name="uni04B1" unicode="&#x4b1;" horiz-adv-x="559" 
d="M542 474l-177 -424h94v-100h-115v-148h-128v148h-115v100h94l-178 424h135l128 -333l127 333h135z" />
    <glyph glyph-name="uni04B2" unicode="&#x4b2;" horiz-adv-x="715" 
d="M15 0l265 380l-225 320h160l143 -217l142 217h160l-225 -320l265 -380h-160l-182 273l-183 -273h-160zM610 -110v233h123v-233h-123z" />
    <glyph glyph-name="uni04B3" unicode="&#x4b3;" horiz-adv-x="505" 
d="M476 474l-154 -223l172 -251h-145l-97 151l-96 -151h-145l172 251l-154 223h145l78 -124l79 124h145zM403 -110v213h113v-213h-113z" />
    <glyph glyph-name="uni04B6" unicode="&#x4b6;" horiz-adv-x="708" 
d="M505 0v225q-76 -67 -187 -67q-119 0 -188 73t-69 189v280h135v-261q0 -74 39 -115t108 -41q87 0 162 81v336h135v-700h-135zM640 -110v233h123v-233h-123z" />
    <glyph glyph-name="uni04B7" unicode="&#x4b7;" horiz-adv-x="639" 
d="M384 266v208h125v-474h-125v169q-55 -58 -150 -58q-81 0 -127 48t-46 129v186h125v-151q0 -105 96 -105q60 0 102 48zM509 -110v213h113v-213h-113z" />
    <glyph glyph-name="uni04BA" unicode="&#x4ba;" horiz-adv-x="708" 
d="M68 0v700h135v-224q78 66 188 66q119 0 187.5 -73t68.5 -189v-280h-135v261q0 74 -38.5 115t-107.5 41q-87 0 -163 -80v-337h-135z" />
    <glyph glyph-name="uni04BB" unicode="&#x4bb;" horiz-adv-x="581" 
d="M189 0h-128v700h128v-311q22 45 63.5 70t93.5 25q80 0 127 -49t47 -131v-304h-127v274q0 49 -25.5 76.5t-71.5 27.5q-47 0 -77 -36t-30 -96v-246z" />
    <glyph glyph-name="uni04C0" unicode="&#x4c0;" horiz-adv-x="271" 
d="M68 0v700h135v-700h-135z" />
    <glyph glyph-name="uni04C1" unicode="&#x4c1;" horiz-adv-x="1083" 
d="M722 366l350 -366h-187l-276 294v-294h-135v294l-275 -294h-188l350 366l-331 334h176l268 -272v272h135v-272l269 272h176zM672 892q0 -53 -37 -84t-93 -31t-92.5 31t-36.5 84q0 11 1 14h86l-1 -9q0 -17 12 -28.5t31 -11.5q20 0 31.5 11t11.5 29l-1 9h87q1 -3 1 -14z
" />
    <glyph glyph-name="uni04C2" unicode="&#x4c2;" horiz-adv-x="775" 
d="M19 0l215 250l-205 224h155l142 -166v166h123v-166l142 166h155l-205 -224l215 -250h-151l-156 189v-189h-123v189l-156 -189h-151zM518 666q0 -53 -37 -84t-93 -31t-92.5 31t-36.5 84q0 11 1 14h86l-1 -9q0 -17 12 -28.5t31 -11.5q20 0 31.5 11t11.5 29l-1 9h87
q1 -3 1 -14z" />
    <glyph glyph-name="uni04CF" unicode="&#x4cf;" horiz-adv-x="250" 
d="M61 0v700h128v-700h-128z" />
    <glyph glyph-name="uni04D0" unicode="&#x4d0;" horiz-adv-x="776" 
d="M11 0l282 700h191l281 -700h-149l-61 158h-334l-60 -158h-150zM268 280h241l-121 313zM518 892q0 -53 -37 -84t-93 -31t-92.5 31t-36.5 84q0 11 1 14h86l-1 -9q0 -17 12 -28.5t31 -11.5q20 0 31.5 11t11.5 29l-1 9h87q1 -3 1 -14z" />
    <glyph glyph-name="uni04D1" unicode="&#x4d1;" horiz-adv-x="532" 
d="M41 137q0 74 49.5 113t135.5 39q44 0 81 -10l42 -10v30q0 40 -26 62.5t-71 22.5q-85 0 -103 -79l-111 30q19 70 74.5 109.5t140.5 39.5q107 0 162.5 -49t55.5 -143v-292h-117v73q-47 -83 -157 -83q-64 0 -110 40.5t-46 106.5zM349 175v4l-29 9q-47 14 -74 14
q-75 0 -75 -57t77 -57q45 0 73 23t28 64zM384 666q0 -53 -37 -84t-93 -31t-92.5 31t-36.5 84q0 11 1 14h86l-1 -9q0 -17 12 -28.5t31 -11.5q20 0 31.5 11t11.5 29l-1 9h87q1 -3 1 -14z" />
    <glyph glyph-name="uni04D2" unicode="&#x4d2;" horiz-adv-x="776" 
d="M11 0l282 700h191l281 -700h-149l-61 158h-334l-60 -158h-150zM268 280h241l-121 313zM229 785v129h127v-129h-127zM421 785v129h127v-129h-127z" />
    <glyph glyph-name="uni04D3" unicode="&#x4d3;" horiz-adv-x="532" 
d="M41 137q0 74 49.5 113t135.5 39q44 0 81 -10l42 -10v30q0 40 -26 62.5t-71 22.5q-85 0 -103 -79l-111 30q19 70 74.5 109.5t140.5 39.5q107 0 162.5 -49t55.5 -143v-292h-117v73q-47 -83 -157 -83q-64 0 -110 40.5t-46 106.5zM349 175v4l-29 9q-47 14 -74 14
q-75 0 -75 -57t77 -57q45 0 73 23t28 64zM95 559v129h127v-129h-127zM287 559v129h127v-129h-127z" />
    <glyph glyph-name="uni04D4" unicode="&#x4d4;" horiz-adv-x="989" 
d="M593 125h352v-125h-487v158h-215l-82 -158h-150l365 700h559v-127h-342v-150h312v-125h-312v-173zM458 280v293l-152 -293h152z" />
    <glyph glyph-name="uni04D5" unicode="&#x4d5;" horiz-adv-x="853" 
d="M41 137q0 73 49 111.5t135 38.5h129v10q0 40 -28 63.5t-76 23.5q-44 0 -71 -20.5t-34 -56.5l-106 29q18 72 72.5 110t139.5 38q123 0 178 -73q57 73 160 73q99 0 159.5 -58t60.5 -155q0 -31 -6 -58h-322q1 -52 36.5 -83t88.5 -31q86 0 110 82l109 -43q-25 -70 -82 -109
t-139 -39q-67 0 -116.5 28.5t-71.5 77.5q-65 -106 -206 -106q-72 0 -120.5 42t-48.5 105zM481 298h203l1 4q0 36 -26.5 57.5t-69.5 21.5q-40 0 -69.5 -22.5t-38.5 -60.5zM354 183v24h-104q-37 0 -59 -15.5t-22 -44.5q0 -57 74 -57q51 0 81 26t30 67z" />
    <glyph glyph-name="uni04D6" unicode="&#x4d6;" horiz-adv-x="648" 
d="M68 700h526v-125h-391v-152h361v-125h-361v-173h401v-125h-536v700zM447 892q0 -53 -37 -84t-93 -31t-92.5 31t-36.5 84q0 11 1 14h86l-1 -9q0 -17 12 -28.5t31 -11.5q20 0 31.5 11t11.5 29l-1 9h87q1 -3 1 -14z" />
    <glyph glyph-name="uni04D7" unicode="&#x4d7;" horiz-adv-x="534" 
d="M397 181l109 -43q-25 -70 -82 -109t-139 -39q-111 0 -181 69t-70 181q0 103 66.5 173.5t169.5 70.5q99 0 159.5 -58t60.5 -155q0 -31 -6 -58h-322q1 -52 36.5 -82.5t88.5 -30.5q87 0 110 81zM162 298h203l1 4q0 36 -26.5 57.5t-69.5 21.5q-40 0 -69.5 -22.5t-38.5 -60.5z
M400 666q0 -53 -37 -84t-93 -31t-92.5 31t-36.5 84q0 11 1 14h86l-1 -9q0 -17 12 -28.5t31 -11.5q20 0 31.5 11t11.5 29l-1 9h87q1 -3 1 -14z" />
    <glyph glyph-name="uni04D8" unicode="&#x4d8;" horiz-adv-x="735" 
d="M695 350q2 -152 -96.5 -257.5t-247.5 -102.5q-142 0 -230.5 85.5t-88.5 225.5q0 43 9 80h518q-9 95 -69 148.5t-154 53.5q-63 0 -108.5 -34t-67.5 -90l-128 55q33 87 114 141q80 55 192 55q159 0 258 -99t99 -261zM550 266h-375l-1 -7q3 -60 52.5 -100.5t125.5 -40.5
q75 0 126.5 38t71.5 110z" />
    <glyph glyph-name="uni04D9" unicode="&#x4d9;" horiz-adv-x="534" 
d="M137 293l-109 43q25 70 82 109t139 39q111 0 181 -69t70 -181q0 -103 -66.5 -173.5t-169.5 -70.5q-99 0 -159.5 58t-60.5 155q0 31 6 58h322q-1 52 -36.5 82.5t-88.5 30.5q-87 0 -110 -81zM372 176h-203l-1 -4q0 -36 26.5 -57.5t69.5 -21.5q40 0 69.5 22.5t38.5 60.5z
" />
    <glyph glyph-name="uni04DA" unicode="&#x4da;" horiz-adv-x="735" 
d="M695 350q2 -152 -96.5 -257.5t-247.5 -102.5q-142 0 -230.5 85.5t-88.5 225.5q0 43 9 80h518q-9 95 -69 148.5t-154 53.5q-63 0 -108.5 -34t-67.5 -90l-128 55q33 87 114 141q80 55 192 55q159 0 258 -99t99 -261zM550 266h-375l-1 -7q3 -60 52.5 -100.5t125.5 -40.5
q75 0 126.5 38t71.5 110zM179 785v129h127v-129h-127zM371 785v129h127v-129h-127z" />
    <glyph glyph-name="uni04DB" unicode="&#x4db;" horiz-adv-x="534" 
d="M137 293l-109 43q25 70 82 109t139 39q111 0 181 -69t70 -181q0 -103 -66.5 -173.5t-169.5 -70.5q-99 0 -159.5 58t-60.5 155q0 31 6 58h322q-1 52 -36.5 82.5t-88.5 30.5q-87 0 -110 -81zM372 176h-203l-1 -4q0 -36 26.5 -57.5t69.5 -21.5q40 0 69.5 22.5t38.5 60.5z
M106 559v129h127v-129h-127zM298 559v129h127v-129h-127z" />
    <glyph glyph-name="uni04DC" unicode="&#x4dc;" horiz-adv-x="1083" 
d="M722 366l350 -366h-187l-276 294v-294h-135v294l-275 -294h-188l350 366l-331 334h176l268 -272v272h135v-272l269 272h176zM383 785v129h127v-129h-127zM575 785v129h127v-129h-127z" />
    <glyph glyph-name="uni04DD" unicode="&#x4dd;" horiz-adv-x="775" 
d="M19 0l215 250l-205 224h155l142 -166v166h123v-166l142 166h155l-205 -224l215 -250h-151l-156 189v-189h-123v189l-156 -189h-151zM229 559v129h127v-129h-127zM421 559v129h127v-129h-127z" />
    <glyph glyph-name="uni04DE" unicode="&#x4de;" horiz-adv-x="598" 
d="M36 214l123 46q4 -64 43 -105.5t106 -41.5q56 0 88.5 22.5t32.5 66.5q0 46 -30 70t-83 24h-40v115h46q48 0 73.5 22.5t25.5 64.5q0 43 -31.5 67.5t-86.5 24.5q-109 0 -131 -114l-112 49q18 84 81.5 134.5t165.5 50.5q107 0 173 -55t66 -147q0 -58 -29 -97.5t-76 -54.5
q52 -16 83.5 -56.5t31.5 -104.5q0 -100 -70 -152q-70 -53 -180 -53q-112 0 -183 61t-87 163zM150 785v129h127v-129h-127zM342 785v129h127v-129h-127z" />
    <glyph glyph-name="uni04DF" unicode="&#x4df;" horiz-adv-x="475" 
d="M28 146l102 45q7 -43 35 -69t74 -26q79 0 79 52q0 20 -16.5 32t-43.5 12h-44v97h35q28 0 45 12.5t17 34.5q0 23 -19 36.5t-50 13.5q-70 0 -90 -80l-102 48q43 130 190 130q85 0 137 -36t52 -98q0 -39 -20 -68t-56 -41q39 -9 62.5 -36.5t23.5 -71.5q0 -67 -55 -105
t-149 -38q-85 0 -140 43t-67 113zM84 559v129h127v-129h-127zM276 559v129h127v-129h-127z" />
    <glyph glyph-name="uni04E2" unicode="&#x4e2;" horiz-adv-x="795" 
d="M592 607l-291 -607h-233v700h135v-607l291 607h233v-700h-135v607zM257 886h266v-90h-266v90z" />
    <glyph glyph-name="uni04E3" unicode="&#x4e3;" horiz-adv-x="614" 
d="M61 0v474h125v-343l187 343h180v-474h-125v343l-186 -343h-181zM174 660h266v-90h-266v90z" />
    <glyph glyph-name="uni04E4" unicode="&#x4e4;" horiz-adv-x="795" 
d="M592 607l-291 -607h-233v700h135v-607l291 607h233v-700h-135v607zM231 785v129h127v-129h-127zM423 785v129h127v-129h-127z" />
    <glyph glyph-name="uni04E5" unicode="&#x4e5;" horiz-adv-x="614" 
d="M61 0v474h125v-343l187 343h180v-474h-125v343l-186 -343h-181zM148 559v129h127v-129h-127zM340 559v129h127v-129h-127z" />
    <glyph glyph-name="uni04E6" unicode="&#x4e6;" horiz-adv-x="815" 
d="M408 710q150 3 260 -105t107 -255q3 -148 -107 -255.5t-260 -104.5q-150 -4 -260.5 104.5t-107.5 255.5q-3 147 107.5 255t260.5 105zM408 118q97 0 163.5 64.5t66.5 167.5t-66 168t-164 65t-164 -65t-66 -168t66.5 -167.5t163.5 -64.5zM247 785v129h127v-129h-127z
M439 785v129h127v-129h-127z" />
    <glyph glyph-name="uni04E7" unicode="&#x4e7;" horiz-adv-x="564" 
d="M34 237q0 107 70 177t178 70t178 -70t70 -177q0 -106 -70.5 -176.5t-177.5 -70.5t-177.5 70.5t-70.5 176.5zM405 237q0 59 -34.5 95.5t-88.5 36.5t-88.5 -36.5t-34.5 -95.5t34.5 -95.5t88.5 -36.5t88.5 36.5t34.5 95.5zM123 559v129h127v-129h-127zM315 559v129h127v-129
h-127z" />
    <glyph glyph-name="uni04E8" unicode="&#x4e8;" horiz-adv-x="815" 
d="M40 350q-3 147 107.5 255t260.5 105q150 3 260 -105t107 -255q3 -148 -107 -255.5t-260 -104.5q-150 -4 -260.5 104.5t-107.5 255.5zM183 402h449q-16 82 -78 132q-61 49 -146 49q-83 0 -147 -50q-62 -50 -78 -131zM632 297h-449q16 -81 78 -131q63 -48 147 -48t145 48
q63 49 79 131z" />
    <glyph glyph-name="uni04E9" unicode="&#x4e9;" horiz-adv-x="564" 
d="M34 236q0 107 70.5 177.5t177.5 70.5t177.5 -70.5t70.5 -177.5q0 -106 -70.5 -176t-177.5 -70t-177.5 70t-70.5 176zM161 279h243q-11 44 -44 69.5t-78 25.5q-44 0 -77 -25.5t-44 -69.5zM404 195h-244q11 -44 44 -69t78 -25q46 0 79 25t43 69z" />
    <glyph glyph-name="uni04EA" unicode="&#x4ea;" horiz-adv-x="815" 
d="M40 350q-3 147 107.5 255t260.5 105q150 3 260 -105t107 -255q3 -148 -107 -255.5t-260 -104.5q-150 -4 -260.5 104.5t-107.5 255.5zM183 402h449q-16 82 -78 132q-61 49 -146 49q-83 0 -147 -50q-62 -50 -78 -131zM632 297h-449q16 -81 78 -131q63 -48 147 -48t145 48
q63 49 79 131zM249 785v129h127v-129h-127zM441 785v129h127v-129h-127z" />
    <glyph glyph-name="uni04EB" unicode="&#x4eb;" horiz-adv-x="564" 
d="M34 236q0 107 70.5 177.5t177.5 70.5t177.5 -70.5t70.5 -177.5q0 -106 -70.5 -176t-177.5 -70t-177.5 70t-70.5 176zM161 279h243q-11 44 -44 69.5t-78 25.5q-44 0 -77 -25.5t-44 -69.5zM404 195h-244q11 -44 44 -69t78 -25q46 0 79 25t43 69zM123 559v129h127v-129h-127
zM315 559v129h127v-129h-127z" />
    <glyph glyph-name="uni04EC" unicode="&#x4ec;" horiz-adv-x="790" 
d="M31 270l124 49q16 -94 77 -150t157 -56q84 0 143.5 47t76.5 130h-293v125h292q-18 79 -78 126q-61 47 -139 47q-80 0 -133.5 -45t-68.5 -122l-123 55q26 101 111 167.5t216 66.5q153 2 256 -102t101 -258q0 -159 -97.5 -259.5t-263.5 -100.5q-144 0 -236 76
q-92 77 -122 204zM234 785v129h127v-129h-127zM426 785v129h127v-129h-127z" />
    <glyph glyph-name="uni04ED" unicode="&#x4ed;" horiz-adv-x="560" 
d="M526 240q0 -113 -71 -181.5t-187 -68.5q-94 0 -157.5 48t-84.5 141l118 41q7 -53 39 -85t88 -32q46 0 78.5 22.5t44.5 63.5h-132v102h132q-12 39 -43.5 60t-72.5 21q-45 0 -76 -26t-38 -71l-113 38q19 81 80 126t152 45q103 0 173 -68.5t70 -175.5zM120 559v129h127v-129
h-127zM312 559v129h127v-129h-127z" />
    <glyph glyph-name="uni04EE" unicode="&#x4ee;" horiz-adv-x="725" 
d="M113 0l174 264l-274 436h162l189 -311l194 311h154l-442 -700h-157zM232 886h266v-90h-266v90z" />
    <glyph glyph-name="uni04EF" unicode="&#x4ef;" horiz-adv-x="533" 
d="M392 474h130l-323 -672h-130l127 265l-190 407h134l122 -270zM132 660h266v-90h-266v90z" />
    <glyph glyph-name="uni04F0" unicode="&#x4f0;" horiz-adv-x="725" 
d="M113 0l174 264l-274 436h162l189 -311l194 311h154l-442 -700h-157zM206 785v129h127v-129h-127zM398 785v129h127v-129h-127z" />
    <glyph glyph-name="uni04F1" unicode="&#x4f1;" horiz-adv-x="533" 
d="M392 474h130l-323 -672h-130l127 265l-190 407h134l122 -270zM106 559v129h127v-129h-127zM298 559v129h127v-129h-127z" />
    <glyph glyph-name="uni04F2" unicode="&#x4f2;" horiz-adv-x="725" 
d="M113 0l174 264l-274 436h162l189 -311l194 311h154l-442 -700h-157zM204 781l85 133h157v-16l-129 -117h-113zM415 781l85 133h157v-16l-129 -117h-113z" />
    <glyph glyph-name="uni04F3" unicode="&#x4f3;" horiz-adv-x="533" 
d="M392 474h130l-323 -672h-130l127 265l-190 407h134l122 -270zM104 555l85 133h157v-16l-129 -117h-113zM315 555l85 133h157v-16l-129 -117h-113z" />
    <glyph glyph-name="uni04F4" unicode="&#x4f4;" horiz-adv-x="708" 
d="M505 0v225q-76 -67 -187 -67q-119 0 -188 73t-69 189v280h135v-261q0 -74 39 -115t108 -41q87 0 162 81v336h135v-700h-135zM192 785v129h127v-129h-127zM384 785v129h127v-129h-127z" />
    <glyph glyph-name="uni04F5" unicode="&#x4f5;" horiz-adv-x="570" 
d="M384 266v208h125v-474h-125v169q-55 -58 -150 -58q-81 0 -127 48t-46 129v186h125v-151q0 -105 96 -105q60 0 102 48zM126 559v129h127v-129h-127zM318 559v129h127v-129h-127z" />
    <glyph glyph-name="uni04F8" unicode="&#x4f8;" horiz-adv-x="979" 
d="M68 0v700h135v-279h223q105 0 172 -56q66 -55 66 -154q0 -98 -66 -154.5t-172 -56.5h-358zM203 125h226q45 0 72.5 24t27.5 62t-27.5 61.5t-72.5 23.5h-226v-171zM776 0v700h135v-700h-135zM317 785v129h127v-129h-127zM509 785v129h127v-129h-127z" />
    <glyph glyph-name="uni04F9" unicode="&#x4f9;" horiz-adv-x="769" 
d="M61 0v474h120v-160h124q81 0 126.5 -41t45.5 -113t-46.5 -116t-125.5 -44h-244zM181 102h118q29 0 45 15t16 40t-16 40.5t-45 15.5h-118v-111zM580 474h128v-474h-128v474zM226 559v129h127v-129h-127zM418 559v129h127v-129h-127z" />
    <glyph glyph-name="uni0527" unicode="&#x527;" horiz-adv-x="651" 
d="M189 0h-128v700h128v-311q22 45 63.5 70t93.5 25q80 0 127 -49t47 -131v-304h-127v274q0 49 -25.5 76.5t-71.5 27.5q-47 0 -77 -36t-30 -96v-246zM520 -110v213h113v-213h-113z" />
    <glyph glyph-name="uni0E3F" unicode="&#xe3f;" horiz-adv-x="705" 
d="M661 193q0 -88 -65.5 -140.5t-172.5 -52.5h-28v-98h-107v98h-220v700h220v98h107v-98h16q101 0 163 -50t62 -132q0 -110 -113 -158q66 -17 102 -60t36 -107zM201 578v-158h87v158h-87zM408 578h-13v-158h13q48 0 73 21t25 59q0 37 -26 57.5t-72 20.5zM201 123h87v175h-87
v-175zM528 213q0 39 -26.5 62t-73.5 23h-33v-175h33q47 0 73.5 24t26.5 66z" />
    <glyph glyph-name="Wgrave" unicode="&#x1e80;" horiz-adv-x="1022" 
d="M159 0l-148 700h140l120 -610l125 610h230l125 -610l120 610h140l-147 -700h-225l-128 610l-127 -610h-225zM455 781l-129 117v16h157l85 -133h-113z" />
    <glyph glyph-name="wgrave" unicode="&#x1e81;" horiz-adv-x="775" 
d="M143 474l87 -354l83 354h150l82 -354l88 354h127l-130 -474h-165l-77 308l-78 -308h-165l-130 474h128zM332 555l-129 117v16h157l85 -133h-113z" />
    <glyph glyph-name="Wacute" unicode="&#x1e82;" horiz-adv-x="1022" 
d="M159 0l-148 700h140l120 -610l125 610h230l125 -610l120 610h140l-147 -700h-225l-128 610l-127 -610h-225zM455 781l85 133h157v-16l-129 -117h-113z" />
    <glyph glyph-name="wacute" unicode="&#x1e83;" horiz-adv-x="775" 
d="M143 474l87 -354l83 354h150l82 -354l88 354h127l-130 -474h-165l-77 308l-78 -308h-165l-130 474h128zM332 555l85 133h157v-16l-129 -117h-113z" />
    <glyph glyph-name="Wdieresis" unicode="&#x1e84;" horiz-adv-x="1022" 
d="M159 0l-148 700h140l120 -610l125 610h230l125 -610l120 610h140l-147 -700h-225l-128 610l-127 -610h-225zM352 785v129h127v-129h-127zM544 785v129h127v-129h-127z" />
    <glyph glyph-name="wdieresis" unicode="&#x1e85;" horiz-adv-x="775" 
d="M143 474l87 -354l83 354h150l82 -354l88 354h127l-130 -474h-165l-77 308l-78 -308h-165l-130 474h128zM229 559v129h127v-129h-127zM421 559v129h127v-129h-127z" />
    <glyph glyph-name="uni1E9E" unicode="&#x1e9e;" horiz-adv-x="725" 
d="M222 113l113 65q25 -62 100 -62q47 0 79 30.5t32 80.5t-31.5 79.5t-78.5 29.5q-61 0 -93 -49l-88 78l202 210h-121q-73 0 -106.5 -33.5t-33.5 -106.5v-435h-135v435q0 138 66 201.5t207 63.5h290v-125l-158 -152q13 4 40 4q72 0 123.5 -56.5t51.5 -144.5
q0 -103 -67 -169.5t-179 -66.5q-157 0 -213 123z" />
    <glyph glyph-name="Ygrave" unicode="&#x1ef2;" horiz-adv-x="692" 
d="M171 700l175 -296l185 296h150l-267 -422v-278h-135v278l-268 422h160zM290 781l-129 117v16h157l85 -133h-113z" />
    <glyph glyph-name="ygrave" unicode="&#x1ef3;" horiz-adv-x="533" 
d="M392 474h130l-323 -672h-130l127 265l-190 407h134l122 -270zM209 555l-129 117v16h157l85 -133h-113z" />
    <glyph glyph-name="endash" unicode="&#x2013;" horiz-adv-x="664" 
d="M47 310h570v-115h-570v115z" />
    <glyph glyph-name="emdash" unicode="&#x2014;" horiz-adv-x="914" 
d="M47 310h820v-115h-820v115z" />
    <glyph glyph-name="quoteleft" unicode="&#x2018;" horiz-adv-x="246" 
d="M183 430h-140v173q0 97 110 97h50v-65h-50q-45 0 -45 -32q0 -33 40 -33h35v-140z" />
    <glyph glyph-name="quoteright" unicode="&#x2019;" horiz-adv-x="246" 
d="M63 700h140v-172q0 -98 -110 -98h-50v65h51q44 0 44 33q0 32 -39 32h-36v140z" />
    <glyph glyph-name="quotesinglbase" unicode="&#x201a;" horiz-adv-x="246" 
d="M63 140h140v-173q0 -97 -110 -97h-50v65h51q44 0 44 32q0 33 -39 33h-36v140z" />
    <glyph glyph-name="quotedblleft" unicode="&#x201c;" horiz-adv-x="446" 
d="M43 430v173q0 97 110 97h50v-65h-50q-45 0 -45 -32q0 -33 40 -33h35v-140h-140zM243 430v173q0 97 110 97h50v-65h-50q-45 0 -45 -32q0 -33 40 -33h35v-140h-140z" />
    <glyph glyph-name="quotedblright" unicode="&#x201d;" horiz-adv-x="446" 
d="M43 430v65h51q44 0 44 33q0 32 -39 32h-36v140h140v-172q0 -98 -110 -98h-50zM243 430v65h51q44 0 44 33q0 32 -39 32h-36v140h140v-172q0 -98 -110 -98h-50z" />
    <glyph glyph-name="quotedblbase" unicode="&#x201e;" horiz-adv-x="460" 
d="M40 -130v65h51q44 0 44 32q0 33 -39 33h-36v140h140v-173q0 -97 -110 -97h-50zM240 -130v65h51q44 0 44 32q0 33 -39 33h-36v140h140v-173q0 -97 -110 -97h-50z" />
    <glyph glyph-name="dagger" unicode="&#x2020;" horiz-adv-x="400" 
d="M155 270v280h-110v90h110v116h90v-116h110v-90h-110v-280h-90z" />
    <glyph glyph-name="daggerdbl" unicode="&#x2021;" horiz-adv-x="400" 
d="M155 270v130h-110v90h110v60h-110v90h110v116h90v-116h110v-90h-110v-60h110v-90h-110v-130h-90z" />
    <glyph glyph-name="bullet" unicode="&#x2022;" horiz-adv-x="273" 
d="M59 368h155v-155h-155v155z" />
    <glyph glyph-name="ellipsis" unicode="&#x2026;" horiz-adv-x="676" 
d="M59 140h140v-140h-140v140zM268 140h140v-140h-140v140zM477 140h140v-140h-140v140z" />
    <glyph glyph-name="perthousand" unicode="&#x2030;" horiz-adv-x="1120" 
d="M34 533q0 76 50 126.5t129 50.5t129 -50.5t50 -126.5t-50 -126.5t-129 -50.5t-129 50.5t-50 126.5zM296 533q0 40 -23 64t-60 24t-59.5 -24t-22.5 -64q0 -39 22.5 -63.5t59.5 -24.5t60 24.5t23 63.5zM208 77l-62 63l502 481l62 -63zM466 167q0 76 50 126.5t129 50.5
q85 0 131 -66q46 66 131 66q79 0 129 -50.5t50 -126.5t-50 -126.5t-129 -50.5q-83 0 -131 66q-48 -66 -131 -66q-79 0 -129 50.5t-50 126.5zM728 167q0 40 -23 64t-60 24t-59.5 -24t-22.5 -64q0 -39 22.5 -63.5t59.5 -24.5t60 24.5t23 63.5zM990 167q0 40 -23 64t-60 24
t-59.5 -24t-22.5 -64q0 -39 22.5 -63.5t59.5 -24.5t60 24.5t23 63.5z" />
    <glyph glyph-name="guilsinglleft" unicode="&#x2039;" horiz-adv-x="331" 
d="M266 77l-222 208v30l222 208h16v-126l-109 -89v-16l109 -88v-127h-16z" />
    <glyph glyph-name="guilsinglright" unicode="&#x203a;" horiz-adv-x="331" 
d="M49 77v127l109 88v16l-109 89v126h16l222 -208v-30l-222 -208h-16z" />
    <glyph glyph-name="uni203D" unicode="&#x203d;" horiz-adv-x="581" 
d="M216 200v385q-59 -30 -59 -103q0 -40 27 -77l-103 -64q-46 65 -46 141q0 82 48 141t133 81v46h115v-42q99 -12 155 -70.5t56 -136.5q0 -135 -120 -196q-58 -29 -72.5 -43t-17.5 -50v-12h-116zM361 398q57 33 57 98q0 38 -23.5 63.5t-63.5 33.5v-222q5 11 30 27zM201 0
v140h140v-140h-140z" />
    <glyph glyph-name="uni2042" unicode="&#x2042;" horiz-adv-x="920" 
d="M413 725h94v-74l-31 -87l75 58l71 23l29 -89l-70 -24h-92l74 -49l44 -60l-77 -56l-44 60l-26 89l-26 -89l-44 -60l-77 56l44 60l74 49h-91l-71 24l29 89l71 -23l75 -58l-31 87v74zM267 -25h-94v74l31 87l-75 -58l-71 -23l-29 89l71 24h91l-74 49l-44 60l77 56l44 -60
l26 -89l26 89l44 60l77 -56l-44 -60l-74 -49h92l70 -24l-29 -89l-71 23l-75 58l31 -87v-74zM747 -25h-94v74l31 87l-75 -58l-71 -23l-29 89l71 24h91l-74 49l-44 60l77 56l44 -60l26 -89l26 89l44 60l77 -56l-44 -60l-74 -49h92l70 -24l-29 -89l-71 23l-75 58l31 -87v-74z
" />
    <glyph glyph-name="fraction" unicode="&#x2044;" horiz-adv-x="149" 
d="M295 609l58 -58l-499 -477l-58 58z" />
    <glyph glyph-name="uni2051" unicode="&#x2051;" horiz-adv-x="440" 
d="M267 -25h-94v74l31 87l-75 -58l-71 -23l-29 89l71 24h91l-74 49l-44 60l77 56l44 -60l26 -89l26 89l44 60l77 -56l-44 -60l-74 -49h92l70 -24l-29 -89l-71 23l-75 58l31 -87v-74zM173 725h94v-74l-31 -87l75 58l71 23l29 -89l-70 -24h-92l74 -49l44 -60l-77 -56l-44 60
l-26 89l-26 -89l-44 -60l-77 56l44 60l74 49h-91l-71 24l29 89l71 -23l75 -58l-31 87v74z" />
    <glyph glyph-name="uni2055" unicode="&#x2055;" horiz-adv-x="800" 
d="M760 405v-110h-227l161 -161l-78 -77l-161 161v-228h-110v228l-161 -161l-77 77l161 161h-228v110h228l-161 161l77 78l161 -161v227h110v-227l161 161l78 -78l-161 -161h227z" />
    <glyph glyph-name="uni2070" unicode="&#x2070;" horiz-adv-x="370" 
d="M32 530q0 80 42 127t111 47t111 -47t42 -127t-42 -127t-111 -47t-111 47t-42 127zM257 530q0 49 -19.5 75.5t-52.5 26.5t-52.5 -26.5t-19.5 -75.5t19.5 -75.5t52.5 -26.5t52.5 26.5t19.5 75.5z" />
    <glyph glyph-name="uni2074" unicode="&#x2074;" horiz-adv-x="316" 
d="M184 360v69h-161v78q66 63 66 167v26h77v-24q0 -112 -57 -175h75v94h77v-94h45v-72h-45v-69h-77z" />
    <glyph glyph-name="uni2075" unicode="&#x2075;" horiz-adv-x="318" 
d="M272 700v-71h-159q0 -41 -9 -71q20 32 70 32q51 0 82.5 -29t31.5 -80q0 -58 -32.5 -91.5t-93.5 -33.5q-53 0 -90 28t-42 77l78 16q3 -22 18 -36t37 -14q23 0 36 14t13 36q0 21 -13 33.5t-36 12.5q-32 0 -46 -27l-81 20q15 94 15 184h221z" />
    <glyph glyph-name="uni2076" unicode="&#x2076;" horiz-adv-x="326" 
d="M32 527q0 80 37 128.5t104 48.5q104 0 121 -89l-67 -19q-4 19 -19.5 30.5t-38.5 11.5q-28 0 -45.5 -24.5t-17.5 -67.5v-4q25 40 78 40q48 0 79 -30t31 -78q0 -53 -34 -85.5t-89 -32.5q-64 0 -101.5 45.5t-37.5 125.5zM222 472q0 22 -14 35.5t-37 13.5q-21 0 -35.5 -14
t-14.5 -35t14.5 -35t35.5 -14q22 0 36.5 14t14.5 35z" />
    <glyph glyph-name="uni2077" unicode="&#x2077;" horiz-adv-x="291" 
d="M26 700h241v-64q-105 -67 -105 -197q0 -43 7 -79h-80q-5 30 -5 61q0 132 83 209h-141v70z" />
    <glyph glyph-name="uni2078" unicode="&#x2078;" horiz-adv-x="323" 
d="M29 462q0 64 59 90q-39 23 -39 65q0 40 30.5 63.5t82.5 23.5t82 -23.5t30 -63.5q0 -43 -39 -65q60 -26 60 -90q0 -47 -36 -76.5t-97 -29.5t-97 29.5t-36 76.5zM205 614q0 35 -43 35q-19 0 -31.5 -9t-12.5 -26t12.5 -26t31.5 -9q43 0 43 35zM217 471q0 21 -15.5 33.5
t-39.5 12.5t-39.5 -12.5t-15.5 -33.5t15.5 -34t39.5 -13t39.5 13t15.5 34z" />
    <glyph glyph-name="uni2079" unicode="&#x2079;" horiz-adv-x="336" 
d="M31 454l65 20q13 -51 65 -51q69 0 69 93l-1 8q-23 -42 -75 -42q-49 0 -79.5 31t-30.5 75q0 52 34 84t87 32q68 0 103.5 -45t35.5 -124q0 -81 -36 -130t-106 -49q-53 0 -87 26t-44 72zM217 589q0 22 -14 35t-36 13t-36.5 -13.5t-14.5 -34.5t14.5 -34.5t36.5 -13.5t36 13.5
t14 34.5z" />
    <glyph glyph-name="uni2080" unicode="&#x2080;" horiz-adv-x="370" 
d="M32 -28q0 80 42 127t111 47t111 -47t42 -127t-42 -127t-111 -47t-111 47t-42 127zM257 -28q0 49 -19.5 75.5t-52.5 26.5t-52.5 -26.5t-19.5 -75.5t19.5 -75.5t52.5 -26.5t52.5 26.5t19.5 75.5z" />
    <glyph glyph-name="uni2081" unicode="&#x2081;" horiz-adv-x="221" 
d="M106 -198v232q-26 -45 -83 -50l-10 84q85 7 98 74h76v-340h-81z" />
    <glyph glyph-name="uni2082" unicode="&#x2082;" horiz-adv-x="302" 
d="M23 34q0 51 35 81.5t92 30.5q60 0 93 -28.5t33 -77.5q-3 -49 -22 -73.5t-65 -52.5q-40 -24 -49 -39h133v-73h-247q0 62 24.5 94.5t75.5 62.5q39 22 54 38t15 37q0 18 -12.5 28.5t-34.5 10.5q-21 0 -33 -10.5t-12 -27.5q0 -18 13 -32l-64 -43q-29 29 -29 74z" />
    <glyph glyph-name="uni2083" unicode="&#x2083;" horiz-adv-x="312" 
d="M25 -104l73 34q8 -56 57 -56q21 0 34 12t13 32q0 19 -12.5 32t-30.5 13q-19 0 -33 -12l-44 53l81 66h-122v72h227v-60l-76 -57q38 -2 64.5 -30.5t26.5 -77.5q0 -53 -35.5 -86t-91.5 -33q-54 0 -88 26.5t-43 71.5z" />
    <glyph glyph-name="uni2084" unicode="&#x2084;" horiz-adv-x="316" 
d="M184 -198v69h-161v78q66 63 66 167v26h77v-24q0 -112 -57 -175h75v94h77v-94h45v-72h-45v-69h-77z" />
    <glyph glyph-name="uni2085" unicode="&#x2085;" horiz-adv-x="318" 
d="M272 142v-71h-159q0 -41 -9 -71q20 32 70 32q51 0 82.5 -29t31.5 -80q0 -58 -32.5 -91.5t-93.5 -33.5q-53 0 -90 28t-42 77l78 16q3 -23 18 -36.5t37 -13.5q23 0 36 14t13 36q0 21 -13 33.5t-36 12.5q-32 0 -46 -27l-81 20q15 95 15 184h221z" />
    <glyph glyph-name="uni2086" unicode="&#x2086;" horiz-adv-x="326" 
d="M32 -31q0 80 37 128.5t104 48.5q104 0 121 -89l-67 -19q-4 19 -19.5 30.5t-38.5 11.5q-28 0 -45.5 -24.5t-17.5 -67.5v-4q25 40 78 40q48 0 79 -30t31 -78q0 -53 -34 -85.5t-89 -32.5q-64 0 -101.5 45.5t-37.5 125.5zM222 -86q0 22 -14 35.5t-37 13.5q-21 0 -35.5 -14
t-14.5 -35t14.5 -35t35.5 -14q22 0 36.5 14t14.5 35z" />
    <glyph glyph-name="uni2087" unicode="&#x2087;" horiz-adv-x="291" 
d="M26 142h241v-64q-105 -67 -105 -197q0 -43 7 -79h-80q-5 30 -5 61q0 132 83 209h-141v70z" />
    <glyph glyph-name="uni2088" unicode="&#x2088;" horiz-adv-x="323" 
d="M29 -96q0 64 59 90q-39 22 -39 65q0 40 30.5 63.5t82.5 23.5t82 -23.5t30 -63.5q0 -43 -39 -65q60 -26 60 -90q0 -47 -36 -76.5t-97 -29.5t-97 29.5t-36 76.5zM205 56q0 35 -43 35q-19 0 -31.5 -9t-12.5 -26t12.5 -26t31.5 -9q43 0 43 35zM217 -87q0 21 -15.5 33.5
t-39.5 12.5t-39.5 -12.5t-15.5 -33.5t15.5 -34t39.5 -13t39.5 13t15.5 34z" />
    <glyph glyph-name="uni2089" unicode="&#x2089;" horiz-adv-x="336" 
d="M31 -104l65 20q13 -51 65 -51q69 0 69 93l-1 8q-23 -42 -75 -42q-49 0 -79.5 31t-30.5 75q0 52 34 84t87 32q68 0 103.5 -45t35.5 -124q0 -81 -36 -130t-106 -49q-53 0 -87 26t-44 72zM217 31q0 22 -14 35t-36 13t-36.5 -13.5t-14.5 -34.5t14.5 -34.5t36.5 -13.5t36 13.5
t14 34.5z" />
    <glyph glyph-name="franc" unicode="&#x20a3;" horiz-adv-x="649" 
d="M603 583h-384v-178h354v-117h-354v-72h172v-110h-172v-106h-133v106h-85v110h85v484h517v-117z" />
    <glyph glyph-name="lira" unicode="&#x20a4;" horiz-adv-x="641" 
d="M505 169l112 -58q-46 -121 -182 -121q-78 0 -146 57q-43 -57 -121 -57q-64 0 -98 32.5t-34 87.5q0 51 36 84t94 33q35 0 65 -13q-3 16 -9 30h-157v97h90q-20 25 -29 39h-91v98h56q-1 5 -1 22q0 95 70 152.5t173 57.5q107 0 172 -53t77 -146l-128 -39q-5 56 -37 89t-84 33
t-84 -28.5t-32 -81.5v-6h162v-98h-122l28 -39h124v-97h-80q4 -25 4 -46q0 -30 -5 -55q49 -38 97 -38q61 0 80 64zM220 109q-25 19 -51 19q-16 0 -25.5 -7.5t-9.5 -19.5t9.5 -19.5t25.5 -7.5q34 0 51 35z" />
    <glyph glyph-name="uni20A9" unicode="&#x20a9;" horiz-adv-x="950" 
d="M939 416v-115h-97l-49 -301h-214l-52 301h-104l-52 -301h-213l-49 301h-98v115h79l-47 284h129l44 -284h104l50 284h210l50 -284h105l44 284h129l-47 -284h78zM442 416h66l-33 190zM265 103l35 198h-66zM686 103l31 198h-66z" />
    <glyph glyph-name="dong" unicode="&#x20ab;" horiz-adv-x="620" 
d="M611 640v-102h-74v-538h-125v68q-47 -78 -150 -78q-101 0 -164.5 67.5t-63.5 177.5q0 111 63.5 180t161.5 69q49 0 89 -22t61 -59v135h-178v102h178v60h128v-60h74zM414 235q0 62 -36.5 100.5t-89.5 38.5q-55 0 -90.5 -37.5t-35.5 -101.5q0 -62 36 -99t90 -37
q53 0 89.5 37.5t36.5 98.5zM63 -170v101h474v-101h-474z" />
    <glyph glyph-name="Euro" unicode="&#x20ac;" horiz-adv-x="849" 
d="M695 319l123 -49q-28 -127 -122 -204q-92 -76 -236 -76q-124 0 -213.5 60.5t-125.5 165.5h-108v104h87q-1 7 -1 30t1 30h-87v105h110q39 101 129 163q92 62 208 62q131 0 214.5 -65.5t109.5 -168.5l-124 -55q-15 77 -68 122t-133 45q-60 0 -110 -27t-80 -76h208v-105
h-242q-1 -7 -1 -30t1 -30h242v-104h-209q30 -49 80.5 -76t112.5 -27q96 0 156 56t78 150z" />
    <glyph glyph-name="uni20AE" unicode="&#x20ae;" horiz-adv-x="678" 
d="M653 578h-248v-92l70 37l49 -95l-119 -62v-45l70 37l48 -94l-118 -62v-202h-132v134l-72 -38l-48 94l120 63v44l-71 -37l-49 95l120 63v160h-248v122h628v-122z" />
    <glyph glyph-name="uni20B4" unicode="&#x20b4;" horiz-adv-x="686" 
d="M604 460h56v-101h-632v101h444q19 22 19 55q0 36 -33.5 59.5t-89.5 23.5q-115 0 -164 -106l-105 55q76 163 272 163q114 0 181 -50t67 -132q0 -40 -15 -68zM28 221v101h632v-101h-429q-2 -16 -2 -19q0 -43 39 -70t104 -27q57 0 97 19.5t74 62.5l98 -70
q-89 -127 -276 -127q-118 0 -192 54t-74 144q0 18 3 33h-74z" />
    <glyph glyph-name="uni20B8" unicode="&#x20b8;" horiz-adv-x="678" 
d="M25 580v120h628v-120h-628zM273 0v397h-248v120h628v-120h-248v-397h-132z" />
    <glyph glyph-name="uni20B9" unicode="&#x20b9;" horiz-adv-x="565" 
d="M532 605h-79q19 -30 25 -67h54v-93h-53q-15 -85 -84 -129q79 -36 83 -154q3 -58 10.5 -90t25.5 -56v-16h-138q-13 27 -19 61q-5 30 -7 99q0 63 -27.5 91.5t-87.5 28.5h-191v120h201q73 0 98 45h-299v93h297q-24 42 -96 42h-201v120h488v-95z" />
    <glyph glyph-name="uni20BA" unicode="&#x20ba;" horiz-adv-x="695" 
d="M661 249q0 -114 -71.5 -181.5t-192.5 -67.5h-258v176l-68 -36l-48 95l116 61v44l-68 -35l-49 94l117 61v240h133v-171l72 38l49 -94l-121 -63v-45l73 38l48 -94l-121 -64v-122h121q61 0 98 31.5t37 87.5q0 50 -27 84l113 61q47 -60 47 -138z" />
    <glyph glyph-name="uni20BD" unicode="&#x20bd;" horiz-adv-x="685" 
d="M644 486q0 -88 -62.5 -151.5t-167.5 -63.5h-197v-55h179v-110h-179v-106h-128v106h-88v110h88v484h325q107 0 168.5 -62t61.5 -152zM514 486q0 45 -29 71t-78 26h-190v-195h190q49 0 78 26.5t29 71.5z" />
    <glyph glyph-name="uni2113" unicode="&#x2113;" horiz-adv-x="581" 
d="M387 222l111 -21q-19 -99 -77 -155t-145 -56q-74 0 -120.5 42.5t-60.5 119.5q-44 -10 -56 -11l-18 106q51 9 69 13q5 116 48.5 221t111.5 168t139 61q151 0 151 -154q0 -115 -92 -215q-92 -98 -242 -155q5 -43 24.5 -66t49.5 -23q41 0 69 32.5t38 92.5zM209 299
q101 43 157.5 109.5t56.5 141.5q0 53 -42 53q-55 0 -107 -91t-65 -213z" />
    <glyph glyph-name="uni2116" unicode="&#x2116;" horiz-adv-x="1328" 
d="M798 463q0 107 70 177t178 70t178 -70t70 -177q0 -106 -70.5 -176.5t-177.5 -70.5t-177.5 70.5t-70.5 176.5zM203 607v-607h-135v700h233l291 -607v607h135v-700h-233zM1169 463q0 59 -34.5 95.5t-88.5 36.5t-88.5 -36.5t-34.5 -95.5t34.5 -95.5t88.5 -36.5t88.5 36.5
t34.5 95.5zM828 109h436v-109h-436v109z" />
    <glyph glyph-name="uni2117" unicode="&#x2117;" horiz-adv-x="536" 
d="M39 486q0 96 66.5 162.5t162.5 66.5t162.5 -66.5t66.5 -162.5t-66.5 -162.5t-162.5 -66.5t-162.5 66.5t-66.5 162.5zM442 486q0 73 -50 124t-124 51t-124 -51t-50 -124t50 -124t124 -51t124 51t50 124zM175 361v251h126q39 0 61 -20t22 -56t-22 -57t-61 -21h-72v-97h-54z
M229 506h67q34 0 34 30q0 29 -34 29h-67v-59z" />
    <glyph glyph-name="uni2120" unicode="&#x2120;" horiz-adv-x="628" 
d="M32 521l46 28q15 -54 69 -54q19 0 32 8t13 20q0 27 -53 33q-87 12 -87 77q0 30 26 50.5t67 20.5q78 0 96 -61l-45 -25q-13 40 -51 40q-16 0 -28 -7.5t-12 -18.5q0 -24 55 -31q46 -6 67.5 -24.5t21.5 -53.5q0 -34 -28 -56t-73 -22q-89 0 -116 76zM292 449v251h99l53 -204
l53 204h99v-251h-54v216l-59 -216h-79l-58 216v-216h-54z" />
    <glyph glyph-name="trademark" unicode="&#x2122;" horiz-adv-x="616" 
d="M117 449v202h-85v49h223v-49h-84v-202h-54zM280 449v251h99l53 -204l53 204h99v-251h-54v216l-59 -216h-79l-58 216v-216h-54z" />
    <glyph glyph-name="uni2126" unicode="&#x2126;" horiz-adv-x="790" 
d="M750 384q0 -153 -135 -261h115v-123h-298v118q76 38 129 102q52 65 52 151q0 95 -61 153.5t-157 58.5q-95 0 -156 -58.5t-61 -153.5q0 -86 52 -151q53 -65 128 -102v-118h-298v123h115q-135 108 -135 261q-2 138 100 233t255 93q154 2 255.5 -92.5t99.5 -233.5z" />
    <glyph glyph-name="estimated" unicode="&#x212e;" horiz-adv-x="777" 
d="M734 320h-550v-106q30 -55 86.5 -87t128.5 -32q86 0 148 42.5t88 119.5l99 -42q-35 -100 -125 -162.5t-210 -62.5q-152 -3 -257 104t-103 256q-3 152 101.5 257.5t258.5 102.5q142 2 241.5 -97.5t97.5 -239.5q0 -32 -4 -53zM184 489v-79h410v79q-27 52 -81.5 84
t-118.5 32q-140 0 -210 -116z" />
    <glyph glyph-name="uni2153" unicode="&#x2153;" horiz-adv-x="682" 
d="M106 360v232q-26 -45 -83 -50l-10 84q85 7 98 74h76v-340h-81zM516 609l58 -58l-499 -477l-58 58zM395 94l73 34q8 -56 57 -56q21 0 34 12t13 32q0 19 -12.5 32t-30.5 13q-19 0 -33 -12l-44 53l81 66h-122v72h227v-60l-76 -57q38 -2 64.5 -30.5t26.5 -77.5
q0 -53 -35.5 -86t-91.5 -33q-54 0 -88 26.5t-43 71.5z" />
    <glyph glyph-name="uni2154" unicode="&#x2154;" horiz-adv-x="763" 
d="M23 592q0 51 35 81.5t92 30.5q60 0 93 -28.5t33 -77.5q-3 -49 -22 -73.5t-65 -52.5q-40 -24 -49 -39h133v-73h-247q0 62 24.5 94.5t75.5 62.5q39 22 54 38t15 37q0 18 -12.5 28.5t-34.5 10.5q-21 0 -33 -10.5t-12 -27.5q0 -18 13 -32l-64 -43q-29 29 -29 74zM597 609
l58 -58l-499 -477l-58 58zM476 94l73 34q8 -56 57 -56q21 0 34 12t13 32q0 19 -12.5 32t-30.5 13q-20 0 -33 -12l-44 53l81 66h-122v72h227v-60l-76 -57q38 -2 64.5 -30.5t26.5 -77.5q0 -53 -35.5 -86t-91.5 -33q-54 0 -88 26.5t-43 71.5z" />
    <glyph glyph-name="oneeighth" unicode="&#x215b;" horiz-adv-x="693" 
d="M106 360v232q-26 -45 -83 -50l-10 84q85 7 98 74h76v-340h-81zM516 609l58 -58l-499 -477l-58 58zM399 102q0 64 59 90q-39 22 -39 65q0 40 30.5 63.5t82.5 23.5t82 -23.5t30 -63.5q0 -43 -39 -65q60 -26 60 -90q0 -47 -36 -76.5t-97 -29.5t-97 29.5t-36 76.5zM575 254
q0 35 -43 35q-19 0 -31.5 -9t-12.5 -26t12.5 -26t31.5 -9q43 0 43 35zM587 111q0 21 -15.5 33.5t-39.5 12.5t-39.5 -12.5t-15.5 -33.5t15.5 -34t39.5 -13t39.5 13t15.5 34z" />
    <glyph glyph-name="threeeighths" unicode="&#x215c;" horiz-adv-x="784" 
d="M25 454l73 34q8 -56 57 -56q21 0 34 12t13 32q0 19 -12.5 32t-30.5 13q-19 0 -33 -12l-44 53l81 66h-122v72h227v-60l-76 -57q38 -2 64.5 -30.5t26.5 -77.5q0 -53 -35.5 -86t-91.5 -33q-54 0 -88 26.5t-43 71.5zM607 609l58 -58l-499 -477l-58 58zM490 102q0 64 59 90
q-39 22 -39 65q0 40 30.5 63.5t82.5 23.5t82 -23.5t30 -63.5q0 -43 -39 -65q60 -26 60 -90q0 -47 -36 -76.5t-97 -29.5t-97 29.5t-36 76.5zM666 254q0 35 -43 35q-19 0 -31.5 -9t-12.5 -26t12.5 -26t31.5 -9q43 0 43 35zM678 111q0 21 -15.5 33.5t-39.5 12.5t-39.5 -12.5
t-15.5 -33.5t15.5 -34t39.5 -13t39.5 13t15.5 34z" />
    <glyph glyph-name="fiveeighths" unicode="&#x215d;" horiz-adv-x="790" 
d="M272 700v-71h-159q0 -41 -9 -71q20 32 70 32q51 0 82.5 -29t31.5 -80q0 -58 -32.5 -91.5t-93.5 -33.5q-53 0 -90 28t-42 77l78 16q3 -22 18 -36t37 -14q23 0 36 14t13 36q0 21 -13 33.5t-36 12.5q-32 0 -46 -27l-81 20q15 94 15 184h221zM613 609l58 -58l-499 -477
l-58 58zM496 102q0 64 59 90q-39 22 -39 65q0 40 30.5 63.5t82.5 23.5t82 -23.5t30 -63.5q0 -43 -39 -65q60 -26 60 -90q0 -47 -36 -76.5t-97 -29.5t-97 29.5t-36 76.5zM672 254q0 35 -43 35q-19 0 -31.5 -9t-12.5 -26t12.5 -26t31.5 -9q43 0 43 35zM684 111
q0 21 -15.5 33.5t-39.5 12.5t-39.5 -12.5t-15.5 -33.5t15.5 -34t39.5 -13t39.5 13t15.5 34z" />
    <glyph glyph-name="seveneighths" unicode="&#x215e;" horiz-adv-x="763" 
d="M26 700h241v-64q-105 -67 -105 -197q0 -43 7 -79h-80q-5 30 -5 61q0 132 83 209h-141v70zM586 609l58 -58l-499 -477l-58 58zM469 102q0 64 59 90q-39 22 -39 65q0 40 30.5 63.5t82.5 23.5t82 -23.5t30 -63.5q0 -43 -39 -65q60 -26 60 -90q0 -47 -36 -76.5t-97 -29.5
t-97 29.5t-36 76.5zM645 254q0 35 -43 35q-19 0 -31.5 -9t-12.5 -26t12.5 -26t31.5 -9q43 0 43 35zM657 111q0 21 -15.5 33.5t-39.5 12.5t-39.5 -12.5t-15.5 -33.5t15.5 -34t39.5 -13t39.5 13t15.5 34z" />
    <glyph glyph-name="uni2160" unicode="&#x2160;" horiz-adv-x="600" 
d="M560 125v-125h-520v125h193v450h-193v125h520v-125h-192v-450h192z" />
    <glyph glyph-name="uni2161" unicode="&#x2161;" horiz-adv-x="928" 
d="M40 0v125h193v450h-193v125h848v-125h-193v-450h193v-125h-848zM368 125h192v450h-192v-450z" />
    <glyph glyph-name="uni2162" unicode="&#x2162;" horiz-adv-x="1255" 
d="M40 0v125h193v450h-193v125h1175v-125h-192v-450h192v-125h-1175zM368 125h192v450h-192v-450zM695 125h193v450h-193v-450z" />
    <glyph glyph-name="uni2163" unicode="&#x2163;" horiz-adv-x="1255" 
d="M40 0v125h193v450h-193v125h1175v-125h-142l-155 -450h297v-125h-1175zM368 125h275l-155 450h-120v-450zM780 123l149 452h-298z" />
    <glyph glyph-name="uni2164" unicode="&#x2164;" horiz-adv-x="950" 
d="M40 0v125h298l-155 450h-143v125h870v-125h-142l-155 -450h297v-125h-870zM475 123l149 452h-298z" />
    <glyph glyph-name="uni2165" unicode="&#x2165;" horiz-adv-x="1255" 
d="M40 0v125h298l-155 450h-143v125h1175v-125h-192v-450h192v-125h-1175zM475 123l149 452h-298zM613 125h275v450h-120z" />
    <glyph glyph-name="uni2166" unicode="&#x2166;" horiz-adv-x="1583" 
d="M40 0v125h298l-155 450h-143v125h1503v-125h-193v-450h193v-125h-1503zM475 123l149 452h-298zM613 125h275v450h-120zM1023 125h192v450h-192v-450z" />
    <glyph glyph-name="uni2167" unicode="&#x2167;" horiz-adv-x="1910" 
d="M40 0v125h298l-155 450h-143v125h1830v-125h-192v-450h192v-125h-1830zM475 123l149 452h-298zM613 125h275v450h-120zM1023 125h192v450h-192v-450zM1350 125h193v450h-193v-450z" />
    <glyph glyph-name="uni2168" unicode="&#x2168;" horiz-adv-x="1255" 
d="M40 0v125h193v450h-193v125h1175v-125h-153l-195 -225l195 -225h153v-125h-1175zM368 125h130l196 225l-196 225h-130v-450zM780 443l109 132h-218zM671 125h218l-109 133z" />
    <glyph glyph-name="uni2169" unicode="&#x2169;" horiz-adv-x="950" 
d="M40 0v125h153l196 225l-196 225h-153v125h870v-125h-153l-195 -225l195 -225h153v-125h-870zM475 443l109 132h-218zM366 125h218l-109 133z" />
    <glyph glyph-name="uni216A" unicode="&#x216a;" horiz-adv-x="1255" 
d="M40 0v125h153l196 225l-196 225h-153v125h1175v-125h-192v-450h192v-125h-1175zM475 443l109 132h-218zM757 125h131v450h-131l-195 -225zM366 125h218l-109 133z" />
    <glyph glyph-name="uni216B" unicode="&#x216b;" horiz-adv-x="1583" 
d="M40 0v125h153l196 225l-196 225h-153v125h1503v-125h-193v-450h193v-125h-1503zM475 443l109 132h-218zM757 125h131v450h-131l-195 -225zM1023 125h192v450h-192v-450zM366 125h218l-109 133z" />
    <glyph glyph-name="uni216C" unicode="&#x216c;" horiz-adv-x="740" 
d="M40 0v125h120v450h-120v125h365v-125h-110v-450h270v158h135v-283h-660z" />
    <glyph glyph-name="uni216D" unicode="&#x216d;" horiz-adv-x="793" 
d="M40 350q-3 152 101.5 257.5t252.5 102.5q69 0 126 -27.5t84 -74.5v92h124v-282h-122q-10 80 -64.5 125t-139.5 45q-98 0 -161.5 -65.5t-63.5 -172.5q0 -108 63.5 -172.5t161.5 -64.5q96 0 156 56t78 150l123 -49q-28 -127 -122 -204q-92 -76 -236 -76
q-162 0 -261.5 101.5t-99.5 258.5z" />
    <glyph glyph-name="uni216E" unicode="&#x216e;" horiz-adv-x="803" 
d="M40 0v125h120v451h-120v124h360q171 0 267 -96.5t96 -258.5q0 -152 -97 -248.5t-263 -96.5h-363zM295 125h105q113 0 170 61q58 61 58 159q0 109 -59 169.5t-171 60.5h-103v-450z" />
    <glyph glyph-name="uni216F" unicode="&#x216f;" horiz-adv-x="1160" 
d="M40 0v125h120v450h-120v125h356l184 -573l184 573h356v-125h-120v-450h120v-125h-360v125h105v458l-190 -583h-189l-191 583v-458h105v-125h-360z" />
    <glyph glyph-name="uni2180" unicode="&#x2180;" horiz-adv-x="1150" 
d="M40 345q0 162 96 258.5t267 96.5h345q171 0 266.5 -96.5t95.5 -258.5q0 -152 -97 -248.5t-263 -96.5h-350q-166 0 -263 96.5t-97 248.5zM403 125h105v450h-103q-112 0 -171 -60.5t-59 -169.5q0 -97 57 -159q58 -61 171 -61zM643 125h105q109 0 168 60t59 160
q0 109 -58.5 169.5t-171.5 60.5h-102v-450z" />
    <glyph glyph-name="uni2181" unicode="&#x2181;" horiz-adv-x="803" 
d="M40 0v125h120v451h-120v124h360q171 0 267 -96.5t96 -258.5q0 -152 -97 -248.5t-263 -96.5h-363zM295 125h105q113 0 170 61q58 61 58 159q0 109 -59 169.5t-171 60.5h-103v-50h85q84 0 134.5 -47t50.5 -128t-50.5 -128t-134.5 -47h-85v-50zM295 285h72q34 0 54 17.5
t20 47.5q0 32 -20 48.5t-54 16.5h-72v-130z" />
    <glyph glyph-name="uni2182" unicode="&#x2182;" horiz-adv-x="1150" 
d="M40 345q0 162 96 258.5t267 96.5h345q171 0 266.5 -96.5t95.5 -258.5q0 -152 -97 -248.5t-263 -96.5h-350q-166 0 -263 96.5t-97 248.5zM403 125h105v50h-85q-84 0 -134.5 47t-50.5 128t50.5 128t134.5 47h85v50h-103q-112 0 -171 -60.5t-59 -169.5q0 -97 57 -159
q58 -61 171 -61zM643 125h105q109 0 168 60t59 160q0 109 -58.5 169.5t-171.5 60.5h-102v-50h85q84 0 134.5 -47t50.5 -128t-50.5 -128t-134.5 -47h-85v-50zM436 285h72v130h-72q-34 0 -54 -16.5t-20 -48.5q0 -30 20 -47.5t54 -17.5zM643 285h72q33 0 53 17.5t20 47.5
q0 32 -19.5 48.5t-53.5 16.5h-72v-130z" />
    <glyph glyph-name="arrowleft" unicode="&#x2190;" horiz-adv-x="900" 
d="M40 195v115q107 11 166.5 75t63.5 170l130 -30q-7 -76 -49.5 -135t-104.5 -80h614v-115h-614q59 -19 104 -79q42 -57 50 -136l-130 -30q-4 106 -63.5 170t-166.5 75z" />
    <glyph glyph-name="arrowup" unicode="&#x2191;" horiz-adv-x="685" 
d="M285 0v494q-19 -59 -79 -104q-57 -42 -136 -50l-30 130q106 4 170 63.5t75 167.5h115q11 -107 75 -167t170 -64l-30 -130q-76 7 -135 49.5t-80 104.5v-494h-115z" />
    <glyph glyph-name="arrowright" unicode="&#x2192;" horiz-adv-x="900" 
d="M630 -50l-130 30q8 79 50 136q45 60 104 79h-614v115h614q-62 21 -104.5 80t-49.5 135l130 30q4 -106 63.5 -170t166.5 -75v-115q-107 -11 -166.5 -75t-63.5 -170z" />
    <glyph glyph-name="arrowdown" unicode="&#x2193;" horiz-adv-x="685" 
d="M40 231l30 130q79 -8 136 -50q60 -45 79 -104v494h115v-494q21 62 80 104.5t135 49.5l30 -130q-106 -4 -170 -64t-75 -167h-115q-11 108 -75 167.5t-170 63.5z" />
    <glyph glyph-name="arrowboth" unicode="&#x2194;" horiz-adv-x="900" 
d="M860 310v-115q-107 -11 -166.5 -75t-63.5 -170l-130 30q8 79 50 136q45 60 104 79h-408q59 -19 104 -79q42 -57 50 -136l-130 -30q-4 106 -63.5 170t-166.5 75v115q107 11 166.5 75t63.5 170l130 -30q-7 -76 -49.5 -135t-104.5 -80h408q-62 21 -104.5 80t-49.5 135
l130 30q4 -106 63.5 -170t166.5 -75z" />
    <glyph glyph-name="arrowupdn" unicode="&#x2195;" horiz-adv-x="627" 
d="M557 295l30 -130q-97 -7 -149.5 -46t-66.5 -119h-115q-14 80 -66.5 119t-149.5 46l30 130q148 -14 186 -134v378q-38 -120 -186 -134l-30 130q101 7 151 44.5t65 120.5h115q15 -83 65 -120.5t151 -44.5l-30 -130q-145 14 -186 134v-378q41 120 186 134z" />
    <glyph glyph-name="uni2196" unicode="&#x2196;" horiz-adv-x="667" 
d="M546 57l-350 349q21 -41 21 -91q0 -94 -64 -170l-113 71q76 82 76 172q0 84 -66 165l82 81q81 -66 162 -66q95 0 174 76l71 -113q-76 -64 -171 -64q-50 0 -90 21l349 -350z" />
    <glyph glyph-name="uni2197" unicode="&#x2197;" horiz-adv-x="667" 
d="M122 57l-82 81l350 350q-41 -21 -91 -21q-94 0 -170 64l71 113q79 -76 174 -76q81 0 162 66l81 -81q-65 -80 -65 -165q0 -91 75 -172l-113 -71q-64 76 -64 170q0 51 21 91z" />
    <glyph glyph-name="uni2198" unicode="&#x2198;" horiz-adv-x="667" 
d="M200 57l-71 113q77 65 170 65q47 0 91 -21l-350 349l82 81l349 -349q-21 42 -21 92q0 96 64 169l113 -71q-75 -81 -75 -172q0 -84 65 -164l-81 -81q-80 65 -162 65q-95 0 -174 -76z" />
    <glyph glyph-name="uni2199" unicode="&#x2199;" horiz-adv-x="667" 
d="M294 133q-82 0 -162 -65l-82 81q66 81 66 164q0 90 -76 172l113 71q64 -73 64 -169q0 -50 -21 -92l350 349l81 -81l-349 -349q44 21 90 21q94 0 171 -65l-71 -113q-79 76 -174 76z" />
    <glyph glyph-name="partialdiff" unicode="&#x2202;" horiz-adv-x="568" 
d="M34 223q-1 67 28.5 128t89 100.5t135.5 38.5q73 0 114 -43q-28 63 -88 104.5t-138 56.5l43 102q147 -34 231 -140q85 -103 85 -264q1 -133 -71.5 -225.5t-202.5 -90.5q-99 0 -162.5 66.5t-63.5 166.5zM406 257q0 57 -31.5 89.5t-82.5 32.5q-59 0 -98 -44.5t-39 -110.5
q0 -54 32 -88t81 -34q61 0 99.5 42t38.5 113z" />
    <glyph glyph-name="emptyset" unicode="&#x2205;" horiz-adv-x="815" 
d="M775 653l-77 -80q77 -99 77 -223q3 -148 -107 -255.5t-260 -104.5q-116 0 -211 64l-78 -81l-78 76l76 79q-77 99 -77 222q-3 147 107.5 255t260.5 105q116 0 211 -64l79 82zM211 225l317 327q-53 31 -120 31q-98 0 -164 -65t-66 -168q0 -72 33 -125zM605 477l-316 -328
q52 -31 119 -31q97 0 163.5 64.5t66.5 167.5q0 70 -33 127z" />
    <glyph glyph-name="uni2206" unicode="&#x2206;" horiz-adv-x="776" 
d="M11 0l282 700h191l281 -700h-754zM208 123h361l-181 470z" />
    <glyph glyph-name="product" unicode="&#x220f;" horiz-adv-x="662" 
d="M459 578h-256v-776h-135v898h526v-898h-135v776z" />
    <glyph glyph-name="summation" unicode="&#x2211;" horiz-adv-x="657" 
d="M48 -32v113l247 253l-247 254v112h565v-125h-379l191 -197v-88l-191 -197h379v-125h-565z" />
    <glyph glyph-name="minus" unicode="&#x2212;" horiz-adv-x="570" 
d="M53 352h464v-104h-464v104z" />
    <glyph glyph-name="uni2215" unicode="&#x2215;" horiz-adv-x="534" 
d="M386 834l101 -37l-339 -931l-101 37z" />
    <glyph glyph-name="uni2219" unicode="&#x2219;" horiz-adv-x="273" 
d="M59 368h155v-155h-155v155z" />
    <glyph glyph-name="radical" unicode="&#x221a;" horiz-adv-x="567" 
d="M209 0l-78 252h-108v107h190l66 -223l189 608l102 -34l-224 -710h-137z" />
    <glyph glyph-name="infinity" unicode="&#x221e;" horiz-adv-x="714" 
d="M40 350q0 80 50.5 131.5t132.5 51.5q86 0 134 -68q50 68 134 68q82 0 132.5 -51.5t50.5 -131.5q0 -79 -50.5 -131t-132.5 -52q-84 0 -134 68q-48 -68 -134 -68q-81 0 -132 52t-51 131zM308 350q0 41 -23 66t-62 25q-38 0 -61.5 -25t-23.5 -66t23.5 -66t61.5 -25
q39 0 62 25t23 66zM576 350q0 41 -23 66t-62 25q-38 0 -61.5 -25t-23.5 -66t23.5 -66t61.5 -25q39 0 62 25t23 66z" />
    <glyph glyph-name="integral" unicode="&#x222b;" horiz-adv-x="491" 
d="M10 -82q0 14 5 39h113q-4 -8 -4 -20q0 -33 30 -33q31 0 31 39v597q0 77 49 123.5t134 46.5q86 0 132.5 -42.5t46.5 -111.5q0 -19 -1 -26h-120q2 10 2 19q0 25 -15 39.5t-41 14.5q-28 0 -43.5 -18t-15.5 -50v-597q0 -66 -39.5 -106t-115.5 -40q-71 0 -109.5 34.5
t-38.5 91.5z" />
    <glyph glyph-name="approxequal" unicode="&#x2248;" horiz-adv-x="537" 
d="M68 333l-1 15q0 61 38 96q38 34 91 34q34 0 53.5 -9t42.5 -30q24 -23 44 -23q15 0 25 9.5t10 26.5q0 9 -3 18l101 -13l1 -15q0 -58 -37 -94t-92 -36q-33 0 -52.5 9t-39.5 29q-25 25 -48 25q-15 0 -25 -10t-10 -28q0 -1 2 -17zM68 146l-1 15q0 61 38 96q38 34 91 34
q34 0 53.5 -9t42.5 -30q24 -23 44 -23q15 0 25 9.5t10 26.5q0 9 -3 18l101 -13l1 -15q0 -58 -37 -94t-92 -36q-33 0 -52.5 9t-39.5 29q-25 25 -48 25q-15 0 -25 -10t-10 -28q0 -1 2 -17z" />
    <glyph glyph-name="notequal" unicode="&#x2260;" horiz-adv-x="570" 
d="M53 438h260l73 120l82 -49l-43 -71h92v-104h-156l-40 -67h196v-104h-259l-73 -121l-82 49l43 72h-93v104h156l41 67h-197v104z" />
    <glyph glyph-name="lessequal" unicode="&#x2264;" horiz-adv-x="570" 
d="M517 122l-464 128v100l464 129v-104l-299 -75l299 -74v-104zM53 0v104h464v-104h-464z" />
    <glyph glyph-name="greaterequal" unicode="&#x2265;" horiz-adv-x="570" 
d="M53 122v104l300 74l-300 75v104l464 -129v-100zM53 0v104h464v-104h-464z" />
    <glyph glyph-name="uni2318" unicode="&#x2318;" horiz-adv-x="812" 
d="M36 143q0 65 47 108.5t115 43.5h52v110h-52q-68 0 -115 43.5t-47 109.5q0 64 46 108t113 44q68 0 114 -44t46 -108v-53h110v53q0 65 45.5 108.5t113.5 43.5q67 0 113.5 -44t46.5 -108q0 -66 -47 -109.5t-115 -43.5h-53v-110h53q68 0 115 -43.5t47 -108.5
q0 -63 -46.5 -108t-113.5 -45q-68 0 -113.5 44t-45.5 109v52h-110v-52q0 -65 -46 -109t-114 -44q-66 0 -112.5 45t-46.5 108zM196 505h54v51q0 23 -15.5 38.5t-39.5 15.5t-39.5 -14.5t-15.5 -37.5t16 -38t40 -15zM569 505h55q24 0 39.5 15t15.5 38t-15.5 37.5t-39.5 14.5
t-39.5 -15.5t-15.5 -38.5v-51zM355 295h110v110h-110v-110zM250 144v51h-54q-24 0 -40 -15t-16 -37q0 -23 15.5 -38t39.5 -15t39.5 15.5t15.5 38.5zM679 143q0 23 -15.5 37.5t-39.5 14.5h-55v-51q0 -23 15.5 -38.5t39.5 -15.5t39.5 15t15.5 38z" />
    <glyph glyph-name="filledbox" unicode="&#x25a0;" horiz-adv-x="780" 
d="M40 0v700h700v-700h-700z" />
    <glyph glyph-name="uni25A1" unicode="&#x25a1;" horiz-adv-x="780" 
d="M40 0v700h700v-700h-700zM150 110h480v480h-480v-480z" />
    <glyph glyph-name="uni25B0" unicode="&#x25b0;" horiz-adv-x="1008" 
d="M40 0l228 700h700l-228 -700h-700z" />
    <glyph glyph-name="uni25B1" unicode="&#x25b1;" horiz-adv-x="1008" 
d="M40 0l228 700h700l-228 -700h-700zM187 110h478l156 480h-478z" />
    <glyph glyph-name="triagup" unicode="&#x25b2;" horiz-adv-x="780" 
d="M40 0l350 700l350 -700h-700z" />
    <glyph glyph-name="uni25B3" unicode="&#x25b3;" horiz-adv-x="780" 
d="M40 0l350 700l350 -700h-700zM390 458l-174 -348h348z" />
    <glyph glyph-name="lozenge" unicode="&#x25ca;" horiz-adv-x="658" 
d="M271 0l-228 342v16l228 342h116l228 -342v-16l-228 -342h-116zM329 103l164 247l-164 247l-163 -247z" />
    <glyph glyph-name="circle" unicode="&#x25cb;" horiz-adv-x="780" 
d="M40 350q-3 142 102.5 247.5t247.5 102.5q142 3 247.5 -102.5t102.5 -247.5q3 -142 -102.5 -247.5t-247.5 -102.5q-142 -3 -247.5 102.5t-102.5 247.5zM630 350q0 100 -70 170t-170 70t-170 -70t-70 -170q-2 -97 70 -169.5t170 -70.5q100 0 170 70t70 170z" />
    <glyph glyph-name="uni25CF" unicode="&#x25cf;" horiz-adv-x="780" 
d="M40 350q-3 142 102.5 247.5t247.5 102.5q142 3 247.5 -102.5t102.5 -247.5q3 -142 -102.5 -247.5t-247.5 -102.5q-142 -3 -247.5 102.5t-102.5 247.5z" />
    <glyph glyph-name="uni2600" unicode="&#x2600;" horiz-adv-x="800" 
d="M760 295h-168q-5 -19 -17 -42l119 -119l-78 -77l-119 119q-19 -12 -42 -18v-168h-110v168q-23 6 -42 18l-119 -119l-77 77l119 119q-12 19 -18 42h-168v110h168q6 23 18 42l-119 119l77 78l119 -119q23 12 42 17v168h110v-168q19 -5 42 -17l119 119l78 -78l-119 -119
q12 -23 17 -42h168v-110z" />
    <glyph glyph-name="uni2610" unicode="&#x2610;" horiz-adv-x="780" 
d="M40 0v700h700v-700h-700zM150 110h480v480h-480v-480z" />
    <glyph glyph-name="uni2611" unicode="&#x2611;" horiz-adv-x="780" 
d="M40 0v700h700v-700h-700zM150 110h480v480h-480v-480zM526 532l51 -86q-83 -39 -123.5 -104.5t-44.5 -173.5h-96q-5 45 -34 74.5t-75 39.5l36 96q88 -26 110 -104q26 185 176 258z" />
    <glyph glyph-name="uni2612" unicode="&#x2612;" horiz-adv-x="780" 
d="M40 0v700h700v-700h-700zM150 110h480v480h-480v-480zM277 167l-70 70l113 113l-113 114l70 70l113 -114l114 114l70 -70l-114 -114l114 -113l-70 -70l-114 113z" />
    <glyph glyph-name="uni2639" unicode="&#x2639;" horiz-adv-x="780" 
d="M40 350q-3 142 102.5 247.5t247.5 102.5q142 3 247.5 -102.5t102.5 -247.5q3 -142 -102.5 -247.5t-247.5 -102.5q-142 -3 -247.5 102.5t-102.5 247.5zM651 350q2 106 -76.5 184.5t-184.5 76.5q-106 2 -184.5 -76.5t-76.5 -184.5q-2 -106 76.5 -184.5t184.5 -76.5
q106 -2 184.5 76.5t76.5 184.5zM232 455q0 23 15.5 38.5t37.5 15.5q23 0 38.5 -15.5t15.5 -38.5q0 -22 -15.5 -37.5t-38.5 -15.5q-22 0 -37.5 15.5t-15.5 37.5zM442 455q0 23 15.5 38.5t37.5 15.5q23 0 38.5 -15.5t15.5 -38.5q0 -22 -15.5 -37.5t-38.5 -15.5
q-22 0 -37.5 15.5t-15.5 37.5zM281 186l-81 37q16 58 68.5 96t121.5 38q70 0 123 -39q51 -36 68 -95l-82 -37q-26 83 -109 83q-81 0 -109 -83z" />
    <glyph glyph-name="smileface" unicode="&#x263a;" horiz-adv-x="780" 
d="M40 350q-3 142 102.5 247.5t247.5 102.5q142 3 247.5 -102.5t102.5 -247.5q3 -142 -102.5 -247.5t-247.5 -102.5q-142 -3 -247.5 102.5t-102.5 247.5zM651 350q2 106 -76.5 184.5t-184.5 76.5q-106 2 -184.5 -76.5t-76.5 -184.5q-2 -106 76.5 -184.5t184.5 -76.5
q106 -2 184.5 76.5t76.5 184.5zM232 455q0 23 15.5 38.5t37.5 15.5q23 0 38.5 -15.5t15.5 -38.5q0 -22 -15.5 -37.5t-38.5 -15.5q-22 0 -37.5 15.5t-15.5 37.5zM442 455q0 23 15.5 38.5t37.5 15.5q23 0 38.5 -15.5t15.5 -38.5q0 -22 -15.5 -37.5t-38.5 -15.5
q-22 0 -37.5 15.5t-15.5 37.5zM200 283l81 36q28 -83 109 -83q83 0 109 83l82 -36q-17 -58 -68 -96q-53 -39 -123 -39q-69 0 -121.5 38.5t-68.5 96.5z" />
    <glyph glyph-name="sun" unicode="&#x263c;" horiz-adv-x="800" 
d="M760 295h-168q-5 -19 -17 -42l119 -119l-78 -77l-119 119q-19 -12 -42 -18v-168h-110v168q-23 6 -42 18l-119 -119l-77 77l119 119q-12 19 -18 42h-168v110h168q6 23 18 42l-119 119l77 78l119 -119q23 12 42 17v168h110v-168q19 -5 42 -17l119 119l78 -78l-119 -119
q12 -23 17 -42h168v-110zM490 350q0 38 -26 64t-64 26q-37 0 -63.5 -26.5t-26.5 -63.5t26.5 -63.5t63.5 -26.5t63.5 26.5t26.5 63.5z" />
    <glyph glyph-name="female" unicode="&#x2640;" horiz-adv-x="574" 
d="M341 222v-85h115v-108h-115v-109h-108v109h-115v108h115v85q-83 18 -138 86.5t-55 154.5q0 101 73 174t174 73t174 -73t73 -174q0 -86 -55 -154.5t-138 -86.5zM287 326q56 0 96.5 40.5t40.5 96.5t-40.5 96.5t-96.5 40.5t-96.5 -40.5t-40.5 -96.5t40.5 -96.5t96.5 -40.5z
" />
    <glyph glyph-name="male" unicode="&#x2642;" horiz-adv-x="801" 
d="M758 327l-112 -71q-49 67 -49 140q0 53 19 91l-119 -119q37 -61 37 -131q0 -101 -73 -174t-174 -73t-174 73t-73 174t73 174t174 73q69 0 128 -36l120 120q-39 -19 -83 -19q-81 0 -148 49l71 112q74 -62 153 -62q74 0 147 60l81 -81q-59 -73 -59 -155q0 -72 61 -145z
M424 237q0 56 -40.5 96.5t-96.5 40.5t-96.5 -40.5t-40.5 -96.5t40.5 -96.5t96.5 -40.5t96.5 40.5t40.5 96.5z" />
    <glyph glyph-name="uni2661" unicode="&#x2661;" horiz-adv-x="904" 
d="M186 256q-146 74 -146 229q0 97 61.5 161t161.5 64q135 0 189 -110q54 110 189 110q100 0 161.5 -64t61.5 -161q0 -155 -146 -229q-72 -37 -107 -61q-93 -64 -107 -195h-104q-8 76 -39 122q-31 48 -69 73q-33 24 -106 61zM583 302l34 18q52 27 75 43q62 43 62 121
q0 52 -33 85t-88 33t-90 -36.5t-40 -101.5h-102q-4 64 -39.5 101t-90.5 37q-54 0 -87.5 -33t-33.5 -85q0 -43 17 -72q17 -28 42 -46t78 -45l35 -19q109 -60 130 -142q21 82 131 142z" />
    <glyph glyph-name="heart" unicode="&#x2665;" horiz-adv-x="904" 
d="M186 256q-146 74 -146 229q0 97 61.5 161t161.5 64q135 0 189 -110q54 110 189 110q100 0 161.5 -64t61.5 -161q0 -155 -146 -229q-72 -37 -107 -61q-93 -64 -107 -195h-104q-8 76 -39 122q-31 48 -69 73q-33 24 -106 61z" />
    <glyph glyph-name="uni26A5" unicode="&#x26a5;" horiz-adv-x="801" 
d="M758 435l-112 -71q-49 67 -49 140q0 53 19 91l-119 -119q37 -61 37 -131q0 -86 -55 -154.5t-138 -86.5v-85h115v-108h-115v-109h-108v109h-115v108h115v85q-83 18 -138 86.5t-55 154.5q0 101 73 174t174 73q69 0 128 -36l120 120q-39 -19 -83 -19q-81 0 -148 49l71 112
q74 -62 153 -62q74 0 147 60l81 -81q-59 -73 -59 -155q0 -72 61 -145zM424 345q0 56 -40.5 96.5t-96.5 40.5t-96.5 -40.5t-40.5 -96.5t40.5 -96.5t96.5 -40.5t96.5 40.5t40.5 96.5z" />
    <glyph glyph-name="uni2713" unicode="&#x2713;" horiz-adv-x="769" 
d="M654 710l75 -130q-170 -68 -248 -207q-77 -140 -80 -373h-150q-12 96 -64.5 160.5t-146.5 88.5l54 151q80 -24 137.5 -80t77.5 -133q33 384 345 523z" />
    <glyph glyph-name="uni2715" unicode="&#x2715;" horiz-adv-x="779" 
d="M116 -3l-79 80l273 273l-273 274l79 79l274 -273l273 273l80 -79l-274 -274l274 -273l-80 -80l-273 274z" />
    <glyph glyph-name="uni271A" unicode="&#x271a;" horiz-adv-x="780" 
d="M40 405h295v295h110v-295h295v-110h-295v-295h-110v295h-295v110z" />
    <glyph glyph-name="uni2780" unicode="&#x2780;" horiz-adv-x="780" 
d="M40 350q-3 142 102.5 247.5t247.5 102.5q142 3 247.5 -102.5t102.5 -247.5q3 -142 -102.5 -247.5t-247.5 -102.5q-142 -3 -247.5 102.5t-102.5 247.5zM650 350q2 106 -76 184t-184 76q-106 2 -184 -76t-76 -184q-2 -106 76 -184t184 -76q106 -2 184 76t76 184zM363 180
v232q-26 -45 -83 -50l-10 84q85 7 98 74h76v-340h-81z" />
    <glyph glyph-name="uni2781" unicode="&#x2781;" horiz-adv-x="780" 
d="M40 350q-3 142 102.5 247.5t247.5 102.5q142 3 247.5 -102.5t102.5 -247.5q3 -142 -102.5 -247.5t-247.5 -102.5q-142 -3 -247.5 102.5t-102.5 247.5zM650 350q2 106 -76 184t-184 76q-106 2 -184 -76t-76 -184q-2 -106 76 -184t184 -76q106 -2 184 76t76 184zM265 412
q0 51 35 81.5t92 30.5q60 0 93 -28.5t33 -77.5q-3 -49 -22 -73.5t-65 -52.5q-40 -24 -49 -39h133v-73h-247q0 62 24.5 94.5t75.5 62.5q39 22 54 38t15 37q0 18 -12.5 28.5t-34.5 10.5q-21 0 -33 -10.5t-12 -27.5q0 -18 13 -32l-64 -43q-29 29 -29 74z" />
    <glyph glyph-name="uni2782" unicode="&#x2782;" horiz-adv-x="780" 
d="M40 350q-3 142 102.5 247.5t247.5 102.5q142 3 247.5 -102.5t102.5 -247.5q3 -142 -102.5 -247.5t-247.5 -102.5q-142 -3 -247.5 102.5t-102.5 247.5zM650 350q2 106 -76 184t-184 76q-106 2 -184 -76t-76 -184q-2 -106 76 -184t184 -76q106 -2 184 76t76 184zM264 274
l73 34q8 -56 57 -56q21 0 34 12t13 32q0 19 -12.5 32t-30.5 13q-20 0 -33 -12l-44 53l81 66h-122v72h227v-60l-76 -57q38 -2 64.5 -30.5t26.5 -77.5q0 -53 -35.5 -86t-91.5 -33q-54 0 -88 26.5t-43 71.5z" />
    <glyph glyph-name="uni2783" unicode="&#x2783;" horiz-adv-x="780" 
d="M40 350q-3 142 102.5 247.5t247.5 102.5q142 3 247.5 -102.5t102.5 -247.5q3 -142 -102.5 -247.5t-247.5 -102.5q-142 -3 -247.5 102.5t-102.5 247.5zM650 350q2 106 -76 184t-184 76q-106 2 -184 -76t-76 -184q-2 -106 76 -184t184 -76q106 -2 184 76t76 184zM411 180
v69h-161v78q66 63 66 167v26h77v-24q0 -112 -57 -175h75v94h77v-94h45v-72h-45v-69h-77z" />
    <glyph glyph-name="uni2784" unicode="&#x2784;" horiz-adv-x="780" 
d="M40 350q-3 142 102.5 247.5t247.5 102.5q142 3 247.5 -102.5t102.5 -247.5q3 -142 -102.5 -247.5t-247.5 -102.5q-142 -3 -247.5 102.5t-102.5 247.5zM650 350q2 106 -76 184t-184 76q-106 2 -184 -76t-76 -184q-2 -106 76 -184t184 -76q106 -2 184 76t76 184zM500 520
v-71h-159q0 -41 -9 -71q20 32 70 32q51 0 82.5 -29t31.5 -80q0 -58 -32.5 -91.5t-93.5 -33.5q-53 0 -90 28t-42 77l78 16q3 -22 18 -36t37 -14q23 0 36 14t13 36q0 21 -13 33.5t-36 12.5q-32 0 -46 -27l-81 20q15 94 15 184h221z" />
    <glyph glyph-name="uni2785" unicode="&#x2785;" horiz-adv-x="780" 
d="M40 350q-3 142 102.5 247.5t247.5 102.5q142 3 247.5 -102.5t102.5 -247.5q3 -142 -102.5 -247.5t-247.5 -102.5q-142 -3 -247.5 102.5t-102.5 247.5zM650 350q2 106 -76 184t-184 76q-106 2 -184 -76t-76 -184q-2 -106 76 -184t184 -76q106 -2 184 76t76 184zM251 347
q0 80 37 128.5t104 48.5q104 0 121 -89l-67 -19q-4 19 -19.5 30.5t-38.5 11.5q-28 0 -45.5 -24.5t-17.5 -67.5v-4q25 40 78 40q48 0 79 -30t31 -78q0 -53 -34 -85.5t-89 -32.5q-64 0 -101.5 45.5t-37.5 125.5zM441 292q0 22 -14 35.5t-37 13.5q-21 0 -35.5 -14t-14.5 -35
t14.5 -35t35.5 -14q22 0 36.5 14t14.5 35z" />
    <glyph glyph-name="uni2786" unicode="&#x2786;" horiz-adv-x="780" 
d="M40 350q-3 142 102.5 247.5t247.5 102.5q142 3 247.5 -102.5t102.5 -247.5q3 -142 -102.5 -247.5t-247.5 -102.5q-142 -3 -247.5 102.5t-102.5 247.5zM650 350q2 106 -76 184t-184 76q-106 2 -184 -76t-76 -184q-2 -106 76 -184t184 -76q106 -2 184 76t76 184zM270 520
h241v-64q-105 -67 -105 -197q0 -43 7 -79h-80q-5 30 -5 61q0 132 83 209h-141v70z" />
    <glyph glyph-name="uni2787" unicode="&#x2787;" horiz-adv-x="780" 
d="M40 350q-3 142 102.5 247.5t247.5 102.5q142 3 247.5 -102.5t102.5 -247.5q3 -142 -102.5 -247.5t-247.5 -102.5q-142 -3 -247.5 102.5t-102.5 247.5zM650 350q2 106 -76 184t-184 76q-106 2 -184 -76t-76 -184q-2 -106 76 -184t184 -76q106 -2 184 76t76 184zM258 282
q0 64 59 90q-39 22 -39 65q0 40 30.5 63.5t82.5 23.5t82 -23.5t30 -63.5q0 -43 -39 -65q60 -26 60 -90q0 -47 -36 -76.5t-97 -29.5t-97 29.5t-36 76.5zM434 434q0 35 -43 35q-19 0 -31.5 -9t-12.5 -26t12.5 -26t31.5 -9q43 0 43 35zM446 291q0 21 -15.5 33.5t-39.5 12.5
t-39.5 -12.5t-15.5 -33.5t15.5 -34t39.5 -13t39.5 13t15.5 34z" />
    <glyph glyph-name="uni2788" unicode="&#x2788;" horiz-adv-x="780" 
d="M40 350q-3 142 102.5 247.5t247.5 102.5q142 3 247.5 -102.5t102.5 -247.5q3 -142 -102.5 -247.5t-247.5 -102.5q-142 -3 -247.5 102.5t-102.5 247.5zM650 350q2 106 -76 184t-184 76q-106 2 -184 -76t-76 -184q-2 -106 76 -184t184 -76q106 -2 184 76t76 184zM258 274
l65 20q13 -51 65 -51q69 0 69 93l-1 8q-23 -42 -75 -42q-49 0 -79.5 31t-30.5 75q0 52 34 84t87 32q68 0 103.5 -45t35.5 -124q0 -81 -36 -130t-106 -49q-53 0 -87 26t-44 72zM444 409q0 22 -14 35t-36 13t-36.5 -13.5t-14.5 -34.5t14.5 -34.5t36.5 -13.5t36 13.5t14 34.5z
" />
    <glyph glyph-name="uni278A" unicode="&#x278a;" horiz-adv-x="780" 
d="M40 350q-3 142 102.5 247.5t247.5 102.5q142 3 247.5 -102.5t102.5 -247.5q3 -142 -102.5 -247.5t-247.5 -102.5q-142 -3 -247.5 102.5t-102.5 247.5zM363 180h81v340h-76q-13 -67 -98 -74l9 -84q25 2 48.5 15.5t35.5 34.5v-232z" />
    <glyph glyph-name="uni278B" unicode="&#x278b;" horiz-adv-x="780" 
d="M40 350q-3 142 102.5 247.5t247.5 102.5q142 3 247.5 -102.5t102.5 -247.5q3 -142 -102.5 -247.5t-247.5 -102.5q-142 -3 -247.5 102.5t-102.5 247.5zM267 180h247v73h-133q9 15 49 39q32 20 46.5 31.5t26.5 35.5t14 59q0 49 -33 77.5t-93 28.5q-57 0 -91.5 -30.5
t-34.5 -81.5q0 -45 29 -74l64 43q-13 14 -13 32q0 17 12 27.5t33 10.5q46 0 46 -39q0 -22 -14.5 -38t-53.5 -37q-53 -30 -77 -64t-24 -93z" />
    </font>
</defs>
</svg>
